<svg width="23" height="23" viewBox="0 0 23 23" fill="none" xmlns="http://www.w3.org/2000/svg">
<path d="M13.7675 5.24176C13.3129 5.15779 12.8955 5.44787 12.8089 5.89158C12.7224 6.33528 13.0134 6.76849 13.4556 6.85532C14.7869 7.11487 15.8149 8.14541 16.0754 9.4813V9.48225C16.1496 9.8668 16.4882 10.1464 16.878 10.1464C16.9303 10.1464 16.9826 10.1416 17.0359 10.1321C17.4781 10.0433 17.7691 9.61107 17.6825 9.16641C17.2936 7.17117 15.7578 5.63012 13.7675 5.24176Z" fill="#0F50A4"/>
<path d="M13.7078 1.91724C13.4948 1.88671 13.2809 1.94968 13.1106 2.08518C12.9357 2.22259 12.8263 2.42106 12.8025 2.64339C12.7521 3.09282 13.0764 3.49931 13.5252 3.54989C16.6206 3.89531 19.0265 6.30659 19.3745 9.41157C19.4211 9.82761 19.7701 10.1415 20.1866 10.1415C20.218 10.1415 20.2484 10.1396 20.2798 10.1358C20.4976 10.112 20.6916 10.0041 20.8285 9.83238C20.9645 9.66062 21.0263 9.44688 21.0016 9.22836C20.568 5.35429 17.5696 2.34759 13.7078 1.91724Z" fill="#0F50A4"/>
<path fill-rule="evenodd" clip-rule="evenodd" d="M10.5337 12.3867C14.3427 16.1947 15.2068 11.7893 17.6321 14.2128C19.9702 16.5503 21.314 17.0186 18.3516 19.9801C17.9806 20.2783 15.623 23.866 7.33767 15.5829C-0.948688 7.29888 2.63688 4.93888 2.93516 4.56793C5.90468 1.59821 6.36492 2.94985 8.70302 5.2873C11.1282 7.71185 6.72471 8.57879 10.5337 12.3867Z" fill="#0F50A4"/>
</svg>
