<svg width="34" height="34" viewBox="0 0 34 34" fill="none" xmlns="http://www.w3.org/2000/svg">
<path d="M29.3603 21.6554V12.3451C29.3603 10.807 28.5436 9.40499 27.2233 8.62913L19.1383 3.96036C17.8045 3.19811 16.1711 3.19811 14.8508 3.96036L6.76585 8.62913C5.44557 9.40499 4.62891 10.8207 4.62891 12.3451V21.6554C4.62891 23.1935 5.44557 24.6092 6.76585 25.3715L14.8508 30.0402C16.1847 30.8025 17.8181 30.8025 19.1383 30.0402L22 28.501C21.7198 27.845 21.0845 27.2868 21.0845 26.5284C21.0845 23.5214 23.5221 21.0837 26.529 21.0837C27.5637 21.0837 28.5365 22.1549 29.3603 22.6561C29.364 22.5837 29.3603 21.7284 29.3603 21.6554Z" fill="white" fill-opacity="0.24"/>
<path fill-rule="evenodd" clip-rule="evenodd" d="M21.0005 25.7083V26.2941C21.0073 26.3466 21.0136 26.3993 21.0199 26.452C21.0364 26.589 21.0528 26.7259 21.0775 26.8612C21.3571 28.3585 22.1536 29.5029 23.4499 30.2965C24.1176 30.7057 24.8488 30.9292 25.6315 30.9845C25.6569 30.9881 25.6821 30.9935 25.7068 31.0007H26.2938C26.3549 30.9924 26.4161 30.9848 26.4774 30.9773C26.6061 30.9614 26.7348 30.9456 26.8624 30.9229C28.0153 30.7177 28.9801 30.1723 29.7545 29.2962C30.4608 28.4972 30.8724 27.5614 30.9744 26.5015C31.1013 25.1922 30.7655 24.0046 29.9626 22.9607C29.2191 21.9939 28.2467 21.3671 27.0507 21.1179C25.5566 20.8065 24.1863 21.112 22.9695 22.0338C21.9915 22.7746 21.3747 23.7583 21.1137 24.9592C21.0822 25.104 21.0638 25.2515 21.0455 25.3992C21.037 25.4677 21.0284 25.5363 21.0186 25.6046C21.0151 25.6283 21.0107 25.652 21.0064 25.6758C21.0044 25.6866 21.0024 25.6974 21.0005 25.7083ZM26.3891 27.3326V26.3543L26.5068 26.3524C26.664 26.3524 26.8213 26.3527 26.9786 26.353C27.2932 26.3537 27.6078 26.3543 27.9223 26.3524C28.2051 26.3524 28.3895 26.0961 28.2995 25.8388C28.2413 25.6717 28.0962 25.579 27.8837 25.579H26.5072H26.3879V25.3024C26.3879 25.163 26.3883 25.0239 26.3887 24.8848C26.3895 24.6072 26.3903 24.3302 26.3879 24.0531C26.3855 23.7785 26.16 23.5973 25.9066 23.6584C25.7261 23.7019 25.6116 23.8563 25.6116 24.0664V25.4719V25.579H25.4791C25.3741 25.579 25.2692 25.579 25.1643 25.5789C24.8234 25.5788 24.4824 25.5786 24.1415 25.5803C24.0734 25.5786 24.0055 25.5869 23.9397 25.6047C23.8532 25.6336 23.7799 25.6924 23.7327 25.7705C23.6856 25.8485 23.6678 25.9408 23.6825 26.0308C23.6972 26.1208 23.7435 26.2027 23.813 26.2617C23.8826 26.3207 23.9708 26.353 24.062 26.3529C24.4187 26.3552 24.7754 26.3549 25.1322 26.3546C25.2571 26.3545 25.382 26.3543 25.5069 26.3543H25.6126C25.6126 26.5267 25.6124 26.6973 25.6123 26.8668C25.6119 27.2021 25.6116 27.5327 25.6126 27.8634C25.6131 28.115 25.7713 28.2887 25.9978 28.2887C26.2287 28.2902 26.3877 28.117 26.3891 27.86V27.3326Z" fill="white"/>
<path d="M17.0039 16.9992C18.7554 16.9992 20.1753 15.5793 20.1753 13.8277C20.1753 12.0761 18.7554 10.6562 17.0039 10.6562C15.2524 10.6562 13.8325 12.0761 13.8325 13.8277C13.8325 15.5793 15.2524 16.9992 17.0039 16.9992Z" fill="white"/>
<path d="M20.6499 23.3416C21.7524 23.3416 22.3921 22.1166 21.7796 21.2047C20.8541 19.8299 19.0574 18.9043 17.0021 18.9043C14.9469 18.9043 13.1502 19.8299 12.2246 21.2047C11.6121 22.1166 12.2519 23.3416 13.3544 23.3416H20.6499Z" fill="white"/>
</svg>
