<svg width="79" height="34" viewBox="0 0 79 34" fill="none" xmlns="http://www.w3.org/2000/svg">
<path d="M30.4077 16.3643C28.3351 15.4266 26.0879 12.9111 26.7248 10.5442C27.0434 10.4627 27.3786 10.5926 27.5591 10.8676C27.5591 10.8676 31.1546 16.484 30.1458 11.317C29.6705 8.88875 28.8524 6.54132 28.7877 4.03221C28.681 -0.526852 32.865 -1.7911 34.0679 3.2465C34.2263 3.91258 34.8342 9.3285 36.2181 8.70769C36.3963 8.61394 36.5409 8.46702 36.6319 8.28734C37.3336 7.13626 37.5437 5.4452 38.8306 5.05396C39.9591 4.69829 41.0714 5.67801 41.6792 6.69005C42.9112 8.74648 44.5602 13.8585 42.0381 15.5916C39.5161 17.3246 33.1528 17.5995 30.4303 16.387L30.4077 16.3643Z" fill="url(#paint0_linear_20897_69353)"/>
<path d="M72.3349 17.3221C73.8454 16.0534 75.1255 13.4259 74.031 11.5951C73.7434 11.6047 73.4947 11.7984 73.415 12.0748C73.415 12.0748 71.7394 17.6088 71.3633 13.0598C71.1763 10.9125 71.3026 8.76404 70.7799 6.66307C69.8086 2.82305 66.0074 2.76289 66.1903 7.2474C66.21 7.83884 66.9839 12.5004 65.6824 12.3122C65.5123 12.2743 65.3577 12.1857 65.2391 12.0581C64.3815 11.2642 63.8051 9.9028 62.6395 9.86943C61.6156 9.84055 60.9202 10.9158 60.6493 11.9043C60.1064 13.9089 60.8673 16.8284 63.3792 17.679C65.9464 18.5444 70.3434 18.9936 72.3187 17.336L72.3349 17.3221Z" fill="url(#paint1_linear_20897_69353)"/>
<path d="M0.5 33.9999C12.2483 21.2018 28.8503 13.2222 47.25 13.2222C65.6497 13.2222 82.2517 21.2018 94 33.9999H0.5Z" fill="url(#paint2_linear_20897_69353)"/>
<defs>
<linearGradient id="paint0_linear_20897_69353" x1="31.5" y1="37" x2="34.7885" y2="-0.0187694" gradientUnits="userSpaceOnUse">
<stop stop-color="white" stop-opacity="0"/>
<stop offset="1" stop-color="#DDE9F7"/>
</linearGradient>
<linearGradient id="paint1_linear_20897_69353" x1="68.5137" y1="16.3317" x2="71.2433" y2="-4.45084" gradientUnits="userSpaceOnUse">
<stop stop-color="#E5F1FF" stop-opacity="0.3"/>
<stop offset="1" stop-color="#E7EFF7"/>
</linearGradient>
<linearGradient id="paint2_linear_20897_69353" x1="44" y1="34.3055" x2="43.4421" y2="10.0013" gradientUnits="userSpaceOnUse">
<stop stop-color="white" stop-opacity="0"/>
<stop offset="1" stop-color="#DDE9F7"/>
</linearGradient>
</defs>
</svg>
