<svg width="20" height="20" viewBox="0 0 20 20" fill="none" xmlns="http://www.w3.org/2000/svg">
<path fill-rule="evenodd" clip-rule="evenodd" d="M8.40025 15.4939H3.14941C2.80441 15.4939 2.52441 15.2139 2.52441 14.8689C2.52441 14.5239 2.80441 14.2439 3.14941 14.2439H8.40025C8.74525 14.2439 9.02525 14.5239 9.02525 14.8689C9.02525 15.2139 8.74525 15.4939 8.40025 15.4939Z" fill="#0F50A4"/>
<path d="M8.40025 15.4939H3.14941C2.80441 15.4939 2.52441 15.2139 2.52441 14.8689C2.52441 14.5239 2.80441 14.2439 3.14941 14.2439H8.40025C8.74525 14.2439 9.02525 14.5239 9.02525 14.8689C9.02525 15.2139 8.74525 15.4939 8.40025 15.4939" stroke="#0F50A4" stroke-width="0.5"/>
<path fill-rule="evenodd" clip-rule="evenodd" d="M15.9922 7.41699H10.7422C10.3972 7.41699 10.1172 7.13699 10.1172 6.79199C10.1172 6.44699 10.3972 6.16699 10.7422 6.16699H15.9922C16.3372 6.16699 16.6172 6.44699 16.6172 6.79199C16.6172 7.13699 16.3372 7.41699 15.9922 7.41699Z" fill="#0F50A4"/>
<path d="M15.9922 7.41699H10.7422C10.3972 7.41699 10.1172 7.13699 10.1172 6.79199C10.1172 6.44699 10.3972 6.16699 10.7422 6.16699H15.9922C16.3372 6.16699 16.6172 6.44699 16.6172 6.79199C16.6172 7.13699 16.3372 7.41699 15.9922 7.41699" stroke="#0F50A4" stroke-width="0.5"/>
<mask id="mask0_23746_265" style="mask-type:alpha" maskUnits="userSpaceOnUse" x="2" y="3" width="6" height="7">
<path fill-rule="evenodd" clip-rule="evenodd" d="M2.5 4.16699H7.68817V9.32666H2.5V4.16699Z" fill="white" stroke="white" stroke-width="0.5"/>
</mask>
<g mask="url(#mask0_23746_265)">
<path fill-rule="evenodd" clip-rule="evenodd" d="M5.09417 5.41675C4.35333 5.41675 3.75 6.01341 3.75 6.74758C3.75 7.48092 4.35333 8.07675 5.09417 8.07675C5.83583 8.07675 6.43833 7.48092 6.43833 6.74758C6.43833 6.01341 5.83583 5.41675 5.09417 5.41675ZM5.09417 9.32675C3.66417 9.32675 2.5 8.17008 2.5 6.74758C2.5 5.32508 3.66417 4.16675 5.09417 4.16675C6.525 4.16675 7.68833 5.32508 7.68833 6.74758C7.68833 8.17008 6.525 9.32675 5.09417 9.32675Z" fill="#0F50A4"/>
<path d="M5.09417 5.16675C4.2177 5.16675 3.5 5.87292 3.5 6.74758H4C4 6.15391 4.48897 5.66675 5.09417 5.66675V5.16675ZM3.5 6.74758C3.5 7.62172 4.21801 8.32675 5.09417 8.32675V7.82675C4.48866 7.82675 4 7.34011 4 6.74758H3.5ZM5.09417 8.32675C5.97126 8.32675 6.68833 7.62162 6.68833 6.74758H6.18833C6.18833 7.34021 5.70041 7.82675 5.09417 7.82675V8.32675ZM6.68833 6.74758C6.68833 5.87302 5.97157 5.16675 5.09417 5.16675V5.66675C5.7001 5.66675 6.18833 6.15381 6.18833 6.74758H6.68833ZM5.09417 9.07675C3.80082 9.07675 2.75 8.0306 2.75 6.74758H2.25C2.25 8.30957 3.52751 9.57675 5.09417 9.57675V9.07675ZM2.75 6.74758C2.75 5.46436 3.80103 4.41675 5.09417 4.41675V3.91675C3.5273 3.91675 2.25 5.18581 2.25 6.74758H2.75ZM5.09417 4.41675C6.38808 4.41675 7.43833 5.4643 7.43833 6.74758H7.93833C7.93833 5.18586 6.66192 3.91675 5.09417 3.91675V4.41675ZM7.43833 6.74758C7.43833 8.03065 6.38829 9.07675 5.09417 9.07675V9.57675C6.66171 9.57675 7.93833 8.30951 7.93833 6.74758H7.43833Z" fill="#0F50A4"/>
</g>
<path fill-rule="evenodd" clip-rule="evenodd" d="M14.4895 13.5066C13.7479 13.5066 13.1445 14.1033 13.1445 14.8366C13.1445 15.5708 13.7479 16.1666 14.4895 16.1666C15.2304 16.1666 15.8329 15.5708 15.8329 14.8366C15.8329 14.1033 15.2304 13.5066 14.4895 13.5066ZM14.4895 17.4166C13.0587 17.4166 11.8945 16.2591 11.8945 14.8366C11.8945 13.4141 13.0587 12.2566 14.4895 12.2566C15.9195 12.2566 17.0829 13.4141 17.0829 14.8366C17.0829 16.2591 15.9195 17.4166 14.4895 17.4166Z" fill="#0F50A4"/>
<path d="M14.4895 13.2566C13.6124 13.2566 12.8945 13.9626 12.8945 14.8366H13.3945C13.3945 14.244 13.8833 13.7566 14.4895 13.7566V13.2566ZM12.8945 14.8366C12.8945 15.7116 13.6125 16.4166 14.4895 16.4166V15.9166C13.8832 15.9166 13.3945 15.43 13.3945 14.8366H12.8945ZM14.4895 16.4166C15.366 16.4166 16.0829 15.7113 16.0829 14.8366H15.5829C15.5829 15.4303 15.0947 15.9166 14.4895 15.9166V16.4166ZM16.0829 14.8366C16.0829 13.9629 15.3661 13.2566 14.4895 13.2566V13.7566C15.0946 13.7566 15.5829 14.2437 15.5829 14.8366H16.0829ZM14.4895 17.1666C13.1954 17.1666 12.1445 16.1197 12.1445 14.8366H11.6445C11.6445 16.3985 12.922 17.6666 14.4895 17.6666V17.1666ZM12.1445 14.8366C12.1445 13.5535 13.1954 12.5066 14.4895 12.5066V12.0066C12.922 12.0066 11.6445 13.2747 11.6445 14.8366H12.1445ZM14.4895 12.5066C15.7827 12.5066 16.8329 13.5534 16.8329 14.8366H17.3329C17.3329 13.2748 16.0564 12.0066 14.4895 12.0066V12.5066ZM16.8329 14.8366C16.8329 16.1198 15.7827 17.1666 14.4895 17.1666V17.6666C16.0564 17.6666 17.3329 16.3984 17.3329 14.8366H16.8329Z" fill="#0F50A4"/>
</svg>
