<svg width="12" height="12" viewBox="0 0 12 12" fill="none" xmlns="http://www.w3.org/2000/svg">
<path fill-rule="evenodd" clip-rule="evenodd" d="M5.8673 10.919C4.6614 10.1769 3.53957 9.30338 2.5219 8.31423C1.80642 7.60188 1.26174 6.73345 0.929566 5.77546C0.331814 3.91708 1.03003 1.78959 2.98402 1.15998C4.01096 0.829375 5.13254 1.01833 5.9979 1.66773C6.86359 1.01912 7.98477 0.830232 9.01177 1.15998C10.9658 1.78959 11.669 3.91708 11.0712 5.77546C10.7391 6.73345 10.1944 7.60188 9.47892 8.31423C8.46124 9.30338 7.33942 10.1769 6.13352 10.919L6.00292 11.0002L5.8673 10.919Z" stroke="#ED1E26" stroke-linecap="round" stroke-linejoin="round"/>
<path d="M8.07776 3.25171C8.6696 3.44076 9.09011 3.9721 9.14266 4.59726" stroke="#ED1E26" stroke-linecap="round" stroke-linejoin="round"/>
</svg>
