<svg width="16" height="18" viewBox="0 0 16 18" fill="none" xmlns="http://www.w3.org/2000/svg">
<path d="M1.80769 10.6237C1.80769 10.1776 1.44608 9.81597 1 9.81597C0.553925 9.81597 0.192309 10.1776 0.192309 10.6237H1.80769ZM1 15.0603L1.80769 15.0603L1 15.0603ZM3.1875 17.0769L3.1875 17.8846L3.1875 17.0769ZM12.8125 17.0769L12.8125 16.2692L12.8125 17.0769ZM15 15.0603L14.1923 15.0603L15 15.0603ZM15.8077 10.6237C15.8077 10.1776 15.4461 9.81597 15 9.81597C14.5539 9.81597 14.1923 10.1776 14.1923 10.6237H15.8077ZM7.19171 12.0833C7.19171 12.5294 7.55332 12.891 7.9994 12.891C8.44548 12.891 8.80709 12.5294 8.80709 12.0833H7.19171ZM8.80709 2.40346C8.80709 1.95739 8.44548 1.59577 7.9994 1.59577C7.55332 1.59577 7.19171 1.95739 7.19171 2.40346L8.80709 2.40346ZM10.9495 5.82047C11.2774 6.12282 11.7884 6.10206 12.0908 5.77408C12.3931 5.44611 12.3724 4.93513 12.0444 4.63278L10.9495 5.82047ZM7.99692 2L8.54439 1.40615L7.99692 0.901454L7.44946 1.40615L7.99692 2ZM3.94946 4.63278C3.62149 4.93513 3.60073 5.44611 3.90308 5.77408C4.20543 6.10206 4.71642 6.12282 5.04439 5.82047L3.94946 4.63278ZM0.192309 10.6237L0.192308 15.0603L1.80769 15.0603L1.80769 10.6237H0.192309ZM0.192308 15.0603C0.192307 16.6801 1.59702 17.8846 3.1875 17.8846L3.1875 16.2692C2.36298 16.2692 1.80769 15.6668 1.80769 15.0603L0.192308 15.0603ZM3.1875 17.8846L12.8125 17.8846L12.8125 16.2692L3.1875 16.2692L3.1875 17.8846ZM12.8125 17.8846C14.403 17.8846 15.8077 16.6801 15.8077 15.0603L14.1923 15.0603C14.1923 15.6668 13.637 16.2692 12.8125 16.2692L12.8125 17.8846ZM15.8077 15.0603L15.8077 10.6237H14.1923L14.1923 15.0603L15.8077 15.0603ZM8.80709 12.0833L8.80709 2.40346L7.19171 2.40346L7.19171 12.0833H8.80709ZM12.0444 4.63278L8.54439 1.40615L7.44946 2.59385L10.9495 5.82047L12.0444 4.63278ZM7.44946 1.40615L3.94946 4.63278L5.04439 5.82047L8.54439 2.59385L7.44946 1.40615Z" fill="#0A0B09"/>
</svg>
