<svg width="20" height="18" viewBox="0 0 20 18" fill="none" xmlns="http://www.w3.org/2000/svg">
<path d="M17.6012 2.50423L17.6013 2.50436C19.5996 4.65958 19.5996 7.99055 17.6014 10.1458L17.6006 10.1466L10.541 17.5941L17.6012 2.50423ZM17.6012 2.50423C16.6513 1.48321 15.3202 0.902259 13.9256 0.900105L13.9254 0.900105M17.6012 2.50423L13.9254 0.900105M13.9254 0.900105C12.5299 0.90172 11.1976 1.48224 10.2462 2.50325C10.2461 2.50335 10.246 2.50344 10.2459 2.50354L10.0013 2.76203L9.75678 2.50364C9.75668 2.50352 9.75658 2.50341 9.75647 2.5033C7.86857 0.47177 4.69121 0.355201 2.65951 2.24296L2.65949 2.24297M13.9254 0.900105L2.65949 2.24297M2.65949 2.24297C2.56948 2.32664 2.48253 2.41355 2.39883 2.50364L2.39876 2.50372M2.65949 2.24297L2.39876 2.50372M2.39876 2.50372C0.400415 4.65917 0.400415 7.99033 2.39875 10.1458L2.39953 10.1466M2.39876 2.50372L2.39953 10.1466M2.39953 10.1466L9.4617 17.5941C9.744 17.8921 10.2144 17.9049 10.5125 17.6226M2.39953 10.1466L10.5125 17.6226M10.5125 17.6226C10.5222 17.6134 10.5317 17.6039 10.541 17.5941L10.5125 17.6226ZM16.5538 9.09195H16.5535L16.5239 9.12315L10.0013 16.0027L3.47887 9.12397C3.47875 9.12384 3.47863 9.12371 3.47851 9.12358C2.01497 7.54425 2.01509 5.10406 3.47887 3.52488L3.47903 3.52471C4.80326 2.08945 7.04033 1.99945 8.4756 3.32369C8.54528 3.38798 8.61233 3.45503 8.67662 3.52471L8.67662 3.52472L8.67754 3.5257L9.46172 4.353L9.46169 4.35303L9.46381 4.35514C9.76124 4.65066 10.2414 4.65066 10.5389 4.35514L10.5389 4.35517L10.5409 4.35302L11.3251 3.52636L11.3251 3.52637L11.3261 3.52535C12.6503 2.09009 14.8874 2.00009 16.3226 3.32433C16.3923 3.38862 16.4594 3.45567 16.5236 3.52536L16.524 3.52578C17.9913 5.09757 18.011 7.52005 16.5538 9.09195Z" fill="#0A0B09" stroke="black" stroke-width="0.2"/>
</svg>
