<svg width="84" height="84" viewBox="0 0 84 84" fill="none" xmlns="http://www.w3.org/2000/svg">
<g filter="url(#filter0_d_36137_71895)">
<g clip-path="url(#clip0_36137_71895)">
<rect width="84" height="84" rx="42" fill="white"/>
<path d="M44.386 83.9995H39.4747C39.2654 83.9292 39.0488 83.8828 38.829 83.8612C33.7266 83.5616 28.7343 82.2527 24.1412 80.0105C18.0308 77.1976 12.6992 72.9363 8.60873 67.5962C4.51827 62.2561 1.79261 55.9985 0.668211 49.3665C0.3454 47.7755 0.207033 46.1384 -0.000488281 44.5244V39.613C-0.000488281 39.3825 0.114796 39.1518 0.137854 38.9213C0.423745 33.8387 1.73353 28.8664 3.98856 24.3026C11.4593 9.43019 23.5417 1.24463 40.1664 0.230079C48.2714 -0.296728 56.337 1.73586 63.2244 6.04072C69.2679 9.54325 74.3206 14.5263 77.9067 20.5206C81.4928 26.5149 83.4943 33.3233 83.7228 40.3047C84.1821 47.7882 82.4856 55.2463 78.8345 61.7947C75.8722 67.4344 71.646 72.3128 66.4862 76.0488C61.3263 79.7847 55.3724 82.2769 49.0898 83.3308C47.568 83.6306 45.977 83.769 44.386 83.9995ZM41.965 47.3144V47.176C39.3133 47.176 36.6616 47.176 34.033 47.176C30.7406 47.1173 27.5332 48.2234 24.9767 50.2989C22.4202 52.3745 20.6789 55.2862 20.0599 58.5205C19.7498 59.4724 19.6551 60.4813 19.7828 61.4742C19.9104 62.4672 20.257 63.4194 20.7977 64.262C21.8131 65.5013 23.0012 66.5884 24.3256 67.4901C29.9182 71.3632 36.632 73.2838 43.4268 72.9545C50.2216 72.6252 56.7182 70.0642 61.91 65.6685C62.5866 65.1092 63.1271 64.4034 63.4906 63.6045C63.8541 62.8055 64.0312 61.9343 64.0083 61.0569C63.9808 57.6867 62.7239 54.4425 60.4738 51.9333C58.2236 49.4242 55.1349 47.8227 51.7876 47.4296C48.5364 47.0607 45.2392 47.3144 41.965 47.3144ZM55.7997 26.5623C55.7997 23.826 54.9883 21.1512 53.4681 18.876C51.9479 16.6009 49.7872 14.8277 47.2592 13.7806C44.7313 12.7335 41.9496 12.4595 39.2659 12.9933C36.5822 13.5272 34.1171 14.8448 32.1823 16.7796C30.2475 18.7144 28.9298 21.1796 28.396 23.8632C27.8622 26.5469 28.1361 29.3286 29.1832 31.8566C30.2304 34.3846 32.0036 36.5452 34.2787 38.0654C36.5539 39.5856 39.2287 40.397 41.965 40.397C43.7837 40.397 45.5846 40.0384 47.2646 39.3417C48.9446 38.645 50.4707 37.6239 51.7557 36.3367C53.0407 35.0496 54.0593 33.5217 54.7532 31.8406C55.4471 30.1594 55.8027 28.3579 55.7997 26.5392V26.5623Z" fill="#DBDBDB"/>
</g>
</g>
<defs>
<filter id="filter0_d_36137_71895" x="-9.44772" y="-9.44772" width="102.895" height="102.895" filterUnits="userSpaceOnUse" color-interpolation-filters="sRGB">
<feFlood flood-opacity="0" result="BackgroundImageFix"/>
<feColorMatrix in="SourceAlpha" type="matrix" values="0 0 0 0 0 0 0 0 0 0 0 0 0 0 0 0 0 0 127 0" result="hardAlpha"/>
<feMorphology radius="1.34967" operator="dilate" in="SourceAlpha" result="effect1_dropShadow_36137_71895"/>
<feOffset/>
<feGaussianBlur stdDeviation="4.04902"/>
<feComposite in2="hardAlpha" operator="out"/>
<feColorMatrix type="matrix" values="0 0 0 0 0 0 0 0 0 0 0 0 0 0 0 0 0 0 0.05 0"/>
<feBlend mode="normal" in2="BackgroundImageFix" result="effect1_dropShadow_36137_71895"/>
<feBlend mode="normal" in="SourceGraphic" in2="effect1_dropShadow_36137_71895" result="shape"/>
</filter>
<clipPath id="clip0_36137_71895">
<rect width="84" height="84" rx="42" fill="white"/>
</clipPath>
</defs>
</svg>
