<svg width="16" height="14" viewBox="0 0 16 14" fill="none" xmlns="http://www.w3.org/2000/svg">
<path d="M11.7556 5.12378C11.5536 5.7588 11.1639 6.1629 10.5721 6.36495C9.69164 6.6536 8.5947 6.23506 8.17612 5.42686C8.13282 5.35469 8.06065 5.29697 8.00292 5.2248C7.94519 5.29697 7.87302 5.35469 7.82972 5.42686C7.42558 6.1196 6.81937 6.42268 6.03995 6.43711C5.33271 6.43711 4.78423 6.17733 4.4234 5.55675C4.36566 5.44129 4.32236 5.32583 4.23576 5.13821C4.13472 5.28253 4.04812 5.39799 3.97595 5.49902C3.31201 6.45154 1.83979 6.75462 1.00264 6.10517C0.598502 5.78766 0.410864 5.2681 0.540766 4.79184L1.36403 2.50487C1.75237 1.42609 2.77465 0.705843 3.9212 0.704176C6.64044 0.700222 9.35985 0.700148 12.0791 0.704092C13.2294 0.705761 14.2542 1.43072 14.6397 2.51454L15.4651 4.83513C15.6527 5.55675 15.0609 6.32165 14.2527 6.42268C13.2856 6.52371 12.5062 6.2062 11.9577 5.39799C11.9144 5.3114 11.8422 5.23924 11.7556 5.12378Z" fill="white"/>
<path d="M14.5853 10.2895C14.5853 10.4893 14.5853 10.6892 14.5853 10.889C14.5853 12.3934 13.3656 13.613 11.8612 13.613C11.4134 13.613 10.9984 13.613 10.6749 13.613C10.0883 13.613 9.8176 13.3423 9.8176 12.7708C9.8176 11.8535 9.80256 10.9361 9.8176 10.0338C9.8176 9.71804 9.7424 9.5827 9.39647 9.59774C8.46398 9.61277 7.51646 9.61277 6.58397 9.59774C6.28317 9.59774 6.16285 9.703 6.17789 10.0038C6.19293 10.9061 6.19293 11.8084 6.17789 12.7107C6.17789 13.3573 5.90716 13.613 5.26044 13.613C4.94807 13.613 4.55621 13.613 4.13414 13.613C2.62977 13.613 1.41016 12.3934 1.41016 10.8891C1.41016 9.85709 1.41016 8.82511 1.41016 7.79313C1.41016 7.5074 1.48536 7.3871 1.78616 7.3871C2.44793 7.40214 3.06458 7.17656 3.62106 6.81564C3.80154 6.69533 3.92186 6.6803 4.11739 6.81564C5.21532 7.59763 6.58397 7.61267 7.69694 6.84572C7.92254 6.69533 8.0579 6.6803 8.28351 6.83068C9.30624 7.55252 10.8253 7.62771 11.8931 6.78556C12.0435 6.66526 12.1639 6.66526 12.3143 6.77053C12.9008 7.16152 13.5476 7.3871 14.2544 7.37206C14.5402 7.37206 14.5853 7.52244 14.5703 7.74802C14.5853 8.62024 14.5853 9.44735 14.5853 10.2895Z" fill="white"/>
</svg>
