<svg width="21" height="21" viewBox="0 0 21 21" fill="none" xmlns="http://www.w3.org/2000/svg">
<path d="M20.3286 0.689484C19.8075 0.154708 19.0364 -0.0445218 18.3173 0.165194L1.55004 5.04109C0.791393 5.25185 0.253673 5.85688 0.108822 6.62549C-0.0391551 7.40773 0.477723 8.40074 1.153 8.81598L6.39577 12.0383C6.93349 12.3686 7.62753 12.2857 8.0725 11.8369L14.076 5.79607C14.3782 5.48149 14.8784 5.48149 15.1806 5.79607C15.4828 6.10016 15.4828 6.59299 15.1806 6.90756L9.1667 12.9495C8.72068 13.3972 8.63731 14.0945 8.96557 14.6356L12.169 19.9309C12.5441 20.5601 13.1902 20.9166 13.8988 20.9166C13.9822 20.9166 14.076 20.9166 14.1594 20.9061C14.9722 20.8012 15.6183 20.2455 15.858 19.4591L20.8288 2.71324C21.0476 2.00021 20.8496 1.22426 20.3286 0.689484Z" fill="#0F50A4"/>
</svg>
