<svg width="18" height="17" viewBox="0 0 18 17" fill="none" xmlns="http://www.w3.org/2000/svg">
<path fill-rule="evenodd" clip-rule="evenodd" d="M6.39627 0.683437C6.71478 1.00137 6.71527 1.51733 6.39737 1.83587L3.22275 5.01688L16.7396 5.01633C17.1896 5.01631 17.5544 5.38114 17.5544 5.83119C17.5544 6.28124 17.1897 6.64609 16.7396 6.64611L1.25823 6.64674C0.928803 6.64675 0.63178 6.44838 0.505562 6.14407C0.379345 5.83975 0.448769 5.48937 0.681485 5.25619L5.24395 0.68454C5.56185 0.366001 6.07776 0.365507 6.39627 0.683437ZM0.443383 11.2779C0.443383 10.8278 0.808187 10.463 1.2582 10.463H16.7396C17.069 10.463 17.3661 10.6614 17.4923 10.9657C17.6185 11.27 17.5491 11.6204 17.3163 11.8535L12.7539 16.4252C12.436 16.7437 11.9201 16.7442 11.6016 16.4263C11.283 16.1084 11.2826 15.5924 11.6005 15.2739L14.7752 12.0928H1.2582C0.808187 12.0928 0.443383 11.7279 0.443383 11.2779Z" fill="white"/>
</svg>
