<svg width="24" height="24" viewBox="0 0 24 24" fill="none" xmlns="http://www.w3.org/2000/svg">
<path fill-rule="evenodd" clip-rule="evenodd" d="M12 21.5C17.2467 21.5 21.5 17.2467 21.5 12C21.5 6.75329 17.2467 2.5 12 2.5C6.75329 2.5 2.5 6.75329 2.5 12C2.5 17.2467 6.75329 21.5 12 21.5ZM11.9999 19.6023C16.1973 19.6023 19.5999 16.1997 19.5999 12.0023C19.5999 7.80498 16.1973 4.40234 11.9999 4.40234C7.80254 4.40234 4.3999 7.80498 4.3999 12.0023C4.3999 16.1997 7.80254 19.6023 11.9999 19.6023Z" fill="#0F50A4"/>
<path fill-rule="evenodd" clip-rule="evenodd" d="M18.3648 11.9939C18.3648 15.5092 15.5151 18.3589 11.9998 18.3589C8.48447 18.3589 5.63477 15.5092 5.63477 11.9939C5.63477 8.47861 8.48447 5.62891 11.9998 5.62891C15.5151 5.62891 18.3648 8.47861 18.3648 11.9939ZM12.8817 13.8358L12.8816 13.8356C12.8266 13.1551 12.7694 12.4481 12.7026 11.743C12.674 11.4502 12.6294 11.1542 12.5499 10.871C12.4703 10.5781 12.257 10.4508 11.9642 10.454C11.6969 10.4572 11.5059 10.5877 11.4232 10.8805C11.3499 11.1319 11.2958 11.3961 11.2767 11.6571C11.2035 12.6947 11.1462 13.7291 11.0921 14.7667C11.0667 15.2537 11.3118 15.6515 11.7192 15.7629C12.2921 15.9189 12.7663 15.7565 12.8809 14.9736C12.8974 14.8661 12.9045 14.7573 12.9127 14.6324C12.9172 14.5649 12.9219 14.4927 12.9286 14.4134C12.913 14.2235 12.8974 14.0307 12.8817 13.8358ZM12.0058 8.17581C12.5118 8.17581 12.9129 8.56729 12.916 9.06381C12.9192 9.57942 12.5277 9.97727 12.0185 9.98045C11.4933 9.98363 11.0923 9.58578 11.0923 9.05744C11.0891 8.56411 11.4933 8.17581 12.0058 8.17581Z" fill="#0685CF"/>
</svg>
