<svg width="34" height="34" viewBox="0 0 34 34" fill="none" xmlns="http://www.w3.org/2000/svg">
<path d="M17 14.025C17.3252 14.025 17.6381 14.1492 17.8748 14.3723C18.1114 14.5955 18.2538 14.9005 18.2729 15.2252L18.275 15.3V24.225C18.2753 24.5569 18.1462 24.8758 17.9151 25.114C17.684 25.3522 17.3691 25.4909 17.0374 25.5007C16.7057 25.5104 16.3832 25.3904 16.1385 25.1662C15.8939 24.9419 15.7463 24.6311 15.7271 24.2998L15.725 24.225V15.3C15.725 14.9619 15.8593 14.6375 16.0984 14.3984C16.3375 14.1593 16.6618 14.025 17 14.025ZM17 8.5C17.4509 8.5 17.8833 8.67911 18.2021 8.99792C18.5209 9.31673 18.7 9.74913 18.7 10.2C18.7 10.6509 18.5209 11.0833 18.2021 11.4021C17.8833 11.7209 17.4509 11.9 17 11.9C16.5491 11.9 16.1167 11.7209 15.7979 11.4021C15.4791 11.0833 15.3 10.6509 15.3 10.2C15.3 9.74913 15.4791 9.31673 15.7979 8.99792C16.1167 8.67911 16.5491 8.5 17 8.5Z" fill="#ED1E26"/>
<path d="M17 0C7.61132 0 0 7.61132 0 17C0 26.3887 7.61132 34 17 34C26.3887 34 34 26.3887 34 17C34 7.61132 26.3887 0 17 0ZM17 2.55C24.9806 2.55 31.45 9.01935 31.45 17C31.45 24.9806 24.9806 31.45 17 31.45C9.01935 31.45 2.55 24.9806 2.55 17C2.55 9.01935 9.01935 2.55 17 2.55Z" fill="#0F50A4"/>
</svg>
