<svg width="16" height="19" viewBox="0 0 16 19" fill="none" xmlns="http://www.w3.org/2000/svg">
<path fill-rule="evenodd" clip-rule="evenodd" d="M7.2381 9.04762C9.73654 9.04762 11.7619 7.02224 11.7619 4.52381C11.7619 2.02538 9.73654 0 7.2381 0C4.73967 0 2.71429 2.02538 2.71429 4.52381C2.71429 7.02224 4.73967 9.04762 7.2381 9.04762ZM0.67723 13.7216C-0.484224 15.139 0.202665 17.189 1.90072 17.8778C3.68469 18.6014 5.63523 19 7.67887 19C9.72249 19 11.673 18.6014 13.457 17.8778C15.155 17.189 15.8419 15.139 14.6805 13.7216C13.0212 11.6968 10.5009 10.4048 7.67885 10.4048C4.85678 10.4048 2.33648 11.6968 0.67723 13.7216Z" fill="#4D6BB3"/>
</svg>
