<svg width="21" height="21" viewBox="0 0 21 21" fill="none" xmlns="http://www.w3.org/2000/svg">
<path d="M17.1667 1.3335V3.8335H19.6667V5.50016H17.1667V8.00016H15.5V5.50016H13V3.8335H15.5V1.3335H17.1667ZM10.5 11.3335C10.1704 11.3335 9.84815 11.2357 9.57407 11.0526C9.29998 10.8695 9.08636 10.6092 8.96022 10.3046C8.83407 10.0001 8.80106 9.66498 8.86537 9.34168C8.92968 9.01838 9.08842 8.72141 9.3215 8.48832C9.55459 8.25523 9.85156 8.0965 10.1749 8.03219C10.4982 7.96788 10.8333 8.00089 11.1378 8.12703C11.4424 8.25318 11.7027 8.4668 11.8858 8.74088C12.0689 9.01496 12.1667 9.3372 12.1667 9.66683C12.1654 10.1085 11.9893 10.5316 11.6771 10.8439C11.3648 11.1562 10.9416 11.3322 10.5 11.3335ZM11.3333 3.05016V4.7335C11.0577 4.68994 10.7791 4.66765 10.5 4.66683C9.82761 4.66106 9.16104 4.79203 8.5408 5.05178C7.92057 5.31153 7.3596 5.69465 6.89197 6.17786C6.42435 6.66108 6.05982 7.2343 5.82054 7.86272C5.58126 8.49114 5.47221 9.16164 5.50002 9.8335C5.50002 11.7835 7.12502 14.3668 10.5 17.4502C13.875 14.3668 15.5 11.7918 15.5 9.8335V9.66683H17.1667V9.8335C17.1667 12.6002 14.9445 15.8779 10.5 19.6668C6.05835 15.8752 3.83613 12.5974 3.83335 9.8335C3.80589 8.94275 3.9583 8.05561 4.28149 7.2251C4.60468 6.3946 5.092 5.63778 5.71433 4.9999C6.33666 4.36202 7.08121 3.85616 7.90348 3.51256C8.72575 3.16897 9.60886 2.9947 10.5 3.00016C10.7785 2.99996 11.0568 3.01666 11.3333 3.05016Z" fill="#0F50A4"/>
</svg>
