<svg width="12" height="14" viewBox="0 0 12 14" fill="none" xmlns="http://www.w3.org/2000/svg">
<path d="M9.99999 1.98693C8.93913 0.926067 7.50028 0.330078 5.99999 0.330078C4.4997 0.330078 3.06086 0.926067 1.99999 1.98693C0.939128 3.0478 0.34314 4.48664 0.34314 5.98693C0.34314 7.48722 0.939128 8.92607 1.99999 9.98693L5.51333 13.5069C5.5753 13.5694 5.64904 13.619 5.73028 13.6529C5.81152 13.6867 5.89865 13.7041 5.98666 13.7041C6.07467 13.7041 6.1618 13.6867 6.24304 13.6529C6.32428 13.619 6.39802 13.5694 6.45999 13.5069L9.99999 9.9536C11.0564 8.89715 11.6499 7.4643 11.6499 5.97027C11.6499 4.47623 11.0564 3.04338 9.99999 1.98693ZM9.04666 9.00027L5.99999 12.0603L2.95333 9.00027C2.35142 8.39781 1.94164 7.63043 1.77579 6.79513C1.60994 5.95982 1.69545 5.0941 2.02153 4.30739C2.34761 3.52068 2.89961 2.8483 3.60775 2.37525C4.31589 1.9022 5.14838 1.64972 5.99999 1.64972C6.8516 1.64972 7.6841 1.9022 8.39224 2.37525C9.10038 2.8483 9.65238 3.52068 9.97846 4.30739C10.3045 5.0941 10.3901 5.95982 10.2242 6.79513C10.0583 7.63043 9.64856 8.39781 9.04666 9.00027ZM3.99999 3.94027C3.4618 4.48011 3.15959 5.21131 3.15959 5.9736C3.15959 6.73589 3.4618 7.46708 3.99999 8.00693C4.39983 8.40746 4.90905 8.68099 5.46376 8.7932C6.01847 8.90542 6.59396 8.85132 7.11804 8.6377C7.64212 8.42408 8.09145 8.06045 8.40965 7.59243C8.72785 7.12441 8.90075 6.57285 8.90666 6.00693C8.90966 5.62907 8.83687 5.25444 8.6926 4.90519C8.54832 4.55594 8.33548 4.23917 8.06666 3.9736C7.80244 3.70332 7.48738 3.48796 7.13961 3.33991C6.79184 3.19186 6.41822 3.11405 6.04026 3.11095C5.6623 3.10785 5.28746 3.17953 4.93731 3.32186C4.58716 3.46418 4.26861 3.67435 3.99999 3.94027ZM7.12666 7.06027C6.87402 7.31676 6.54013 7.47753 6.18208 7.5151C5.82402 7.55267 5.46404 7.46469 5.16366 7.26622C4.86329 7.06774 4.64119 6.77109 4.53533 6.42699C4.42947 6.08288 4.44643 5.71269 4.5833 5.3797C4.72017 5.04671 4.96846 4.77161 5.28572 4.60142C5.60297 4.43124 5.96949 4.37654 6.32262 4.44668C6.67574 4.51682 6.99353 4.70744 7.22167 4.98595C7.4498 5.26447 7.5741 5.61358 7.57333 5.9736C7.56363 6.38511 7.39099 6.77595 7.09333 7.06027H7.12666Z" fill="#88889D"/>
</svg>
