<svg width="18" height="14" viewBox="0 0 18 14" fill="none" xmlns="http://www.w3.org/2000/svg">
<path d="M12.334 13.4965H0.751685C0.200653 13.4965 -0.00873877 13.2827 0.000278119 12.7365C0.0438598 10.2232 2.01305 7.98881 4.50171 7.63985C4.85453 7.59396 5.20991 7.57055 5.5657 7.56976C6.42832 7.56008 7.29077 7.56008 8.15305 7.56976C10.6377 7.59629 12.7016 9.18738 13.3227 11.571C13.4254 11.966 13.4645 12.3826 13.4921 12.7916C13.5241 13.2617 13.2777 13.4975 12.8058 13.498C10.7833 13.4977 14.3605 13.4972 12.334 13.4965ZM12.2452 12.2884C12.2427 12.2489 12.2422 12.2304 12.2397 12.2118C11.9567 10.2973 10.236 8.80387 8.25675 8.77083C7.25737 8.75431 6.2575 8.75631 5.25813 8.77083C4.41828 8.7838 3.6025 9.05328 2.92034 9.54309C2.23818 10.0329 1.72231 10.7196 1.44198 11.5109C1.35381 11.7582 1.26294 13.2257 1.18981 13.4965H12.334L12.2452 12.2884Z" fill="#0A0B09"/>
<path d="M10.1915 3.44448C10.187 5.34096 8.62806 6.88999 6.73501 6.87897C6.05479 6.876 5.39071 6.67163 4.82664 6.29167C4.26257 5.91171 3.82381 5.37321 3.56579 4.74418C3.30777 4.11514 3.24205 3.4238 3.37694 2.75745C3.51182 2.09111 3.84127 1.47967 4.32366 1.00035C4.80604 0.521028 5.41974 0.195331 6.08723 0.0643961C6.75472 -0.0665392 7.44607 0.00315984 8.07394 0.26469C8.70182 0.526221 9.23807 0.967852 9.61496 1.5338C9.99185 2.09975 10.1925 2.76464 10.1915 3.44448ZM6.75204 5.6794C7.1951 5.679 7.62809 5.54737 7.99633 5.30114C8.36456 5.0549 8.65151 4.70511 8.82092 4.29596C8.99033 3.88681 9.03461 3.43665 8.94815 3.00236C8.86169 2.56807 8.64837 2.16913 8.33516 1.85595C8.02194 1.54278 7.62287 1.3294 7.18838 1.2428C6.75388 1.15619 6.30345 1.20024 5.89399 1.36938C5.48453 1.53851 5.13441 1.82514 4.88787 2.19305C4.64133 2.56097 4.50943 2.99366 4.50884 3.43647C4.51147 4.03035 4.74862 4.59917 5.16871 5.0192C5.58879 5.43923 6.15783 5.6765 6.75204 5.6794Z" fill="#0A0B09"/>
<path d="M15.583 3.54499C15.5831 4.07319 15.4265 4.58955 15.133 5.02878C14.8394 5.468 14.4221 5.81037 13.9339 6.01257C13.4457 6.21477 12.9084 6.26772 12.39 6.16474C11.8717 6.06175 11.3955 5.80745 11.0218 5.434C10.6481 5.06054 10.3935 4.58471 10.2904 4.06667C10.1873 3.54863 10.2401 3.01165 10.4424 2.52366C10.6446 2.03566 10.9871 1.61855 11.4265 1.32509C11.8659 1.03163 12.3825 0.875 12.911 0.875C13.2619 0.874869 13.6094 0.943837 13.9336 1.07796C14.2578 1.21209 14.5524 1.40875 14.8005 1.6567C15.0487 1.90465 15.2455 2.19904 15.3798 2.52304C15.514 2.84704 15.5831 3.1943 15.583 3.54499ZM12.913 5.01341C13.204 5.01272 13.4882 4.92576 13.7297 4.76354C13.9712 4.60132 14.159 4.37114 14.2696 4.10214C14.3801 3.83314 14.4083 3.53742 14.3505 3.25241C14.2928 2.9674 14.1517 2.70592 13.9452 2.50107C13.7387 2.29622 13.476 2.15721 13.1904 2.10165C12.9048 2.04608 12.6092 2.07646 12.3408 2.18893C12.0725 2.3014 11.8436 2.49091 11.6831 2.73347C11.5227 2.97602 11.4378 3.26071 11.4393 3.5515C11.441 3.94078 11.5973 4.31344 11.8738 4.58758C12.1504 4.86171 12.5245 5.01488 12.914 5.01341H12.913Z" fill="#0A0B09"/>
<path d="M16.7321 10.3458C16.6355 9.85978 16.4073 9.40953 16.0723 9.04414C15.5243 8.44336 14.843 8.10842 14.025 8.10141C13.1634 8.0939 12.3018 8.10992 11.4397 8.12294C11.1156 8.12794 10.836 7.90265 10.803 7.58673C10.7864 7.43268 10.8308 7.27826 10.9268 7.15659C11.0228 7.03492 11.1627 6.95569 11.3164 6.93588C11.5018 6.90994 11.6888 6.89673 11.876 6.89633C12.6134 6.89283 13.3507 6.88381 14.0876 6.89984C16.2251 6.9464 17.9859 8.74074 18 10.875C18.003 11.2931 17.7605 11.5429 17.3412 11.5439C16.3794 11.5459 18.4174 11.5459 17.4553 11.5439C17.0736 11.5439 16.8041 11.2936 16.8011 10.9431C16.7981 10.5927 16.7321 10.3458 16.7321 10.3458Z" fill="#0A0B09"/>
</svg>
