<svg width="26" height="36" viewBox="0 0 26 36" fill="none" xmlns="http://www.w3.org/2000/svg">
<path d="M25.1988 6.19946C25.1961 6.19677 25.1937 6.19408 25.1913 6.19113C25.1878 6.18737 25.1843 6.18334 25.1805 6.17958L24.9531 5.93141L20.447 1.01229C19.9458 0.465187 19.2808 0.121131 18.553 0.0265898C18.5522 0.0265898 18.5514 0.0265898 18.5506 0.0263212C18.5409 0.0252469 18.5312 0.023904 18.5213 0.0228296C18.3977 0.00778892 18.2728 0 18.1471 0H5.66846C4.26753 0 3.12766 1.1396 3.12766 2.54054V3.77629H2.25933C1.01364 3.77629 0 4.78993 0 6.03616V31.7501C0 33.6546 1.54919 35.2038 3.45372 35.2038H19.2384C20.4841 35.2038 21.4977 34.1902 21.4977 32.9445V31.8678H23.4592C24.8601 31.8678 26 30.7279 26 29.3272V8.28662C26 7.5131 25.7156 6.77288 25.1988 6.19946ZM24.1256 7.06349H19.4396C19.1678 7.06349 18.9467 6.84245 18.9467 6.57064V1.56987C19.1277 1.66334 19.2929 1.7885 19.4329 1.94132L23.7987 6.70681L24.1256 7.06349ZM23.4595 30.4926H5.66846C5.02574 30.4926 4.50281 29.9697 4.50281 29.3272V26.1278C4.50281 25.7481 4.19501 25.4403 3.81523 25.4403C3.43573 25.4403 3.12766 25.7481 3.12766 26.1278V29.3272C3.12766 30.7282 4.26753 31.8678 5.66846 31.8678H20.1226V32.9445C20.1226 33.432 19.7259 33.8287 19.2384 33.8287H3.45372C2.30767 33.8287 1.37515 32.8962 1.37515 31.7501V6.03616C1.37515 5.54814 1.77185 5.15144 2.25933 5.15144H3.12766V20.6272C3.12766 21.007 3.43573 21.3148 3.81523 21.3148C4.19501 21.3148 4.50281 21.007 4.50281 20.6272V2.54054C4.50281 1.89808 5.02574 1.37515 5.66846 1.37515H17.5716V6.57064C17.5716 7.60066 18.4095 8.43864 19.4396 8.43864H24.6248V29.3272C24.6248 29.9697 24.1019 30.4926 23.4595 30.4926Z" fill="#0F50A4"/>
<path d="M8.18597 9.79702H15.5371C15.9166 9.79702 16.2247 9.48923 16.2247 9.10945C16.2247 8.72967 15.9166 8.42188 15.5371 8.42188H8.18597C7.80619 8.42188 7.4984 8.72967 7.4984 9.10945C7.4984 9.48923 7.80619 9.79702 8.18597 9.79702Z" fill="#0F50A4"/>
<path d="M18.9656 14.1089H8.18597C7.80619 14.1089 7.4984 14.4167 7.4984 14.7965C7.4984 15.1762 7.80619 15.484 8.18597 15.484H18.9656C19.3454 15.484 19.6532 15.1762 19.6532 14.7965C19.6532 14.4167 19.3454 14.1089 18.9656 14.1089Z" fill="#0F50A4"/>
<path d="M18.9656 19.7964H8.18597C7.80619 19.7964 7.4984 20.1042 7.4984 20.484C7.4984 20.8637 7.80619 21.1715 8.18597 21.1715H18.9656C19.3454 21.1715 19.6532 20.8637 19.6532 20.484C19.6532 20.1042 19.3454 19.7964 18.9656 19.7964Z" fill="#0F50A4"/>
<path d="M18.9656 25.4834H8.18597C7.80619 25.4834 7.4984 25.7912 7.4984 26.171C7.4984 26.5508 7.80619 26.8585 8.18597 26.8585H18.9656C19.3454 26.8585 19.6532 26.5508 19.6532 26.171C19.6532 25.7912 19.3454 25.4834 18.9656 25.4834Z" fill="#0F50A4"/>
<path d="M3.81557 22.6904C3.43579 22.6904 3.12799 22.9993 3.12799 23.3788C3.12799 23.7586 3.43579 24.0664 3.81557 24.0664C4.19507 24.0664 4.50314 23.7586 4.50314 23.3788V23.3772C4.50314 22.9974 4.19507 22.6904 3.81557 22.6904Z" fill="#0F50A4"/>
</svg>
