<svg id="Layer_1" data-name="Layer 1" xmlns="http://www.w3.org/2000/svg" xmlns:xlink="http://www.w3.org/1999/xlink" viewBox="0 0 375 208"><defs><linearGradient id="linear-gradient" x1="44.16" y1="348.77" x2="294.2" y2="-62.25" gradientTransform="matrix(1, 0, 0, -1, 0, 207.89)" gradientUnits="userSpaceOnUse"><stop offset="0" stop-color="#2e83e7"/><stop offset="1" stop-color="#0c4da1"/><stop offset="1" stop-color="#2a7c76"/></linearGradient><mask id="mask" x="-105" y="0" width="480" height="220" maskUnits="userSpaceOnUse"><g id="mask0_26788_62246" data-name="mask0 26788 62246"><path d="M375,189.78C348.28,197.24,291.79,208,188,208,82.9,208,26.3,197,0,189.49V0H375Z" fill="url(#linear-gradient)"/></g></mask><linearGradient id="linear-gradient-3" x1="92.55" y1="185.44" x2="-135.11" y2="-42.22" gradientTransform="matrix(1, 0, 0, -1, 0, 207.89)" gradientUnits="userSpaceOnUse"><stop offset="0" stop-color="#fff" stop-opacity="0"/><stop offset="1" stop-color="#fff" stop-opacity="0.7"/></linearGradient><linearGradient id="linear-gradient-4" x1="127.34" y1="191.23" x2="-9.04" y2="54.85" xlink:href="#linear-gradient-3"/><linearGradient id="linear-gradient-5" x1="82.8" y1="201.09" x2="174.07" y2="109.82" xlink:href="#linear-gradient-3"/></defs><title>background </title><path d="M375,189.78C348.28,197.24,291.79,208,188,208,82.9,208,26.3,197,0,189.49V0H375Z" fill="url(#linear-gradient)"/><g mask="url(#mask)"><path d="M-105,114A106,106,0,1,0,1,8,106,106,0,0,0-105,114Zm190.8,0A84.8,84.8,0,1,1,1,29.2,84.8,84.8,0,0,1,85.8,114Z" opacity="0.1" fill="url(#linear-gradient-3)" style="isolation:isolate"/><path d="M9,71.5A63.5,63.5,0,1,0,72.5,8,63.5,63.5,0,0,0,9,71.5Zm114.3,0A50.8,50.8,0,1,1,72.5,20.7,50.8,50.8,0,0,1,123.3,71.5Z" opacity="0.1" fill="url(#linear-gradient-4)" style="isolation:isolate"/><path d="M162,43.5A42.5,42.5,0,1,1,119.5,1,42.5,42.5,0,0,1,162,43.5Zm-76.5,0a34,34,0,1,0,34-34A34,34,0,0,0,85.5,43.5Z" opacity="0.1" fill="url(#linear-gradient-5)" style="isolation:isolate"/></g></svg>