<svg width="30" height="30" viewBox="0 0 30 30" fill="none" xmlns="http://www.w3.org/2000/svg">
<path d="M19.7895 3.13184C20.3016 3.49376 20.3602 3.69768 20.1264 4.30944C20.1049 4.36616 20.0846 4.42423 20.0631 4.48163C19.7936 5.2048 19.5167 5.9273 19.2546 6.65317C19.2081 6.77877 19.1596 6.83211 19.0154 6.83143C17.5642 6.82468 16.113 6.82468 14.6618 6.83143C14.5149 6.83143 14.4697 6.77606 14.4239 6.65182C14.1383 5.86855 13.8432 5.08866 13.5481 4.30877C13.3177 3.69633 13.3756 3.49309 13.8849 3.13184H19.7895Z" fill="#0685CF"/>
<path d="M17.8846 22.9737C19.5082 22.9676 20.8369 21.74 20.9837 20.0951C20.9819 20.0433 20.9965 19.9923 21.0254 19.9494C21.0544 19.9064 21.0961 19.8738 21.1447 19.8561C22.1722 19.3834 23.1942 18.8959 24.223 18.4246C25.138 18.0046 26.1432 18.3524 26.5717 19.2234C27.0002 20.0945 26.6801 21.0972 25.7942 21.5658C23.2389 22.919 20.6787 24.2649 18.1136 25.6037C17.3638 25.998 16.5728 26.0581 15.7454 25.9325C14.5711 25.7543 13.3928 25.6037 12.2164 25.441C11.602 25.3559 10.9875 25.264 10.3717 25.1877C10.2208 25.1688 10.1555 25.1101 10.1023 24.9676C9.38361 22.9739 8.66136 20.981 7.93553 18.9891C7.69299 18.3206 7.44775 17.6521 7.20655 16.983C7.1823 16.9155 7.10751 16.8412 7.25506 16.7926C8.00088 16.5434 8.71773 16.2092 9.49724 16.0593C11.03 15.7655 12.494 15.985 13.8017 16.823C14.7598 17.4374 15.7785 17.7683 16.8827 17.9195C17.3604 17.9829 17.8345 18.0715 18.3029 18.1849C19.2084 18.4091 19.771 19.3092 19.583 20.1883C19.385 21.1222 18.5462 21.7218 17.6083 21.5658C16.0587 21.3079 14.5152 21.0303 12.9697 20.7555C12.5654 20.688 12.1976 20.9135 12.1322 21.2815C12.0608 21.6826 12.3013 22.0304 12.715 22.1073C13.254 22.2073 13.8004 22.2971 14.3434 22.3923C15.354 22.5705 16.3646 22.7515 17.3752 22.9264C17.5463 22.9574 17.7195 22.9595 17.8846 22.9737Z" fill="#0F50A4"/>
<path d="M3.24155 21.9623V17.9197C3.24155 17.5071 3.38101 17.3052 3.7738 17.158C4.13806 17.023 4.5039 16.8893 4.87131 16.7569C5.30721 16.603 5.66766 16.7691 5.82734 17.206C6.81548 19.9172 7.80048 22.6292 8.78233 25.3418C8.94605 25.7936 8.77829 26.1521 8.3343 26.3169C7.96981 26.4519 7.6033 26.587 7.23746 26.722C7.1146 26.7653 6.98501 26.7864 6.85478 26.7841C5.90212 26.7841 4.95014 26.7841 3.99748 26.7841C3.51845 26.7841 3.24222 26.5073 3.24155 26.0285C3.2411 24.674 3.2411 23.3186 3.24155 21.9623Z" fill="#0F50A4"/>
<path fill-rule="evenodd" clip-rule="evenodd" d="M12.8102 14.8734C13.4304 15.0603 14.0248 15.3244 14.5795 15.6594C14.5786 15.6183 14.5739 15.5774 14.5653 15.5372C14.4555 15.1442 14.5404 14.8484 14.8348 14.6715C15.1292 14.4946 15.4459 14.548 15.7282 14.8268C15.84 14.9437 15.9711 15.0406 16.1156 15.1131C16.2426 15.1733 16.3708 15.2258 16.5 15.2638V13.8944C16.3809 13.8473 16.262 13.7994 16.1439 13.7498C16.0968 13.7299 16.0493 13.7107 16.0017 13.6914C15.7602 13.5936 15.5173 13.4952 15.3185 13.3096C14.3538 12.4075 14.7627 10.7957 16.0711 10.3743C16.2163 10.3277 16.3592 10.2936 16.5 10.2712V9.37488C16.5 9.16777 16.6679 8.99988 16.875 8.99988C17.0821 8.99988 17.25 9.16777 17.25 9.37488V10.2621C17.773 10.3333 18.2646 10.5647 18.729 10.9091C19.0544 11.1509 19.0921 11.56 18.8563 11.87C18.6333 12.1644 18.2452 12.2211 17.9131 12.0016C17.7323 11.8722 17.5344 11.7687 17.3249 11.6944C17.2999 11.6867 17.275 11.6795 17.25 11.6728V12.7084C17.438 12.7849 17.6255 12.8626 17.812 12.9422C18.3658 13.1779 18.8186 13.5311 19.049 14.1104C19.4175 15.0409 18.8988 16.1091 17.8882 16.5223C17.8639 16.5322 17.8376 16.5388 17.8109 16.5454C17.745 16.5619 17.6768 16.5789 17.6321 16.6486C17.6717 16.6552 17.71 16.6621 17.7476 16.6688C17.8283 16.6832 17.9054 16.697 17.9832 16.7067C19.148 16.8512 20.0812 17.3556 20.6417 18.4319C20.7026 18.5466 20.7589 18.52 20.8423 18.4806L20.8438 18.4798C21.7359 18.0589 22.6288 17.6412 23.5226 17.2266C23.6109 17.1854 23.6519 17.1435 23.6519 17.0416C23.6472 16.77 23.6485 16.4981 23.6498 16.226C23.6535 15.4615 23.6571 14.6959 23.526 13.9355C23.1224 11.5945 21.9642 9.72004 20.065 8.29868C19.9868 8.23826 19.8901 8.20698 19.7915 8.21022H13.8929C13.7944 8.2068 13.6976 8.2373 13.6187 8.29665C12.6525 9.00104 11.8416 9.89753 11.2366 10.9301C10.6316 11.9627 10.2455 13.1093 10.1025 14.2981L10.1012 14.309C10.0688 14.5885 10.0685 14.591 10.3565 14.5783C11.1851 14.5393 12.0144 14.639 12.8102 14.8734ZM17.25 14.1914V15.2777C17.3192 15.2562 17.3887 15.2273 17.4583 15.1901C17.8976 14.9538 17.9111 14.5912 17.4934 14.3211C17.4157 14.2715 17.3344 14.2281 17.25 14.1914ZM16.5 12.4104V11.6816C16.4622 11.6957 16.4246 11.7123 16.3871 11.7316C16.3162 11.7636 16.2568 11.8165 16.2166 11.8831C16.1764 11.9498 16.1574 12.0272 16.1621 12.105C16.1701 12.2555 16.2746 12.3237 16.4093 12.3751C16.4396 12.3868 16.4698 12.3986 16.5 12.4104Z" fill="#0F50A4"/>
</svg>
