<svg width="25" height="25" viewBox="0 0 25 25" fill="none" xmlns="http://www.w3.org/2000/svg">
<path d="M11.0625 21.1873H4.175C3.775 21.1873 3.45 20.8623 3.45 20.4623V4.5373C3.45 4.1373 3.775 3.8123 4.175 3.8123H16.475C16.875 3.8123 17.2 4.1373 17.2 4.5373C17.2 4.9373 17.525 5.2623 17.925 5.2623C18.325 5.2623 18.65 4.9373 18.65 4.5373C18.65 4.3873 18.6375 4.2498 18.6125 4.1123C18.4125 3.1123 17.5375 2.3623 16.4875 2.3623H4.175C2.975 2.3748 2 3.3373 2 4.5373V20.4623C2 21.6623 2.975 22.6373 4.175 22.6373H11.0625C11.4625 22.6373 11.7875 22.3123 11.7875 21.9123C11.7875 21.5123 11.4625 21.1873 11.0625 21.1873Z" fill="#F2F2F2"/>
<path d="M14.6375 6.8251C14.6375 6.4251 14.3125 6.1001 13.9125 6.1001H5.62502C5.22502 6.1001 4.90002 6.4251 4.90002 6.8251C4.90002 7.2251 5.22502 7.5501 5.62502 7.5501H13.9125C14.3125 7.5501 14.6375 7.2251 14.6375 6.8251ZM11.4125 10.5376C11.4125 10.1376 11.0875 9.8126 10.6875 9.8126H5.62502C5.22502 9.8126 4.90002 10.1376 4.90002 10.5376C4.90002 10.9376 5.22502 11.2626 5.62502 11.2626H10.6875C11.0875 11.2626 11.4125 10.9376 11.4125 10.5376ZM16.75 15.7251C16.3875 15.7251 16.0875 15.4251 16.0875 15.0626C16.0875 14.8876 16.15 14.7251 16.275 14.6001C16.4 14.4751 16.5625 14.4126 16.7375 14.4126C16.9125 14.4126 17.075 14.4751 17.2 14.6001C17.325 14.7251 17.3875 14.8876 17.3875 15.0626C17.3875 15.4376 17.6875 15.7376 18.0625 15.7376C18.4375 15.7376 18.7375 15.4376 18.7375 15.0626C18.7375 14.1876 18.175 13.4376 17.3625 13.1626V12.8751C17.3625 12.5001 17.0625 12.2001 16.6875 12.2001C16.3125 12.2001 16.0125 12.5001 16.0125 12.8751V13.2126C15.1375 13.5501 14.6125 14.4376 14.7625 15.3751C14.9125 16.3626 15.7375 17.0751 16.7375 17.0751C17.1 17.0751 17.3875 17.3626 17.4 17.7251C17.4 17.9001 17.3375 18.0626 17.2125 18.1876C17.0875 18.3126 16.925 18.3876 16.75 18.3876H16.7375C16.375 18.3876 16.0875 18.0876 16.0875 17.7251C16.0875 17.3501 15.7875 17.0501 15.4125 17.0501C15.0375 17.0501 14.7375 17.3501 14.7375 17.7251C14.7375 18.5626 15.25 19.2876 16.0125 19.5876V19.8626C16.0125 20.2376 16.3125 20.5376 16.6875 20.5376C17.0625 20.5376 17.3625 20.2376 17.3625 19.8626V19.6251C18.2625 19.3376 18.8375 18.4376 18.725 17.4876C18.6125 16.4876 17.7625 15.7251 16.75 15.7251Z" fill="#F2F2F2"/>
<path d="M16.75 22.6126C13.3125 22.6126 10.5 19.8126 10.5 16.3626C10.5 12.9126 13.3 10.1126 16.75 10.1126C20.2 10.1126 23 12.9126 23 16.3626C23 19.8126 20.2 22.6126 16.75 22.6126ZM16.75 11.4876C14.0625 11.4876 11.875 13.6751 11.875 16.3626C11.875 19.0501 14.0625 21.2376 16.75 21.2376C19.4375 21.2376 21.625 19.0501 21.625 16.3626C21.625 13.6751 19.4375 11.4876 16.75 11.4876ZM17.925 8.8751C17.525 8.8751 17.2 8.5501 17.2 8.1501V4.5376H18.65V8.1501C18.65 8.5501 18.325 8.8751 17.925 8.8751Z" fill="#F2F2F2"/>
</svg>
