<svg width="28" height="28" viewBox="0 0 28 28" fill="none" xmlns="http://www.w3.org/2000/svg">
<path fill-rule="evenodd" clip-rule="evenodd" d="M23.0746 23.0745C28.1068 18.0423 28.1068 9.95771 23.0746 4.92546C18.0423 -0.106779 9.95773 -0.106779 4.92549 4.92546C-0.106753 9.95771 -0.106754 18.0423 4.92549 23.0745C9.95773 28.1068 18.0423 28.1068 23.0746 23.0745ZM10.7002 18.4548L17.2999 18.4548C17.9598 18.4548 18.4548 17.9598 18.4548 17.2998C18.4548 16.6399 17.9598 16.1449 17.2999 16.1449L13.505 16.1449L18.1248 11.5251C18.6198 11.0302 18.6198 10.3702 18.1248 9.87521C17.6298 9.38024 16.9699 9.38024 16.4749 9.87521L11.8551 14.495L11.8551 10.7002C11.8551 10.0402 11.3602 9.54523 10.7002 9.54523C10.0402 9.54523 9.54525 10.0402 9.54525 10.7002L9.54525 17.2998C9.54525 17.4648 9.54525 17.6298 9.62774 17.7123C9.62774 17.8773 9.79274 18.0423 9.87523 18.1248C9.95773 18.2073 10.1227 18.3723 10.2877 18.3723C10.3702 18.4548 10.5352 18.4548 10.7002 18.4548ZM6.5754 21.4246C10.7002 25.5494 17.2998 25.5494 21.4246 21.4246C25.5494 17.2998 25.5494 10.7002 21.4246 6.57538C17.2999 2.45059 10.7002 2.45059 6.5754 6.57538C2.45061 10.7002 2.45061 17.2998 6.5754 21.4246Z" fill="black"/>
<mask id="mask0" mask-type="alpha" maskUnits="userSpaceOnUse" x="1" y="1" width="26" height="26">
<path fill-rule="evenodd" clip-rule="evenodd" d="M23.0746 23.0745C28.1068 18.0423 28.1068 9.95771 23.0746 4.92546C18.0423 -0.106779 9.95773 -0.106779 4.92549 4.92546C-0.106753 9.95771 -0.106754 18.0423 4.92549 23.0745C9.95773 28.1068 18.0423 28.1068 23.0746 23.0745ZM10.7002 18.4548L17.2999 18.4548C17.9598 18.4548 18.4548 17.9598 18.4548 17.2998C18.4548 16.6399 17.9598 16.1449 17.2999 16.1449L13.505 16.1449L18.1248 11.5251C18.6198 11.0302 18.6198 10.3702 18.1248 9.87521C17.6298 9.38024 16.9699 9.38024 16.4749 9.87521L11.8551 14.495L11.8551 10.7002C11.8551 10.0402 11.3602 9.54523 10.7002 9.54523C10.0402 9.54523 9.54525 10.0402 9.54525 10.7002L9.54525 17.2998C9.54525 17.4648 9.54525 17.6298 9.62774 17.7123C9.62774 17.8773 9.79274 18.0423 9.87523 18.1248C9.95773 18.2073 10.1227 18.3723 10.2877 18.3723C10.3702 18.4548 10.5352 18.4548 10.7002 18.4548ZM6.5754 21.4246C10.7002 25.5494 17.2998 25.5494 21.4246 21.4246C25.5494 17.2998 25.5494 10.7002 21.4246 6.57538C17.2999 2.45059 10.7002 2.45059 6.5754 6.57538C2.45061 10.7002 2.45061 17.2998 6.5754 21.4246Z" fill="white"/>
</mask>
<g mask="url(#mask0)">
<rect x="28" y="28" width="28" height="28" transform="rotate(-180 28 28)" fill="#ED1E26"/>
</g>
</svg>
