<svg width="28" height="28" viewBox="0 0 28 28" fill="none" xmlns="http://www.w3.org/2000/svg">
<path fill-rule="evenodd" clip-rule="evenodd" d="M23.0752 23.0745C28.1074 18.0423 28.1074 9.9577 23.0752 4.92546C18.0429 -0.106784 9.95834 -0.106782 4.9261 4.92546C-0.106143 9.95771 -0.106142 18.0423 4.9261 23.0745C9.95835 28.1068 18.0429 28.1068 23.0752 23.0745ZM10.7008 18.4548L17.3005 18.4548C17.9604 18.4548 18.4554 17.9598 18.4554 17.2998C18.4554 16.6399 17.9604 16.1449 17.3005 16.1449L13.5057 16.1449L18.1254 11.5251C18.6204 11.0301 18.6204 10.3702 18.1254 9.87521C17.6304 9.38023 16.9705 9.38023 16.4755 9.87521L11.8557 14.495L11.8557 10.7002C11.8557 10.0402 11.3608 9.54523 10.7008 9.54523C10.0408 9.54523 9.54586 10.0402 9.54586 10.7002L9.54586 17.2998C9.54586 17.4648 9.54586 17.6298 9.62835 17.7123C9.62835 17.8773 9.79335 18.0423 9.87584 18.1248C9.95834 18.2073 10.1233 18.3723 10.2883 18.3723C10.3708 18.4548 10.5358 18.4548 10.7008 18.4548ZM6.57601 21.4246C10.7008 25.5494 17.3005 25.5494 21.4253 21.4246C25.55 17.2998 25.55 10.7002 21.4253 6.57538C17.3005 2.45059 10.7008 2.45059 6.57601 6.57538C2.45122 10.7002 2.45122 17.2998 6.57601 21.4246Z" fill="#0F50A4"/>
<mask id="mask0" mask-type="alpha" maskUnits="userSpaceOnUse" x="1" y="1" width="26" height="26">
<path fill-rule="evenodd" clip-rule="evenodd" d="M23.0752 23.0745C28.1074 18.0423 28.1074 9.9577 23.0752 4.92546C18.0429 -0.106784 9.95834 -0.106782 4.9261 4.92546C-0.106143 9.95771 -0.106142 18.0423 4.9261 23.0745C9.95835 28.1068 18.0429 28.1068 23.0752 23.0745ZM10.7008 18.4548L17.3005 18.4548C17.9604 18.4548 18.4554 17.9598 18.4554 17.2998C18.4554 16.6399 17.9604 16.1449 17.3005 16.1449L13.5057 16.1449L18.1254 11.5251C18.6204 11.0301 18.6204 10.3702 18.1254 9.87521C17.6304 9.38023 16.9705 9.38023 16.4755 9.87521L11.8557 14.495L11.8557 10.7002C11.8557 10.0402 11.3608 9.54523 10.7008 9.54523C10.0408 9.54523 9.54586 10.0402 9.54586 10.7002L9.54586 17.2998C9.54586 17.4648 9.54586 17.6298 9.62835 17.7123C9.62835 17.8773 9.79335 18.0423 9.87584 18.1248C9.95834 18.2073 10.1233 18.3723 10.2883 18.3723C10.3708 18.4548 10.5358 18.4548 10.7008 18.4548ZM6.57601 21.4246C10.7008 25.5494 17.3005 25.5494 21.4253 21.4246C25.55 17.2998 25.55 10.7002 21.4253 6.57538C17.3005 2.45059 10.7008 2.45059 6.57601 6.57538C2.45122 10.7002 2.45122 17.2998 6.57601 21.4246Z" fill="white"/>
</mask>
<g mask="url(#mask0)">
<rect x="28" y="28" width="28" height="28" transform="rotate(180 28 28)" fill="#75BF72"/>
</g>
</svg>
