<svg width="32" height="32" viewBox="0 0 32 32" fill="none" xmlns="http://www.w3.org/2000/svg">
<circle cx="16" cy="16" r="15" stroke="#75BF72" stroke-width="1.5"/>
<path d="M16.2506 19.7848H20.9617L20.5872 20.1704C20.5065 20.2534 20.4618 20.3653 20.4618 20.4815C20.4618 20.5976 20.5065 20.7096 20.5872 20.7926C20.6679 20.8757 20.778 20.9229 20.8934 20.9229C21.0088 20.9229 21.1189 20.8757 21.1996 20.7926L22.3051 19.6545C22.345 19.6133 22.3765 19.5647 22.398 19.5113C22.4194 19.458 22.4305 19.4009 22.4305 19.3434C22.4305 19.2858 22.4194 19.2287 22.398 19.1754C22.3765 19.122 22.345 19.0734 22.3051 19.0322L21.1996 17.8941C21.1189 17.811 21.0088 17.7638 20.8934 17.7638C20.778 17.7638 20.6679 17.811 20.5872 17.8941C20.5065 17.9771 20.4618 18.0891 20.4618 18.2052C20.4618 18.3214 20.5065 18.4333 20.5872 18.5163L20.9617 18.9019H16.2506C16.1351 18.9019 16.0251 18.9491 15.9443 19.0322C15.8637 19.1152 15.8189 19.2272 15.8189 19.3434C15.8189 19.4595 15.8637 19.5715 15.9443 19.6545C16.0251 19.7376 16.1351 19.7848 16.2506 19.7848Z" fill="#75BF72" stroke="#75BF72" stroke-width="0.2"/>
<path d="M17.6556 23.0274L17.3213 22.7406H21.9988C22.1088 22.7406 22.2167 22.7032 22.2984 22.6331C22.3806 22.5626 22.4305 22.4634 22.4305 22.356C22.4305 22.2487 22.3806 22.1495 22.2984 22.0789C22.2167 22.0088 22.1088 21.9715 21.9988 21.9715H17.3213L17.6556 21.6847L17.6556 21.6847C17.7378 21.6142 17.7877 21.5149 17.7877 21.4076C17.7877 21.3002 17.7378 21.201 17.6556 21.1305C17.5739 21.0604 17.466 21.023 17.356 21.023C17.2461 21.023 17.1381 21.0604 17.0564 21.1305L15.951 22.0789C15.951 22.0789 15.951 22.0789 15.951 22.0789C15.9103 22.1138 15.8771 22.156 15.8541 22.2037C15.8311 22.2514 15.8189 22.3032 15.8189 22.356C15.8189 22.4089 15.8311 22.4607 15.8541 22.5084C15.8771 22.556 15.9103 22.5983 15.951 22.6331C15.951 22.6331 15.951 22.6331 15.951 22.6331L17.0564 23.5816C17.1381 23.6517 17.2461 23.689 17.356 23.689C17.466 23.689 17.5739 23.6517 17.6556 23.5816C17.7378 23.5111 17.7877 23.4118 17.7877 23.3045C17.7877 23.1971 17.7378 23.0979 17.6556 23.0274Z" fill="#75BF72" stroke="#75BF72" stroke-width="0.2"/>
<path fill-rule="evenodd" clip-rule="evenodd" d="M14.4617 16.0231C13.953 15.7964 13.4978 15.4714 13.1202 15.0723C11.1318 16.3373 8.95918 18.8194 9.28211 22.856C9.31514 23.2689 9.67663 23.5768 10.0895 23.5438C10.5024 23.5107 10.8104 23.1492 10.7773 22.7364C10.4812 19.0349 12.7208 16.9249 14.4617 16.0231Z" fill="#75BF72"/>
<circle cx="16.1921" cy="12.1921" r="3.44215" stroke="#75BF72" stroke-width="1.5"/>
</svg>
