<svg width="18" height="18" viewBox="0 0 18 18" fill="none" xmlns="http://www.w3.org/2000/svg">
<g opacity="0.7">
<path d="M13.4999 7.95883C13.8823 7.95883 14.1922 7.64888 14.1922 7.26653C14.1922 6.88418 13.8823 6.57422 13.4999 6.57422C13.1176 6.57422 12.8076 6.88418 12.8076 7.26653C12.8076 7.64888 13.1176 7.95883 13.4999 7.95883Z" fill="#6D7174"/>
<path d="M15.1875 1.40625H14.2734V0.703125C14.2734 0.314789 13.9586 0 13.5703 0C13.182 0 12.8672 0.314789 12.8672 0.703125V1.40625H9.66797V0.703125C9.66797 0.314789 9.35318 0 8.96484 0C8.57651 0 8.26172 0.314789 8.26172 0.703125V1.40625H5.09766V0.703125C5.09766 0.314789 4.78287 0 4.39453 0C4.0062 0 3.69141 0.314789 3.69141 0.703125V1.40625H2.8125C1.26169 1.40625 0 2.66794 0 4.21875V15.1875C0 16.7383 1.26169 18 2.8125 18H8.19141C8.57974 18 8.89453 17.6852 8.89453 17.2969C8.89453 16.9085 8.57974 16.5938 8.19141 16.5938H2.8125C2.03709 16.5938 1.40625 15.9629 1.40625 15.1875V4.21875C1.40625 3.44334 2.03709 2.8125 2.8125 2.8125H3.69141V3.51562C3.69141 3.90396 4.0062 4.21875 4.39453 4.21875C4.78287 4.21875 5.09766 3.90396 5.09766 3.51562V2.8125H8.26172V3.51562C8.26172 3.90396 8.57651 4.21875 8.96484 4.21875C9.35318 4.21875 9.66797 3.90396 9.66797 3.51562V2.8125H12.8672V3.51562C12.8672 3.90396 13.182 4.21875 13.5703 4.21875C13.9586 4.21875 14.2734 3.90396 14.2734 3.51562V2.8125H15.1875C15.9629 2.8125 16.5938 3.44334 16.5938 4.21875V8.22656C16.5938 8.6149 16.9085 8.92969 17.2969 8.92969C17.6852 8.92969 18 8.6149 18 8.22656V4.21875C18 2.66794 16.7383 1.40625 15.1875 1.40625Z" fill="#6D7174"/>
<path d="M13.6731 9.34375C11.2872 9.34375 9.34619 11.2848 9.34619 13.6707C9.34619 16.0566 11.2872 17.9976 13.6731 17.9976C16.059 17.9976 18 16.0566 18 13.6707C18 11.2848 16.059 9.34375 13.6731 9.34375ZM13.6731 16.5672C12.076 16.5672 10.7766 15.2678 10.7766 13.6707C10.7766 12.0735 12.076 10.7741 13.6731 10.7741C15.2702 10.7741 16.5697 12.0735 16.5697 13.6707C16.5697 15.2678 15.2702 16.5672 13.6731 16.5672Z" fill="#6D7174"/>
<path d="M14.8745 13.1751H14.5585V12.4572C14.5585 12.0796 14.2441 11.7734 13.8561 11.7734C13.4682 11.7734 13.1538 12.0796 13.1538 12.4572V13.8589C13.1538 14.2365 13.4682 14.5427 13.8561 14.5427H14.8745C15.2624 14.5427 15.5769 14.2365 15.5769 13.8589C15.5769 13.4813 15.2624 13.1751 14.8745 13.1751Z" fill="#6D7174"/>
<path d="M10.3847 7.95883C10.767 7.95883 11.077 7.64888 11.077 7.26653C11.077 6.88418 10.767 6.57422 10.3847 6.57422C10.0023 6.57422 9.69238 6.88418 9.69238 7.26653C9.69238 7.64888 10.0023 7.95883 10.3847 7.95883Z" fill="#6D7174"/>
<path d="M7.61516 11.077C7.99751 11.077 8.30747 10.767 8.30747 10.3847C8.30747 10.0023 7.99751 9.69238 7.61516 9.69238C7.23281 9.69238 6.92285 10.0023 6.92285 10.3847C6.92285 10.767 7.23281 11.077 7.61516 11.077Z" fill="#6D7174"/>
<path d="M4.49992 7.95883C4.88228 7.95883 5.19223 7.64888 5.19223 7.26653C5.19223 6.88418 4.88228 6.57422 4.49992 6.57422C4.11757 6.57422 3.80762 6.88418 3.80762 7.26653C3.80762 7.64888 4.11757 7.95883 4.49992 7.95883Z" fill="#6D7174"/>
<path d="M4.49992 11.077C4.88228 11.077 5.19223 10.767 5.19223 10.3847C5.19223 10.0023 4.88228 9.69238 4.49992 9.69238C4.11757 9.69238 3.80762 10.0023 3.80762 10.3847C3.80762 10.767 4.11757 11.077 4.49992 11.077Z" fill="#6D7174"/>
<path d="M4.49992 14.1922C4.88228 14.1922 5.19223 13.8823 5.19223 13.4999C5.19223 13.1176 4.88228 12.8076 4.49992 12.8076C4.11757 12.8076 3.80762 13.1176 3.80762 13.4999C3.80762 13.8823 4.11757 14.1922 4.49992 14.1922Z" fill="#6D7174"/>
<path d="M7.61516 14.1922C7.99751 14.1922 8.30747 13.8823 8.30747 13.4999C8.30747 13.1176 7.99751 12.8076 7.61516 12.8076C7.23281 12.8076 6.92285 13.1176 6.92285 13.4999C6.92285 13.8823 7.23281 14.1922 7.61516 14.1922Z" fill="#6D7174"/>
<path d="M7.61516 7.95883C7.99751 7.95883 8.30747 7.64888 8.30747 7.26653C8.30747 6.88418 7.99751 6.57422 7.61516 6.57422C7.23281 6.57422 6.92285 6.88418 6.92285 7.26653C6.92285 7.64888 7.23281 7.95883 7.61516 7.95883Z" fill="#6D7174"/>
</g>
</svg>
