<svg width="18" height="18" viewBox="0 0 18 18" fill="none" xmlns="http://www.w3.org/2000/svg">
<path d="M1.90397 1.4014L1.76897 1.5319L1.61035 1.69165L1.12772 2.19284C-0.842715 4.16384 0.995535 9.03902 4.9786 13.0215C8.90766 16.9506 13.7041 18.7939 15.7252 16.9506L16.2157 16.4803C17.0172 15.7114 17.4335 15.1663 17.605 14.353C17.8514 13.1891 17.3198 12.1007 16.133 11.1467C14.1569 9.55765 12.664 9.49577 11.2752 10.7766L11.1329 10.9116L11.0345 11.0078L10.963 10.9673C10.9082 10.9352 10.8542 10.9018 10.801 10.8671C10.4647 10.6478 10.0658 10.3277 9.61866 9.92215L9.31379 9.63865C9.15084 9.48404 8.98995 9.32727 8.83116 9.1684L8.51222 8.8444C7.89741 8.20877 7.42435 7.64909 7.13297 7.20077L7.07954 7.1164C7.04898 7.06722 7.0199 7.01713 6.99235 6.96621L7.08797 6.87002L7.22297 6.72827C8.50547 5.34002 8.4436 3.84659 6.85566 1.86827C5.23904 -0.145475 3.46547 -0.0700998 1.90397 1.4014V1.4014ZM2.71679 2.49265L2.82929 2.38409L2.94179 2.28059L3.0571 2.18215L3.11504 2.1349L3.23372 2.0449C3.93122 1.54146 4.75979 1.41377 5.80322 2.71315C7.04635 4.26171 6.91697 4.98396 6.38147 5.63927L6.29147 5.74559L6.14522 5.90309L5.98772 6.06284L5.70872 6.33846C5.32341 6.72377 5.62997 7.45109 6.23747 8.2774L6.38935 8.47709L6.55135 8.68015L6.72291 8.88546L6.90179 9.09246L6.99404 9.19596L7.1836 9.40409L7.37766 9.61109L7.57566 9.81752L7.87716 10.1235L8.18316 10.4245L8.49253 10.7198L8.70066 10.911L8.90879 11.0978L9.11578 11.2766L9.3211 11.4482L9.5236 11.6102C10.4315 12.3167 11.2465 12.7082 11.6617 12.2931L12.0442 11.9083L12.1499 11.8065L12.2557 11.7098C12.2731 11.6946 12.2905 11.6788 12.3085 11.6642L12.4148 11.577C13.0567 11.0781 13.7817 10.9881 15.287 12.1986C16.4783 13.1565 16.4699 13.9316 16.0717 14.5915L15.9929 14.7141L15.9502 14.7743L15.8602 14.8924L15.7634 15.0088L15.6616 15.1225L15.5564 15.2338L15.3933 15.397L14.9557 15.8166C14.9202 15.8503 14.8859 15.8841 14.8527 15.9178C13.793 16.9793 9.83916 15.9735 5.93316 12.067C2.0266 8.16152 1.02254 4.20715 2.08229 3.1474L2.28647 2.93759L2.49741 2.71596C2.56941 2.64115 2.64254 2.56634 2.71679 2.49321V2.49265Z" fill="#424242"/>
</svg>
