<svg width="16" height="16" viewBox="0 0 16 16" fill="none" xmlns="http://www.w3.org/2000/svg">
<path d="M12.9333 9.90389C12.3959 9.78829 11.9708 10.0378 11.5944 10.2557C11.2089 10.4802 10.4758 11.0749 10.0557 10.9227C7.90443 10.037 5.88117 8.15406 5.00532 5.99422C4.85096 5.56508 5.44283 4.82739 5.66571 4.43734C5.88199 4.05976 6.12633 3.63062 6.01489 3.0892C5.91418 2.60268 4.61157 0.94516 4.15094 0.491901C3.84717 0.1925 3.53596 0.02783 3.21649 0.00121659C2.01541 -0.0503469 0.673995 1.55228 0.438731 1.93568C-0.150667 2.75321 -0.147365 3.84103 0.448637 5.16006C1.88498 8.70296 7.31751 14.0498 10.8737 15.5401C11.53 15.847 12.1301 16.0009 12.6691 16.0009C13.1966 16.0009 13.6663 15.8536 14.07 15.5617C14.3746 15.3863 16.0429 13.9782 15.9992 12.7449C15.9727 12.4305 15.8085 12.1161 15.5129 11.8117C15.0631 11.3468 13.4162 10.0054 12.9333 9.90389Z" fill="#12539F"/>
</svg>
