<svg width="15" height="13" viewBox="0 0 15 13" fill="none" xmlns="http://www.w3.org/2000/svg">
<path d="M0.564259 2.51085C0.742418 2.32663 0.956468 2.18092 1.19318 2.08271C1.42989 1.9845 1.68422 1.93588 1.94047 1.93987H3.63877L4.02674 0.915033C4.14663 0.660003 4.33079 0.440533 4.56112 0.27817C4.78594 0.109577 5.05634 0.0126397 5.33707 0H9.22412C9.50829 0.006308 9.7829 0.103832 10.0074 0.27817C10.2357 0.440731 10.4175 0.660319 10.5344 0.915033L10.959 1.93987H12.6939C12.9496 1.93987 13.2028 1.99023 13.4391 2.08809C13.6753 2.18595 13.89 2.32937 14.0708 2.51019C14.2516 2.691 14.395 2.90566 14.4929 3.1419C14.5907 3.37814 14.6411 3.63135 14.6411 3.88706V10.7169C14.6411 10.9722 14.5907 11.2251 14.4928 11.4609C14.3948 11.6967 14.2513 11.9109 14.0704 12.0912C13.8894 12.2714 13.6747 12.4141 13.4385 12.5112C13.2023 12.6082 12.9493 12.6577 12.6939 12.6567H1.94047C1.68518 12.6587 1.43205 12.6098 1.19581 12.513C0.959577 12.4162 0.744951 12.2734 0.564428 12.0929C0.383905 11.9124 0.24109 11.6978 0.144293 11.4615C0.0474949 11.2253 -0.00134945 10.9722 0.000598907 10.7169V3.88706C-0.00476837 3.63129 0.0424957 3.37714 0.13946 3.1404C0.236423 2.90366 0.381015 2.68937 0.564259 2.51085ZM7.32086 10.3948C7.95789 10.3948 8.58062 10.2059 9.1103 9.85195C9.63998 9.49803 10.0528 8.99499 10.2966 8.40645C10.5404 7.8179 10.6042 7.17028 10.4799 6.54549C10.3556 5.92069 10.0488 5.34678 9.59839 4.89633C9.14793 4.44587 8.57402 4.13911 7.94923 4.01483C7.32443 3.89055 6.67681 3.95433 6.08827 4.19812C5.49972 4.4419 4.99668 4.85473 4.64277 5.38441C4.28885 5.91409 4.09994 6.53682 4.09994 7.17386C4.10188 8.0275 4.44184 8.84563 5.04546 9.44925C5.64908 10.0529 6.46721 10.3928 7.32086 10.3948Z" fill="#0F50A4"/>
<path d="M7.32051 5.05675C7.74793 5.05676 8.16573 5.18359 8.52101 5.42121C8.87629 5.65882 9.15307 5.99652 9.3163 6.39153C9.47953 6.78655 9.52187 7.22113 9.43795 7.64022C9.35403 8.05932 9.14763 8.44408 8.84489 8.7458C8.54215 9.04751 8.15668 9.2526 7.7373 9.3351C7.31792 9.41759 6.88349 9.37378 6.48903 9.20922C6.09457 9.04465 5.75781 8.76672 5.52141 8.41064C5.285 8.05455 5.15959 7.63632 5.16103 7.20891C5.15908 6.92512 5.21365 6.64378 5.32157 6.38131C5.42949 6.11883 5.5886 5.88047 5.78962 5.68014C5.99063 5.47981 6.22953 5.32151 6.49237 5.21448C6.75521 5.10745 7.03673 5.05383 7.32051 5.05675Z" fill="#ED1E26"/>
</svg>
