<svg width="33" height="27" viewBox="0 0 33 27" fill="none" xmlns="http://www.w3.org/2000/svg">
<path opacity="0.65" d="M4.60141 26.6692H28.3975C31.2706 26.6692 32.7349 25.2326 32.7349 22.3874V7.92724C32.7349 5.08202 31.2706 3.65993 28.3975 3.65993H25.1656C24.0879 3.65993 23.7569 3.43924 23.135 2.7483L22.0161 1.50462C21.3396 0.745617 20.6353 0.331055 19.1988 0.331055H13.7022C12.2801 0.331055 11.5747 0.745617 10.8848 1.50462L9.76591 2.7483C9.1585 3.4248 8.81303 3.65993 7.73538 3.65993H4.60038C1.72731 3.65993 0.262939 5.08202 0.262939 7.92724V22.3874C0.262939 25.2326 1.72731 26.6692 4.60038 26.6692H4.60141ZM4.64266 24.4458C3.27522 24.4458 2.48838 23.7136 2.48838 22.2771V8.05202C2.48838 6.61549 3.27522 5.88331 4.64266 5.88331H8.28813C9.53181 5.88331 10.1949 5.64921 10.8848 4.87577L11.9759 3.65993C12.7627 2.77615 13.1639 2.55546 14.3931 2.55546H18.5088C19.7381 2.55546 20.1393 2.77615 20.9261 3.65993L22.0172 4.87474C22.7081 5.64818 23.3712 5.88331 24.6138 5.88331H28.3563C29.7237 5.88331 30.5116 6.61549 30.5116 8.05202V22.2771C30.5116 23.7136 29.7247 24.4458 28.3563 24.4458H4.64266ZM16.4938 22.2503C17.486 22.2531 18.469 22.0596 19.3861 21.6807C20.3032 21.3019 21.1363 20.7453 21.8372 20.043C22.5382 19.3407 23.0932 18.5066 23.4703 17.5888C23.8474 16.671 24.0391 15.6876 24.0343 14.6953C24.0403 13.7027 23.8494 12.7186 23.4727 11.8002C23.096 10.8818 22.541 10.0471 21.8396 9.34455C21.1383 8.64198 20.3047 8.08544 19.3869 7.7071C18.4691 7.32877 17.4854 7.13615 16.4928 7.1404C15.5015 7.13875 14.5197 7.33325 13.6039 7.71268C12.6881 8.09211 11.8564 8.64898 11.1568 9.35122C10.4571 10.0535 9.90331 10.8872 9.52727 11.8044C9.15122 12.7215 8.96035 13.7041 8.96566 14.6953C8.96049 15.6866 9.15145 16.669 9.52755 17.5862C9.90364 18.5033 10.4574 19.3369 11.1571 20.0392C11.8567 20.7414 12.6883 21.2982 13.604 21.6777C14.5198 22.0572 15.5015 22.2518 16.4928 22.2503H16.4938ZM26.4237 11.3242C27.3632 11.3242 28.1366 10.5652 28.1366 9.62571C28.1366 9.40077 28.0923 9.17803 28.0062 8.97021C27.9201 8.76239 27.794 8.57356 27.6349 8.4145C27.4758 8.25545 27.287 8.12927 27.0792 8.04319C26.8714 7.95711 26.6486 7.9128 26.4237 7.9128C26.1987 7.9128 25.976 7.95711 25.7682 8.04319C25.5604 8.12927 25.3715 8.25545 25.2125 8.4145C25.0534 8.57356 24.9273 8.76239 24.8412 8.97021C24.7551 9.17803 24.7108 9.40077 24.7108 9.62571C24.7108 10.5652 25.4842 11.3242 26.4237 11.3242ZM16.4928 20.1506C13.4959 20.1506 11.0508 17.72 11.0508 14.6953C11.0508 11.6707 13.4815 9.24002 16.4928 9.24002H16.4989C17.2145 9.24002 17.9231 9.38097 18.5842 9.65481C19.2453 9.92866 19.8461 10.33 20.3521 10.836C20.8581 11.342 21.2594 11.9427 21.5333 12.6039C21.8071 13.265 21.9481 13.9736 21.9481 14.6891V14.7026C21.9481 15.4181 21.8071 16.1267 21.5333 16.7878C21.2594 17.449 20.8581 18.0497 20.3521 18.5557C19.8461 19.0617 19.2453 19.463 18.5842 19.7369C17.9231 20.0107 17.2145 20.1517 16.4989 20.1517H16.4917L16.4928 20.1506Z" fill="#0F50A4"/>
</svg>
