<svg width="25" height="25" viewBox="0 0 25 25" fill="none" xmlns="http://www.w3.org/2000/svg">
<circle cx="20.0642" cy="14.345" r="0.5" stroke="#0F50A4" stroke-width="0.98394"/>
<path d="M21.0276 11.2303H8.70556C8.60542 11.2337 8.50707 11.2033 8.42653 11.1439C8.34598 11.0845 8.28799 10.9998 8.262 10.9034C8.23633 10.8089 8.24288 10.7087 8.28061 10.6183C8.31834 10.528 8.38512 10.4527 8.47047 10.4042L16.1751 5.98656C16.278 5.93046 16.3982 5.91471 16.5122 5.94238C16.5688 5.95746 16.6219 5.98358 16.6683 6.01922C16.7148 6.05485 16.7536 6.09931 16.7827 6.15001C16.8072 6.19638 16.8354 6.2407 16.867 6.28254C17.0623 6.54303 17.3468 6.72297 17.6666 6.78814C17.9864 6.8533 18.319 6.79913 18.6013 6.63595C18.6519 6.60674 18.7079 6.5878 18.7659 6.58021C18.8239 6.57261 18.8828 6.57653 18.9393 6.59172C18.9958 6.60691 19.0487 6.63309 19.095 6.66873C19.1413 6.70437 19.18 6.74878 19.209 6.7994L21.4002 10.5809C21.4391 10.6481 21.4596 10.7242 21.4596 10.8018C21.4596 10.8793 21.4391 10.9555 21.4002 11.0227C21.3606 11.0857 21.3057 11.1378 21.2406 11.1741C21.1755 11.2104 21.1022 11.2297 21.0276 11.2303ZM4.79338 11.2303H2.74415C2.66599 11.2306 2.58914 11.2103 2.52137 11.1715C2.4536 11.1328 2.39733 11.0768 2.35825 11.0094C2.31932 10.9423 2.29883 10.8661 2.29883 10.7885C2.29883 10.711 2.31932 10.6348 2.35825 10.5676L7.84506 1.10507C8.13539 0.600985 8.61349 0.231163 9.17573 0.0757584C9.45688 -9.22158e-05 9.75041 -0.0192348 10.0391 0.0194546C10.3278 0.0581439 10.6058 0.153886 10.8568 0.301058L16.9202 3.7689C16.9885 3.80743 17.0453 3.86331 17.0848 3.93083C17.1243 3.99835 17.1451 4.07509 17.1451 4.15324C17.1451 4.23138 17.1243 4.30813 17.0848 4.37565C17.0453 4.44317 16.9885 4.49904 16.9202 4.53757C16.9202 4.53757 15.2134 5.51927 15.146 5.55805C15.0786 5.59682 14.9242 5.61723 14.9242 5.61723L14.7025 5.55805L13.4121 5.74823C13.1242 6.07373 13.3215 6.03688 12.9011 6.15001C12.4807 6.26314 12.1647 6.71707 11.7515 6.58021L5.17928 11.0094C5.1402 11.0768 5.08393 11.1328 5.01616 11.1715C4.9484 11.2103 4.87154 11.2306 4.79338 11.2303ZM3.5115 10.3468H4.53612L8.49265 3.52152C8.52163 3.4709 8.56037 3.42648 8.60666 3.39084C8.65294 3.3552 8.70585 3.32903 8.76233 3.31383C8.81881 3.29864 8.87776 3.29473 8.93576 3.30232C8.99377 3.30991 9.0497 3.32885 9.10032 3.35806C9.25193 3.44587 9.41948 3.50296 9.59332 3.52606C9.76716 3.54915 9.94387 3.5378 10.1133 3.49264C10.2827 3.44748 10.4415 3.36941 10.5805 3.26292C10.7195 3.15643 10.836 3.02362 10.9233 2.87212C10.9819 2.77108 11.0781 2.69718 11.1911 2.66656C11.3041 2.63594 11.4247 2.65108 11.5266 2.70867L14.9242 4.66568L15.8113 4.15324L10.431 1.06973C10.1261 0.894814 9.7641 0.847277 9.42412 0.937516C9.08414 1.02775 8.79389 1.24842 8.61685 1.55125L3.5115 10.3468Z" fill="#0F50A4"/>
<path d="M23.0577 11.2361C23.0165 11.2424 22.9745 11.2424 22.9332 11.2361C22.8213 11.1987 22.7046 11.1767 22.5864 11.1708H20.968C20.8896 11.1711 20.8126 11.1511 20.7447 11.1129C20.6767 11.0746 20.6203 11.0195 20.5812 10.9531L18.5848 7.56587C18.171 7.70126 17.7256 7.71442 17.3042 7.60371C16.8828 7.493 16.504 7.26332 16.2149 6.94328L8.83853 11.1142C8.77033 11.1507 8.69395 11.1701 8.61622 11.1708H5.05919C4.95881 11.1741 4.86022 11.1441 4.77949 11.0856C4.69875 11.0271 4.64062 10.9436 4.61456 10.8486C4.58883 10.7555 4.59539 10.6567 4.63322 10.5676C4.67104 10.4786 4.73798 10.4044 4.82354 10.3566L16.7707 3.61268C17.2813 3.32403 17.8881 3.2458 18.4576 3.39522C19.0271 3.54463 19.5127 3.90945 19.8075 4.40942L23.4446 10.583C23.4892 10.6584 23.5096 10.7452 23.5033 10.8322C23.4969 10.9191 23.4641 11.0022 23.409 11.0706C23.3671 11.1225 23.3137 11.1644 23.2529 11.193C23.192 11.2217 23.1253 11.2364 23.0577 11.2361ZM21.2259 10.3H22.2485L19.0294 4.84479C18.8519 4.54634 18.561 4.32887 18.2202 4.23993C17.8794 4.151 17.5165 4.19785 17.2109 4.37023L15.0722 5.58057L6.7221 10.3H8.50061L16.1215 5.98982C16.2247 5.93454 16.3452 5.91901 16.4595 5.94628C16.5162 5.96114 16.5694 5.98688 16.616 6.02201C16.6625 6.05713 16.7015 6.10094 16.7307 6.15091C16.7552 6.1966 16.7835 6.24028 16.8152 6.28152C17.0109 6.53824 17.2961 6.71558 17.6167 6.7798C17.9372 6.84402 18.2707 6.79064 18.5537 6.62982C18.6044 6.60103 18.6605 6.58236 18.7186 6.57488C18.7768 6.5674 18.8358 6.57125 18.8925 6.58623C18.9491 6.6012 19.0021 6.62699 19.0485 6.66212C19.0949 6.69725 19.1337 6.74102 19.1628 6.7909L21.2259 10.3Z" fill="#0F50A4"/>
<path d="M20.7843 22.7373H3.99738C3.88022 22.7373 3.76786 22.6902 3.68501 22.6064C3.60216 22.5226 3.55562 22.4088 3.55562 22.2903C3.55562 21.9345 3.41599 21.5934 3.16745 21.3419C2.91892 21.0903 2.58182 20.949 2.23034 20.949C2.11317 20.949 2.00081 20.9019 1.91796 20.8181C1.83512 20.7342 1.78857 20.6205 1.78857 20.5019V14.2427C1.78857 14.1242 1.83512 14.0105 1.91796 13.9266C2.00081 13.8428 2.11317 13.7957 2.23034 13.7957C2.58182 13.7957 2.91892 13.6544 3.16745 13.4028C3.41599 13.1513 3.55562 12.8101 3.55562 12.4544C3.55562 12.3358 3.60216 12.2221 3.68501 12.1383C3.76786 12.0544 3.88022 12.0073 3.99738 12.0073H20.7843C20.9015 12.0073 21.0139 12.0544 21.0967 12.1383C21.1796 12.2221 21.2261 12.3358 21.2261 12.4544C21.2261 12.8101 21.3657 13.1513 21.6143 13.4028C21.8628 13.6544 22.1999 13.7957 22.5514 13.7957C22.6685 13.7957 22.7809 13.8428 22.8638 13.9266C22.9466 14.0105 22.9931 14.1242 22.9931 14.2427V20.5019C22.9931 20.6205 22.9466 20.7342 22.8638 20.8181C22.7809 20.9019 22.6685 20.949 22.5514 20.949C22.1999 20.949 21.8628 21.0903 21.6143 21.3419C21.3657 21.5934 21.2261 21.9345 21.2261 22.2903C21.2261 22.4088 21.1796 22.5226 21.0967 22.6064C21.0139 22.6902 20.9015 22.7373 20.7843 22.7373ZM4.39497 21.8432H20.3868C20.4733 21.4136 20.6828 21.0192 20.9891 20.7092C21.2955 20.3992 21.6851 20.1872 22.1096 20.0996V14.6451C21.6851 14.5575 21.2955 14.3455 20.9891 14.0355C20.6828 13.7254 20.4733 13.3311 20.3868 12.9015H4.39497C4.3084 13.3311 4.09891 13.7254 3.79258 14.0355C3.48624 14.3455 3.09658 14.5575 2.6721 14.6451V20.0996C3.09658 20.1872 3.48624 20.3992 3.79258 20.7092C4.09891 21.0192 4.3084 21.4136 4.39497 21.8432Z" fill="#0F50A4"/>
<path d="M22.5686 24.5258H2.21261C2.01187 24.5273 1.81202 24.4992 1.61963 24.4423C1.15437 24.3139 0.744223 24.038 0.451788 23.6566C0.159352 23.2753 0.00068537 22.8095 0 22.3303V12.6701C0 12.0879 0.233114 11.5294 0.648059 11.1177C1.063 10.706 1.62579 10.4746 2.21261 10.4746H22.5686C22.7679 10.4734 22.9662 10.5015 23.1572 10.5581C23.6233 10.6857 24.0344 10.9613 24.3277 11.3427C24.621 11.7241 24.7803 12.1904 24.7812 12.6701V22.3303C24.7812 22.9126 24.5481 23.471 24.1332 23.8827C23.7182 24.2945 23.1555 24.5258 22.5686 24.5258ZM2.21261 11.3528C1.86052 11.3528 1.52285 11.4916 1.27388 11.7387C1.02491 11.9857 0.885045 12.3208 0.885045 12.6701V22.3303C0.886142 22.6176 0.981864 22.8966 1.15762 23.1249C1.33338 23.3532 1.57954 23.5183 1.85859 23.5949C1.97337 23.6295 2.09264 23.6473 2.21261 23.6476H22.5686C22.9207 23.6476 23.2584 23.5088 23.5074 23.2618C23.7563 23.0147 23.8962 22.6797 23.8962 22.3303V12.6701C23.8951 12.3828 23.7994 12.1038 23.6236 11.8755C23.4479 11.6472 23.2017 11.4821 22.9227 11.4055C22.8077 11.3715 22.6886 11.3538 22.5686 11.3528H2.21261Z" fill="#0F50A4"/>
<path fill-rule="evenodd" clip-rule="evenodd" d="M3.99738 22.7373H20.7843C20.9015 22.7373 21.0139 22.6902 21.0967 22.6064C21.1796 22.5226 21.2261 22.4088 21.2261 22.2903C21.2261 21.9345 21.3657 21.5934 21.6143 21.3419C21.8628 21.0903 22.1999 20.949 22.5514 20.949C22.6685 20.949 22.7809 20.9019 22.8638 20.8181C22.9466 20.7342 22.9931 20.6205 22.9931 20.5019V14.2427C22.9931 14.1242 22.9466 14.0105 22.8638 13.9266C22.7809 13.8428 22.6685 13.7957 22.5514 13.7957C22.1999 13.7957 21.8628 13.6544 21.6143 13.4028C21.3657 13.1513 21.2261 12.8101 21.2261 12.4544C21.2261 12.3358 21.1796 12.2221 21.0967 12.1383C21.0139 12.0544 20.9015 12.0073 20.7843 12.0073H3.99738C3.88022 12.0073 3.76786 12.0544 3.68501 12.1383C3.60216 12.2221 3.55562 12.3358 3.55562 12.4544C3.55562 12.8101 3.41599 13.1513 3.16745 13.4028C2.91892 13.6544 2.58182 13.7957 2.23034 13.7957C2.11317 13.7957 2.00081 13.8428 1.91796 13.9266C1.83512 14.0105 1.78857 14.1242 1.78857 14.2427V20.5019C1.78857 20.6205 1.83512 20.7342 1.91796 20.8181C2.00081 20.9019 2.11317 20.949 2.23034 20.949C2.58182 20.949 2.91892 21.0903 3.16745 21.3419C3.41599 21.5934 3.55562 21.9345 3.55562 22.2903C3.55562 22.4088 3.60216 22.5226 3.68501 22.6064C3.76786 22.6902 3.88022 22.7373 3.99738 22.7373ZM12.7202 20.8869C14.6753 20.8869 16.2602 19.302 16.2602 17.3468C16.2602 15.3916 14.6753 13.8066 12.7202 13.8066C10.7651 13.8066 9.18018 15.3916 9.18018 17.3468C9.18018 19.302 10.7651 20.8869 12.7202 20.8869Z" fill="#0F50A4"/>
<path d="M8.45086 3.57732L4.51074 10.3688L14.8795 4.66603L11.717 2.79966C11.3437 2.46786 11.0776 2.66141 10.9912 2.79966C10.4209 3.62916 9.53957 3.57731 9.12482 3.36994C8.79303 3.20404 8.60639 3.3181 8.45086 3.57732Z" fill="#0685CF"/>
</svg>
