<svg width="25" height="25" viewBox="0 0 25 25" fill="none" xmlns="http://www.w3.org/2000/svg">
<circle cx="20.0642" cy="14.345" r="0.5" stroke="#0F50A4" stroke-width="0.98394"/>
<path d="M21.0276 11.2303H8.70556C8.60542 11.2337 8.50707 11.2033 8.42653 11.1439C8.34598 11.0845 8.28799 10.9998 8.262 10.9034C8.23633 10.8089 8.24288 10.7087 8.28061 10.6183C8.31834 10.528 8.38512 10.4527 8.47047 10.4042L16.1751 5.98656C16.278 5.93046 16.3982 5.91471 16.5122 5.94238C16.5688 5.95746 16.6219 5.98358 16.6683 6.01922C16.7148 6.05485 16.7537 6.09931 16.7827 6.15001C16.8072 6.19638 16.8354 6.2407 16.867 6.28254C17.0623 6.54303 17.3468 6.72297 17.6666 6.78814C17.9864 6.8533 18.319 6.79913 18.6013 6.63595C18.6519 6.60674 18.7079 6.5878 18.7659 6.58021C18.8239 6.57261 18.8828 6.57653 18.9393 6.59172C18.9958 6.60691 19.0487 6.63309 19.095 6.66873C19.1413 6.70437 19.18 6.74878 19.209 6.7994L21.4002 10.5809C21.4391 10.6481 21.4596 10.7242 21.4596 10.8018C21.4596 10.8793 21.4391 10.9555 21.4002 11.0227C21.3606 11.0857 21.3057 11.1378 21.2406 11.1741C21.1755 11.2104 21.1022 11.2297 21.0276 11.2303ZM4.79338 11.2303H2.74415C2.66599 11.2306 2.58914 11.2103 2.52137 11.1715C2.4536 11.1328 2.39733 11.0768 2.35825 11.0094C2.31932 10.9423 2.29883 10.8661 2.29883 10.7885C2.29883 10.711 2.31932 10.6348 2.35825 10.5676L7.84506 1.10507C8.13539 0.600985 8.61349 0.231163 9.17573 0.0757584C9.45688 -9.22206e-05 9.75041 -0.0192348 10.0391 0.0194545C10.3278 0.0581439 10.6058 0.153886 10.8568 0.301058L16.9202 3.7689C16.9885 3.80743 17.0453 3.86331 17.0848 3.93083C17.1243 3.99835 17.1451 4.07509 17.1451 4.15324C17.1451 4.23138 17.1243 4.30813 17.0848 4.37565C17.0453 4.44317 16.9885 4.49904 16.9202 4.53757C16.9202 4.53757 15.2134 5.51927 15.146 5.55805C15.0786 5.59682 14.9242 5.61723 14.9242 5.61723L14.7025 5.55805L13.4121 5.74823C13.1242 6.07373 13.3215 6.03688 12.9011 6.15001C12.4807 6.26314 12.1647 6.71707 11.7515 6.58021L5.17928 11.0094C5.1402 11.0768 5.08393 11.1328 5.01616 11.1715C4.9484 11.2103 4.87154 11.2306 4.79338 11.2303ZM3.5115 10.3468H4.53612L8.49265 3.52152C8.52163 3.4709 8.56037 3.42648 8.60666 3.39084C8.65294 3.3552 8.70585 3.32903 8.76233 3.31383C8.81881 3.29864 8.87776 3.29473 8.93576 3.30232C8.99377 3.30991 9.0497 3.32885 9.10032 3.35806C9.25193 3.44587 9.41948 3.50296 9.59332 3.52606C9.76716 3.54915 9.94387 3.5378 10.1133 3.49264C10.2827 3.44748 10.4415 3.36941 10.5805 3.26292C10.7195 3.15643 10.836 3.02362 10.9233 2.87212C10.9819 2.77108 11.0781 2.69718 11.1911 2.66656C11.3041 2.63594 11.4247 2.65108 11.5266 2.70867L14.9242 4.66568L15.8113 4.15324L10.431 1.06973C10.1261 0.894814 9.7641 0.847277 9.42412 0.937516C9.08414 1.02775 8.79389 1.24842 8.61685 1.55125L3.5115 10.3468ZM12.4403 20.9491C10.7282 20.9491 9.33541 19.3632 9.33541 17.415C9.33541 15.4668 10.7282 13.8809 12.4403 13.8809C14.1524 13.8809 15.5452 15.4668 15.5452 17.415C15.5452 19.3632 14.1524 20.9491 12.4403 20.9491ZM12.4403 14.7644C11.2161 14.7644 10.2225 15.9527 10.2225 17.415C10.2225 18.8772 11.2161 20.0656 12.4403 20.0656C13.6645 20.0656 14.6581 18.8772 14.6581 17.415C14.6581 15.9527 13.6645 14.7644 12.4403 14.7644Z" fill="#0F50A4"/>
<path d="M23.0582 11.2363C23.017 11.2427 22.975 11.2427 22.9337 11.2363C22.8218 11.199 22.7051 11.177 22.5869 11.171H20.9685C20.8901 11.1713 20.8131 11.1513 20.7452 11.1131C20.6772 11.0749 20.6208 11.0197 20.5817 10.9533L18.5853 7.56611C18.1714 7.7015 17.7261 7.71466 17.3047 7.60395C16.8833 7.49325 16.5044 7.26357 16.2154 6.94353L8.83902 11.1144C8.77082 11.1509 8.69444 11.1704 8.61671 11.171H5.05968C4.9593 11.1744 4.86071 11.1444 4.77997 11.0858C4.69924 11.0273 4.64111 10.9438 4.61505 10.8488C4.58932 10.7557 4.59588 10.6569 4.6337 10.5679C4.67153 10.4788 4.73847 10.4046 4.82403 10.3568L16.7712 3.61293C17.2818 3.32427 17.8886 3.24605 18.4581 3.39546C19.0276 3.54488 19.5132 3.90969 19.808 4.40966L23.4451 10.5832C23.4897 10.6587 23.5101 10.7455 23.5038 10.8324C23.4974 10.9193 23.4646 11.0024 23.4095 11.0709C23.3676 11.1227 23.3142 11.1646 23.2534 11.1933C23.1925 11.2219 23.1258 11.2367 23.0582 11.2363ZM21.2264 10.3003H22.249L19.0299 4.84503C18.8524 4.54659 18.5615 4.32911 18.2207 4.24018C17.8799 4.15125 17.517 4.19809 17.2114 4.37048L15.0727 5.58081L6.72259 10.3003H8.5011L16.122 5.99006C16.2252 5.93478 16.3457 5.91925 16.4599 5.94653C16.5167 5.96139 16.5699 5.98713 16.6165 6.02225C16.663 6.05737 16.702 6.10118 16.7312 6.15115C16.7557 6.19685 16.7839 6.24053 16.8156 6.28176C17.0114 6.53849 17.2966 6.71582 17.6172 6.78004C17.9377 6.84426 18.2712 6.79088 18.5541 6.63006C18.6049 6.60127 18.661 6.5826 18.7191 6.57512C18.7772 6.56764 18.8363 6.5715 18.893 6.58647C18.9496 6.60144 19.0026 6.62724 19.049 6.66236C19.0954 6.69749 19.1342 6.74126 19.1633 6.79115L21.2264 10.3003Z" fill="#0F50A4"/>
<path d="M20.7838 22.7373H3.9969C3.87973 22.7373 3.76737 22.6902 3.68452 22.6064C3.60168 22.5226 3.55513 22.4088 3.55513 22.2903C3.55513 21.9345 3.41551 21.5934 3.16697 21.3419C2.91843 21.0903 2.58134 20.949 2.22985 20.949C2.11269 20.949 2.00032 20.9019 1.91748 20.8181C1.83463 20.7342 1.78809 20.6205 1.78809 20.5019V14.2427C1.78809 14.1242 1.83463 14.0105 1.91748 13.9266C2.00032 13.8428 2.11269 13.7957 2.22985 13.7957C2.58134 13.7957 2.91843 13.6544 3.16697 13.4028C3.41551 13.1513 3.55513 12.8101 3.55513 12.4544C3.55513 12.3358 3.60168 12.2221 3.68452 12.1383C3.76737 12.0544 3.87973 12.0073 3.9969 12.0073H20.7838C20.901 12.0073 21.0134 12.0544 21.0962 12.1383C21.1791 12.2221 21.2256 12.3358 21.2256 12.4544C21.2256 12.8101 21.3652 13.1513 21.6138 13.4028C21.8623 13.6544 22.1994 13.7957 22.5509 13.7957C22.6681 13.7957 22.7804 13.8428 22.8633 13.9266C22.9461 14.0105 22.9927 14.1242 22.9927 14.2427V20.5019C22.9927 20.6205 22.9461 20.7342 22.8633 20.8181C22.7804 20.9019 22.6681 20.949 22.5509 20.949C22.1994 20.949 21.8623 21.0903 21.6138 21.3419C21.3652 21.5934 21.2256 21.9345 21.2256 22.2903C21.2256 22.4088 21.1791 22.5226 21.0962 22.6064C21.0134 22.6902 20.901 22.7373 20.7838 22.7373ZM4.39448 21.8432H20.3863C20.4728 21.4136 20.6823 21.0192 20.9887 20.7092C21.295 20.3992 21.6847 20.1872 22.1091 20.0996V14.6451C21.6847 14.5575 21.295 14.3455 20.9887 14.0355C20.6823 13.7254 20.4728 13.3311 20.3863 12.9015H4.39448C4.30791 13.3311 4.09842 13.7254 3.79209 14.0355C3.48575 14.3455 3.0961 14.5575 2.67161 14.6451V20.0996C3.0961 20.1872 3.48575 20.3992 3.79209 20.7092C4.09842 21.0192 4.30791 21.4136 4.39448 21.8432Z" fill="#0F50A4"/>
<path d="M22.5686 24.5258H2.21261C2.01187 24.5273 1.81202 24.4992 1.61963 24.4423C1.15437 24.3139 0.744223 24.038 0.451788 23.6566C0.159352 23.2753 0.00068537 22.8095 0 22.3303V12.6701C0 12.0879 0.233114 11.5294 0.648059 11.1177C1.063 10.706 1.62579 10.4746 2.21261 10.4746H22.5686C22.7679 10.4734 22.9662 10.5015 23.1572 10.5581C23.6233 10.6857 24.0344 10.9613 24.3277 11.3427C24.621 11.7241 24.7803 12.1904 24.7812 12.6701V22.3303C24.7812 22.9126 24.5481 23.471 24.1332 23.8827C23.7182 24.2945 23.1555 24.5258 22.5686 24.5258ZM2.21261 11.3528C1.86052 11.3528 1.52285 11.4916 1.27388 11.7387C1.02491 11.9857 0.885045 12.3208 0.885045 12.6701V22.3303C0.886142 22.6176 0.981864 22.8966 1.15762 23.1249C1.33338 23.3532 1.57954 23.5183 1.85859 23.5949C1.97337 23.6295 2.09264 23.6473 2.21261 23.6476H22.5686C22.9207 23.6476 23.2584 23.5088 23.5074 23.2618C23.7563 23.0147 23.8962 22.6797 23.8962 22.3303V12.6701C23.8951 12.3828 23.7994 12.1038 23.6236 11.8755C23.4479 11.6472 23.2017 11.4821 22.9227 11.4055C22.8077 11.3715 22.6886 11.3538 22.5686 11.3528H2.21261Z" fill="#0F50A4"/>
<path d="M20.7838 22.7373H3.9969C3.87973 22.7373 3.76737 22.6902 3.68452 22.6064C3.60168 22.5226 3.55513 22.4088 3.55513 22.2903C3.55513 21.9345 3.41551 21.5934 3.16697 21.3419C2.91843 21.0903 2.58134 20.949 2.22985 20.949C2.11269 20.949 2.00032 20.9019 1.91748 20.8181C1.83463 20.7342 1.78809 20.6205 1.78809 20.5019V14.2427C1.78809 14.1242 1.83463 14.0105 1.91748 13.9266C2.00032 13.8428 2.11269 13.7957 2.22985 13.7957C2.58134 13.7957 2.91843 13.6544 3.16697 13.4028C3.41551 13.1513 3.55513 12.8101 3.55513 12.4544C3.55513 12.3358 3.60168 12.2221 3.68452 12.1383C3.76737 12.0544 3.87973 12.0073 3.9969 12.0073H20.7838C20.901 12.0073 21.0134 12.0544 21.0962 12.1383C21.1791 12.2221 21.2256 12.3358 21.2256 12.4544C21.2256 12.8101 21.3652 13.1513 21.6138 13.4028C21.8623 13.6544 22.1994 13.7957 22.5509 13.7957C22.6681 13.7957 22.7804 13.8428 22.8633 13.9266C22.9461 14.0105 22.9927 14.1242 22.9927 14.2427V20.5019C22.9927 20.6205 22.9461 20.7342 22.8633 20.8181C22.7804 20.9019 22.6681 20.949 22.5509 20.949C22.1994 20.949 21.8623 21.0903 21.6138 21.3419C21.3652 21.5934 21.2256 21.9345 21.2256 22.2903C21.2256 22.4088 21.1791 22.5226 21.0962 22.6064C21.0134 22.6902 20.901 22.7373 20.7838 22.7373Z" fill="#0F50A4"/>
<path d="M15.7597 17.3468C15.7597 19.0259 14.3986 20.387 12.7197 20.387C11.0408 20.387 9.67969 19.0259 9.67969 17.3468C9.67969 15.6678 11.0408 14.3066 12.7197 14.3066C14.3986 14.3066 15.7597 15.6678 15.7597 17.3468Z" fill="white" stroke="white"/>
<path d="M8.45086 3.57707L4.51074 10.3686L14.8795 4.66579L11.717 2.79941C11.3437 2.46762 11.0776 2.66116 10.9912 2.79941C10.4209 3.62891 9.53957 3.57707 9.12482 3.36969C8.79303 3.20379 8.60639 3.31785 8.45086 3.57707Z" fill="#0685CF"/>
</svg>
