<svg width="24" height="23" viewBox="0 0 24 23" fill="none" xmlns="http://www.w3.org/2000/svg">
<circle cx="18.7903" cy="13.4344" r="0.468263" stroke="#0F50A4" stroke-width="0.921486"/>
<path d="M19.6933 10.5175H8.15339C8.05961 10.5207 7.9675 10.4921 7.89207 10.4365C7.81664 10.381 7.76233 10.3016 7.73798 10.2113C7.71395 10.1228 7.72008 10.0289 7.75541 9.94433C7.79075 9.85972 7.85329 9.78918 7.93322 9.7438L15.1488 5.60657C15.2451 5.55403 15.3577 5.53928 15.4645 5.56519C15.5175 5.57932 15.5672 5.60378 15.6107 5.63715C15.6542 5.67053 15.6906 5.71216 15.7179 5.75964C15.7408 5.80307 15.7672 5.84457 15.7968 5.88376C15.9797 6.12772 16.2462 6.29624 16.5456 6.35726C16.8451 6.41829 17.1567 6.36757 17.421 6.21474C17.4684 6.18738 17.5208 6.16964 17.5751 6.16253C17.6295 6.15542 17.6847 6.15909 17.7376 6.17332C17.7905 6.18755 17.84 6.21206 17.8834 6.24544C17.9267 6.27882 17.963 6.32041 17.9901 6.36782L20.0422 9.90929C20.0787 9.97218 20.0979 10.0435 20.0979 10.1162C20.0979 10.1888 20.0787 10.2601 20.0422 10.323C20.0052 10.382 19.9538 10.4308 19.8928 10.4648C19.8318 10.4988 19.7632 10.5169 19.6933 10.5175ZM4.48954 10.5175H2.57037C2.49718 10.5178 2.4252 10.4988 2.36174 10.4624C2.29827 10.4261 2.24557 10.3737 2.20897 10.3106C2.17251 10.2477 2.15332 10.1764 2.15332 10.1037C2.15332 10.0311 2.17251 9.95977 2.20897 9.89688L7.34751 1.03492C7.61941 0.562838 8.06716 0.21649 8.59371 0.0709497C8.85702 -8.6367e-05 9.13192 -0.0180139 9.40228 0.0182197C9.67264 0.0544533 9.93301 0.144118 10.1681 0.281949L15.8466 3.52968C15.9106 3.56576 15.9638 3.61809 16.0007 3.68132C16.0377 3.74455 16.0572 3.81643 16.0572 3.88961C16.0572 3.9628 16.0377 4.03468 16.0007 4.09791C15.9638 4.16114 15.9106 4.21347 15.8466 4.24955C15.8466 4.24955 14.2482 5.16894 14.185 5.20525C14.1219 5.24157 13.9773 5.26068 13.9773 5.26068L13.7696 5.20525L12.5612 5.38336C12.2916 5.68821 12.4764 5.6537 12.0826 5.75964C11.6889 5.86559 11.393 6.29071 11.006 6.16253L4.85094 10.3106C4.81434 10.3737 4.76164 10.4261 4.69817 10.4624C4.63471 10.4988 4.56273 10.5178 4.48954 10.5175ZM3.28902 9.69001H4.2486L7.95399 3.29799C7.98113 3.25058 8.01742 3.20899 8.06077 3.17561C8.10411 3.14223 8.15366 3.11772 8.20656 3.10349C8.25946 3.08926 8.31466 3.0856 8.36898 3.09271C8.42331 3.09982 8.47568 3.11756 8.5231 3.14491C8.66508 3.22715 8.82199 3.28062 8.9848 3.30225C9.14761 3.32387 9.3131 3.31324 9.47177 3.27094C9.63043 3.22865 9.77914 3.15554 9.90933 3.0558C10.0395 2.95607 10.1486 2.83169 10.2304 2.68982C10.2852 2.59519 10.3754 2.52598 10.4812 2.4973C10.587 2.46863 10.7 2.4828 10.7953 2.53674L13.9773 4.36953L14.8081 3.88961L9.7693 1.00183C9.48378 0.838016 9.14474 0.793497 8.82634 0.878008C8.50794 0.962519 8.23611 1.16918 8.07031 1.45279L3.28902 9.69001ZM11.6511 19.6194C10.0476 19.6194 8.74326 18.1341 8.74326 16.3096C8.74326 14.4851 10.0476 12.9998 11.6511 12.9998C13.2545 12.9998 14.5589 14.4851 14.5589 16.3096C14.5589 18.1341 13.2545 19.6194 11.6511 19.6194ZM11.6511 13.8272C10.5046 13.8272 9.57407 14.9402 9.57407 16.3096C9.57407 17.679 10.5046 18.7919 11.6511 18.7919C12.7976 18.7919 13.7281 17.679 13.7281 16.3096C13.7281 14.9402 12.7976 13.8272 11.6511 13.8272Z" fill="#0F50A4"/>
<path d="M21.5946 10.523C21.556 10.5289 21.5166 10.5289 21.478 10.523C21.3731 10.488 21.2638 10.4674 21.1532 10.4618H19.6375C19.5641 10.4621 19.492 10.4434 19.4283 10.4076C19.3647 10.3718 19.3119 10.3202 19.2752 10.2579L17.4055 7.08574C17.018 7.21253 16.6009 7.22486 16.2062 7.12118C15.8116 7.0175 15.4568 6.8024 15.1861 6.50267L8.27793 10.4088C8.21406 10.443 8.14253 10.4612 8.06973 10.4618H4.73849C4.64448 10.465 4.55215 10.4369 4.47653 10.3821C4.40092 10.3273 4.34648 10.249 4.32208 10.1601C4.29798 10.0729 4.30413 9.98036 4.33955 9.89697C4.37497 9.81358 4.43766 9.74406 4.51779 9.69933L15.7066 3.38348C16.1848 3.11315 16.7531 3.03989 17.2865 3.17982C17.8198 3.31975 18.2746 3.66141 18.5507 4.12964L21.9569 9.91136C21.9986 9.982 22.0178 10.0633 22.0118 10.1447C22.0059 10.2261 21.9751 10.3039 21.9236 10.368C21.8843 10.4166 21.8343 10.4558 21.7773 10.4827C21.7203 10.5095 21.6578 10.5233 21.5946 10.523ZM19.879 9.64633H20.8367L17.822 4.53738C17.6558 4.25788 17.3833 4.0542 17.0641 3.97092C16.7449 3.88763 16.4051 3.9315 16.1189 4.09294L14.1159 5.22645L6.29584 9.64633H7.96147L15.0987 5.60973C15.1953 5.55796 15.3081 5.54341 15.4151 5.56895C15.4683 5.58287 15.5181 5.60698 15.5617 5.63987C15.6053 5.67276 15.6418 5.71379 15.6691 5.76059C15.6921 5.80338 15.7186 5.84429 15.7483 5.88291C15.9316 6.12334 16.1987 6.28942 16.4989 6.34956C16.7991 6.40971 17.1114 6.35972 17.3764 6.2091C17.4239 6.18214 17.4764 6.16466 17.5309 6.15765C17.5853 6.15064 17.6407 6.15426 17.6937 6.16828C17.7467 6.1823 17.7964 6.20646 17.8398 6.23935C17.8833 6.27225 17.9197 6.31324 17.9469 6.35996L19.879 9.64633Z" fill="#0F50A4"/>
<path d="M19.4648 21.2941H3.74341C3.63369 21.2941 3.52845 21.25 3.45087 21.1714C3.37328 21.0929 3.32969 20.9864 3.32969 20.8754C3.32969 20.5422 3.19893 20.2227 2.96616 19.9871C2.7334 19.7516 2.4177 19.6192 2.08853 19.6192C1.9788 19.6192 1.87357 19.5751 1.79598 19.4966C1.71839 19.4181 1.6748 19.3116 1.6748 19.2005V13.3386C1.6748 13.2276 1.71839 13.1211 1.79598 13.0426C1.87357 12.9641 1.9788 12.9199 2.08853 12.9199C2.4177 12.9199 2.7334 12.7876 2.96616 12.552C3.19893 12.3165 3.32969 11.997 3.32969 11.6638C3.32969 11.5528 3.37328 11.4463 3.45087 11.3678C3.52845 11.2892 3.63369 11.2451 3.74341 11.2451H19.4648C19.5746 11.2451 19.6798 11.2892 19.7574 11.3678C19.835 11.4463 19.8786 11.5528 19.8786 11.6638C19.8786 11.997 20.0093 12.3165 20.2421 12.552C20.4748 12.7876 20.7905 12.9199 21.1197 12.9199C21.2294 12.9199 21.3347 12.9641 21.4123 13.0426C21.4899 13.1211 21.5334 13.2276 21.5334 13.3386V19.2005C21.5334 19.3116 21.4899 19.4181 21.4123 19.4966C21.3347 19.5751 21.2294 19.6192 21.1197 19.6192C20.7905 19.6192 20.4748 19.7516 20.2421 19.9871C20.0093 20.2227 19.8786 20.5422 19.8786 20.8754C19.8786 20.9864 19.835 21.0929 19.7574 21.1714C19.6798 21.25 19.5746 21.2941 19.4648 21.2941ZM4.11576 20.4567H19.0925C19.1736 20.0543 19.3697 19.685 19.6566 19.3947C19.9435 19.1043 20.3085 18.9057 20.706 18.8237V13.7155C20.3085 13.6334 19.9435 13.4349 19.6566 13.1445C19.3697 12.8542 19.1736 12.4849 19.0925 12.0825H4.11576C4.03469 12.4849 3.83849 12.8542 3.5516 13.1445C3.26471 13.4349 2.89979 13.6334 2.50225 13.7155V18.8237C2.89979 18.9057 3.26471 19.1043 3.5516 19.3947C3.83849 19.685 4.03469 20.0543 4.11576 20.4567V20.4567Z" fill="#0F50A4"/>
<path d="M21.1361 22.9688H2.07217C1.88417 22.9703 1.69701 22.944 1.51683 22.8907C1.0811 22.7704 0.696985 22.512 0.423111 22.1549C0.149237 21.7977 0.000641867 21.3615 0 20.9127V11.8657C0 11.3204 0.218317 10.7974 0.606924 10.4118C0.995531 10.0262 1.52259 9.80961 2.07217 9.80961H21.1361C21.3227 9.80844 21.5085 9.83478 21.6873 9.88774C22.1238 10.0073 22.5088 10.2654 22.7835 10.6226C23.0582 10.9798 23.2074 11.4164 23.2083 11.8657V20.9127C23.2083 21.458 22.99 21.981 22.6014 22.3666C22.2128 22.7522 21.6857 22.9688 21.1361 22.9688ZM2.07217 10.6321C1.74242 10.6321 1.42619 10.762 1.19302 10.9934C0.959858 11.2248 0.828867 11.5385 0.828867 11.8657V20.9127C0.829895 21.1818 0.919541 21.4431 1.08414 21.6569C1.24875 21.8707 1.47928 22.0253 1.74062 22.097C1.84811 22.1295 1.95981 22.1461 2.07217 22.1464H21.1361C21.4659 22.1464 21.7821 22.0164 22.0153 21.7851C22.2484 21.5537 22.3794 21.2399 22.3794 20.9127V11.8657C22.3784 11.5967 22.2887 11.3353 22.1241 11.1215C21.9595 10.9077 21.729 10.7532 21.4677 10.6814C21.36 10.6496 21.2484 10.6329 21.1361 10.6321H2.07217Z" fill="#0F50A4"/>
<path d="M19.4648 21.2941H3.74341C3.63369 21.2941 3.52845 21.25 3.45087 21.1714C3.37328 21.0929 3.32969 20.9864 3.32969 20.8754C3.32969 20.5422 3.19893 20.2227 2.96616 19.9871C2.7334 19.7516 2.4177 19.6192 2.08853 19.6192C1.9788 19.6192 1.87357 19.5751 1.79598 19.4966C1.71839 19.4181 1.6748 19.3116 1.6748 19.2005V13.3386C1.6748 13.2276 1.71839 13.1211 1.79598 13.0426C1.87357 12.9641 1.9788 12.9199 2.08853 12.9199C2.4177 12.9199 2.7334 12.7876 2.96616 12.552C3.19893 12.3165 3.32969 11.997 3.32969 11.6638C3.32969 11.5528 3.37328 11.4463 3.45087 11.3678C3.52845 11.2892 3.63369 11.2451 3.74341 11.2451H19.4648C19.5746 11.2451 19.6798 11.2892 19.7574 11.3678C19.835 11.4463 19.8786 11.5528 19.8786 11.6638C19.8786 11.997 20.0093 12.3165 20.2421 12.552C20.4748 12.7876 20.7905 12.9199 21.1197 12.9199C21.2294 12.9199 21.3347 12.9641 21.4123 13.0426C21.4898 13.1211 21.5334 13.2276 21.5334 13.3386V19.2005C21.5334 19.3116 21.4898 19.4181 21.4123 19.4966C21.3347 19.5751 21.2294 19.6192 21.1197 19.6192C20.7905 19.6192 20.4748 19.7516 20.2421 19.9871C20.0093 20.2227 19.8786 20.5422 19.8786 20.8754C19.8786 20.9864 19.835 21.0929 19.7574 21.1714C19.6798 21.25 19.5746 21.2941 19.4648 21.2941Z" fill="#0F50A4"/>
<path d="M14.76 16.2456C14.76 17.8181 13.4853 19.0929 11.913 19.0929C10.3406 19.0929 9.06592 17.8181 9.06592 16.2456C9.06592 14.6732 10.3406 13.3984 11.913 13.3984C13.4853 13.3984 14.76 14.6732 14.76 16.2456Z" fill="white" stroke="white" stroke-width="0.936526"/>
<path d="M7.91463 3.35007L4.22461 9.71049L13.9352 4.36968L10.9735 2.62177C10.6239 2.31103 10.3746 2.4923 10.2937 2.62177C9.75964 3.39862 8.93424 3.35006 8.54582 3.15585C8.23508 3.00048 8.06029 3.1073 7.91463 3.35007Z" fill="#0685CF"/>
</svg>
