<svg width="14" height="13" viewBox="0 0 14 13" fill="none" xmlns="http://www.w3.org/2000/svg">
<path d="M13.0302 0.0410156H0.969744C0.435055 0.0410156 0 0.476071 0 1.01076V9.19307C0 9.72776 0.435055 10.1628 0.969744 10.1628H8.00238L7.79004 11.4578C7.75008 11.7016 7.83071 11.9224 8.00576 12.0484C8.18076 12.1745 8.4156 12.1812 8.63421 12.066L10.1515 11.2674C10.1938 11.2457 10.3105 11.2457 10.3528 11.2674L11.8701 12.066C11.9739 12.1206 12.0814 12.1479 12.1844 12.1479C12.2983 12.1479 12.4067 12.1146 12.4986 12.0484C12.6736 11.9224 12.7542 11.7015 12.7143 11.4577L12.5021 10.1628H13.0303C13.5649 10.1628 14 9.72771 14 9.19302V1.01076C13.9999 0.476015 13.5649 0.0410156 13.0302 0.0410156ZM10.2522 8.50062C9.32029 8.50062 8.56206 7.74239 8.56206 6.81049C8.56206 5.8786 9.32029 5.12037 10.2522 5.12037C11.1841 5.12037 11.9423 5.8786 11.9423 6.81049C11.9423 7.74239 11.1841 8.50062 10.2522 8.50062ZM10.74 10.5319C10.4573 10.383 10.047 10.383 9.76438 10.5319L8.69168 11.0965L9.03269 9.0163C9.39438 9.21707 9.8101 9.33177 10.2522 9.33177C10.6944 9.33177 11.1101 9.21701 11.4718 9.0163L11.6047 9.82729C11.605 9.82862 11.6051 9.83006 11.6054 9.83139L11.8128 11.0965L10.74 10.5319ZM13.1687 9.19307C13.1687 9.26816 13.1053 9.33161 13.0302 9.33161H12.3657L12.214 8.4057C12.2133 8.40204 12.2123 8.39855 12.2116 8.39489C12.5627 7.96166 12.7736 7.41029 12.7736 6.81049C12.7736 5.42021 11.6425 4.28916 10.2522 4.28916C8.86196 4.28916 7.73091 5.42021 7.73091 6.81049C7.73091 7.41029 7.94182 7.96155 8.29286 8.39489C8.29214 8.39849 8.29114 8.40204 8.29053 8.40564L8.13865 9.33233C8.13399 9.33216 8.1295 9.33161 8.12485 9.33161H0.969744C0.894658 9.33161 0.831209 9.26816 0.831209 9.19307V1.01076C0.831209 0.935674 0.894658 0.872225 0.969744 0.872225H13.0302C13.1053 0.872225 13.1687 0.935674 13.1687 1.01076V9.19307Z" fill="#0F50A4"/>
<path d="M11.5606 2.43359H2.14021C1.91063 2.43359 1.72461 2.61962 1.72461 2.8492C1.72461 3.07878 1.91063 3.2648 2.14021 3.2648H11.5606C11.7902 3.2648 11.9762 3.07878 11.9762 2.8492C11.9762 2.61962 11.7902 2.43359 11.5606 2.43359Z" fill="#0F50A4"/>
<path d="M6.13002 4.68555H2.14021C1.91063 4.68555 1.72461 4.87157 1.72461 5.10115C1.72461 5.33073 1.91063 5.51676 2.14021 5.51676H6.13002C6.3596 5.51676 6.54562 5.33073 6.54562 5.10115C6.54562 4.87157 6.3596 4.68555 6.13002 4.68555Z" fill="#0F50A4"/>
</svg>
