<svg width="24" height="24" viewBox="0 0 24 24" fill="none" xmlns="http://www.w3.org/2000/svg">
<path d="M21.7602 16.3381C21.5933 16.6926 21.3118 16.8125 20.9261 16.8021C20.3214 16.7812 19.7167 16.8021 19.1119 16.7969C18.6741 16.7917 18.3821 16.4997 18.4447 16.0983C18.4655 15.9628 18.5489 15.822 18.6376 15.7073C18.7418 15.577 18.8826 15.478 19.0233 15.3476C18.6428 15.1026 18.2622 14.9619 17.8556 14.9358C16.7087 14.8524 15.833 15.3112 15.2335 16.2912C14.9989 16.6718 14.7017 16.8386 14.3368 16.7812C13.7634 16.6926 13.4454 16.0879 13.7217 15.5822C14.389 14.3624 15.4055 13.5961 16.7713 13.3302C17.9859 13.0956 19.1067 13.3563 20.1285 14.0548C20.1545 14.0705 20.1806 14.0861 20.2327 14.1174C20.3474 13.9923 20.4673 13.8776 20.5768 13.7473C20.9782 13.2624 21.5933 13.4188 21.7549 13.9506C21.7602 14.7534 21.7602 15.5457 21.7602 16.3381Z" fill="#0685CF"/>
<path d="M16.1664 19.9138C16.5417 20.1536 16.9171 20.2943 17.3237 20.3204C18.4705 20.3986 19.3463 19.9398 19.9458 18.965C20.1283 18.6679 20.3576 18.4802 20.7121 18.475C21.3585 18.4698 21.7599 19.1527 21.4315 19.7261C20.7955 20.8521 19.852 21.5819 18.5956 21.8843C17.2872 22.1971 16.0778 21.926 14.9257 21.118C14.8006 21.2587 14.6755 21.4099 14.5399 21.5559C14.3366 21.7748 14.0864 21.8634 13.7997 21.7435C13.5234 21.6236 13.4139 21.3943 13.4191 21.1023C13.4243 20.4507 13.4191 19.7991 13.4191 19.1475C13.4191 18.7044 13.6641 18.4593 14.1125 18.4593C14.7589 18.4541 15.4001 18.4593 16.0465 18.4593C16.3488 18.4593 16.5834 18.5688 16.7033 18.8555C16.818 19.137 16.7294 19.3768 16.5157 19.5801C16.4062 19.6896 16.2915 19.7939 16.1664 19.9138Z" fill="#0685CF"/>
<path fill-rule="evenodd" clip-rule="evenodd" d="M9.55916 2.03809C9.47865 2.02188 9.39814 2.00566 9.3182 1.98828C9.04191 1.98828 8.77084 1.98828 8.49455 1.99349C8.47787 1.99766 8.46118 2.0035 8.4445 2.00934C8.41948 2.0181 8.39446 2.02686 8.36944 2.02999C6.69606 2.23329 5.24163 3.52091 4.8715 5.16822C4.78809 5.54877 4.76724 5.93975 4.7516 6.33072C4.73705 6.67264 4.74027 7.0171 4.74354 7.36764C4.74496 7.51947 4.74639 7.67245 4.74639 7.82686C4.67137 7.82686 4.59941 7.82624 4.52946 7.82565C4.39526 7.82451 4.26847 7.82343 4.14168 7.82686C3.04695 7.85292 2.24414 8.65573 2.24414 9.74524C2.23893 12.0859 2.23893 14.4213 2.24414 16.762C2.24414 16.9288 2.265 17.1008 2.3067 17.2624C2.53086 18.1278 3.26589 18.6699 4.21466 18.6699H10.8404C11.0593 18.6699 11.1514 18.6699 11.2435 18.6693C11.3356 18.6686 11.4276 18.6673 11.6466 18.6647C11.7039 18.6647 11.7978 18.623 11.8082 18.5813C11.9125 18.1382 12.1418 17.7629 12.4494 17.4344C12.4233 17.3927 12.4077 17.3667 12.3921 17.3406C11.8447 16.4596 11.8134 15.5682 12.3243 14.6611C12.9394 13.5768 14.3071 12.7532 15.4279 12.2058C15.5425 12.1537 15.5895 12.0963 15.5895 11.9608C15.5835 11.5437 15.5844 11.1267 15.5852 10.7097C15.5858 10.3969 15.5865 10.0841 15.5842 9.77131C15.579 8.61923 14.7814 7.82686 13.6242 7.82164H13.082V7.58184C13.082 7.45265 13.0823 7.32379 13.0827 7.19509C13.0836 6.80966 13.0846 6.42569 13.0768 6.03879C13.0351 4.22466 11.7944 2.62948 10.0376 2.14467C9.88121 2.10297 9.72018 2.07053 9.55916 2.03809ZM11.4062 7.20613C11.4022 7.40624 11.3982 7.60773 11.3982 7.81122H6.41977C6.41977 7.65816 6.41944 7.50576 6.41911 7.35393C6.41814 6.90074 6.41717 6.45266 6.42498 6.00751C6.42498 5.83027 6.46147 5.6426 6.50839 5.47057C6.8316 4.30286 7.95239 3.5574 9.19309 3.66687C10.3191 3.76592 11.2991 4.72511 11.3878 5.8824C11.4237 6.32136 11.415 6.76032 11.4062 7.20613ZM8.1772 15.0481H10.0291L9.63224 13.4167C10.1172 13.064 10.8756 12.1733 10.0291 11.4325C8.88267 10.639 8.04492 11.4766 7.91265 11.8294C7.78037 12.138 7.72746 12.8875 8.57403 13.4167L8.1772 15.0481Z" fill="#0F50A4"/>
</svg>
