<svg width="24" height="24" viewBox="0 0 24 24" fill="none" xmlns="http://www.w3.org/2000/svg">
<path fill-rule="evenodd" clip-rule="evenodd" d="M13.627 9.79343C13.6006 9.28083 13.6272 8.78929 13.7154 8.32422H2.92105C1.86008 8.32422 1 9.1843 1 10.2453V16.0744C1 17.1353 1.86008 17.9954 2.92105 17.9954H12.7908C12.607 17.7646 12.5098 17.4396 12.5098 17.0333V11.2516C12.5098 10.3832 12.8187 9.9699 13.627 9.79343ZM9.40077 13.5844V14.4792L9.398 14.4789C9.398 14.5253 9.40716 14.5713 9.42497 14.6142C9.44277 14.6571 9.46887 14.6961 9.50178 14.7289C9.53468 14.7617 9.57374 14.7878 9.61673 14.8056C9.65971 14.8233 9.70579 14.8325 9.75232 14.8325C9.79885 14.8325 9.84492 14.8233 9.88791 14.8056C9.9309 14.7878 9.96996 14.7617 10.0029 14.7289C10.0358 14.6961 10.0619 14.6571 10.0797 14.6142C10.0975 14.5713 10.1066 14.5253 10.1066 14.4789V13.5841L10.8831 14.0315C10.9233 14.0556 10.968 14.0715 11.0145 14.0782C11.0609 14.0849 11.1083 14.0824 11.1538 14.0706C11.1992 14.0589 11.2419 14.0382 11.2793 14.0099C11.3167 13.9815 11.348 13.946 11.3715 13.9054C11.395 13.8648 11.4101 13.82 11.4161 13.7735C11.422 13.727 11.4186 13.6798 11.4061 13.6346C11.3935 13.5894 11.3721 13.5472 11.343 13.5104C11.314 13.4736 11.2778 13.4429 11.2368 13.4202L10.4603 12.9728L11.2368 12.5254C11.2786 12.5031 11.3154 12.4727 11.3452 12.4359C11.375 12.3992 11.3971 12.3568 11.4102 12.3114C11.4232 12.2659 11.427 12.2183 11.4213 12.1714C11.4156 12.1245 11.4005 12.0792 11.3769 12.0382C11.3533 11.9972 11.3217 11.9613 11.284 11.9327C11.2462 11.9042 11.2031 11.8835 11.1572 11.8718C11.1113 11.8602 11.0635 11.8579 11.0167 11.8651C10.9698 11.8722 10.9249 11.8887 10.8846 11.9135L10.1091 12.3615V11.4667C10.1091 11.3729 10.0718 11.283 10.0053 11.2167C9.93888 11.1503 9.84875 11.1131 9.75478 11.1131C9.66081 11.1131 9.57069 11.1503 9.50424 11.2167C9.43779 11.283 9.40046 11.3729 9.40046 11.4667V12.3609L8.62434 11.9135C8.54304 11.8667 8.44643 11.854 8.35577 11.8783C8.26511 11.9026 8.18783 11.9618 8.14093 12.0429C8.09402 12.1241 8.08134 12.2205 8.10566 12.311C8.12999 12.4014 8.18933 12.4786 8.27064 12.5254L9.04707 12.9728L8.27064 13.4202C8.18937 13.467 8.13007 13.5441 8.10577 13.6345C8.08148 13.725 8.09418 13.8214 8.14108 13.9025C8.18799 13.9836 8.26525 14.0428 8.35588 14.067C8.44651 14.0913 8.54308 14.0786 8.62434 14.0318L9.40077 13.5844ZM4.37361 13.5844V14.4792H4.37237C4.37237 14.573 4.4097 14.6629 4.47615 14.7292C4.5426 14.7955 4.63272 14.8328 4.72669 14.8328C4.82067 14.8328 4.91079 14.7955 4.97724 14.7292C5.04368 14.6629 5.08102 14.573 5.08102 14.4792V13.5844L5.85775 14.0315C5.89801 14.0556 5.94268 14.0715 5.98915 14.0782C6.03563 14.0849 6.08299 14.0824 6.12845 14.0706C6.17392 14.0589 6.21659 14.0382 6.25397 14.0099C6.29135 13.9815 6.3227 13.946 6.34619 13.9054C6.36967 13.8648 6.38482 13.82 6.39076 13.7735C6.39669 13.727 6.39329 13.6798 6.38074 13.6346C6.3682 13.5894 6.34677 13.5472 6.31771 13.5104C6.28864 13.4736 6.25252 13.4429 6.21145 13.4202L5.43472 12.9731L6.21145 12.5254C6.29276 12.4786 6.3521 12.4014 6.37643 12.311C6.40076 12.2205 6.38807 12.1241 6.34117 12.0429C6.29426 11.9618 6.21698 11.9026 6.12632 11.8783C6.03566 11.854 5.93906 11.8667 5.85775 11.9135L5.08194 12.3615V11.4667C5.08194 11.3729 5.04461 11.283 4.97816 11.2167C4.91171 11.1503 4.82159 11.1131 4.72762 11.1131C4.63365 11.1131 4.54352 11.1503 4.47708 11.2167C4.41063 11.283 4.3733 11.3729 4.3733 11.4667V12.3609L3.59718 11.9135C3.51587 11.8667 3.41926 11.854 3.32861 11.8783C3.23795 11.9026 3.16067 11.9618 3.11376 12.0429C3.06686 12.1241 3.05417 12.2205 3.0785 12.311C3.10282 12.4014 3.16217 12.4786 3.24347 12.5254L4.0199 12.9728L3.24347 13.4202C3.16221 13.467 3.1029 13.5441 3.07861 13.6345C3.05431 13.725 3.06701 13.8214 3.11392 13.9025C3.16082 13.9836 3.23809 14.0428 3.32872 14.067C3.41934 14.0913 3.51591 14.0786 3.59718 14.0318L4.37361 13.5844Z" fill="#0F50A4"/>
<path d="M22.0043 10.3267C22.5069 10.4008 22.8482 10.6601 22.9682 11.1992C22.9945 11.3144 22.9945 11.4338 22.9982 11.5532C22.9982 13.2859 23.002 15.0186 22.9982 16.7513C22.9982 17.5168 22.6007 17.949 21.903 17.9531C19.6564 17.9572 17.4135 17.9572 15.1668 17.9531C14.4729 17.9531 14.0791 17.5127 14.0791 16.7431C14.0791 15.035 14.0791 13.327 14.0791 11.619C14.0791 10.8494 14.3529 10.4831 15.0693 10.3267C14.998 8.9438 15.3618 7.73378 16.3783 6.83244C17.0271 6.25625 17.7773 5.98049 18.6174 6.00107C19.6489 6.02988 20.504 6.48261 21.1792 7.33456C21.8543 8.19063 22.0643 9.21132 22.0043 10.3267ZM20.0127 10.3308C20.084 9.47473 19.9302 8.75036 19.1875 8.34291C18.6512 8.05069 18.1186 8.11243 17.6385 8.50754C17.0797 8.97261 16.9971 9.62289 17.0684 10.3267C18.0586 10.3308 19.03 10.3308 20.0127 10.3308ZM18.5499 12.5245C18.1336 12.5204 17.7585 12.8002 17.616 13.2241C17.4735 13.6439 17.5897 14.0926 17.8936 14.4095C17.9723 14.4877 18.0173 14.6276 18.0361 14.7469C18.0661 14.9568 18.0473 15.1709 18.0773 15.3808C18.1111 15.6112 18.3174 15.7718 18.5312 15.7759C18.7525 15.78 18.9662 15.6195 19.0038 15.3767C19.0375 15.1709 19.015 14.9527 19.045 14.7428C19.0638 14.6235 19.1125 14.4877 19.1913 14.4053C19.4951 14.0926 19.6076 13.6398 19.4651 13.22C19.3226 12.8085 18.955 12.5286 18.5499 12.5245Z" fill="#0685CF"/>
</svg>
