<svg width="24" height="24" viewBox="0 0 24 24" fill="none" xmlns="http://www.w3.org/2000/svg">
<path fill-rule="evenodd" clip-rule="evenodd" d="M11.5463 15.2791C11.8597 15.0863 12.2567 14.6662 12.1731 13.9559C12.1673 13.9268 12.1488 13.8444 12.1209 13.7469C12.1184 13.7383 12.1155 13.7285 12.1123 13.7178C12.0703 13.5764 11.9765 13.2608 12.1383 13.0505C12.3124 12.8241 12.9915 12.3714 13.4964 12.1625C13.9786 11.9629 14.1274 12.0493 14.2459 12.1181C14.2515 12.1213 14.257 12.1245 14.2625 12.1277C14.36 12.1834 14.4192 12.2553 14.4366 12.2843C14.5875 12.4642 15.0251 12.8206 15.5683 12.8067C16.1116 12.7927 16.4679 12.4642 16.5782 12.3017C16.7059 12.116 17.1353 11.856 17.8318 12.3017C18.1336 12.4758 18.7859 12.8833 18.9809 13.1201C19.1063 13.2872 19.0912 13.5379 19.068 13.6424C18.9983 13.892 18.9008 14.4607 19.068 14.7393C19.1492 14.9714 19.4824 15.4601 20.1649 15.5576C20.3332 15.5808 20.63 15.7317 20.6872 16.2018C20.7394 16.6313 20.7847 17.6191 20.5479 18.1345C20.4839 18.2738 20.3564 18.3608 20.043 18.4131C19.6251 18.4827 18.8173 18.8692 18.9287 19.8582C18.9403 19.9627 18.974 20.196 19.0157 20.2935C19.068 20.4153 19.155 20.7462 18.7372 21.0944C18.3193 21.4426 17.1876 22.3132 16.6826 21.6341C16.3634 21.2453 15.4917 20.687 14.5585 21.5645C14.4018 21.7734 14.1197 22.1042 13.6879 21.8953C13.3861 21.756 12.6607 21.3799 12.1731 20.9899C12.0687 20.9029 11.9015 20.6138 12.0687 20.1542C12.2776 19.5796 12.1209 18.5523 10.9021 18.3434C10.7396 18.3028 10.4007 18.1414 10.345 17.8211C10.2753 17.4206 10.2057 16.7067 10.3798 15.9929C10.4146 15.8304 10.5783 15.5019 10.9544 15.488C11.0704 15.4832 11.32 15.4183 11.5463 15.2791ZM15.4939 18.5865C16.3786 18.5865 17.0958 17.8693 17.0958 16.9846C17.0958 16.1 16.3786 15.3828 15.4939 15.3828C14.6093 15.3828 13.8921 16.1 13.8921 16.9846C13.8921 17.8693 14.6093 18.5865 15.4939 18.5865Z" fill="#0685CF"/>
<path fill-rule="evenodd" clip-rule="evenodd" d="M17.4278 5.75209V3.92804C17.4927 3.91695 17.5355 3.91062 17.5814 3.90745C18.1262 3.80928 18.4636 3.29785 18.34 2.75792C18.2355 2.3019 17.8633 2.03906 17.3122 2.03906C13.6063 2.03906 9.89884 2.03906 6.19295 2.04065C6.01557 2.04065 5.83661 2.04223 5.66399 2.07231C4.24657 2.3209 3.27575 3.46411 3.27417 4.90657C3.26783 9.28145 3.271 13.6579 3.27417 18.0344C3.27417 18.2244 3.29159 18.4176 3.3296 18.6044C3.60991 19.9724 4.7391 20.8876 6.15652 20.8908C7.8685 20.894 9.57974 20.8936 11.2912 20.893C11.2211 20.6043 11.2311 20.2628 11.3638 19.8979C11.4078 19.777 11.4137 19.5844 11.341 19.4286C11.2877 19.3142 11.1619 19.1489 10.7754 19.0826L10.7476 19.0779L10.7202 19.071C10.5528 19.0292 10.3316 18.9383 10.1286 18.7834C9.92193 18.6258 9.67654 18.3549 9.60605 17.9496C9.52817 17.5018 9.44298 16.6761 9.64914 15.8234C9.6916 15.635 9.79282 15.3961 9.97768 15.1874C10.1784 14.9608 10.4901 14.7603 10.9077 14.7393L10.9124 14.7384C10.9266 14.7355 10.9489 14.7299 10.977 14.7207C11.0349 14.7019 11.0983 14.6742 11.1534 14.6403C11.229 14.5938 11.3086 14.5225 11.3619 14.4318C11.4062 14.3563 11.4458 14.2462 11.4314 14.075L11.4265 14.0542C11.4198 14.0265 11.4109 13.9923 11.4005 13.9555L11.3934 13.9314L11.3909 13.9229L11.3909 13.9229C11.3689 13.8493 11.3149 13.6685 11.3007 13.4616C11.2861 13.2502 11.3047 12.9041 11.5438 12.5932C11.7158 12.3697 12.0275 12.1403 12.281 11.9735C12.5622 11.7884 12.9009 11.5972 13.2096 11.4695C13.5007 11.3491 13.7752 11.278 14.0425 11.2905C14.3383 11.3043 14.5347 11.4185 14.6177 11.4667L14.6846 11.5056L14.9736 11.7575L15.0112 11.8024C15.0278 11.8221 15.1042 11.898 15.2217 11.9638C15.3352 12.0273 15.4473 12.0595 15.5491 12.0569C15.6697 12.0538 15.7682 12.0165 15.845 11.9696C15.9106 11.9296 15.9469 11.891 15.9565 11.8809C15.9594 11.8777 15.9598 11.8773 15.9576 11.8806L15.9601 11.8768C16.1403 11.6148 16.4612 11.388 16.8772 11.3237C17.3027 11.258 17.7611 11.37 18.2208 11.6603C18.2651 11.686 18.3155 11.7158 18.3702 11.7488C18.3701 10.4951 18.3701 9.24147 18.3701 7.98783C18.3701 7.888 18.3702 7.78827 18.3703 7.68862C18.3706 7.38995 18.3709 7.09196 18.3685 6.79396C18.367 6.46461 18.2577 6.17802 17.9774 5.99435C17.8674 5.92324 17.7428 5.87559 17.6131 5.82595C17.5521 5.80265 17.4901 5.77891 17.4278 5.75209ZM15.285 3.91379H15.5289V5.78851C15.5096 5.79022 15.4908 5.79254 15.4724 5.79482C15.4398 5.79887 15.4083 5.80276 15.3769 5.80276L15.3753 5.80276C12.2955 5.80434 9.21731 5.80593 6.13752 5.80276C5.46127 5.80118 5.00041 5.18841 5.20946 4.56931C5.32983 4.21146 5.5848 3.99454 5.96014 3.93279C6.05358 3.91695 6.15019 3.91379 6.24521 3.91379H15.285Z" fill="#0F50A4"/>
</svg>
