<svg width="50" height="38" viewBox="0 0 50 38" fill="none" xmlns="http://www.w3.org/2000/svg">
<path fill-rule="evenodd" clip-rule="evenodd" d="M7.64867 11.0474C7.64146 11.0545 7.4445 11.0844 7.21099 11.1137C6.97748 11.143 6.72982 11.182 6.66063 11.2002C6.59144 11.2185 6.41454 11.2621 6.26751 11.2972C6.12049 11.3323 5.97189 11.3745 5.9373 11.391C5.9027 11.4075 5.83902 11.431 5.79578 11.4432C5.59309 11.5004 5.1127 11.7079 4.73682 11.9006C4.34298 12.1025 4.19162 12.1923 3.88433 12.4061C3.8103 12.4576 3.73602 12.4997 3.71922 12.4997C3.70243 12.4997 3.68869 12.5119 3.68869 12.5268C3.68869 12.5417 3.62148 12.5996 3.5393 12.6555C3.45713 12.7114 3.34746 12.7946 3.29557 12.8404C2.86538 13.2199 2.50576 13.5795 2.26769 13.8681C2.18664 13.9663 2.09113 14.0818 2.05541 14.1249C2.01965 14.1679 1.99043 14.2128 1.99043 14.2246C1.99043 14.2364 1.96568 14.2745 1.9354 14.3092C1.76343 14.5065 1.40126 15.0982 1.21898 15.4795C1.1676 15.587 1.11825 15.6823 1.10926 15.6912C1.0267 15.7737 0.63878 16.9021 0.540249 17.3464C0.260415 18.6084 0.265479 19.9819 0.554433 21.2111C0.648623 21.6118 0.762878 22.0142 0.794767 22.0579C0.807882 22.0758 0.836437 22.149 0.858231 22.2207C0.879994 22.2923 0.915783 22.3876 0.937735 22.4324C0.959686 22.4771 1.04388 22.6603 1.12483 22.8394C1.20574 23.0186 1.33456 23.2718 1.41104 23.4023C1.48756 23.5328 1.55014 23.6525 1.55014 23.6683C1.55014 23.6841 1.56137 23.7019 1.57508 23.7079C1.58879 23.7138 1.63304 23.7748 1.67346 23.8433C1.73969 23.9556 2.00229 24.3134 2.23945 24.6143C2.41632 24.8387 2.94658 25.3727 3.22858 25.6103C3.59273 25.9172 3.60387 25.9259 3.83021 26.0804C3.93399 26.1512 4.03305 26.2209 4.05035 26.2352C4.22882 26.3823 5.25539 26.8955 5.55991 26.9898C5.6291 27.0112 5.71401 27.042 5.7486 27.0582C6.02548 27.1882 6.94801 27.3921 7.50975 27.4474C7.69398 27.4656 10.0584 27.4789 13.2178 27.4798L17.9066 27.4809C18.1657 27.481 18.2948 27.7948 18.1108 27.9772C16.9069 29.1706 15.2519 30.9207 14.3795 31.9229C14.3027 32.0111 14.2116 32.1133 14.177 32.15C14.1424 32.1868 14.0645 32.2773 14.004 32.3512C13.8932 32.4864 13.4836 32.9737 13.3737 33.101C13.2897 33.1982 12.6811 33.9646 12.5979 34.0778C12.4739 34.2466 12.0197 34.8548 11.9759 34.9107C11.9524 34.9406 11.9181 34.9944 11.8996 35.0303C11.881 35.0661 11.848 35.1149 11.8261 35.1387C11.6636 35.3153 10.6389 37.0421 10.6389 37.1394C10.6389 37.1502 10.6032 37.2328 10.5594 37.3229C10.5157 37.4131 10.4854 37.4925 10.4921 37.4995C10.4988 37.5064 10.6018 37.3984 10.721 37.2593C11.2365 36.6579 12.7036 35.174 13.3421 34.6081C13.471 34.4939 13.6106 34.3679 13.6522 34.3282C13.6938 34.2885 13.8643 34.142 14.031 34.0027C14.1978 33.8633 14.3504 33.7346 14.3702 33.7166C14.39 33.6986 14.4521 33.6473 14.5082 33.6025C14.5642 33.5577 14.6541 33.4835 14.708 33.4376C14.8223 33.3402 15.216 33.0257 15.327 32.9431C15.5972 32.7419 15.7535 32.624 15.7809 32.6005C15.7982 32.5858 15.9043 32.5084 16.0167 32.4286C16.1292 32.3488 16.2282 32.2744 16.2369 32.2631C16.2455 32.2519 16.3941 32.1464 16.5671 32.0287C16.7401 31.911 16.8987 31.7993 16.9196 31.7805C16.9405 31.7616 16.9656 31.7462 16.9754 31.7462C16.9852 31.7462 17.0613 31.6986 17.1445 31.6404C17.2278 31.5822 17.3986 31.4686 17.5242 31.388C17.6498 31.3074 17.7972 31.2116 17.8517 31.1751C18.0288 31.0566 19.2301 30.372 19.6177 30.1687C19.9576 29.9904 20.2115 29.8658 20.6869 29.6439C21.1373 29.4337 21.2096 29.4015 21.2308 29.4015C21.2436 29.4015 21.3033 29.3742 21.3636 29.3409C21.4239 29.3076 21.5086 29.2693 21.5518 29.2559C21.595 29.2424 21.6729 29.2114 21.7248 29.187C21.8542 29.1262 22.5912 28.8564 22.8412 28.7783C22.9536 28.7432 23.0739 28.7016 23.1085 28.6858C23.2131 28.638 24.3839 28.3119 24.7118 28.2392C25.1694 28.1377 25.7685 28.0302 26.3006 27.9542C26.8422 27.8769 27.3565 27.7707 27.48 27.7107C27.5146 27.6939 27.6187 27.6554 27.7115 27.6251C28.0545 27.5132 28.4637 27.2283 28.7572 26.897C28.9717 26.6548 28.987 26.6344 29.0534 26.5C29.0836 26.4391 29.1178 26.3818 29.1294 26.3728C29.1617 26.3478 29.3375 25.956 29.4276 25.7081C29.5222 25.4478 29.58 25.2401 29.682 24.7934C29.7228 24.6143 29.794 24.3065 29.8401 24.1095C29.8861 23.9125 29.9573 23.6047 29.9982 23.4256C30.0391 23.2465 30.1088 22.9461 30.1531 22.758C30.1974 22.57 30.2687 22.2659 30.3114 22.0823C30.3541 21.8987 30.4239 21.5983 30.4666 21.4147C30.5093 21.2311 30.5806 20.927 30.6249 20.7389C30.7188 20.3403 30.8335 19.8468 30.9388 19.3874C31.0691 18.8198 31.0752 18.8179 31.0782 19.3455C31.081 19.8433 31.1243 20.4119 31.1744 20.6087C31.1904 20.6714 31.2272 20.8619 31.2563 21.032C31.2854 21.2022 31.3216 21.3553 31.3366 21.3723C31.3516 21.3894 31.3639 21.4307 31.3639 21.4643C31.3639 21.5726 31.7504 22.6768 31.8054 22.7255C31.8155 22.7344 31.8903 22.881 31.9717 23.0511C32.053 23.2213 32.137 23.3894 32.1584 23.4248C32.3183 23.689 32.5717 24.0785 32.6086 24.1167C32.6332 24.1422 32.6534 24.1729 32.6534 24.1851C32.6534 24.2076 32.6979 24.2654 32.9588 24.5817C33.1382 24.7992 33.7566 25.434 33.9423 25.5913C34.0163 25.654 34.1139 25.7383 34.1592 25.7787C34.2045 25.8191 34.2663 25.8604 34.2966 25.8705C34.3268 25.8805 34.3516 25.9001 34.3516 25.914C34.3516 25.9279 34.4011 25.9668 34.4617 26.0006C34.5222 26.0344 34.5717 26.07 34.5717 26.0798C34.5717 26.0895 34.6248 26.1264 34.6897 26.1616C34.7545 26.1968 34.8147 26.2348 34.8233 26.2459C34.832 26.257 34.8886 26.2921 34.9491 26.324C35.0097 26.3558 35.0663 26.3915 35.0749 26.4032C35.1163 26.4593 36.0633 26.9124 36.27 26.975C36.3132 26.9881 36.3911 27.0182 36.443 27.0418C36.6567 27.139 37.2291 27.2827 37.9525 27.4209C38.0843 27.446 39.8743 27.4607 43.8925 27.4695C49.3959 27.4816 49.643 27.4796 49.6277 27.4241C49.6189 27.3922 49.2726 26.736 48.8583 25.9658C48.3938 25.1023 47.4953 24.561 46.5149 24.5538L45.4818 24.5463C43.8485 24.5344 42.8111 24.5145 42.7328 24.4937C42.2279 24.3591 42.0733 24.3099 41.8448 24.2112C41.5681 24.0917 41.2324 23.9062 41.0461 23.7698C40.9833 23.7238 40.8996 23.6642 40.8602 23.6373C40.6868 23.5192 40.2828 23.1183 40.0725 22.8557C39.7988 22.5139 39.6492 22.2482 39.3484 21.5694C39.3004 21.4609 39.1904 21.0632 39.137 20.8041C39.0634 20.4479 39.0637 18.1032 39.1373 17.7429C39.1964 17.4536 39.3149 17.0253 39.3487 16.9783C39.3618 16.96 39.3981 16.8736 39.4293 16.7863C39.4928 16.6086 39.7365 16.1448 39.8368 16.0107C39.8729 15.9626 39.9516 15.8527 40.0118 15.7665C40.1562 15.5595 40.6538 15.0491 40.8311 14.926C40.9084 14.8723 40.9787 14.8197 40.9874 14.8091C41.0689 14.7089 41.7806 14.3328 42.0566 14.2441C42.1518 14.2135 42.2579 14.176 42.2925 14.1606C42.3829 14.1205 42.6203 14.0723 43.0089 14.0151C43.2893 13.9738 43.7573 13.9652 45.7144 13.9652C48.3793 13.9652 48.1046 13.9936 48.2432 13.7039C48.2816 13.6237 48.3547 13.4849 48.4057 13.3953C48.4567 13.3058 48.558 13.1152 48.6307 12.972C48.7035 12.8287 48.7896 12.6725 48.8221 12.625C48.8545 12.5774 48.8811 12.5235 48.8811 12.5052C48.8811 12.4868 48.8988 12.4525 48.9204 12.4288C48.942 12.4051 48.9911 12.3198 49.0295 12.2392C49.0678 12.1586 49.1416 12.0194 49.1935 11.9298C49.2454 11.8403 49.3074 11.723 49.3315 11.6693C49.3556 11.6156 49.4409 11.4568 49.5213 11.3165C49.6016 11.1762 49.6673 11.0553 49.6673 11.0479C49.6673 11.0404 47.1588 11.0344 44.093 11.0345C38.6678 11.0347 38.5055 11.0365 38.0311 11.1009C37.4068 11.1858 36.5328 11.4045 36.2228 11.5533C36.1882 11.5699 36.0233 11.6425 35.8564 11.7147C35.6894 11.7869 35.5054 11.8733 35.4475 11.9066C35.3896 11.94 35.2502 12.0173 35.1378 12.0785C35.0254 12.1397 34.9192 12.2014 34.9019 12.2157C34.8847 12.2299 34.7785 12.302 34.6661 12.3759C34.5536 12.4497 34.4245 12.5407 34.3791 12.5782C34.3337 12.6156 34.2566 12.6756 34.2077 12.7114C33.6268 13.1371 32.824 14.0241 32.395 14.7142C32.1473 15.1128 32.1086 15.182 31.9259 15.5528C31.8354 15.7364 31.752 15.8866 31.7404 15.8866C31.7207 15.8866 31.2201 16.2768 31.0247 16.4445C30.9753 16.4869 30.8872 16.5583 30.8289 16.6031C30.7707 16.6478 30.5935 16.7944 30.4352 16.9287C30.2769 17.0631 30.1004 17.2096 30.043 17.2544C29.9856 17.2992 29.8084 17.4457 29.6493 17.58C29.4901 17.7144 29.3119 17.8633 29.2533 17.911C29.1947 17.9587 29.1114 18.0292 29.0681 18.0677C28.8897 18.2264 28.6965 18.3906 28.1089 18.8831C27.4522 19.4335 27.4154 19.4647 27.3163 19.5554C27.1535 19.7044 27.1034 19.7478 26.851 19.9587C26.589 20.1775 26.5114 20.2445 26.3629 20.3807C26.314 20.4255 26.2524 20.4803 26.226 20.5026C26.0557 20.6461 25.7086 20.9457 25.6559 20.9948C25.6213 21.027 25.4515 21.1751 25.2785 21.3239C25.1055 21.4727 24.9569 21.605 24.9483 21.6178C24.9397 21.6307 24.8477 21.7122 24.7439 21.799C24.6401 21.8858 24.5396 21.9722 24.5205 21.9911C24.4639 22.0469 24.1705 22.3083 23.7847 22.6464C23.5858 22.8207 23.4159 22.9731 23.4073 22.9851C23.3986 22.997 23.2784 23.108 23.14 23.2318C22.8827 23.4619 22.8388 23.5016 22.511 23.7996C22.4072 23.894 22.2316 24.0536 22.1207 24.1544C22.0099 24.255 21.874 24.3814 21.8187 24.4352C21.7634 24.4889 21.6136 24.6281 21.4859 24.7445C21.3582 24.861 21.2169 24.9929 21.1719 25.0376C21.1269 25.0824 20.9799 25.2209 20.8453 25.3454C20.7107 25.4699 20.5622 25.6091 20.5154 25.6548C20.4686 25.7005 20.3596 25.8038 20.2733 25.8844C19.9587 26.1779 19.3611 26.7538 19.0995 27.0154C18.8909 27.2241 18.8245 27.2738 18.8 27.2396C18.7827 27.2155 18.4501 26.6005 18.0609 25.873C17.6252 25.0585 16.7769 24.5497 15.8532 24.5489L14.8531 24.5479C12.9434 24.5462 12.2935 24.5355 12.1013 24.5027C11.8221 24.4552 11.3325 24.3273 11.2837 24.2891C11.2664 24.2756 11.1956 24.2459 11.1264 24.2232C11.0572 24.2005 10.8873 24.1208 10.7487 24.0462C10.1916 23.7461 9.66201 23.2952 9.30235 22.8147C9.28506 22.7916 9.22741 22.7144 9.17423 22.6432C9.08089 22.5183 8.78344 22.0253 8.78344 21.9956C8.78344 21.9875 8.74234 21.8884 8.69212 21.7752C8.64189 21.662 8.5828 21.5034 8.56081 21.4228C8.53883 21.3422 8.51084 21.2616 8.49867 21.2437C8.48647 21.2258 8.45254 21.0719 8.42329 20.9018C8.39404 20.7316 8.35699 20.5309 8.34092 20.4558C8.30092 20.2688 8.30384 18.321 8.34448 18.0821C8.42606 17.6027 8.47965 17.3332 8.49943 17.3032C8.51119 17.2853 8.53893 17.2047 8.56104 17.1241C8.7124 16.5721 9.19546 15.7689 9.64638 15.3197C10.3413 14.6274 11.1418 14.2046 12.0699 14.0397C12.3424 13.9913 12.7178 13.9815 14.881 13.9664L17.0315 13.9513C17.2439 13.9499 17.4375 13.8294 17.5328 13.6396C17.6182 13.4694 17.7276 13.2634 17.7761 13.1818C17.8245 13.1003 17.874 13.0014 17.886 12.962C17.8981 12.9227 17.9196 12.8905 17.9339 12.8905C17.9481 12.8905 17.9838 12.8283 18.0132 12.7522C18.0426 12.6762 18.076 12.6066 18.0874 12.5975C18.1138 12.5767 18.1638 12.4851 18.3363 12.1415C18.4583 11.8987 18.5325 11.7624 18.6821 11.5065C18.7122 11.4549 18.8333 11.2105 18.9039 11.0587C18.9153 11.0342 7.67323 11.0228 7.64867 11.0474Z" fill="#0F50A4"/>
<path fill-rule="evenodd" clip-rule="evenodd" d="M27.5765 0.516416C27.2393 0.554876 26.9893 0.605581 26.7431 0.685498C26.1852 0.866662 25.5097 1.24899 25.1707 1.57556C24.7372 1.99305 24.6991 2.03441 24.4471 2.35981C24.257 2.60536 23.9301 3.22639 23.8493 3.49575C23.8278 3.56739 23.7998 3.64067 23.7872 3.65858C23.7745 3.67649 23.7232 3.85967 23.6733 4.06565C23.5869 4.42199 23.5825 4.47491 23.5825 5.15661C23.5825 5.79614 23.5902 5.90452 23.6545 6.16616C23.8836 7.09917 24.2615 7.80654 24.8719 8.44542C24.9951 8.57441 25.32 8.86089 25.3862 8.89893C25.4147 8.91531 25.4451 8.93762 25.4537 8.94853C25.4624 8.9594 25.5048 8.99155 25.5481 9.01994C25.6203 9.06736 25.6496 9.06652 25.9097 9.00936C26.0654 8.97517 26.398 8.91938 26.6488 8.88542C26.8996 8.85142 27.1755 8.80836 27.262 8.78974C27.3485 8.77114 27.5679 8.72623 27.7495 8.68995C28.2529 8.58942 28.9994 8.39839 29.4006 8.26741C29.9453 8.08957 30.9059 7.73893 31.1028 7.64605C31.1765 7.61124 31.2468 7.58278 31.259 7.58278C31.318 7.58278 32.0786 7.20768 32.1112 7.16248C32.165 7.088 32.3599 6.50468 32.4333 6.19872C32.638 5.34527 32.5656 4.29833 32.2436 3.45579C32.1469 3.20282 31.8669 2.63721 31.7919 2.54345C31.7668 2.51196 31.705 2.43172 31.6548 2.36512C31.6045 2.29852 31.5536 2.2541 31.5417 2.26641C31.5298 2.27876 31.528 2.26729 31.5377 2.24098C31.5612 2.17735 30.8977 1.50163 30.7092 1.39719C30.6738 1.37756 30.6074 1.32558 30.5617 1.28172C30.516 1.23782 30.4483 1.19216 30.4113 1.18021C30.3743 1.16826 30.337 1.14764 30.3283 1.13439C30.2936 1.08121 29.7932 0.841261 29.5421 0.757371C29.3951 0.708262 29.2465 0.655993 29.2119 0.64124C28.9714 0.538625 28.0194 0.465971 27.5765 0.516416ZM41.7355 1.96466C41.6587 2.06434 41.3898 2.36808 41.0996 2.6828C41.0478 2.73908 40.9613 2.83511 40.9076 2.89621C40.8538 2.95727 40.7087 3.10776 40.5852 3.23063C40.4617 3.35347 40.3606 3.46702 40.3606 3.48301C40.3606 3.49897 40.3469 3.51203 40.3303 3.51203C40.3136 3.51203 40.1729 3.64027 40.0176 3.79698C39.8623 3.95372 39.6399 4.16986 39.5234 4.27733C39.407 4.3848 39.247 4.53288 39.1679 4.60641C38.9425 4.81591 38.4242 5.27841 38.3142 5.36829C38.2594 5.41307 38.1773 5.48168 38.1318 5.52073C37.9299 5.69405 37.6274 5.94367 37.5469 6.00333C37.4986 6.03915 37.3979 6.11975 37.3232 6.18244C37.0699 6.39506 36.2809 6.98991 36.0922 7.11057C35.982 7.18104 35.9304 7.23761 35.9485 7.26796C35.9589 7.28545 35.9522 7.29001 35.9336 7.27812C35.915 7.26623 35.7706 7.34824 35.6126 7.46033C35.4546 7.57245 35.2872 7.68621 35.2405 7.71311C35.1939 7.74 35.1111 7.79498 35.0566 7.83523C35.002 7.87548 34.943 7.90844 34.9255 7.90844C34.908 7.90844 34.889 7.91996 34.8832 7.93406C34.8774 7.94813 34.7595 8.02812 34.6211 8.11178C34.4827 8.19544 34.3554 8.2762 34.3381 8.29131C34.3208 8.30639 34.0236 8.48042 33.6776 8.67803C32.745 9.21078 32.4225 9.37485 31.1617 9.95794C31.0925 9.98996 30.9156 10.0639 30.7686 10.1222C30.6216 10.1806 30.4588 10.2465 30.4069 10.2686C30.2082 10.3535 29.3847 10.6441 29.0389 10.7514C28.4187 10.9439 28.1577 11.0138 27.3249 11.2104C27.0887 11.2662 26.5074 11.3635 25.9303 11.444C25.7341 11.4714 25.5147 11.5068 25.4429 11.5227C25.0456 11.6103 24.7495 11.6885 24.7185 11.7139C24.6991 11.7298 24.6266 11.7613 24.5574 11.784C24.4142 11.831 24.1724 11.9643 23.955 12.1163C23.8033 12.2223 23.3781 12.6508 23.3781 12.6976C23.3781 12.7119 23.3578 12.7445 23.333 12.7702C23.2713 12.8341 22.9952 13.3914 22.9262 13.5912C22.8953 13.6808 22.8574 13.7833 22.842 13.8192C22.8099 13.8939 22.7154 14.2592 22.6063 14.731C22.5648 14.9101 22.4946 15.2105 22.4503 15.3986C22.3194 15.9539 22.1764 16.5707 21.9784 17.434C21.9373 17.6131 21.8658 17.9208 21.8196 18.1179C21.7733 18.3149 21.7029 18.6153 21.663 18.7855C21.6231 18.9556 21.5525 19.256 21.5062 19.4531C21.415 19.8403 21.2835 20.4189 21.1804 20.886C21.1448 21.0472 21.1012 21.2304 21.0834 21.2931C21.0657 21.3557 20.9946 21.6562 20.9255 21.9607C20.8564 22.2651 20.7871 22.5582 20.7714 22.612C20.7037 22.8445 20.5714 23.4779 20.5872 23.4943C20.5968 23.5041 20.6307 23.4902 20.6626 23.4634C20.6945 23.4366 20.8834 23.2782 21.0823 23.1116C21.2812 22.9449 21.4652 22.7906 21.4911 22.7687C21.5353 22.7315 21.7673 22.5425 22.0434 22.3189C22.1098 22.2651 22.2513 22.1479 22.358 22.0583C22.4647 21.9688 22.6059 21.8516 22.6719 21.7978C22.7378 21.7441 22.8281 21.6679 22.8726 21.6284C22.9171 21.589 23.039 21.4865 23.1435 21.4005C23.2481 21.3145 23.3542 21.2259 23.3794 21.2036C23.4617 21.1307 23.9462 20.7252 24.0523 20.6402C24.1093 20.5946 24.1771 20.536 24.2029 20.51C24.2288 20.4839 24.2979 20.4231 24.3565 20.3747C24.5256 20.2353 25.2525 19.6124 25.5795 19.3267C25.7438 19.1831 25.8924 19.0542 25.9097 19.0403C26.0172 18.9538 26.7855 18.2855 26.9328 18.1504C27.0304 18.0609 27.1445 17.9596 27.1862 17.9255C27.2532 17.8706 27.37 17.7683 27.5765 17.5839C27.6111 17.553 27.7385 17.4422 27.8596 17.3377C27.9806 17.2331 28.1151 17.1132 28.1583 17.0712C28.2016 17.0291 28.2723 16.9642 28.3156 16.9268C28.5018 16.766 28.97 16.3457 29.1396 16.1872C29.2409 16.0926 29.3537 15.99 29.3904 15.9593C29.427 15.9285 29.5222 15.8431 29.6018 15.7694C29.6814 15.6958 29.8314 15.5581 29.9352 15.4635C30.6385 14.8223 30.8712 14.6064 30.9563 14.5165C31.0001 14.4702 31.1208 14.3584 31.2246 14.268C31.3284 14.1777 31.4866 14.0324 31.5761 13.9452C31.6656 13.858 31.826 13.706 31.9326 13.6075C32.0392 13.509 32.1949 13.3624 32.2784 13.2818C32.362 13.2012 32.5836 12.9888 32.771 12.8098C32.9583 12.6307 33.2389 12.3576 33.3946 12.2028C33.5503 12.0481 33.7822 11.8209 33.91 11.6979C34.5458 11.0863 35.7693 9.82354 36.9663 8.54347C37.0006 8.50687 37.1569 8.33599 37.4868 7.97461C37.7283 7.71008 38.3507 7.00111 38.4367 6.89261C38.499 6.81402 38.6005 6.69213 38.934 6.29557C39.07 6.13388 39.3227 5.81881 39.4957 5.5954C39.6686 5.37197 39.8177 5.18185 39.827 5.17289C39.8362 5.16394 39.8992 5.07601 39.967 4.9775C40.0347 4.87899 40.1227 4.76341 40.1625 4.72068C40.2023 4.67792 40.2348 4.63135 40.2348 4.61716C40.2348 4.60296 40.2525 4.57163 40.2741 4.54753C40.3436 4.47005 40.5001 4.25017 40.6286 4.04937C40.6974 3.9419 40.7615 3.84664 40.7711 3.83769C40.7962 3.81427 41.0746 3.36079 41.2457 3.06464C41.4297 2.74627 41.815 1.98143 41.7913 1.98143C41.7816 1.98143 41.7887 1.95212 41.8073 1.9163C41.8562 1.82146 41.8346 1.83609 41.7355 1.96466Z" fill="#ED1E26"/>
</svg>
