<svg width="66" height="46" viewBox="0 0 66 46" fill="none" xmlns="http://www.w3.org/2000/svg">
<path fill-rule="evenodd" clip-rule="evenodd" d="M9.71172 13.1886C9.70216 13.1974 9.44065 13.234 9.13062 13.2698C8.82059 13.3057 8.49176 13.3534 8.3999 13.3757C8.30804 13.3981 8.07317 13.4515 7.87796 13.4944C7.68276 13.5373 7.48547 13.589 7.43953 13.6092C7.3936 13.6294 7.30905 13.6581 7.25164 13.6731C6.98253 13.7431 6.34472 13.9971 5.84566 14.2329C5.32276 14.4801 5.12179 14.5899 4.7138 14.8517C4.61551 14.9147 4.51689 14.9663 4.49459 14.9663C4.47229 14.9663 4.45405 14.9812 4.45405 14.9995C4.45405 15.0177 4.36481 15.0885 4.25571 15.1569C4.1466 15.2253 4.001 15.3272 3.93211 15.3832C3.36094 15.8478 2.88347 16.2879 2.56738 16.6411C2.45978 16.7613 2.33297 16.9027 2.28554 16.9554C2.23806 17.0081 2.19927 17.063 2.19927 17.0774C2.19927 17.0919 2.16641 17.1385 2.1262 17.181C1.89788 17.4225 1.41703 18.1467 1.17502 18.6135C1.10679 18.745 1.04128 18.8616 1.02933 18.8726C0.919727 18.9735 0.404677 20.3547 0.273859 20.8985C-0.0976781 22.4432 -0.0909554 24.1243 0.29269 25.6289C0.417747 26.1192 0.569443 26.6118 0.611783 26.6652C0.629195 26.6871 0.667108 26.7768 0.696044 26.8645C0.724939 26.9522 0.772456 27.0688 0.801601 27.1236C0.830746 27.1784 0.942525 27.4026 1.05 27.6219C1.15744 27.8411 1.32847 28.1511 1.43002 28.3108C1.53161 28.4706 1.6147 28.617 1.6147 28.6364C1.6147 28.6557 1.62961 28.6775 1.64781 28.6848C1.66602 28.6921 1.72477 28.7667 1.77842 28.8505C1.86636 28.9881 2.21501 29.4259 2.52989 29.7942C2.76472 30.0689 3.46875 30.7225 3.84317 31.0134C4.32665 31.389 4.34143 31.3996 4.64194 31.5887C4.77974 31.6754 4.91126 31.7607 4.93423 31.7781C5.17119 31.9583 6.53416 32.5864 6.93847 32.7018C7.03033 32.728 7.14307 32.7657 7.189 32.7856C7.55662 32.9447 8.78146 33.1942 9.52729 33.2619C9.77189 33.2841 12.9111 33.3005 17.1058 33.3015L24.2668 33.3032L23.6023 33.9104C22.0039 35.3711 19.8065 37.5131 18.6482 38.7398C18.5463 38.8478 18.4253 38.9729 18.3794 39.0178C18.3334 39.0628 18.2301 39.1735 18.1497 39.264C18.0027 39.4295 17.4588 40.026 17.3128 40.1818C17.2013 40.3008 16.3932 41.2388 16.2828 41.3774C16.1182 41.584 15.5152 42.3284 15.457 42.3968C15.4258 42.4335 15.3802 42.4993 15.3556 42.5432C15.331 42.5871 15.2872 42.6468 15.2581 42.6759C15.0423 42.892 13.6819 45.0057 13.6819 45.1247C13.6819 45.1379 13.6344 45.239 13.5764 45.3493C13.5183 45.4597 13.4781 45.5569 13.487 45.5655C13.4959 45.574 13.6327 45.4417 13.7909 45.2715C14.4754 44.5354 16.4231 42.7191 17.2709 42.0265C17.4421 41.8866 17.6274 41.7324 17.6826 41.6838C17.7379 41.6352 17.9643 41.4559 18.1856 41.2854C18.407 41.1149 18.6097 40.9574 18.636 40.9353C18.6623 40.9133 18.7447 40.8504 18.8191 40.7956C18.8935 40.7408 19.0129 40.65 19.0844 40.5938C19.2362 40.4746 19.7589 40.0896 19.9062 39.9885C20.2651 39.7423 20.4726 39.5979 20.5089 39.5692C20.5318 39.5511 20.6728 39.4564 20.822 39.3588C20.9713 39.2612 21.1028 39.17 21.1143 39.1562C21.1258 39.1425 21.3231 39.0134 21.5528 38.8693C21.7824 38.7253 21.993 38.5886 22.0208 38.5655C22.0485 38.5424 22.0818 38.5236 22.0948 38.5236C22.1078 38.5236 22.2089 38.4653 22.3194 38.394C22.4299 38.3228 22.6568 38.1838 22.8235 38.0851C22.9903 37.9865 23.186 37.8692 23.2584 37.8246C23.4935 37.6796 25.0885 36.8416 25.603 36.5928C26.0543 36.3745 26.3914 36.222 27.0227 35.9503C27.6206 35.6931 27.7166 35.6537 27.7448 35.6537C27.7617 35.6537 27.841 35.6203 27.921 35.5795C28.0011 35.5387 28.1135 35.4919 28.1709 35.4755C28.2284 35.459 28.3317 35.421 28.4006 35.3912C28.5725 35.3167 29.5509 34.9864 29.8829 34.8909C30.0322 34.848 30.1919 34.797 30.2378 34.7777C30.3767 34.7192 31.9311 34.32 32.3665 34.231C32.974 34.1068 33.7694 33.9753 34.476 33.8822C35.1951 33.7876 35.8778 33.6576 36.0418 33.5842C36.0877 33.5636 36.226 33.5165 36.3492 33.4795C36.8046 33.3425 37.348 32.9937 37.7376 32.5882C38.0224 32.2918 38.0426 32.2668 38.1309 32.1024C38.171 32.0277 38.2164 31.9576 38.2317 31.9467C38.2747 31.916 38.508 31.4365 38.6277 31.1331C38.7533 30.8145 38.83 30.5602 38.9654 30.0135C39.0197 29.7942 39.1141 29.4176 39.1753 29.1764C39.2365 28.9353 39.331 28.5586 39.3852 28.3393C39.4396 28.1201 39.5321 27.7524 39.591 27.5222C39.6498 27.292 39.7444 26.9198 39.801 26.6951C39.8577 26.4704 39.9505 26.1027 40.0072 25.878C40.0639 25.6533 40.1585 25.2811 40.2173 25.0509C40.342 24.563 40.4943 23.9589 40.6341 23.3967C40.807 22.7019 40.8152 22.6996 40.8191 23.3453C40.8229 23.9547 40.8804 24.6506 40.9469 24.8914C40.9681 24.9682 41.0171 25.2014 41.0557 25.4096C41.0943 25.6179 41.1423 25.8054 41.1623 25.8262C41.1822 25.847 41.1985 25.8976 41.1985 25.9387C41.1985 26.0713 41.7117 27.4228 41.7847 27.4824C41.7981 27.4933 41.8974 27.6727 42.0055 27.881C42.1134 28.0892 42.225 28.295 42.2534 28.3383C42.4657 28.6617 42.8021 29.1385 42.8511 29.1852C42.8838 29.2164 42.9105 29.2541 42.9105 29.2689C42.9106 29.2965 42.9697 29.3672 43.3161 29.7544C43.5543 30.0206 44.3753 30.7975 44.6218 30.99C44.7201 31.0668 44.8497 31.17 44.9098 31.2195C44.9699 31.2689 45.052 31.3195 45.0922 31.3318C45.1324 31.3441 45.1653 31.3681 45.1653 31.3851C45.1653 31.402 45.231 31.4497 45.3114 31.4911C45.3918 31.5324 45.4576 31.576 45.4576 31.5879C45.4576 31.5999 45.528 31.645 45.6141 31.6881C45.7003 31.7312 45.7801 31.7777 45.7916 31.7913C45.8031 31.8049 45.8782 31.8479 45.9586 31.8869C46.039 31.9259 46.1142 31.9695 46.1256 31.9839C46.1806 32.0525 47.438 32.607 47.7123 32.6837C47.7697 32.6998 47.8731 32.7365 47.942 32.7654C48.2258 32.8844 48.9858 33.0604 49.9462 33.2294C50.1213 33.2602 52.4978 33.2782 57.8327 33.2889C65.1397 33.3037 65.4677 33.3013 65.4473 33.2334C65.4357 33.1943 64.976 32.3911 64.4258 31.4484L63.4257 29.7344L59.9429 29.711C57.7743 29.6965 56.397 29.6721 56.293 29.6466C55.6226 29.4819 55.4174 29.4217 55.114 29.3009C54.7467 29.1546 54.301 28.9275 54.0536 28.7606C53.9702 28.7043 53.8591 28.6313 53.8067 28.5984C53.5765 28.4539 53.0401 27.9632 52.7609 27.6418C52.3975 27.2235 52.1989 26.8982 51.7996 26.0673C51.7358 25.9345 51.5898 25.4477 51.5188 25.1306C51.4211 24.6946 51.4215 21.8248 51.5193 21.3838C51.5978 21.0297 51.755 20.5055 51.7999 20.4479C51.8174 20.4255 51.8655 20.3198 51.9069 20.213C51.9912 19.9954 52.3148 19.4277 52.448 19.2637C52.4959 19.2048 52.6004 19.0702 52.6803 18.9647C52.8721 18.7114 53.5328 18.0866 53.7681 17.936C53.8707 17.8703 53.9641 17.8059 53.9756 17.7928C54.0839 17.6702 55.0288 17.2099 55.3953 17.1014C55.5216 17.0639 55.6625 17.018 55.7084 16.9992C55.8284 16.9501 56.1436 16.8911 56.6596 16.8211C57.0319 16.7706 57.6533 16.76 60.2517 16.76C63.7898 16.76 63.4252 16.7947 63.6092 16.4402C63.6602 16.342 63.7573 16.1721 63.825 16.0624C63.8927 15.9528 64.0271 15.7196 64.1237 15.5443C64.2203 15.3689 64.3347 15.1778 64.3777 15.1196C64.4208 15.0614 64.4561 14.9954 64.4561 14.9729C64.4561 14.9505 64.4796 14.9084 64.5083 14.8794C64.537 14.8505 64.6022 14.7461 64.6531 14.6474C64.7041 14.5488 64.8021 14.3784 64.8709 14.2687C64.9398 14.1591 65.0222 14.0156 65.0541 13.9499C65.0861 13.8841 65.1994 13.6898 65.3061 13.5181C65.4127 13.3463 65.5 13.1984 65.5 13.1892C65.5 13.1801 62.1695 13.1727 58.0989 13.1728C50.8959 13.1731 50.6805 13.1753 50.0506 13.2542C49.2216 13.3581 48.0612 13.6257 47.6497 13.8079C47.6038 13.8282 47.3848 13.9171 47.1632 14.0055C46.9415 14.0938 46.6972 14.1995 46.6203 14.2403C46.5435 14.2812 46.3584 14.3758 46.2091 14.4507C46.0599 14.5256 45.9189 14.6011 45.896 14.6186C45.873 14.6361 45.7321 14.7243 45.5828 14.8147C45.4335 14.905 45.2621 15.0165 45.2018 15.0623C45.1415 15.1082 45.0392 15.1815 44.9742 15.2254C44.2029 15.7464 43.1371 16.832 42.5676 17.6768C42.2386 18.1647 42.1872 18.2494 41.9447 18.7032C41.8246 18.9279 41.7138 19.1117 41.6984 19.1117C41.6722 19.1117 41.0075 19.5893 40.7482 19.7946C40.6825 19.8465 40.5656 19.9339 40.4882 19.9887C40.4109 20.0435 40.1756 20.2228 39.9654 20.3873C39.7552 20.5517 39.5209 20.7311 39.4447 20.7859C39.3685 20.8407 39.1333 21.02 38.922 21.1845C38.7106 21.3489 38.4741 21.5312 38.3963 21.5896C38.3185 21.648 38.2078 21.7343 38.1504 21.7813C37.9135 21.9756 37.657 22.1766 36.8769 22.7793C36.0049 23.4531 35.956 23.4912 35.8245 23.6022C35.6083 23.7846 35.5419 23.8377 35.2067 24.0958C34.8588 24.3637 34.7559 24.4458 34.5586 24.6124C34.4938 24.6672 34.412 24.7344 34.3769 24.7616C34.1508 24.9372 33.69 25.3039 33.62 25.364C33.5741 25.4034 33.3486 25.5847 33.1189 25.7669C32.8893 25.949 32.692 26.1109 32.6805 26.1266C32.669 26.1423 32.5469 26.2421 32.4091 26.3484C32.2713 26.4546 32.1378 26.5604 32.1125 26.5835C32.0373 26.6519 31.6478 26.9717 31.1356 27.3856C30.8715 27.5989 30.646 27.7855 30.6345 27.8001C30.623 27.8147 30.4633 27.9506 30.2796 28.1021C29.938 28.3837 29.8796 28.4323 29.4445 28.7971C29.3067 28.9126 29.0735 29.108 28.9263 29.2313C28.7792 29.3545 28.5987 29.5092 28.5253 29.575C28.4519 29.6408 28.253 29.8112 28.0835 29.9537C27.9139 30.0962 27.7263 30.2576 27.6665 30.3124C27.6068 30.3672 27.4116 30.5367 27.2329 30.6891C27.0542 30.8415 26.8571 31.0119 26.7949 31.0678C26.7328 31.1237 26.5881 31.2501 26.4735 31.3488C26.0558 31.7081 25.2623 32.413 24.915 32.7332C24.638 32.9886 24.5499 33.0494 24.5174 33.0076C24.4944 32.9781 24.0528 32.2254 23.5361 31.3349L22.5966 29.7159L19.2771 29.713C16.7416 29.7108 15.8787 29.6978 15.6235 29.6577C15.2527 29.5995 14.6027 29.4429 14.5379 29.3962C14.5149 29.3797 14.421 29.3434 14.3291 29.3156C14.2373 29.2877 14.0116 29.1902 13.8276 29.0989C13.088 28.7316 12.3848 28.1797 11.9073 27.5916C11.8844 27.5633 11.8078 27.4689 11.7372 27.3817C11.6133 27.2288 11.2184 26.6253 11.2184 26.589C11.2184 26.5792 11.1638 26.4578 11.0971 26.3192C11.0304 26.1807 10.952 25.9866 10.9228 25.8879C10.8936 25.7893 10.8564 25.6906 10.8403 25.6687C10.8241 25.6468 10.779 25.4585 10.7402 25.2502C10.7014 25.0419 10.6522 24.7963 10.6308 24.7044C10.5777 24.4755 10.5816 22.0914 10.6356 21.799C10.7439 21.2122 10.815 20.8824 10.8413 20.8457C10.8569 20.8237 10.8937 20.7251 10.9231 20.6264C11.124 19.9507 11.7654 18.9677 12.3641 18.4179C13.2868 17.5705 14.3496 17.053 15.5818 16.8512C15.9435 16.7919 16.442 16.7799 19.3141 16.7614L22.6288 16.7401L22.8349 16.3614C22.9483 16.1531 23.0936 15.901 23.1579 15.8012C23.2222 15.7013 23.2879 15.5803 23.3039 15.5321C23.3199 15.484 23.3485 15.4446 23.3674 15.4446C23.3863 15.4446 23.4337 15.3684 23.4727 15.2753C23.5118 15.1822 23.5561 15.097 23.5712 15.086C23.6063 15.0604 23.6727 14.9484 23.9018 14.5278C24.0637 14.2306 24.1622 14.0638 24.3608 13.7506C24.4008 13.6874 24.5616 13.3883 24.6554 13.2025C24.6705 13.1725 9.74433 13.1586 9.71172 13.1886Z" fill="#0F50A4"/>
<path fill-rule="evenodd" clip-rule="evenodd" d="M36.1849 0.0203281C35.7351 0.0679546 35.4018 0.130743 35.0735 0.229706C34.3294 0.454047 33.4286 0.927488 32.9765 1.33189C32.3984 1.84888 32.3475 1.9001 32.0115 2.30305C31.758 2.60712 31.3221 3.37616 31.2143 3.7097C31.1856 3.79842 31.1483 3.88916 31.1314 3.91134C31.1145 3.93352 31.0462 4.16036 30.9796 4.41543C30.8644 4.85669 30.8585 4.92222 30.8585 5.76639C30.8585 6.55834 30.8688 6.69254 30.9545 7.01653C31.2601 8.17191 31.764 9.04786 32.578 9.83899C32.7424 9.99873 33.1756 10.3535 33.2639 10.4006C33.3019 10.4209 33.3424 10.4485 33.3539 10.462C33.3655 10.4755 33.4221 10.5153 33.4798 10.5504C33.5761 10.6092 33.6151 10.6081 33.9621 10.5373C34.1697 10.495 34.6132 10.4259 34.9477 10.3839C35.2821 10.3418 35.6502 10.2884 35.7655 10.2654C35.8808 10.2423 36.1734 10.1867 36.4156 10.1418C37.0869 10.0173 38.0824 9.78076 38.6175 9.61857C39.3439 9.39834 40.6249 8.96414 40.8875 8.84912C40.9859 8.80601 41.0796 8.77077 41.0958 8.77077C41.1745 8.77077 42.1888 8.30628 42.2323 8.2503C42.304 8.15807 42.564 7.43573 42.6619 7.05686C42.9349 6.00001 42.8384 4.70357 42.4089 3.66022C42.2799 3.34696 41.9065 2.64656 41.8066 2.53045C41.773 2.49146 41.6907 2.39209 41.6236 2.30962C41.5566 2.22715 41.4887 2.17215 41.4728 2.18739C41.457 2.20268 41.4546 2.18848 41.4675 2.1559C41.4988 2.0771 40.614 1.24035 40.3626 1.11102C40.3154 1.0867 40.2269 1.02234 40.1659 0.968017C40.105 0.913656 40.0147 0.857117 39.9654 0.842317C39.916 0.827517 39.8662 0.80199 39.8547 0.785576C39.8084 0.719722 39.1411 0.422591 38.8062 0.318709C38.6101 0.257895 38.4119 0.19317 38.3658 0.174901C38.0451 0.0478304 36.7755 -0.0421387 36.1849 0.0203281ZM55.0673 1.81372C54.9649 1.93716 54.6062 2.31329 54.2193 2.70301C54.1501 2.7727 54.0348 2.89162 53.9631 2.96728C53.8914 3.04289 53.698 3.22924 53.5332 3.3814C53.3685 3.53351 53.2337 3.67413 53.2337 3.69393C53.2337 3.7137 53.2155 3.72987 53.1933 3.72987C53.171 3.72987 52.9834 3.88867 52.7762 4.08273C52.5691 4.27682 52.2726 4.54448 52.1173 4.67756C51.962 4.81064 51.7486 4.994 51.643 5.08506C51.3425 5.34449 50.6514 5.91721 50.5047 6.02852C50.4316 6.08397 50.3221 6.16894 50.2614 6.21729C49.9922 6.43191 49.5887 6.74102 49.4813 6.8149C49.4169 6.85926 49.2826 6.95907 49.183 7.0367C48.8452 7.29999 47.7931 8.03661 47.5414 8.18602C47.3944 8.27329 47.3255 8.34334 47.3497 8.38092C47.3636 8.40258 47.3547 8.40822 47.3299 8.39351C47.3051 8.37879 47.1124 8.48033 46.9017 8.61914C46.691 8.75798 46.4678 8.89885 46.4056 8.93216C46.3434 8.96547 46.233 9.03354 46.1603 9.08338C46.0875 9.13323 46.0089 9.17404 45.9855 9.17404C45.9621 9.17404 45.9368 9.18831 45.929 9.20578C45.9214 9.2232 45.7641 9.32224 45.5796 9.42584C45.395 9.52944 45.2252 9.62945 45.2021 9.64817C45.179 9.66684 44.7827 9.88235 44.3213 10.1271C43.0776 10.7868 42.6475 10.9899 40.9661 11.712C40.8738 11.7516 40.6379 11.8432 40.4419 11.9154C40.2458 11.9877 40.0288 12.0693 39.9595 12.0967C39.6945 12.2018 38.5963 12.5616 38.1351 12.6946C37.3081 12.9329 36.96 13.0195 35.8494 13.2629C35.5344 13.332 34.7591 13.4526 33.9895 13.5522C33.7278 13.5862 33.4353 13.63 33.3395 13.6496C32.8097 13.7582 32.4148 13.855 32.3734 13.8864C32.3475 13.9061 32.2509 13.9451 32.1586 13.9732C31.9676 14.0314 31.6452 14.1966 31.3552 14.3847C31.153 14.5159 30.5859 15.0466 30.5859 15.1046C30.5859 15.1223 30.5588 15.1627 30.5258 15.1945C30.4435 15.2736 30.0752 15.9637 29.9833 16.2111C29.942 16.322 29.8915 16.4491 29.871 16.4934C29.8281 16.586 29.7022 17.0383 29.5566 17.6226C29.5013 17.8444 29.4077 18.2164 29.3486 18.4493C29.1741 19.137 28.9834 19.9008 28.7193 20.9697C28.6645 21.1915 28.5692 21.5726 28.5075 21.8166C28.4458 22.0606 28.3518 22.4326 28.2986 22.6433C28.2455 22.854 28.1514 23.2261 28.0895 23.47C27.9679 23.9496 27.7926 24.666 27.6551 25.2444C27.6076 25.444 27.5495 25.6709 27.5258 25.7485C27.5021 25.8261 27.4073 26.1982 27.3151 26.5752C27.223 26.9523 27.1305 27.3152 27.1096 27.3818C27.0193 27.6697 26.843 28.4541 26.864 28.4744C26.8767 28.4865 26.922 28.4694 26.9645 28.4361C27.0071 28.4029 27.2589 28.2068 27.5242 28.0004C27.7895 27.794 28.0348 27.603 28.0694 27.5759C28.1284 27.5297 28.4378 27.2958 28.806 27.0188C28.8945 26.9523 29.0833 26.8071 29.2255 26.6962C29.3678 26.5853 29.5561 26.4401 29.6441 26.3736C29.732 26.3071 29.8525 26.2127 29.9118 26.1638C29.9711 26.1151 30.1337 25.988 30.2731 25.8816C30.4125 25.7751 30.554 25.6654 30.5877 25.6378C30.6975 25.5475 31.3435 25.0453 31.4851 24.9401C31.5611 24.8836 31.6514 24.811 31.6859 24.7788C31.7204 24.7465 31.8125 24.6712 31.8907 24.6113C32.1162 24.4387 33.0856 23.6674 33.5217 23.3135C33.7408 23.1357 33.939 22.9761 33.9621 22.9589C34.1054 22.8518 35.13 22.0242 35.3264 21.8569C35.4567 21.746 35.6087 21.6207 35.6644 21.5784C35.7537 21.5104 35.9095 21.3838 36.1849 21.1554C36.231 21.1171 36.4009 20.9799 36.5624 20.8505C36.7238 20.721 36.9031 20.5726 36.9608 20.5205C37.0185 20.4684 37.1128 20.3879 37.1705 20.3417C37.4188 20.1426 38.0433 19.6221 38.2694 19.4259C38.4045 19.3086 38.555 19.1816 38.6039 19.1436C38.6527 19.1055 38.7796 18.9997 38.8857 18.9085C38.9919 18.8173 39.192 18.6468 39.3304 18.5296C40.2683 17.7357 40.5787 17.4683 40.6921 17.357C40.7505 17.2996 40.9116 17.1612 41.05 17.0493C41.1884 16.9374 41.3993 16.7575 41.5187 16.6495C41.638 16.5415 41.852 16.3533 41.9942 16.2313C42.1364 16.1093 42.3439 15.9278 42.4553 15.828C42.5668 15.7282 42.8624 15.4652 43.1122 15.2435C43.362 15.0218 43.7363 14.6836 43.9439 14.4919C44.1515 14.3003 44.4608 14.0189 44.6312 13.8667C45.4791 13.1092 47.1107 11.5456 48.7071 9.96042C48.7528 9.91509 48.9612 9.70349 49.4012 9.25598C49.7233 8.9284 50.5533 8.05048 50.668 7.91611C50.751 7.8188 50.8864 7.66786 51.3312 7.17679C51.5126 6.97657 51.8496 6.5864 52.0803 6.30976C52.3109 6.03307 52.5097 5.79764 52.522 5.78655C52.5344 5.77546 52.6184 5.66658 52.7088 5.54459C52.7991 5.4226 52.9165 5.27948 52.9695 5.22657C53.0226 5.17362 53.0659 5.11595 53.0659 5.09837C53.0659 5.08079 53.0895 5.04199 53.1183 5.01215C53.211 4.91621 53.4197 4.64392 53.5911 4.39527C53.6829 4.26219 53.7684 4.14423 53.7812 4.13314C53.8146 4.10414 54.1859 3.54259 54.4141 3.17585C54.6595 2.78161 55.1732 1.83449 55.1417 1.83449C55.1287 1.83449 55.1382 1.79819 55.1629 1.75383C55.2283 1.6364 55.1994 1.65451 55.0673 1.81372Z" fill="#ED1E26"/>
</svg>
