<svg width="100" height="85" viewBox="0 0 100 85" fill="none" xmlns="http://www.w3.org/2000/svg">
<path fill-rule="evenodd" clip-rule="evenodd" d="M40.9575 63.6997V67.1494L42.0983 67.1512C43.0226 67.1526 43.3345 67.1293 43.7413 67.0282C44.5378 66.8304 44.9702 66.5245 45.2675 65.9491C45.4568 65.5827 45.4729 64.7687 45.2981 64.4049C45.0641 63.9178 44.528 63.5789 43.8466 63.4871C43.5246 63.4438 43.5174 63.4388 43.7041 63.3897C44.0739 63.2926 44.5903 62.9704 44.8315 62.6863C45.0178 62.467 45.0867 62.3169 45.1348 62.0262C45.2556 61.2969 45.0208 60.7713 44.4438 60.4798C44.0527 60.2822 43.8197 60.2569 42.3599 60.2534L40.9575 60.25V63.6997ZM43.7393 60.823C43.9019 60.9226 44.0776 61.0778 44.1297 61.1679C44.273 61.4156 44.3169 61.871 44.2345 62.2546C44.1436 62.6777 43.7985 63.0433 43.3921 63.147C43.2452 63.1845 43.0417 63.2425 42.9401 63.2758C42.8384 63.3091 42.5398 63.3363 42.2765 63.3363H41.7979L41.8402 62.0251C41.8635 61.3039 41.9006 60.6849 41.9225 60.6494C41.9475 60.6091 42.2403 60.5956 42.703 60.6134C43.3791 60.6393 43.4694 60.6576 43.7393 60.823ZM57.3155 61.4597C57.0561 61.5418 56.8266 61.6329 56.8055 61.6619C56.7843 61.691 56.6464 61.7928 56.4988 61.8883C55.5693 62.4896 55.1431 64.0311 55.5568 65.296C55.8384 66.1569 56.3863 66.732 57.2162 67.0375C57.7336 67.228 59.1884 67.2477 59.7383 67.0717C60.3028 66.8911 60.7508 66.5727 61.188 66.0417C61.2353 65.9841 61.3489 65.76 61.4405 65.5435C61.5928 65.1836 61.6072 65.0736 61.6095 64.259L61.6119 63.3681L61.3775 62.8908C61.0113 62.1452 60.5215 61.7231 59.7114 61.4549C59.0658 61.2412 57.9983 61.2434 57.3155 61.4597ZM62.9689 62.2479C62.9981 63.1556 62.8821 66.8171 62.8172 67.0377C62.7914 67.1254 62.8348 67.1438 63.0678 67.1438H63.3495L63.3159 64.9219C63.2946 63.5061 63.3049 62.6999 63.3443 62.6999C63.3782 62.6999 63.6765 62.9902 64.007 63.3449C64.3376 63.6996 64.7372 64.1245 64.8949 64.2892C65.1531 64.5586 65.8849 65.3542 66.5914 66.1334C66.7356 66.2925 66.96 66.5371 67.0901 66.6771C67.2203 66.8171 67.3709 66.9961 67.425 67.0748C67.479 67.1536 67.5629 67.218 67.6112 67.218C67.6841 67.218 67.6983 66.8781 67.6945 65.2225C67.692 64.125 67.7106 62.8221 67.7357 62.3271L67.7815 61.4272L67.5335 61.4272H67.2855L67.306 63.5908C67.3256 65.6707 67.3046 65.9421 67.1452 65.6662C67.0986 65.5855 65.9547 64.3567 65.1818 63.557C64.7246 63.084 63.7532 62.0242 63.4236 61.6388C62.9626 61.0998 62.9333 61.1391 62.9689 62.2479ZM46.9498 64.2909V67.1544H48.4495H49.9493L49.9264 66.9145L49.9035 66.6746L49.4147 66.7191C49.1459 66.7435 48.6463 66.7656 48.3044 66.7681L47.6829 66.7726V65.522V64.2713L48.6893 64.3142L49.6956 64.3572L49.7062 64.093L49.7167 63.8289L49.4212 63.8694C49.2586 63.8916 48.801 63.9283 48.4043 63.9509L47.6829 63.992V62.9073C47.6829 62.0961 47.703 61.816 47.7626 61.7963C47.8064 61.7817 48.2853 61.7912 48.8269 61.8174C49.3684 61.8435 49.8345 61.8506 49.8628 61.8332C49.891 61.8158 49.9141 61.7174 49.9141 61.6144V61.4272H48.4319L46.9498 61.4273V64.2909ZM50.6153 61.4573C50.6153 61.4857 51.0414 62.2059 51.3504 62.6999C51.6898 63.2426 51.8903 63.5974 51.8903 63.6554C51.8903 63.6899 51.9132 63.7181 51.9413 63.7181C51.9694 63.7181 52.0565 63.8398 52.1349 63.9885C52.2133 64.1373 52.3499 64.3735 52.4385 64.5135C52.5991 64.7673 52.5995 64.7718 52.5707 65.9612L52.5417 67.1544H52.9352H53.3288L53.3053 65.9294C53.2797 64.5943 53.2841 64.571 53.6766 63.9726C53.7799 63.8151 53.8839 63.6433 53.9077 63.5908C53.9315 63.5383 54.0419 63.3522 54.153 63.1772C54.2641 63.0022 54.4522 62.7015 54.5709 62.509C54.6895 62.3165 54.8051 62.1447 54.8277 62.1272C54.8502 62.1097 54.9158 62.0095 54.9735 61.9045C55.0312 61.7995 55.1247 61.6491 55.1814 61.5704L55.2845 61.4272H54.9598H54.6352L54.4634 61.7931C54.3689 61.9944 54.0927 62.5149 53.8495 62.9498C53.6063 63.3847 53.3744 63.7999 53.3341 63.8725C53.2938 63.9451 53.2441 64.0188 53.2236 64.0363C53.2031 64.0538 53.1592 64.1175 53.1262 64.178C53.0782 64.266 52.9249 64.0314 52.3569 63.0007C51.9668 62.2928 51.6152 61.6491 51.5755 61.5704C51.511 61.4425 51.4558 61.4272 51.0593 61.4272C50.8151 61.4272 50.6153 61.4408 50.6153 61.4573ZM69.3254 64.2893V67.1513L70.6641 67.1343C71.4587 67.1242 72.1583 67.0836 72.3853 67.0344C73.5378 66.7846 74.3033 65.999 74.5512 64.8117C74.6766 64.211 74.6723 63.9976 74.521 63.3143C74.3397 62.4959 74.062 62.0823 73.4691 61.7479C72.9802 61.4722 72.6201 61.4272 70.9001 61.4272H69.3254V64.2893ZM59.5431 61.7914C60.2992 62.1336 60.7197 62.8019 60.8083 63.8024C60.9397 65.2867 60.5222 66.2702 59.5582 66.7469C59.222 66.9132 59.1304 66.9291 58.5201 66.9276C57.7513 66.9257 57.4742 66.8309 56.987 66.4027C56.4126 65.898 56.1913 65.1956 56.2394 64.03C56.2667 63.3689 56.2917 63.2411 56.4666 62.8679C56.6842 62.4038 57.1196 61.9356 57.4486 61.8118C57.5646 61.7683 57.7169 61.7083 57.787 61.6787C58.027 61.5771 58.17 61.5612 58.6495 61.5827C59.0122 61.5989 59.2306 61.65 59.5431 61.7914ZM72.222 61.8083C73.1439 61.9828 73.6266 62.5497 73.771 63.6274C73.844 64.172 73.7684 65.1641 73.641 65.332C73.6108 65.3718 73.5469 65.5047 73.4991 65.6271C73.3021 66.1317 72.8915 66.49 72.2569 66.7112C71.9447 66.82 71.7249 66.844 71.0479 66.8431C70.3366 66.8422 70.2091 66.8265 70.1395 66.7315C70.0775 66.6468 70.0588 66.0762 70.0595 64.2946C70.0601 63.015 70.0816 61.9352 70.1073 61.895C70.1331 61.8548 70.2259 61.8086 70.3135 61.7923C70.6205 61.7354 71.893 61.746 72.222 61.8083ZM43.7979 63.9343C44.3329 64.2057 44.4636 64.4373 44.4636 65.1134C44.4636 65.5676 44.4373 65.7103 44.3067 65.9656C43.9932 66.5782 43.314 66.8802 42.4178 66.8057L41.9009 66.7627L41.8595 65.9941C41.8367 65.5713 41.8181 64.8828 41.8181 64.4642V63.7031L42.6309 63.7288C43.3688 63.7523 43.4762 63.7712 43.7979 63.9343ZM40.9575 72.5004C40.9575 75.3364 40.9723 75.9317 41.0424 75.9049C41.089 75.887 41.2898 75.8724 41.4886 75.8724H41.8499L41.851 72.4679L41.8521 69.0634H41.4048H40.9575V72.5004ZM43.7624 71.2111C43.7874 72.2699 43.7161 74.4758 43.6257 75.4428L43.5855 75.8724H43.8673H44.1491L44.1248 73.6292L44.1005 71.3861L44.4414 71.7413C44.629 71.9367 45.0836 72.42 45.4517 72.8155C45.8199 73.211 46.2358 73.657 46.3761 73.8066C46.797 74.2559 47.5101 75.0459 47.968 75.5701C48.2049 75.8414 48.4245 76.0633 48.4559 76.0633C48.4888 76.0633 48.5061 75.2319 48.4965 74.1065C48.4873 73.0303 48.504 71.7059 48.5336 71.1634L48.5873 70.177H48.3236H48.0598L48.0677 72.1815C48.072 73.284 48.0732 74.2673 48.0705 74.3666C48.0655 74.5422 48.0542 74.5358 47.667 74.1401C47.4479 73.9162 46.953 73.3917 46.5673 72.9746C46.1816 72.5575 45.7944 72.1415 45.7067 72.0501C45.4956 71.8302 44.4492 70.6938 44.1431 70.352C43.7443 69.9068 43.7324 69.9336 43.7624 71.2111ZM60.837 70.1512C60.5293 70.2402 60.1356 70.4823 59.9822 70.6768C59.704 71.0299 59.5939 71.6917 59.7413 72.1243C59.9059 72.6076 60.4385 73.0484 61.1235 73.2686C61.5035 73.3906 61.9922 73.7091 62.1481 73.9363C62.2973 74.1536 62.3424 74.6246 62.2438 74.9358C62.1488 75.2361 61.888 75.4854 61.529 75.6195C61.2204 75.7348 61.1312 75.7435 60.8886 75.6825C60.4415 75.5702 60.1519 75.3931 59.9578 75.1136C59.7442 74.8058 59.6676 74.787 59.6676 75.0421C59.6676 75.1455 59.634 75.3035 59.5931 75.3932C59.5296 75.5322 59.5367 75.5704 59.6409 75.6517C59.8294 75.7989 60.1087 75.9062 60.5359 75.9956C60.8728 76.066 60.9905 76.0626 61.3965 75.9709C62.4295 75.7374 62.935 75.1521 62.9435 74.1794C62.947 73.7877 62.9238 73.6908 62.7713 73.4608C62.5787 73.1704 62.0768 72.8187 61.6756 72.6931C61.3478 72.5905 60.811 72.2944 60.6015 72.1006C60.3751 71.891 60.2683 71.461 60.361 71.1316C60.4003 70.9916 60.4543 70.8484 60.4809 70.8134C60.9682 70.1725 62.0208 70.2546 62.3154 70.9566C62.3632 71.0703 62.4259 71.1634 62.4548 71.1634C62.4837 71.1634 62.5451 71.0009 62.5914 70.8022C62.6731 70.4512 62.6713 70.4377 62.5262 70.3256C62.4441 70.2621 62.2765 70.1814 62.1538 70.1462C61.8825 70.0685 61.1131 70.0714 60.837 70.1512ZM69.176 70.6066C69.1351 70.8953 69.0455 71.5754 68.9769 72.1179C68.8093 73.4431 68.6124 74.8153 68.5339 75.2042C68.3841 75.9469 68.375 75.9072 68.6889 75.8822L68.9672 75.8601L69.0003 75.5322C69.0185 75.3518 69.0605 74.8892 69.0935 74.5042C69.21 73.1471 69.3755 71.7672 69.429 71.7083C69.4606 71.6735 69.5136 71.7357 69.5561 71.8577C69.5963 71.9727 69.7305 72.2572 69.8544 72.49C69.9783 72.7229 70.4134 73.5678 70.8212 74.3676C71.229 75.1674 71.59 75.823 71.6234 75.8243C71.6568 75.8257 71.7262 75.7297 71.7776 75.611C71.8743 75.388 72.8308 73.491 73.0736 73.0406C73.7717 71.7462 73.8815 71.5752 73.8824 71.7807C73.883 71.8927 73.911 72.1218 73.9448 72.2898C73.9785 72.4577 74.0501 73.1536 74.1037 73.836C74.1574 74.5185 74.2181 75.2559 74.2387 75.4746L74.2761 75.8724H74.6535H75.0309L75.0255 75.6656C75.0226 75.5518 74.9969 75.3012 74.9684 75.1087C74.8841 74.5383 74.7772 73.6719 74.674 72.7224C74.6208 72.2325 74.5374 71.4736 74.4887 71.0361C74.44 70.5986 74.3986 70.2049 74.3968 70.1611C74.389 69.9762 74.2091 70.1039 74.0833 70.3839C74.0086 70.5501 73.8667 70.8293 73.7679 71.0043C73.3791 71.6935 73.1504 72.1133 72.8147 72.7543C72.6222 73.1217 72.344 73.6372 72.1965 73.8997C72.049 74.1622 71.9092 74.4294 71.8859 74.4936C71.813 74.694 71.7109 74.5829 71.3677 73.9289C71.1848 73.5804 70.7923 72.837 70.4955 72.277C70.1988 71.717 69.8285 70.9948 69.6726 70.6721C69.5167 70.3494 69.3579 70.0845 69.3198 70.0834C69.281 70.0824 69.2176 70.3132 69.176 70.6066ZM80.5525 72.7065C80.5288 74.1503 80.4932 75.4501 80.4734 75.595L80.4375 75.8586L80.7265 75.8815L81.0156 75.9045L80.9776 73.7967C80.9567 72.6374 80.9595 71.637 80.9839 71.5734C81.0216 71.4754 81.0782 71.5116 81.3605 71.8139C81.5431 72.0096 82.0248 72.5232 82.4309 72.9552C82.8371 73.3872 83.3104 73.8956 83.4828 74.0851C83.6552 74.2746 83.8537 74.4918 83.9238 74.5678C84.443 75.1303 84.6638 75.3782 84.9338 75.7019C85.1038 75.9056 85.2528 76.0623 85.265 76.0501C85.2774 76.0379 85.3018 74.8832 85.3196 73.4843C85.3373 72.0853 85.371 70.7678 85.3944 70.5564L85.4371 70.1722L85.1807 70.1966L84.9242 70.2211L84.9596 72.3786C84.9791 73.5652 84.972 74.536 84.9439 74.536C84.8912 74.536 84.8502 74.4943 83.6688 73.2346C83.2831 72.8234 82.8385 72.3509 82.6807 72.1845C82.5229 72.0182 82.1356 71.5997 81.8201 71.2546C80.8287 70.1705 80.7413 70.0816 80.6674 70.0816C80.6157 70.0816 80.5833 70.8224 80.5525 72.7065ZM49.5316 70.2229C49.5316 70.2481 49.6033 70.4252 49.691 70.6165C49.7786 70.8078 49.8503 70.9858 49.8503 71.0119C49.8503 71.0381 49.9059 71.176 49.9739 71.3183C50.0418 71.4606 50.1535 71.7202 50.2222 71.8952C50.4545 72.4875 50.9407 73.6758 51.0333 73.8775C51.0839 73.9878 51.1253 74.0943 51.1253 74.1142C51.1253 74.1342 51.1936 74.3017 51.2772 74.4864C51.3607 74.6712 51.4502 74.894 51.476 74.9815C51.5019 75.069 51.5727 75.2551 51.6335 75.3951C51.6943 75.5351 51.7616 75.6997 51.7832 75.761C51.8129 75.845 51.8939 75.8724 52.113 75.8724C52.372 75.8724 52.4103 75.8534 52.4669 75.6974C52.5018 75.6011 52.5576 75.4651 52.5908 75.3951C52.624 75.3251 52.7683 74.9672 52.9114 74.5997C53.0545 74.2322 53.2131 73.8413 53.264 73.731C53.3149 73.6207 53.3565 73.5115 53.3565 73.4883C53.3565 73.4652 53.4267 73.2977 53.5125 73.1161C53.5984 72.9346 53.8307 72.3995 54.0289 71.927C54.2271 71.4545 54.4724 70.8901 54.5741 70.6729C54.6758 70.4556 54.759 70.2551 54.7589 70.2274C54.7589 70.1997 54.6262 70.1781 54.4641 70.1793L54.1695 70.1816L54.0519 70.5611C53.9873 70.7699 53.907 70.9979 53.8736 71.0679C53.84 71.1379 53.7639 71.3384 53.7043 71.5134C53.6447 71.6884 53.5564 71.9218 53.5081 72.0321C53.4598 72.1423 53.4202 72.2503 53.4202 72.2721C53.4202 72.3148 53.0061 73.405 52.9107 73.6133C52.8787 73.6833 52.7246 74.0553 52.5682 74.4399C52.2853 75.136 52.2836 75.1385 52.2046 74.949C52.1609 74.8444 52.0579 74.605 51.9758 74.417C51.8937 74.229 51.8265 74.0509 51.8265 74.0212C51.8265 73.9915 51.7584 73.8159 51.6751 73.6311C51.5918 73.4463 51.4876 73.1806 51.4437 73.0406C51.3997 72.9006 51.3386 72.7544 51.3079 72.7156C51.2773 72.6768 51.198 72.4907 51.1318 72.3019C50.9248 71.7124 50.7361 71.2004 50.6769 71.0679C50.6456 70.9979 50.5668 70.7716 50.5018 70.5651L50.3835 70.1895L49.9576 70.1833C49.7232 70.1798 49.5315 70.1977 49.5316 70.2229ZM55.7471 73.0406V75.9042L57.2133 75.8893L58.6795 75.8744L58.6994 75.6839L58.7192 75.4934L57.5997 75.5338L56.4802 75.5742V74.315V73.0556L57.4856 73.0846L58.491 73.1135L58.497 72.8862L58.503 72.6588L57.4916 72.6803L56.4802 72.7018V71.6051V70.5083L57.0698 70.5489C57.3942 70.5713 57.8962 70.6082 58.1854 70.631L58.7114 70.6725V70.4248V70.177H57.2292H55.7471V73.0406ZM63.5562 70.4253V70.6736L64.4127 70.6308L65.2692 70.5879L65.3148 70.8912C65.3398 71.0581 65.3444 72.2543 65.3248 73.5494L65.2893 75.9042H65.6818H66.0743L66.0551 73.2428L66.0359 70.5814L66.923 70.6264L67.8099 70.6713V70.4241V70.177H65.6831H63.5562V70.4253ZM76.274 73.0406V75.9042L77.7561 75.886L79.2383 75.8679V75.6827V75.4974L78.1263 75.5356L77.0142 75.5737L76.9947 74.7083C76.984 74.2322 76.9851 73.6661 76.9972 73.45L77.0192 73.0573L78.0012 73.0836L78.9833 73.11V72.8795C78.9833 72.6657 78.9706 72.6505 78.808 72.6689C78.7115 72.6799 78.2688 72.697 77.824 72.7071L77.0154 72.7253L76.9953 72.1687C76.9843 71.8627 76.9846 71.3641 76.9961 71.0611L77.017 70.5099L77.5698 70.5489C77.8739 70.5703 78.3672 70.6064 78.666 70.6291L79.2093 70.6705V70.4237V70.177H77.7417H76.274V73.0406ZM86.4099 70.4316V70.6861L86.9518 70.6439C87.2498 70.6207 87.6443 70.5993 87.8284 70.5962L88.163 70.5907V73.2259V75.861L88.5296 75.8826L88.8961 75.9042L88.8734 73.2474L88.8507 70.5907L89.1603 70.597C89.3306 70.6005 89.7424 70.622 90.0755 70.6448L90.6811 70.6861V70.4316V70.177H88.5455H86.41L86.4099 70.4316ZM44.0174 77.8219C43.4573 77.9101 42.7743 78.1773 42.3565 78.4718C41.6877 78.9433 41.4014 79.3295 41.1254 80.1325C40.9816 80.5512 40.9605 80.7157 40.9622 81.4086C40.9643 82.3132 41.0711 82.73 41.4673 83.3811C41.9514 84.1765 42.6213 84.6218 43.6701 84.8456C45.247 85.1819 46.8303 84.7665 47.6427 83.8031C48.1054 83.2544 48.2528 82.9079 48.415 81.9866C48.6385 80.7182 48.151 79.299 47.2564 78.6134C46.5837 78.0979 45.8452 77.8502 44.878 77.8156C44.5098 77.8025 44.1226 77.8053 44.0174 77.8219ZM45.6398 78.317C46.0796 78.4655 46.4428 78.6885 46.6822 78.9571C46.9632 79.2722 47.2367 79.7667 47.3377 80.1421C47.4718 80.6409 47.4938 81.9784 47.3761 82.4904C47.2082 83.2214 46.7327 83.9162 46.1783 84.2407C45.854 84.4305 45.0624 84.6543 44.7199 84.653C44.3476 84.6516 43.5143 84.4275 43.202 84.2448C42.3833 83.7659 41.9311 82.7591 41.9282 81.4086C41.9262 80.5486 42.0405 80.0397 42.3669 79.4535C42.971 78.3686 44.3621 77.8855 45.6398 78.317ZM60.8006 79.0592C60.3312 79.1697 59.7468 79.485 59.4208 79.8037C59.241 79.9795 59.0938 80.1527 59.0938 80.1886C59.0938 80.2247 59.0514 80.2964 58.9995 80.3482C58.9475 80.4001 58.8328 80.6635 58.7445 80.9337C58.2772 82.3627 58.8432 83.9819 60.0091 84.5513C60.3937 84.7391 61.3466 84.9694 61.7394 84.9694C62.1388 84.9694 63.1029 84.7345 63.4575 84.5508C63.8689 84.3377 64.419 83.7524 64.5557 83.3822C64.6141 83.2242 64.6878 83.0607 64.7195 83.019C64.8086 82.9015 64.873 82.036 64.8286 81.5529C64.7611 80.817 64.5488 80.365 64.0215 79.8343C63.769 79.5802 63.532 79.3723 63.4948 79.3723C63.4577 79.3723 63.3057 79.316 63.1571 79.2473C63.0085 79.1786 62.7578 79.0934 62.6 79.058C62.2547 78.9805 61.1317 78.9812 60.8006 79.0592ZM82.3349 80.4063C82.3472 81.7949 82.2945 83.3092 82.1997 84.2881L82.152 84.7812H82.437H82.7219L82.6946 82.5381L82.6672 80.295L82.913 80.5534C83.0482 80.6956 83.5461 81.2239 84.0194 81.7275C84.4927 82.2312 84.9661 82.733 85.0712 82.8425C85.1764 82.9522 85.4633 83.2678 85.7087 83.5439C85.9542 83.8199 86.2592 84.1612 86.3866 84.3022C86.514 84.4431 86.6997 84.6516 86.7992 84.7653C86.8988 84.8791 87.0026 84.9721 87.03 84.9721C87.0573 84.9721 87.0725 84.0916 87.0636 83.0154C87.0547 81.9392 87.0717 80.6137 87.1013 80.07L87.1552 79.0814L86.8895 79.1067L86.6238 79.132L86.6697 81.2885C86.695 82.4745 86.6941 83.4449 86.6678 83.4449C86.6132 83.4449 86.2204 83.0441 85.1669 81.9135C84.7637 81.4809 84.2307 80.911 83.9824 80.6473C83.7342 80.3835 83.4014 80.0245 83.2429 79.8495C83.0843 79.6745 82.8439 79.4097 82.7087 79.2609C82.5735 79.1121 82.4312 78.9905 82.3926 78.9905C82.3432 78.9905 82.3261 79.4105 82.3349 80.4063ZM49.691 81.9336V84.7812H49.9885C50.1523 84.7812 50.326 84.7965 50.3746 84.8152C50.4489 84.8435 50.4587 84.6388 50.4355 83.5425L50.408 82.2358H50.9548C51.8844 82.2358 52.4888 82.046 52.8909 81.6276C53.2359 81.2685 53.3222 81.0463 53.3214 80.5177C53.3203 79.8616 53.1392 79.5438 52.615 79.2782L52.2409 79.0887L50.9659 79.0873L49.691 79.0859V81.9336ZM54.3446 81.9495V84.8131L54.7271 84.8141L55.1096 84.8152L55.0889 83.5255L55.0683 82.2358L55.6308 82.2343C56.5039 82.2319 57.0673 82.0619 57.5214 81.6638C58.066 81.1866 58.1533 80.0557 57.6835 79.565C57.2961 79.1603 57.0431 79.1025 55.6196 79.0938L54.3446 79.0859V81.9495ZM66.0105 81.9495V84.8131H66.3955H66.7805L66.7543 83.4608L66.728 82.1086H66.917C67.1047 82.1086 67.3666 82.3652 67.8911 83.0631C67.9787 83.1797 68.1014 83.3348 68.1637 83.4077C68.226 83.4807 68.391 83.6979 68.5304 83.8904C68.6698 84.0829 68.8061 84.269 68.8333 84.304C68.8604 84.339 68.9468 84.4585 69.0252 84.5696C69.1622 84.7636 69.1879 84.7725 69.6727 84.7923C70.1163 84.8105 70.1676 84.8015 70.0961 84.7176C69.8048 84.3759 69.3006 83.7563 69.1661 83.575C69.0784 83.4568 68.9566 83.3005 68.8955 83.2275C68.152 82.3408 67.9363 82.032 68.0227 81.9774C68.073 81.9456 68.1744 81.9192 68.2481 81.9186C68.5511 81.9165 69.421 81.3204 69.421 81.115C69.421 81.0723 69.4569 81.0255 69.5007 81.0109C69.5565 80.9923 69.5804 80.8143 69.5804 80.417C69.5804 79.8827 69.5693 79.8357 69.3903 79.6123C69.269 79.461 69.0732 79.3236 68.8497 79.2331C68.5297 79.1034 68.3916 79.0909 67.2549 79.0885L66.0105 79.0859V81.9495ZM70.3773 79.3606C70.3773 79.5917 70.395 79.6304 70.4888 79.6044C70.5502 79.5874 70.9518 79.5543 71.3813 79.5309L72.1622 79.4884V82.1507V84.8131H72.5288H72.8953V82.1722V79.5314L73.6603 79.5489C74.081 79.5586 74.4834 79.579 74.5544 79.5943C74.6682 79.6188 74.6833 79.5903 74.6819 79.354L74.6803 79.0859H72.5288H70.3773L70.3773 79.3606ZM75.6835 81.0904C75.6814 82.1929 75.7063 83.2238 75.7389 83.3813C75.9353 84.3317 76.5537 84.8003 77.8072 84.9486C78.2191 84.9973 79.0494 84.8293 79.394 84.6275C79.7203 84.4364 80.0378 84.0901 80.1709 83.7802C80.2275 83.6483 80.3035 83.4834 80.3399 83.4138C80.3761 83.3442 80.4281 82.7285 80.4554 82.0456C80.4826 81.3628 80.521 80.4246 80.5405 79.9609L80.576 79.1177H80.3215H80.067L80.0659 80.9154C80.065 82.4634 80.0483 82.7767 79.9456 83.1713C79.6864 84.1674 79.2278 84.5378 78.2502 84.5407C77.3233 84.5434 76.8906 84.3112 76.57 83.6392L76.4015 83.2858V81.1859V79.0859H76.0444H75.6872L75.6835 81.0904ZM88.7049 81.9495V84.8131H89.0874H89.4699V81.9495V79.0859H89.0874H88.7049V81.9495ZM90.458 79.3606C90.458 79.5919 90.4756 79.6304 90.5695 79.6039C90.6309 79.5865 91.0347 79.5526 91.467 79.5286L92.2528 79.4849L92.2319 82.149L92.211 84.8131H92.5935H92.976L92.9568 82.1563L92.9377 79.4995L93.2437 79.5055C93.4121 79.5088 93.8151 79.5303 94.1394 79.5533L94.7291 79.595V79.3405V79.0859H92.5935H90.458V79.3606ZM95.1944 79.2291C95.2302 79.3078 95.2836 79.3723 95.3131 79.3723C95.3425 79.3723 95.3666 79.3997 95.3666 79.4331C95.3666 79.4666 95.6403 79.9463 95.9749 80.499C96.3095 81.0518 96.6088 81.547 96.6401 81.5995C96.6714 81.652 96.8032 81.8736 96.9329 82.0919L97.1687 82.4889L97.1387 83.63L97.1088 84.771L97.4967 84.7945C97.7101 84.8075 97.8917 84.8147 97.9003 84.8105C97.909 84.8063 97.8868 84.2926 97.851 83.6688L97.7861 82.5347L97.9762 82.1466C98.0809 81.9332 98.2391 81.644 98.3279 81.504C98.4167 81.3641 98.5087 81.2066 98.5324 81.1541C98.556 81.1016 98.7807 80.7436 99.0316 80.3586C99.2826 79.9736 99.5422 79.5655 99.6085 79.4518C99.6747 79.3381 99.7484 79.245 99.7722 79.245C99.7959 79.245 99.829 79.2092 99.8457 79.1655C99.8675 79.1082 99.7841 79.0859 99.5476 79.0859H99.2191L98.8486 79.8177C98.6448 80.2202 98.4111 80.6641 98.329 80.8041C98.247 80.9441 98.1169 81.1731 98.0399 81.3131C97.8248 81.704 97.6571 81.9225 97.5995 81.8869C97.5528 81.8581 96.4395 79.87 96.1557 79.3086L96.0431 79.0859H95.5862C95.1354 79.0859 95.1301 79.0879 95.1944 79.2291ZM62.1152 79.3109C63.204 79.468 63.858 80.2028 63.9972 81.4252C64.0981 82.3125 63.9698 83.1258 63.6474 83.6406C63.2267 84.3124 62.5836 84.6513 61.7263 84.653C60.7688 84.655 60.064 84.2099 59.6532 83.3441C59.4461 82.9075 59.4445 82.8964 59.445 81.9495C59.4456 81.0088 59.4485 80.9888 59.6485 80.5689C59.9832 79.8663 60.5717 79.4129 61.2838 79.3088C61.4643 79.2825 61.6262 79.2579 61.6438 79.2542C61.6613 79.2506 61.8735 79.2761 62.1152 79.3109ZM51.7775 79.4129C51.9104 79.4348 52.1147 79.5398 52.2406 79.6509C52.5252 79.902 52.6197 80.3218 52.5195 80.8895C52.4496 81.2859 52.3687 81.4078 51.9784 81.7049C51.7634 81.8687 51.6899 81.8853 51.0841 81.9077L50.4241 81.9321V80.6522V79.3723L50.9819 79.373C51.2887 79.3734 51.6467 79.3914 51.7775 79.4129ZM56.845 79.6045C57.3856 80.039 57.3898 81.0457 56.8533 81.5496C56.5443 81.8399 56.2828 81.9168 55.6036 81.9173L55.0777 81.9177V80.6371V79.3566L55.841 79.3837C56.5777 79.41 56.6126 79.4177 56.845 79.6045ZM68.4334 79.591C68.7655 79.8439 68.9105 80.1117 68.9108 80.4725C68.9111 80.8085 68.7544 81.1644 68.5048 81.3945C68.2617 81.6186 67.6311 81.7994 67.1697 81.7774L66.7755 81.7586L66.758 80.6472C66.7483 80.0359 66.7561 79.4953 66.7751 79.4459C66.8029 79.3736 66.9454 79.3616 67.5047 79.3846C68.1452 79.411 68.2182 79.4272 68.4334 79.591Z" fill="white"/>
<path fill-rule="evenodd" clip-rule="evenodd" d="M14.8271 20.6127C14.8125 20.6267 14.4132 20.6851 13.9399 20.7423C13.4665 20.7996 12.9645 20.8757 12.8243 20.9114C12.684 20.9471 12.3254 21.0323 12.0274 21.1009C11.7294 21.1694 11.4282 21.2519 11.3581 21.2841C11.2879 21.3163 11.1589 21.3622 11.0712 21.3861C10.6603 21.4979 9.68659 21.9034 8.92467 22.2799C8.12635 22.6744 7.81953 22.8498 7.19665 23.2677C7.04658 23.3683 6.89601 23.4506 6.86197 23.4506C6.82793 23.4506 6.80007 23.4744 6.80007 23.5036C6.80007 23.5327 6.66384 23.6458 6.49727 23.755C6.33069 23.8642 6.1084 24.0268 6.00322 24.1163C5.1312 24.8579 4.40224 25.5605 3.91967 26.1244C3.75539 26.3163 3.56179 26.5421 3.48937 26.6262C3.41689 26.7103 3.35766 26.798 3.35766 26.821C3.35766 26.8441 3.30749 26.9185 3.2461 26.9863C2.89753 27.372 2.1634 28.528 1.79392 29.2732C1.68975 29.4832 1.58973 29.6694 1.5715 29.6869C1.40416 29.848 0.617828 32.0529 0.418105 32.9211C-0.149127 35.3871 -0.138863 38.071 0.446856 40.473C0.637782 41.2558 0.869379 42.0423 0.93402 42.1275C0.960603 42.1625 1.01849 42.3057 1.06266 42.4457C1.10678 42.5856 1.17932 42.7718 1.22382 42.8593C1.26831 42.9468 1.43897 43.3047 1.60306 43.6547C1.76708 44.0047 2.02819 44.4997 2.18323 44.7546C2.33833 45.0096 2.46519 45.2435 2.46519 45.2743C2.46519 45.3052 2.48795 45.34 2.51574 45.3517C2.54353 45.3633 2.63323 45.4824 2.71515 45.6163C2.8494 45.8358 3.3817 46.5348 3.86242 47.1228C4.22094 47.5613 5.2958 48.6047 5.86743 49.0691C6.60557 49.6687 6.62814 49.6857 7.08694 49.9877C7.29731 50.1261 7.49811 50.2622 7.53317 50.29C7.89495 50.5776 9.97582 51.5804 10.5931 51.7646C10.7333 51.8064 10.9055 51.8666 10.9756 51.8984C11.5368 52.1524 13.4068 52.5507 14.5455 52.6589C14.9189 52.6943 19.7116 52.7205 26.1158 52.722L37.0486 52.7247L36.0341 53.6941C33.5937 56.026 30.239 59.4456 28.4706 61.404C28.3149 61.5764 28.1302 61.7761 28.0601 61.8479C27.99 61.9196 27.8322 62.0965 27.7095 62.2409C27.485 62.5051 26.6546 63.4573 26.4318 63.7061C26.2615 63.8961 25.0279 65.3936 24.8593 65.6148C24.608 65.9447 23.6874 67.133 23.5984 67.2423C23.5509 67.3008 23.4813 67.4059 23.4437 67.476C23.4062 67.546 23.3392 67.6414 23.2948 67.6878C22.9653 68.0328 20.8884 71.4072 20.8884 71.5973C20.8884 71.6184 20.8159 71.7797 20.7273 71.9559C20.6386 72.1321 20.5772 72.2873 20.5908 72.3009C20.6044 72.3145 20.8132 72.1033 21.0548 71.8316C22.0998 70.6564 25.0735 67.7568 26.3678 66.651C26.6291 66.4278 26.912 66.1816 26.9964 66.104C27.0808 66.0264 27.4264 65.7402 27.7643 65.468C28.1023 65.1958 28.4117 64.9443 28.4518 64.9091C28.492 64.8739 28.6178 64.7735 28.7314 64.686C28.845 64.5985 29.0274 64.4536 29.1366 64.3639C29.3682 64.1736 30.1662 63.5589 30.3912 63.3975C30.939 63.0044 31.2559 62.7739 31.3113 62.7282C31.3463 62.6993 31.5615 62.5481 31.7894 62.3922C32.0173 62.2364 32.2181 62.0909 32.2356 62.0689C32.2531 62.0469 32.5544 61.8408 32.905 61.6108C33.2556 61.3808 33.5771 61.1626 33.6195 61.1258C33.6618 61.0889 33.7127 61.0588 33.7326 61.0588C33.7524 61.0588 33.9067 60.9657 34.0754 60.852C34.2441 60.7383 34.5905 60.5164 34.8451 60.3589C35.0997 60.2014 35.3985 60.0142 35.509 59.9429C35.8679 59.7114 38.303 58.3736 39.0886 57.9764C39.7775 57.6279 40.2922 57.3844 41.256 56.9508C42.1688 56.5401 42.3154 56.4771 42.3585 56.4771C42.3843 56.4771 42.5053 56.4239 42.6275 56.3588C42.7497 56.2937 42.9214 56.2189 43.0091 56.1926C43.0967 56.1663 43.2545 56.1058 43.3597 56.0581C43.6221 55.9392 45.1159 55.412 45.6228 55.2595C45.8507 55.1909 46.0945 55.1096 46.1646 55.0787C46.3766 54.9854 48.7498 54.348 49.4144 54.2059C50.342 54.0076 51.5564 53.7977 52.6351 53.6491C53.7329 53.498 54.7753 53.2905 55.0256 53.1733C55.0957 53.1404 55.3069 53.0652 55.4949 53.0061C56.1902 52.7875 57.0198 52.2307 57.6146 51.5833C58.0494 51.11 58.0804 51.0701 58.2151 50.8077C58.2763 50.6885 58.3456 50.5766 58.369 50.5591C58.4346 50.5101 58.7909 49.7446 58.9736 49.2602C59.1654 48.7516 59.2825 48.3456 59.4891 47.4728C59.572 47.1228 59.7162 46.5215 59.8096 46.1365C59.903 45.7515 60.0473 45.1501 60.1301 44.8001C60.2131 44.4501 60.3544 43.8631 60.4442 43.4956C60.534 43.1281 60.6784 42.534 60.7649 42.1752C60.8515 41.8164 60.9932 41.2295 61.0797 40.8707C61.1662 40.5119 61.3106 39.9178 61.4004 39.5503C61.5909 38.7713 61.8233 37.807 62.0368 36.9094C62.3008 35.8001 62.3132 35.7965 62.3193 36.8274C62.325 37.8002 62.4128 38.9112 62.5144 39.2957C62.5467 39.4182 62.6215 39.7905 62.6804 40.123C62.7394 40.4555 62.8127 40.7547 62.8431 40.788C62.8736 40.8212 62.8985 40.9021 62.8985 40.9677C62.8985 41.1793 63.682 43.337 63.7934 43.432C63.8139 43.4495 63.9655 43.7358 64.1305 44.0683C64.2953 44.4008 64.4656 44.7294 64.509 44.7985C64.8331 45.3148 65.3468 46.0759 65.4216 46.1505C65.4714 46.2003 65.5123 46.2604 65.5123 46.2842C65.5123 46.3282 65.6025 46.4411 66.1315 47.0592C66.4951 47.4841 67.7486 48.7245 68.1249 49.0319C68.2749 49.1544 68.4728 49.3192 68.5646 49.3981C68.6564 49.4771 68.7817 49.5578 68.843 49.5774C68.9044 49.5971 68.9546 49.6354 68.9546 49.6625C68.9546 49.6896 69.055 49.7658 69.1777 49.8317C69.3004 49.8977 69.4008 49.9673 69.4008 49.9864C69.4008 50.0055 69.5084 50.0774 69.6399 50.1463C69.7714 50.2151 69.8933 50.2893 69.9108 50.311C69.9284 50.3327 70.0431 50.4014 70.1658 50.4636C70.2885 50.5259 70.4033 50.5956 70.4208 50.6185C70.5048 50.728 72.4244 51.6133 72.8432 51.7358C72.9309 51.7613 73.0887 51.8201 73.1939 51.8662C73.6272 52.0562 74.7874 52.3371 76.2538 52.6069C76.521 52.6561 80.1492 52.6848 88.2942 52.7019C99.4499 52.7255 99.9507 52.7217 99.9196 52.6133C99.9018 52.5509 99.2 51.2686 98.3601 49.7637L96.8331 47.0274L91.5158 46.99C88.205 46.9667 86.1023 46.9279 85.9435 46.8871C84.92 46.6242 84.6067 46.5281 84.1436 46.3353C83.5827 46.1017 82.9022 45.7391 82.5246 45.4726C82.3973 45.3827 82.2276 45.2663 82.1477 45.2138C81.7962 44.983 80.9773 44.1996 80.5511 43.6865C79.9963 43.0187 79.693 42.4994 79.0833 41.173C78.9859 40.9609 78.7631 40.1838 78.6547 39.6775C78.5056 38.9815 78.5061 34.3999 78.6554 33.6959C78.7753 33.1307 79.0153 32.2938 79.0838 32.2018C79.1105 32.1661 79.184 31.9973 79.2472 31.8268C79.3759 31.4794 79.8699 30.5731 80.0733 30.3112C80.1464 30.2172 80.3059 30.0024 80.4279 29.834C80.7207 29.4296 81.7294 28.4321 82.0887 28.1916C82.2454 28.0867 82.388 27.9839 82.4055 27.9631C82.5708 27.7673 84.0134 27.0325 84.5729 26.8592C84.7658 26.7994 84.9809 26.7261 85.051 26.696C85.2342 26.6177 85.7155 26.5234 86.5032 26.4117C87.0716 26.3311 88.0203 26.3142 91.9874 26.3142C97.3891 26.3142 96.8324 26.3696 97.1133 25.8036C97.1911 25.6469 97.3393 25.3756 97.4427 25.2006C97.5461 25.0256 97.7513 24.6533 97.8988 24.3734C98.0463 24.0934 98.2209 23.7883 98.2866 23.6954C98.3524 23.6025 98.4063 23.4971 98.4063 23.4613C98.4063 23.4254 98.4421 23.3582 98.486 23.312C98.5298 23.2658 98.6293 23.0991 98.7071 22.9416C98.7848 22.7841 98.9344 22.512 99.0396 22.337C99.1447 22.162 99.2705 21.933 99.3193 21.828C99.3681 21.723 99.5411 21.4127 99.7039 21.1386C99.8668 20.8645 100 20.6282 100 20.6136C100 20.599 94.9152 20.5873 88.7006 20.5875C77.7037 20.5878 77.3748 20.5913 76.4132 20.7173C75.1476 20.8832 73.3759 21.3105 72.7476 21.6013C72.6775 21.6337 72.3433 21.7757 72.0048 21.9167C71.6664 22.0577 71.2935 22.2265 71.1761 22.2917C71.0587 22.3569 70.7762 22.508 70.5483 22.6276C70.3204 22.7471 70.1053 22.8677 70.0702 22.8956C70.0351 22.9234 69.82 23.0643 69.5921 23.2086C69.3642 23.3528 69.1024 23.5308 69.0104 23.6039C68.9184 23.6771 68.7621 23.7943 68.663 23.8643C67.4853 24.6961 65.8582 26.4292 64.9886 27.7778C64.4864 28.5567 64.408 28.6919 64.0377 29.4164C63.8543 29.7752 63.6852 30.0687 63.6617 30.0687C63.6216 30.0687 62.6069 30.8311 62.2109 31.1588C62.1107 31.2417 61.9322 31.3811 61.8141 31.4686C61.696 31.5561 61.3368 31.8425 61.0159 32.105C60.695 32.3675 60.3373 32.6538 60.221 32.7413C60.1046 32.8288 59.7455 33.1152 59.4228 33.3777C59.1002 33.6402 58.7391 33.9312 58.6203 34.0245C58.5015 34.1177 58.3326 34.2554 58.2449 34.3306C57.8833 34.6406 57.4917 34.9616 56.3006 35.9238C54.9693 36.9994 54.8947 37.0604 54.6939 37.2375C54.3639 37.5287 54.2624 37.6135 53.7507 38.0256C53.2196 38.4533 53.0624 38.5842 52.7613 38.8503C52.6623 38.9378 52.5374 39.0449 52.4838 39.0884C52.1386 39.3688 51.4351 39.9542 51.3282 40.0502C51.2581 40.1131 50.9139 40.4025 50.5632 40.6933C50.2126 40.9841 49.9114 41.2426 49.8939 41.2676C49.8764 41.2927 49.6899 41.452 49.4795 41.6216C49.2691 41.7912 49.0654 41.9601 49.0267 41.997C48.912 42.1062 48.3172 42.6168 47.5352 43.2775C47.132 43.6181 46.7878 43.9159 46.7702 43.9393C46.7527 43.9626 46.5089 44.1796 46.2284 44.4214C45.7069 44.871 45.6178 44.9486 44.9534 45.531C44.743 45.7153 44.3871 46.0273 44.1623 46.2241C43.9376 46.4209 43.6621 46.6678 43.55 46.7728C43.438 46.8778 43.1344 47.1499 42.8755 47.3774C42.6166 47.6048 42.3302 47.8626 42.2389 47.9501C42.1477 48.0376 41.8498 48.3082 41.577 48.5514C41.3041 48.7947 41.0032 49.0667 40.9083 49.1559C40.8135 49.2452 40.5926 49.4471 40.4175 49.6046C39.7798 50.1782 38.5684 51.3035 38.0382 51.8147C37.6153 52.2224 37.4807 52.3195 37.4311 52.2528C37.396 52.2057 36.7219 51.004 35.933 49.5824L34.4987 46.9977L29.4307 46.9931C25.5596 46.9897 24.2423 46.9688 23.8527 46.9049C23.2866 46.8119 22.2943 46.562 22.1953 46.4874C22.1602 46.461 22.0168 46.403 21.8765 46.3586C21.7363 46.3142 21.3918 46.1586 21.1109 46.0127C19.9816 45.4264 18.9082 44.5453 18.1791 43.6064C18.1441 43.5612 18.0272 43.4105 17.9194 43.2713C17.7302 43.0271 17.1273 42.0638 17.1273 42.0057C17.1273 41.9901 17.044 41.7963 16.9422 41.5751C16.8404 41.3539 16.7206 41.0441 16.676 40.8866C16.6314 40.7291 16.5747 40.5716 16.55 40.5366C16.5253 40.5016 16.4565 40.2009 16.3972 39.8684C16.338 39.5359 16.2629 39.1438 16.2303 38.9971C16.1492 38.6316 16.1551 34.8256 16.2375 34.3587C16.4028 33.422 16.5115 32.8955 16.5516 32.8368C16.5754 32.8018 16.6316 32.6443 16.6765 32.4868C16.9833 31.4081 17.9625 29.8388 18.8765 28.961C20.2851 27.6082 21.9078 26.7819 23.789 26.4597C24.3413 26.3652 25.1023 26.346 29.4872 26.3165L34.5478 26.2824L34.8625 25.6779C35.0356 25.3454 35.2574 24.9429 35.3556 24.7835C35.4538 24.6241 35.554 24.4308 35.5784 24.3539C35.6029 24.2771 35.6465 24.2143 35.6754 24.2143C35.7043 24.2143 35.7767 24.0927 35.8363 23.944C35.8959 23.7954 35.9635 23.6594 35.9866 23.6417C36.0402 23.601 36.1415 23.422 36.4913 22.7507C36.7385 22.2761 36.8889 22.0098 37.192 21.5098C37.2532 21.4089 37.4986 20.9315 37.6418 20.6348C37.6649 20.5869 14.8768 20.5647 14.8271 20.6127Z" fill="white"/>
<path fill-rule="evenodd" clip-rule="evenodd" d="M55.2169 0.0320771C54.5332 0.10723 54.0266 0.206308 53.5275 0.362468C52.3966 0.716469 51.0273 1.46354 50.3401 2.10167C49.4615 2.91747 49.3841 2.99829 48.8734 3.63413C48.488 4.11393 47.8255 5.32745 47.6616 5.85377C47.618 5.99377 47.5613 6.13695 47.5357 6.17195C47.51 6.20695 47.4062 6.56489 47.3049 6.96738C47.1298 7.66368 47.1208 7.76708 47.1208 9.09915C47.1208 10.3488 47.1365 10.5606 47.2668 11.0718C47.7313 12.895 48.4972 14.2772 49.7345 15.5256C49.9843 15.7776 50.6429 16.3374 50.777 16.4117C50.8347 16.4438 50.8963 16.4873 50.9138 16.5087C50.9314 16.5299 51.0174 16.5927 51.1051 16.6482C51.2516 16.7409 51.3109 16.7392 51.8382 16.6275C52.1538 16.5607 52.8279 16.4517 53.3363 16.3853C53.8447 16.3189 54.4041 16.2348 54.5794 16.1984C54.7547 16.162 55.1993 16.0743 55.5675 16.0034C56.5878 15.807 58.101 15.4337 58.9143 15.1777C60.0184 14.8302 61.9656 14.1451 62.3647 13.9636C62.5142 13.8956 62.6567 13.8399 62.6813 13.8399C62.8009 13.8399 64.3427 13.107 64.4088 13.0187C64.5177 12.8731 64.9129 11.7333 65.0617 11.1355C65.4767 9.46779 65.3299 7.42206 64.6771 5.77569C64.4811 5.28138 63.9135 4.17617 63.7616 3.99296C63.7106 3.93143 63.5855 3.77463 63.4835 3.6445C63.3816 3.51437 63.2785 3.42757 63.2544 3.45162C63.2303 3.47574 63.2266 3.45334 63.2463 3.40192C63.2938 3.27758 61.9489 1.95722 61.5669 1.75314C61.4951 1.71477 61.3606 1.61321 61.2679 1.5275C61.1752 1.44172 61.038 1.3525 60.9631 1.32915C60.888 1.30579 60.8124 1.26551 60.7948 1.23961C60.7245 1.1357 59.7102 0.666834 59.2011 0.50291C58.9031 0.406949 58.6019 0.304815 58.5318 0.275988C58.0443 0.0754746 56.1146 -0.0664933 55.2169 0.0320771ZM83.9175 2.86198C83.7619 3.05677 83.2167 3.65029 82.6286 4.26526C82.5234 4.37522 82.3482 4.56288 82.2392 4.68226C82.1303 4.80157 81.8362 5.09563 81.5858 5.33572C81.3354 5.57575 81.1305 5.79765 81.1305 5.82889C81.1305 5.86007 81.1029 5.88559 81.0691 5.88559C81.0353 5.88559 80.7501 6.13619 80.4352 6.4424C80.1204 6.74867 79.6697 7.17102 79.4336 7.38101C79.1975 7.59101 78.8732 7.88035 78.7128 8.02404C78.2559 8.4334 77.2055 9.33714 76.9825 9.51278C76.8714 9.60028 76.705 9.73435 76.6127 9.81065C76.2035 10.1493 75.5902 10.6371 75.427 10.7537C75.3291 10.8237 75.125 10.9812 74.9736 11.1036C74.4602 11.5191 72.861 12.6815 72.4784 12.9172C72.255 13.0549 72.1503 13.1655 72.187 13.2248C72.2082 13.259 72.1946 13.2679 72.1569 13.2446C72.1193 13.2214 71.8264 13.3816 71.5061 13.6007C71.1859 13.8198 70.8465 14.0421 70.752 14.0946C70.6575 14.1472 70.4897 14.2546 70.3791 14.3332C70.2685 14.4119 70.149 14.4763 70.1135 14.4763C70.078 14.4763 70.0394 14.4988 70.0277 14.5264C70.016 14.5539 69.777 14.7102 69.4965 14.8736C69.216 15.0371 68.9578 15.1949 68.9227 15.2245C68.8877 15.2539 68.2852 15.594 67.584 15.9801C65.6936 17.0211 65.0398 17.3417 62.4842 18.4811C62.3439 18.5436 61.9853 18.6881 61.6873 18.8021C61.3893 18.9162 61.0594 19.0449 60.9542 19.0882C60.5513 19.2539 58.8821 19.8218 58.1812 20.0316C56.924 20.4077 56.395 20.5443 54.7069 20.9284C54.2281 21.0374 53.0497 21.2276 51.88 21.3849C51.4822 21.4385 51.0375 21.5076 50.8919 21.5386C50.0866 21.7099 49.4865 21.8626 49.4235 21.9123C49.3841 21.9433 49.2373 22.0049 49.097 22.0492C48.8067 22.141 48.3166 22.4016 47.8759 22.6986C47.5685 22.9056 46.7065 23.743 46.7065 23.8345C46.7065 23.8624 46.6653 23.9262 46.6152 23.9763C46.4901 24.1011 45.9303 25.1902 45.7905 25.5806C45.7279 25.7556 45.651 25.956 45.6198 26.026C45.5547 26.1721 45.3633 26.8858 45.142 27.8078C45.058 28.1578 44.9157 28.7448 44.8259 29.1123C44.5606 30.1974 44.2707 31.4027 43.8693 33.0895C43.786 33.4395 43.6411 34.0408 43.5474 34.4258C43.4536 34.8108 43.3108 35.3978 43.23 35.7303C43.1491 36.0628 43.0061 36.6499 42.9121 37.0348C42.7273 37.7915 42.4607 38.9221 42.2517 39.8348C42.1796 40.1498 42.0912 40.5077 42.0552 40.6302C42.0192 40.7527 41.8751 41.3397 41.7351 41.9347C41.595 42.5297 41.4544 43.1024 41.4227 43.2074C41.2854 43.6617 41.0174 44.8995 41.0494 44.9315C41.0687 44.9507 41.1374 44.9236 41.2021 44.8712C41.2668 44.8187 41.6496 44.5093 42.0528 44.1837C42.4561 43.858 42.829 43.5565 42.8816 43.5138C42.9712 43.4409 43.4415 43.0717 44.0011 42.6347C44.1356 42.5297 44.4226 42.3006 44.6388 42.1256C44.855 41.9506 45.1413 41.7216 45.275 41.6166C45.4087 41.5116 45.5918 41.3627 45.682 41.2856C45.7721 41.2086 46.0192 41.0081 46.2311 40.8401C46.4429 40.6722 46.6581 40.4991 46.7092 40.4555C46.8761 40.3131 47.858 39.5205 48.0732 39.3546C48.1887 39.2654 48.3261 39.1509 48.3785 39.1001C48.4309 39.0491 48.5709 38.9303 48.6897 38.8358C49.0326 38.5633 50.5059 37.3462 51.1688 36.7878C51.5019 36.5073 51.8031 36.2555 51.8382 36.2283C52.056 36.0593 53.6134 34.7534 53.912 34.4895C54.1099 34.3145 54.3411 34.1166 54.4257 34.0499C54.5614 33.9426 54.7983 33.7428 55.2169 33.3825C55.287 33.3221 55.5452 33.1056 55.7906 32.9013C56.036 32.6971 56.3085 32.4627 56.3962 32.3806C56.4839 32.2984 56.6273 32.1714 56.7149 32.0984C57.0924 31.7842 58.0415 30.963 58.3853 30.6533C58.5905 30.4683 58.8193 30.2679 58.8936 30.2078C58.9679 30.1478 59.1607 29.9809 59.3221 29.8369C59.4835 29.693 59.7876 29.4239 59.998 29.2391C61.4235 27.9862 61.8953 27.5644 62.0677 27.3887C62.1565 27.2981 62.4013 27.0797 62.6117 26.9032C62.822 26.7266 63.1426 26.4428 63.324 26.2723C63.5055 26.1019 63.8307 25.8049 64.0468 25.6124C64.2629 25.4199 64.5784 25.1335 64.7477 24.976C64.9171 24.8185 65.3664 24.4035 65.7462 24.0537C66.1258 23.7038 66.6947 23.1702 67.0103 22.8677C67.3258 22.5653 67.796 22.1213 68.055 21.8811C69.3438 20.6858 71.8238 18.2185 74.2502 15.7172C74.3197 15.6456 74.6365 15.3118 75.3052 14.6056C75.7948 14.0887 77.0564 12.7034 77.2307 12.4913C77.3569 12.3378 77.5628 12.0996 78.2388 11.3247C78.5145 11.0088 79.0268 10.3931 79.3774 9.95657C79.7279 9.51997 80.0301 9.14847 80.0488 9.13097C80.0676 9.11347 80.1953 8.94166 80.3326 8.74916C80.47 8.55666 80.6484 8.33082 80.729 8.24734C80.8096 8.16378 80.8755 8.07278 80.8755 8.04504C80.8755 8.01729 80.9114 7.95608 80.9552 7.90899C81.096 7.7576 81.4132 7.32794 81.6738 6.93557C81.8133 6.72557 81.9432 6.53944 81.9627 6.52194C82.0134 6.47619 82.5778 5.59007 82.9247 5.01138C83.2977 4.38928 84.0786 2.89475 84.0306 2.89475C84.0109 2.89475 84.0254 2.83748 84.0629 2.76748C84.1623 2.58218 84.1184 2.61075 83.9175 2.86198Z" fill="#ED1E26"/>
</svg>
