<svg width="40" height="40" viewBox="0 0 40 40" fill="none" xmlns="http://www.w3.org/2000/svg">
<rect width="40" height="40" rx="10" fill="white"/>
<path fill-rule="evenodd" clip-rule="evenodd" d="M8.64515 15.0047C8.64044 15.0092 8.51155 15.0281 8.35874 15.0466C8.20593 15.0651 8.04386 15.0896 7.99859 15.1012C7.95331 15.1127 7.83755 15.1402 7.74134 15.1623C7.64512 15.1845 7.54788 15.2111 7.52524 15.2215C7.50261 15.2319 7.46093 15.2467 7.43263 15.2544C7.29999 15.2905 6.98563 15.4214 6.73966 15.543C6.48193 15.6703 6.38288 15.7269 6.18179 15.8619C6.13335 15.8943 6.08474 15.9209 6.07375 15.9209C6.06276 15.9209 6.05376 15.9286 6.05376 15.938C6.05376 15.9474 6.00978 15.9839 5.95601 16.0192C5.90223 16.0544 5.83047 16.1069 5.79651 16.1358C5.515 16.3752 5.27966 16.6021 5.12387 16.7841C5.07084 16.8461 5.00833 16.9189 4.98496 16.9461C4.96156 16.9733 4.94244 17.0016 4.94244 17.009C4.94244 17.0164 4.92624 17.0405 4.90642 17.0624C4.79389 17.1869 4.55689 17.5601 4.43761 17.8007C4.40398 17.8684 4.37169 17.9285 4.3658 17.9342C4.31178 17.9862 4.05792 18.698 3.99345 18.9783C3.81032 19.7744 3.81364 20.6409 4.00273 21.4163C4.06437 21.669 4.13913 21.9229 4.16 21.9505C4.16858 21.9618 4.18727 22.008 4.20153 22.0532C4.21577 22.0984 4.23919 22.1585 4.25356 22.1867C4.26792 22.215 4.32302 22.3305 4.37599 22.4435C4.42894 22.5565 4.51324 22.7163 4.56329 22.7986C4.61336 22.8809 4.65432 22.9564 4.65432 22.9664C4.65432 22.9763 4.66166 22.9876 4.67064 22.9913C4.67961 22.9951 4.70856 23.0335 4.73501 23.0768C4.77835 23.1476 4.9502 23.3733 5.10539 23.5631C5.22113 23.7047 5.56814 24.0415 5.75268 24.1914C5.99097 24.385 5.99826 24.3905 6.14638 24.488C6.21429 24.5327 6.27912 24.5766 6.29044 24.5856C6.40723 24.6784 7.07901 25.0022 7.27828 25.0616C7.32356 25.0751 7.37913 25.0946 7.40176 25.1048C7.58295 25.1868 8.18665 25.3154 8.55425 25.3503C8.67481 25.3618 10.2221 25.3702 12.2895 25.3707L15.819 25.3716L15.4915 25.6845C14.7037 26.4374 13.6206 27.5414 13.0498 28.1736C12.9995 28.2292 12.9399 28.2937 12.9172 28.3169C12.8946 28.34 12.8437 28.3971 12.804 28.4438C12.7316 28.5291 12.4635 28.8365 12.3916 28.9168C12.3366 28.9781 11.9383 29.4616 11.8839 29.533C11.8028 29.6395 11.5056 30.0231 11.4769 30.0584C11.4615 30.0773 11.439 30.1112 11.4269 30.1338C11.4148 30.1564 11.3932 30.1872 11.3788 30.2022C11.2725 30.3136 10.602 31.403 10.602 31.4643C10.602 31.4711 10.5786 31.5232 10.5499 31.5801C10.5213 31.637 10.5015 31.6871 10.5059 31.6915C10.5103 31.6959 10.5777 31.6277 10.6557 31.54C10.993 31.1606 11.9531 30.2245 12.3709 29.8675C12.4553 29.7954 12.5466 29.716 12.5738 29.6909C12.6011 29.6659 12.7127 29.5735 12.8217 29.4856C12.9309 29.3977 13.0307 29.3165 13.0437 29.3051C13.0567 29.2938 13.0973 29.2614 13.134 29.2331C13.1706 29.2049 13.2295 29.1581 13.2648 29.1291C13.3395 29.0677 13.5972 28.8693 13.6698 28.8172C13.8467 28.6903 13.9489 28.6158 13.9668 28.6011C13.9781 28.5917 14.0476 28.5429 14.1212 28.4926C14.1948 28.4423 14.2596 28.3953 14.2652 28.3882C14.2709 28.3811 14.3681 28.3146 14.4813 28.2403C14.5945 28.1661 14.6983 28.0956 14.712 28.0838C14.7257 28.0719 14.7421 28.0622 14.7485 28.0622C14.7549 28.0622 14.8047 28.0321 14.8592 27.9954C14.9137 27.9587 15.0255 27.887 15.1077 27.8362C15.1899 27.7853 15.2863 27.7249 15.322 27.7019C15.4379 27.6271 16.224 27.1953 16.4776 27.067C16.7 26.9545 16.8662 26.8759 17.1773 26.7359C17.472 26.6034 17.5193 26.583 17.5332 26.583C17.5416 26.583 17.5807 26.5658 17.6201 26.5448C17.6596 26.5238 17.715 26.4997 17.7433 26.4912C17.7716 26.4827 17.8225 26.4631 17.8565 26.4477C17.9412 26.4093 18.4234 26.2391 18.5871 26.1899C18.6606 26.1678 18.7394 26.1415 18.762 26.1316C18.8304 26.1014 19.5966 25.8957 19.8112 25.8498C20.1106 25.7858 20.5026 25.718 20.8509 25.67C21.2053 25.6213 21.5418 25.5543 21.6226 25.5164C21.6453 25.5058 21.7135 25.4815 21.7742 25.4625C21.9986 25.3919 22.2664 25.2121 22.4585 25.0031C22.5988 24.8503 22.6088 24.8375 22.6523 24.7527C22.6721 24.7142 22.6945 24.6781 22.702 24.6725C22.7232 24.6567 22.8382 24.4095 22.8972 24.2531C22.9591 24.089 22.9969 23.9579 23.0636 23.6761C23.0904 23.5631 23.1369 23.369 23.1671 23.2447C23.1972 23.1204 23.2438 22.9263 23.2706 22.8133C23.2973 22.7003 23.343 22.5108 23.372 22.3921C23.4009 22.2735 23.4476 22.0817 23.4755 21.9659C23.5034 21.85 23.5492 21.6605 23.5771 21.5447C23.605 21.4289 23.6517 21.2371 23.6807 21.1184C23.7421 20.867 23.8172 20.5556 23.8861 20.2659C23.9713 19.9078 23.9753 19.9066 23.9773 20.2394C23.9791 20.5535 24.0075 20.9121 24.0403 21.0363C24.0507 21.0758 24.0748 21.196 24.0939 21.3033C24.1129 21.4107 24.1366 21.5073 24.1464 21.518C24.1562 21.5288 24.1643 21.5548 24.1643 21.576C24.1643 21.6444 24.4172 22.3409 24.4532 22.3716C24.4598 22.3772 24.5088 22.4697 24.562 22.577C24.6152 22.6844 24.6702 22.7904 24.6842 22.8127C24.7888 22.9794 24.9547 23.2251 24.9788 23.2492C24.9949 23.2653 25.0081 23.2847 25.0081 23.2924C25.0081 23.3066 25.0372 23.343 25.208 23.5426C25.3254 23.6798 25.73 24.0802 25.8515 24.1794C25.9 24.219 25.9639 24.2722 25.9935 24.2977C26.0231 24.3232 26.0636 24.3492 26.0834 24.3555C26.1032 24.3619 26.1194 24.3743 26.1194 24.383C26.1194 24.3918 26.1518 24.4164 26.1914 24.4377C26.231 24.459 26.2635 24.4814 26.2635 24.4876C26.2635 24.4937 26.2982 24.517 26.3406 24.5392C26.3831 24.5614 26.4224 24.5854 26.4281 24.5924C26.4338 24.5994 26.4708 24.6216 26.5104 24.6417C26.55 24.6617 26.5871 24.6842 26.5927 24.6916C26.6198 24.727 27.2396 25.0128 27.3748 25.0523C27.4031 25.0606 27.454 25.0796 27.488 25.0944C27.6279 25.1558 28.0024 25.2465 28.4758 25.3336C28.5621 25.3495 29.7334 25.3587 32.3629 25.3643C35.9643 25.3719 36.126 25.3706 36.116 25.3356C36.1102 25.3155 35.8836 24.9015 35.6125 24.4157L35.1195 23.5323L33.4029 23.5202C32.3341 23.5127 31.6553 23.5002 31.604 23.487C31.2736 23.4021 31.1724 23.3711 31.0229 23.3089C30.8419 23.2335 30.6222 23.1164 30.5003 23.0304C30.4592 23.0014 30.4044 22.9638 30.3786 22.9468C30.2651 22.8723 30.0007 22.6194 29.8631 22.4538C29.684 22.2382 29.5861 22.0705 29.3893 21.6423C29.3578 21.5738 29.2859 21.323 29.2509 21.1595C29.2028 20.9348 29.203 19.4557 29.2512 19.2284C29.2899 19.046 29.3673 18.7758 29.3895 18.7461C29.3981 18.7346 29.4218 18.6801 29.4422 18.625C29.4838 18.5129 29.6432 18.2203 29.7089 18.1358C29.7325 18.1054 29.784 18.0361 29.8234 17.9817C29.9179 17.8511 30.2436 17.5291 30.3595 17.4515C30.4101 17.4176 30.4561 17.3844 30.4618 17.3777C30.5152 17.3145 30.9809 17.0773 31.1615 17.0213C31.2238 17.002 31.2932 16.9783 31.3159 16.9686C31.375 16.9434 31.5304 16.9129 31.7847 16.8769C31.9682 16.8508 32.2745 16.8454 33.5552 16.8454C35.299 16.8454 35.1193 16.8633 35.21 16.6805C35.2351 16.63 35.283 16.5424 35.3163 16.4859C35.3497 16.4294 35.416 16.3092 35.4636 16.2188C35.5112 16.1284 35.5676 16.0299 35.5888 15.9999C35.61 15.9699 35.6274 15.9359 35.6274 15.9244C35.6274 15.9128 35.639 15.8911 35.6531 15.8762C35.6673 15.8612 35.6994 15.8074 35.7245 15.7566C35.7496 15.7057 35.7979 15.6179 35.8319 15.5614C35.8658 15.5049 35.9064 15.431 35.9222 15.3971C35.9379 15.3632 35.9938 15.263 36.0464 15.1745C36.0989 15.086 36.1419 15.0098 36.1419 15.005C36.1419 15.0003 34.5004 14.9965 32.4941 14.9966C28.9439 14.9967 28.8377 14.9978 28.5273 15.0385C28.1187 15.0921 27.5468 15.23 27.3439 15.3239C27.3213 15.3344 27.2134 15.3802 27.1041 15.4257C26.9949 15.4712 26.8745 15.5257 26.8366 15.5468C26.7987 15.5678 26.7075 15.6166 26.6339 15.6552C26.5603 15.6938 26.4909 15.7327 26.4796 15.7417C26.4682 15.7507 26.3988 15.7962 26.3252 15.8428C26.2516 15.8893 26.1671 15.9468 26.1374 15.9704C26.1077 15.994 26.0572 16.0319 26.0252 16.0545C25.6451 16.323 25.1198 16.8825 24.839 17.3179C24.6769 17.5693 24.6516 17.613 24.5321 17.8469C24.4728 17.9627 24.4182 18.0575 24.4107 18.0575C24.3977 18.0575 24.0702 18.3036 23.9423 18.4094C23.91 18.4361 23.8523 18.4812 23.8142 18.5094C23.7761 18.5377 23.6601 18.6301 23.5565 18.7148C23.4529 18.7996 23.3374 18.892 23.2999 18.9203C23.2623 18.9485 23.1464 19.041 23.0422 19.1257C22.9381 19.2105 22.8215 19.3044 22.7831 19.3345C22.7448 19.3646 22.6902 19.4091 22.6619 19.4333C22.5452 19.5334 22.4188 19.637 22.0342 19.9477C21.6044 20.2949 21.5804 20.3146 21.5155 20.3718C21.409 20.4658 21.3763 20.4932 21.211 20.6262C21.0396 20.7643 20.9889 20.8066 20.8916 20.8925C20.8597 20.9207 20.8194 20.9553 20.8021 20.9693C20.6906 21.0598 20.4635 21.2488 20.429 21.2798C20.4064 21.3001 20.2952 21.3936 20.182 21.4875C20.0688 21.5813 19.9716 21.6648 19.9659 21.6729C19.9603 21.681 19.9001 21.7324 19.8322 21.7872C19.7643 21.8419 19.6985 21.8964 19.686 21.9083C19.6489 21.9436 19.4569 22.1084 19.2045 22.3217C19.0743 22.4317 18.9632 22.5278 18.9575 22.5354C18.9519 22.5429 18.8731 22.6129 18.7826 22.691C18.6142 22.8362 18.5855 22.8612 18.371 23.0492C18.3031 23.1087 18.1881 23.2094 18.1156 23.273C18.0431 23.3365 17.9541 23.4162 17.9179 23.4501C17.8817 23.484 17.7837 23.5719 17.7002 23.6453C17.6166 23.7187 17.5241 23.8019 17.4947 23.8302C17.4652 23.8584 17.369 23.9458 17.281 24.0243C17.1929 24.1029 17.0957 24.1907 17.0651 24.2195C17.0345 24.2483 16.9632 24.3135 16.9066 24.3643C16.7008 24.5495 16.3097 24.9128 16.1385 25.0778C16.002 25.2095 15.9585 25.2408 15.9425 25.2193C15.9312 25.2041 15.7136 24.8161 15.4589 24.3572L14.9958 23.5227L13.3597 23.5213C12.11 23.5201 11.6847 23.5134 11.559 23.4928C11.3762 23.4627 11.0558 23.3821 11.0239 23.358C11.0125 23.3495 10.9662 23.3308 10.921 23.3164C10.8757 23.3021 10.7645 23.2518 10.6738 23.2047C10.3092 23.0154 9.96267 22.731 9.72732 22.4279C9.716 22.4133 9.67828 22.3646 9.64348 22.3197C9.58239 22.2409 9.38775 21.9299 9.38775 21.9112C9.38775 21.9061 9.36085 21.8435 9.32798 21.7721C9.29512 21.7007 9.25645 21.6007 9.24206 21.5499C9.22767 21.499 9.20936 21.4482 9.20139 21.4369C9.19341 21.4256 9.1712 21.3285 9.15206 21.2212C9.13292 21.1138 9.10868 20.9872 9.09816 20.9399C9.07199 20.8219 9.0739 19.5931 9.10049 19.4424C9.15387 19.14 9.18894 18.97 9.20189 18.9511C9.20958 18.9398 9.22774 18.889 9.2422 18.8381C9.34126 18.4899 9.65737 17.9832 9.95245 17.6998C10.4072 17.2631 10.9311 16.9964 11.5384 16.8924C11.7167 16.8618 11.9624 16.8557 13.3779 16.8461L15.0117 16.8351L15.1133 16.6399C15.1692 16.5326 15.2408 16.4027 15.2725 16.3512C15.3042 16.2997 15.3365 16.2374 15.3444 16.2125C15.3523 16.1877 15.3664 16.1674 15.3757 16.1674C15.385 16.1674 15.4084 16.1282 15.4276 16.0802C15.4469 16.0322 15.4687 15.9883 15.4762 15.9826C15.4935 15.9694 15.5262 15.9117 15.6391 15.6949C15.7189 15.5417 15.7675 15.4558 15.8653 15.2943C15.8851 15.2618 15.9643 15.1076 16.0105 15.0119C16.018 14.9964 8.66123 14.9893 8.64515 15.0047Z" fill="#0F50A4"/>
<path fill-rule="evenodd" clip-rule="evenodd" d="M21.6843 8.35996C21.4636 8.38423 21.3 8.41621 21.1389 8.46663C20.7738 8.58091 20.3318 8.82209 20.1099 9.0281C19.8263 9.29147 19.8013 9.31756 19.6364 9.52283C19.512 9.67773 19.2981 10.0695 19.2452 10.2394C19.2311 10.2846 19.2128 10.3308 19.2046 10.3421C19.1963 10.3534 19.1627 10.469 19.1301 10.5989C19.0735 10.8237 19.0706 10.8571 19.0706 11.2871C19.0706 11.6906 19.0757 11.7589 19.1177 11.924C19.2677 12.5126 19.515 12.9588 19.9144 13.3618C19.9951 13.4432 20.2077 13.6239 20.251 13.6479C20.2696 13.6582 20.2895 13.6723 20.2951 13.6792C20.3008 13.686 20.3286 13.7063 20.3569 13.7242C20.4042 13.7541 20.4233 13.7536 20.5936 13.7176C20.6954 13.696 20.9131 13.6608 21.0772 13.6394C21.2413 13.6179 21.4219 13.5908 21.4785 13.579C21.5351 13.5673 21.6786 13.5389 21.7975 13.5161C22.1269 13.4526 22.6154 13.3321 22.878 13.2495C23.2344 13.1373 23.863 12.9161 23.9919 12.8575C24.0401 12.8356 24.0861 12.8176 24.0941 12.8176C24.1327 12.8176 24.6304 12.581 24.6518 12.5525C24.6869 12.5055 24.8145 12.1375 24.8626 11.9445C24.9965 11.4061 24.9492 10.7457 24.7384 10.2142C24.6751 10.0546 24.4919 9.69782 24.4428 9.63868C24.4264 9.61881 24.386 9.56819 24.3531 9.52618C24.3202 9.48417 24.2869 9.45615 24.2791 9.46391C24.2713 9.4717 24.2701 9.46447 24.2765 9.44787C24.2918 9.40773 23.8576 8.98147 23.7343 8.91559C23.7111 8.9032 23.6677 8.87041 23.6378 8.84274C23.6079 8.81505 23.5636 8.78624 23.5394 8.7787C23.5152 8.77116 23.4907 8.75816 23.4851 8.7498C23.4624 8.71625 23.1349 8.56489 22.9706 8.51197C22.8744 8.48099 22.7771 8.44801 22.7545 8.43871C22.5971 8.37398 21.9741 8.32814 21.6843 8.35996ZM30.9499 9.27356C30.8996 9.33644 30.7236 9.52805 30.5338 9.72658C30.4998 9.76208 30.4432 9.82266 30.4081 9.8612C30.3729 9.89972 30.278 9.99466 30.1971 10.0722C30.1163 10.1497 30.0501 10.2213 30.0501 10.2314C30.0501 10.2414 30.0412 10.2497 30.0303 10.2497C30.0194 10.2497 29.9273 10.3306 29.8257 10.4294C29.724 10.5283 29.5785 10.6647 29.5023 10.7325C29.4261 10.8002 29.3214 10.8937 29.2696 10.94C29.1221 11.0722 28.783 11.364 28.711 11.4207C28.6751 11.4489 28.6214 11.4922 28.5916 11.5168C28.4595 11.6262 28.2615 11.7836 28.2088 11.8213C28.1772 11.8439 28.1114 11.8947 28.0625 11.9343C27.8967 12.0684 27.3804 12.4436 27.2569 12.5197C27.1848 12.5642 27.151 12.5999 27.1629 12.619C27.1697 12.6301 27.1653 12.6329 27.1531 12.6254C27.141 12.6179 27.0464 12.6697 26.943 12.7404C26.8397 12.8111 26.7301 12.8829 26.6996 12.8998C26.6691 12.9168 26.6149 12.9515 26.5792 12.9769C26.5435 13.0023 26.5049 13.0231 26.4935 13.0231C26.482 13.0231 26.4695 13.0303 26.4658 13.0392C26.462 13.0481 26.3848 13.0986 26.2943 13.1513C26.2037 13.2041 26.1204 13.2551 26.109 13.2646C26.0977 13.2741 25.9032 13.3839 25.6769 13.5085C25.0665 13.8446 24.8555 13.9481 24.0304 14.3159C23.9852 14.3361 23.8694 14.3828 23.7732 14.4196C23.677 14.4564 23.5705 14.498 23.5365 14.5119C23.4065 14.5654 22.8676 14.7488 22.6413 14.8165C22.2354 14.9379 22.0646 14.982 21.5197 15.106C21.3651 15.1412 20.9847 15.2026 20.607 15.2534C20.4786 15.2707 20.3351 15.293 20.288 15.303C20.0281 15.3583 19.8343 15.4076 19.814 15.4237C19.8013 15.4337 19.7539 15.4535 19.7086 15.4679C19.6149 15.4975 19.4567 15.5816 19.3144 15.6775C19.2152 15.7443 18.9369 16.0147 18.9369 16.0442C18.9369 16.0532 18.9236 16.0738 18.9074 16.09C18.867 16.1303 18.6863 16.4819 18.6412 16.6079C18.6209 16.6644 18.5961 16.7291 18.586 16.7517C18.565 16.7989 18.5032 17.0293 18.4318 17.3269C18.4047 17.4399 18.3587 17.6294 18.3297 17.7481C18.2441 18.0984 18.1505 18.4875 18.0209 19.032C17.994 19.145 17.9473 19.3392 17.917 19.4635C17.8867 19.5877 17.8406 19.7773 17.8145 19.8846C17.7884 19.9919 17.7422 20.1815 17.7119 20.3057C17.6522 20.55 17.5662 20.915 17.4987 21.2097C17.4754 21.3113 17.4469 21.4269 17.4353 21.4665C17.4236 21.506 17.3771 21.6955 17.3319 21.8876C17.2867 22.0797 17.2413 22.2646 17.2311 22.2985C17.1867 22.4451 17.1002 22.8447 17.1106 22.855C17.1168 22.8613 17.139 22.8525 17.1599 22.8356C17.1808 22.8186 17.3043 22.7188 17.4345 22.6136C17.5647 22.5085 17.6851 22.4112 17.702 22.3974C17.731 22.3738 17.8828 22.2546 18.0635 22.1136C18.1069 22.0797 18.1995 22.0057 18.2693 21.9492C18.3391 21.8927 18.4316 21.8188 18.4747 21.7849C18.5179 21.751 18.577 21.7029 18.6061 21.678C18.6352 21.6532 18.715 21.5885 18.7834 21.5342C18.8518 21.48 18.9212 21.4241 18.9377 21.41C18.9916 21.3641 19.3086 21.1082 19.3781 21.0546C19.4154 21.0259 19.4597 20.9889 19.4766 20.9725C19.4935 20.956 19.5388 20.9177 19.5771 20.8871C19.6878 20.7992 20.1635 20.4063 20.3775 20.226C20.485 20.1354 20.5822 20.0541 20.5936 20.0454C20.6639 19.9908 21.1667 19.5692 21.263 19.484C21.327 19.4275 21.4016 19.3636 21.4289 19.3421C21.4727 19.3075 21.5492 19.243 21.6843 19.1266C21.7069 19.1071 21.7903 19.0372 21.8695 18.9713C21.9488 18.9054 22.0367 18.8297 22.065 18.8032C22.0933 18.7766 22.1396 18.7357 22.1679 18.7121C22.2898 18.6107 22.5962 18.3455 22.7072 18.2456C22.7734 18.1858 22.8473 18.1211 22.8713 18.1017C22.8953 18.0824 22.9575 18.0285 23.0096 17.982C23.0617 17.9355 23.1599 17.8487 23.2278 17.789C23.688 17.3845 23.8403 17.2484 23.896 17.1916C23.9247 17.1624 24.0037 17.0919 24.0716 17.0349C24.1395 16.9779 24.243 16.8863 24.3016 16.8312C24.3602 16.7762 24.4652 16.6803 24.5349 16.6182C24.6047 16.556 24.7065 16.4636 24.7612 16.4127C24.8159 16.3619 24.9609 16.2279 25.0835 16.115C25.2061 16.002 25.3898 15.8297 25.4916 15.7321C25.5935 15.6345 25.7453 15.4911 25.8289 15.4136C26.245 15.0277 27.0456 14.2312 27.8289 13.4237C27.8514 13.4006 27.9536 13.2928 28.1695 13.0648C28.3276 12.8979 28.7349 12.4507 28.7911 12.3822C28.8319 12.3327 28.8983 12.2558 29.1166 12.0056C29.2056 11.9036 29.371 11.7049 29.4842 11.5639C29.5973 11.423 29.6949 11.3031 29.7009 11.2974C29.707 11.2918 29.7482 11.2363 29.7926 11.1741C29.8369 11.112 29.8945 11.0391 29.9205 11.0121C29.9465 10.9852 29.9678 10.9558 29.9678 10.9468C29.9678 10.9379 29.9794 10.9181 29.9935 10.9029C30.039 10.854 30.1414 10.7153 30.2255 10.5887C30.2705 10.5209 30.3125 10.4608 30.3188 10.4551C30.3352 10.4403 30.5174 10.1543 30.6294 9.96746C30.7498 9.76662 31.0019 9.28414 30.9864 9.28414C30.98 9.28414 30.9847 9.26565 30.9968 9.24305C31.0289 9.18323 31.0147 9.19245 30.9499 9.27356Z" fill="#ED1E26"/>
</svg>
