<svg width="20" height="20" viewBox="0 0 20 20" fill="none" xmlns="http://www.w3.org/2000/svg">
<path d="M10 0C4.48578 0 0 4.48578 0 10C0 15.5142 4.48578 20 10 20C15.5142 20 20 15.5142 20 10C20 4.48578 15.5142 0 10 0Z" fill="#F44336"/>
<path d="M13.6817 12.5052C14.0075 12.8312 14.0075 13.3577 13.6817 13.6837C13.5192 13.8462 13.3059 13.9278 13.0924 13.9278C12.8791 13.9278 12.6658 13.8462 12.5033 13.6837L9.99915 11.1794L7.49503 13.6837C7.33253 13.8462 7.11921 13.9278 6.90589 13.9278C6.69242 13.9278 6.4791 13.8462 6.3166 13.6837C5.99082 13.3577 5.99082 12.8312 6.3166 12.5052L8.82087 10.0011L6.3166 7.49699C5.99082 7.17106 5.99082 6.64448 6.3166 6.31855C6.64252 5.99277 7.16911 5.99277 7.49503 6.31855L9.99915 8.82282L12.5033 6.31855C12.8292 5.99277 13.3558 5.99277 13.6817 6.31855C14.0075 6.64448 14.0075 7.17106 13.6817 7.49699L11.1774 10.0011L13.6817 12.5052Z" fill="#FAFAFA"/>
</svg>
