<svg width="22" height="19" viewBox="0 0 22 19" fill="none" xmlns="http://www.w3.org/2000/svg">
<path d="M19.8 3.16357H2.2C1.91109 3.16357 1.62501 3.22122 1.3581 3.33323C1.09118 3.44523 0.848654 3.6094 0.644365 3.81636C0.440076 4.02332 0.278025 4.26902 0.167465 4.53942C0.0569047 4.80983 0 5.09965 0 5.39233V16.5361C0 16.8288 0.0569047 17.1186 0.167465 17.389C0.278025 17.6594 0.440076 17.9051 0.644365 18.1121C0.848654 18.3191 1.09118 18.4832 1.3581 18.5952C1.62501 18.7072 1.91109 18.7649 2.2 18.7649H19.8C20.0889 18.7649 20.375 18.7072 20.6419 18.5952C20.9088 18.4832 21.1513 18.3191 21.3556 18.1121C21.5599 17.9051 21.722 17.6594 21.8325 17.389C21.9431 17.1186 22 16.8288 22 16.5361V5.39233C22 5.09965 21.9431 4.80983 21.8325 4.53942C21.722 4.26902 21.5599 4.02332 21.3556 3.81636C21.1513 3.6094 20.9088 3.44523 20.6419 3.33323C20.375 3.22122 20.0889 3.16357 19.8 3.16357Z" fill="#0F50A4"/>
<path d="M8.07311 15.0974H6.30331C6.03857 15.0974 5.82422 14.8696 5.82422 14.5883V11.761C5.82422 11.4797 6.03857 11.252 6.30331 11.252H8.07219C8.33693 11.252 8.55128 11.4797 8.55128 11.761V14.5883C8.55128 14.8696 8.33693 15.0974 8.07311 15.0974Z" fill="white"/>
<path d="M11.5615 15.0963H9.79257C9.52783 15.0963 9.31348 14.8686 9.31348 14.5873V9.7774C9.31348 9.49612 9.52783 9.26838 9.79257 9.26838H11.5615C11.8262 9.26838 12.0405 9.49612 12.0405 9.7774V14.5873C12.0405 14.8686 11.8262 15.0963 11.5615 15.0963ZM15.0507 15.0963H13.2818C13.017 15.0963 12.8027 14.8686 12.8027 14.5873V6.97924C12.8027 6.69796 13.017 6.47021 13.2818 6.47021H15.0507C15.3154 6.47021 15.5298 6.69796 15.5298 6.97924V14.5873C15.5298 14.8686 15.3154 15.0963 15.0507 15.0963Z" fill="white"/>
<path d="M3.23535 1.94118C3.23535 0.869094 4.10445 0 5.17653 0H16.8236C17.8957 0 18.7648 0.869094 18.7648 1.94118H3.23535Z" fill="#0685CF"/>
</svg>
