<svg width="23" height="23" viewBox="0 0 23 23" fill="none" xmlns="http://www.w3.org/2000/svg">
<path d="M10.8541 13.9302C10.4104 13.5006 9.98684 13.5167 9.66616 13.5793C9.4786 13.6156 8.83925 13.787 8.27051 13.9443C7.93975 13.5047 7.20562 12.468 6.8668 11.9234C6.54007 11.3991 5.88662 10.2071 5.62444 9.69484C6.0157 9.25314 6.45134 8.75499 6.5663 8.60374C6.76194 8.34357 6.96362 7.97045 6.77403 7.38356C6.66915 7.05886 5.85838 4.89479 5.73738 4.60235C5.45703 3.93074 4.91653 3.61611 4.32357 3.77746C3.55517 3.9872 2.61127 4.43897 1.97599 4.90084C1.28824 5.40101 1.30237 6.2844 1.30842 6.57684C1.31649 7.11736 1.36893 7.88375 1.69767 8.99905C2.11112 10.4028 2.85332 11.9739 3.90813 13.666C5.63051 16.4311 7.39928 18.2906 9.16601 19.1962C9.34349 19.2869 9.77106 19.5068 10.2632 19.5068C10.489 19.5068 10.727 19.4604 10.963 19.3373C11.6588 18.9703 12.4797 18.3229 13.0081 17.7259C13.4155 17.2661 13.3711 16.6408 12.8911 16.0923C12.6854 15.8502 11.1001 14.1682 10.8541 13.9302ZM10.4185 18.2986C10.2752 18.3753 10.0393 18.3269 9.70045 18.1534C9.48466 18.0425 8.82515 17.7057 7.93573 16.8808C6.92127 15.939 5.90074 14.6502 4.9004 13.0448C3.90208 11.4414 3.20222 9.96911 2.81902 8.66624C2.53061 7.68405 2.48422 7.02251 2.47616 6.55461C2.4701 6.17342 2.53061 5.94149 2.6617 5.84468C3.17398 5.47359 3.95651 5.09441 4.58576 4.91492C4.6039 4.94113 4.63013 4.9835 4.65835 5.04803C4.76324 5.30013 5.56795 7.44604 5.66273 7.73848C5.67686 7.78486 5.68291 7.81107 5.68291 7.82318C5.67887 7.83326 5.66477 7.85545 5.63451 7.89578C5.57401 7.97646 5.2735 8.32737 4.61802 9.06555C4.3881 9.32371 4.33365 9.6948 4.47886 10.0074C4.65232 10.3825 5.46711 11.8851 5.87652 12.5385C6.28392 13.192 7.2157 14.5009 7.48394 14.8317C7.70175 15.0999 8.05874 15.2128 8.39151 15.1221C9.17605 14.9063 9.76295 14.749 9.89002 14.7248C9.94045 14.7147 9.96465 14.7127 9.97674 14.7127C9.98682 14.7187 10.007 14.7348 10.0433 14.7671C10.2631 14.9809 11.8343 16.6488 12.0158 16.8545C12.0621 16.907 12.0883 16.9493 12.1045 16.9775C11.6628 17.4656 10.9771 18.0042 10.4185 18.2986Z" fill="#0F50A4"/>
<path d="M21.1238 5.87259C20.8556 5.56804 20.4602 5.39258 20.0408 5.39258H9.12565C8.71825 5.39258 8.31892 5.5499 8.00227 5.83829C7.87924 5.94921 7.81067 6.10653 7.81067 6.27192C7.81067 6.43731 7.88125 6.59461 8.00428 6.70555L13.3267 11.5056C13.5264 11.6871 13.8249 11.7073 14.0487 11.554L20.2444 7.31464L19.3086 14.5369C19.2784 14.7769 19.0343 14.9947 18.7964 14.9947H14.2786C13.956 14.9947 13.6938 15.2569 13.6938 15.5796C13.6938 15.9023 13.956 16.1645 14.2786 16.1645H18.7984C19.1977 16.1645 19.591 16.0112 19.9056 15.7329C20.2182 15.4566 20.4199 15.0855 20.4703 14.6882L21.4626 7.0222C21.5171 6.59664 21.394 6.17915 21.1238 5.87259ZM13.7684 10.3278L9.59154 6.56233H19.2724L13.7684 10.3278Z" fill="#ED1E26"/>
<path d="M7.91756 10.4974H9.46448C9.67625 10.4974 9.84768 10.3259 9.84768 10.1142C9.84768 9.90238 9.67625 9.73096 9.46448 9.73096H7.91756C7.70579 9.73096 7.53436 9.90238 7.53436 10.1142C7.53436 10.3239 7.70579 10.4974 7.91756 10.4974Z" fill="#0F50A4"/>
<path d="M8.23621 11.7782C8.23621 11.99 8.40763 12.1614 8.6194 12.1614H11.5579C11.7697 12.1614 11.9411 11.99 11.9411 11.7782C11.9411 11.5664 11.7697 11.395 11.5579 11.395H8.6194C8.40763 11.395 8.23621 11.5664 8.23621 11.7782Z" fill="#0F50A4"/>
</svg>
