<svg width="18" height="21" viewBox="0 0 18 21" fill="none" xmlns="http://www.w3.org/2000/svg">
<path d="M8.79799 20.0018C8.43897 19.9227 8.09445 19.8137 7.81793 19.5622C7.2859 19.0778 7.08289 18.4879 7.2749 17.7998C7.47491 17.0814 7.97194 16.6433 8.72498 16.53C9.55903 16.405 10.2616 16.7903 10.6226 17.5405C10.6369 17.5822 10.6656 17.6177 10.7039 17.6409C10.7421 17.6641 10.7875 17.6734 10.8321 17.6674C11.4111 17.6625 11.9897 17.6708 12.5682 17.6635C13.3862 17.6528 14.1053 17.1336 14.2773 16.4197C13.9364 16.5191 13.5725 16.5138 13.2347 16.4045C12.5032 16.1784 12.0017 15.5338 11.9952 14.7441C11.9822 13.1604 11.9722 11.5761 11.9952 9.99289C12.0172 8.59375 13.4953 7.79529 14.7233 8.50731C15.2939 8.83744 15.5734 9.3595 15.5779 10.0002C15.5869 11.9991 15.5979 13.9989 15.5739 15.9977C15.5559 17.539 14.2543 18.7916 12.6737 18.8302C12.0622 18.8453 11.4501 18.8302 10.8381 18.8395C10.7696 18.8395 10.6641 18.8844 10.6381 18.9372C10.3731 19.4983 9.93555 19.8465 9.31002 19.9725C9.28476 19.9803 9.26032 19.9904 9.23701 20.0027L8.79799 20.0018Z" fill="black"/>
<path d="M0 8.79384C0.117007 5.71328 1.39358 3.21436 4.05023 1.53246C7.1684 -0.441965 10.4461 -0.512289 13.6388 1.34347C16.4889 2.99948 17.8615 5.57019 18 8.83144C17.8305 8.73377 17.7055 8.6527 17.572 8.58726C17.418 8.51205 17.261 8.40706 17.098 8.39192C16.7549 8.36066 16.7329 8.14774 16.7019 7.88989C16.5089 6.28661 15.8379 4.89187 14.7293 3.70076C13.8687 2.77679 12.787 2.07558 11.581 1.65986C10.3749 1.24414 9.08222 1.12688 7.81843 1.31856C5.72132 1.64429 4.03572 2.64982 2.76165 4.29754C1.94078 5.34443 1.43282 6.59291 1.29407 7.90454C1.26607 8.16532 1.21257 8.32501 0.90505 8.39631C0.597533 8.46761 0.326518 8.64391 0 8.79384Z" fill="black"/>
<path d="M6.00333 12.3848C6.00333 13.151 6.00683 13.9168 6.00333 14.6825C5.99833 15.4795 5.52081 16.1593 4.81827 16.3839C3.6107 16.7702 2.43813 15.9933 2.41813 14.7528C2.3928 13.1627 2.3928 11.5723 2.41813 9.98159C2.44263 8.59221 3.91122 7.80157 5.13628 8.50187C5.73032 8.84128 5.99733 9.38433 6.00233 10.048C6.00783 10.8269 6.00333 11.6059 6.00333 12.3848Z" fill="black"/>
<path d="M1.23106 15.1981C0.61953 15.0585 0.0614992 14.4275 0.0339977 13.7331C-0.00200435 12.8198 -0.00200435 11.9027 0.0339977 10.9895C0.0614992 10.296 0.626031 9.65969 1.23056 9.52734L1.23106 15.1981Z" fill="black"/>
<path d="M16.7639 15.2147V9.51953C17.338 9.72171 17.7225 10.1012 17.898 10.6701C17.9499 10.8447 17.9765 11.0255 17.977 11.2073C17.985 11.9857 17.985 12.7642 17.977 13.5426C17.9715 14.3025 17.527 14.9413 16.8384 15.1952C16.8164 15.203 16.7909 15.2074 16.7639 15.2147Z" fill="black"/>
</svg>
