<svg width="20" height="20" viewBox="0 0 20 20" fill="none" xmlns="http://www.w3.org/2000/svg">
<g opacity="0.7">
<path d="M10 19C7.59602 19 5.33589 18.0639 3.63602 16.364C1.93614 14.6641 1 12.404 1 10C1 7.59602 1.93618 5.33593 3.63602 3.63602C5.33586 1.93611 7.59602 1 10 1C12.404 1 14.6641 1.93614 16.364 3.63602C18.0639 5.33589 19 7.59602 19 10C19 12.404 18.0638 14.6641 16.364 16.364C14.6641 18.0639 12.404 19 10 19ZM10 2.125C5.65771 2.125 2.125 5.65771 2.125 10C2.125 14.3423 5.65771 17.875 10 17.875C14.3423 17.875 17.875 14.3423 17.875 10C17.875 5.65771 14.3423 2.125 10 2.125Z" fill="#6D7174" stroke="#6D7174" stroke-width="0.4"/>
<path d="M10 9.4375C9.22459 9.4375 8.59375 8.80666 8.59375 8.03125C8.59375 7.25584 9.22459 6.625 10 6.625C10.7754 6.625 11.4062 7.25584 11.4062 8.03125C11.4062 8.34189 11.6581 8.59375 11.9688 8.59375C12.2794 8.59375 12.5312 8.34189 12.5312 8.03125C12.5312 6.82887 11.6883 5.82034 10.5625 5.56377V4.9375C10.5625 4.62686 10.3107 4.375 10 4.375C9.68932 4.375 9.4375 4.62686 9.4375 4.9375V5.56377C8.31173 5.82034 7.46875 6.82887 7.46875 8.03125C7.46875 9.42699 8.60426 10.5625 10 10.5625C10.7754 10.5625 11.4062 11.1933 11.4062 11.9688C11.4062 12.7442 10.7754 13.375 10 13.375C9.22459 13.375 8.59375 12.7442 8.59375 11.9688C8.59375 11.6581 8.34193 11.4062 8.03125 11.4062C7.72057 11.4062 7.46875 11.6581 7.46875 11.9688C7.46875 13.1711 8.31173 14.1797 9.4375 14.4362V15.0625C9.4375 15.3731 9.68932 15.625 10 15.625C10.3107 15.625 10.5625 15.3731 10.5625 15.0625V14.4362C11.6883 14.1797 12.5312 13.1711 12.5312 11.9688C12.5312 10.573 11.3957 9.4375 10 9.4375Z" fill="#6D7174" stroke="#6D7174" stroke-width="0.4"/>
</g>
</svg>
