<svg width="20" height="20" viewBox="0 0 20 20" fill="none" xmlns="http://www.w3.org/2000/svg">
<path d="M18.4615 10C18.4615 5.32719 14.6728 1.53848 10 1.53848C5.32719 1.53848 1.53848 5.32717 1.53848 10C1.53848 14.6728 5.32664 18.4615 10 18.4615C14.6728 18.4615 18.4615 14.6728 18.4615 10ZM20 10C20 15.5226 15.5231 20 10 20C4.47691 20 0 15.5226 0 10C0 4.47691 4.47691 0 10 0C15.5226 0 20 4.47691 20 10Z" fill="#0F50A4"/>
<path d="M14.5631 11.0431C14.1599 11.2415 13.7183 11.3439 13.2639 11.3439C11.6319 11.3439 10.3071 10.0191 10.3071 8.38712C10.3071 7.25432 10.9471 6.23672 11.9391 5.74392C12.1759 5.62872 12.1567 5.28312 11.9135 5.18712C11.3119 4.94392 10.6655 4.81592 9.99992 4.81592C7.13912 4.81592 4.81592 7.13272 4.81592 9.99992C4.81592 12.8671 7.13272 15.1839 9.99992 15.1839C12.3359 15.1839 14.3711 13.6223 14.9919 11.4015C15.0623 11.1455 14.7999 10.9279 14.5631 11.0431ZM9.99992 14.5695C7.47832 14.5695 5.43032 12.5215 5.43032 9.99992C5.43032 7.47832 7.47832 5.43032 9.99992 5.43032C10.3711 5.43032 10.7359 5.48152 11.0943 5.56472C10.2303 6.23032 9.69912 7.25432 9.69912 8.38712C9.69912 10.3583 11.2991 11.9519 13.2639 11.9519C13.5775 11.9519 13.8847 11.9071 14.1855 11.8239C13.4687 13.4623 11.8431 14.5695 9.99992 14.5695ZM14.3007 7.77912L14.0319 7.48472L13.6351 7.53592L13.8335 7.18392L13.6671 6.82552L14.0575 6.90872L14.3455 6.63352L14.3903 7.03672L14.7423 7.22872L14.3711 7.38872L14.3007 7.77912Z" fill="#ED1E26"/>
<path d="M12.7569 9L12.4653 8.80282L12.1389 8.93662L12.2292 8.59155L12 8.32394L12.3542 8.30282L12.5347 8L12.6597 8.33099L13 8.41549L12.7292 8.64085L12.7569 9Z" fill="#ED1E26"/>
</svg>
