<svg width="15" height="15" viewBox="0 0 15 15" fill="none" xmlns="http://www.w3.org/2000/svg">
<path fill-rule="evenodd" clip-rule="evenodd" d="M4.64286 0C5.03735 0 5.35714 0.319797 5.35714 0.714286V1.07143H9.64286V0.714286C9.64286 0.319797 9.96265 0 10.3571 0C10.7516 0 11.0714 0.319797 11.0714 0.714286V1.07143H13.5714C14.3604 1.07143 15 1.71103 15 2.5V13.5714C15 14.3604 14.3604 15 13.5714 15H1.42857C0.6396 15 0 14.3604 0 13.5714V2.5C0 1.71102 0.639593 1.07143 1.42857 1.07143H3.92857V0.714286C3.92857 0.319797 4.24837 0 4.64286 0ZM3.92857 2.5H1.42857V5.35714H13.5714V2.5H11.0714V3.57143C11.0714 3.96592 10.7516 4.28571 10.3571 4.28571C9.96265 4.28571 9.64286 3.96592 9.64286 3.57143V2.5H5.35714V3.57143C5.35714 3.96592 5.03735 4.28571 4.64286 4.28571C4.24837 4.28571 3.92857 3.96592 3.92857 3.57143V2.5ZM13.5714 6.78571H1.42857V13.5714H13.5714V6.78571ZM3.21429 8.57143C3.21429 8.17694 3.53408 7.85714 3.92857 7.85714H6.07143C6.46592 7.85714 6.78571 8.17694 6.78571 8.57143C6.78571 8.96592 6.46592 9.28571 6.07143 9.28571H3.92857C3.53408 9.28571 3.21429 8.96592 3.21429 8.57143ZM8.21429 8.57143C8.21429 8.17694 8.53408 7.85714 8.92857 7.85714H11.0714C11.4659 7.85714 11.7857 8.17694 11.7857 8.57143C11.7857 8.96592 11.4659 9.28571 11.0714 9.28571H8.92857C8.53408 9.28571 8.21429 8.96592 8.21429 8.57143ZM3.21429 11.4286C3.21429 11.0341 3.53408 10.7143 3.92857 10.7143H6.07143C6.46592 10.7143 6.78571 11.0341 6.78571 11.4286C6.78571 11.8231 6.46592 12.1429 6.07143 12.1429H3.92857C3.53408 12.1429 3.21429 11.8231 3.21429 11.4286ZM8.21429 11.4286C8.21429 11.0341 8.53408 10.7143 8.92857 10.7143H11.0714C11.4659 10.7143 11.7857 11.0341 11.7857 11.4286C11.7857 11.8231 11.4659 12.1429 11.0714 12.1429H8.92857C8.53408 12.1429 8.21429 11.8231 8.21429 11.4286Z" fill="#6D7174"/>
</svg>
