<svg width="24" height="25" viewBox="0 0 24 25" fill="none" xmlns="http://www.w3.org/2000/svg">
<path d="M13.7165 13.4014C13.1177 13.3871 12.3691 13.1019 11.7568 12.4926C11.4177 12.1543 11.3945 11.7358 11.6909 11.4319C11.9874 11.128 12.4118 11.1587 12.7546 11.4813C13.1858 11.8863 13.6903 12.0599 14.2794 11.9454C14.41 11.9183 14.5316 11.8586 14.6328 11.7718C14.9172 11.536 14.9075 11.256 14.6111 11.0322C14.4217 10.8885 14.1971 10.8173 13.9815 10.729C13.6072 10.5748 13.233 10.4146 12.8542 10.2754C11.6752 9.84421 11.3369 8.19289 12.4649 7.29238C13.1386 6.75641 13.9112 6.71449 14.7106 6.93082C15.1111 7.04108 15.4853 7.23073 15.811 7.4885C15.9485 7.60357 16.0372 7.76653 16.0593 7.94448C16.0814 8.12242 16.0351 8.30211 15.9298 8.44727C15.8246 8.59243 15.6681 8.69226 15.4922 8.7266C15.3162 8.76094 15.1337 8.72724 14.9816 8.6323C14.5691 8.35234 14.141 8.14873 13.6237 8.27299C13.5241 8.29371 13.4308 8.33756 13.3512 8.40099C13.1267 8.58813 13.1633 8.8651 13.4261 8.97439C13.8947 9.16752 14.3648 9.35391 14.8349 9.54254C15.0896 9.64241 15.3276 9.78048 15.5408 9.95201C16.5184 10.75 16.5087 12.0996 15.5191 12.8871C15.0826 13.2337 14.5774 13.4021 13.7165 13.4014Z" fill="#0F50A4"/>
<path d="M0.523991 24.0759C0.132495 23.9052 0 23.6073 0 23.1829C0.0127255 20.4791 0.00598848 17.776 0.00673704 15.0722C0.00673704 14.6336 0.145969 14.4277 0.55543 14.2773C1.39082 13.9683 2.22521 13.6642 3.05861 13.3648C3.49277 13.2076 3.86556 13.3648 4.03173 13.7869C4.09162 13.9367 4.15076 13.9224 4.27202 13.8805C4.94198 13.65 5.58799 13.3431 6.28789 13.2068C6.5409 13.1582 6.60303 13.0571 6.59255 12.8131C6.53641 11.4814 6.67115 10.1767 7.142 8.91608C7.88307 6.93539 9.14688 5.38164 10.9334 4.25481C11.0891 4.15749 11.0974 4.08189 11.0375 3.92694C10.6692 2.96654 10.3106 2.00314 9.95059 1.03975C9.73051 0.449884 10.0427 0.000748558 10.6722 0H17.0896C17.7027 0 18.0215 0.449135 17.8082 1.02702C17.4449 2.00464 17.0771 2.98126 16.7048 3.95688C16.6554 4.08638 16.6607 4.15076 16.7924 4.23385C19.1564 5.73096 20.5696 7.87109 21.0592 10.6213C21.1331 11.0301 21.1697 11.4447 21.1685 11.8602C21.1685 12.6042 21.1685 13.3483 21.1685 14.0931C21.1685 14.3738 21.1917 14.6553 21.1153 14.9599C21.3646 14.9143 21.5862 14.8536 21.8182 14.8536C22.2951 14.8468 22.7608 14.999 23.1415 15.2862C23.5223 15.5735 23.7965 15.9794 23.9209 16.4398C24.0496 16.8966 24.0206 17.3834 23.8386 17.8217C23.6566 18.26 23.3322 18.6242 22.9179 18.8554C21.7771 19.4827 20.6168 20.0748 19.4633 20.6797C18.0956 21.3975 16.7243 22.1079 15.3597 22.831C14.5595 23.2555 13.7241 23.3483 12.837 23.2091C11.7561 23.0391 10.6662 22.9096 9.58529 22.7599C8.84197 22.6574 8.0979 22.5578 7.35608 22.4478C7.20038 22.4246 7.12553 22.4283 7.0896 22.6169C7.04393 22.852 6.86503 23.0039 6.63672 23.0855C5.75791 23.4024 4.87885 23.7188 3.99955 24.0347C3.98233 24.0407 3.97035 24.0632 3.95613 24.0781L0.523991 24.0759ZM13.8865 5.17254C13.3932 5.17254 12.8999 5.17703 12.4059 5.17254C12.2584 5.16775 12.1126 5.20459 11.9852 5.27883C10.5609 6.0753 9.42284 7.2992 8.73193 8.7776C8.10539 10.0981 7.95493 11.4994 7.99835 12.9373C8.00284 13.093 8.10689 13.0638 8.19147 13.0706C9.24796 13.1485 10.2656 13.5018 11.143 14.0954C11.6639 14.4564 12.2503 14.7122 12.8692 14.8484C13.5115 14.9794 14.159 15.0902 14.8065 15.192C15.7834 15.3417 16.4773 15.9353 16.6869 16.8433C16.7273 17.0192 16.7782 16.993 16.8965 16.9376C17.651 16.5823 18.407 16.2297 19.1646 15.8799C19.2436 15.8466 19.3103 15.7896 19.3555 15.7167C19.5366 15.4173 19.6893 15.1059 19.7103 14.7593C19.7851 13.5077 19.8413 12.2517 19.6661 11.0083C19.3053 8.45721 17.9669 6.55513 15.7452 5.26461C15.6382 5.20129 15.5154 5.16962 15.3911 5.17329C14.8896 5.17478 14.388 5.17254 13.8865 5.17254ZM7.68021 14.4599C7.46986 14.4741 7.25802 14.4801 7.04843 14.5056C6.22501 14.6051 5.48394 14.9734 4.70843 15.2302C4.56471 15.2781 4.60887 15.3522 4.64256 15.445C5.29131 17.2246 5.93856 19.0041 6.58432 20.7837C6.59223 20.8247 6.61377 20.8618 6.64543 20.889C6.6771 20.9162 6.71703 20.9318 6.75873 20.9334C7.56418 21.0375 8.36963 21.1498 9.17508 21.2613C10.3668 21.4275 11.563 21.572 12.7494 21.7696C13.5512 21.9028 14.275 21.8287 15.0056 21.423C16.5027 20.5928 18.029 19.8278 19.5434 19.0351C20.4077 18.582 21.2715 18.1283 22.1349 17.6742C22.4597 17.502 22.6252 17.1884 22.5645 16.8867C22.4597 16.368 21.9694 16.1382 21.4604 16.3725C20.0466 17.0287 18.6336 17.6879 17.2213 18.3502C16.6973 18.5987 16.1539 18.821 15.6643 19.1519C15.2392 19.4386 14.7399 19.4887 14.2421 19.4026C12.7801 19.1504 11.3227 18.8786 9.86001 18.6234C9.4004 18.5418 9.11145 18.1952 9.18631 17.8C9.26491 17.3785 9.64892 17.1427 10.1108 17.2258C11.5625 17.4858 13.0157 17.7458 14.4704 18.0058C14.5625 18.0251 14.6575 18.0257 14.7498 18.0076C14.8421 17.9895 14.9299 17.9531 15.0078 17.9005C15.0858 17.8478 15.1524 17.7801 15.2037 17.7012C15.255 17.6224 15.29 17.534 15.3065 17.4414C15.3248 17.353 15.3251 17.2618 15.3075 17.1733C15.2899 17.0848 15.2546 17.0007 15.2039 16.9261C15.1531 16.8514 15.0879 16.7877 15.012 16.7388C14.9362 16.6899 14.8512 16.6567 14.7623 16.6412C14.3506 16.5521 13.9352 16.4735 13.5182 16.4166C12.3332 16.2527 11.2329 15.8867 10.232 15.2077C9.47151 14.6875 8.60318 14.4629 7.68021 14.4599ZM1.41702 19.0605C1.41702 20.1961 1.42151 21.3317 1.41702 22.4672C1.41702 22.6349 1.46119 22.6723 1.62362 22.6693C2.19477 22.6589 2.76667 22.6604 3.33782 22.6693C3.53114 22.6727 3.72337 22.6397 3.90448 22.572C4.37832 22.3954 4.85365 22.2202 5.33198 22.054C5.46897 22.0069 5.50565 21.9575 5.45175 21.8107C4.63233 19.5736 3.81715 17.3341 3.00621 15.0924C2.94932 14.9352 2.89018 14.933 2.75245 14.9876C2.37567 15.1373 1.99516 15.2753 1.6109 15.4016C1.46119 15.4502 1.40954 15.5139 1.41103 15.6778C1.42151 16.8081 1.41702 17.931 1.41702 19.0605ZM11.6146 1.41702C11.9013 2.1798 12.1858 2.92761 12.462 3.67916C12.5084 3.80492 12.6005 3.75851 12.6746 3.75926C13.3011 3.75926 13.9277 3.75926 14.5542 3.75926C14.7885 3.75926 15.0782 3.83412 15.2414 3.72333C15.4046 3.61254 15.4345 3.31836 15.5161 3.10128C15.7257 2.54285 15.9323 1.98293 16.1434 1.41552L11.6146 1.41702Z" fill="#0F50A4"/>
</svg>
