<svg width="28" height="25" viewBox="0 0 28 25" fill="none" xmlns="http://www.w3.org/2000/svg">
<path fill-rule="evenodd" clip-rule="evenodd" d="M24.3425 5.20835H19.8135V4.16669C19.8135 2.39585 18.3416 1.04169 16.4168 1.04169H11.8878C9.96299 1.04169 8.49107 2.39585 8.49107 4.16669V5.20835H3.96208C3.28273 5.20835 2.82983 5.62502 2.82983 6.25002C2.82983 6.87502 3.28273 7.29169 3.96208 7.29169H5.09433V20.8334C5.09433 22.6042 6.56625 23.9584 8.49107 23.9584H19.8135C21.7383 23.9584 23.2103 22.6042 23.2103 20.8334V7.29169H24.3425C25.0219 7.29169 25.4748 6.87502 25.4748 6.25002C25.4748 5.62502 25.0219 5.20835 24.3425 5.20835ZM10.7557 4.16668C10.7557 3.54168 11.2086 3.12501 11.888 3.12501H16.4169C17.0963 3.12501 17.5492 3.54168 17.5492 4.16668V5.20835H10.7557V4.16668ZM19.8137 21.875C20.493 21.875 20.9459 21.4584 20.9459 20.8334V7.29169H7.35897V20.8334C7.35897 21.4584 7.81187 21.875 8.49122 21.875H19.8137ZM13.0202 11.4584V17.7084C13.0202 18.3334 12.5673 18.75 11.888 18.75C11.2086 18.75 10.7557 18.3334 10.7557 17.7084V11.4584C10.7557 10.8334 11.2086 10.4167 11.888 10.4167C12.5673 10.4167 13.0202 10.8334 13.0202 11.4584ZM17.5489 17.7084V11.4584C17.5489 10.8334 17.096 10.4167 16.4166 10.4167C15.7373 10.4167 15.2844 10.8334 15.2844 11.4584V17.7084C15.2844 18.3334 15.7373 18.75 16.4166 18.75C17.096 18.75 17.5489 18.3334 17.5489 17.7084Z" fill="black"/>
<mask id="mask0" mask-type="alpha" maskUnits="userSpaceOnUse" x="2" y="1" width="24" height="23">
<path fill-rule="evenodd" clip-rule="evenodd" d="M24.3425 5.20835H19.8135V4.16669C19.8135 2.39585 18.3416 1.04169 16.4168 1.04169H11.8878C9.96299 1.04169 8.49107 2.39585 8.49107 4.16669V5.20835H3.96208C3.28273 5.20835 2.82983 5.62502 2.82983 6.25002C2.82983 6.87502 3.28273 7.29169 3.96208 7.29169H5.09433V20.8334C5.09433 22.6042 6.56625 23.9584 8.49107 23.9584H19.8135C21.7383 23.9584 23.2103 22.6042 23.2103 20.8334V7.29169H24.3425C25.0219 7.29169 25.4748 6.87502 25.4748 6.25002C25.4748 5.62502 25.0219 5.20835 24.3425 5.20835ZM10.7557 4.16668C10.7557 3.54168 11.2086 3.12501 11.888 3.12501H16.4169C17.0963 3.12501 17.5492 3.54168 17.5492 4.16668V5.20835H10.7557V4.16668ZM19.8137 21.875C20.493 21.875 20.9459 21.4584 20.9459 20.8334V7.29169H7.35897V20.8334C7.35897 21.4584 7.81187 21.875 8.49122 21.875H19.8137ZM13.0202 11.4584V17.7084C13.0202 18.3334 12.5673 18.75 11.888 18.75C11.2086 18.75 10.7557 18.3334 10.7557 17.7084V11.4584C10.7557 10.8334 11.2086 10.4167 11.888 10.4167C12.5673 10.4167 13.0202 10.8334 13.0202 11.4584ZM17.5489 17.7084V11.4584C17.5489 10.8334 17.096 10.4167 16.4166 10.4167C15.7373 10.4167 15.2844 10.8334 15.2844 11.4584V17.7084C15.2844 18.3334 15.7373 18.75 16.4166 18.75C17.096 18.75 17.5489 18.3334 17.5489 17.7084Z" fill="white"/>
</mask>
<g mask="url(#mask0)">
<rect x="0.56543" width="27.1739" height="25" fill="#ED1E26"/>
</g>
</svg>
