<svg width="22" height="22" viewBox="0 0 22 22" fill="none" xmlns="http://www.w3.org/2000/svg">
<mask id="path-1-inside-1_29677_17797" fill="white">
<ellipse cx="17.8123" cy="12.8678" rx="0.880639" ry="0.889811"/>
</mask>
<path d="M17.6929 12.8678C17.6929 12.8168 17.7366 12.7576 17.8123 12.7576V14.7576C18.8607 14.7576 19.6929 13.9018 19.6929 12.8678H17.6929ZM17.8123 12.7576C17.8879 12.7576 17.9316 12.8168 17.9316 12.8678H15.9316C15.9316 13.9018 16.7639 14.7576 17.8123 14.7576V12.7576ZM17.9316 12.8678C17.9316 12.9189 17.8879 12.978 17.8123 12.978V10.978C16.7639 10.978 15.9316 11.8339 15.9316 12.8678H17.9316ZM17.8123 12.978C17.7366 12.978 17.6929 12.9189 17.6929 12.8678H19.6929C19.6929 11.8339 18.8607 10.978 17.8123 10.978V12.978Z" fill="#4FA30F" mask="url(#path-1-inside-1_29677_17797)"/>
<mask id="path-3-inside-2_29677_17797" fill="white">
<path d="M18.6678 10.0737H7.7287C7.6398 10.0768 7.55249 10.0495 7.48099 9.99622C7.40949 9.94298 7.358 9.86694 7.33493 9.78049C7.31214 9.69576 7.31795 9.60582 7.35145 9.52477C7.38494 9.44373 7.44423 9.37617 7.52 9.3327L14.3599 5.37002C14.4512 5.31971 14.558 5.30557 14.6592 5.3304C14.7094 5.34392 14.7566 5.36735 14.7978 5.39932C14.839 5.43128 14.8735 5.47116 14.8994 5.51664C14.9211 5.55823 14.9461 5.59799 14.9742 5.63552C15.1475 5.86919 15.4001 6.0306 15.684 6.08905C15.9679 6.1475 16.2632 6.09891 16.5138 5.95254C16.5588 5.92633 16.6084 5.90934 16.6599 5.90253C16.7114 5.89572 16.7638 5.89923 16.8139 5.91286C16.864 5.92649 16.911 5.94997 16.9521 5.98194C16.9932 6.01391 17.0276 6.05375 17.0533 6.09915L18.9986 9.49121C19.0331 9.55145 19.0513 9.61978 19.0513 9.68934C19.0513 9.7589 19.0331 9.82724 18.9986 9.88748C18.9635 9.94402 18.9147 9.99073 18.8569 10.0233C18.7991 10.0558 18.7341 10.0732 18.6678 10.0737ZM4.2556 10.0737H2.43636C2.36697 10.074 2.29874 10.0558 2.23858 10.021C2.17842 9.98623 2.12847 9.93606 2.09377 9.87559C2.05921 9.81535 2.04102 9.74701 2.04102 9.67745C2.04102 9.6079 2.05921 9.53956 2.09377 9.47932L6.96478 0.991261C7.22253 0.539091 7.64697 0.207356 8.14611 0.0679563C8.3957 -8.27231e-05 8.65629 -0.0172539 8.91258 0.017451C9.16886 0.0521559 9.41567 0.138037 9.63852 0.270053L15.0214 3.38076C15.082 3.41532 15.1324 3.46544 15.1675 3.526C15.2026 3.58657 15.2211 3.65541 15.2211 3.72551C15.2211 3.79561 15.2026 3.86445 15.1675 3.92502C15.1324 3.98558 15.082 4.0357 15.0214 4.07026C15.0214 4.07026 13.5062 4.95086 13.4463 4.98564C13.3865 5.02042 13.2494 5.03873 13.2494 5.03873L13.0526 4.98564L11.907 5.15624C11.6515 5.44822 11.8266 5.41516 11.4534 5.51664C11.0801 5.61812 10.7996 6.0253 10.4328 5.90253L4.59819 9.87559C4.56349 9.93606 4.51354 9.98623 4.45338 10.021C4.39322 10.0558 4.32499 10.074 4.2556 10.0737ZM3.11759 9.28119H4.02721L7.53969 3.15885C7.56542 3.11344 7.59982 3.0736 7.6409 3.04163C7.68199 3.00966 7.72896 2.98618 7.77911 2.97255C7.82925 2.95892 7.88158 2.95541 7.93307 2.96222C7.98457 2.96903 8.03422 2.98603 8.07916 3.01223C8.21376 3.09099 8.3625 3.14221 8.51683 3.16292C8.67116 3.18364 8.82804 3.17345 8.97844 3.13294C9.12885 3.09243 9.26981 3.0224 9.39323 2.92688C9.51664 2.83136 9.62008 2.71222 9.69758 2.57633C9.74953 2.48569 9.83499 2.41941 9.93532 2.39194C10.0356 2.36447 10.1427 2.37805 10.2331 2.42971L13.2494 4.18518L14.037 3.72551L9.26049 0.959559C8.98983 0.80266 8.66844 0.760019 8.36662 0.840964C8.0648 0.921909 7.80712 1.11985 7.64995 1.39149L3.11759 9.28119ZM11.0443 18.7916C9.52432 18.7916 8.28787 17.369 8.28787 15.6215C8.28787 13.8739 9.52432 12.4513 11.0443 12.4513C12.5643 12.4513 13.8007 13.8739 13.8007 15.6215C13.8007 17.369 12.5643 18.7916 11.0443 18.7916ZM11.0443 13.2439C9.95748 13.2439 9.07542 14.3098 9.07542 15.6215C9.07542 16.9331 9.95748 17.9991 11.0443 17.9991C12.1311 17.9991 13.0132 16.9331 13.0132 15.6215C13.0132 14.3098 12.1311 13.2439 11.0443 13.2439Z"/>
</mask>
<path d="M18.6678 10.0737H7.7287C7.6398 10.0768 7.55249 10.0495 7.48099 9.99622C7.40949 9.94298 7.358 9.86694 7.33493 9.78049C7.31214 9.69576 7.31795 9.60582 7.35145 9.52477C7.38494 9.44373 7.44423 9.37617 7.52 9.3327L14.3599 5.37002C14.4512 5.31971 14.558 5.30557 14.6592 5.3304C14.7094 5.34392 14.7566 5.36735 14.7978 5.39932C14.839 5.43128 14.8735 5.47116 14.8994 5.51664C14.9211 5.55823 14.9461 5.59799 14.9742 5.63552C15.1475 5.86919 15.4001 6.0306 15.684 6.08905C15.9679 6.1475 16.2632 6.09891 16.5138 5.95254C16.5588 5.92633 16.6084 5.90934 16.6599 5.90253C16.7114 5.89572 16.7638 5.89923 16.8139 5.91286C16.864 5.92649 16.911 5.94997 16.9521 5.98194C16.9932 6.01391 17.0276 6.05375 17.0533 6.09915L18.9986 9.49121C19.0331 9.55145 19.0513 9.61978 19.0513 9.68934C19.0513 9.7589 19.0331 9.82724 18.9986 9.88748C18.9635 9.94402 18.9147 9.99073 18.8569 10.0233C18.7991 10.0558 18.7341 10.0732 18.6678 10.0737ZM4.2556 10.0737H2.43636C2.36697 10.074 2.29874 10.0558 2.23858 10.021C2.17842 9.98623 2.12847 9.93606 2.09377 9.87559C2.05921 9.81535 2.04102 9.74701 2.04102 9.67745C2.04102 9.6079 2.05921 9.53956 2.09377 9.47932L6.96478 0.991261C7.22253 0.539091 7.64697 0.207356 8.14611 0.0679563C8.3957 -8.27231e-05 8.65629 -0.0172539 8.91258 0.017451C9.16886 0.0521559 9.41567 0.138037 9.63852 0.270053L15.0214 3.38076C15.082 3.41532 15.1324 3.46544 15.1675 3.526C15.2026 3.58657 15.2211 3.65541 15.2211 3.72551C15.2211 3.79561 15.2026 3.86445 15.1675 3.92502C15.1324 3.98558 15.082 4.0357 15.0214 4.07026C15.0214 4.07026 13.5062 4.95086 13.4463 4.98564C13.3865 5.02042 13.2494 5.03873 13.2494 5.03873L13.0526 4.98564L11.907 5.15624C11.6515 5.44822 11.8266 5.41516 11.4534 5.51664C11.0801 5.61812 10.7996 6.0253 10.4328 5.90253L4.59819 9.87559C4.56349 9.93606 4.51354 9.98623 4.45338 10.021C4.39322 10.0558 4.32499 10.074 4.2556 10.0737ZM3.11759 9.28119H4.02721L7.53969 3.15885C7.56542 3.11344 7.59982 3.0736 7.6409 3.04163C7.68199 3.00966 7.72896 2.98618 7.77911 2.97255C7.82925 2.95892 7.88158 2.95541 7.93307 2.96222C7.98457 2.96903 8.03422 2.98603 8.07916 3.01223C8.21376 3.09099 8.3625 3.14221 8.51683 3.16292C8.67116 3.18364 8.82804 3.17345 8.97844 3.13294C9.12885 3.09243 9.26981 3.0224 9.39323 2.92688C9.51664 2.83136 9.62008 2.71222 9.69758 2.57633C9.74953 2.48569 9.83499 2.41941 9.93532 2.39194C10.0356 2.36447 10.1427 2.37805 10.2331 2.42971L13.2494 4.18518L14.037 3.72551L9.26049 0.959559C8.98983 0.80266 8.66844 0.760019 8.36662 0.840964C8.0648 0.921909 7.80712 1.11985 7.64995 1.39149L3.11759 9.28119ZM11.0443 18.7916C9.52432 18.7916 8.28787 17.369 8.28787 15.6215C8.28787 13.8739 9.52432 12.4513 11.0443 12.4513C12.5643 12.4513 13.8007 13.8739 13.8007 15.6215C13.8007 17.369 12.5643 18.7916 11.0443 18.7916ZM11.0443 13.2439C9.95748 13.2439 9.07542 14.3098 9.07542 15.6215C9.07542 16.9331 9.95748 17.9991 11.0443 17.9991C12.1311 17.9991 13.0132 16.9331 13.0132 15.6215C13.0132 14.3098 12.1311 13.2439 11.0443 13.2439Z" fill="#4FA30F"/>
<path d="M18.6678 10.0737V10.269L18.6694 10.269L18.6678 10.0737ZM7.7287 10.0737V9.87829L7.72198 9.87853L7.7287 10.0737ZM7.33493 9.78049L7.52363 9.73011L7.52354 9.72976L7.33493 9.78049ZM7.52 9.3327L7.6172 9.50211L7.61791 9.5017L7.52 9.3327ZM14.3599 5.37002L14.2656 5.1989L14.262 5.20102L14.3599 5.37002ZM14.6592 5.3304L14.7099 5.14174L14.7057 5.14071L14.6592 5.3304ZM14.8994 5.51664L15.0726 5.42619L15.0692 5.42021L14.8994 5.51664ZM14.9742 5.63552L15.131 5.51916L15.1306 5.51852L14.9742 5.63552ZM16.5138 5.95254L16.4155 5.7838L16.4153 5.78388L16.5138 5.95254ZM17.0533 6.09915L16.8834 6.19543L16.8839 6.19632L17.0533 6.09915ZM18.9986 9.49121L18.8291 9.58837L18.8292 9.5884L18.9986 9.49121ZM18.9986 9.88748L19.1646 9.99058L19.168 9.98467L18.9986 9.88748ZM4.2556 10.0737L4.25638 9.87841H4.2556V10.0737ZM2.43636 10.0737V9.87841L2.43558 9.87841L2.43636 10.0737ZM2.09377 9.87559L2.26318 9.77839L2.26318 9.77839L2.09377 9.87559ZM2.09377 9.47932L1.92437 9.38211L1.92436 9.38213L2.09377 9.47932ZM6.96478 0.991261L7.13418 1.08847L7.13446 1.08798L6.96478 0.991261ZM8.14611 0.0679563L8.09474 -0.120484L8.09357 -0.120158L8.14611 0.0679563ZM9.63852 0.270053L9.53896 0.438102L9.54079 0.439159L9.63852 0.270053ZM15.0214 3.38076L14.9237 3.54987L14.9247 3.55042L15.0214 3.38076ZM15.0214 4.07026L14.9247 3.9006L14.9233 3.9014L15.0214 4.07026ZM13.4463 4.98564L13.3482 4.81676L13.4463 4.98564ZM13.2494 5.03873L13.1986 5.22731L13.2364 5.23752L13.2753 5.23232L13.2494 5.03873ZM13.0526 4.98564L13.1034 4.79706L13.0641 4.78646L13.0238 4.79246L13.0526 4.98564ZM11.907 5.15624L11.8782 4.96305L11.8073 4.97362L11.76 5.02761L11.907 5.15624ZM10.4328 5.90253L10.4947 5.71731L10.4029 5.68658L10.3228 5.74109L10.4328 5.90253ZM4.59819 9.87559L4.48826 9.71415L4.45113 9.73943L4.42877 9.77839L4.59819 9.87559ZM3.11759 9.28119L2.94823 9.1839L2.78014 9.4765H3.11759V9.28119ZM4.02721 9.28119V9.4765H4.14033L4.19662 9.37838L4.02721 9.28119ZM7.53969 3.15885L7.70911 3.25604L7.70963 3.25512L7.53969 3.15885ZM8.07916 3.01223L8.17781 2.84366L8.17753 2.84349L8.07916 3.01223ZM9.69758 2.57633L9.52813 2.47921L9.52793 2.47957L9.69758 2.57633ZM10.2331 2.42971L10.3314 2.2609L10.33 2.26013L10.2331 2.42971ZM13.2494 4.18518L13.1512 4.35399L13.2496 4.41124L13.3479 4.35386L13.2494 4.18518ZM14.037 3.72551L14.1354 3.89419L14.4256 3.72484L14.1349 3.55649L14.037 3.72551ZM9.26049 0.959559L9.16254 1.12853L9.16262 1.12858L9.26049 0.959559ZM7.64995 1.39149L7.48089 1.29368L7.48059 1.2942L7.64995 1.39149ZM18.6678 9.87841H7.7287V10.269H18.6678V9.87841ZM7.72198 9.87853C7.67749 9.88006 7.63367 9.86641 7.59764 9.83957L7.36434 10.1529C7.47131 10.2325 7.60211 10.2735 7.73543 10.2689L7.72198 9.87853ZM7.59764 9.83957C7.56159 9.81272 7.5354 9.7742 7.52363 9.73012L7.14622 9.83085C7.18061 9.95967 7.25738 10.0732 7.36434 10.1529L7.59764 9.83957ZM7.52354 9.72976C7.51191 9.68654 7.51489 9.64066 7.53195 9.59938L7.17094 9.45017C7.12101 9.57098 7.11237 9.70498 7.14632 9.83121L7.52354 9.72976ZM7.53195 9.59938C7.549 9.55812 7.57908 9.52398 7.6172 9.50211L7.42281 9.16329C7.30938 9.22836 7.22088 9.32934 7.17094 9.45017L7.53195 9.59938ZM7.61791 9.5017L14.4578 5.53902L14.262 5.20102L7.42209 9.1637L7.61791 9.5017ZM14.4541 5.5411C14.5026 5.5144 14.5591 5.50695 14.6126 5.52008L14.7057 5.14071C14.5569 5.10419 14.3999 5.12501 14.2657 5.19894L14.4541 5.5411ZM14.6084 5.519C14.6336 5.52578 14.6573 5.53755 14.6781 5.55367L14.9175 5.24497C14.8558 5.19715 14.7853 5.16206 14.7099 5.14179L14.6084 5.519ZM14.6781 5.55367C14.6989 5.56979 14.7164 5.58997 14.7295 5.61307L15.0692 5.42021C15.0307 5.35236 14.9791 5.29278 14.9175 5.24497L14.6781 5.55367ZM14.7262 5.60704C14.7528 5.65792 14.7834 5.70658 14.8178 5.75253L15.1306 5.51852C15.1088 5.48939 15.0894 5.45854 15.0725 5.42624L14.7262 5.60704ZM14.8173 5.75188C15.0191 6.02396 15.3135 6.21217 15.6446 6.28035L15.7234 5.89775C15.4868 5.84902 15.2759 5.71442 15.131 5.51916L14.8173 5.75188ZM15.6446 6.28035C15.9758 6.34853 16.3202 6.29183 16.6124 6.12119L16.4153 5.78388C16.2063 5.906 15.96 5.94647 15.7234 5.89775L15.6446 6.28035ZM16.6122 6.12127C16.6348 6.10809 16.6597 6.09957 16.6855 6.09616L16.6343 5.7089C16.5571 5.71911 16.4828 5.74458 16.4155 5.7838L16.6122 6.12127ZM16.6855 6.09616C16.7113 6.09275 16.7375 6.0945 16.7627 6.10134L16.8651 5.72438C16.79 5.70396 16.7115 5.6987 16.6343 5.7089L16.6855 6.09616ZM16.7627 6.10134C16.7878 6.10817 16.8114 6.11996 16.8322 6.13608L17.072 5.82779C17.0106 5.77997 16.9403 5.74481 16.8651 5.72438L16.7627 6.10134ZM16.8322 6.13608C16.8529 6.15221 16.8703 6.17237 16.8834 6.19543L17.2233 6.00288C17.1849 5.93513 17.1335 5.87561 17.072 5.82779L16.8322 6.13608ZM16.8839 6.19632L18.8291 9.58837L19.168 9.39404L17.2227 6.00199L16.8839 6.19632ZM18.8292 9.5884C18.8467 9.61901 18.856 9.65383 18.856 9.68934H19.2466C19.2466 9.58574 19.2195 9.48388 19.168 9.39401L18.8292 9.5884ZM18.856 9.68934C18.856 9.72486 18.8467 9.75967 18.8292 9.79028L19.168 9.98467C19.2195 9.8948 19.2466 9.79295 19.2466 9.68934H18.856ZM18.8326 9.78444C18.8148 9.81314 18.7902 9.83672 18.7611 9.8531L18.9527 10.1935C19.0393 10.1447 19.1121 10.0749 19.1645 9.99052L18.8326 9.78444ZM18.7611 9.8531C18.732 9.86947 18.6994 9.87815 18.6662 9.87842L18.6694 10.269C18.7687 10.2682 18.8662 10.2422 18.9527 10.1935L18.7611 9.8531ZM4.2556 9.87841H2.43636V10.269H4.2556V9.87841ZM2.43558 9.87841C2.40085 9.87855 2.36662 9.86946 2.33636 9.85195L2.1408 10.1901C2.23086 10.2422 2.33309 10.2694 2.43714 10.269L2.43558 9.87841ZM2.33636 9.85195C2.3061 9.83445 2.28081 9.80911 2.26318 9.77839L1.92436 9.97278C1.97612 10.063 2.05075 10.138 2.1408 10.1901L2.33636 9.85195ZM2.26318 9.77839C2.24562 9.74778 2.23633 9.71297 2.23633 9.67745H1.8457C1.8457 9.78106 1.8728 9.88291 1.92436 9.97278L2.26318 9.77839ZM2.23633 9.67745C2.23633 9.64194 2.24562 9.60712 2.26318 9.57651L1.92436 9.38213C1.8728 9.472 1.8457 9.57385 1.8457 9.67745H2.23633ZM2.26317 9.57653L7.13418 1.08847L6.79538 0.894047L1.92437 9.38211L2.26317 9.57653ZM7.13446 1.08798C7.36685 0.680304 7.74931 0.381561 8.19864 0.25607L8.09357 -0.120158C7.54463 0.0331514 7.07821 0.397878 6.7951 0.894538L7.13446 1.08798ZM8.19747 0.256393C8.42182 0.195236 8.65603 0.179806 8.88637 0.210997L8.93879 -0.176095C8.65656 -0.214314 8.36958 -0.195402 8.09474 -0.12048L8.19747 0.256393ZM8.88637 0.210997C9.1167 0.242188 9.33858 0.319381 9.53897 0.438092L9.73807 0.102014C9.49276 -0.043306 9.22102 -0.137876 8.93879 -0.176095L8.88637 0.210997ZM9.54079 0.439159L14.9237 3.54986L15.1192 3.21165L9.73624 0.100947L9.54079 0.439159ZM14.9247 3.55042C14.9552 3.5678 14.9807 3.59311 14.9985 3.62387L15.3365 3.42813C15.2842 3.33777 15.2089 3.26283 15.1182 3.2111L14.9247 3.55042ZM14.9985 3.62387C15.0163 3.65465 15.0257 3.68972 15.0257 3.72551H15.4164C15.4164 3.6211 15.3889 3.51849 15.3365 3.42813L14.9985 3.62387ZM15.0257 3.72551C15.0257 3.7613 15.0163 3.79637 14.9985 3.82715L15.3365 4.02289C15.3889 3.93253 15.4164 3.82992 15.4164 3.72551H15.0257ZM14.9985 3.82715C14.9807 3.85791 14.9552 3.88321 14.9247 3.9006L15.1182 4.23992C15.2089 4.18819 15.2842 4.11325 15.3365 4.02289L14.9985 3.82715ZM15.0214 4.07026C14.9233 3.9014 14.9233 3.9014 14.9233 3.90141C14.9233 3.90141 14.9232 3.90142 14.9232 3.90144C14.9232 3.90146 14.9231 3.9015 14.923 3.90156C14.9228 3.90166 14.9226 3.90182 14.9222 3.90203C14.9215 3.90246 14.9204 3.90309 14.9189 3.90392C14.9161 3.90559 14.9118 3.90807 14.9063 3.91129C14.8952 3.91775 14.8788 3.92723 14.8581 3.9393C14.8165 3.96345 14.7571 3.99798 14.6856 4.03953C14.5426 4.12263 14.3513 4.23379 14.1582 4.34604C13.7719 4.57055 13.3781 4.79938 13.3482 4.81676L13.5444 5.15452C13.5744 5.13712 13.9682 4.90827 14.3545 4.68378C14.5476 4.57153 14.7389 4.46037 14.8819 4.37727C14.9534 4.33572 15.0128 4.30118 15.0543 4.27704C15.0751 4.26496 15.0914 4.25549 15.1025 4.24903C15.1081 4.2458 15.1124 4.24332 15.1152 4.24166C15.1167 4.24082 15.1177 4.24019 15.1185 4.23977C15.1188 4.23956 15.1191 4.2394 15.1193 4.23929C15.1194 4.23924 15.1195 4.2392 15.1195 4.23917C15.1195 4.23916 15.1195 4.23915 15.1196 4.23914C15.1196 4.23913 15.1196 4.23913 15.0214 4.07026ZM13.3482 4.81676C13.3518 4.81469 13.348 4.81722 13.3324 4.82209C13.3186 4.82638 13.302 4.83052 13.2846 4.83423C13.2676 4.83788 13.2518 4.84069 13.2402 4.84259C13.2345 4.84353 13.2299 4.84421 13.227 4.84465C13.2256 4.84486 13.2245 4.84501 13.2239 4.84509C13.2236 4.84513 13.2234 4.84516 13.2234 4.84517C13.2233 4.84517 13.2233 4.84517 13.2234 4.84517C13.2234 4.84516 13.2234 4.84516 13.2235 4.84516C13.2235 4.84515 13.2235 4.84515 13.2235 4.84515C13.2235 4.84515 13.2235 4.84514 13.2235 4.84514C13.2236 4.84514 13.2236 4.84514 13.2494 5.03873C13.2753 5.23232 13.2753 5.23232 13.2753 5.23232C13.2754 5.23232 13.2754 5.23231 13.2754 5.23231C13.2754 5.23231 13.2754 5.2323 13.2755 5.2323C13.2755 5.23229 13.2756 5.23228 13.2757 5.23227C13.2759 5.23225 13.2761 5.23222 13.2763 5.23219C13.2768 5.23213 13.2774 5.23204 13.2781 5.23194C13.2795 5.23174 13.2815 5.23146 13.2839 5.23111C13.2887 5.2304 13.2953 5.22939 13.3034 5.22807C13.3194 5.22544 13.3416 5.2215 13.3663 5.21622C13.4072 5.20748 13.4846 5.18927 13.5444 5.15452L13.3482 4.81676ZM13.3003 4.85015L13.1034 4.79706L13.0017 5.17422L13.1986 5.22731L13.3003 4.85015ZM13.0238 4.79246L11.8782 4.96305L11.9358 5.34942L13.0813 5.17882L13.0238 4.79246ZM11.76 5.02761C11.6895 5.10824 11.6467 5.16874 11.6164 5.21607C11.6032 5.23659 11.5893 5.25969 11.5838 5.26865C11.5759 5.2812 11.5744 5.28267 11.5756 5.28133C11.5855 5.26966 11.5955 5.26851 11.5744 5.27678C11.5462 5.28786 11.4982 5.30205 11.4021 5.32817L11.5046 5.70511C11.5952 5.68049 11.6653 5.66076 11.7172 5.64037C11.7762 5.61718 11.8284 5.58701 11.8731 5.53443C11.8916 5.51262 11.9057 5.49066 11.9154 5.475C11.9274 5.45575 11.9331 5.44587 11.9452 5.42684C11.9656 5.39508 11.9968 5.35022 12.054 5.28486L11.76 5.02761ZM11.4021 5.32817C11.2839 5.36032 11.1788 5.415 11.0878 5.46937C11.0421 5.49668 10.9979 5.52525 10.9569 5.55182C10.915 5.57902 10.8769 5.60385 10.839 5.6269C10.6829 5.72207 10.5894 5.74899 10.4947 5.71731L10.3708 6.08775C10.643 6.17883 10.8732 6.06355 11.0423 5.96045C11.0858 5.93393 11.1291 5.9057 11.1694 5.87958C11.2107 5.85285 11.2494 5.82787 11.2883 5.80465C11.3664 5.75797 11.4362 5.7237 11.5046 5.70511L11.4021 5.32817ZM10.3228 5.74109L4.48826 9.71415L4.70812 10.037L10.5427 6.06397L10.3228 5.74109ZM4.42877 9.77839C4.41115 9.80911 4.38586 9.83445 4.35559 9.85195L4.55116 10.1901C4.64121 10.138 4.71584 10.063 4.7676 9.97278L4.42877 9.77839ZM4.35559 9.85195C4.32533 9.86946 4.29111 9.87855 4.25638 9.87841L4.25482 10.269C4.35887 10.2694 4.4611 10.2422 4.55116 10.1901L4.35559 9.85195ZM3.11759 9.4765H4.02721V9.08587H3.11759V9.4765ZM4.19662 9.37838L7.7091 3.25604L7.37028 3.06165L3.8578 9.18399L4.19662 9.37838ZM7.70963 3.25512C7.7227 3.23205 7.74012 3.2119 7.76085 3.19577L7.52096 2.88748C7.45951 2.9353 7.40814 2.99482 7.36976 3.06257L7.70963 3.25512ZM7.76085 3.19577C7.78157 3.17965 7.80519 3.16786 7.83033 3.16103L7.72788 2.78408C7.65274 2.8045 7.58242 2.83966 7.52096 2.88748L7.76085 3.19577ZM7.83033 3.16103C7.85547 3.1542 7.88168 3.15244 7.90747 3.15585L7.95868 2.7686C7.88147 2.75839 7.80303 2.76365 7.72788 2.78408L7.83033 3.16103ZM7.90747 3.15585C7.93326 3.15926 7.95818 3.16778 7.9808 3.18096L8.17753 2.84349C8.11026 2.80427 8.03588 2.7788 7.95868 2.7686L7.90747 3.15585ZM7.98052 3.1808C8.1374 3.27261 8.31084 3.33234 8.49084 3.3565L8.54281 2.96935C8.41416 2.95208 8.29011 2.90938 8.17781 2.84366L7.98052 3.1808ZM8.49084 3.3565C8.67085 3.38066 8.85383 3.36877 9.02924 3.32153L8.92765 2.94435C8.80225 2.97812 8.67147 2.98662 8.54281 2.96935L8.49084 3.3565ZM9.02924 3.32153C9.20464 3.27429 9.36896 3.19264 9.51277 3.08133L9.27368 2.77243C9.17066 2.85216 9.05305 2.91057 8.92765 2.94435L9.02924 3.32153ZM9.51277 3.08133C9.65658 2.97003 9.77702 2.83127 9.86724 2.6731L9.52793 2.47957C9.46313 2.59317 9.37671 2.69268 9.27368 2.77243L9.51277 3.08133ZM9.86704 2.67345C9.89343 2.6274 9.93662 2.59408 9.98689 2.58032L9.88374 2.20356C9.73336 2.24473 9.60563 2.34398 9.52813 2.47921L9.86704 2.67345ZM9.98689 2.58032C10.0371 2.56656 10.0908 2.57333 10.1362 2.5993L10.33 2.26013C10.1946 2.18277 10.0342 2.16238 9.88374 2.20356L9.98689 2.58032ZM10.1349 2.59852L13.1512 4.35399L13.3477 4.01638L10.3314 2.26091L10.1349 2.59852ZM13.3479 4.35386L14.1354 3.89419L13.9385 3.55683L13.151 4.0165L13.3479 4.35386ZM14.1349 3.55649L9.35837 0.79054L9.16262 1.12858L13.9391 3.89453L14.1349 3.55649ZM9.35844 0.790585C9.04291 0.607674 8.66807 0.557902 8.31603 0.652318L8.41721 1.02961C8.66881 0.962135 8.93675 0.997646 9.16254 1.12853L9.35844 0.790585ZM8.31603 0.652318C7.96401 0.746726 7.66384 0.977486 7.4809 1.29368L7.819 1.48931C7.9504 1.26222 8.16559 1.09709 8.41721 1.02961L8.31603 0.652318ZM7.48059 1.2942L2.94823 9.1839L3.28695 9.37848L7.81931 1.48878L7.48059 1.2942ZM11.0443 18.5963C9.65696 18.5963 8.48318 17.2877 8.48318 15.6215H8.09255C8.09255 17.4503 9.39168 18.9869 11.0443 18.9869V18.5963ZM8.48318 15.6215C8.48318 13.9552 9.65696 12.6466 11.0443 12.6466V12.256C9.39168 12.256 8.09255 13.7926 8.09255 15.6215H8.48318ZM11.0443 12.6466C12.4316 12.6466 13.6054 13.9552 13.6054 15.6215H13.996C13.996 13.7926 12.6969 12.256 11.0443 12.256V12.6466ZM13.6054 15.6215C13.6054 17.2877 12.4316 18.5963 11.0443 18.5963V18.9869C12.6969 18.9869 13.996 17.4503 13.996 15.6215H13.6054ZM11.0443 13.0486C9.81671 13.0486 8.88011 14.2381 8.88011 15.6215H9.27073C9.27073 14.3815 10.0982 13.4392 11.0443 13.4392V13.0486ZM8.88011 15.6215C8.88011 17.0048 9.81671 18.1944 11.0443 18.1944V17.8038C10.0982 17.8038 9.27073 16.8614 9.27073 15.6215H8.88011ZM11.0443 18.1944C12.2719 18.1944 13.2085 17.0048 13.2085 15.6215H12.8179C12.8179 16.8614 11.9903 17.8038 11.0443 17.8038V18.1944ZM13.2085 15.6215C13.2085 14.2381 12.2719 13.0486 11.0443 13.0486V13.4392C11.9904 13.4392 12.8179 14.3815 12.8179 15.6215H13.2085Z" fill="#4FA30F" mask="url(#path-3-inside-2_29677_17797)"/>
<path d="M18.7876 9.33712L18.7594 9.28858L16.9279 6.14087L16.9277 6.14052C16.9083 6.10699 16.8825 6.0775 16.8515 6.0538L16.9108 5.97624L16.8515 6.0538C16.8205 6.03009 16.785 6.01264 16.7471 6.00251C16.7091 5.99237 16.6695 5.98975 16.6305 5.99482C16.5916 5.99988 16.554 6.01252 16.5201 6.03195C16.5201 6.03196 16.5201 6.03197 16.5201 6.03199L16.4715 5.94726C16.2203 6.09152 15.9242 6.1394 15.6397 6.0818C15.3551 6.02419 15.1019 5.86512 14.9281 5.63483L18.7876 9.33712ZM18.7876 9.33712H18.8438H19.7517H19.9218L19.836 9.19022L16.9782 4.29682L16.978 4.29654C16.8073 4.00645 16.5276 3.79536 16.2003 3.70908C15.8731 3.62279 15.5246 3.66822 15.2311 3.83554L15.2309 3.83561L13.3323 4.92127L13.3323 4.9213L5.91938 9.15467L5.59989 9.33712H5.96781H7.54672H7.57265L7.59517 9.32426L14.3597 5.45855L18.7876 9.33712ZM20.4706 9.98146L20.4628 9.98142L20.455 9.98263C20.4309 9.98639 20.4063 9.98674 20.382 9.98368C20.2768 9.94908 20.1674 9.92867 20.0566 9.92301L20.0567 9.92288H20.0517L18.6149 9.92288L18.6145 9.92288C18.5619 9.92309 18.5103 9.90955 18.4649 9.88371C18.4194 9.85788 18.3819 9.82071 18.3558 9.77607C18.3558 9.77606 18.3558 9.77606 18.3558 9.77605L16.5835 6.7377L16.5436 6.66935L16.4685 6.69419C16.1191 6.80968 15.7431 6.82091 15.3873 6.72647C15.0315 6.63203 14.7119 6.43614 14.468 6.16336L14.4154 6.10446L14.3468 6.14365L7.79931 9.88438C7.75318 9.90915 7.70155 9.92239 7.64894 9.92288H4.49154V9.92283L4.48823 9.92294C4.42089 9.92522 4.35486 9.90487 4.30091 9.86537L4.24354 9.94373L4.30091 9.86537C4.24698 9.82588 4.20834 9.76964 4.19105 9.70596L4.191 9.70577C4.17393 9.64337 4.17827 9.57713 4.20339 9.51738C4.22852 9.45761 4.27308 9.40757 4.33031 9.3753L4.33071 9.37507L14.937 3.32568L14.9371 3.32565C15.368 3.07947 15.8804 3.01271 16.3612 3.14018C16.842 3.26764 17.2517 3.57877 17.5003 4.00475L20.7291 9.54251L20.7292 9.54264C20.7589 9.59332 20.7724 9.65154 20.7682 9.70978C20.764 9.76799 20.7422 9.82373 20.7056 9.86977C20.6777 9.9047 20.6421 9.93296 20.6013 9.95235C20.5606 9.97173 20.5159 9.9817 20.4706 9.98146Z" fill="#4FA30F" stroke="#4FA30F" stroke-width="0.195312"/>
<path d="M3.80599 19.6127L3.82166 19.6913H3.90176H18.0988H18.1789L18.1945 19.6127C18.2677 19.2457 18.4448 18.9092 18.7034 18.6447C18.9619 18.3803 19.2905 18.1998 19.6482 18.1252L19.7259 18.109V18.0296V13.1369V13.0575L19.6482 13.0413C19.2905 12.9667 18.9619 12.7861 18.7034 12.5217C18.4448 12.2573 18.2677 11.9207 18.1945 11.5537L18.1789 11.4752H18.0988H3.90176H3.82166L3.80599 11.5537C3.7328 11.9207 3.55574 12.2573 3.29716 12.5217C3.0386 12.7861 2.70998 12.9667 2.35232 13.0413L2.2746 13.0575V13.1369V18.0296V18.109L2.35232 18.1252C2.70998 18.1998 3.0386 18.3803 3.29716 18.6447C3.55574 18.9092 3.7328 19.2457 3.80599 19.6127ZM18.4517 20.2981H3.5488C3.4714 20.2981 3.39672 20.2667 3.34131 20.21C3.28582 20.1533 3.25428 20.0758 3.25428 19.9947C3.25428 19.6504 3.12055 19.3198 2.88184 19.0757C2.64305 18.8315 2.31873 18.6939 1.98007 18.6939C1.90267 18.6939 1.82799 18.6625 1.77258 18.6058C1.7171 18.5491 1.68555 18.4717 1.68555 18.3905V12.776C1.68555 12.6948 1.7171 12.6174 1.77258 12.5607C1.82799 12.504 1.90267 12.4726 1.98007 12.4726C2.31873 12.4726 2.64305 12.335 2.88184 12.0908C3.12055 11.8467 3.25428 11.5161 3.25428 11.1718C3.25428 11.0906 3.28582 11.0132 3.34131 10.9565C3.39672 10.8998 3.4714 10.8684 3.5488 10.8684H18.4517C18.5291 10.8684 18.6038 10.8998 18.6592 10.9565C18.7147 11.0132 18.7462 11.0906 18.7462 11.1718C18.7462 11.5161 18.88 11.8467 19.1187 12.0908C19.3575 12.335 19.6818 12.4726 20.0204 12.4726C20.0978 12.4726 20.1725 12.504 20.2279 12.5607C20.2834 12.6174 20.315 12.6948 20.315 12.776V18.3905C20.315 18.4717 20.2834 18.5491 20.2279 18.6058C20.1725 18.6625 20.0978 18.6939 20.0204 18.6939C19.6818 18.6939 19.3575 18.8315 19.1187 19.0757C18.88 19.3198 18.7462 19.6504 18.7462 19.9947C18.7462 20.0758 18.7147 20.1533 18.6592 20.21C18.6038 20.2667 18.5291 20.2981 18.4517 20.2981Z" fill="#4FA30F" stroke="#4FA30F" stroke-width="0.195312"/>
<path d="M1.96429 21.9022L1.96353 21.9022C1.79504 21.9035 1.62729 21.8796 1.4658 21.8314L1.4658 21.8314L1.46409 21.8309C1.07163 21.7215 0.72561 21.4863 0.478872 21.1612C0.232131 20.8361 0.0982345 20.4389 0.0976562 20.0303L0.0976562 11.3652C0.0976562 10.8687 0.29438 10.3926 0.644469 10.0416C0.994549 9.69058 1.46931 9.49344 1.96429 9.49344L20.0357 9.49345L20.0363 9.49344C20.2035 9.49239 20.37 9.51623 20.5302 9.56418L20.5302 9.5642L20.5322 9.56474C20.9253 9.67351 21.2722 9.90842 21.5196 10.2336C21.7671 10.5588 21.9015 10.9563 21.9023 11.3654V20.0304C21.9023 20.5269 21.7056 21.0031 21.3555 21.354C21.0055 21.705 20.5307 21.9022 20.0357 21.9022L1.96429 21.9022ZM0.688057 20.0304L0.688059 20.0308C0.689113 20.3098 0.781092 20.5807 0.950022 20.8025C1.1187 21.0238 1.35489 21.184 1.6227 21.2586C1.73338 21.2922 1.84839 21.3095 1.96406 21.3097H1.96429H20.0357C20.3743 21.3097 20.6989 21.1749 20.9382 20.935C21.1775 20.695 21.3119 20.3697 21.3119 20.0304V11.3652V11.3648C21.3109 11.0859 21.2189 10.8149 21.05 10.5932C20.8812 10.3717 20.645 10.2115 20.377 10.137C20.2665 10.104 20.1518 10.0868 20.0365 10.0859H20.0357H1.96429C1.62573 10.0859 1.30109 10.2207 1.06177 10.4607C0.822456 10.7006 0.688058 11.026 0.688058 11.3652L0.688057 20.0304Z" fill="#4FA30F" stroke="#4FA30F" stroke-width="0.195312"/>
<path d="M18.4517 20.2981H3.5488C3.4714 20.2981 3.39672 20.2666 3.34131 20.21C3.28582 20.1533 3.25428 20.0758 3.25428 19.9947C3.25428 19.6504 3.12055 19.3198 2.88184 19.0757C2.64305 18.8315 2.31873 18.6939 1.98007 18.6939C1.90267 18.6939 1.82799 18.6625 1.77258 18.6058C1.7171 18.5491 1.68555 18.4717 1.68555 18.3905V12.776C1.68555 12.6948 1.7171 12.6174 1.77258 12.5607C1.82799 12.504 1.90267 12.4726 1.98007 12.4726C2.31873 12.4726 2.64305 12.335 2.88184 12.0908C3.12055 11.8467 3.25428 11.5161 3.25428 11.1718C3.25428 11.0906 3.28582 11.0132 3.34131 10.9565C3.39672 10.8998 3.4714 10.8684 3.5488 10.8684H18.4517C18.5291 10.8684 18.6038 10.8998 18.6592 10.9565C18.7147 11.0132 18.7462 11.0906 18.7462 11.1718C18.7462 11.5161 18.88 11.8467 19.1187 12.0908C19.3575 12.335 19.6818 12.4726 20.0204 12.4726C20.0978 12.4726 20.1725 12.504 20.2279 12.5607C20.2834 12.6174 20.315 12.6948 20.315 12.776V18.3905C20.315 18.4717 20.2834 18.5491 20.2279 18.6058C20.1725 18.6625 20.0978 18.6939 20.0204 18.6939C19.6818 18.6939 19.3575 18.8315 19.1187 19.0757C18.88 19.3198 18.7462 19.6504 18.7462 19.9947C18.7462 20.0758 18.7147 20.1533 18.6592 20.21C18.6038 20.2666 18.5291 20.2981 18.4517 20.2981Z" fill="#4FA30F" stroke="#4FA30F" stroke-width="0.195312"/>
<path d="M13.3971 15.5635C13.3971 17.236 12.0558 18.5891 10.4044 18.5891C8.75306 18.5891 7.41172 17.236 7.41172 15.5635C7.41172 13.8911 8.75306 12.5379 10.4044 12.5379C12.0558 12.5379 13.3971 13.8911 13.3971 15.5635Z" fill="white" stroke="#4FA30F" stroke-width="0.3"/>
<path d="M7.50084 3.20883L4.00293 9.30091L13.2079 4.18542L10.4004 2.51126C10.069 2.21363 9.83277 2.38725 9.75607 2.51126C9.24979 3.25533 8.46736 3.20882 8.09916 3.02281C7.8046 2.87399 7.63891 2.97631 7.50084 3.20883Z" fill="#4FA30F" stroke="#4FA30F"/>
</svg>
