<svg width="27" height="28" viewBox="0 0 27 28" fill="none" xmlns="http://www.w3.org/2000/svg">
<path d="M6.77061 27.0964H2.16325C1.47405 27.0964 0.916016 26.5447 0.916016 25.8633V19.0143C0.916016 18.3329 1.47405 17.7812 2.16325 17.7812H6.76823C7.45743 17.7812 8.01546 18.3329 8.01546 19.0143V25.8633C8.01546 26.5447 7.45743 27.0964 6.77061 27.0964Z" fill="white"/>
<path d="M15.8522 27.0952H11.2472C10.558 27.0952 10 26.5435 10 25.8621V14.2106C10 13.5292 10.558 12.9775 11.2472 12.9775H15.8522C16.5414 12.9775 17.0994 13.5292 17.0994 14.2106V25.8621C17.0994 26.5435 16.5414 27.0952 15.8522 27.0952ZM24.9358 27.0952H20.3308C19.6416 27.0952 19.0836 26.5435 19.0836 25.8621V7.43228C19.0836 6.75091 19.6416 6.19922 20.3308 6.19922H24.9358C25.625 6.19922 26.183 6.75091 26.183 7.43228V25.8621C26.183 26.5435 25.625 27.0952 24.9358 27.0952Z" fill="white"/>
<path d="M8.99926 0.902344H16.7855C16.9835 0.902344 17.1456 1.06267 17.1456 1.25835V9.22726C17.1456 9.5479 16.7521 9.70351 16.528 9.47481L14.4318 7.32934C14.3745 7.27009 14.2982 7.23249 14.2159 7.22301C14.1336 7.21354 14.0505 7.2328 13.981 7.27747L3.16136 14.0888C2.82511 14.301 2.44116 13.8931 2.67964 13.5772L10.3467 3.38968C10.4564 3.2435 10.4373 3.03839 10.3013 2.91579L8.75602 1.52241C8.51516 1.30315 8.67016 0.902344 8.99926 0.902344Z" fill="#0685CF"/>
<path d="M15.8522 12.9775H11.2472C10.558 12.9775 10 13.5292 10 14.2106V25.8621C10 26.5435 10.558 27.0952 11.2472 27.0952H12.9285C14.389 26.6208 15.7888 25.9799 17.0994 25.1855V14.2106C17.0994 13.5292 16.5414 12.9775 15.8522 12.9775ZM26.183 12.2678V7.43228C26.183 6.75091 25.625 6.19922 24.9358 6.19922H20.3308C19.6416 6.19922 19.0836 6.75091 19.0836 7.43228V23.8015C22.6846 20.9606 25.2625 16.9101 26.183 12.2678Z" fill="white"/>
<path d="M20.5593 6.19922H20.328C19.6388 6.19922 19.0808 6.75091 19.0808 7.43228V10.2002C19.7213 8.92449 20.2172 7.58268 20.5593 6.19922ZM16.9226 13.5858C16.7055 13.2227 16.3097 12.9775 15.8518 12.9775H11.2468C10.5576 12.9775 9.99959 13.5292 9.99959 14.2106V19.1357C12.7134 17.8249 15.0768 15.9152 16.9226 13.5858ZM6.77061 17.7801H2.16325C1.47405 17.7801 0.916016 18.3318 0.916016 19.0131V21.1067C1.04718 21.1091 1.17834 21.1162 1.3095 21.1162C3.66326 21.1162 5.92164 20.7083 8.01546 19.9633V19.0131C8.01546 18.3318 7.45743 17.7801 6.77061 17.7801Z" fill="white"/>
<path d="M3.10938 13.0019C8.72788 10.979 13.154 6.51123 15.088 0.902344H8.99736C8.66826 0.902344 8.51325 1.30079 8.75411 1.52005L10.2994 2.91343C10.4354 3.03603 10.4568 3.24115 10.3448 3.38732L3.10938 13.0019Z" fill="#0685CF"/>
</svg>
