<svg width="16" height="16" viewBox="0 0 16 16" fill="none" xmlns="http://www.w3.org/2000/svg">
<rect width="15.1634" height="15.2944" rx="3.85714" fill="#0F50A4" fill-opacity="0.1"/>
<path d="M7.26208 5.46428V9.05464L5.69351 7.48607C5.56816 7.36071 5.36244 7.36071 5.23708 7.48607C5.11173 7.61142 5.11173 7.81392 5.23708 7.93928L7.3553 10.0575C7.48066 10.1829 7.68316 10.1829 7.80851 10.0575L9.92673 7.93928C10.0521 7.81392 10.0521 7.61142 9.92673 7.48607C9.86667 7.42588 9.78514 7.39205 9.70012 7.39205C9.6151 7.39205 9.53357 7.42588 9.47351 7.48607L7.90494 9.05464V5.46428C7.90494 5.2875 7.7603 5.14285 7.58351 5.14285C7.40673 5.14285 7.26208 5.2875 7.26208 5.46428Z" fill="#0F50A4"/>
</svg>
