<svg width="328" height="321" viewBox="0 0 328 321" fill="none" xmlns="http://www.w3.org/2000/svg">
<mask id="mask0" mask-type="alpha" maskUnits="userSpaceOnUse" x="0" y="0" width="300" height="321">
<path d="M2.2779 125.13C2.2779 125.13 -10.795 181.164 25.6948 229.992C62.1847 278.819 125.891 297.808 177.071 314.516C228.252 331.225 276.189 311.926 294.172 268.916C312.156 225.906 275.829 202.735 267.822 146.562C259.815 90.3889 266.188 74.2111 228.848 31.4381C191.509 -11.335 114.828 -10.3136 62.9854 33.5951C11.143 77.5039 2.2779 125.13 2.2779 125.13Z" fill="#0F50A4"/>
<path opacity="0.7" d="M2.2779 125.13C2.2779 125.13 -10.795 181.164 25.6948 229.992C62.1847 278.819 125.891 297.808 177.071 314.516C228.252 331.225 276.189 311.926 294.172 268.916C312.156 225.906 275.829 202.735 267.822 146.562C259.815 90.3889 266.188 74.2111 228.848 31.4381C191.509 -11.335 114.828 -10.3136 62.9854 33.5951C11.143 77.5039 2.2779 125.13 2.2779 125.13Z" fill="white"/>
</mask>
<g mask="url(#mask0)">
<rect x="-15" y="-5" width="342" height="280" fill="#0F50A4"/>
</g>
<g opacity="0.7">
<mask id="mask1" mask-type="alpha" maskUnits="userSpaceOnUse" x="0" y="0" width="300" height="321">
<path d="M2.2779 125.13C2.2779 125.13 -10.795 181.164 25.6948 229.992C62.1847 278.819 125.891 297.808 177.071 314.516C228.252 331.225 276.189 311.926 294.172 268.916C312.156 225.906 275.829 202.735 267.822 146.562C259.815 90.3889 266.188 74.2111 228.848 31.4381C191.509 -11.335 114.828 -10.3136 62.9854 33.5951C11.143 77.5039 2.2779 125.13 2.2779 125.13Z" fill="#0F50A4"/>
<path opacity="0.7" d="M2.2779 125.13C2.2779 125.13 -10.795 181.164 25.6948 229.992C62.1847 278.819 125.891 297.808 177.071 314.516C228.252 331.225 276.189 311.926 294.172 268.916C312.156 225.906 275.829 202.735 267.822 146.562C259.815 90.3889 266.188 74.2111 228.848 31.4381C191.509 -11.335 114.828 -10.3136 62.9854 33.5951C11.143 77.5039 2.2779 125.13 2.2779 125.13Z" fill="white"/>
</mask>
<g mask="url(#mask1)">
<rect x="-15" y="-5" width="342" height="280" fill="white"/>
</g>
</g>
<path d="M259.497 124.918H165.761V192.615H259.497V124.918Z" fill="white"/>
<path opacity="0.17" d="M259.955 124.34H257.776V193.13H259.955V124.34Z" fill="black"/>
<path opacity="0.17" d="M259.955 165.93H257.776V192.572H259.955V165.93Z" fill="black"/>
<path d="M259.618 124.004H165.387V127.688H259.618V124.004Z" fill="#0F50A4" stroke="#263238" stroke-miterlimit="10"/>
<path d="M259.497 124.918H165.761V192.615H259.497V124.918Z" stroke="#263238" stroke-linecap="round" stroke-linejoin="round"/>
<g opacity="0.17">
<path opacity="0.17" d="M214.599 131.232H208.043C207.967 131.233 207.891 131.219 207.821 131.19C207.75 131.161 207.686 131.119 207.632 131.065C207.578 131.011 207.536 130.947 207.507 130.876C207.478 130.806 207.464 130.73 207.465 130.654C207.465 130.501 207.526 130.354 207.634 130.245C207.743 130.137 207.89 130.076 208.043 130.076H214.599C214.752 130.076 214.899 130.137 215.007 130.245C215.116 130.354 215.177 130.501 215.177 130.654C215.177 130.808 215.116 130.955 215.007 131.063C214.899 131.171 214.752 131.232 214.599 131.232Z" fill="black"/>
<path opacity="0.17" d="M227.716 131.232H221.154C221.001 131.232 220.854 131.171 220.746 131.063C220.637 130.955 220.576 130.808 220.576 130.654C220.576 130.501 220.637 130.354 220.746 130.245C220.854 130.137 221.001 130.076 221.154 130.076H227.716C227.792 130.076 227.867 130.091 227.938 130.12C228.008 130.149 228.071 130.192 228.125 130.245C228.179 130.299 228.221 130.363 228.25 130.433C228.28 130.503 228.294 130.578 228.294 130.654C228.294 130.73 228.28 130.805 228.25 130.875C228.221 130.946 228.179 131.009 228.125 131.063C228.071 131.117 228.008 131.159 227.938 131.188C227.867 131.217 227.792 131.232 227.716 131.232Z" fill="black"/>
<path opacity="0.17" d="M240.828 131.232H234.272C234.119 131.232 233.972 131.171 233.863 131.063C233.755 130.955 233.694 130.808 233.694 130.654C233.694 130.501 233.755 130.354 233.863 130.245C233.972 130.137 234.119 130.076 234.272 130.076H240.828C240.904 130.076 240.979 130.091 241.049 130.12C241.119 130.149 241.183 130.192 241.236 130.245C241.29 130.299 241.333 130.363 241.362 130.433C241.391 130.503 241.406 130.578 241.406 130.654C241.407 130.73 241.392 130.806 241.364 130.876C241.335 130.947 241.292 131.011 241.238 131.065C241.185 131.119 241.12 131.161 241.05 131.19C240.979 131.219 240.904 131.233 240.828 131.232Z" fill="black"/>
<path opacity="0.17" d="M253.92 131.232H247.39C247.313 131.233 247.238 131.219 247.167 131.19C247.096 131.161 247.031 131.119 246.977 131.065C246.923 131.011 246.879 130.947 246.85 130.877C246.821 130.806 246.805 130.731 246.805 130.654C246.807 130.5 246.869 130.353 246.979 130.245C247.088 130.137 247.236 130.076 247.39 130.076H253.92C253.996 130.076 254.071 130.091 254.141 130.12C254.211 130.149 254.275 130.192 254.329 130.245C254.383 130.299 254.425 130.363 254.454 130.433C254.483 130.503 254.498 130.578 254.498 130.654C254.498 130.73 254.483 130.805 254.454 130.875C254.425 130.946 254.383 131.009 254.329 131.063C254.275 131.117 254.211 131.159 254.141 131.188C254.071 131.217 253.996 131.232 253.92 131.232Z" fill="black"/>
</g>
<path d="M245.459 165.752H239.29V185.209H245.459V165.752Z" fill="#0F50A4" stroke="#263238" stroke-miterlimit="10"/>
<path d="M238.604 178.342H232.436V185.209H238.604V178.342Z" fill="#263238" stroke="#263238" stroke-linecap="round" stroke-linejoin="round"/>
<path d="M231.75 139.992H225.582V185.202H231.75V139.992Z" fill="#0F50A4" stroke="#263238" stroke-miterlimit="10"/>
<path d="M224.902 142.285H218.734V185.208H224.902V142.285Z" fill="white" stroke="#263238" stroke-linecap="round" stroke-linejoin="round"/>
<path d="M218.048 165.752H211.88V185.209H218.048V165.752Z" fill="#0F50A4" stroke="#263238" stroke-miterlimit="10"/>
<path d="M211.194 159.455H205.026V185.208H211.194V159.455Z" fill="#263238" stroke="#263238" stroke-linecap="round" stroke-linejoin="round"/>
<path d="M204.346 181.773H198.178V185.21H204.346V181.773Z" fill="#0F50A4" stroke="#263238" stroke-miterlimit="10"/>
<path d="M197.492 178.342H191.323V185.209H197.492V178.342Z" fill="white" stroke="#263238" stroke-linecap="round" stroke-linejoin="round"/>
<path d="M190.637 165.752H184.469V185.209H190.637V165.752Z" fill="#0F50A4" stroke="#263238" stroke-miterlimit="10"/>
<path d="M192.264 148.283L194.468 160.804C192.639 161.128 190.762 161.047 188.968 160.567C187.174 160.087 185.507 159.22 184.085 158.026C182.662 156.833 181.518 155.342 180.734 153.658C179.95 151.975 179.545 150.14 179.546 148.283H192.264Z" stroke="#ED1E26" stroke-width="0.75" stroke-linecap="round" stroke-linejoin="round"/>
<path d="M192.264 148.283L202.281 156.109C200.386 158.631 197.584 160.315 194.468 160.804L192.264 148.283Z" stroke="#ED1E26" stroke-width="0.75" stroke-miterlimit="10"/>
<path d="M192.264 148.283L185.911 137.274C187.357 136.438 188.953 135.895 190.608 135.676C192.263 135.457 193.946 135.567 195.559 135.999C197.172 136.431 198.684 137.176 200.009 138.193C201.333 139.21 202.444 140.477 203.279 141.924C204.572 144.11 205.171 146.637 204.994 149.171C204.817 151.704 203.873 154.124 202.288 156.109L192.264 148.283Z" stroke="#ED1E26" stroke-width="0.75" stroke-linecap="round" stroke-linejoin="round"/>
<path d="M196.65 152.663C199.071 150.242 199.071 146.316 196.65 143.895C194.228 141.474 190.303 141.474 187.882 143.895C185.46 146.316 185.46 150.242 187.882 152.663C190.303 155.085 194.228 155.085 196.65 152.663Z" fill="white" stroke="#ED1E26" stroke-width="0.75" stroke-linecap="round" stroke-linejoin="round"/>
<path d="M210.266 198.447H225.379" stroke="#263238" stroke-miterlimit="10"/>
<path d="M210.266 201.02H225.379" stroke="#263238" stroke-miterlimit="10"/>
<path d="M210.266 203.594H225.379" stroke="#263238" stroke-miterlimit="10"/>
<path d="M210.266 206.158H225.379" stroke="#263238" stroke-miterlimit="10"/>
<path d="M242.683 182.814V203.663H227.913" stroke="#263238" stroke-miterlimit="10"/>
<path d="M167.801 17.6445H34.9973V113.559H167.801V17.6445Z" fill="white"/>
<path opacity="0.17" d="M168.455 16.8203H165.374V114.285H168.455V16.8203Z" fill="black"/>
<path opacity="0.17" d="M168.455 75.752H165.374V113.498H168.455V75.752Z" fill="black"/>
<path d="M167.978 16.3496H34.47V21.5649H167.978V16.3496Z" fill="#0F50A4" stroke="#263238" stroke-miterlimit="10"/>
<path d="M167.801 17.6445H34.9973V113.559H167.801V17.6445Z" stroke="#263238" stroke-linecap="round" stroke-linejoin="round"/>
<g opacity="0.17">
<path opacity="0.17" d="M104.194 26.594H94.9004C94.6831 26.594 94.4747 26.5077 94.321 26.354C94.1673 26.2003 94.081 25.9919 94.081 25.7745C94.081 25.6669 94.1022 25.5604 94.1434 25.4609C94.1845 25.3615 94.2449 25.2712 94.321 25.1951C94.3971 25.119 94.4874 25.0586 94.5869 25.0175C94.6863 24.9763 94.7928 24.9551 94.9004 24.9551H104.194C104.302 24.9551 104.408 24.9763 104.508 25.0175C104.607 25.0586 104.697 25.119 104.773 25.1951C104.85 25.2712 104.91 25.3615 104.951 25.4609C104.992 25.5604 105.013 25.6669 105.013 25.7745C105.013 25.9919 104.927 26.2003 104.773 26.354C104.62 26.5077 104.411 26.594 104.194 26.594Z" fill="black"/>
<path opacity="0.17" d="M122.775 26.594H113.488C113.27 26.594 113.062 26.5077 112.908 26.354C112.754 26.2003 112.668 25.9919 112.668 25.7745C112.668 25.6669 112.689 25.5604 112.731 25.4609C112.772 25.3615 112.832 25.2712 112.908 25.1951C112.984 25.119 113.075 25.0586 113.174 25.0175C113.273 24.9763 113.38 24.9551 113.488 24.9551H122.775C122.882 24.9551 122.989 24.9763 123.088 25.0175C123.188 25.0586 123.278 25.119 123.354 25.1951C123.43 25.2712 123.491 25.3615 123.532 25.4609C123.573 25.5604 123.594 25.6669 123.594 25.7745C123.594 25.9919 123.508 26.2003 123.354 26.354C123.201 26.5077 122.992 26.594 122.775 26.594Z" fill="black"/>
<path opacity="0.17" d="M141.356 26.594H132.068C131.851 26.594 131.643 26.5077 131.489 26.354C131.335 26.2003 131.249 25.9919 131.249 25.7745C131.249 25.6669 131.27 25.5604 131.311 25.4609C131.352 25.3615 131.413 25.2712 131.489 25.1951C131.565 25.119 131.655 25.0586 131.755 25.0175C131.854 24.9763 131.961 24.9551 132.068 24.9551H141.356C141.463 24.9551 141.57 24.9763 141.669 25.0175C141.769 25.0586 141.859 25.119 141.935 25.1951C142.011 25.2712 142.071 25.3615 142.113 25.4609C142.154 25.5604 142.175 25.6669 142.175 25.7745C142.175 25.9919 142.089 26.2003 141.935 26.354C141.781 26.5077 141.573 26.594 141.356 26.594Z" fill="black"/>
<path opacity="0.17" d="M159.943 26.594H150.649C150.432 26.594 150.223 26.5077 150.07 26.354C149.916 26.2003 149.83 25.9919 149.83 25.7745C149.83 25.6669 149.851 25.5604 149.892 25.4609C149.933 25.3615 149.994 25.2712 150.07 25.1951C150.146 25.119 150.236 25.0586 150.336 25.0175C150.435 24.9763 150.541 24.9551 150.649 24.9551H159.943C160.05 24.9551 160.157 24.9763 160.256 25.0175C160.356 25.0586 160.446 25.119 160.522 25.1951C160.598 25.2712 160.659 25.3615 160.7 25.4609C160.741 25.5604 160.762 25.6669 160.762 25.7745C160.762 25.9919 160.676 26.2003 160.522 26.354C160.368 26.5077 160.16 26.594 159.943 26.594Z" fill="black"/>
</g>
<path d="M42.2453 72.7656H161.874" stroke="#263238" stroke-width="0.5" stroke-miterlimit="10"/>
<path d="M42.2453 72.7653V71.8379" stroke="#263238" stroke-width="0.5" stroke-miterlimit="10"/>
<path d="M57.1989 72.7653V71.8379" stroke="#263238" stroke-width="0.5" stroke-miterlimit="10"/>
<path d="M72.1525 72.7653V71.8379" stroke="#263238" stroke-width="0.5" stroke-miterlimit="10"/>
<path d="M87.106 72.7653V71.8379" stroke="#263238" stroke-width="0.5" stroke-miterlimit="10"/>
<path d="M102.059 72.7653V71.8379" stroke="#263238" stroke-width="0.5" stroke-miterlimit="10"/>
<path d="M117.013 72.7653V71.8379" stroke="#263238" stroke-width="0.5" stroke-miterlimit="10"/>
<path d="M131.967 72.7653V71.8379" stroke="#263238" stroke-width="0.5" stroke-miterlimit="10"/>
<path d="M146.92 72.7653V71.8379" stroke="#263238" stroke-width="0.5" stroke-miterlimit="10"/>
<path d="M161.874 72.7653V71.8379" stroke="#263238" stroke-width="0.5" stroke-miterlimit="10"/>
<path d="M64.6757 63.1211L49.7221 67.7456" stroke="#0F50A4" stroke-width="2" stroke-miterlimit="10" stroke-linecap="round"/>
<path d="M79.6292 52.9512L64.6757 63.1214" stroke="#0F50A4" stroke-width="2" stroke-miterlimit="10" stroke-linecap="round"/>
<path d="M94.5828 39.0781L79.6292 52.9518" stroke="#0F50A4" stroke-width="2" stroke-miterlimit="10" stroke-linecap="round"/>
<path d="M109.536 37.6934L94.5828 39.0782" stroke="#0F50A4" stroke-width="2" stroke-miterlimit="10" stroke-linecap="round"/>
<path d="M124.49 47.8635L109.536 37.6934" stroke="#0F50A4" stroke-width="2" stroke-miterlimit="10" stroke-linecap="round"/>
<path d="M139.443 57.5761L124.49 47.8633" stroke="#0F50A4" stroke-width="2" stroke-miterlimit="10" stroke-linecap="round"/>
<path d="M154.397 37.2285L139.443 57.5753" stroke="#0F50A4" stroke-width="2" stroke-miterlimit="10" stroke-linecap="round"/>
<path d="M49.7221 65.8418C50.2275 65.8418 50.7122 66.0426 51.0696 66.4C51.427 66.7574 51.6278 67.2421 51.6278 67.7475C51.6278 68.2529 51.427 68.7377 51.0696 69.0951C50.7122 69.4525 50.2275 69.6532 49.7221 69.6532C49.2166 69.6532 48.7319 69.4525 48.3745 69.0951C48.0171 68.7377 47.8163 68.2529 47.8163 67.7475C47.8163 67.2421 48.0171 66.7574 48.3745 66.4C48.7319 66.0426 49.2166 65.8418 49.7221 65.8418Z" fill="#ED1E26" stroke="#263238" stroke-miterlimit="10"/>
<path d="M64.6757 61.2168C65.1811 61.2168 65.6658 61.4176 66.0232 61.775C66.3806 62.1324 66.5814 62.6171 66.5814 63.1225C66.5814 63.6279 66.3806 64.1127 66.0232 64.4701C65.6658 64.8275 65.1811 65.0282 64.6757 65.0282C64.1703 65.0282 63.6855 64.8275 63.3281 64.4701C62.9707 64.1127 62.77 63.6279 62.77 63.1225C62.77 62.6171 62.9707 62.1324 63.3281 61.775C63.6855 61.4176 64.1703 61.2168 64.6757 61.2168Z" fill="#ED1E26" stroke="#263238" stroke-miterlimit="10"/>
<path d="M79.6292 51.0449C80.1347 51.0449 80.6194 51.2457 80.9768 51.6031C81.3342 51.9605 81.535 52.4452 81.535 52.9506C81.535 53.4561 81.3342 53.9408 80.9768 54.2982C80.6194 54.6556 80.1347 54.8564 79.6292 54.8564C79.1238 54.8564 78.6391 54.6556 78.2817 54.2982C77.9243 53.9408 77.7235 53.4561 77.7235 52.9506C77.7235 52.4452 77.9243 51.9605 78.2817 51.6031C78.6391 51.2457 79.1238 51.0449 79.6292 51.0449Z" fill="#ED1E26" stroke="#263238" stroke-miterlimit="10"/>
<path d="M94.5828 37.1719C95.0883 37.1719 95.573 37.3727 95.9304 37.73C96.2878 38.0874 96.4886 38.5722 96.4886 39.0776C96.4886 39.583 96.2878 40.0678 95.9304 40.4251C95.573 40.7825 95.0883 40.9833 94.5828 40.9833C94.0774 40.9833 93.5927 40.7825 93.2353 40.4251C92.8779 40.0678 92.6771 39.583 92.6771 39.0776C92.6771 38.5722 92.8779 38.0874 93.2353 37.73C93.5927 37.3727 94.0774 37.1719 94.5828 37.1719Z" fill="#ED1E26" stroke="#263238" stroke-miterlimit="10"/>
<path d="M109.536 35.7871C110.042 35.7871 110.526 35.9879 110.884 36.3453C111.241 36.7027 111.442 37.1874 111.442 37.6928C111.442 38.1983 111.241 38.683 110.884 39.0404C110.526 39.3978 110.042 39.5985 109.536 39.5985C109.031 39.5985 108.546 39.3978 108.189 39.0404C107.831 38.683 107.63 38.1983 107.63 37.6928C107.63 37.1874 107.831 36.7027 108.189 36.3453C108.546 35.9879 109.031 35.7871 109.536 35.7871Z" fill="#ED1E26" stroke="#263238" stroke-miterlimit="10"/>
<path d="M124.49 45.957C124.995 45.957 125.48 46.1578 125.837 46.5152C126.195 46.8726 126.396 47.3573 126.396 47.8628C126.396 48.3682 126.195 48.8529 125.837 49.2103C125.48 49.5677 124.995 49.7685 124.49 49.7685C123.984 49.7685 123.5 49.5677 123.142 49.2103C122.785 48.8529 122.584 48.3682 122.584 47.8628C122.584 47.3573 122.785 46.8726 123.142 46.5152C123.5 46.1578 123.984 45.957 124.49 45.957Z" fill="#ED1E26" stroke="#263238" stroke-miterlimit="10"/>
<path d="M141.349 57.5776C141.349 56.5251 140.496 55.6719 139.443 55.6719C138.391 55.6719 137.538 56.5251 137.538 57.5776C137.538 58.6301 138.391 59.4833 139.443 59.4833C140.496 59.4833 141.349 58.6301 141.349 57.5776Z" fill="#ED1E26" stroke="#263238" stroke-miterlimit="10"/>
<path d="M154.397 35.3242C154.902 35.3242 155.387 35.525 155.744 35.8824C156.102 36.2398 156.303 36.7245 156.303 37.2299C156.303 37.7354 156.102 38.2201 155.744 38.5775C155.387 38.9349 154.902 39.1357 154.397 39.1357C153.892 39.1357 153.407 38.9349 153.049 38.5775C152.692 38.2201 152.491 37.7354 152.491 37.2299C152.491 36.7245 152.692 36.2398 153.049 35.8824C153.407 35.525 153.892 35.3242 154.397 35.3242Z" fill="#ED1E26" stroke="#263238" stroke-miterlimit="10"/>
<path d="M97.7272 96.7582L84.3109 99.1277C83.6832 95.5628 84.4969 91.8946 86.5733 88.9296C88.6496 85.9646 91.8185 83.9456 95.3832 83.3166C96.1659 83.1824 96.9585 83.1144 97.7526 83.1133L97.7272 96.7582Z" fill="#263238" stroke="#263238" stroke-linecap="round" stroke-linejoin="round"/>
<path d="M97.7271 96.7578L89.3293 107.512C86.6183 105.483 84.8082 102.473 84.2855 99.1273L97.7271 96.7578Z" fill="#0F50A4" stroke="#263238" stroke-miterlimit="10"/>
<path d="M97.7272 96.758L109.549 89.9355C110.45 91.4891 111.035 93.205 111.272 94.9852C111.509 96.7654 111.392 98.5747 110.928 100.31C110.464 102.045 109.663 103.671 108.569 105.095C107.476 106.52 106.112 107.715 104.556 108.612C102.209 110.007 99.4908 110.653 96.7663 110.462C94.0418 110.272 91.4405 109.254 89.3103 107.544L97.7272 96.758Z" fill="white" stroke="#263238" stroke-linecap="round" stroke-linejoin="round"/>
<path d="M97.7272 96.7582V83.1133C100.131 83.0723 102.501 83.6854 104.583 84.8871C106.665 86.0888 108.382 87.8339 109.549 89.9357L97.7272 96.7582Z" fill="#0F50A4" stroke="#263238" stroke-miterlimit="10"/>
<path d="M102.434 101.467C105.033 98.8674 105.033 94.6522 102.434 92.0523C99.8337 89.4525 95.6185 89.4525 93.0186 92.0523C90.4188 94.6522 90.4188 98.8674 93.0186 101.467C95.6185 104.067 99.8337 104.067 102.434 101.467Z" fill="white" stroke="#263238" stroke-linecap="round" stroke-linejoin="round"/>
<path d="M57.3577 96.7832L59.7271 110.225C57.9619 110.537 56.1525 110.497 54.4024 110.11C52.6523 109.722 50.9958 108.993 49.5275 107.965C48.0592 106.936 46.8078 105.629 45.845 104.117C44.8821 102.605 44.2267 100.918 43.916 99.1526C43.7795 98.3701 43.7094 97.5775 43.7064 96.7832H57.3577Z" fill="#ED1E26" stroke="#263238" stroke-linecap="round" stroke-linejoin="round"/>
<path d="M57.3577 96.7832L68.1123 105.187C66.0799 107.894 63.0715 109.702 59.7271 110.225L57.3577 96.7832Z" fill="#0F50A4" stroke="#263238" stroke-miterlimit="10"/>
<path d="M57.3577 96.7837L50.5289 84.9619C53.6653 83.1527 57.3918 82.663 60.8892 83.6005C64.3865 84.538 67.3685 86.8259 69.1795 89.9612C70.5718 92.3099 71.2155 95.027 71.0249 97.7506C70.8342 100.474 69.8182 103.075 68.1123 105.207L57.3577 96.7837Z" fill="white" stroke="#263238" stroke-linecap="round" stroke-linejoin="round"/>
<path d="M57.3576 96.7828H43.7063C43.6653 94.3789 44.2785 92.0092 45.4802 89.9269C46.6819 87.8446 48.4269 86.1281 50.5287 84.9609L57.3576 96.7828Z" fill="#0F50A4" stroke="#263238" stroke-miterlimit="10"/>
<path d="M57.3577 103.442C61.0344 103.442 64.015 100.461 64.015 96.7843C64.015 93.1075 61.0344 90.127 57.3577 90.127C53.681 90.127 50.7004 93.1075 50.7004 96.7843C50.7004 100.461 53.681 103.442 57.3577 103.442Z" fill="white" stroke="#263238" stroke-linecap="round" stroke-linejoin="round"/>
<path d="M138.059 96.7832L140.428 110.225C138.663 110.537 136.853 110.497 135.103 110.11C133.353 109.722 131.697 108.993 130.228 107.965C128.76 106.936 127.509 105.629 126.546 104.117C125.583 102.605 124.928 100.918 124.617 99.1526C124.48 98.3701 124.41 97.5775 124.407 96.7832H138.059Z" fill="#ED1E26" stroke="#263238" stroke-linecap="round" stroke-linejoin="round"/>
<path d="M138.059 96.7832L148.813 105.187C146.781 107.894 143.772 109.702 140.428 110.225L138.059 96.7832Z" fill="#0F50A4" stroke="#263238" stroke-miterlimit="10"/>
<path d="M138.059 96.7837L131.23 84.9619C134.366 83.1527 138.093 82.663 141.59 83.6005C145.087 84.538 148.069 86.8259 149.88 89.9612C151.273 92.3099 151.916 95.027 151.726 97.7506C151.535 100.474 150.519 103.075 148.813 105.207L138.059 96.7837Z" fill="white" stroke="#263238" stroke-linecap="round" stroke-linejoin="round"/>
<path d="M138.059 96.7828H124.407C124.366 94.3789 124.979 92.0092 126.181 89.9269C127.383 87.8446 129.128 86.1281 131.23 84.9609L138.059 96.7828Z" fill="#0F50A4" stroke="#263238" stroke-miterlimit="10"/>
<path d="M138.059 103.442C141.735 103.442 144.716 100.461 144.716 96.7843C144.716 93.1075 141.735 90.127 138.059 90.127C134.382 90.127 131.401 93.1075 131.401 96.7843C131.401 100.461 134.382 103.442 138.059 103.442Z" fill="white" stroke="#263238" stroke-linecap="round" stroke-linejoin="round"/>
<path d="M42.5756 32.293H57.688" stroke="#263238" stroke-miterlimit="10"/>
<path d="M42.5756 34.8613H57.688" stroke="#263238" stroke-miterlimit="10"/>
<path d="M42.5756 37.4336H57.688" stroke="#263238" stroke-miterlimit="10"/>
<path d="M42.5756 40.0059H57.688" stroke="#263238" stroke-miterlimit="10"/>
<path d="M160.146 38.1641H174.915L192.295 53.3654" stroke="#263238" stroke-linecap="round" stroke-linejoin="round"/>
<path d="M195.065 49.0195H210.177" stroke="#263238" stroke-miterlimit="10"/>
<path d="M195.065 51.5938H210.177" stroke="#263238" stroke-miterlimit="10"/>
<path d="M195.065 54.1641H210.177" stroke="#263238" stroke-miterlimit="10"/>
<path d="M195.065 56.7324H210.177" stroke="#263238" stroke-miterlimit="10"/>
<path d="M195.065 92.8906H210.177" stroke="#263238" stroke-miterlimit="10"/>
<path d="M195.065 95.4609H210.177" stroke="#263238" stroke-miterlimit="10"/>
<path d="M195.065 98.0352H210.177" stroke="#263238" stroke-miterlimit="10"/>
<path d="M195.065 100.607H210.177" stroke="#263238" stroke-miterlimit="10"/>
<path d="M49.9825 143.715H65.0948" stroke="#263238" stroke-miterlimit="10"/>
<path d="M49.9825 146.287H65.0948" stroke="#263238" stroke-miterlimit="10"/>
<path d="M49.9825 148.861H65.0948" stroke="#263238" stroke-miterlimit="10"/>
<path d="M49.9825 151.428H65.0948" stroke="#263238" stroke-miterlimit="10"/>
<path d="M144.945 88.9827L151.024 82.0332H175.353L192.727 96.3706" stroke="#263238" stroke-miterlimit="10"/>
<path d="M57.1989 109.838V142.413" stroke="#263238" stroke-miterlimit="10"/>
<path d="M294.529 274H49.297C34.4959 276.267 22.623 279.203 26.3505 282.545C35.0699 290.371 97.8638 281.23 96.0182 290.291C94.1727 299.352 141.264 297.106 166.885 297.106C192.505 297.106 220.473 294.701 211.47 287.748C202.467 280.794 262.231 285.873 287.917 285.873C306.664 285.873 319.51 280.641 294.529 274Z" fill="#0F50A4"/>
<path d="M4 274H327.241" stroke="#263238" stroke-width="0.75" stroke-linecap="round" stroke-linejoin="round"/>
<path d="M114.993 106.13C115.07 104.675 114.98 103.215 114.724 101.781C114.311 100.289 113.358 99.3362 113.493 98.7883C113.628 98.2404 115.263 98.6534 115.676 99.7408C116.089 100.828 116.764 102.733 116.764 102.733V98.5186C116.764 97.8358 115.128 97.6756 114.589 97.0266C114.049 96.3776 114.446 96.0741 114.859 96.0741C115.272 96.0741 116.898 95.9308 117.851 96.7484C118.201 97.1035 118.468 97.5319 118.633 98.0027C118.798 98.4735 118.856 98.975 118.803 99.471C118.803 99.8822 118.758 100.292 118.669 100.693C118.669 100.693 120.843 100.963 121.518 102.463C122.076 103.939 122.173 105.55 121.796 107.083C121.518 108.313 122.47 110.758 122.47 110.758L119.613 112.932C119.613 112.932 117.303 110.488 116.081 109.122C115.351 108.3 114.962 107.229 114.993 106.13Z" fill="white" stroke="#263238" stroke-linecap="round" stroke-linejoin="round"/>
<path d="M122.47 110.75L119.613 112.925C119.613 112.925 135.333 144.955 136.825 146.06C138.317 147.164 140.197 147.425 142.405 144.433C144.613 141.44 144.31 139.535 142.81 136.138C141.309 132.742 122.47 110.75 122.47 110.75Z" fill="#0F50A4" stroke="#263238" stroke-linecap="round" stroke-linejoin="round"/>
<path d="M110.29 78.9905C110.29 78.9905 112.321 83.8541 112.321 85.0763C112.312 86.2223 112.628 87.3474 113.232 88.3215C113.839 89.333 114.555 89.6365 114.142 90.4456C113.96 90.8484 113.722 91.2231 113.434 91.5583C113.434 91.5583 113.13 95.9246 113.13 97.3407C113.13 98.7567 112.422 98.8579 111.108 98.959C109.951 98.9755 108.796 98.8739 107.66 98.6556L107.458 102.508C107.458 102.508 102.586 101.901 100.664 101.901H96.9129L97.1152 95.9246C95.9889 93.7043 95.0391 91.3989 94.2746 89.0295C93.9009 88.033 93.7496 86.9668 93.8314 85.9056C93.9132 84.8445 94.226 83.814 94.748 82.8865C95.27 81.959 95.9885 81.1568 96.8531 80.5362C97.7178 79.9156 98.7077 79.4916 99.7535 79.2939C103.228 78.6423 106.784 78.5399 110.29 78.9905Z" fill="white" stroke="#263238" stroke-linecap="round" stroke-linejoin="round"/>
<path d="M106.868 90.6476C106.868 90.6476 109 90.0407 108.596 88.2116C108.191 86.3825 107.483 85.5817 107.584 85.2782C107.685 84.9748 109.27 84.3595 109.27 83.0445C109.27 81.7296 107.584 81.0215 107.584 81.0215C107.584 81.0215 115.086 78.6867 115.592 76.5541C116.098 74.4215 115.086 72.2974 113.063 72.2974C112.042 72.3037 111.023 72.4053 110.02 72.6009C109.616 72.6009 106.977 69.6591 104.651 70.7802C102.325 71.9012 102.122 73.3089 102.122 73.3089C102.122 73.3089 93.6088 73.7219 90.3636 77.161C87.1184 80.6001 89.8579 88.6246 92.0494 91.5579C94.241 94.4913 96.0027 97.6438 98.0341 98.0483C100.066 98.4529 103.816 97.8461 105.233 95.9242C106.649 94.0024 105.941 91.0522 105.941 91.0522L106.868 90.6476Z" fill="#263238" stroke="#263238" stroke-linecap="round" stroke-linejoin="round"/>
<path d="M107.963 91.3658C107.963 91.3658 105.831 87.1091 104.313 87.9941C102.796 88.8792 103.909 92.3604 104.92 93.4731C105.07 93.6845 105.26 93.8634 105.481 93.999C105.701 94.1346 105.947 94.224 106.203 94.2618C106.459 94.2996 106.721 94.2851 106.971 94.2191C107.221 94.153 107.456 94.0369 107.66 93.8777" fill="white"/>
<path d="M107.963 91.3658C107.963 91.3658 105.831 87.1091 104.313 87.9941C102.796 88.8792 103.909 92.3604 104.92 93.4731C105.07 93.6845 105.26 93.8634 105.481 93.999C105.701 94.1346 105.947 94.224 106.203 94.2618C106.459 94.2996 106.721 94.2851 106.971 94.2191C107.221 94.153 107.456 94.0369 107.66 93.8777" stroke="#263238" stroke-linecap="round" stroke-linejoin="round"/>
<path d="M91.6359 105.854C92.2097 104.382 93.0691 103.038 94.1646 101.9C95.6819 100.585 99.4328 99.6751 102.594 100.282C105.755 100.889 108.275 101.799 108.882 103.224C109.346 104.444 109.718 105.698 109.995 106.975C109.995 106.975 107.061 105.55 101.279 105.55C97.9386 105.519 94.6157 106.034 91.442 107.076L91.6359 105.854Z" fill="#0F50A4" stroke="#263238" stroke-linecap="round" stroke-linejoin="round"/>
<path d="M78.5122 272.592C78.5122 272.592 74.6601 272.288 73.0417 272.693C71.4233 273.097 71.0102 274.514 71.7267 275.525C72.6672 276.858 73.7528 278.082 74.9635 279.175C75.975 280.018 79.1781 280.389 80.6363 281.097C82.0945 281.805 83.7804 282.42 85.6938 281.097C87.6072 279.773 86.5367 274.817 86.5367 274.817C86.5367 274.817 81.7574 275.626 78.5122 272.592Z" fill="white" stroke="#263238" stroke-linecap="round" stroke-linejoin="round"/>
<path d="M84.3869 280.789C82.5662 281.092 79.2198 280.182 76.2781 278.665C74.2129 277.594 72.4428 275.116 71.583 273.742C71.4382 274.022 71.3748 274.338 71.4001 274.652C71.4254 274.966 71.5385 275.267 71.7263 275.521C72.6668 276.853 73.7524 278.078 74.9631 279.171C75.9746 280.013 79.1777 280.384 80.6359 281.092C82.0942 281.8 83.78 282.416 85.6934 281.092C85.9943 280.877 86.2328 280.587 86.3846 280.249C85.7339 280.482 85.066 280.662 84.3869 280.789Z" fill="white" stroke="#263238" stroke-linecap="round" stroke-linejoin="round"/>
<path d="M117.303 272.592C117.303 272.592 121.155 272.288 122.774 272.693C124.392 273.097 124.805 274.514 124.097 275.525C123.151 276.856 122.063 278.08 120.852 279.175C119.84 280.018 116.595 280.389 115.179 281.097C113.763 281.805 112.035 282.42 110.122 281.097C108.208 279.773 109.279 274.817 109.279 274.817C109.279 274.817 114.058 275.626 117.303 272.592Z" fill="white" stroke="#263238" stroke-linecap="round" stroke-linejoin="round"/>
<path d="M111.428 280.789C113.248 281.092 116.595 280.182 119.537 278.665C121.602 277.594 123.372 275.116 124.232 273.742C124.378 274.022 124.442 274.336 124.419 274.651C124.395 274.965 124.283 275.267 124.097 275.521C123.151 276.852 122.063 278.075 120.852 279.171C119.84 280.013 116.595 280.384 115.179 281.092C113.763 281.8 112.035 282.416 110.121 281.092C109.82 280.877 109.582 280.587 109.43 280.249C110.081 280.481 110.749 280.661 111.428 280.789Z" fill="white" stroke="#263238" stroke-linecap="round" stroke-linejoin="round"/>
<path d="M84.4376 160.599C84.4376 160.599 83.5947 170.031 83.5273 174.288C83.4828 177.033 83.6519 179.778 84.0331 182.498L82.0101 221.432C82.0101 221.432 78.9671 246.475 78.9671 251.439C78.9671 256.404 79.3718 269.385 79.3718 269.385C78.9137 270.274 78.5084 271.188 78.158 272.124C78.1598 273.307 78.2273 274.489 78.3602 275.665C79.9417 276.616 81.6992 277.239 83.5273 277.494C84.2468 277.588 84.9775 277.451 85.6149 277.105C86.2523 276.758 86.7637 276.218 87.076 275.564C87.431 273.613 87.6674 271.642 87.784 269.663C87.8283 268.479 87.7945 267.294 87.6829 266.114C87.6829 266.114 92.1419 244.317 94.2744 236.916C96.407 229.515 100.259 209.437 100.461 206.807C100.664 204.177 102.99 191.905 102.99 191.905C102.99 191.905 105.022 213.905 105.519 218.035C106.016 222.165 104.786 233.73 104.786 239.951C104.786 246.171 108.553 270.287 108.553 270.287C108.54 271.557 108.604 272.826 108.747 274.088C108.95 274.931 110.155 277.696 110.155 277.696C110.155 277.696 113.156 278.295 114.563 277.494C115.971 276.693 118.163 275.294 118.365 272.891C118.567 270.489 117.648 265.626 117.454 264.226C117.261 262.827 120.826 235.778 120.826 226.169C120.826 216.56 122.428 195.715 122.428 191.315C122.428 186.915 121.425 172.079 121.425 172.079L119.621 157.859C119.621 157.859 102.948 164.139 84.4376 160.599Z" fill="#263238" stroke="#263238" stroke-linecap="round" stroke-linejoin="round"/>
<path d="M77.8547 111.838C77.8547 111.838 54.9191 146.246 55.3237 147.645C55.7282 149.044 77.7535 160.668 77.7535 160.668L77.5512 156.259L69.1221 145.04L80.9229 132.624L77.8547 111.838Z" fill="#0F50A4" stroke="#263238" stroke-linecap="round" stroke-linejoin="round"/>
<path d="M77.5513 156.271L80.7207 154.965L84.0923 157.957C84.0923 157.957 85.264 160.41 84.4042 160.612L83.5613 160.815C83.5613 160.815 84.5138 163.124 83.0218 163.807C81.5299 164.49 79.3467 163.672 78.3942 162.854C77.6118 162.009 76.9688 161.044 76.4893 159.997L77.5513 156.271Z" fill="white" stroke="#263238" stroke-linecap="round" stroke-linejoin="round"/>
<path d="M81.6729 156.041C81.6729 156.041 82.9036 157.407 82.7603 158.081C82.617 158.755 82.0859 161.073 81.538 161.208C80.9902 161.343 80.4507 160.256 80.5856 159.851C80.7 159.449 80.7928 159.041 80.8637 158.629C80.8637 158.629 79.6331 159.581 78.9587 159.033" fill="white"/>
<path d="M81.6729 156.041C81.6729 156.041 82.9036 157.407 82.7603 158.081C82.617 158.755 82.0859 161.073 81.538 161.208C80.9902 161.343 80.4507 160.256 80.5856 159.851C80.7 159.449 80.7928 159.041 80.8637 158.629C80.8637 158.629 79.6331 159.581 78.9587 159.033" stroke="#263238" stroke-linecap="round" stroke-linejoin="round"/>
<path d="M107.559 104.851C104.138 104.301 100.657 104.233 97.2165 104.649C92.8355 105.248 88.5717 106.513 84.5728 108.4C82.0441 109.614 77.8885 111.443 77.8885 111.847C77.8885 112.252 83.7889 149.863 83.7889 149.863C83.7889 149.863 83.7889 159.598 84.3958 161.014C85.0027 162.43 86.8318 162.641 91.2908 163.147C97.988 163.559 104.709 163.356 111.369 162.54C115.322 161.823 118.77 161.217 119.377 159.396C119.984 157.575 119.174 152.703 119.174 152.703L121.239 113.28C119.477 111.179 117.306 109.459 114.859 108.223C112.494 106.956 110.057 105.83 107.559 104.851Z" fill="#0F50A4" stroke="#263238" stroke-linecap="round" stroke-linejoin="round"/>
<path d="M140.77 135.33L121.239 113.279L119.874 135.026C119.874 135.026 134.996 147.906 138.418 147.502C141.84 147.097 142.43 144.467 142.43 144.467" fill="#0F50A4"/>
<path d="M140.77 135.33L121.239 113.279L119.874 135.026C119.874 135.026 134.996 147.906 138.418 147.502C141.84 147.097 142.43 144.467 142.43 144.467" stroke="#263238" stroke-linecap="round" stroke-linejoin="round"/>
<path d="M253.5 160C253.5 160.4 251.833 162.5 251 163.5C251 164.7 254 165.667 255.5 166C257.167 164.833 260.4 162.5 260 162.5C259.6 162.5 259.167 161.167 259 160.5C258.167 160.667 256.4 160.9 256 160.5C255.5 160 253.5 159.5 253.5 160Z" fill="white" stroke="white"/>
<path d="M248.022 135.019L243.555 125.48L226 137.078L240.486 162.744L251.784 156.33L248.022 135.019Z" fill="white"/>
<path d="M262.489 217.527C262.489 217.527 265.328 225.407 265.746 229.243C266.164 233.08 264.885 249.238 265.159 253.692C265.434 258.147 267.842 271.441 267.842 271.441C267.842 271.441 256.032 280.025 252.283 277.262C252.283 277.262 260.605 270.524 261.447 267.841L258.752 249.631L256.076 228.095C256.076 228.095 255.396 223.597 254.448 221.283C253.5 218.968 253.643 214.059 253.643 214.059L262.489 217.527Z" fill="white"/>
<path d="M262.24 216.83C262.24 216.83 265.31 225.127 266.027 231.085C266.744 237.043 264.586 250.556 265.297 257.063C266.008 263.569 266.738 267.169 267.998 270.594L267.375 280.644H265.759L265.135 274.942C265.135 274.942 262.602 273.888 261.067 277.538C259.533 281.187 253.862 281.668 251.173 279.553C251.173 279.553 251.173 277.918 253.194 276.477C255.216 275.036 260.493 270.532 261.454 267.843C261.454 267.843 258.572 249.127 257.898 243.063C257.224 236.999 256.17 225.976 254.822 222.42C253.475 218.864 253.481 213.779 253.481 213.779" stroke="#263238" stroke-linecap="round" stroke-linejoin="round"/>
<path d="M267.38 268.715C267.38 268.715 259.463 277.324 252.819 277.268" stroke="#263238" stroke-linecap="round" stroke-linejoin="round"/>
<path d="M252.283 277.263C253.381 277.385 254.493 277.246 255.527 276.857C257.318 276.234 263.762 273.114 266.931 269.178L267.905 270.282L267.393 280.413L265.765 280.644L265.141 274.942C265.141 274.942 263.057 273.988 261.716 276.333C260.375 278.679 259.408 280.289 257.062 280.806C254.716 281.324 251.179 279.559 251.179 279.559C251.179 279.559 250.561 278.629 252.283 277.263Z" fill="#263238"/>
<path d="M268.011 217.798C268.755 220.533 269.659 223.223 270.718 225.852C272.134 229.102 284.368 261.973 284.368 261.973C284.368 261.973 285.298 279.766 290.507 279.71C295.716 279.654 290.301 267.276 290.301 267.276L287.132 260.495C287.132 260.495 285.922 240.575 284.424 233.251L278.049 216.076L268.011 217.798Z" fill="white"/>
<path d="M278.117 216.648C278.117 216.648 283.351 228.557 284.43 233.249C285.509 237.94 286.595 259.045 287.138 260.493C287.68 261.94 296.34 277.268 291.105 280.338C285.871 283.407 284.636 262.658 284.636 262.658C284.636 262.658 272.552 229.094 270.743 225.85C268.934 222.606 266.956 213.217 266.956 213.217L278.117 216.648Z" stroke="#263238" stroke-linecap="round" stroke-linejoin="round"/>
<path d="M292.123 272.473C292.123 272.473 291.761 276.628 290.388 277.214C289.016 277.8 285.984 273.115 285.984 273.115" stroke="#263238" stroke-linecap="round" stroke-linejoin="round"/>
<path d="M285.997 273.83C285.997 273.83 287.868 280.917 290.364 280.618C292.859 280.318 293.308 276.382 292.129 273.344C292.129 273.344 291.711 276.463 290.395 277.212C289.066 277.23 285.997 273.83 285.997 273.83Z" fill="#263238"/>
<path d="M263.906 154.697C263.906 154.697 270.213 163.307 274.586 177.156C278.96 191.006 278.51 217.532 278.51 217.532C278.51 217.532 262.234 222.766 246.457 216.116L249.345 156.35C249.345 156.35 259.495 156.538 263.906 154.697Z" fill="#263238"/>
<path d="M255.758 92.2676C255.758 92.2676 250.855 96.8592 250.281 99.8662C249.807 101.971 249.048 104.001 248.022 105.899C248.55 106.697 249.323 107.302 250.225 107.621C250.225 107.621 250.543 113.778 252.333 114.252L256.613 113.129L257.068 115.768L263.207 113.435V109.879L267.886 106.822L266.22 98.8306L258.609 95.2746L255.758 92.2676Z" fill="white"/>
<path d="M249.517 155.976L248.974 147.342C248.974 147.342 244.982 139.855 246.248 137.135C247.646 134.147 256.043 123.08 256.043 123.08L255.219 117.041L266.985 112L267.547 117.041L266.124 118.095L267.703 121.476C267.703 121.476 267.802 120.472 270.535 125.569C273.267 130.666 283.561 148.801 284.372 152.283C285.183 155.764 268.364 168.029 262.687 170.923C262.687 170.923 262.032 169.52 255.288 174.667C253.572 174.367 251.202 172.826 250.696 171.872C250.191 170.917 252.636 168.646 252.636 168.646C252.636 168.646 254.109 165.864 256.71 168.091H259.48L275.332 153.337L267.297 141.577L264.109 154.784C264.109 154.784 253.797 157.916 249.517 155.976Z" fill="#0F50A4"/>
<path d="M255.016 116.937L255.858 123.107L267.343 116.937L266.782 111.896L255.016 116.937Z" stroke="#263238" stroke-linecap="round" stroke-linejoin="round"/>
<path d="M255.857 123.107C255.857 123.107 245.408 135.89 245.689 138.411C245.969 140.931 248.77 147.238 248.77 147.238L249.344 156.347C249.344 156.347 257.798 156.577 263.905 154.7L267.093 141.493" stroke="#263238" stroke-linecap="round" stroke-linejoin="round"/>
<path d="M275.129 153.234L258.939 128.828C258.939 128.828 257.349 123.213 261.179 121.211C265.01 119.208 268.341 121.747 269.533 123.082C270.724 124.418 283.576 149.179 284.175 152.154C284.773 155.13 271.198 167.033 263.344 170.246C263.344 170.246 259.769 172.392 259.769 167.988L275.129 153.234Z" stroke="#263238" stroke-linecap="round" stroke-linejoin="round"/>
<path d="M267.343 121.37L265.827 117.752" stroke="#263238" stroke-linecap="round" stroke-linejoin="round"/>
<path d="M259.77 168.017H256.513C256.513 168.017 253.974 165.746 252.77 168.017C251.566 170.288 250.044 170.737 250.499 171.798C250.955 172.858 253.562 174.973 255.091 174.593C256.619 174.212 260.93 170.706 260.93 170.706" stroke="#263238" stroke-linecap="round" stroke-linejoin="round"/>
<path d="M254.585 93.8789C254.585 93.8789 250.761 97.2228 250.337 99.0757C249.913 100.929 250.094 104.067 248.022 105.894C248.022 105.894 248.128 107.392 250.225 107.616C250.225 107.616 251.298 113.524 252.333 114.248C253.369 114.972 259.707 111.703 262.19 110.355C262.824 109.921 263.285 109.278 263.494 108.54" stroke="#263238" stroke-linecap="round" stroke-linejoin="round"/>
<path d="M251.616 109.423C252.788 109.225 253.846 108.601 254.585 107.67" stroke="#263238" stroke-linecap="round" stroke-linejoin="round"/>
<path d="M251.616 100.874C251.616 100.874 253.126 99.9944 253.955 101.454" stroke="#263238" stroke-linecap="round" stroke-linejoin="round"/>
<path d="M252.651 104.014C252.651 104.519 252.508 104.931 252.277 104.943C252.046 104.956 251.834 104.556 251.809 104.057C251.784 103.558 251.952 103.134 252.183 103.121C252.414 103.109 252.626 103.508 252.651 104.014Z" fill="#263238"/>
<path d="M256.613 113.129L257.118 116.042" stroke="#263238" stroke-linecap="round" stroke-linejoin="round"/>
<path d="M261.516 103.625C261.516 103.625 262.452 101.81 263.493 102.87C264.535 103.931 266.513 108.834 261.179 107.668C261.179 107.668 260.823 110.662 263.493 111.411C266.164 112.159 271.236 108.029 271.404 100.986C271.572 93.9427 264.772 89.1889 261.179 90.5489C261.179 90.5489 255.97 82.3826 250.804 85.8637C245.639 89.3448 249.12 94.7038 248.022 95.9141C246.924 97.1243 244.578 95.9889 244.503 99.2392C244.428 102.49 249.862 102.159 249.862 102.159L250.517 98.5779L255.015 93.8803C255.015 93.8803 253.955 97.2741 255.758 100.225C257.386 102.883 261.516 103.625 261.516 103.625Z" fill="#263238"/>
<path d="M271.405 100.987C271.405 100.987 273.9 101.549 273.626 104.924C273.351 108.299 267.718 116.596 268.142 121.375L282.684 148.475C282.684 148.475 289.228 147.228 288.923 140.49C288.617 133.752 280.631 128.075 282.172 123.109C283.713 118.143 289.765 105.498 281.193 98.2484C272.621 90.9992 259.258 102.11 259.258 102.11L265.802 100.001L271.405 100.987Z" fill="#263238"/>
<path d="M247.461 134.464L243.555 125.48L226 137.078L240.486 162.744L249.27 157.909" stroke="#263238" stroke-linecap="round" stroke-linejoin="round"/>
<path d="M231.465 149.784C231.465 149.784 230.517 147.825 231.783 146.745C233.05 145.666 237.398 142.466 237.398 143.252C237.427 143.443 237.415 143.637 237.363 143.823C237.312 144.009 237.221 144.182 237.098 144.331C235.851 146.003 232.862 148.698 233.056 148.916C233.056 148.916 238.508 145.298 239.032 145.641C239.163 145.729 239.089 146.196 238.633 146.652C237.139 147.982 235.561 149.215 233.911 150.345C233.911 150.345 239.663 148.118 240.405 148.473C240.617 148.573 240.573 148.898 239.906 149.303C238.236 150.211 236.518 151.027 234.759 151.749L236.2 154.157C236.2 154.157 233.48 154.631 231.465 149.784Z" fill="white" stroke="#263238" stroke-linecap="round" stroke-linejoin="round"/>
<path d="M262.808 109.418L263.207 113.429" stroke="#263238" stroke-linejoin="round"/>
</svg>
