<svg width="48" height="48" viewBox="0 0 48 48" fill="none" xmlns="http://www.w3.org/2000/svg">
<path d="M37.9896 22.6944H32.232C28.7904 22.6944 25.992 19.896 25.992 16.4544V10.6968C25.992 7.25519 28.7904 4.45679 32.232 4.45679H37.9896C41.4312 4.45679 44.2296 7.25519 44.2296 10.6968V16.4544C44.2296 19.896 41.4312 22.6944 37.9896 22.6944ZM32.2344 7.33679C30.3816 7.33679 28.8744 8.84399 28.8744 10.6968V16.4544C28.8744 18.3072 30.3816 19.8144 32.2344 19.8144H37.992C39.8448 19.8144 41.352 18.3072 41.352 16.4544V10.6968C41.352 8.84399 39.8448 7.33679 37.992 7.33679H32.2344ZM16.0368 22.6944H10.2792C6.83758 22.6944 4.03918 19.896 4.03918 16.4544V10.6968C4.03918 7.25519 6.83758 4.45679 10.2792 4.45679H16.0368C19.4784 4.45679 22.2768 7.25519 22.2768 10.6968V16.4544C22.2768 19.896 19.4784 22.6944 16.0368 22.6944ZM10.2792 7.33679C8.42638 7.33679 6.91918 8.84399 6.91918 10.6968V16.4544C6.91918 18.3072 8.42638 19.8144 10.2792 19.8144H16.0368C17.8896 19.8144 19.3968 18.3072 19.3968 16.4544V10.6968C19.3968 8.84399 17.8896 7.33679 16.0368 7.33679H10.2792ZM16.0368 44.4528H10.2792C6.83758 44.4528 4.03918 41.6544 4.03918 38.2128V32.4552C4.03918 29.0136 6.83758 26.2152 10.2792 26.2152H16.0368C19.4784 26.2152 22.2768 29.0136 22.2768 32.4552V38.2128C22.2768 41.652 19.4784 44.4528 16.0368 44.4528ZM10.2792 29.0952C8.42638 29.0952 6.91918 30.6024 6.91918 32.4552V38.2128C6.91918 40.0656 8.42638 41.5728 10.2792 41.5728H16.0368C17.8896 41.5728 19.3968 40.0656 19.3968 38.2128V32.4552C19.3968 30.6024 17.8896 29.0952 16.0368 29.0952H10.2792Z" fill="#0F50A4"/>
<path d="M42.7896 30.276H27.432C26.6376 30.276 25.992 29.6304 25.992 28.836C25.992 28.0416 26.6376 27.396 27.432 27.396H42.7896C43.584 27.396 44.2296 28.0416 44.2296 28.836C44.2296 29.6304 43.5864 30.276 42.7896 30.276ZM41.412 44.208C40.6176 44.208 39.972 43.5624 39.972 42.768V34.5984C39.972 33.804 40.6176 33.1584 41.412 33.1584C42.2064 33.1584 42.852 33.804 42.852 34.5984V42.768C42.852 43.5624 42.2088 44.208 41.412 44.208ZM35.112 44.208C34.3176 44.208 33.672 43.5624 33.672 42.768V35.8776C33.672 35.0832 34.3176 34.4376 35.112 34.4376C35.9064 34.4376 36.552 35.0832 36.552 35.8776V42.768C36.552 43.5624 35.9064 44.208 35.112 44.208ZM28.7136 44.208C27.9192 44.208 27.2736 43.5624 27.2736 42.768V33.612C27.2736 32.8176 27.9192 32.172 28.7136 32.172C29.508 32.172 30.1536 32.8176 30.1536 33.612V42.768C30.1536 43.5624 29.508 44.208 28.7136 44.208Z" fill="#ED1E26"/>
</svg>
