<svg width="16" height="16" viewBox="0 0 16 16" fill="none" xmlns="http://www.w3.org/2000/svg">
<g opacity="0.5">
<path d="M14.9308 14.7653L12.5468 12.4019C13.6086 11.1203 14.2509 9.4598 14.2509 7.6472C14.2509 3.60079 11.0541 0.308594 7.12501 0.308594C3.1959 0.308594 0 3.60079 0 7.6472C0 11.6936 3.19677 14.9858 7.12589 14.9858C8.91828 14.9858 10.5569 14.2991 11.8101 13.1705L14.2046 15.5438C14.3021 15.6409 14.4325 15.6952 14.5681 15.695C14.7053 15.695 14.8434 15.6392 14.9457 15.5294C15.1467 15.3134 15.1397 14.9714 14.9308 14.7653ZM7.12501 13.9058C3.77443 13.9058 1.04782 11.0987 1.04782 7.6472C1.04782 4.1966 3.77356 1.38859 7.12501 1.38859C10.4765 1.38859 13.2022 4.19569 13.2022 7.6472C13.2022 11.0987 10.4765 13.9058 7.12501 13.9058Z" fill="#464646"/>
<path d="M11.5846 8.18743C11.2953 8.18743 11.0603 7.94533 11.0603 7.64743C11.0603 5.41273 9.29496 3.59563 7.12591 3.59563C6.83665 3.59563 6.60156 3.35353 6.60156 3.05563C6.60156 2.75773 6.83665 2.51562 7.12591 2.51562C9.87349 2.51562 12.109 4.81783 12.109 7.64743C12.109 7.94623 11.8739 8.18743 11.5846 8.18743Z" fill="#464646"/>
</g>
</svg>
