<svg width="20" height="20" viewBox="0 0 20 20" fill="none" xmlns="http://www.w3.org/2000/svg">
<g opacity="0.5">
<path fill-rule="evenodd" clip-rule="evenodd" d="M2.50033 14.9999H5.83366C6.08366 14.9999 6.25033 14.9166 6.41699 14.7499L15.5837 5.58325C15.917 5.24992 15.917 4.74992 15.5837 4.41659L12.2503 1.08325C11.917 0.749919 11.417 0.749919 11.0837 1.08325L1.91699 10.2499C1.75033 10.4166 1.66699 10.5833 1.66699 10.8333V14.1666C1.66699 14.6666 2.00033 14.9999 2.50033 14.9999ZM3.33365 11.1666L11.667 2.83327L13.8336 4.99994L5.50031 13.3333H3.33365V11.1666ZM17.5003 19.1667C18.0003 19.1667 18.3337 18.8334 18.3337 18.3334C18.3337 17.8334 18.0003 17.5001 17.5003 17.5001H2.50033C2.00033 17.5001 1.66699 17.8334 1.66699 18.3334C1.66699 18.8334 2.00033 19.1667 2.50033 19.1667H17.5003Z" fill="#0A0B09"/>
<mask id="mask0" mask-type="alpha" maskUnits="userSpaceOnUse" x="1" y="0" width="18" height="20">
<path fill-rule="evenodd" clip-rule="evenodd" d="M2.50033 14.9999H5.83366C6.08366 14.9999 6.25033 14.9166 6.41699 14.7499L15.5837 5.58325C15.917 5.24992 15.917 4.74992 15.5837 4.41659L12.2503 1.08325C11.917 0.749919 11.417 0.749919 11.0837 1.08325L1.91699 10.2499C1.75033 10.4166 1.66699 10.5833 1.66699 10.8333V14.1666C1.66699 14.6666 2.00033 14.9999 2.50033 14.9999ZM3.33365 11.1666L11.667 2.83327L13.8336 4.99994L5.50031 13.3333H3.33365V11.1666ZM17.5003 19.1667C18.0003 19.1667 18.3337 18.8334 18.3337 18.3334C18.3337 17.8334 18.0003 17.5001 17.5003 17.5001H2.50033C2.00033 17.5001 1.66699 17.8334 1.66699 18.3334C1.66699 18.8334 2.00033 19.1667 2.50033 19.1667H17.5003Z" fill="white"/>
</mask>
<g mask="url(#mask0)">
<rect width="20" height="20" fill="#0A0B09"/>
</g>
</g>
</svg>
