<svg width="22" height="22" viewBox="0 0 22 22" fill="none" xmlns="http://www.w3.org/2000/svg">
<path d="M3.76588 2.01317C3.83877 2.13301 3.92663 2.23706 4.03213 2.32524C4.13764 2.41307 4.29838 2.56458 4.51589 2.77904C4.73264 2.99314 4.95325 3.21325 5.17691 3.44015C5.42703 3.70477 5.70291 3.98859 6.00559 4.29085H11.9249C12.2146 3.98859 12.4904 3.70477 12.7532 3.44015C12.9773 3.21325 13.1971 2.99314 13.4142 2.77904C13.631 2.56458 13.7925 2.41344 13.8977 2.32524C13.9897 2.23703 14.0749 2.13301 14.1539 2.01317C14.233 1.89329 14.2855 1.76741 14.312 1.6351C14.3385 1.50319 14.3385 1.37088 14.312 1.2382C14.2855 1.1063 14.2195 0.983383 14.1144 0.86956C13.9955 0.75648 13.8912 0.706361 13.7983 0.718426C13.7063 0.731235 13.6045 0.762529 13.4929 0.81302C13.3813 0.863139 13.2497 0.92005 13.0981 0.98264C12.947 1.04597 12.7529 1.07723 12.5162 1.07723C12.2924 1.07723 12.1183 1.02069 11.9936 0.907614C11.8682 0.79379 11.7535 0.670909 11.6483 0.538633C11.5432 0.406358 11.4243 0.283849 11.2927 0.170397C11.1618 0.0573174 10.9839 0 10.7602 0C10.5361 0 10.3559 0.0565401 10.2173 0.170397C10.0792 0.283849 9.95145 0.406729 9.83291 0.538633C9.71437 0.670943 9.59311 0.791154 9.46807 0.897475C9.34337 1.00488 9.18225 1.05841 8.98469 1.05841C8.74799 1.05841 8.56113 1.00488 8.42264 0.897475C8.28373 0.790816 8.16213 0.670943 8.0578 0.538633C7.95229 0.406324 7.83682 0.283849 7.7125 0.170397C7.58704 0.0573174 7.41288 0 7.18959 0C6.96592 0 6.78791 0.0565401 6.65709 0.170397C6.52547 0.283849 6.40387 0.406729 6.29225 0.538633C6.18024 0.670943 6.06167 0.79379 5.937 0.907614C5.8123 1.02069 5.64426 1.07723 5.43364 1.07723C5.19731 1.07723 5.0001 1.04594 4.84207 0.98264C4.68438 0.919679 4.54933 0.863139 4.4377 0.81302C4.3257 0.762529 4.22363 0.730863 4.13193 0.718426C4.04022 0.706361 3.93475 0.756108 3.81617 0.86956C3.71105 0.983383 3.64201 1.10626 3.6094 1.2382C3.57603 1.37088 3.57603 1.50316 3.6094 1.6351C3.6408 1.76741 3.69299 1.89329 3.76588 2.01317ZM12.6155 13.3312H12.6094C12.6278 13.4533 12.6155 13.3312 12.6155 13.3312ZM17.6962 13.8279C15.3264 13.8279 13.4047 12.8291 13.394 11.5962C13.394 12.0677 13.3928 12.4797 13.3928 12.4797C13.3928 13.0085 13.747 13.494 14.3354 13.8777C14.9305 14.0311 15.4599 14.2478 15.9007 14.5154C16.4486 14.6466 17.0551 14.7216 17.6962 14.7216C20.0741 14.7216 21.9997 13.7186 21.9997 12.4797V11.5861C21.9996 12.8246 20.0733 13.8279 17.6962 13.8279ZM12.1881 21.1059C9.81798 21.1059 7.89667 20.1079 7.8859 18.8746C7.8859 19.3457 7.88477 19.7581 7.88477 19.7581C7.88477 20.9966 9.81186 22 12.1881 22C14.5657 22 16.4912 20.9967 16.4912 19.7581V18.8641C16.4911 20.1034 14.5657 21.1059 12.1881 21.1059ZM13.3928 10.92C13.3928 12.1586 15.3199 13.1619 17.6962 13.1619C20.0741 13.1619 21.9997 12.1586 21.9997 10.92C21.9997 9.68148 20.0741 8.67775 17.6962 8.67775C15.3199 8.67775 13.3928 9.68074 13.3928 10.92ZM12.6094 13.3312C12.5986 13.2569 12.576 13.0937 12.5327 12.759C12.3673 11.4846 12.6432 10.4184 12.6432 10.4184C12.9409 8.7539 15.2374 8.11391 16.0043 7.94466C15.7408 7.63672 15.4761 7.35138 15.2121 7.08831C14.4226 6.33221 13.5287 5.68357 12.5289 5.14155H5.38644C4.37362 5.68316 3.47242 6.33221 2.68364 7.08831C2.34105 7.41623 2.01264 7.77845 1.69689 8.17535C1.38114 8.57224 1.09531 9.01324 0.83828 9.49757C0.582005 9.98304 0.377912 10.5062 0.227105 11.067C0.0751626 11.6275 0 12.2295 0 12.8717C0 13.9432 0.170724 14.9006 0.51293 15.7449C0.854379 16.5892 1.39074 17.3074 2.12117 17.8992C2.85086 18.4917 3.7816 18.9447 4.913 19.2599C5.53835 19.434 6.23198 19.5599 6.99468 19.6383V17.2584C6.93868 16.2959 7.18728 15.9319 7.18728 15.9319C8.15866 13.3078 12.4337 13.3289 12.6094 13.3312ZM6.8274 11.1575C6.8274 10.9479 7.00043 10.7779 7.21336 10.7779H8.67623V10.078H7.21336C7.00046 10.078 6.8274 9.90835 6.8274 9.69845C6.8274 9.48851 7.00043 9.31852 7.21336 9.31852H8.48401L6.99276 7.85081C6.84852 7.70911 6.84852 7.47842 6.99276 7.33671C7.13741 7.1946 7.37105 7.1946 7.51566 7.33671L8.9881 8.78593C9.01187 8.7814 9.03643 8.77877 9.06178 8.77877C9.09284 8.77877 9.12277 8.78293 9.15153 8.78968L10.6754 7.28994C10.8196 7.14783 11.0536 7.14783 11.1979 7.28994C11.3421 7.43164 11.3421 7.66233 11.1983 7.80404L9.65985 9.31848H10.9102C11.1234 9.31848 11.2961 9.48848 11.2961 9.69841C11.2961 9.90835 11.1234 10.0779 10.9102 10.0779H9.44774V10.7779H10.9102C11.1235 10.7779 11.2962 10.9479 11.2962 11.1574C11.2962 11.367 11.1235 11.5374 10.9102 11.5374H9.44774V12.4167C9.44774 12.6267 9.27509 12.7966 9.06178 12.7966C8.84885 12.7966 8.67623 12.6267 8.67623 12.4167V11.5374H7.21336C7.00043 11.5374 6.8274 11.367 6.8274 11.1575ZM17.6962 18.5067C17.5589 18.5067 17.4219 18.503 17.2865 18.4962C17.2812 18.5353 17.2823 18.5753 17.2745 18.6138C17.3025 18.6929 17.318 18.7773 17.318 18.8648V19.3909C17.4427 19.3977 17.5688 19.4015 17.697 19.4015C20.0745 19.4015 22 18.3982 22 17.1591V16.2654C21.9996 17.5041 20.0733 18.5067 17.6962 18.5067ZM17.6962 16.9477C17.5589 16.9477 17.4219 16.9435 17.2865 16.9371C17.2812 16.9755 17.2823 17.0159 17.2745 17.0539C17.3025 17.1327 17.318 17.2175 17.318 17.3052V17.8306C17.4427 17.8374 17.5688 17.8412 17.697 17.8412C20.0745 17.8412 22 16.8376 22 15.5991V14.7058C21.9996 15.9439 20.0733 16.9477 17.6962 16.9477ZM17.6962 16.2809C20.0741 16.2809 21.9997 15.2783 21.9997 14.039V13.1461C21.9997 14.3846 20.0734 15.3876 17.6962 15.3876C17.4069 15.3876 17.1249 15.3725 16.8518 15.3439C17.0701 15.6288 17.217 15.939 17.2796 16.2699C17.4181 16.2775 17.5565 16.2809 17.6962 16.2809ZM12.1881 19.547C9.81798 19.547 7.89667 18.549 7.8859 17.315C7.8859 17.7861 7.88477 18.1985 7.88477 18.1985C7.88477 19.437 9.81186 20.4403 12.1881 20.4403C14.5657 20.4403 16.4912 19.437 16.4912 18.1985V17.3052C16.4911 18.5437 14.5657 19.547 12.1881 19.547ZM12.1881 14.3967C9.81183 14.3967 7.88477 15.3997 7.88477 16.6389C7.88477 17.8773 9.81186 18.8807 12.1881 18.8807C14.5657 18.8807 16.4912 17.8773 16.4912 16.6389C16.4911 15.3997 14.5657 14.3967 12.1881 14.3967Z" fill="#06A200"/>
</svg>
