<svg width="38" height="38" viewBox="0 0 38 38" fill="none" xmlns="http://www.w3.org/2000/svg">
<g clip-path="url(#clip0)">
<path d="M33.467 34.3809C33.467 34.6186 33.4202 34.8539 33.3293 35.0734C33.2383 35.2929 33.105 35.4924 32.937 35.6604C32.769 35.8285 32.5695 35.9618 32.35 36.0527C32.1304 36.1436 31.8951 36.1904 31.6575 36.1904H6.32417C6.08654 36.1904 5.85124 36.1436 5.6317 36.0527C5.41216 35.9618 5.21268 35.8285 5.04465 35.6604C4.87662 35.4924 4.74333 35.2929 4.65239 35.0734C4.56145 34.8539 4.51465 34.6186 4.51465 34.3809V1.80952C4.51465 1.57189 4.56145 1.33659 4.65239 1.11705C4.74333 0.897507 4.87662 0.698027 5.04465 0.529997C5.21268 0.361967 5.41216 0.228679 5.6317 0.137742C5.85124 0.0468047 6.08654 0 6.32417 0H21.8499V10.0428C21.8499 10.5228 22.0405 10.983 22.3799 11.3224C22.7192 11.6617 23.1795 11.8524 23.6594 11.8524H33.467V34.3809Z" fill="#EBECF0"/>
<path d="M33.467 34.3809V36.1905C33.467 36.6704 33.2764 37.1306 32.937 37.47C32.5976 37.8093 32.1374 38 31.6575 38H6.32417C5.84426 38 5.384 37.8093 5.04465 37.47C4.70529 37.1306 4.51465 36.6704 4.51465 36.1905V34.3809C4.51465 34.6186 4.56145 34.8539 4.65239 35.0734C4.74333 35.293 4.87662 35.4924 5.04465 35.6605C5.21267 35.8285 5.41216 35.9618 5.6317 36.0527C5.85124 36.1437 6.08654 36.1905 6.32417 36.1905H31.6575C31.8951 36.1905 32.1304 36.1437 32.3499 36.0527C32.5695 35.9618 32.769 35.8285 32.937 35.6605C33.105 35.4924 33.2383 35.293 33.3293 35.0734C33.4202 34.8539 33.467 34.6186 33.467 34.3809ZM33.467 11.5991V11.8524H23.6594C23.1795 11.8524 22.7192 11.6618 22.3799 11.3224C22.0405 10.9831 21.8499 10.5228 21.8499 10.0429V3.02448e-05C22.088 -0.00134661 22.3241 0.0442987 22.5446 0.134349C22.765 0.224399 22.9655 0.357083 23.1346 0.524792L32.9422 10.3143C33.1099 10.4834 33.2426 10.6839 33.3327 10.9044C33.4227 11.1248 33.4684 11.3609 33.467 11.5991Z" fill="#C1C7D0"/>
<path d="M10.8662 13.5898H19.0091V15.2184H10.8662V13.5898ZM10.8662 18.4756H27.1519V20.1041H10.8662V18.4756ZM10.8662 23.3613H27.1519V24.9898H10.8662V23.3613ZM10.8662 28.247H27.1519V29.8755H10.8662V28.247Z" fill="#0F50A4"/>
</g>
<defs>
<clipPath id="clip0">
<rect width="38" height="38" fill="white"/>
</clipPath>
</defs>
</svg>
