<svg width="30" height="30" viewBox="0 0 30 30" fill="none" xmlns="http://www.w3.org/2000/svg">
<path d="M25.1693 3.61311C24.9312 3.37534 24.5466 3.37534 24.3086 3.61311L21.6955 6.22622V1.6087C21.6955 1.27284 21.4235 1 21.0868 1H7.6956C7.53421 1 7.37907 1.0639 7.26524 1.17833L1.17833 7.26529C1.0639 7.37912 1 7.53456 1 7.69565V28.3913C1 28.7275 1.27284 29 1.60869 29H24.7389C25.0757 29 25.3476 28.7275 25.3476 28.3913C25.3476 28.0555 25.0757 27.7826 24.7389 27.7826H21.6955V15.252L28.8214 8.12602C29.0595 7.88795 29.0595 7.50335 28.8214 7.26529L25.1693 3.61311ZM20.6576 14.5684C20.657 14.569 20.6558 14.5702 20.6552 14.5708L12.3131 22.913H9.52167V20.1216L21.6955 7.94769L24.4869 10.7391L20.6576 14.5684ZM7.94763 2.21739H8.30429V8.30435H2.21738V7.94769L7.94763 2.21739ZM20.4781 27.7826H2.21738V9.52174H8.91298C9.24883 9.52174 9.52167 9.24919 9.52167 8.91304V2.21739H20.4781V7.44361L8.48262 19.4392C8.36819 19.553 8.30429 19.7085 8.30429 19.8696V22.913H6.47822C6.14237 22.913 5.86953 23.1859 5.86953 23.5217C5.86953 23.8579 6.14237 24.1304 6.47822 24.1304H16.2173C16.554 24.1304 16.826 23.8579 16.826 23.5217C16.826 23.1859 16.554 22.913 16.2173 22.913H14.0345L20.4781 16.4694V27.7826ZM25.3476 9.8784L22.5562 7.08696L24.7389 4.90421L27.5304 7.69565L25.3476 9.8784Z" fill="#0F50A4" stroke="#0F50A4" stroke-width="0.2"/>
</svg>
