<svg width="20" height="20" viewBox="0 0 20 20" fill="none" xmlns="http://www.w3.org/2000/svg">
<g opacity="0.5">
<path fill-rule="evenodd" clip-rule="evenodd" d="M2.49996 15.0007H5.83329C6.08329 15.0007 6.24996 14.9173 6.41663 14.7507L15.5833 5.58398C15.9166 5.25065 15.9166 4.75065 15.5833 4.41732L12.25 1.08398C11.9166 0.750651 11.4166 0.750651 11.0833 1.08398L1.91663 10.2507C1.74996 10.4173 1.66663 10.584 1.66663 10.834V14.1673C1.66663 14.6673 1.99996 15.0007 2.49996 15.0007ZM3.33328 11.1673L11.6666 2.83401L13.8333 5.00067L5.49995 13.334H3.33328V11.1673ZM17.5 19.1675C18 19.1675 18.3333 18.8341 18.3333 18.3341C18.3333 17.8341 18 17.5008 17.5 17.5008H2.49996C1.99996 17.5008 1.66663 17.8341 1.66663 18.3341C1.66663 18.8341 1.99996 19.1675 2.49996 19.1675H17.5Z" fill="#0A0B09"/>
<mask id="mask0" mask-type="alpha" maskUnits="userSpaceOnUse" x="1" y="0" width="18" height="20">
<path fill-rule="evenodd" clip-rule="evenodd" d="M2.49996 15.0007H5.83329C6.08329 15.0007 6.24996 14.9173 6.41663 14.7507L15.5833 5.58398C15.9166 5.25065 15.9166 4.75065 15.5833 4.41732L12.25 1.08398C11.9166 0.750651 11.4166 0.750651 11.0833 1.08398L1.91663 10.2507C1.74996 10.4173 1.66663 10.584 1.66663 10.834V14.1673C1.66663 14.6673 1.99996 15.0007 2.49996 15.0007ZM3.33328 11.1673L11.6666 2.83401L13.8333 5.00067L5.49995 13.334H3.33328V11.1673ZM17.5 19.1675C18 19.1675 18.3333 18.8341 18.3333 18.3341C18.3333 17.8341 18 17.5008 17.5 17.5008H2.49996C1.99996 17.5008 1.66663 17.8341 1.66663 18.3341C1.66663 18.8341 1.99996 19.1675 2.49996 19.1675H17.5Z" fill="white"/>
</mask>
<g mask="url(#mask0)">
<rect width="20" height="20" fill="#0A0B09"/>
</g>
</g>
</svg>
