<svg width="18" height="18" viewBox="0 0 18 18" fill="none" xmlns="http://www.w3.org/2000/svg">
<path fill-rule="evenodd" clip-rule="evenodd" d="M16.7563 5.01079C16.0161 4.26851 14.8155 4.26851 14.0752 5.01079L9.8433 9.25858C9.5214 9.58168 9.33629 10.0159 9.32488 10.471L9.27164 12.6197C9.268 12.7667 9.32383 12.9089 9.42647 13.0141C9.52911 13.1193 9.66987 13.1786 9.81686 13.1786H11.9381C12.4097 13.1786 12.8612 12.9904 13.1936 12.6567L17.4455 8.38881C18.1849 7.64721 18.1847 6.44453 17.4457 5.70273L16.7563 5.01079ZM14.8475 5.78104C15.1615 5.46618 15.6697 5.46611 15.9838 5.78083L16.673 6.47256C16.9882 6.78903 16.988 7.30294 16.6732 7.61856L16.411 7.88173L14.5828 6.0467L14.8475 5.78104ZM13.813 6.81943L10.616 10.0284C10.4917 10.1532 10.4198 10.3214 10.4153 10.4982L10.3759 12.0878H11.9381C12.1188 12.0878 12.2924 12.0158 12.4209 11.8868L15.6411 8.65447L13.813 6.81943Z" fill="#130F26"/>
<path d="M10.0305 1C10.3317 1 10.5759 1.24418 10.5759 1.54538V2.16182C11.575 2.22962 12.4433 2.55509 13.0854 3.16714C13.407 3.47371 13.6581 3.83912 13.8382 4.25486C13.7414 4.32806 13.6485 4.40887 13.5603 4.49729L12.9739 5.08589C12.8477 4.60642 12.6239 4.23422 12.3328 3.95665C11.9301 3.57279 11.3464 3.32024 10.5759 3.25556V3.93835C10.5759 4.23956 10.3317 4.48373 10.0305 4.48373C9.72927 4.48373 9.4851 4.23956 9.4851 3.93835V3.23913H4.70147V3.93835C4.70147 4.23956 4.4573 4.48373 4.15609 4.48373C3.85489 4.48373 3.61071 4.23956 3.61071 3.93835V3.25567C2.84316 3.32051 2.25924 3.5729 1.85499 3.95717C1.38679 4.40224 1.09076 5.08962 1.09076 6.07004V6.3842H11.6805L10.5938 7.47496H1.09076V12.6507C1.09076 13.6509 1.38846 14.3552 1.8588 14.8111C2.33185 15.2696 3.04848 15.5435 4.0147 15.5435H10.1652C11.1376 15.5435 11.855 15.2731 12.3265 14.8229C12.6205 14.5422 12.8461 14.1657 12.9733 13.6811C13.2448 13.5574 13.4944 13.3851 13.7088 13.1699L14.1799 12.697V12.7057C14.1799 13.9111 13.8112 14.9134 13.0798 15.6118C12.3522 16.3065 11.335 16.6343 10.1652 16.6343H4.0147C2.84544 16.6343 1.82741 16.2997 1.09967 15.5943C0.369216 14.8864 0 13.8716 0 12.6507V6.07004C0 4.86378 0.370887 3.86301 1.10348 3.16661C1.7464 2.55544 2.61409 2.22987 3.61071 2.16189V1.54538C3.61071 1.24418 3.85489 1 4.15609 1C4.4573 1 4.70147 1.24418 4.70147 1.54538V2.14837H9.4851V1.54538C9.4851 1.24418 9.72927 1 10.0305 1Z" fill="#130F26"/>
<path d="M3.31441 9.76948C3.31441 9.46828 3.55859 9.2241 3.85979 9.2241H3.86653C4.16774 9.2241 4.41191 9.46828 4.41191 9.76948C4.41191 10.0707 4.16774 10.3149 3.86653 10.3149H3.85979C3.55859 10.3149 3.31441 10.0707 3.31441 9.76948Z" fill="#130F26"/>
<path d="M7.09338 9.2241C6.79217 9.2241 6.548 9.46828 6.548 9.76948C6.548 10.0707 6.79217 10.3149 7.09338 10.3149H7.10012C7.40132 10.3149 7.6455 10.0707 7.6455 9.76948C7.6455 9.46828 7.40132 9.2241 7.10012 9.2241H7.09338Z" fill="#130F26"/>
<path d="M6.548 12.5957C6.548 12.2945 6.79217 12.0503 7.09338 12.0503H7.10012C7.40132 12.0503 7.6455 12.2945 7.6455 12.5957C7.6455 12.8969 7.40132 13.1411 7.10012 13.1411H7.09338C6.79217 13.1411 6.548 12.8969 6.548 12.5957Z" fill="#130F26"/>
<path d="M3.31441 12.5957C3.31441 12.2945 3.55859 12.0503 3.85979 12.0503H3.86653C4.16774 12.0503 4.41191 12.2945 4.41191 12.5957C4.41191 12.8969 4.16774 13.1411 3.86653 13.1411H3.85979C3.55859 13.1411 3.31441 12.8969 3.31441 12.5957Z" fill="#130F26"/>
</svg>
