<svg width="28" height="29" viewBox="0 0 28 29" fill="none" xmlns="http://www.w3.org/2000/svg">
<path d="M17.6566 11.0155C17.6566 8.45621 15.5746 6.37415 13.0155 6.37415C10.4562 6.37415 8.37415 8.45621 8.37415 11.0155C8.37415 13.5746 10.4562 15.6566 13.0155 15.6566C15.5746 15.6566 17.6566 13.5746 17.6566 11.0155ZM13.0155 13.7024C11.5337 13.7024 10.3284 12.4971 10.3284 11.0155C10.3284 9.53367 11.5337 8.32841 13.0155 8.32841C14.4971 8.32841 15.7024 9.53367 15.7024 11.0155C15.7024 12.4971 14.4971 13.7024 13.0155 13.7024ZM23.8088 13.1912L17.2435 19.9419C16.8683 20.3188 16.5818 20.7844 16.4146 21.2888L16.3999 21.3335L15.3417 25.9863L20.0069 24.9418L20.053 24.9265C20.5602 24.7587 21.0281 24.4705 21.4059 24.0928L27.9702 17.3431L23.8088 13.1912ZM20.0202 22.715C19.9836 22.751 19.9451 22.7854 19.905 22.8176L18.5249 21.4365C18.5581 21.3955 18.5931 21.356 18.6305 21.3188L23.8298 15.9725L25.2242 17.3639L20.0202 22.715ZM13.0155 23.4604V26L12.4013 25.5039C12.3063 25.4272 10.049 23.5943 7.75941 20.9657C4.60122 17.3399 3 14.0852 3 11.2922V11.0155C3 5.49295 7.49295 1 13.0155 1C18.5378 1 23.0308 5.49295 23.0308 11.0155V11.2329L20.6218 13.6976C20.9094 12.8835 21.0765 12.0743 21.0765 11.2922V11.0155C21.0765 6.57041 17.4604 2.95427 13.0155 2.95427C8.57041 2.95427 4.95427 6.57041 4.95427 11.0155V11.2922C4.95427 16.012 11.0353 21.7253 13.0155 23.4604Z" fill="#0F50A4"/>
</svg>
