<svg width="28" height="25" viewBox="0 0 28 25" fill="none" xmlns="http://www.w3.org/2000/svg">
<path d="M11.3928 5.98839V4.95126H16.4494C16.7622 4.95126 17.0098 5.18507 17.0098 5.46683C17.0098 5.75459 16.7557 5.9824 16.4494 5.9824H11.3928V5.98839Z" fill="#0F50A4" stroke="#0F50A4" stroke-width="1.5" stroke-miterlimit="10"/>
<path d="M24.3082 10.9402V15.5443H23.1809V10.9402C23.1809 10.6525 23.435 10.4246 23.7413 10.4246C24.0541 10.4186 24.3082 10.6525 24.3082 10.9402Z" fill="#0F50A4" stroke="#0F50A4" stroke-width="1.5" stroke-miterlimit="10"/>
<path d="M23.1809 15.4844H24.3082V21.0417C24.3082 21.6232 24.0996 22.1628 23.7412 22.5944C23.2265 23.2239 22.4119 23.6315 21.4931 23.6315H5.69124C4.13386 23.6315 2.87622 22.4745 2.87622 21.0417V7.54108C2.87622 6.10829 4.13386 4.95126 5.69124 4.95126H11.4386V5.98839H5.69124C4.75942 5.98839 4.00353 6.6838 4.00353 7.54108V21.0417C4.00353 21.899 4.75942 22.5944 5.69124 22.5944H21.4931C22.425 22.5944 23.1809 21.899 23.1809 21.0417V15.4844Z" fill="#0F50A4" stroke="#0F50A4" stroke-width="1.5" stroke-miterlimit="10"/>
<path d="M22.5376 7.09141L22.8177 6.83384L22.5376 6.57621L21.6913 5.7976L21.4544 5.57959L21.2174 5.7976L7.44833 18.4651L7.3353 18.5691V18.7227V19.4351V19.7851H7.6853H8.59764H8.7341L8.83455 19.6927L22.5376 7.09141Z" fill="#0F50A4" stroke="#0F50A4" stroke-width="0.7"/>
<path d="M22.8496 4.23877L22.592 4.47574L22.8496 4.71271L23.7665 5.55628L24.0241 5.79325L24.2817 5.55628L25.6686 4.28033L25.9261 4.04336L25.6686 3.80639L24.7517 2.96282L24.4941 2.72585L24.2365 2.96282L22.8496 4.23877Z" fill="#0F50A4" stroke="#0F50A4" stroke-width="0.7"/>
</svg>
