<svg width="158" height="173" viewBox="0 0 158 173" fill="none" xmlns="http://www.w3.org/2000/svg">
<circle cx="79" cy="93.642" r="79" fill="#EBEBEB"/>
<mask id="mask0" mask-type="alpha" maskUnits="userSpaceOnUse" x="0" y="14" width="158" height="159">
<circle cx="79" cy="93.642" r="79" fill="#E4E4E4"/>
</mask>
<g mask="url(#mask0)">
<path d="M143.547 122.547C143.506 123.549 142.489 144.227 128.527 155.526C127.943 155.998 127.336 156.453 126.707 156.891L126.232 156.43H126.508C126.833 156.43 127.146 156.301 127.376 156.072C127.606 155.843 127.736 155.532 127.736 155.208V114.449C128.028 112.885 128.303 111.348 128.554 109.852C129.916 101.722 130.546 94.8533 129.526 92C129.968 93.1022 138.841 115.646 134.022 138.616C138.794 132.114 143.323 125.289 143.547 122.547Z" fill="#4C6AB2"/>
<rect x="31" y="23" width="96" height="153" rx="2" fill="white"/>
<path d="M39.0383 33.4062C38.8212 33.4065 38.6132 33.4924 38.4597 33.645C38.3063 33.7977 38.22 34.0048 38.2197 34.2207V67.884C38.22 68.0999 38.3063 68.3069 38.4597 68.4596C38.6132 68.6123 38.8212 68.6982 39.0383 68.6984H117.346C117.563 68.6982 117.771 68.6123 117.924 68.4596C118.078 68.3069 118.164 68.0999 118.164 67.884V34.2207C118.164 34.0047 118.078 33.7977 117.924 33.645C117.771 33.4924 117.563 33.4065 117.346 33.4062L39.0383 33.4062Z" fill="#B4CDDB"/>
<path d="M51.3968 83.8007C52.4516 83.8007 53.3067 82.9499 53.3067 81.9004C53.3067 80.8509 52.4516 80 51.3968 80C50.342 80 49.4869 80.8509 49.4869 81.9004C49.4869 82.9499 50.342 83.8007 51.3968 83.8007Z" fill="#4C6AB2"/>
<path d="M51.3968 93.031C52.4516 93.031 53.3067 92.1802 53.3067 91.1307C53.3067 90.0811 52.4516 89.2303 51.3968 89.2303C50.342 89.2303 49.4869 90.0811 49.4869 91.1307C49.4869 92.1802 50.342 93.031 51.3968 93.031Z" fill="#4C6AB2"/>
<path d="M51.3968 102.261C52.4516 102.261 53.3067 101.41 53.3067 100.361C53.3067 99.3114 52.4516 98.4606 51.3968 98.4606C50.342 98.4606 49.4869 99.3114 49.4869 100.361C49.4869 101.41 50.342 102.261 51.3968 102.261Z" fill="#4C6AB2"/>
<path d="M51.3968 111.492C52.4516 111.492 53.3067 110.641 53.3067 109.591C53.3067 108.542 52.4516 107.691 51.3968 107.691C50.342 107.691 49.4869 108.542 49.4869 109.591C49.4869 110.641 50.342 111.492 51.3968 111.492Z" fill="#4C6AB2"/>
<path d="M51.3968 120.722C52.4516 120.722 53.3067 119.871 53.3067 118.821C53.3067 117.772 52.4516 116.921 51.3968 116.921C50.342 116.921 49.4869 117.772 49.4869 118.821C49.4869 119.871 50.342 120.722 51.3968 120.722Z" fill="#4C6AB2"/>
<path d="M51.3968 129.952C52.4516 129.952 53.3067 129.101 53.3067 128.052C53.3067 127.002 52.4516 126.151 51.3968 126.151C50.342 126.151 49.4869 127.002 49.4869 128.052C49.4869 129.101 50.342 129.952 51.3968 129.952Z" fill="#4C6AB2"/>
<path d="M51.3968 139.182C52.4516 139.182 53.3067 138.331 53.3067 137.282C53.3067 136.232 52.4516 135.382 51.3968 135.382C50.342 135.382 49.4869 136.232 49.4869 137.282C49.4869 138.331 50.342 139.182 51.3968 139.182Z" fill="#4C6AB2"/>
<path d="M59.268 80.9164C59.0086 80.9208 58.7613 81.0264 58.5794 81.2104C58.3976 81.3945 58.2957 81.6423 58.2957 81.9004C58.2957 82.1585 58.3976 82.4063 58.5794 82.5903C58.7613 82.7744 59.0086 82.88 59.268 82.8844H105.892C106.153 82.8875 106.405 82.7875 106.593 82.6061C106.781 82.4247 106.888 82.1767 106.893 81.9165C106.897 81.6562 106.797 81.4049 106.616 81.2175C106.434 81.03 106.186 80.9218 105.924 80.9164C105.913 80.9162 105.902 80.9162 105.892 80.9164H59.268Z" fill="#DADADA"/>
<path d="M59.2679 90.1467C59.0085 90.1511 58.7612 90.2567 58.5794 90.4407C58.3975 90.6248 58.2955 90.8726 58.2955 91.1307C58.2955 91.3888 58.3975 91.6366 58.5794 91.8207C58.7612 92.0047 59.0085 92.1103 59.2679 92.1147H105.892C106.153 92.1179 106.405 92.0179 106.593 91.8365C106.781 91.6551 106.889 91.4071 106.893 91.1468C106.897 90.8865 106.798 90.6351 106.616 90.4477C106.434 90.2602 106.186 90.152 105.924 90.1467C105.913 90.1466 105.902 90.1466 105.892 90.1467H59.2679Z" fill="#DADADA"/>
<path d="M59.2679 99.3769C59.0085 99.3813 58.7612 99.4869 58.5794 99.6709C58.3975 99.855 58.2955 100.103 58.2955 100.361C58.2955 100.619 58.3975 100.867 58.5794 101.051C58.7612 101.235 59.0085 101.341 59.2679 101.345H105.892C106.153 101.348 106.405 101.248 106.593 101.067C106.781 100.885 106.889 100.637 106.893 100.377C106.897 100.117 106.798 99.8653 106.616 99.6779C106.434 99.4904 106.186 99.3822 105.924 99.3769C105.913 99.3768 105.902 99.3768 105.892 99.3769H59.2679Z" fill="#DADADA"/>
<path d="M59.2679 108.607C59.0085 108.612 58.7613 108.717 58.5794 108.901C58.3975 109.085 58.2956 109.333 58.2956 109.591C58.2956 109.849 58.3975 110.097 58.5794 110.281C58.7613 110.465 59.0085 110.571 59.2679 110.575H105.892C106.022 110.578 106.151 110.555 106.273 110.508C106.394 110.46 106.505 110.39 106.598 110.3C106.692 110.21 106.767 110.103 106.819 109.984C106.871 109.865 106.899 109.737 106.901 109.607C106.903 109.478 106.879 109.349 106.831 109.229C106.784 109.108 106.712 108.998 106.621 108.905C106.531 108.812 106.422 108.738 106.303 108.687C106.183 108.636 106.054 108.609 105.924 108.607C105.913 108.607 105.902 108.607 105.892 108.607H59.2679Z" fill="#DADADA"/>
<path d="M59.2679 117.837C59.0085 117.842 58.7613 117.947 58.5794 118.131C58.3975 118.316 58.2956 118.563 58.2956 118.821C58.2956 119.08 58.3975 119.327 58.5794 119.511C58.7613 119.695 59.0085 119.801 59.2679 119.805H105.892C106.153 119.809 106.405 119.709 106.593 119.527C106.781 119.346 106.888 119.098 106.893 118.838C106.897 118.577 106.797 118.326 106.616 118.139C106.434 117.951 106.186 117.843 105.924 117.837C105.913 117.837 105.902 117.837 105.892 117.837H59.2679Z" fill="#DADADA"/>
<path d="M59.2679 127.068C59.0085 127.072 58.7613 127.178 58.5794 127.362C58.3975 127.546 58.2956 127.794 58.2956 128.052C58.2956 128.31 58.3975 128.558 58.5794 128.742C58.7613 128.926 59.0085 129.031 59.2679 129.036H105.892C106.153 129.039 106.405 128.939 106.593 128.757C106.781 128.576 106.888 128.328 106.893 128.068C106.897 127.808 106.797 127.556 106.616 127.369C106.434 127.181 106.186 127.073 105.924 127.068C105.913 127.068 105.902 127.068 105.892 127.068H59.2679Z" fill="#DADADA"/>
<path d="M59.2679 136.298C59.0085 136.302 58.7612 136.408 58.5794 136.592C58.3975 136.776 58.2955 137.024 58.2955 137.282C58.2955 137.54 58.3975 137.788 58.5794 137.972C58.7612 138.156 59.0085 138.262 59.2679 138.266H105.892C106.153 138.269 106.405 138.169 106.593 137.988C106.781 137.806 106.889 137.558 106.893 137.298C106.897 137.038 106.798 136.786 106.616 136.599C106.434 136.411 106.186 136.303 105.924 136.298C105.913 136.298 105.902 136.298 105.892 136.298H59.2679Z" fill="#DADADA"/>
</g>
<path d="M31 2C31 0.895432 31.8954 0 33 0H125C126.105 0 127 0.895431 127 2V73H31V2Z" fill="#EBF2F8"/>
<path d="M39.5156 14C39.2985 14.0003 39.0905 14.103 38.937 14.2856C38.7836 14.4682 38.6973 14.7157 38.697 14.9739V55.2295C38.6973 55.4877 38.7836 55.7353 38.937 55.9179C39.0905 56.1004 39.2985 56.2031 39.5156 56.2034H117.823C118.04 56.2031 118.248 56.1004 118.401 55.9179C118.555 55.7353 118.641 55.4877 118.641 55.2295V14.9739C118.641 14.7157 118.555 14.4682 118.401 14.2856C118.248 14.103 118.04 14.0003 117.823 14L39.5156 14Z" fill="#4C6AB2"/>
<g opacity="0.7">
<path opacity="0.35" d="M52.7848 36.1553H50V43.4654H52.7848V36.1553Z" fill="white"/>
<path opacity="0.35" d="M52.7848 36.1553H50V47H52.7848V36.1553Z" fill="white"/>
<path opacity="0.35" d="M57.5862 31.0328H54.8014V41.7939H57.5862V31.0328Z" fill="white"/>
<path opacity="0.35" d="M57.5862 31.0328H54.8014V47H57.5862V31.0328Z" fill="white"/>
<path opacity="0.35" d="M62.3925 34.1839H59.6077V42.8214H62.3925V34.1839Z" fill="white"/>
<path opacity="0.35" d="M62.3925 34.1839H59.6077V47H62.3925V34.1839Z" fill="white"/>
<path opacity="0.35" d="M67.1986 29.7595H64.4138V41.381H67.1986V29.7595Z" fill="white"/>
<path opacity="0.35" d="M67.1986 29.7595H64.4138V47H67.1986V29.7595Z" fill="white"/>
<path opacity="0.35" d="M72 23H69.2152V39.1737H72V23Z" fill="white"/>
<path opacity="0.35" d="M72 23H69.2152V47H72V23Z" fill="white"/>
</g>
<g opacity="0.7">
<path opacity="0.25" d="M105.9 36.6411C106.891 30.5368 102.745 24.785 96.6411 23.7941C90.5368 22.8033 84.785 26.9485 83.7941 33.0528C82.8033 39.1571 86.9485 44.9089 93.0528 45.8998C99.1571 46.8906 104.909 42.7454 105.9 36.6411Z" fill="white"/>
<path opacity="0.25" d="M94.694 34.7274V45.8598C91.7251 45.7981 88.8992 44.5958 86.8232 42.5111C84.7471 40.4265 83.5866 37.6257 83.5906 34.7102C83.5947 31.7947 84.7632 28.997 86.845 26.918C88.9269 24.8389 91.7561 23.6443 94.7252 23.5906L94.694 34.7274Z" fill="white"/>
<path opacity="0.25" d="M94.7252 34.7252L89.158 25.2676C89.9841 24.7256 90.8785 24.3085 91.8148 24.0285C92.75 23.7431 93.7183 23.5958 94.692 23.5906L94.7252 34.7252Z" fill="white"/>
</g>
</svg>
