<svg width="250" height="207" viewBox="0 0 250 207" fill="none" xmlns="http://www.w3.org/2000/svg">
<path d="M125.019 195.606C173.094 195.606 212.067 192.56 212.067 188.803C212.067 185.046 173.094 182 125.019 182C76.943 182 37.9699 185.046 37.9699 188.803C37.9699 192.56 76.943 195.606 125.019 195.606Z" fill="#F5F5F5"/>
<path d="M58.3776 88.0669C58.1242 88.0672 57.8813 88.1681 57.7021 88.3476C57.5229 88.5271 57.4221 88.7705 57.4219 89.0243V188.021C57.4221 188.275 57.5229 188.518 57.7021 188.698C57.8813 188.877 58.1242 188.978 58.3776 188.978H182.286C182.539 188.978 182.782 188.877 182.961 188.698C183.14 188.518 183.241 188.275 183.241 188.021V104.915C183.241 104.662 183.14 104.418 182.961 104.239C182.782 104.059 182.539 103.958 182.286 103.958H111.171C110.449 103.958 109.753 103.689 109.219 103.202L93.2309 88.6506C92.8185 88.2746 92.2807 88.0664 91.7231 88.0669H58.3776Z" fill="#3F3D56"/>
<path d="M115.603 75.2741C115.448 75.1832 115.264 75.1575 115.09 75.2027C114.916 75.2479 114.768 75.3603 114.677 75.5151L77.9824 138.065C77.8917 138.22 77.866 138.405 77.9112 138.579C77.9563 138.753 78.0684 138.902 78.223 138.993L128.527 168.605C128.681 168.696 128.866 168.722 129.04 168.676C129.213 168.631 129.362 168.519 129.453 168.364L166.147 105.814C166.238 105.659 166.264 105.474 166.219 105.3C166.173 105.126 166.061 104.977 165.907 104.886L115.603 75.2741Z" fill="#E6E6E6"/>
<path d="M116.373 78.2438C116.218 78.1529 116.034 78.1272 115.86 78.1724C115.686 78.2176 115.538 78.33 115.447 78.4849L80.9472 137.293C80.8565 137.448 80.8308 137.633 80.876 137.807C80.9211 137.981 81.0332 138.13 81.1878 138.221L127.757 165.635C127.911 165.726 128.096 165.751 128.27 165.706C128.443 165.661 128.592 165.549 128.683 165.394L163.183 106.585C163.273 106.43 163.299 106.246 163.254 106.072C163.209 105.898 163.096 105.749 162.942 105.657L116.373 78.2438Z" fill="white"/>
<path d="M107.574 107.295L141.888 127.494C142.003 127.562 142.13 127.606 142.262 127.625C142.394 127.643 142.529 127.635 142.658 127.602C142.787 127.568 142.908 127.509 143.014 127.429C143.121 127.348 143.21 127.248 143.278 127.132C143.345 127.017 143.39 126.89 143.408 126.758C143.427 126.625 143.419 126.491 143.385 126.362C143.352 126.232 143.293 126.111 143.213 126.004C143.132 125.898 143.032 125.808 142.917 125.74L108.603 105.541C108.488 105.473 108.361 105.428 108.229 105.41C108.097 105.391 107.962 105.399 107.833 105.432C107.704 105.466 107.582 105.525 107.476 105.605C107.369 105.686 107.28 105.786 107.212 105.902C107.144 106.017 107.1 106.144 107.082 106.277C107.063 106.409 107.071 106.544 107.105 106.673C107.138 106.803 107.197 106.924 107.278 107.031C107.358 107.137 107.459 107.227 107.574 107.295V107.295Z" fill="#E6E6E6"/>
<path d="M116.865 90.7824L139.63 104.183C139.95 104.372 140.441 104.133 140.725 103.648C141.009 103.164 140.979 102.618 140.658 102.43L117.893 89.0287C117.573 88.8398 117.082 89.0794 116.798 89.5637C116.514 90.0479 116.544 90.5936 116.865 90.7824Z" fill="#E6E6E6"/>
<path d="M113.915 95.8097L136.68 109.211C137.001 109.399 137.491 109.16 137.775 108.676C138.06 108.191 138.03 107.646 137.709 107.457L114.944 94.056C114.623 93.8672 114.133 94.1067 113.849 94.591C113.565 95.0753 113.595 95.6209 113.915 95.8097Z" fill="#E6E6E6"/>
<path d="M104.248 112.965L138.562 133.164C138.794 133.301 139.07 133.339 139.331 133.271C139.591 133.203 139.814 133.035 139.951 132.802C140.087 132.57 140.126 132.293 140.058 132.032C139.991 131.771 139.822 131.547 139.59 131.411L105.277 111.211C105.044 111.075 104.768 111.036 104.507 111.104C104.247 111.172 104.024 111.341 103.888 111.573C103.751 111.806 103.713 112.083 103.78 112.344C103.848 112.605 104.016 112.828 104.248 112.965Z" fill="#E6E6E6"/>
<path d="M100.921 118.635L135.235 138.835C135.467 138.971 135.744 139.01 136.004 138.942C136.265 138.874 136.488 138.705 136.624 138.473C136.761 138.24 136.799 137.963 136.732 137.702C136.664 137.441 136.496 137.218 136.264 137.081L101.95 116.882C101.835 116.814 101.708 116.77 101.576 116.751C101.444 116.733 101.31 116.741 101.18 116.774C101.051 116.808 100.93 116.866 100.824 116.947C100.717 117.027 100.628 117.128 100.56 117.243C100.493 117.358 100.449 117.486 100.43 117.618C100.412 117.75 100.419 117.885 100.453 118.014C100.487 118.143 100.545 118.265 100.625 118.371C100.706 118.478 100.806 118.568 100.921 118.635V118.635Z" fill="#E6E6E6"/>
<path d="M97.5948 124.306L131.909 144.505C132.141 144.641 132.417 144.68 132.678 144.612C132.938 144.544 133.161 144.375 133.297 144.143C133.433 143.911 133.472 143.634 133.405 143.373C133.337 143.112 133.169 142.888 132.938 142.751L98.6236 122.552C98.5087 122.484 98.3816 122.44 98.2495 122.422C98.1174 122.403 97.9831 122.411 97.854 122.445C97.725 122.478 97.6038 122.537 97.4974 122.617C97.391 122.698 97.3014 122.798 97.2339 122.914C97.1663 123.029 97.1221 123.156 97.1037 123.288C97.0853 123.421 97.093 123.555 97.1265 123.685C97.1601 123.814 97.2187 123.935 97.299 124.042C97.3794 124.148 97.4799 124.238 97.5948 124.306V124.306Z" fill="#E6E6E6"/>
<path d="M94.2684 129.976L128.582 150.176C128.697 150.243 128.824 150.288 128.956 150.306C129.088 150.325 129.223 150.317 129.352 150.283C129.481 150.25 129.602 150.191 129.709 150.11C129.815 150.03 129.904 149.929 129.972 149.814C130.04 149.699 130.084 149.572 130.102 149.439C130.121 149.307 130.113 149.172 130.079 149.043C130.046 148.914 129.987 148.792 129.907 148.686C129.827 148.579 129.726 148.49 129.611 148.422L95.2972 128.222C95.065 128.086 94.7882 128.047 94.5275 128.115C94.2669 128.183 94.0438 128.351 93.9074 128.584C93.771 128.817 93.7324 129.094 93.8001 129.355C93.8678 129.616 94.0362 129.84 94.2684 129.976Z" fill="#E6E6E6"/>
<path d="M90.9419 135.646L125.256 155.846C125.488 155.982 125.765 156.021 126.025 155.953C126.286 155.886 126.509 155.717 126.646 155.484C126.782 155.252 126.821 154.974 126.753 154.713C126.685 154.452 126.517 154.229 126.285 154.092L91.9707 133.893C91.8557 133.825 91.7286 133.781 91.5966 133.762C91.4645 133.744 91.3301 133.752 91.2011 133.785C91.072 133.819 90.9508 133.877 90.8444 133.958C90.738 134.038 90.6485 134.139 90.5809 134.254C90.5134 134.369 90.4691 134.497 90.4507 134.629C90.4323 134.761 90.4401 134.896 90.4736 135.025C90.5071 135.154 90.5657 135.276 90.6461 135.382C90.7264 135.489 90.8269 135.579 90.9419 135.646Z" fill="#E6E6E6"/>
<path d="M146.744 116.008C149.697 116.008 152.091 113.61 152.091 110.652C152.091 107.693 149.697 105.295 146.744 105.295C143.791 105.295 141.397 107.693 141.397 110.652C141.397 113.61 143.791 116.008 146.744 116.008Z" fill="#E6E6E6"/>
<path d="M72.911 93.2876C72.7355 93.2504 72.5523 93.2845 72.4018 93.3824C72.2513 93.4803 72.1457 93.634 72.1082 93.8098L57.041 164.773C57.0038 164.949 57.0379 165.132 57.1356 165.283C57.2333 165.434 57.3867 165.54 57.5622 165.577L114.632 177.736C114.808 177.774 114.991 177.739 115.141 177.642C115.292 177.544 115.397 177.39 115.435 177.214L130.502 106.251C130.539 106.075 130.505 105.892 130.408 105.741C130.31 105.59 130.156 105.484 129.981 105.447L72.911 93.2876Z" fill="#E6E6E6"/>
<path d="M74.579 95.8614C74.4035 95.8242 74.2203 95.8583 74.0698 95.9562C73.9193 96.054 73.8137 96.2077 73.7761 96.3835L59.6102 163.102C59.573 163.278 59.6071 163.461 59.7048 163.612C59.8025 163.763 59.9559 163.869 60.1314 163.906L112.964 175.163C113.14 175.2 113.323 175.166 113.473 175.068C113.624 174.97 113.729 174.816 113.767 174.641L127.933 107.922C127.97 107.746 127.936 107.563 127.838 107.412C127.741 107.261 127.587 107.155 127.412 107.118L74.579 95.8614Z" fill="white"/>
<path d="M114.331 134.503L75.4017 126.209C75.2711 126.181 75.1472 126.128 75.0371 126.052C74.927 125.977 74.8329 125.88 74.7601 125.768C74.6873 125.656 74.6373 125.53 74.6129 125.399C74.5885 125.268 74.5903 125.133 74.6181 125.002C74.6458 124.871 74.6991 124.747 74.7748 124.637C74.8504 124.527 74.947 124.433 75.0591 124.36C75.1711 124.287 75.2963 124.237 75.4276 124.213C75.5589 124.189 75.6937 124.191 75.8242 124.219L114.754 132.513C114.884 132.541 115.008 132.594 115.118 132.669C115.228 132.745 115.322 132.842 115.395 132.954C115.468 133.066 115.518 133.191 115.542 133.323C115.567 133.454 115.565 133.589 115.537 133.72C115.509 133.851 115.456 133.975 115.381 134.085C115.305 134.195 115.208 134.289 115.096 134.362C114.984 134.435 114.859 134.484 114.728 134.509C114.596 134.533 114.462 134.531 114.331 134.503Z" fill="#E6E6E6"/>
<path d="M118.601 116.037L92.7742 110.535C92.4103 110.457 92.2099 109.949 92.3266 109.399C92.4432 108.85 92.8328 108.467 93.1966 108.545L119.024 114.048C119.387 114.125 119.588 114.633 119.471 115.183C119.355 115.732 118.965 116.115 118.601 116.037Z" fill="#E6E6E6"/>
<path d="M117.39 121.741L91.5632 116.238C91.1993 116.161 90.9989 115.652 91.1156 115.103C91.2322 114.554 91.6218 114.171 91.9856 114.249L117.813 119.751C118.176 119.829 118.377 120.337 118.26 120.886C118.144 121.436 117.754 121.818 117.39 121.741Z" fill="#E6E6E6"/>
<path d="M112.965 140.936L74.0358 132.642C73.7728 132.585 73.543 132.426 73.3967 132.2C73.2505 131.974 73.1998 131.699 73.2557 131.436C73.3117 131.172 73.4697 130.942 73.6952 130.795C73.9206 130.648 74.1951 130.596 74.4583 130.652L113.388 138.946C113.518 138.974 113.642 139.027 113.752 139.103C113.861 139.179 113.955 139.275 114.028 139.387C114.101 139.499 114.15 139.624 114.175 139.756C114.199 139.887 114.197 140.022 114.17 140.153C114.142 140.283 114.089 140.407 114.013 140.517C113.938 140.627 113.841 140.721 113.729 140.794C113.617 140.867 113.492 140.917 113.361 140.941C113.23 140.965 113.096 140.964 112.965 140.936Z" fill="#E6E6E6"/>
<path d="M111.599 147.369L72.6699 139.075C72.4069 139.018 72.1771 138.859 72.0308 138.633C71.8846 138.407 71.8338 138.132 71.8898 137.869C71.9457 137.605 72.1038 137.375 72.3293 137.228C72.5547 137.081 72.8292 137.03 73.0923 137.085L112.022 145.379C112.152 145.407 112.276 145.46 112.386 145.536C112.496 145.612 112.589 145.708 112.662 145.82C112.735 145.932 112.785 146.058 112.809 146.189C112.833 146.32 112.831 146.455 112.804 146.586C112.776 146.716 112.723 146.84 112.647 146.95C112.572 147.06 112.475 147.154 112.363 147.227C112.252 147.3 112.127 147.35 111.995 147.374C111.864 147.399 111.73 147.397 111.599 147.369Z" fill="#E6E6E6"/>
<path d="M110.233 153.802L71.304 145.508C71.1734 145.48 71.0495 145.427 70.9394 145.352C70.8293 145.276 70.7352 145.179 70.6624 145.067C70.5896 144.955 70.5396 144.83 70.5152 144.698C70.4908 144.567 70.4926 144.432 70.5204 144.301C70.5481 144.17 70.6014 144.046 70.677 143.936C70.7527 143.826 70.8493 143.732 70.9613 143.659C71.0734 143.586 71.1986 143.537 71.3299 143.512C71.4612 143.488 71.5959 143.49 71.7265 143.518L110.656 151.812C110.919 151.869 111.149 152.028 111.295 152.254C111.441 152.48 111.492 152.755 111.436 153.018C111.38 153.282 111.222 153.513 110.996 153.659C110.771 153.806 110.497 153.858 110.233 153.802Z" fill="#E6E6E6"/>
<path d="M108.867 160.235L69.9381 151.941C69.8075 151.913 69.6836 151.86 69.5735 151.785C69.4634 151.709 69.3692 151.612 69.2965 151.5C69.2237 151.388 69.1737 151.263 69.1493 151.131C69.1249 151 69.1267 150.865 69.1544 150.734C69.1822 150.603 69.2355 150.479 69.3111 150.369C69.3868 150.259 69.4834 150.165 69.5954 150.092C69.7075 150.02 69.8327 149.97 69.964 149.945C70.0953 149.921 70.23 149.923 70.3605 149.951L109.29 158.246C109.421 158.273 109.544 158.326 109.655 158.402C109.765 158.477 109.859 158.574 109.932 158.686C110.004 158.798 110.054 158.924 110.079 159.055C110.103 159.187 110.101 159.322 110.074 159.452C110.046 159.583 109.993 159.707 109.917 159.817C109.841 159.927 109.745 160.022 109.633 160.094C109.521 160.167 109.395 160.217 109.264 160.241C109.133 160.265 108.998 160.263 108.867 160.235Z" fill="#E6E6E6"/>
<path d="M107.502 166.668L68.5722 158.374C68.3092 158.318 68.0794 158.159 67.9331 157.933C67.7869 157.707 67.7361 157.432 67.7921 157.168C67.848 156.904 68.0061 156.674 68.2316 156.527C68.457 156.38 68.7315 156.329 68.9946 156.384L107.924 164.679C108.055 164.706 108.179 164.759 108.289 164.835C108.399 164.911 108.493 165.007 108.566 165.119C108.638 165.231 108.688 165.357 108.713 165.488C108.737 165.62 108.735 165.755 108.708 165.885C108.68 166.016 108.627 166.14 108.551 166.25C108.475 166.361 108.379 166.455 108.267 166.527C108.155 166.6 108.029 166.65 107.898 166.674C107.767 166.698 107.632 166.696 107.502 166.668Z" fill="#E6E6E6"/>
<path d="M83.1664 115.854C86.1196 115.854 88.5137 113.456 88.5137 110.498C88.5137 107.54 86.1196 105.141 83.1664 105.141C80.2131 105.141 77.8191 107.54 77.8191 110.498C77.8191 113.456 80.2131 115.854 83.1664 115.854Z" fill="#E6E6E6"/>
<path d="M151.348 59.8539C151.196 59.7578 151.013 59.7259 150.838 59.7652C150.663 59.8045 150.51 59.9117 150.414 60.0634L111.629 121.334C111.533 121.486 111.501 121.67 111.54 121.845C111.579 122.02 111.686 122.173 111.838 122.27L161.113 153.569C161.264 153.665 161.448 153.697 161.623 153.658C161.798 153.619 161.95 153.512 162.047 153.36L200.832 92.0894C200.928 91.9374 200.96 91.7536 200.921 91.5782C200.881 91.4028 200.774 91.2501 200.623 91.1536L151.348 59.8539Z" fill="#9ABFED"/>
<path d="M152.017 62.848C151.866 62.752 151.682 62.72 151.507 62.7593C151.332 62.7986 151.18 62.9059 151.083 63.0576L114.618 120.663C114.522 120.815 114.49 120.999 114.529 121.174C114.568 121.35 114.675 121.502 114.827 121.599L160.443 150.575C160.595 150.671 160.778 150.703 160.954 150.663C161.129 150.624 161.281 150.517 161.377 150.365L197.843 92.7596C197.939 92.6077 197.971 92.4239 197.932 92.2484C197.892 92.073 197.785 91.9203 197.634 91.8239L152.017 62.848Z" fill="white"/>
<path d="M175.855 112.935L142.243 91.584C142.13 91.5125 142.033 91.4194 141.956 91.3102C141.879 91.2009 141.825 91.0776 141.796 90.9473C141.766 90.817 141.763 90.6822 141.786 90.5506C141.809 90.419 141.857 90.2932 141.929 90.1804C142 90.0676 142.093 89.97 142.202 89.8932C142.311 89.8163 142.434 89.7618 142.564 89.7326C142.695 89.7034 142.829 89.7002 142.96 89.7231C143.092 89.746 143.217 89.7946 143.33 89.8661L176.942 111.217C177.055 111.288 177.152 111.381 177.229 111.491C177.306 111.6 177.36 111.723 177.389 111.853C177.418 111.984 177.422 112.119 177.399 112.25C177.376 112.382 177.327 112.508 177.256 112.62C177.184 112.733 177.092 112.831 176.983 112.908C176.873 112.984 176.75 113.039 176.62 113.068C176.49 113.097 176.356 113.101 176.224 113.078C176.093 113.055 175.967 113.006 175.855 112.935Z" fill="#9ABFED"/>
<path d="M186.275 97.1134L163.975 82.9487C163.661 82.7492 163.65 82.2028 163.95 81.7285C164.251 81.2541 164.749 81.0313 165.063 81.2309L187.362 95.3955C187.676 95.5951 187.687 96.1414 187.387 96.6158C187.087 97.0902 186.589 97.313 186.275 97.1134Z" fill="#9ABFED"/>
<path d="M183.157 102.038L160.858 87.8733C160.544 87.6737 160.533 87.1274 160.833 86.653C161.133 86.1786 161.631 85.9559 161.945 86.1554L184.245 100.32C184.559 100.52 184.57 101.066 184.27 101.54C183.97 102.015 183.471 102.238 183.157 102.038Z" fill="#9ABFED"/>
<path d="M172.339 118.489L138.727 97.1385C138.5 96.9938 138.339 96.7648 138.28 96.5018C138.222 96.2388 138.27 95.9632 138.414 95.7356C138.558 95.508 138.786 95.347 139.049 95.2879C139.311 95.2288 139.587 95.2766 139.814 95.4206L173.426 116.771C173.539 116.843 173.636 116.936 173.713 117.045C173.79 117.154 173.844 117.278 173.873 117.408C173.902 117.538 173.905 117.673 173.883 117.805C173.86 117.936 173.811 118.062 173.74 118.175C173.668 118.288 173.576 118.385 173.466 118.462C173.357 118.539 173.234 118.593 173.104 118.623C172.974 118.652 172.84 118.655 172.708 118.632C172.577 118.609 172.451 118.561 172.339 118.489H172.339Z" fill="#9ABFED"/>
<path d="M168.823 124.044L135.21 102.693C134.983 102.548 134.823 102.319 134.764 102.056C134.706 101.793 134.754 101.518 134.898 101.29C135.042 101.062 135.27 100.901 135.533 100.842C135.795 100.783 136.07 100.831 136.298 100.975L169.91 122.326C170.023 122.397 170.12 122.49 170.197 122.599C170.274 122.709 170.329 122.832 170.358 122.962C170.387 123.093 170.391 123.228 170.368 123.359C170.345 123.491 170.296 123.617 170.225 123.73C170.153 123.843 170.06 123.941 169.951 124.017C169.842 124.094 169.719 124.149 169.589 124.178C169.458 124.207 169.324 124.21 169.192 124.187C169.061 124.164 168.935 124.115 168.823 124.044Z" fill="#9ABFED"/>
<path d="M165.307 129.598L131.694 108.247C131.582 108.176 131.484 108.083 131.407 107.974C131.33 107.864 131.276 107.741 131.246 107.611C131.217 107.48 131.214 107.345 131.237 107.214C131.26 107.082 131.308 106.956 131.38 106.843C131.451 106.73 131.544 106.632 131.653 106.556C131.762 106.479 131.886 106.424 132.016 106.395C132.146 106.366 132.281 106.363 132.412 106.386C132.544 106.409 132.669 106.458 132.782 106.529L166.394 127.88C166.621 128.025 166.781 128.254 166.84 128.517C166.899 128.78 166.851 129.055 166.707 129.283C166.562 129.511 166.334 129.672 166.072 129.731C165.809 129.79 165.534 129.742 165.307 129.598Z" fill="#9ABFED"/>
<path d="M161.79 135.152L128.178 113.802C127.951 113.657 127.79 113.428 127.731 113.165C127.672 112.902 127.72 112.626 127.865 112.398C128.009 112.17 128.237 112.009 128.5 111.95C128.763 111.891 129.038 111.939 129.266 112.084L162.878 133.435C163.105 133.579 163.265 133.808 163.324 134.071C163.383 134.334 163.335 134.61 163.19 134.837C163.046 135.065 162.818 135.226 162.556 135.285C162.293 135.344 162.018 135.296 161.79 135.152Z" fill="#9ABFED"/>
<path d="M158.274 140.707L124.662 119.356C124.55 119.285 124.452 119.192 124.376 119.082C124.299 118.973 124.244 118.85 124.215 118.72C124.186 118.589 124.183 118.454 124.206 118.323C124.229 118.191 124.277 118.065 124.349 117.953C124.42 117.84 124.513 117.742 124.622 117.665C124.731 117.589 124.854 117.534 124.984 117.505C125.114 117.476 125.249 117.472 125.38 117.495C125.512 117.518 125.637 117.567 125.75 117.638L159.362 138.989C159.589 139.133 159.75 139.362 159.809 139.626C159.868 139.889 159.82 140.165 159.676 140.393C159.531 140.62 159.303 140.781 159.04 140.84C158.777 140.899 158.502 140.851 158.274 140.707Z" fill="#9ABFED"/>
<path d="M154.981 84.9203C157.934 84.9203 160.329 82.5221 160.329 79.5638C160.329 76.6055 157.934 74.2073 154.981 74.2073C152.028 74.2073 149.634 76.6055 149.634 79.5638C149.634 82.5221 152.028 84.9203 154.981 84.9203Z" fill="#9ABFED"/>
<path d="M49.9558 114.069C49.8212 114.069 49.6882 114.097 49.5654 114.152C49.4426 114.207 49.3327 114.288 49.2431 114.388C49.1534 114.489 49.086 114.607 49.0451 114.735C49.0043 114.864 48.9909 114.999 49.006 115.133L57.2912 188.79C57.3173 189.024 57.4287 189.24 57.6039 189.397C57.7791 189.554 58.0059 189.641 58.2409 189.641H182.422C182.657 189.641 182.884 189.554 183.059 189.397C183.235 189.241 183.346 189.024 183.372 188.79L191.657 115.133C191.672 115 191.659 114.864 191.618 114.736C191.577 114.607 191.51 114.489 191.42 114.388C191.331 114.287 191.221 114.206 191.098 114.151C190.976 114.096 190.842 114.068 190.708 114.069H49.9558Z" fill="#E6E6E6"/>
<path d="M61.2533 126.439L101.053 126.224C101.322 126.222 101.579 126.113 101.768 125.921C101.957 125.729 102.062 125.47 102.061 125.201C102.059 124.932 101.951 124.674 101.76 124.484C101.569 124.294 101.311 124.188 101.042 124.189L61.2423 124.405C60.973 124.407 60.7153 124.515 60.526 124.707C60.3366 124.899 60.231 125.158 60.2325 125.428C60.2339 125.698 60.3423 125.956 60.5337 126.145C60.7252 126.335 60.984 126.441 61.2533 126.439Z" fill="white"/>
<path d="M61.2533 132.729L84.8598 132.513C85.1288 132.511 85.386 132.403 85.575 132.211C85.764 132.019 85.8693 131.76 85.8678 131.491C85.8664 131.221 85.7582 130.964 85.5672 130.774C85.3762 130.584 85.1178 130.478 84.8488 130.479L61.2423 130.695C60.973 130.697 60.7153 130.805 60.526 130.997C60.3366 131.189 60.231 131.448 60.2325 131.718C60.2339 131.987 60.3423 132.246 60.5337 132.435C60.7252 132.625 60.984 132.731 61.2533 132.729Z" fill="white"/>
</svg>
