<svg width="175" height="94" viewBox="0 0 175 94" fill="none" xmlns="http://www.w3.org/2000/svg">
<path d="M34.4984 75.137C30.7718 73.451 26.7313 68.9279 27.8766 64.6723C28.4494 64.5257 29.0521 64.7593 29.3765 65.2536C29.3765 65.2536 35.8414 75.3521 34.0275 66.0617C33.1729 61.6956 31.702 57.4749 31.5857 52.9634C31.3939 44.7661 38.9168 42.4929 41.0795 51.5507C41.3644 52.7483 42.4574 62.4863 44.9457 61.3701C45.2662 61.2015 45.5262 60.9374 45.6898 60.6143C46.9514 58.5446 47.3293 55.504 49.6431 54.8006C51.6721 54.1611 53.6721 55.9226 54.765 57.7423C56.9801 61.4398 59.9451 70.6313 55.4104 73.7475C50.8757 76.8637 39.4342 77.3578 34.5391 75.1777L34.4984 75.137Z" fill="url(#paint0_linear_17053_48465)"/>
<path d="M128.646 84.9672C127.007 81.2174 127.048 75.1537 130.768 72.7584C131.294 73.0411 131.578 73.6302 131.472 74.2177C131.472 74.2177 129.489 86.0486 134.379 77.9385C136.704 74.1188 138.448 70.0085 141.355 66.5843C146.698 60.3403 153.82 63.7297 149.349 71.898C148.768 72.9793 143.035 80.9325 145.628 81.7813C145.979 81.8677 146.348 81.8454 146.686 81.7174C149.012 81.0314 151.337 79.0314 153.535 80.043C155.465 80.9325 155.767 83.572 155.36 85.6591C154.523 89.8857 150.42 94.6122 144.966 93.8797C139.397 93.1239 130.809 89.9089 128.664 85.0079L128.646 84.9672Z" fill="url(#paint1_linear_17053_48465)"/>
<path d="M174.481 93.8796C152.558 78.8395 121.577 69.4619 87.2407 69.4619C52.9049 69.4619 21.9236 78.8395 0 93.8796H174.481Z" fill="url(#paint2_linear_17053_48465)"/>
<path d="M138.198 48.5327C136.809 50.2768 135.919 52.7477 136.751 54.9569C137.326 56.4801 139.059 56.4917 138.937 58.6079C138.817 59.6646 138.455 60.6793 137.879 61.5729C136.896 63.291 135.692 64.8723 134.297 66.2762C135.46 67.1832 136.052 68.6409 135.85 70.1016C135.621 71.5515 134.935 72.8902 133.89 73.9212C133.583 74.2973 133.182 74.586 132.728 74.7584C132.288 74.86 131.83 74.86 131.39 74.7584C129.227 74.3913 127.127 73.72 125.152 72.7643C123.92 72.1771 122.664 71.3748 122.245 70.0958C121.766 68.6278 122.528 68.1614 123.361 67.7015L123.576 67.5827C124.006 67.343 124.427 67.0824 124.681 66.6657C125.292 65.6658 125.309 64.3286 125.524 63.2124C125.838 61.5671 125.373 58.5672 127.431 57.9219C128.228 57.6719 129.094 57.73 129.89 57.4742C131.621 56.9235 132.337 55.2959 133.03 53.6503L133.157 53.3511C133.556 52.4045 133.968 51.4733 134.582 50.7594C135.454 49.742 137.617 49.242 138.198 48.5327ZM133.175 58.294C133.175 58.294 126.914 65.596 127.117 72.3457H129.141C129.141 72.3457 129.873 64.2065 133.175 58.294Z" fill="url(#paint3_linear_17053_48465)"/>
<path d="M49.0393 10.3652C49.0717 8.11159 47.462 6.16837 45.2417 5.78072C43.0214 5.39308 40.8485 6.67589 40.1152 8.80714C38.7164 8.77972 37.4141 9.51819 36.7195 10.7328C36.0249 11.9473 36.0488 13.4442 36.7819 14.636C37.5149 15.8277 38.84 16.5243 40.2373 16.4522H48.6614C50.2609 16.4309 51.5737 15.1805 51.6728 13.5839C51.7719 11.9874 50.6239 10.5842 49.0393 10.3652Z" fill="url(#paint4_linear_17053_48465)"/>
<path d="M83.8568 5.74908V5.72001C83.8534 2.93451 81.8461 0.555513 79.1009 0.08339C76.3557 -0.388733 73.6689 1.18298 72.7351 3.80729C70.0942 3.84904 67.9872 6.02375 68.0289 8.66466C68.0707 11.3056 70.2454 13.4126 72.8863 13.3709H83.351C85.3672 13.3745 87.0379 11.8081 87.1641 9.79588C87.2904 7.78363 85.8286 6.02077 83.8277 5.77233L83.8568 5.74908Z" fill="url(#paint5_linear_17053_48465)"/>
<path d="M100.782 31.0786H111.492C111.639 31.0786 111.604 31.1852 111.707 31.2811C111.83 31.3955 111.823 31.5225 111.823 31.7102L112.548 46.6187H100.775V31.083L100.782 31.0786Z" fill="url(#paint6_linear_17053_48465)"/>
<path d="M61.2188 34.0055V87.5881H94.8895C99.2948 87.5873 102.865 83.7471 102.865 79.0103V37.131C102.865 34.1411 104.537 31.5358 107.315 31.4484C108.688 31.403 109.548 31.9578 110.534 32.986C111.521 34.0142 112.077 35.4281 112.077 36.9051V34.0055C112.077 29.2682 109.447 25.4277 105.042 25.4277H69.196C64.7903 25.4277 61.2188 29.2682 61.2188 34.0055Z" fill="url(#paint7_linear_17053_48465)"/>
<path d="M97.901 82.6582C95.1228 82.5688 92.9826 79.9451 92.9826 76.9386V73.46H55.0967V79.7486C55.0967 84.0778 58.3382 87.5873 62.3368 87.5873H95.8909C99.889 87.5865 103.13 84.0772 103.13 79.7486V77.1601C103.131 78.6473 102.576 80.0718 101.591 81.1079C100.605 82.1441 99.274 82.7035 97.901 82.6582Z" fill="url(#paint8_linear_17053_48465)"/>
<path d="M94.6535 36.2593H68.7533C68.2332 36.2593 67.8115 36.6809 67.8115 37.2011V38.1429C67.8115 38.6631 68.2332 39.0847 68.7533 39.0847H94.6535C95.1736 39.0847 95.5953 38.6631 95.5953 38.1429V37.2011C95.5953 36.6809 95.1736 36.2593 94.6535 36.2593Z" fill="white"/>
<path fill-rule="evenodd" clip-rule="evenodd" d="M85.1601 47.1289H66.6128C65.7221 47.1289 65 47.851 65 48.7417C65 49.6324 65.7221 50.3545 66.6128 50.3545H85.1601C86.0508 50.3545 86.7729 49.6324 86.7729 48.7417C86.7729 47.851 86.0508 47.1289 85.1601 47.1289ZM74.2736 55.1914H66.6128C65.7221 55.1914 65 55.9135 65 56.8042C65 57.6949 65.7221 58.417 66.6128 58.417H74.2736C75.1644 58.417 75.8864 57.6949 75.8864 56.8042C75.8864 55.9135 75.1644 55.1914 74.2736 55.1914ZM66.6128 63.2578H74.2736C75.1644 63.2578 75.8864 63.9799 75.8864 64.8706C75.8864 65.7613 75.1644 66.4834 74.2736 66.4834H66.6128C65.7221 66.4834 65 65.7613 65 64.8706C65 63.9799 65.7221 63.2578 66.6128 63.2578Z" fill="white"/>
<path fill-rule="evenodd" clip-rule="evenodd" d="M85.7211 58.2598C85.2892 57.8943 84.6418 57.9143 84.2335 58.3208C83.8024 58.75 83.8009 59.4473 84.23 59.8783L87.0541 62.715L84.2301 65.5517C83.8009 65.9828 83.8025 66.6801 84.2335 67.1092C84.6419 67.5157 85.2892 67.5357 85.7211 67.1702L85.791 67.1057L88.6082 64.276L91.4253 67.1057L91.4952 67.1702C91.9271 67.5357 92.5744 67.5157 92.9828 67.1092C93.4138 66.6801 93.4154 65.9828 92.9863 65.5517L90.1622 62.715L92.9863 59.8783C93.4154 59.4473 93.4139 58.75 92.9828 58.3208C92.5745 57.9143 91.9271 57.8943 91.4952 58.2598L91.4253 58.3243L88.6082 61.1541L85.791 58.3243L85.7211 58.2598Z" fill="white"/>
<defs>
<linearGradient id="paint0_linear_17053_48465" x1="13.5236" y1="-11.565" x2="49.8036" y2="75.9371" gradientUnits="userSpaceOnUse">
<stop stop-color="#D2D2D2"/>
<stop offset="1" stop-color="#D2D2D2" stop-opacity="0"/>
</linearGradient>
<linearGradient id="paint1_linear_17053_48465" x1="160.82" y1="29.4394" x2="139.74" y2="79.0573" gradientUnits="userSpaceOnUse">
<stop stop-color="#D2D2D2"/>
<stop offset="1" stop-color="#D2D2D2" stop-opacity="0"/>
</linearGradient>
<linearGradient id="paint2_linear_17053_48465" x1="87.2407" y1="15.4606" x2="87.2407" y2="93.8796" gradientUnits="userSpaceOnUse">
<stop stop-color="#D2D2D2"/>
<stop offset="1" stop-color="#D2D2D2" stop-opacity="0"/>
</linearGradient>
<linearGradient id="paint3_linear_17053_48465" x1="138.956" y1="22.8146" x2="116.507" y2="70.3519" gradientUnits="userSpaceOnUse">
<stop stop-color="#D2D2D2"/>
<stop offset="1" stop-color="#D2D2D2" stop-opacity="0"/>
</linearGradient>
<linearGradient id="paint4_linear_17053_48465" x1="43.9468" y1="-19.0149" x2="43.9468" y2="16.4573" gradientUnits="userSpaceOnUse">
<stop stop-color="#D2D2D2"/>
<stop offset="1" stop-color="#D2D2D2" stop-opacity="0"/>
</linearGradient>
<linearGradient id="paint5_linear_17053_48465" x1="77.6" y1="-22.625" x2="77.6" y2="13.3715" gradientUnits="userSpaceOnUse">
<stop stop-color="#D2D2D2"/>
<stop offset="1" stop-color="#D2D2D2" stop-opacity="0"/>
</linearGradient>
<linearGradient id="paint6_linear_17053_48465" x1="106.665" y1="32.1879" x2="106.665" y2="44.2317" gradientUnits="userSpaceOnUse">
<stop stop-color="#D7D7D7"/>
<stop offset="1" stop-color="#E4E4E4"/>
</linearGradient>
<linearGradient id="paint7_linear_17053_48465" x1="86.6867" y1="26.1854" x2="86.3182" y2="84.5784" gradientUnits="userSpaceOnUse">
<stop stop-color="#F4F4F4"/>
<stop offset="0.96" stop-color="#DDDDDE"/>
</linearGradient>
<linearGradient id="paint8_linear_17053_48465" x1="79.1132" y1="86.3539" x2="79.1132" y2="74.4088" gradientUnits="userSpaceOnUse">
<stop stop-color="#EAEAEA"/>
<stop offset="1" stop-color="#EFEFF0"/>
</linearGradient>
</defs>
</svg>
