<svg id="Ñëîé_1" data-name="Ñëîé 1" xmlns="http://www.w3.org/2000/svg" xmlns:xlink="http://www.w3.org/1999/xlink" viewBox="0 0 2211.84 2211.84"><defs><style>.cls-1{fill:#75a6c0;opacity:0.15;isolation:isolate;}.cls-2{fill:#e88989;}.cls-3{fill:#f9f9f9;}.cls-12,.cls-4,.cls-5,.cls-6{fill:none;}.cls-4,.cls-6{stroke:#95d7f3;stroke-width:2px;}.cls-12,.cls-4{stroke-linecap:round;}.cls-7{fill:#f3f3f3;}.cls-8{fill:#a4a4a4;}.cls-9{fill:#fff;}.cls-10{fill:#a3a3a3;}.cls-11{fill:url(#linear-gradient);}.cls-12{stroke:#fff;stroke-width:3px;}</style><linearGradient id="linear-gradient" x1="194.11" y1="2126.13" x2="194.11" y2="2114.29" gradientTransform="matrix(15.72, -15.72, -15.72, -15.72, 31654.3, 37772.67)" gradientUnits="userSpaceOnUse"><stop offset="0" stop-color="#ef9c9c"/><stop offset="1" stop-color="#df4f71"/></linearGradient></defs><title>list</title><g id="Group_482" data-name="Group 482"><g id="Group_482-2" data-name="Group 482"><circle id="Ellipse_414" data-name="Ellipse 414" class="cls-1" cx="1105.92" cy="1105.92" r="923.7"/><g id="Group_51" data-name="Group 51"><g id="Group_12" data-name="Group 12"><path id="Subtraction_1" data-name="Subtraction 1" class="cls-2" d="M1393.64,1624.52H588.43a45.6,45.6,0,0,1,0-91.19H901a45.72,45.72,0,0,1-9.12-.91,45.61,45.61,0,0,0,0-89.35,45.72,45.72,0,0,1,9.12-.91H693.09a45.6,45.6,0,1,1-1-91.19H973.9a45.59,45.59,0,0,0,0-91.18H525.32a45.6,45.6,0,1,1,0-91.19h148a45.59,45.59,0,1,0,0-91.18h-45.9a45.6,45.6,0,0,1,0-91.19h105.2a45.6,45.6,0,0,0,0-91.19H534.21a45.59,45.59,0,0,1-1-91.18H817.09a45.6,45.6,0,0,0,0-91.19H758.73a45.59,45.59,0,0,1,0-91.18h802.35a45.59,45.59,0,1,1,0,91.18H1349.55a45.6,45.6,0,0,0,0,91.19h304.72a45.59,45.59,0,1,1-1,91.18H1433.43a45.6,45.6,0,0,0,0,91.19h142.24a45.6,45.6,0,0,1,0,91.19H1473.55a45.19,45.19,0,0,1,9.14.91,45.59,45.59,0,0,0,0,89.35,46.45,46.45,0,0,1-9.11.91h116.7a45.6,45.6,0,1,1,0,91.19H1433.43a45.59,45.59,0,0,0,0,91.18h30.14a45.6,45.6,0,0,1-1,91.19H1236.46a45.59,45.59,0,0,0,0,91.18h157.18a45.6,45.6,0,0,1,0,91.19Z"/><rect id="Rectangle_22" data-name="Rectangle 22" class="cls-3" x="941.24" y="1712.92" width="164.71" height="91.17" rx="45.58"/><rect id="Rectangle_24" data-name="Rectangle 24" class="cls-3" x="1070.35" y="439.71" width="329.43" height="91.17" rx="45.58"/><circle id="Ellipse_7" data-name="Ellipse 7" class="cls-3" cx="1712.46" cy="1210.93" r="45.58"/><circle id="Ellipse_9" data-name="Ellipse 9" class="cls-3" cx="412.54" cy="850.34" r="45.58"/><g id="Group_6" data-name="Group 6"><line id="Line_1" data-name="Line 1" class="cls-4" x1="1561.48" y1="966.74" x2="1530.6" y2="997.62"/><line id="Line_2" data-name="Line 2" class="cls-4" x1="1561.48" y1="997.62" x2="1530.6" y2="966.74"/></g><g id="Group_11" data-name="Group 11"><line id="Line_1-2" data-name="Line 1-2" class="cls-4" x1="1641.61" y1="1371.85" x2="1610.72" y2="1402.73"/><line id="Line_2-2" data-name="Line 2-2" class="cls-4" x1="1641.61" y1="1402.73" x2="1610.72" y2="1371.85"/></g><g id="Group_7" data-name="Group 7"><line id="Line_1-3" data-name="Line 1-3" class="cls-4" x1="893.72" y1="606.14" x2="862.83" y2="637.02"/><line id="Line_2-3" data-name="Line 2-3" class="cls-4" x1="893.72" y1="637.02" x2="862.83" y2="606.14"/></g><g id="Group_8" data-name="Group 8"><line id="Line_1-4" data-name="Line 1-4" class="cls-4" x1="533.12" y1="1055.77" x2="502.24" y2="1086.65"/><line id="Line_2-4" data-name="Line 2-4" class="cls-4" x1="533.12" y1="1086.65" x2="502.24" y2="1055.77"/></g><g id="Group_10" data-name="Group 10"><line id="Line_1-5" data-name="Line 1-5" class="cls-4" x1="1258.76" y1="1656.76" x2="1227.87" y2="1687.65"/><line id="Line_2-5" data-name="Line 2-5" class="cls-4" x1="1258.76" y1="1687.65" x2="1227.87" y2="1656.76"/></g><g id="Ellipse_2" data-name="Ellipse 2"><circle class="cls-5" cx="1275.12" cy="542.11" r="17.81"/><circle class="cls-6" cx="1275.12" cy="542.11" r="5.97"/></g><g id="Ellipse_3" data-name="Ellipse 3"><circle class="cls-5" cx="1439.84" cy="1227.67" r="17.81"/><circle class="cls-6" cx="1439.84" cy="1227.67" r="5.97"/></g><g id="Ellipse_6" data-name="Ellipse 6"><circle class="cls-5" cx="580.65" cy="778.04" r="17.81"/><circle class="cls-6" cx="580.65" cy="778.04" r="5.97"/></g><g id="Ellipse_4" data-name="Ellipse 4"><circle class="cls-5" cx="705.29" cy="1534.85" r="17.81"/><circle class="cls-6" cx="705.29" cy="1534.85" r="5.97"/></g></g><g id="Group_14" data-name="Group 14"><g id="Group_13" data-name="Group 13"><g id="Path_1" data-name="Path 1"><path class="cls-7" d="M1355.25,1540.8H776.52a10.43,10.43,0,0,1-10.42-10.41V720.16a10.43,10.43,0,0,1,10.42-10.41h578.73a10.42,10.42,0,0,1,10.42,10.41v810.23A10.42,10.42,0,0,1,1355.25,1540.8Z"/><path class="cls-8" d="M778,721.59V1529h575.88V721.59H778m-1.43-23.68h578.73a22.25,22.25,0,0,1,22.26,22.25v810.23a22.26,22.26,0,0,1-22.26,22.26H776.52a22.26,22.26,0,0,1-22.26-22.26V720.16A22.26,22.26,0,0,1,776.52,697.91Z"/></g><path id="Subtraction_3" data-name="Subtraction 3" class="cls-9" d="M1336,1534.85H795.76a23.69,23.69,0,0,1-23.69-23.69V739.4a23.69,23.69,0,0,1,23.69-23.68H959.57a42.4,42.4,0,0,0,41.81,35.62H1134.9a42.33,42.33,0,0,0,41.77-35.62H1336a23.68,23.68,0,0,1,23.68,23.68v571a78,78,0,0,0,0,153.89v46.86A23.69,23.69,0,0,1,1336,1534.85Z"/><g id="Union_1" data-name="Union 1"><path class="cls-9" d="M1132.67,730.59H1003.56a23.78,23.78,0,0,1,0-47.55h42.15l3.33-6.31a21.56,21.56,0,0,1,38.14,0l3.33,6.31h42.16a23.78,23.78,0,0,1,0,47.55Z"/><path class="cls-10" d="M1132.67,718.74a11.93,11.93,0,0,0,0-23.86h-49.29l-6.67-12.61a9.71,9.71,0,0,0-17.2,0l-6.67,12.61h-49.28a11.93,11.93,0,1,0,0,23.86h129.11m0,23.69H1003.56a35.62,35.62,0,0,1,0-71.23h35a33.4,33.4,0,0,1,59.08,0h35a35.62,35.62,0,0,1,0,71.23Z"/></g><g id="Group_2" data-name="Group 2"><g id="Group_1" data-name="Group 1"><rect id="Rectangle_4" data-name="Rectangle 4" class="cls-7" x="890.78" y="898.92" width="58.5" height="58.5"/><rect id="Rectangle_5" data-name="Rectangle 5" class="cls-7" x="967.57" y="898.92" width="277.88" height="21.93"/><rect id="Rectangle_6" data-name="Rectangle 6" class="cls-7" x="967.57" y="928.17" width="230.34" height="21.93"/></g><g id="Group_1-2" data-name="Group 1-2"><rect id="Rectangle_4-2" data-name="Rectangle 4-2" class="cls-7" x="890.78" y="1008.6" width="58.5" height="58.5"/><rect id="Rectangle_5-2" data-name="Rectangle 5-2" class="cls-7" x="967.57" y="1008.6" width="277.88" height="21.93"/><rect id="Rectangle_6-2" data-name="Rectangle 6-2" class="cls-7" x="967.57" y="1037.85" width="230.34" height="21.93"/></g><g id="Group_1-3" data-name="Group 1-3"><rect id="Rectangle_4-3" data-name="Rectangle 4-3" class="cls-7" x="890.78" y="1118.3" width="58.5" height="58.5"/><rect id="Rectangle_5-3" data-name="Rectangle 5-3" class="cls-7" x="967.57" y="1118.3" width="277.88" height="21.93"/><rect id="Rectangle_6-3" data-name="Rectangle 6-3" class="cls-7" x="967.57" y="1147.55" width="230.34" height="21.93"/></g><g id="Group_1-4" data-name="Group 1-4"><rect id="Rectangle_4-4" data-name="Rectangle 4-4" class="cls-7" x="890.78" y="1227.98" width="58.5" height="58.5"/><rect id="Rectangle_5-4" data-name="Rectangle 5-4" class="cls-7" x="967.57" y="1227.98" width="277.88" height="21.93"/><rect id="Rectangle_6-4" data-name="Rectangle 6-4" class="cls-7" x="967.57" y="1257.23" width="230.34" height="21.93"/></g><g id="Group_1-5" data-name="Group 1-5"><rect id="Rectangle_4-5" data-name="Rectangle 4-5" class="cls-7" x="890.78" y="1337.67" width="58.5" height="58.5"/><rect id="Rectangle_5-5" data-name="Rectangle 5-5" class="cls-7" x="967.57" y="1337.67" width="277.88" height="21.93"/><rect id="Rectangle_6-5" data-name="Rectangle 6-5" class="cls-7" x="967.57" y="1366.92" width="230.34" height="21.93"/></g></g></g><g id="Group_4" data-name="Group 4"><circle id="Ellipse_1" data-name="Ellipse 1" class="cls-11" cx="1372.49" cy="1387.35" r="131.65"/><g id="Group_3" data-name="Group 3"><line id="Line_1-6" data-name="Line 1-6" class="cls-12" x1="1401.79" y1="1357.8" x2="1342.93" y2="1416.65"/><line id="Line_2-6" data-name="Line 2-6" class="cls-12" x1="1401.79" y1="1416.65" x2="1342.93" y2="1357.8"/></g></g></g></g></g></g></svg>