<svg width="16" height="20" viewBox="0 0 16 20" fill="none" xmlns="http://www.w3.org/2000/svg">
<path d="M14.4615 2.46154H11.0769V1.84615C11.0769 0.828192 10.2487 0 9.23077 0H6.76923C5.75127 0 4.92308 0.828192 4.92308 1.84615V2.46154H1.53846C0.690154 2.46154 0 3.15169 0 4V6.15385C0 6.49369 0.275538 6.76923 0.615385 6.76923H0.951692L1.48335 17.934C1.53031 18.92 2.34031 19.6923 3.32738 19.6923H12.6726C13.6597 19.6923 14.4697 18.92 14.5167 17.934L15.0483 6.76923H15.3846C15.7245 6.76923 16 6.49369 16 6.15385V4C16 3.15169 15.3098 2.46154 14.4615 2.46154ZM6.15385 1.84615C6.15385 1.50685 6.42992 1.23077 6.76923 1.23077H9.23077C9.57008 1.23077 9.84615 1.50685 9.84615 1.84615V2.46154H6.15385V1.84615ZM1.23077 4C1.23077 3.83035 1.36881 3.69231 1.53846 3.69231H14.4615C14.6312 3.69231 14.7692 3.83035 14.7692 4V5.53846C14.5796 5.53846 2.01665 5.53846 1.23077 5.53846V4ZM13.2873 17.8754C13.2716 18.2041 13.0016 18.4615 12.6726 18.4615H3.32738C2.99835 18.4615 2.72835 18.2041 2.71273 17.8754L2.18385 6.76923H13.8162L13.2873 17.8754Z" fill="#ED1E26"/>
<path d="M7.9982 17.2308C8.33804 17.2308 8.61358 16.9552 8.61358 16.6154V8.61538C8.61358 8.27554 8.33804 8 7.9982 8C7.65835 8 7.38281 8.27554 7.38281 8.61538V16.6154C7.38281 16.9552 7.65831 17.2308 7.9982 17.2308Z" fill="#ED1E26"/>
<path d="M11.0763 17.2308C11.4162 17.2308 11.6917 16.9552 11.6917 16.6154V8.61538C11.6917 8.27554 11.4162 8 11.0763 8C10.7365 8 10.4609 8.27554 10.4609 8.61538V16.6154C10.4609 16.9552 10.7364 17.2308 11.0763 17.2308Z" fill="#ED1E26"/>
<path d="M4.92203 17.2308C5.26187 17.2308 5.53741 16.9552 5.53741 16.6154V8.61538C5.53741 8.27554 5.26187 8 4.92203 8C4.58218 8 4.30664 8.27554 4.30664 8.61538V16.6154C4.30664 16.9552 4.58214 17.2308 4.92203 17.2308Z" fill="#ED1E26"/>
</svg>
