<svg width="27" height="19" viewBox="0 0 27 19" fill="none" xmlns="http://www.w3.org/2000/svg">
<path d="M19.5576 1C15.9448 1 13.1146 2.49972 13.1146 4.4142V4.99927C12.3272 5.04599 11.5774 5.23464 10.8905 5.5402C9.89932 5.2132 8.72009 5.02561 7.44271 5.02561C3.82998 5.02561 1 6.52525 1 8.43967V10.4333V12.4652V14.4589C1 16.3734 3.82998 17.8731 7.44278 17.8731C8.74152 17.8731 9.93904 17.6793 10.9404 17.3421C11.7255 17.6834 12.5911 17.8731 13.5003 17.8731C14.4095 17.8731 15.275 17.6834 16.0601 17.3421C17.0614 17.6793 18.259 17.8731 19.5576 17.8731C23.1702 17.8731 26 16.3734 26 14.4589V12.4652V10.4333V8.43967V6.40785V4.4142C25.9999 2.49972 23.1701 1 19.5576 1ZM15.4467 2.61726C16.5382 2.07157 17.9982 1.77098 19.5576 1.77098C21.1168 1.77098 22.5766 2.07157 23.668 2.61726C24.6601 3.11329 25.229 3.76827 25.229 4.4142C25.229 5.05993 24.6601 5.71484 23.668 6.21087C22.5765 6.7567 21.1168 7.05729 19.5576 7.05729C19.0755 7.05729 18.6029 7.0285 18.1477 6.9726C17.0923 5.87273 15.6514 5.14568 14.0446 5.01055C13.9402 4.81412 13.8856 4.61371 13.8856 4.41413C13.8856 3.7682 14.4547 3.11329 15.4467 2.61726ZM13.5002 17.1021C12.978 17.1021 12.4721 17.0308 11.9917 16.8981C11.6381 16.8004 11.2985 16.6693 10.9761 16.5084C10.5238 16.2826 10.1056 15.9983 9.73169 15.6652C9.49975 15.4587 9.28498 15.2334 9.08953 14.9919C8.7991 14.6329 8.55147 14.2379 8.35463 13.8148C8.24171 13.572 8.14546 13.32 8.06735 13.0602C7.95058 12.6716 7.87422 12.2658 7.84368 11.8474C7.83366 11.7096 7.82834 11.5705 7.82834 11.4301C7.82834 11.3113 7.83247 11.1933 7.83969 11.0762C7.96676 9.02256 9.19132 7.26128 10.9328 6.37345C11.2534 6.21003 11.5915 6.07616 11.9435 5.9755C12.3195 5.86804 12.7114 5.79883 13.1147 5.77165C13.2422 5.7631 13.3707 5.75834 13.5003 5.75834C13.5393 5.75834 13.5782 5.75904 13.6171 5.75981C13.7071 5.76163 13.7967 5.76569 13.8857 5.77172C14.2699 5.79764 14.6436 5.86194 15.0033 5.96086C15.5486 6.1109 16.0613 6.34039 16.5281 6.63622C16.9915 6.92994 17.4096 7.28881 17.7694 7.70015C18.1141 8.09425 18.4052 8.53627 18.6314 9.01486C18.7516 9.26907 18.8533 9.53366 18.9351 9.80678C19.0566 10.2129 19.1337 10.6379 19.1609 11.0763C19.1681 11.1934 19.1723 11.3113 19.1723 11.4303C19.1723 11.5707 19.167 11.7097 19.1568 11.8475C19.1263 12.2659 19.05 12.6718 18.9331 13.0603C18.8551 13.3202 18.7589 13.5722 18.6458 13.8149C18.4489 14.2381 18.2014 14.6331 17.911 14.9921C17.7155 15.2335 17.5007 15.4588 17.2689 15.6653C16.8949 15.9984 16.4768 16.2828 16.0244 16.5085C15.702 16.6694 15.3623 16.8006 15.0088 16.8982C14.5281 17.0308 14.0224 17.1021 13.5002 17.1021ZM3.33199 6.6428C4.42352 6.0971 5.88345 5.79659 7.44278 5.79659C8.31841 5.79659 9.16274 5.89137 9.92804 6.07104C8.29046 7.16622 7.18051 8.99097 7.06717 11.0769C5.65018 11.0325 4.33554 10.7382 3.33213 10.2365C2.34007 9.74037 1.77105 9.08547 1.77105 8.43974C1.77098 7.79373 2.34 7.13883 3.33199 6.6428ZM7.07123 11.8483C7.09841 12.2695 7.16601 12.6797 7.27052 13.0753C5.77627 13.0539 4.38338 12.7558 3.33206 12.2302C2.34 11.7341 1.77098 11.0791 1.77098 10.4334V10.0841C2.79652 11.0933 4.75241 11.7817 7.07123 11.8483ZM7.44278 13.8476C7.47136 13.8476 7.49973 13.8472 7.52817 13.847C7.70631 14.2856 7.93131 14.7 8.19702 15.0845C7.94904 15.1003 7.69727 15.1084 7.44278 15.1084C5.88359 15.1084 4.42366 14.8078 3.33206 14.2619C2.34 13.7659 1.77098 13.1109 1.77098 12.4652V12.0778C2.85088 13.1405 4.96228 13.8476 7.44278 13.8476ZM7.44278 17.1021C5.88359 17.1021 4.42366 16.8015 3.33206 16.2556C2.34 15.7596 1.77098 15.1047 1.77098 14.4589V14.1097C2.85088 15.1725 4.96228 15.8795 7.44278 15.8795C7.90217 15.8795 8.34875 15.8551 8.77851 15.8088C9.13303 16.1909 9.53316 16.53 9.97035 16.8173C9.19377 17.0036 8.3346 17.1021 7.44278 17.1021ZM25.229 14.4589C25.229 15.1047 24.6601 15.7596 23.668 16.2556C22.5765 16.8015 21.1168 17.1021 19.5576 17.1021C18.6658 17.1021 17.8066 17.0036 17.0301 16.8173C17.4672 16.5299 17.8673 16.1909 18.222 15.8088C18.6517 15.8551 19.0983 15.8795 19.5576 15.8795C22.0379 15.8795 24.1492 15.1725 25.229 14.1097V14.4589ZM25.229 12.4652C25.229 13.111 24.6601 13.7659 23.668 14.2619C22.5765 14.8078 21.1168 15.1084 19.5576 15.1084C19.3031 15.1084 19.0514 15.1003 18.8034 15.0845C19.0691 14.7 19.2942 14.2856 19.4722 13.847C19.5007 13.8472 19.5291 13.8476 19.5576 13.8476C22.0379 13.8476 24.1492 13.1406 25.229 12.0778V12.4652ZM25.229 10.4333C25.229 11.0792 24.6601 11.734 23.668 12.2301C22.6168 12.7558 21.224 13.0539 19.73 13.0752C19.8345 12.6797 19.9021 12.2694 19.9292 11.8483C22.2477 11.7816 24.2035 11.0933 25.229 10.084V10.4333ZM25.229 8.43967C25.229 9.08547 24.6601 9.7403 23.668 10.2364C22.6647 10.7381 21.35 11.0325 19.9333 11.0768C19.9099 10.6456 19.8441 10.2254 19.7396 9.82058C22.1409 9.78696 24.1757 9.0889 25.229 8.05222V8.43967ZM25.229 6.40785C25.229 7.05365 24.6601 7.70848 23.668 8.20458C22.5765 8.75042 21.1168 9.05107 19.5576 9.05107C19.5342 9.05107 19.5108 9.05073 19.4874 9.05059C19.3118 8.61025 19.089 8.19379 18.8251 7.80725C19.0652 7.82098 19.3094 7.82834 19.5576 7.82834C22.0379 7.82834 24.1492 7.12139 25.229 6.05858V6.40785Z" fill="white" stroke="white" stroke-width="0.5"/>
<path d="M16.09 12.1689C16.09 11.9636 16.0458 11.7666 15.9651 11.5841C15.7302 11.0539 15.1855 10.6474 14.5144 10.5159C14.4618 10.5056 14.4087 10.4966 14.3546 10.4897V9.97977V9.69914V8.37797V8.33941C14.9922 8.44669 15.4705 8.87781 15.4705 9.39218C15.4705 9.56322 15.6092 9.7019 15.7802 9.7019C15.9513 9.7019 16.0899 9.56322 16.0899 9.39218C16.0899 9.27247 16.0747 9.15562 16.0462 9.04278C15.8725 8.35579 15.1975 7.82021 14.3546 7.71349V7.30972C14.3546 7.13868 14.216 7 14.045 7C13.9447 7 13.8558 7.0479 13.7992 7.1218C13.7947 7.12759 13.7904 7.13339 13.7863 7.13941C13.7541 7.18832 13.7352 7.24674 13.7352 7.30967V7.71344C13.6612 7.72278 13.5885 7.73573 13.5172 7.7516C12.6446 7.94532 12 8.60726 12 9.39212C12 9.59919 12.045 9.79758 12.1271 9.98123C12.2127 10.1724 12.3388 10.3472 12.4964 10.4989C12.6919 10.687 12.936 10.8392 13.2126 10.942C13.3766 11.0029 13.5518 11.0468 13.7352 11.0701V11.3009V11.6122V12.9334V13.1645V13.214V13.2207C13.7352 13.2207 13.7351 13.2207 13.7351 13.2207C13.6466 13.2058 13.5611 13.1848 13.4797 13.1581C13.2496 13.0826 13.0507 12.9627 12.9023 12.8125C12.7248 12.6328 12.6195 12.4099 12.6195 12.1687C12.6195 12.1286 12.6116 12.0903 12.5977 12.0551C12.5523 11.9403 12.4406 11.859 12.3097 11.859C12.1387 11.859 12.0001 11.9977 12.0001 12.1687C12.0001 12.2096 12.0024 12.2499 12.0059 12.2901C12.032 12.5953 12.1552 12.8785 12.3508 13.1182C12.4895 13.2882 12.6646 13.4359 12.8663 13.5544C13.0662 13.6719 13.292 13.7608 13.5358 13.8128C13.6011 13.8267 13.6677 13.8381 13.7353 13.8467V14.2513C13.7353 14.3297 13.7647 14.4011 13.8127 14.4557C13.8695 14.5201 13.9524 14.561 14.0451 14.561C14.1377 14.561 14.2206 14.5201 14.2774 14.4557C14.3254 14.4011 14.3548 14.3297 14.3548 14.2513V13.8467C14.4225 13.8381 14.489 13.8268 14.5543 13.8128C14.798 13.7608 15.024 13.6719 15.2239 13.5544C15.4256 13.4359 15.6007 13.2882 15.7394 13.1183C15.9349 12.8786 16.0581 12.5953 16.0843 12.2902C16.0876 12.2503 16.09 12.2099 16.09 12.1689ZM13.6262 10.4228C13.4253 10.3759 13.2432 10.2965 13.0909 10.1925C12.9034 10.0645 12.7611 9.89968 12.6839 9.71316C12.642 9.61174 12.6195 9.50396 12.6195 9.39229C12.6195 8.87826 13.0972 8.44736 13.7343 8.33969C13.7346 8.33964 13.735 8.33953 13.7353 8.33953V8.37808V9.69926V9.97988V10.4444C13.6984 10.4382 13.662 10.4312 13.6262 10.4228ZM15.4706 12.1689C15.4706 12.4101 15.3652 12.6329 15.1877 12.8128C15.0393 12.9629 14.8405 13.0829 14.6104 13.1583C14.5288 13.1851 14.4434 13.2061 14.3549 13.221C14.3549 13.221 14.3548 13.221 14.3547 13.221V13.2143V13.1647V12.9336V11.6124V11.3011V11.1157C14.9383 11.214 15.388 11.5837 15.4601 12.0403C15.4667 12.0825 15.4706 12.1254 15.4706 12.1689Z" fill="white" stroke="white" stroke-width="0.5"/>
</svg>
