<svg width="21" height="12" viewBox="0 0 21 12" fill="none" xmlns="http://www.w3.org/2000/svg">
<path d="M4.29409 8.29L4.00409 8.59V1C4.00409 0.734784 3.89873 0.48043 3.7112 0.292893C3.52366 0.105357 3.26931 0 3.00409 0C2.73888 0 2.48452 0.105357 2.29699 0.292893C2.10945 0.48043 2.00409 0.734784 2.00409 1V8.59L1.71409 8.29C1.52579 8.1017 1.27039 7.99591 1.00409 7.99591C0.73779 7.99591 0.482395 8.1017 0.294092 8.29C0.105788 8.4783 0 8.7337 0 9C0 9.2663 0.105788 9.5217 0.294092 9.71L2.29409 11.71C2.3892 11.801 2.50134 11.8724 2.62409 11.92C2.74379 11.9729 2.87322 12.0002 3.00409 12.0002C3.13496 12.0002 3.26439 11.9729 3.38409 11.92C3.50684 11.8724 3.61899 11.801 3.71409 11.71L5.71409 9.71C5.80733 9.61676 5.88129 9.50607 5.93175 9.38425C5.98221 9.26243 6.00818 9.13186 6.00818 9C6.00818 8.86814 5.98221 8.73757 5.93175 8.61575C5.88129 8.49393 5.80733 8.38324 5.71409 8.29C5.62085 8.19676 5.51016 8.1228 5.38834 8.07234C5.26652 8.02188 5.13595 7.99591 5.00409 7.99591C4.87223 7.99591 4.74166 8.02188 4.61984 8.07234C4.49802 8.1228 4.38733 8.19676 4.29409 8.29ZM9.00409 2H19.0041C19.2693 2 19.5237 1.89464 19.7112 1.70711C19.8987 1.51957 20.0041 1.26522 20.0041 1C20.0041 0.734784 19.8987 0.48043 19.7112 0.292893C19.5237 0.105357 19.2693 0 19.0041 0H9.00409C8.73887 0 8.48452 0.105357 8.29698 0.292893C8.10945 0.48043 8.00409 0.734784 8.00409 1C8.00409 1.26522 8.10945 1.51957 8.29698 1.70711C8.48452 1.89464 8.73887 2 9.00409 2ZM19.0041 5H9.00409C8.73887 5 8.48452 5.10536 8.29698 5.29289C8.10945 5.48043 8.00409 5.73478 8.00409 6C8.00409 6.26522 8.10945 6.51957 8.29698 6.70711C8.48452 6.89464 8.73887 7 9.00409 7H19.0041C19.2693 7 19.5237 6.89464 19.7112 6.70711C19.8987 6.51957 20.0041 6.26522 20.0041 6C20.0041 5.73478 19.8987 5.48043 19.7112 5.29289C19.5237 5.10536 19.2693 5 19.0041 5ZM19.0041 10H9.00409C8.73887 10 8.48452 10.1054 8.29698 10.2929C8.10945 10.4804 8.00409 10.7348 8.00409 11C8.00409 11.2652 8.10945 11.5196 8.29698 11.7071C8.48452 11.8946 8.73887 12 9.00409 12H19.0041C19.2693 12 19.5237 11.8946 19.7112 11.7071C19.8987 11.5196 20.0041 11.2652 20.0041 11C20.0041 10.7348 19.8987 10.4804 19.7112 10.2929C19.5237 10.1054 19.2693 10 19.0041 10Z" fill="#BCC1CD"/>
</svg>
