<svg width="15" height="16" viewBox="0 0 15 16" fill="none" xmlns="http://www.w3.org/2000/svg">
<path fill-rule="evenodd" clip-rule="evenodd" d="M3.62303 0.28557C3.8419 0.591986 3.77092 1.01781 3.46451 1.23668L1.07816 2.94121C0.771747 3.16008 0.34592 3.08911 0.127052 2.7827C-0.0918163 2.47628 -0.0208452 2.05045 0.28557 1.83159L2.67192 0.127052C2.97833 -0.0918163 3.40416 -0.0208452 3.62303 0.28557ZM11.377 0.28557C11.5958 -0.0208452 12.0217 -0.0918163 12.3281 0.127052L14.7144 1.83159C15.0208 2.05045 15.0918 2.47628 14.8729 2.7827C14.6541 3.08911 14.2283 3.16008 13.9218 2.94121L11.5355 1.23668C11.2291 1.01781 11.1581 0.591986 11.377 0.28557ZM0.568218 8.18183C0.568218 4.35349 3.67166 1.25005 7.5 1.25005C11.3283 1.25005 14.4318 4.35349 14.4318 8.18183C14.4318 12.0101 11.3283 15.1136 7.5 15.1136C3.67166 15.1136 0.568218 12.0101 0.568218 8.18183ZM7.5 2.61368C4.42477 2.61368 1.93184 5.1066 1.93184 8.18183C1.93184 11.257 4.42477 13.75 7.5 13.75C10.5752 13.75 13.0681 11.257 13.0681 8.18183C13.0681 5.1066 10.5752 2.61368 7.5 2.61368ZM7.41805 3.87055C7.79461 3.87059 8.09983 4.17589 8.09979 4.55244L8.09941 8.02295L10.5493 10.4729C10.8156 10.7391 10.8156 11.1708 10.5493 11.4371C10.283 11.7034 9.85135 11.7034 9.58508 11.4371L6.93545 8.78746C6.80757 8.65957 6.73574 8.48612 6.73575 8.30527L6.73616 4.55229C6.73621 4.17574 7.0415 3.87051 7.41805 3.87055Z" fill="#6D7174"/>
</svg>
