<svg width="38" height="34" viewBox="0 0 38 34" fill="none" xmlns="http://www.w3.org/2000/svg">
<path d="M16.3153 23.9828L16.3155 23.9817C16.404 23.4684 16.2285 22.9392 15.8545 22.5829C15.8544 22.5829 15.8543 22.5828 15.8543 22.5827L13.6601 20.4875L16.7226 20.0539C16.7229 20.0538 16.7232 20.0538 16.7234 20.0538C17.236 19.9828 17.6785 19.6643 17.9087 19.204C17.9088 19.2039 17.9088 19.2038 17.9089 19.2037L19.3069 16.4169L20.7113 19.1985C20.9319 19.6684 21.3803 19.9835 21.8874 20.0538C21.8876 20.0538 21.8879 20.0538 21.8882 20.0539L24.948 20.4871L22.7447 22.5825L22.7445 22.5827C22.3704 22.939 22.1947 23.4683 22.2833 23.9817L22.2834 23.9828L22.809 26.991L20.0181 25.55C20.0179 25.5499 20.0176 25.5497 20.0174 25.5496C19.5719 25.3183 19.0269 25.3183 18.5814 25.5496C18.5811 25.5497 18.5809 25.5499 18.5806 25.55L15.7898 26.991L16.3153 23.9828Z" stroke="#ED1E26"/>
<path d="M34.0187 33.6811H4.59109C2.61479 33.6811 1.01205 32.0663 1 30.102V9.51953H37.5857V30.102C37.5978 32.0663 35.983 33.6811 34.0187 33.6811ZM2.81965 30.09C2.81965 31.0661 3.61499 31.8735 4.60314 31.8735H34.0187C34.9949 31.8735 35.7902 31.0781 35.8022 30.09V11.3271H2.81965V30.09Z" fill="#0F50A4" stroke="#0F50A4" stroke-width="0.2"/>
<path d="M34.5498 1.0482H34.4895L5.85721 1H5.24263H4.61599C2.63969 1 1.03695 2.61479 1.0249 4.59109V11.2551H37.6106V4.59109C37.5986 2.79555 36.273 1.30127 34.5498 1.0482ZM35.791 9.4475H2.82045V4.59109C2.82045 3.61499 3.61579 2.8076 4.60394 2.8076H34.0196C34.9957 2.8076 35.803 3.60294 35.803 4.59109V9.4475H35.791Z" fill="#0F50A4" stroke="#0F50A4" stroke-width="0.2"/>
<rect x="10.4131" y="5.96094" width="18.3117" height="1.07972" rx="0.5" fill="#0F50A4" stroke="#0F50A4"/>
</svg>
