<svg width="23" height="21" viewBox="0 0 23 21" fill="none" xmlns="http://www.w3.org/2000/svg">
<path d="M21.5547 18.0781H11.8203C11.4365 18.0781 11.125 17.7666 11.125 17.3828C11.125 16.999 11.125 3.86037 11.125 3.47656C11.125 3.09275 11.4365 2.78125 11.8203 2.78125H21.5547C21.9385 2.78125 22.25 3.09275 22.25 3.47656V17.3828C22.25 17.7666 21.9385 18.0781 21.5547 18.0781Z" fill="#DCE0E2"/>
<path d="M14.6016 6.95312H11.8203C11.4365 6.95312 11.125 6.64162 11.125 6.25781C11.125 5.874 11.4365 5.5625 11.8203 5.5625H14.6016C14.9854 5.5625 15.2969 5.874 15.2969 6.25781C15.2969 6.64162 14.9854 6.95312 14.6016 6.95312Z" fill="#388E3C"/>
<path d="M14.6016 9.73437H11.8203C11.4365 9.73437 11.125 9.42287 11.125 9.03906C11.125 8.65525 11.4365 8.34375 11.8203 8.34375H14.6016C14.9854 8.34375 15.2969 8.65525 15.2969 9.03906C15.2969 9.42287 14.9854 9.73437 14.6016 9.73437Z" fill="#388E3C"/>
<path d="M14.6016 12.5156H11.8203C11.4365 12.5156 11.125 12.2041 11.125 11.8203C11.125 11.4365 11.4365 11.125 11.8203 11.125H14.6016C14.9854 11.125 15.2969 11.4365 15.2969 11.8203C15.2969 12.2041 14.9854 12.5156 14.6016 12.5156Z" fill="#388E3C"/>
<path d="M14.6016 15.2969H11.8203C11.4365 15.2969 11.125 14.9854 11.125 14.6016C11.125 14.2177 11.4365 13.9062 11.8203 13.9062H14.6016C14.9854 13.9062 15.2969 14.2177 15.2969 14.6016C15.2969 14.9854 14.9854 15.2969 14.6016 15.2969Z" fill="#388E3C"/>
<path d="M18.7734 6.95312H17.3828C16.999 6.95312 16.6875 6.64162 16.6875 6.25781C16.6875 5.874 16.999 5.5625 17.3828 5.5625H18.7734C19.1572 5.5625 19.4687 5.874 19.4687 6.25781C19.4687 6.64162 19.1572 6.95312 18.7734 6.95312Z" fill="#388E3C"/>
<path d="M18.7734 9.73437H17.3828C16.999 9.73437 16.6875 9.42287 16.6875 9.03906C16.6875 8.65525 16.999 8.34375 17.3828 8.34375H18.7734C19.1572 8.34375 19.4687 8.65525 19.4687 9.03906C19.4687 9.42287 19.1572 9.73437 18.7734 9.73437Z" fill="#388E3C"/>
<path d="M18.7734 12.5156H17.3828C16.999 12.5156 16.6875 12.2041 16.6875 11.8203C16.6875 11.4365 16.999 11.125 17.3828 11.125H18.7734C19.1572 11.125 19.4687 11.4365 19.4687 11.8203C19.4687 12.2041 19.1572 12.5156 18.7734 12.5156Z" fill="#388E3C"/>
<path d="M18.7734 15.2969H17.3828C16.999 15.2969 16.6875 14.9854 16.6875 14.6016C16.6875 14.2177 16.999 13.9062 17.3828 13.9062H18.7734C19.1572 13.9062 19.4687 14.2177 19.4687 14.6016C19.4687 14.9854 19.1572 15.2969 18.7734 15.2969Z" fill="#388E3C"/>
<path d="M12.2639 0.160859C12.1054 0.0287494 11.8926 -0.0282662 11.6924 0.0134526L0.567375 2.09939C0.237797 2.16058 0 2.44705 0 2.78219V18.0791C0 18.4128 0.237797 18.7007 0.567375 18.7619L11.6924 20.8478C11.7341 20.8561 11.7772 20.8603 11.8203 20.8603C11.9816 20.8603 12.1388 20.8047 12.2639 20.7004C12.4238 20.5683 12.5156 20.3708 12.5156 20.165V0.696249C12.5156 0.489046 12.4238 0.292968 12.2639 0.160859Z" fill="#2E7D32"/>
<path d="M9.56265 12.7547L7.36407 10.2418L9.58768 7.38271C9.82409 7.07956 9.76846 6.6429 9.4667 6.4065C9.16493 6.17009 8.72828 6.22571 8.49048 6.52748L6.43096 9.17523L4.69546 7.1922C4.44098 6.90017 4.00154 6.87375 3.71507 7.12684C3.42582 7.37993 3.39662 7.81937 3.64972 8.10723L5.56182 10.2933L3.62329 12.7853C3.38689 13.0884 3.44251 13.5251 3.74428 13.7615C3.87221 13.8602 4.02379 13.9075 4.17259 13.9075C4.37979 13.9075 4.58421 13.8157 4.72189 13.6391L6.49493 11.3585L8.5169 13.6683C8.65457 13.8269 8.84648 13.9075 9.03978 13.9075C9.20248 13.9075 9.36518 13.8505 9.49729 13.7351C9.78654 13.482 9.81574 13.0426 9.56265 12.7547Z" fill="#FAFAFA"/>
</svg>
