<svg width="22" height="22" viewBox="0 0 22 22" fill="none" xmlns="http://www.w3.org/2000/svg">
<path d="M21.0836 13.9519C20.7077 13.9519 20.3961 14.2636 20.3961 14.6394C20.3961 17.3527 18.5077 19.6261 15.9686 20.2219L16.2161 19.8094C16.4086 19.4794 16.3077 19.0577 15.9777 18.8652C15.6569 18.6727 15.2261 18.7736 15.0336 19.1036L14.0711 20.7077C13.9427 20.9186 13.9427 21.1844 14.0619 21.3952C14.1811 21.6152 14.4102 21.7436 14.6577 21.7436C18.5719 21.7436 21.7619 18.5536 21.7619 14.6394C21.7711 14.2636 21.4594 13.9519 21.0836 13.9519Z" fill="#ED1E26"/>
<path d="M7.33268 0.201782C3.41852 0.201782 0.228516 3.39178 0.228516 7.30595C0.228516 7.68178 0.540182 7.99345 0.916016 7.99345C1.29185 7.99345 1.60352 7.68178 1.60352 7.30595C1.60352 4.59262 3.49185 2.31928 6.03102 1.72345L5.78352 2.13595C5.59102 2.46595 5.69185 2.88762 6.02185 3.08012C6.34268 3.27262 6.77352 3.17178 6.96602 2.84178L7.92852 1.23762C8.04768 1.02678 8.05685 0.770116 7.92852 0.550116C7.80935 0.339282 7.58018 0.201782 7.33268 0.201782Z" fill="#ED1E26"/>
<path d="M20.4284 7.58926C20.4284 10.5937 18.2433 13.0713 15.3852 13.5298C15.3852 13.52 15.3852 13.52 15.3852 13.5103C15.1024 9.87183 12.1565 6.90644 8.46924 6.6138C8.9277 3.75571 11.4054 1.57068 14.4098 1.57068C17.7361 1.57068 20.4284 4.26294 20.4284 7.58926Z" fill="#ED1E26"/>
<path d="M7.3535 8.33313C4.03082 8.33313 1.3335 11.0305 1.3335 14.3531C1.3335 17.6758 4.03082 20.3731 7.3535 20.3731C10.6762 20.3731 13.3735 17.6758 13.3735 14.3531C13.366 11.0305 10.6762 8.33313 7.3535 8.33313ZM6.64526 13.5093L8.46106 14.1422C9.11655 14.3757 9.433 14.8353 9.433 15.5436C9.433 16.3573 8.78504 17.0278 7.99392 17.0278H7.92611V17.0655C7.92611 17.3744 7.66994 17.6306 7.36103 17.6306C7.05212 17.6306 6.79595 17.3744 6.79595 17.0655V17.0203C5.95963 16.9826 5.28907 16.2819 5.28907 15.4079C5.28907 15.099 5.54524 14.8429 5.85415 14.8429C6.16306 14.8429 6.41923 15.099 6.41923 15.4079C6.41923 15.5051 6.42684 15.7018 6.85622 15.8977C7.28561 16.0936 7.69701 16.0262 7.98639 15.8977C8.2953 15.7605 8.2953 15.598 8.2953 15.5436C8.2953 15.2799 8.25009 15.2648 8.0768 15.2045L6.26101 14.5716C5.61305 14.3456 5.28907 13.886 5.28907 13.1702C5.28907 12.3565 5.93703 11.6859 6.72814 11.6859H6.79595V11.6558C6.79595 11.3469 7.05212 11.0907 7.36103 11.0907C7.66994 11.0907 7.92611 11.3469 7.92611 11.6558V11.701C8.76243 11.7387 9.433 12.4394 9.433 13.3134C9.433 13.6223 9.17683 13.8785 8.86791 13.8785C8.559 13.8785 8.30283 13.6223 8.30283 13.3134C8.30283 13.0421 8.22003 12.939 7.86584 12.8236C7.51165 12.7083 7.05958 12.7031 6.73567 12.8236C6.53248 12.8842 6.43049 13.051 6.42676 13.1778C6.41923 13.4339 6.46444 13.449 6.64526 13.5093Z" fill="#ED1E26"/>
</svg>
