<svg width="21" height="21" viewBox="0 0 21 21" fill="none" xmlns="http://www.w3.org/2000/svg">
<path d="M19.8709 13.1605C19.5173 13.1605 19.2241 13.4538 19.2241 13.8074C19.2241 16.3604 17.4473 18.4994 15.0582 19.06L15.2911 18.6719C15.4722 18.3614 15.3773 17.9646 15.0668 17.7835C14.7649 17.6024 14.3596 17.6973 14.1784 18.0078L13.2728 19.5171C13.1521 19.7155 13.1521 19.9656 13.2642 20.164C13.3763 20.371 13.5919 20.4918 13.8248 20.4918C17.5077 20.4918 20.5092 17.4903 20.5092 13.8074C20.5178 13.4538 20.2246 13.1605 19.8709 13.1605Z" fill="#ED1E26"/>
<path d="M6.93291 0.2229C3.25004 0.2229 0.248535 3.2244 0.248535 6.90728C0.248535 7.2609 0.541785 7.55415 0.89541 7.55415C1.24904 7.55415 1.54229 7.2609 1.54229 6.90728C1.54229 4.35428 3.31904 2.21528 5.70816 1.65465L5.47529 2.04278C5.29416 2.35328 5.38904 2.75003 5.69954 2.93115C6.00141 3.11228 6.40679 3.0174 6.58791 2.7069L7.49354 1.19753C7.60566 0.99915 7.61429 0.75765 7.49354 0.55065C7.38141 0.352275 7.16579 0.2229 6.93291 0.2229Z" fill="#ED1E26"/>
<path d="M19.2549 7.17429C19.2549 10.0012 17.199 12.3324 14.5098 12.7638C14.5098 12.7546 14.5098 12.7546 14.5098 12.7454C14.2436 9.32198 11.4718 6.53182 8.00244 6.25647C8.43382 3.56726 10.7651 1.51135 13.592 1.51135C16.7217 1.51135 19.2549 4.04453 19.2549 7.17429Z" fill="#ED1E26"/>
<path d="M10.6574 13.6379C10.596 13.6966 10.5027 13.726 10.3775 13.726H10.021V13.0514H10.3775C10.5027 13.0514 10.596 13.0808 10.6574 13.1395C10.7187 13.1983 10.7494 13.2814 10.7494 13.3887C10.7494 13.496 10.7187 13.5791 10.6574 13.6379Z" fill="#ED1E26"/>
<path fill-rule="evenodd" clip-rule="evenodd" d="M7.17886 19.2537C10.308 19.2537 12.8445 16.7171 12.8445 13.588C12.8445 10.459 10.308 7.92236 7.17886 7.92236C4.04977 7.92236 1.51318 10.459 1.51318 13.588C1.51318 16.7171 4.04977 19.2537 7.17886 19.2537ZM6.094 12.5224V15.2134H5.43851V13.5995L4.83665 15.2134H4.3077L3.702 13.5957V15.2134H3.04652V12.5224H3.82086L4.57601 14.3854L5.32349 12.5224H6.094ZM9.0916 12.5224L8.1371 15.2134H7.31671L6.36222 12.5224H7.05991L7.72691 14.554L8.39774 12.5224H9.0916ZM11.3091 13.818C11.3806 13.6877 11.4164 13.5446 11.4164 13.3887C11.4164 13.22 11.3793 13.0705 11.3052 12.9402C11.2311 12.8099 11.1199 12.7076 10.9717 12.6335C10.8234 12.5594 10.6421 12.5224 10.4274 12.5224H9.36553V15.2134H10.021V14.2474H10.4274C10.6471 14.2474 10.8311 14.2078 10.9793 14.1285C11.1276 14.0493 11.2375 13.9458 11.3091 13.818Z" fill="#ED1E26"/>
</svg>
