<svg width="20" height="20" viewBox="0 0 20 20" fill="none" xmlns="http://www.w3.org/2000/svg">
<mask id="mask0_29028_1350" style="mask-type:alpha" maskUnits="userSpaceOnUse" x="0" y="0" width="20" height="20">
<rect width="19.7727" height="20" fill="#C4C4C4"/>
</mask>
<g mask="url(#mask0_29028_1350)">
<path d="M4.77887 19.3544H1.52529C1.0386 19.3544 0.644531 18.9603 0.644531 18.4736V13.5814C0.644531 13.0948 1.0386 12.7007 1.52529 12.7007H4.77718C5.26387 12.7007 5.65794 13.0948 5.65794 13.5814V18.4736C5.65794 18.9603 5.26387 19.3544 4.77887 19.3544Z" fill="#ED1E26"/>
<path d="M11.1903 19.3525H7.93837C7.45168 19.3525 7.05762 18.9584 7.05762 18.4717V10.1491C7.05762 9.66246 7.45168 9.26839 7.93837 9.26839H11.1903C11.677 9.26839 12.071 9.66246 12.071 10.1491V18.4717C12.071 18.9584 11.677 19.3525 11.1903 19.3525ZM17.6048 19.3525H14.3529C13.8662 19.3525 13.4721 18.9584 13.4721 18.4717V5.30751C13.4721 4.82083 13.8662 4.42676 14.3529 4.42676H17.6048C18.0915 4.42676 18.4856 4.82083 18.4856 5.30751V18.4717C18.4856 18.9584 18.0915 19.3525 17.6048 19.3525Z" fill="#ED1E26"/>
<path d="M6.35201 0.644287H11.8504C11.9902 0.644287 12.1047 0.758802 12.1047 0.898578V6.59066C12.1047 6.81969 11.8268 6.93083 11.6685 6.76748L10.1883 5.235C10.1479 5.19268 10.0939 5.16582 10.0358 5.15905C9.97769 5.15229 9.91903 5.16605 9.86999 5.19795L2.22947 10.0632C1.99202 10.2147 1.72088 9.92338 1.88929 9.69772L7.3035 2.42096C7.38096 2.31655 7.36749 2.17003 7.2715 2.08246L6.18024 1.08719C6.01015 0.930575 6.11961 0.644287 6.35201 0.644287Z" fill="#ED1E26"/>
<path d="M11.1903 9.26839H7.93837C7.45168 9.26839 7.05762 9.66246 7.05762 10.1491V18.4717C7.05762 18.9584 7.45168 19.3525 7.93837 19.3525H9.12563C10.157 19.0136 11.1455 18.5558 12.071 17.9884V10.1491C12.071 9.66246 11.677 9.26839 11.1903 9.26839ZM18.4856 8.76149V5.30751C18.4856 4.82083 18.0915 4.42676 17.6048 4.42676H14.3529C13.8662 4.42676 13.4721 4.82083 13.4721 5.30751V16.9999C16.0151 14.9706 17.8355 12.0774 18.4856 8.76149Z" fill="#ED1E26"/>
<path d="M14.516 4.42676H14.3527C13.866 4.42676 13.4719 4.82083 13.4719 5.30751V7.28459C13.9242 6.37338 14.2744 5.41495 14.516 4.42676ZM11.9479 9.70288C11.7946 9.44353 11.5151 9.26839 11.1917 9.26839H7.93982C7.45313 9.26839 7.05906 9.66246 7.05906 10.1491V13.6671C8.97551 12.7308 10.6444 11.3667 11.9479 9.70288ZM4.77887 12.6988H1.52529C1.0386 12.6988 0.644531 13.0929 0.644531 13.5796V15.075C0.737154 15.0767 0.829776 15.0817 0.922399 15.0817C2.58455 15.0817 4.17935 14.7904 5.65794 14.2582V13.5796C5.65794 13.0929 5.26387 12.6988 4.77887 12.6988Z" fill="#ED1E26"/>
<path d="M2.19141 9.28681C6.15902 7.8419 9.28461 4.65063 10.6504 0.644287H6.34932C6.11692 0.644287 6.00746 0.928891 6.17755 1.08551L7.26881 2.08078C7.3648 2.16835 7.37995 2.31486 7.3008 2.41927L2.19141 9.28681Z" fill="#ED1E26"/>
</g>
</svg>
