<svg width="19" height="20" viewBox="0 0 19 20" fill="none" xmlns="http://www.w3.org/2000/svg">
<path d="M4.83811 19.3548H1.54713C1.05485 19.3548 0.65625 18.9608 0.65625 18.4741V13.5819C0.65625 13.0952 1.05485 12.7012 1.54713 12.7012H4.8364C5.32868 12.7012 5.72728 13.0952 5.72728 13.5819V18.4741C5.72728 18.9608 5.32869 19.3548 4.83811 19.3548Z" fill="#0F50A4"/>
<path d="M11.3257 19.3554H8.03639C7.5441 19.3554 7.14551 18.9613 7.14551 18.4746V10.1521C7.14551 9.66539 7.5441 9.27132 8.03639 9.27132H11.3257C11.8179 9.27132 12.2165 9.66539 12.2165 10.1521V18.4746C12.2165 18.9613 11.8179 19.3554 11.3257 19.3554ZM17.8139 19.3554H14.5246C14.0324 19.3554 13.6338 18.9613 13.6338 18.4746V5.31044C13.6338 4.82375 14.0324 4.42969 14.5246 4.42969H17.8139C18.3062 4.42969 18.7048 4.82375 18.7048 5.31044V18.4746C18.7048 18.9613 18.3062 19.3554 17.8139 19.3554Z" fill="#0F50A4"/>
<path d="M6.42832 0.645508H11.9899C12.1313 0.645508 12.2471 0.760023 12.2471 0.899799V6.59188C12.2471 6.82091 11.9661 6.93205 11.806 6.7687L10.3087 5.23622C10.2678 5.1939 10.2133 5.16704 10.1545 5.16027C10.0957 5.15351 10.0363 5.16727 9.98673 5.19917L2.25839 10.0644C2.01821 10.2159 1.74396 9.9246 1.91431 9.69894L7.39075 2.42218C7.4691 2.31777 7.45547 2.17125 7.35838 2.08368L6.25458 1.08841C6.08253 0.931796 6.19325 0.645508 6.42832 0.645508Z" fill="#0685CF"/>
<path d="M11.3257 9.27132H8.03639C7.5441 9.27132 7.14551 9.66539 7.14551 10.1521V18.4746C7.14551 18.9613 7.5441 19.3554 8.03639 19.3554H9.23729C10.2805 19.0165 11.2803 18.5587 12.2165 17.9913V10.1521C12.2165 9.66539 11.8179 9.27132 11.3257 9.27132ZM18.7048 8.76442V5.31044C18.7048 4.82375 18.3062 4.42969 17.8139 4.42969H14.5246C14.0324 4.42969 13.6338 4.82375 13.6338 5.31044V17.0028C16.2059 14.9735 18.0473 12.0803 18.7048 8.76442Z" fill="#0F50A4"/>
<path d="M14.6872 4.42969H14.522C14.0297 4.42969 13.6311 4.82375 13.6311 5.31044V7.28751C14.0886 6.37631 14.4428 5.41788 14.6872 4.42969ZM12.0895 9.7058C11.9345 9.44646 11.6517 9.27132 11.3247 9.27132H8.03539C7.54311 9.27132 7.14451 9.66539 7.14451 10.1521V13.67C9.08299 12.7337 10.7711 11.3696 12.0895 9.7058ZM4.83811 12.7017H1.54713C1.05485 12.7017 0.65625 13.0958 0.65625 13.5825V15.0779C0.749937 15.0796 0.843624 15.0847 0.937312 15.0847C2.61857 15.0847 4.23169 14.7933 5.72728 14.2612V13.5825C5.72728 13.0958 5.32869 12.7017 4.83811 12.7017Z" fill="#0F50A4"/>
<path d="M2.22363 9.28803C6.23685 7.84312 9.39837 4.65185 10.7798 0.645508H6.42934C6.19427 0.645508 6.08354 0.930112 6.25559 1.08673L7.35939 2.082C7.45649 2.16957 7.47182 2.31608 7.39176 2.42049L2.22363 9.28803Z" fill="#0685CF"/>
</svg>
