<svg width="15" height="13" viewBox="0 0 15 13" fill="none" xmlns="http://www.w3.org/2000/svg">
<path opacity="0.3" d="M1.30459 1.73926H5.65321C6.39248 1.73926 6.9578 2.30458 6.9578 3.04385C6.9578 3.78311 6.39248 4.34843 5.65321 4.34843H1.30459C0.565321 4.34843 0 3.78311 0 3.04385C0 2.30458 0.565321 1.73926 1.30459 1.73926ZM9.13211 8.69706H13.4807C14.22 8.69706 14.7853 9.26238 14.7853 10.0016C14.7853 10.7409 14.22 11.3062 13.4807 11.3062H9.13211C8.39284 11.3062 7.82752 10.7409 7.82752 10.0016C7.82752 9.26238 8.39284 8.69706 9.13211 8.69706Z" fill="#0F50A4"/>
<path d="M12.1761 5.21835C10.7411 5.21835 9.56697 4.04422 9.56697 2.60917C9.56697 1.17413 10.7411 0 12.1761 0C13.6112 0 14.7853 1.17413 14.7853 2.60917C14.7853 4.04422 13.6112 5.21835 12.1761 5.21835ZM2.60917 12.1761C1.17413 12.1761 0 11.002 0 9.56697C0 8.13193 1.17413 6.9578 2.60917 6.9578C4.04422 6.9578 5.21835 8.13193 5.21835 9.56697C5.21835 11.002 4.04422 12.1761 2.60917 12.1761Z" fill="#0F50A4"/>
</svg>
