<svg width="18" height="18" viewBox="0 0 18 18" fill="none" xmlns="http://www.w3.org/2000/svg">
<path d="M7.35242 14.2292H0.799759" stroke="white" stroke-width="1.3587" stroke-linecap="round" stroke-linejoin="round"/>
<path fill-rule="evenodd" clip-rule="evenodd" d="M17.3168 14.2292C17.3168 15.6699 16.1489 16.8379 14.7081 16.8379C13.2674 16.8379 12.0994 15.6699 12.0994 14.2292C12.0994 12.7874 13.2674 11.6205 14.7081 11.6205C16.1489 11.6205 17.3168 12.7874 17.3168 14.2292Z" stroke="white" stroke-width="1.3587" stroke-linecap="round" stroke-linejoin="round"/>
<path d="M10.7632 3.60918H17.3169" stroke="white" stroke-width="1.3587" stroke-linecap="round" stroke-linejoin="round"/>
<path fill-rule="evenodd" clip-rule="evenodd" d="M0.799316 3.60918C0.799316 5.051 1.96726 6.21788 3.40801 6.21788C4.84876 6.21788 6.01671 5.051 6.01671 3.60918C6.01671 2.16843 4.84876 1.00049 3.40801 1.00049C1.96726 1.00049 0.799316 2.16843 0.799316 3.60918Z" stroke="white" stroke-width="1.3587" stroke-linecap="round" stroke-linejoin="round"/>
</svg>
