<svg width="24" height="24" viewBox="0 0 24 24" fill="none" xmlns="http://www.w3.org/2000/svg">
<path fill-rule="evenodd" clip-rule="evenodd" d="M5 2H8.36377V3.3H5C4.06112 3.3 3.3 4.06112 3.3 5V8.36328H2V5C2 3.34315 3.34315 2 5 2ZM2 15.636V19C2 20.6569 3.34315 22 5 22H8.36377V20.7H5C4.06112 20.7 3.3 19.9389 3.3 19V15.636H2ZM20.7 15.636V19C20.7 19.9389 19.9389 20.7 19 20.7H15.6365V22H19C20.6569 22 22 20.6569 22 19V15.636H20.7ZM22 8.36328V5C22 3.34315 20.6569 2 19 2H15.6365V3.3H19C19.9389 3.3 20.7 4.06112 20.7 5V8.36328H22Z" fill="#0685CF"/>
<path d="M15.8735 6.9787C15.8202 6.9787 15.7668 6.96536 15.7202 6.9387C14.4402 6.2787 13.3335 5.9987 12.0068 5.9987C10.6868 5.9987 9.43349 6.31203 8.29349 6.9387C8.13349 7.02536 7.93349 6.96536 7.84015 6.80536C7.75349 6.64536 7.81349 6.4387 7.97349 6.35203C9.21349 5.6787 10.5735 5.33203 12.0068 5.33203C13.4268 5.33203 14.6668 5.64536 16.0268 6.34536C16.1935 6.43203 16.2535 6.63203 16.1668 6.79203C16.1068 6.91203 15.9935 6.9787 15.8735 6.9787ZM6.33349 10.4787C6.26682 10.4787 6.20015 10.4587 6.14015 10.4187C5.98682 10.312 5.95349 10.1054 6.06015 9.95203C6.72015 9.0187 7.56015 8.28536 8.56015 7.77203C10.6535 6.69203 13.3335 6.68536 15.4335 7.76536C16.4335 8.2787 17.2735 9.00536 17.9335 9.93203C18.0402 10.0787 18.0068 10.292 17.8535 10.3987C17.7002 10.5054 17.4935 10.472 17.3868 10.3187C16.7868 9.4787 16.0268 8.8187 15.1268 8.3587C13.2135 7.3787 10.7668 7.3787 8.86015 8.36536C7.95349 8.83203 7.19349 9.4987 6.59349 10.3387C6.54015 10.432 6.44015 10.4787 6.33349 10.4787ZM10.5002 18.5254C10.4135 18.5254 10.3268 18.492 10.2668 18.4254C9.68682 17.8454 9.37349 17.472 8.92682 16.6654C8.46682 15.8454 8.22682 14.8454 8.22682 13.772C8.22682 11.792 9.92015 10.1787 12.0002 10.1787C14.0802 10.1787 15.7735 11.792 15.7735 13.772C15.7735 13.9587 15.6268 14.1054 15.4402 14.1054C15.2535 14.1054 15.1068 13.9587 15.1068 13.772C15.1068 12.1587 13.7135 10.8454 12.0002 10.8454C10.2868 10.8454 8.89349 12.1587 8.89349 13.772C8.89349 14.732 9.10682 15.6187 9.51349 16.3387C9.94015 17.1054 10.2335 17.432 10.7468 17.952C10.8735 18.0854 10.8735 18.292 10.7468 18.4254C10.6735 18.492 10.5868 18.5254 10.5002 18.5254ZM15.2802 17.292C14.4868 17.292 13.7868 17.092 13.2135 16.6987C12.2202 16.0254 11.6268 14.932 11.6268 13.772C11.6268 13.5854 11.7735 13.4387 11.9602 13.4387C12.1468 13.4387 12.2935 13.5854 12.2935 13.772C12.2935 14.712 12.7735 15.5987 13.5868 16.1454C14.0602 16.4654 14.6135 16.6187 15.2802 16.6187C15.4402 16.6187 15.7068 16.5987 15.9735 16.552C16.1535 16.5187 16.3268 16.6387 16.3602 16.8254C16.3935 17.0054 16.2735 17.1787 16.0868 17.212C15.7068 17.2854 15.3735 17.292 15.2802 17.292ZM13.9402 18.6654C13.9135 18.6654 13.8802 18.6587 13.8535 18.652C12.7935 18.3587 12.1002 17.9654 11.3735 17.252C10.4402 16.3254 9.92682 15.092 9.92682 13.772C9.92682 12.692 10.8468 11.812 11.9802 11.812C13.1135 11.812 14.0335 12.692 14.0335 13.772C14.0335 14.4854 14.6535 15.0654 15.4202 15.0654C16.1868 15.0654 16.8068 14.4854 16.8068 13.772C16.8068 11.2587 14.6402 9.2187 11.9735 9.2187C10.0802 9.2187 8.34682 10.272 7.56682 11.9054C7.30682 12.4454 7.17349 13.0787 7.17349 13.772C7.17349 14.292 7.22015 15.112 7.62015 16.1787C7.68682 16.352 7.60015 16.5454 7.42682 16.6054C7.25349 16.672 7.06015 16.5787 7.00015 16.412C6.67349 15.5387 6.51349 14.672 6.51349 13.772C6.51349 12.972 6.66682 12.2454 6.96682 11.612C7.85349 9.75203 9.82015 8.54536 11.9735 8.54536C15.0068 8.54536 17.4735 10.8854 17.4735 13.7654C17.4735 14.8454 16.5535 15.7254 15.4202 15.7254C14.2868 15.7254 13.3668 14.8454 13.3668 13.7654C13.3668 13.052 12.7468 12.472 11.9802 12.472C11.2135 12.472 10.5935 13.052 10.5935 13.7654C10.5935 14.9054 11.0335 15.972 11.8402 16.772C12.4735 17.3987 13.0802 17.7454 14.0202 18.0054C14.2002 18.052 14.3002 18.2387 14.2535 18.412C14.2202 18.5654 14.0802 18.6654 13.9402 18.6654Z" fill="#0F50A4" stroke="#0F50A4" stroke-width="0.4"/>
</svg>
