<svg width="20" height="20" viewBox="0 0 20 20" fill="none" xmlns="http://www.w3.org/2000/svg">
<path d="M7.72197 10.8274L7.72195 10.8274L7.72236 10.8289C8.0596 12.0165 8.82492 13.14 9.78445 14.1914C10.7437 15.2426 11.9 16.2249 13.024 17.1302C13.0988 17.2032 13.1768 17.2032 13.2374 17.2032H13.2396C13.2817 17.2032 13.3376 17.184 13.3758 17.1555C13.3949 17.1413 13.4166 17.1196 13.4246 17.0897C13.4306 17.0676 13.4278 17.0463 13.4184 17.0272C13.4736 16.8927 13.4666 16.7046 13.3356 16.5744L13.3358 16.5742L13.3315 16.5708C12.2688 15.7263 11.1622 14.7776 10.2458 13.7695C9.3289 12.7609 8.60561 11.6964 8.30479 10.6208C8.13057 9.98605 8.5368 9.34861 9.11941 9.17369C9.4158 9.11511 9.7048 9.11684 9.99329 9.28878L9.99296 9.28933L10.0004 9.29229C10.2883 9.40667 10.5201 9.69455 10.5776 9.98003L10.5774 9.98007L10.5786 9.98425C10.7948 10.7207 11.425 11.573 12.2081 12.4038C12.9928 13.2362 13.9368 14.0528 14.7888 14.7178L14.7882 14.7186L14.7973 14.7231C14.9333 14.7907 15.14 14.7927 15.2802 14.6535L15.286 14.6477L15.2896 14.6405C15.3578 14.5051 15.3597 14.2993 15.2194 14.16L15.2197 14.1597L15.215 14.1561C14.0619 13.2519 13.1375 12.4087 12.4639 11.6645C11.7897 10.9195 11.3706 10.2778 11.2217 9.77586C11.0963 9.27871 10.7829 8.90629 10.3474 8.65909L10.3474 8.65902L10.345 8.65779C9.96912 8.47113 9.47075 8.40991 8.97377 8.53332L8.97377 8.53332L8.97302 8.53352C8.03175 8.78284 7.47308 9.83852 7.72197 10.8274Z" fill="#ED1E26" stroke="#ED1E26" stroke-width="0.1"/>
<path d="M3.20274 15.1866L3.20226 15.1867L3.20545 15.1931C3.27563 15.3334 3.41561 15.4022 3.55282 15.4022H3.67388H3.68164L3.68903 15.3999C4.36555 15.1847 4.99664 14.7236 5.38178 14.0538C5.76743 13.3832 5.90439 12.507 5.59837 11.4668C5.29935 10.3906 5.41879 9.31496 5.95765 8.29768C6.49665 7.28016 7.33356 6.56406 8.40856 6.26562L8.40856 6.26563L8.40978 6.26526C10.559 5.60894 12.8293 6.85952 13.4902 9.06802V9.12121C13.4902 9.1586 13.5127 9.19092 13.5597 9.24062C13.6096 9.29352 13.7001 9.37807 13.8627 9.52166C14.1885 9.80944 14.8094 10.3392 15.9896 11.3372L15.9887 11.3383L15.9996 11.3438C16.1352 11.4115 16.3413 11.4135 16.481 11.2739L16.4867 11.2682L16.4903 11.2609C16.5581 11.1254 16.5601 10.9193 16.4204 10.7797L16.4206 10.7795L16.4169 10.7765C15.4017 9.94097 14.2729 8.99106 14.0683 8.79179C13.2691 6.29396 10.644 4.83174 8.13902 5.5645L8.1387 5.56459C6.91507 5.93147 5.87539 6.78739 5.26393 7.9485L5.26392 7.9485L5.26346 7.94943C4.65371 9.16823 4.46908 10.4517 4.83645 11.676C5.10492 12.6304 4.92512 13.341 4.59309 13.8425C4.25969 14.346 3.7702 14.6423 3.41595 14.7603L3.41579 14.7598L3.40941 14.763C3.34378 14.7958 3.27475 14.8466 3.23048 14.9174C3.18497 14.9901 3.16761 15.0812 3.20274 15.1866Z" fill="#ED1E26" stroke="#ED1E26" stroke-width="0.1"/>
<path d="M4.40273 16.6823L4.40321 16.6822C4.36802 16.5769 4.38541 16.4859 4.431 16.4132C4.47534 16.3424 4.54445 16.2918 4.61015 16.259L4.61807 16.2551L4.61829 16.2558C5.42943 16.0162 6.03401 15.6454 6.344 14.9022C6.656 14.1541 6.67417 13.0189 6.28075 11.2387C5.85138 9.3426 6.83289 7.562 8.55841 7.07047C9.42071 6.82483 10.2826 6.94815 11.0808 7.37665C11.8813 7.8064 12.4348 8.54265 12.6807 9.40004M4.40273 16.6823L12.633 9.41485M4.40273 16.6823L4.40594 16.6887C4.47622 16.8289 4.61637 16.8976 4.75368 16.8976C4.7573 16.8976 4.76042 16.8976 4.76318 16.8976M4.40273 16.6823L6.93564 11.1673C6.57198 9.59614 7.35991 8.14585 8.75394 7.72284M12.6807 9.40004C12.6808 9.40038 12.6809 9.40073 12.681 9.40108L12.633 9.41485M12.6807 9.40004C12.6806 9.39969 12.6805 9.39935 12.6804 9.399L12.633 9.41485M12.6807 9.40004C12.6829 9.40636 12.685 9.41276 12.6871 9.41925C12.7158 9.50558 12.7493 9.6064 12.8202 9.7409C12.8968 9.88633 13.0178 10.0723 13.2244 10.3194C13.638 10.8143 14.3927 11.5522 15.8161 12.6995L15.8202 12.7028L15.82 12.703C15.9599 12.8425 15.9579 13.0484 15.89 13.1839L15.8864 13.1911L15.8806 13.1969C15.7408 13.3363 15.5345 13.3343 15.3987 13.2666L15.389 13.2618L15.3897 13.2609C12.605 11.0277 12.1643 10.2314 12.0387 9.6072M12.633 9.41485C12.6352 9.42152 12.6374 9.42829 12.6397 9.43517C12.7618 9.80242 12.9884 10.4844 15.7847 12.7384C15.9059 12.8593 15.9059 13.0406 15.8453 13.1614C15.7241 13.2823 15.5422 13.2823 15.421 13.2219C12.633 10.986 12.2087 10.2004 12.0875 9.59614M12.0387 9.6072C12.0388 9.60756 12.0389 9.60793 12.039 9.6083L12.0875 9.59614M12.0387 9.6072C12.0386 9.60679 12.0385 9.60638 12.0385 9.60597L12.0875 9.59614M12.0387 9.6072C11.8601 8.89641 11.3851 8.30541 10.7334 8.0101L10.7282 8.00775L10.7284 8.00747C10.1358 7.65295 9.42306 7.5929 8.76776 7.7709M12.0875 9.59614C11.9057 8.87099 11.4208 8.26671 10.7541 7.96456C10.148 7.60199 9.42065 7.54156 8.75394 7.72284M4.81429 16.9685C4.81429 16.9476 4.81429 16.9303 4.81398 16.916C4.80896 16.9176 4.80394 16.9193 4.79891 16.9209L4.81429 16.9685ZM4.81429 16.9685H4.86429V16.9669C4.86429 16.9618 4.86429 16.9568 4.86428 16.952C4.84771 16.9576 4.83105 16.963 4.81429 16.9685ZM8.76776 7.7709C8.76799 7.77083 8.76822 7.77076 8.76845 7.77069L8.75394 7.72284M8.76776 7.7709C8.76752 7.77097 8.76729 7.77103 8.76706 7.77109L8.75394 7.72284M8.76776 7.7709C7.40235 8.18562 6.62595 9.60758 6.98435 11.156L6.98453 11.1568L6.98452 11.1568C7.34874 12.8514 7.38152 14.1319 7.03566 15.0821C6.68821 16.0366 5.96177 16.65 4.82967 17.016L4.76429 17.0372V16.9685C4.76429 16.9376 4.76427 16.9166 4.76342 16.9014C4.76335 16.9 4.76326 16.8988 4.76318 16.8976M4.76318 16.8976C4.76643 16.8977 4.76918 16.8977 4.77165 16.8978L4.7765 16.8981C4.77762 16.8982 4.77802 16.8983 4.7779 16.8983C4.77766 16.8983 4.77439 16.8975 4.77034 16.8946C4.76594 16.8914 4.7633 16.8877 4.76202 16.8851C4.76173 16.8846 4.7616 16.8842 4.76157 16.8842C4.7615 16.8842 4.76245 16.8876 4.76318 16.8976Z" fill="#ED1E26" stroke="#ED1E26" stroke-width="0.1"/>
<path d="M9.41262 9.91889L9.41246 9.91841L9.40607 9.9216C9.34036 9.95447 9.27128 10.0053 9.22696 10.0762C9.18164 10.1488 9.16423 10.2395 9.1987 10.3444C9.47497 11.3869 10.1938 12.3488 11.0062 13.1767C11.7981 13.9838 12.6833 14.668 13.3444 15.1789C13.3619 15.1925 13.3794 15.206 13.3966 15.2193C13.4952 15.3015 13.5889 15.3789 13.6756 15.4505C13.9104 15.6444 14.0935 15.7956 14.1804 15.8826C14.2156 15.9178 14.266 15.951 14.3146 15.9753C14.3615 15.9988 14.4157 16.0185 14.4581 16.0185L14.4606 16.0185C14.4898 16.0185 14.5434 16.0185 14.5903 15.9997C14.6156 15.9896 14.6414 15.9732 14.6606 15.9466C14.6764 15.9246 14.686 15.8983 14.6889 15.8682C14.8148 15.7288 14.8114 15.5271 14.6788 15.391C14.6124 15.2936 14.4862 15.1842 14.3379 15.0655C14.2825 15.0212 14.2238 14.9754 14.1628 14.9278C14.0548 14.8435 13.9396 14.7537 13.8236 14.6569L13.8236 14.6569L13.8221 14.6557L13.8155 14.6506C13.1495 14.1357 12.2917 13.4726 11.5319 12.7049C10.769 11.934 10.1093 11.0621 9.84005 10.1343L9.84085 10.134L9.83676 10.1259C9.80391 10.0601 9.7531 9.991 9.68219 9.94666C9.60932 9.90109 9.51809 9.88372 9.41262 9.91889ZM12.0152 17.3958L12.0154 17.3957L12.0126 17.3923C11.9849 17.3576 11.9564 17.3218 11.9273 17.2851C11.7038 17.0035 11.4408 16.6723 11.1357 16.401C10.7906 16.0941 10.3852 15.8578 9.91323 15.8578C9.65116 15.8578 9.45726 15.9902 9.27188 16.1756C8.92592 16.5218 8.77303 17.1128 8.70471 17.6292C8.64357 18.0913 8.64891 18.5054 8.65083 18.6541C8.65107 18.6725 8.65125 18.6869 8.65125 18.6967C8.65125 18.799 8.68555 18.8882 8.74921 18.9518C8.81287 19.0155 8.90198 19.0499 9.00425 19.0499C9.10651 19.0499 9.19562 19.0155 9.25928 18.9518C9.32294 18.8882 9.35724 18.799 9.35724 18.6967C9.35724 18.3948 9.37236 17.9885 9.43236 17.6133C9.46236 17.4257 9.5034 17.2471 9.55879 17.0938C9.61438 16.9399 9.6832 16.815 9.7668 16.7314L9.77253 16.7256L9.77616 16.7184C9.80363 16.6634 9.82744 16.6433 9.8447 16.6346C9.86298 16.6255 9.88167 16.6248 9.91323 16.6248C10.1955 16.6248 10.4708 16.8092 10.7349 17.0583C10.8658 17.1818 10.9915 17.3188 11.1117 17.4523C11.1304 17.473 11.1489 17.4937 11.1673 17.5142C11.2657 17.6238 11.3605 17.7294 11.4499 17.8192C11.573 18.0029 11.6961 18.1261 11.8163 18.2463L11.817 18.247C11.9577 18.3878 12.1712 18.3878 12.3119 18.247C12.4527 18.1063 12.4527 17.8927 12.3119 17.752C12.2519 17.6919 12.1336 17.5735 12.0152 17.3958ZM5.92687 18.2275L5.92639 18.2277L5.92958 18.2341C5.99982 18.3746 6.13993 18.4436 6.2773 18.4436H6.3379H6.34535L6.35247 18.4414C6.71494 18.331 7.02981 18.0606 7.29104 17.7031C7.55253 17.3453 7.76295 16.8968 7.91561 16.4234C8.22018 15.4787 8.29896 14.421 8.0821 13.7701L8.08258 13.7699L8.07939 13.7635C8.04654 13.6978 7.99574 13.6287 7.92483 13.5843C7.85195 13.5388 7.76072 13.5214 7.65526 13.5566L7.6551 13.5561L7.64871 13.5593C7.583 13.5921 7.51391 13.643 7.4696 13.7139C7.42418 13.7866 7.40679 13.8776 7.44155 13.9827C7.51468 14.232 7.53385 14.5735 7.50382 14.9538C7.47382 15.3337 7.39499 15.7488 7.2748 16.1434C7.15455 16.5381 6.99345 16.9105 6.79982 17.2057C6.60562 17.5018 6.38221 17.7151 6.13946 17.8008L6.13933 17.8004L6.13374 17.8032C6.06803 17.8361 5.99894 17.8869 5.95463 17.9579C5.90909 18.0308 5.89172 18.122 5.92687 18.2275Z" fill="#ED1E26" stroke="#ED1E26" stroke-width="0.1"/>
<path d="M14.4662 7.57098C14.948 8.35206 15.3805 9.03445 16.1261 9.28393C16.2758 9.3559 16.485 9.27914 16.5551 9.07529C16.6277 8.92515 16.5496 8.71522 16.3437 8.64618C16.1143 8.56011 15.9093 8.37225 15.7069 8.11795C15.526 7.89076 15.351 7.61557 15.164 7.32159C15.1417 7.28663 15.1193 7.2514 15.0967 7.21595C14.6721 6.48989 14.1379 5.63647 13.2816 4.96529C12.4237 4.29281 11.2458 3.80571 9.53806 3.80571C6.05487 3.80571 3.18407 6.6707 3.18407 10.2655C3.18407 10.3677 3.21841 10.4566 3.2821 10.5201C3.34579 10.5837 3.4349 10.6179 3.53715 10.6179C3.6394 10.6179 3.7285 10.5837 3.79219 10.5201C3.85588 10.4566 3.89022 10.3677 3.89022 10.2655C3.89022 7.08732 6.41459 4.51041 9.53806 4.51041C11.0732 4.51041 12.0923 4.94541 12.8329 5.54245C13.5363 6.10944 13.9911 6.82431 14.3985 7.46479C14.4212 7.50043 14.4437 7.53584 14.4662 7.57098ZM14.4662 7.57098C14.4661 7.57087 14.466 7.57076 14.466 7.57064L14.5085 7.54439M14.4662 7.57098C14.4662 7.57108 14.4663 7.57118 14.4664 7.57128L14.5085 7.54439M14.5085 7.54439C14.9934 8.3305 15.4177 8.99567 16.1451 9.23756L15.054 7.24204C14.2054 5.79076 12.9325 3.85571 9.53806 3.85571C6.08299 3.85571 3.23407 6.69781 3.23407 10.2655C3.23407 10.447 3.3553 10.5679 3.53715 10.5679C3.71899 10.5679 3.84022 10.447 3.84022 10.2655C3.84022 7.06063 6.38606 4.46041 9.53806 4.46041C12.5466 4.46041 13.6032 6.12137 14.4399 7.43662C14.4629 7.47282 14.4858 7.50876 14.5085 7.54439ZM3.96145 13.2786H3.97656L3.98914 13.2702C4.09049 13.2028 4.14411 13.1161 4.16202 13.0268C4.17968 12.9387 4.16191 12.8518 4.12738 12.7829C4.09805 12.7244 4.03826 12.5903 3.9859 12.441C3.933 12.2902 3.89022 12.1309 3.89022 12.0192C3.89022 11.9171 3.85588 11.8281 3.79219 11.7646C3.7285 11.701 3.6394 11.6668 3.53715 11.6668C3.4349 11.6668 3.34579 11.701 3.2821 11.7646C3.21841 11.8281 3.18407 11.9171 3.18407 12.0192C3.18407 12.2409 3.26291 12.4901 3.34715 12.6888C3.38954 12.7887 3.4339 12.8773 3.47171 12.9449C3.4906 12.9788 3.50803 13.0077 3.52291 13.0304C3.53467 13.0483 3.54614 13.0644 3.55631 13.076C3.58676 13.1357 3.62023 13.1865 3.66507 13.2223C3.71329 13.2608 3.77031 13.2786 3.84022 13.2786H3.96145Z" fill="#ED1E26" stroke="#ED1E26" stroke-width="0.1"/>
<path d="M14.4756 4.86309L14.4743 4.86388L14.4832 4.87272L14.4848 4.8743C14.5456 4.93503 14.619 5.0083 14.7609 5.0083L14.7631 5.0083C14.8231 5.00831 14.9003 5.00832 14.9745 4.93674C15.0732 4.86971 15.1256 4.78408 15.1433 4.69593C15.161 4.60783 15.1432 4.52092 15.1087 4.45201L15.1088 4.45197L15.1074 4.44956C14.8578 4.01371 14.1657 3.40322 13.1466 2.90224C12.1251 2.40016 10.7691 2.00493 9.18493 2.00493C5.83364 2.00493 4.06077 3.76827 3.62765 4.44708C3.49448 4.64689 3.55361 4.86327 3.70496 4.94111C3.80552 5.00717 3.90858 5.02485 4.00423 5.0075C4.09957 4.9902 4.18412 4.93879 4.25033 4.87272L4.25174 4.87413L4.25869 4.86165C4.40439 4.59993 4.88115 4.07653 5.70157 3.61832C6.52029 3.16106 7.67866 2.77029 9.18493 2.77029C10.6309 2.77029 11.8659 3.14609 12.7843 3.59687C13.2435 3.82226 13.6231 4.06617 13.91 4.29073C14.198 4.51612 14.3894 4.71958 14.4756 4.86309Z" fill="#ED1E26" stroke="#ED1E26" stroke-width="0.1"/>
<path d="M17.8382 0H15.0391C14.7155 0 14.4531 0.262344 14.4531 0.585938C14.4531 0.909531 14.7155 1.17188 15.0391 1.17188H17.8382C18.3841 1.17188 18.8281 1.61594 18.8281 2.16172V4.96094C18.8281 5.28453 19.0905 5.54688 19.4141 5.54688C19.7377 5.54688 20 5.28453 20 4.96094V2.16172C20 0.969766 19.0302 0 17.8382 0Z" fill="#0F50A4"/>
<path d="M0.585938 5.54688C0.909531 5.54688 1.17188 5.28453 1.17188 4.96094V2.16172C1.17188 1.61594 1.61594 1.17188 2.16176 1.17188H4.96094C5.28453 1.17188 5.54688 0.909531 5.54688 0.585938C5.54688 0.262344 5.28453 0 4.96094 0H2.16176C0.969766 0 0 0.969766 0 2.16172V4.96094C0 5.28453 0.262344 5.54688 0.585938 5.54688Z" fill="#0F50A4"/>
<path d="M4.96094 18.8281H2.16176C1.61594 18.8281 1.17188 18.3841 1.17188 17.8383V15.0391C1.17188 14.7155 0.909531 14.4531 0.585938 14.4531C0.262344 14.4531 0 14.7155 0 15.0391V17.8383C0 19.0302 0.969766 20 2.16176 20H4.96094C5.28453 20 5.54688 19.7377 5.54688 19.4141C5.54688 19.0905 5.28453 18.8281 4.96094 18.8281Z" fill="#0F50A4"/>
<path d="M19.4141 14.4531C19.0905 14.4531 18.8281 14.7155 18.8281 15.0391V17.8383C18.8281 18.3841 18.3841 18.8281 17.8382 18.8281H15.0391C14.7155 18.8281 14.4531 19.0905 14.4531 19.4141C14.4531 19.7377 14.7155 20 15.0391 20H17.8382C19.0302 20 20 19.0302 20 17.8383V15.0391C20 14.7155 19.7377 14.4531 19.4141 14.4531Z" fill="#0F50A4"/>
</svg>
