<svg width="20" height="20" viewBox="0 0 20 20" fill="none" xmlns="http://www.w3.org/2000/svg">
<path d="M19.1647 12.6836C18.8231 12.6836 18.5397 12.9669 18.5397 13.3086C18.5397 15.7753 16.8231 17.8419 14.5147 18.3836L14.7397 18.0086C14.9147 17.7086 14.8231 17.3253 14.5231 17.1503C14.2314 16.9753 13.8397 17.0669 13.6647 17.3669L12.7897 18.8253C12.6731 19.0169 12.6731 19.2586 12.7814 19.4503C12.8897 19.6503 13.0981 19.7669 13.3231 19.7669C16.8814 19.7669 19.7814 16.8669 19.7814 13.3086C19.7897 12.9669 19.5064 12.6836 19.1647 12.6836Z" fill="white"/>
<path d="M6.66536 0.183594C3.10703 0.183594 0.207031 3.08359 0.207031 6.64193C0.207031 6.98359 0.490365 7.26693 0.832031 7.26693C1.1737 7.26693 1.45703 6.98359 1.45703 6.64193C1.45703 4.17526 3.1737 2.10859 5.48203 1.56693L5.25703 1.94193C5.08203 2.24193 5.1737 2.62526 5.4737 2.80026C5.76537 2.97526 6.15703 2.88359 6.33203 2.58359L7.20703 1.12526C7.31536 0.933594 7.3237 0.700261 7.20703 0.500261C7.0987 0.308594 6.89037 0.183594 6.66536 0.183594Z" fill="white"/>
<path d="M18.5711 6.89917C18.5711 9.63046 16.5848 11.8829 13.9865 12.2997C13.9865 12.2908 13.9865 12.2908 13.9865 12.2819C13.7293 8.97424 11.0512 6.27843 7.69922 6.01239C8.11601 3.41412 10.3684 1.42773 13.0997 1.42773C16.1236 1.42773 18.5711 3.87525 18.5711 6.89917Z" fill="white"/>
<path d="M10.2647 13.1453C10.2054 13.2021 10.1152 13.2305 9.99423 13.2305H9.64981V12.5786H9.99423C10.1152 12.5786 10.2054 12.607 10.2647 12.6638C10.3239 12.7206 10.3536 12.8008 10.3536 12.9045C10.3536 13.0082 10.3239 13.0885 10.2647 13.1453Z" fill="white"/>
<path fill-rule="evenodd" clip-rule="evenodd" d="M6.90377 18.5712C9.92705 18.5712 12.3779 16.1204 12.3779 13.0971C12.3779 10.0739 9.92705 7.62305 6.90377 7.62305C3.8805 7.62305 1.42969 10.0739 1.42969 13.0971C1.42969 16.1204 3.8805 18.5712 6.90377 18.5712ZM5.8556 12.0675V14.6675H5.22228V13.1082L4.64077 14.6675H4.1297L3.54449 13.1045V14.6675H2.91117V12.0675H3.65932L4.38894 13.8675L5.11115 12.0675H5.8556ZM8.75183 12.0675L7.82961 14.6675H7.03696L6.11475 12.0675H6.78885L7.43329 14.0304L8.08143 12.0675H8.75183ZM10.8943 13.3193C10.9634 13.1934 10.998 13.0552 10.998 12.9045C10.998 12.7416 10.9622 12.5971 10.8906 12.4712C10.819 12.3453 10.7116 12.2465 10.5683 12.1749C10.4251 12.1033 10.2499 12.0675 10.0424 12.0675H9.01649V14.6675H9.64981V13.7342H10.0424C10.2547 13.7342 10.4325 13.6959 10.5757 13.6193C10.719 13.5428 10.8251 13.4428 10.8943 13.3193Z" fill="white"/>
</svg>
