<svg width="20" height="20" viewBox="0 0 20 20" fill="none" xmlns="http://www.w3.org/2000/svg">
<path fill-rule="evenodd" clip-rule="evenodd" d="M10 20C15.5267 20 20 15.5275 20 10C20 4.47327 15.5275 0 10 0C4.47327 0 0 4.4725 0 10C0 15.5267 4.4725 20 10 20ZM14.4204 6.82691C14.7256 7.13209 14.7256 7.62678 14.4204 7.9318L9.17932 13.173C8.87415 13.4781 8.37961 13.4781 8.07443 13.173L5.57947 10.6779C5.27429 10.3729 5.27429 9.87821 5.57947 9.57319C5.88449 9.26801 6.37918 9.26801 6.6842 9.57319L8.6268 11.5158L13.3155 6.82691C13.6207 6.52189 14.1154 6.52189 14.4204 6.82691Z" fill="#0F50A4"/>
</svg>
