<svg width="24" height="24" viewBox="0 0 24 24" fill="none" xmlns="http://www.w3.org/2000/svg">
<circle cx="12" cy="12" r="11.25" fill="white" stroke="#0685CF" stroke-width="1.5"/>
<path d="M12 5.92969L11.6037 6.83225L10.1818 10.0173L6.70892 10.3869L5.72455 10.4963L6.46305 11.1526L9.04692 13.4901L8.32242 16.9083L8.11724 17.8651L8.97867 17.3729L12 15.6229L15.0214 17.3729L15.8829 17.8651L15.6777 16.9083L14.9532 13.4901L17.5371 11.1526L18.2756 10.4963L17.2912 10.3869L13.8183 10.0177L12.3964 6.83225L12 5.92969ZM12 8.07606L13.1214 10.6057L13.2307 10.8376L13.4766 10.8651L16.2246 11.1521L14.174 12.9984L13.9824 13.1756L14.0371 13.4219L14.6115 16.1151L12.2188 14.7479L12 14.6114L11.7813 14.7479L9.38861 16.1151L9.96305 13.4219L10.0177 13.1756L9.82611 12.9979L7.77555 11.1526L10.5235 10.8651L10.7698 10.838L10.8792 10.6057L12 8.07606Z" fill="#0685CF"/>
</svg>
