<svg width="26" height="26" viewBox="0 0 26 26" fill="none" xmlns="http://www.w3.org/2000/svg">
<path d="M9.47917 14.0833C10.1256 14.0833 10.7456 14.3401 11.2027 14.7973C11.6599 15.2544 11.9167 15.8744 11.9167 16.5208V20.3125C11.9167 20.959 11.6599 21.579 11.2027 22.0361C10.7456 22.4932 10.1256 22.75 9.47917 22.75H5.6875C5.04103 22.75 4.42105 22.4932 3.96393 22.0361C3.50681 21.579 3.25 20.959 3.25 20.3125V16.5208C3.25 15.8744 3.50681 15.2544 3.96393 14.7973C4.42105 14.3401 5.04103 14.0833 5.6875 14.0833H9.47917ZM20.3125 14.0833C20.959 14.0833 21.579 14.3401 22.0361 14.7973C22.4932 15.2544 22.75 15.8744 22.75 16.5208V20.3125C22.75 20.959 22.4932 21.579 22.0361 22.0361C21.579 22.4932 20.959 22.75 20.3125 22.75H16.5208C15.8744 22.75 15.2544 22.4932 14.7973 22.0361C14.3401 21.579 14.0833 20.959 14.0833 20.3125V16.5208C14.0833 15.8744 14.3401 15.2544 14.7973 14.7973C15.2544 14.3401 15.8744 14.0833 16.5208 14.0833H20.3125ZM9.47917 15.7083H5.6875C5.47201 15.7083 5.26535 15.7939 5.11298 15.9463C4.9606 16.0987 4.875 16.3053 4.875 16.5208V20.3125C4.875 20.761 5.239 21.125 5.6875 21.125H9.47917C9.69466 21.125 9.90132 21.0394 10.0537 20.887C10.2061 20.7347 10.2917 20.528 10.2917 20.3125V16.5208C10.2917 16.3053 10.2061 16.0987 10.0537 15.9463C9.90132 15.7939 9.69466 15.7083 9.47917 15.7083ZM20.3125 15.7083H16.5208C16.3053 15.7083 16.0987 15.7939 15.9463 15.9463C15.7939 16.0987 15.7083 16.3053 15.7083 16.5208V20.3125C15.7083 20.761 16.0723 21.125 16.5208 21.125H20.3125C20.528 21.125 20.7347 21.0394 20.887 20.887C21.0394 20.7347 21.125 20.528 21.125 20.3125V16.5208C21.125 16.3053 21.0394 16.0987 20.887 15.9463C20.7347 15.7939 20.528 15.7083 20.3125 15.7083ZM20.3125 3.25C20.959 3.25 21.579 3.50681 22.0361 3.96393C22.4932 4.42105 22.75 5.04103 22.75 5.6875V9.47917C22.75 10.1256 22.4932 10.7456 22.0361 11.2027C21.579 11.6599 20.959 11.9167 20.3125 11.9167H16.5208C15.8744 11.9167 15.2544 11.6599 14.7973 11.2027C14.3401 10.7456 14.0833 10.1256 14.0833 9.47917V5.6875C14.0833 5.04103 14.3401 4.42105 14.7973 3.96393C15.2544 3.50681 15.8744 3.25 16.5208 3.25H20.3125ZM20.3125 4.875H16.5208C16.3053 4.875 16.0987 4.9606 15.9463 5.11298C15.7939 5.26535 15.7083 5.47201 15.7083 5.6875V9.47917C15.7083 9.92767 16.0723 10.2917 16.5208 10.2917H20.3125C20.528 10.2917 20.7347 10.2061 20.887 10.0537C21.0394 9.90132 21.125 9.69466 21.125 9.47917V5.6875C21.125 5.47201 21.0394 5.26535 20.887 5.11298C20.7347 4.9606 20.528 4.875 20.3125 4.875Z" fill="#0F50A4"/>
<path d="M9.47917 3.25C10.1256 3.25 10.7456 3.50681 11.2027 3.96393C11.6599 4.42105 11.9167 5.04103 11.9167 5.6875V9.47917C11.9167 10.1256 11.6599 10.7456 11.2027 11.2027C10.7456 11.6599 10.1256 11.9167 9.47917 11.9167H5.6875C5.04103 11.9167 4.42105 11.6599 3.96393 11.2027C3.50681 10.7456 3.25 10.1256 3.25 9.47917V5.6875C3.25 5.04103 3.50681 4.42105 3.96393 3.96393C4.42105 3.50681 5.04103 3.25 5.6875 3.25H9.47917ZM9.47917 4.875H5.6875C5.47201 4.875 5.26535 4.9606 5.11298 5.11298C4.9606 5.26535 4.875 5.47201 4.875 5.6875V9.47917C4.875 9.92767 5.239 10.2917 5.6875 10.2917H9.47917C9.69466 10.2917 9.90132 10.2061 10.0537 10.0537C10.2061 9.90132 10.2917 9.69466 10.2917 9.47917V5.6875C10.2917 5.47201 10.2061 5.26535 10.0537 5.11298C9.90132 4.9606 9.69466 4.875 9.47917 4.875Z" fill="#ED1E26"/>
</svg>
