<svg width="18" height="21" viewBox="0 0 18 21" fill="none" xmlns="http://www.w3.org/2000/svg">
<path d="M8.79816 20.0018C8.43914 19.9227 8.09462 19.8138 7.81811 19.5622C7.28608 19.0778 7.08307 18.4879 7.27508 17.7998C7.47509 17.0814 7.97212 16.6433 8.72516 16.53C9.55921 16.405 10.2617 16.7903 10.6228 17.5405C10.637 17.5822 10.6658 17.6177 10.7041 17.6409C10.7423 17.6641 10.7877 17.6734 10.8323 17.6674C11.4113 17.6625 11.9898 17.6708 12.5684 17.6635C13.3864 17.6528 14.1055 17.1336 14.2775 16.4197C13.9366 16.5191 13.5726 16.5138 13.2349 16.4045C12.5034 16.1784 12.0018 15.5338 11.9953 14.7441C11.9823 13.1604 11.9723 11.5761 11.9953 9.99289C12.0173 8.59375 13.4954 7.79529 14.7235 8.50731C15.294 8.83744 15.5735 9.3595 15.578 10.0002C15.587 11.9991 15.598 13.9989 15.574 15.9977C15.556 17.539 14.2545 18.7916 12.6739 18.8302C12.0623 18.8453 11.4503 18.8302 10.8383 18.8395C10.7698 18.8395 10.6643 18.8844 10.6383 18.9372C10.3733 19.4983 9.93573 19.8465 9.31019 19.9725C9.28494 19.9803 9.26049 19.9904 9.23719 20.0027L8.79816 20.0018Z" fill="white"/>
<path d="M0 8.79384C0.117007 5.71328 1.39358 3.21436 4.05023 1.53246C7.1684 -0.441965 10.4461 -0.512289 13.6388 1.34347C16.4889 2.99948 17.8615 5.57019 18 8.83144C17.8305 8.73377 17.7055 8.6527 17.572 8.58726C17.418 8.51205 17.261 8.40706 17.0979 8.39192C16.7549 8.36066 16.7329 8.14774 16.7019 7.88989C16.5089 6.28661 15.8379 4.89187 14.7293 3.70076C13.8687 2.77679 12.787 2.07558 11.581 1.65986C10.3749 1.24414 9.08222 1.12688 7.81843 1.31856C5.72132 1.64429 4.03572 2.64982 2.76165 4.29754C1.94078 5.34443 1.43282 6.59291 1.29407 7.90454C1.26607 8.16532 1.21257 8.32501 0.90505 8.39631C0.597533 8.46761 0.326518 8.64391 0 8.79384Z" fill="white"/>
<path d="M6.00361 12.3848C6.00361 13.151 6.00711 13.9168 6.00361 14.6825C5.99861 15.4795 5.52109 16.1593 4.81855 16.3839C3.61098 16.7702 2.43842 15.9933 2.41842 14.7528C2.39308 13.1627 2.39308 11.5723 2.41842 9.98159C2.44292 8.59221 3.9115 7.80157 5.13657 8.50187C5.7306 8.84128 5.99761 9.38433 6.00261 10.048C6.00811 10.8269 6.00361 11.6059 6.00361 12.3848Z" fill="white"/>
<path d="M1.2309 15.1981C0.61937 15.0585 0.061339 14.4275 0.0338374 13.7331C-0.00216457 12.8198 -0.00216457 11.9027 0.0338374 10.9895C0.061339 10.296 0.625871 9.65969 1.2304 9.52734L1.2309 15.1981Z" fill="white"/>
<path d="M16.7637 15.2147V9.51953C17.3377 9.72171 17.7222 10.1012 17.8977 10.6701C17.9497 10.8447 17.9762 11.0255 17.9767 11.2073C17.9847 11.9857 17.9847 12.7642 17.9767 13.5426C17.9712 14.3025 17.5267 14.9413 16.8382 15.1952C16.8162 15.203 16.7907 15.2074 16.7637 15.2147Z" fill="white"/>
</svg>
