<svg width="18" height="21" viewBox="0 0 18 21" fill="none" xmlns="http://www.w3.org/2000/svg">
<path d="M8.79816 20.9998C8.43914 20.9207 8.09462 20.8118 7.81811 20.5603C7.28608 20.0758 7.08307 19.4859 7.27508 18.7978C7.47509 18.0794 7.97212 17.6414 8.72516 17.5281C9.55921 17.4031 10.2617 17.7884 10.6228 18.5385C10.637 18.5802 10.6658 18.6157 10.7041 18.6389C10.7423 18.6621 10.7877 18.6715 10.8323 18.6655C11.4113 18.6606 11.9898 18.6689 12.5684 18.6616C13.3864 18.6508 14.1055 18.1317 14.2775 17.4177C13.9366 17.5171 13.5726 17.5118 13.2349 17.4026C12.5034 17.1765 12.0018 16.5318 11.9953 15.7422C11.9823 14.1584 11.9723 12.5742 11.9953 10.9909C12.0173 9.5918 13.4954 8.79334 14.7235 9.50536C15.294 9.83549 15.5735 10.3575 15.578 10.9983C15.587 12.9971 15.598 14.9969 15.574 16.9958C15.556 18.537 14.2545 19.7897 12.6739 19.8282C12.0623 19.8434 11.4503 19.8282 10.8383 19.8375C10.7698 19.8375 10.6643 19.8825 10.6383 19.9352C10.3733 20.4963 9.93573 20.8445 9.31019 20.9705C9.28494 20.9783 9.26049 20.9885 9.23719 21.0008L8.79816 20.9998Z" fill="#0A0B09"/>
<path d="M0 9.79188C0.117007 6.71133 1.39358 4.21241 4.05023 2.53051C7.1684 0.556082 10.4461 0.485758 13.6388 2.34151C16.4889 3.99753 17.8615 6.56824 18 9.82949C17.8305 9.73182 17.7055 9.65075 17.572 9.58531C17.418 9.5101 17.261 9.4051 17.0979 9.38997C16.7549 9.35871 16.7329 9.14579 16.7019 8.88794C16.5089 7.28466 15.8379 5.88991 14.7293 4.69881C13.8687 3.77484 12.787 3.07363 11.581 2.65791C10.3749 2.24219 9.08222 2.12493 7.81843 2.31661C5.72132 2.64234 4.03572 3.64787 2.76165 5.29558C1.94078 6.34248 1.43282 7.59096 1.29407 8.90259C1.26607 9.16337 1.21257 9.32306 0.90505 9.39436C0.597533 9.46566 0.326518 9.64196 0 9.79188Z" fill="#0A0B09"/>
<path d="M6.00361 13.3828C6.00361 14.1491 6.00711 14.9148 6.00361 15.6806C5.99861 16.4776 5.52109 17.1573 4.81855 17.382C3.61098 17.7683 2.43842 16.9913 2.41842 15.7509C2.39308 14.1608 2.39308 12.5704 2.41842 10.9796C2.44292 9.59026 3.9115 8.79961 5.13657 9.49992C5.7306 9.83932 5.99761 10.3824 6.00261 11.0461C6.00811 11.825 6.00361 12.6039 6.00361 13.3828Z" fill="#0A0B09"/>
<path d="M1.2309 16.1962C0.61937 16.0565 0.061339 15.4256 0.0338374 14.7311C-0.00216457 13.8179 -0.00216457 12.9008 0.0338374 11.9875C0.061339 11.2941 0.625871 10.6577 1.2304 10.5254L1.2309 16.1962Z" fill="#0A0B09"/>
<path d="M16.7637 16.2128V10.5176C17.3377 10.7198 17.7222 11.0992 17.8977 11.6681C17.9497 11.8427 17.9762 12.0235 17.9767 12.2053C17.9847 12.9838 17.9847 13.7622 17.9767 14.5407C17.9712 15.3005 17.5267 15.9393 16.8382 16.1933C16.8162 16.2011 16.7907 16.2055 16.7637 16.2128Z" fill="#0A0B09"/>
</svg>
