<svg width="26" height="26" viewBox="0 0 26 26" fill="none" xmlns="http://www.w3.org/2000/svg">
<path d="M25.1003 9.8735L14.8667 2.2555C13.8865 1.5262 12.5657 1.521 11.5803 2.2425L1.1647 9.8709C0.997991 9.99337 0.886602 10.1769 0.854927 10.3813C0.823252 10.5858 0.873873 10.7944 0.995705 10.9616C1.1478 11.1696 1.3857 11.2814 1.6262 11.2814C1.7861 11.2814 1.9473 11.232 2.0864 11.1306L3.2382 10.2882V21.1185C3.2382 22.8319 4.5213 24.2268 6.0982 24.2268H19.9029C21.4798 24.2268 22.7629 22.8319 22.7629 21.1185V10.0789L24.1695 11.1254C24.2517 11.1866 24.3451 11.231 24.4445 11.2561C24.5439 11.2812 24.6472 11.2865 24.7486 11.2717C24.85 11.2568 24.9475 11.2221 25.0355 11.1696C25.1235 11.1171 25.2003 11.0477 25.2615 10.9655C25.3846 10.7992 25.4368 10.5909 25.4066 10.3862C25.3764 10.1815 25.2662 9.99712 25.1003 9.8735ZM21.2029 9.0168V21.1159C21.2029 21.97 20.6192 22.6642 19.9029 22.6642H6.0969C5.3806 22.6642 4.7969 21.97 4.7969 21.1159V9.1429L12.502 3.5009C12.931 3.1863 13.5069 3.1889 13.9346 3.5061L21.2081 8.9206C21.2055 8.9531 21.2029 8.9843 21.2029 9.0168Z" fill="#0F50A4"/>
<path d="M13.1301 19.0164C11.1788 19.0164 9.59277 17.4291 9.59277 15.4778C9.59277 13.5265 11.1801 11.9405 13.1301 11.9405C15.0814 11.9405 16.6687 13.5278 16.6687 15.4778C16.6687 17.4291 15.0814 19.0164 13.1301 19.0164ZM13.1301 13.5005C12.0394 13.5005 11.1528 14.3884 11.1528 15.4778C11.1528 16.5672 12.0407 17.4564 13.1301 17.4564C14.2195 17.4564 15.1087 16.5685 15.1087 15.4778C15.1087 14.3871 14.2208 13.5005 13.1301 13.5005Z" fill="#ED1E26"/>
</svg>
