<svg width="22" height="20" viewBox="0 0 22 20" fill="none" xmlns="http://www.w3.org/2000/svg">
<path d="M21 15.8421V10.3763C21 8.88881 21 8.14507 20.8029 7.46399C20.6283 6.86083 20.3417 6.29595 19.958 5.79889C19.5248 5.23763 18.9245 4.79844 17.7241 3.92007L17.7241 3.92006L15.7241 2.45664C14.0271 1.21493 13.1786 0.594077 12.25 0.35432C11.4301 0.142632 10.5699 0.142632 9.75002 0.35432C8.82143 0.594077 7.97293 1.21493 6.27592 2.45664L4.27592 3.92006C3.07547 4.79844 2.47524 5.23763 2.042 5.79889C1.65832 6.29595 1.3717 6.86083 1.19712 7.46399C1 8.14507 1 8.88881 1 10.3763V15.8421C1 16.9225 1 17.4627 1.20322 17.8784C1.39866 18.2782 1.72183 18.6013 2.12161 18.7968C2.5373 19 3.0775 19 4.15789 19H5.24262C5.31056 19 5.34453 19 5.37325 18.9992C6.43276 18.9687 7.28451 18.117 7.31496 17.0575C7.31579 17.0287 7.31579 16.9948 7.31579 16.9268V14.3915C7.31579 12.3568 8.96527 10.7073 11 10.7073C13.0347 10.7073 14.6842 12.3568 14.6842 14.3915V16.9268C14.6842 16.9948 14.6842 17.0287 14.685 17.0575C14.7155 18.117 15.5672 18.9687 16.6268 18.9992C16.6555 19 16.6894 19 16.7574 19H17.8421C18.9225 19 19.4627 19 19.8784 18.7968C20.2782 18.6013 20.6013 18.2782 20.7968 17.8784C21 17.4627 21 16.9225 21 15.8421Z" fill="#8E8E93" stroke="#8E8E93" stroke-width="0.25"/>
</svg>
