<svg width="30" height="30" viewBox="0 0 30 30" fill="none" xmlns="http://www.w3.org/2000/svg">
<path opacity="0.3" d="M6.59999 9H12.6C13.62 9 14.4 9.78 14.4 10.8C14.4 11.82 13.62 12.6 12.6 12.6H6.59999C5.57999 12.6 4.79999 11.82 4.79999 10.8C4.79999 9.78 5.57999 9 6.59999 9ZM17.4 18.6H23.4C24.42 18.6 25.2 19.38 25.2 20.4C25.2 21.42 24.42 22.2 23.4 22.2H17.4C16.38 22.2 15.6 21.42 15.6 20.4C15.6 19.38 16.38 18.6 17.4 18.6Z" fill="white"/>
<path d="M21.6 13.8C19.62 13.8 18 12.18 18 10.2C18 8.21998 19.62 6.59998 21.6 6.59998C23.58 6.59998 25.2 8.21998 25.2 10.2C25.2 12.18 23.58 13.8 21.6 13.8ZM8.39999 23.4C6.41999 23.4 4.79999 21.78 4.79999 19.8C4.79999 17.82 6.41999 16.2 8.39999 16.2C10.38 16.2 12 17.82 12 19.8C12 21.78 10.38 23.4 8.39999 23.4Z" fill="white"/>
</svg>
