<svg width="22" height="22" viewBox="0 0 22 22" fill="none" xmlns="http://www.w3.org/2000/svg">
<path fill-rule="evenodd" clip-rule="evenodd" d="M22 11C22 17.0751 17.0751 22 11 22C4.92487 22 0 17.0751 0 11C0 4.92487 4.92487 0 11 0C17.0751 0 22 4.92487 22 11ZM16.2263 11.4833C15.7684 11.7834 15.1598 11.4533 15.1598 10.9064C15.1598 10.7887 15.1874 10.6728 15.2395 10.5701C15.2917 10.4675 15.3691 10.3782 15.4676 10.3127C15.8482 10.0618 16.0998 9.63005 16.0998 9.13976C16.0998 8.36467 15.4707 7.73556 14.6957 7.73556C14.6776 7.73556 14.6602 7.73556 14.6421 7.73627L14.7304 7.57911L14.7714 7.50649C14.8266 7.39838 14.8566 7.27599 14.8566 7.14645C14.8566 6.77951 14.6111 6.46924 14.2749 6.37208C14.3932 6.35399 14.514 6.34375 14.6364 6.34137C16.1456 6.31065 17.4266 7.5072 17.4921 9.01498C17.5371 10.0475 17.0228 10.9623 16.2263 11.4833ZM6.99274 10.5778L5.59712 8.15989V14.4425C5.59712 14.6351 5.67546 14.8096 5.80167 14.9358C5.92787 15.0623 6.1017 15.1404 6.29505 15.1404C6.68009 15.1404 6.99274 14.828 6.99274 14.4427V10.5778ZM14.743 14.4425V8.1687L13.3474 10.5866V14.4427C13.3474 14.8277 13.6598 15.1404 14.0451 15.1404C14.2377 15.1404 14.4123 15.062 14.5385 14.9358C14.6649 14.8094 14.743 14.6351 14.743 14.4425ZM6.89988 6.79308C6.77534 6.5771 6.54508 6.44423 6.29577 6.44423C5.75881 6.44423 5.42306 7.02572 5.69166 7.49077L9.56538 14.2005C9.56748 14.204 9.56987 14.2073 9.57228 14.2107C9.57533 14.215 9.57844 14.2193 9.5811 14.2241C9.59229 14.2405 9.60324 14.2565 9.61515 14.2722C9.62539 14.2855 9.63586 14.2982 9.64682 14.3108C9.66563 14.3322 9.68539 14.3534 9.70754 14.3732C9.71428 14.3795 9.72165 14.3855 9.7291 14.3916L9.74302 14.4032C9.76826 14.422 9.79517 14.4394 9.82279 14.456C9.85041 14.4717 9.87803 14.4851 9.90637 14.497C9.9347 14.5079 9.96399 14.5182 9.99233 14.526C10.1107 14.5577 10.2338 14.5568 10.3483 14.526C10.3767 14.5182 10.4052 14.5087 10.4336 14.4977L10.4352 14.497C10.4621 14.486 10.489 14.4734 10.515 14.4584L10.517 14.458L10.519 14.456C10.5322 14.4487 10.545 14.4405 10.5575 14.4324L10.56 14.4308C10.5862 14.4127 10.6107 14.3936 10.6343 14.3732C10.6548 14.3544 10.6745 14.3339 10.6926 14.3124C10.7069 14.2965 10.7195 14.2808 10.7322 14.2634C10.741 14.2515 10.7488 14.2405 10.7567 14.2279C10.7595 14.2233 10.7627 14.2192 10.7658 14.2151L10.7697 14.2098L10.7741 14.2034L10.9769 13.8526L6.89988 6.79308ZM14.6492 7.4903C14.7116 7.3829 14.7423 7.26218 14.7423 7.14145C14.7423 7.02144 14.7116 6.90071 14.6492 6.7926C14.4749 6.49114 14.1315 6.38518 13.8387 6.47448C13.832 6.47686 13.8253 6.479 13.8185 6.48114L13.8041 6.48584L13.7984 6.48781C13.6555 6.54162 13.5277 6.6433 13.4417 6.7926L10.4121 12.0403L11.2172 13.4374L14.6492 7.4903Z" fill="white"/>
</svg>
