<svg width="20" height="21" viewBox="0 0 20 21" fill="none" xmlns="http://www.w3.org/2000/svg">
<path d="M18.9995 6.43712L13.0276 12.4097L10.3106 9.69233C10.082 9.46366 9.71086 9.46355 9.48211 9.69233L0.172068 19.0037C-0.195585 19.3714 0.0647252 20.0039 0.586323 20.0039H19.4138C19.7373 20.0039 19.9996 19.7416 19.9996 19.418V6.85142C19.9996 6.33154 19.3683 6.06826 18.9995 6.43712ZM18.8279 18.8321H2.00069L9.89637 10.9353L12.6134 13.6527C12.842 13.8814 13.2132 13.8815 13.4419 13.6527L18.8279 8.26602V18.8321Z" fill="#0F50A4"/>
<path d="M0.172577 15.8439C0.401325 16.0727 0.772299 16.0727 1.00109 15.8439L6.20749 10.6368C8.07365 10.3359 9.61981 9.06684 10.3128 7.36291L12.6138 9.66422C12.8426 9.89305 13.2135 9.89309 13.4423 9.66422L18.8284 4.27743V4.78239C18.8284 5.10598 19.0907 5.36832 19.4143 5.36832C19.7378 5.36832 20.0001 5.10598 20.0001 4.78239C20.0001 2.73076 20.0022 2.84795 19.9955 2.79217C19.9595 2.49654 19.7084 2.27709 19.4143 2.27709H17.4953C17.1717 2.27709 16.9094 2.53943 16.9094 2.86302C16.9094 3.18662 17.1717 3.44896 17.4953 3.44896H17.9997L13.028 8.42126L10.6591 6.0521C10.6891 5.82312 10.7048 5.58968 10.7048 5.35265C10.7048 2.40119 8.30396 0 5.35289 0C2.40182 0 0.000976562 2.40119 0.000976562 5.35265C0.000976562 8.02885 1.97495 10.2526 4.54313 10.6441L0.172577 15.0153C-0.0562105 15.2441 -0.0562105 15.6151 0.172577 15.8439ZM1.17269 5.35265C1.17269 3.04736 3.04791 1.17187 5.35289 1.17187C7.65787 1.17187 9.53309 3.04736 9.53309 5.35265C9.53309 7.65795 7.65787 9.53344 5.35289 9.53344C3.04791 9.53344 1.17269 7.65795 1.17269 5.35265Z" fill="#0F50A4"/>
<path d="M5.93865 8.33288V8.24503C6.60361 8.11444 7.10693 7.52722 7.10693 6.82449V6.21149C7.10693 5.41314 6.45752 4.76365 5.65928 4.76365H5.04636C4.89421 4.76365 4.77038 4.63982 4.77038 4.48764V3.87459C4.77038 3.72241 4.89417 3.59858 5.04636 3.59858H5.65928C5.81143 3.59858 5.93522 3.72241 5.93522 3.87459C5.93522 4.19818 6.19752 4.46053 6.52107 4.46053C6.84462 4.46053 7.10693 4.19818 7.10693 3.87459C7.10693 3.17183 6.60361 2.58464 5.93865 2.45406V2.36621C5.93865 2.04262 5.67635 1.78027 5.3528 1.78027C5.02925 1.78027 4.76694 2.04262 4.76694 2.36621V2.45406C4.10195 2.58464 3.59863 3.17186 3.59863 3.87463V4.48764C3.59863 5.28599 4.24808 5.93551 5.04632 5.93551H5.65924C5.81139 5.93551 5.93518 6.0593 5.93518 6.21149V6.82449C5.93518 6.97668 5.81139 7.10051 5.65924 7.10051H5.04632C4.89417 7.10051 4.77034 6.97668 4.77034 6.82449C4.77034 6.5009 4.50804 6.23856 4.18449 6.23856C3.86094 6.23856 3.59863 6.5009 3.59863 6.82449C3.59863 7.52726 4.10195 8.11444 4.76694 8.24507V8.33292C4.76694 8.65651 5.02925 8.91885 5.3528 8.91885C5.67635 8.91885 5.93865 8.65651 5.93865 8.33288Z" fill="#0F50A4"/>
</svg>
