<svg width="20" height="20" viewBox="0 0 20 20" fill="none" xmlns="http://www.w3.org/2000/svg">
<path d="M18.9664 7.50623L18.9661 7.50621L13.1927 6.95926L12.7627 6.91852L12.5991 6.51874L10.3178 0.945584C10.3178 0.945398 10.3177 0.945212 10.3176 0.945026C10.2535 0.789712 10.1222 0.714286 10 0.714286C9.87731 0.714286 9.74665 0.790101 9.68371 0.944108L9.68357 0.944441L7.40189 6.51874L7.23825 6.91853L6.80819 6.95926L1.03499 7.50611C1.03486 7.50612 1.03472 7.50613 1.03459 7.50615C0.912616 7.51806 0.785379 7.60766 0.734065 7.7701C0.68285 7.93547 0.734554 8.10823 0.844599 8.20898C0.844616 8.209 0.844633 8.20901 0.844649 8.20903L5.20883 12.2023L5.51196 12.4797L5.4246 12.8811L4.13796 18.7945C4.13794 18.7946 4.13791 18.7948 4.13788 18.7949C4.10052 18.9682 4.16858 19.1319 4.28336 19.2185L4.28478 19.2195C4.34532 19.2654 4.41182 19.2857 4.47655 19.2857C4.53189 19.2857 4.58914 19.2706 4.64329 19.2368L4.64349 19.2367L9.6219 16.1304L10 15.8945L10.3782 16.1305L15.3555 19.2366C15.4685 19.3071 15.6061 19.302 15.7161 19.2189L15.7167 19.2185C15.8314 19.1319 15.8995 18.9682 15.8621 18.7949C15.8621 18.7948 15.8621 18.7946 15.8621 18.7945L14.5754 12.8811L14.4881 12.4797L14.7912 12.2023L19.1553 8.20914L18.9664 7.50623ZM18.9664 7.50623C19.0879 7.51771 19.215 7.60698 19.2656 7.76893L18.9664 7.50623ZM19.2657 7.76937C19.3173 7.93584 19.2655 8.10803 19.1554 8.20898L19.2657 7.76937Z" stroke="#0F50A4" stroke-width="1.42857"/>
</svg>
