<svg width="11" height="11" viewBox="0 0 11 11" fill="none" xmlns="http://www.w3.org/2000/svg">
<path fill-rule="evenodd" clip-rule="evenodd" d="M1.49376 2.3934C3.45438 0.432784 6.60422 0.432784 8.56483 2.3934C10.5254 4.35401 10.5254 7.50385 8.56483 9.46447C6.60422 11.4251 3.45438 11.4251 1.49376 9.46447C-0.466851 7.50385 -0.46685 4.35401 1.49376 2.3934ZM6.31495 4.19535C6.57208 4.19535 6.76492 4.38819 6.76492 4.64532L6.76492 7.21662C6.76492 7.2809 6.76492 7.34519 6.73278 7.37733C6.73278 7.44161 6.6685 7.50589 6.63636 7.53803C6.60422 7.57017 6.53993 7.63446 6.47565 7.63446C6.44351 7.6666 6.37923 7.6666 6.31495 7.6666L3.74365 7.6666C3.48652 7.6666 3.29367 7.47375 3.29367 7.21662C3.29367 6.95949 3.48652 6.76664 3.74365 6.76664L5.22214 6.76664L3.42224 4.96673C3.22939 4.77389 3.22939 4.51676 3.42224 4.32391C3.61508 4.13106 3.87221 4.13106 4.06506 4.32391L5.86497 6.12382L5.86497 4.64532C5.86497 4.38819 6.05782 4.19535 6.31495 4.19535Z" fill="#06A200"/>
</svg>
