<svg width="38" height="38" viewBox="0 0 38 38" fill="none" xmlns="http://www.w3.org/2000/svg">
<rect opacity="0.2" width="38" height="38" rx="19" fill="white"/>
<path d="M19 35C27.8366 35 35 27.8366 35 19C35 10.1634 27.8366 3 19 3C10.1634 3 3 10.1634 3 19C3 27.8366 10.1634 35 19 35Z" fill="white"/>
<path fill-rule="evenodd" clip-rule="evenodd" d="M25.4505 24.9092C25.2602 24.9092 25.1059 25.0763 25.1059 25.2826V26.2533H24.0719C23.8815 26.2533 23.7272 26.4205 23.7272 26.6267C23.7272 26.8329 23.8815 27.0001 24.0719 27.0001H25.1059V28.1202C25.1059 28.3264 25.2602 28.4936 25.4505 28.4936C25.6409 28.4936 25.7952 28.3264 25.7952 28.1202V27.0001H26.967C27.1573 27.0001 27.3116 26.8329 27.3116 26.6267C27.3116 26.4205 27.1573 26.2533 26.967 26.2533H25.7952V25.2826C25.7952 25.0763 25.6409 24.9092 25.4505 24.9092Z" fill="#0F50A4"/>
<path d="M24.4897 9.88821C22.9648 9.88821 21.6381 10.7574 20.9747 12.0231H15.3058C15.7023 11.6342 15.9501 11.0967 15.9501 10.4982C15.9501 9.32017 14.9932 8.36328 13.8152 8.36328C12.6372 8.36328 11.6803 9.32017 11.6803 10.4982C11.6803 11.1196 11.9472 11.68 12.3741 12.0689C10.773 12.3205 9.54541 13.7081 9.54541 15.3779V16.2929C9.54541 17.1354 10.2278 17.8178 11.0703 17.8178H11.3753V25.8999C11.3753 26.6548 11.9929 27.2724 12.7478 27.2724C13.1824 27.2724 13.5636 27.0665 13.8152 26.7501C14.0668 27.0665 14.448 27.2724 14.8827 27.2724H22.9266C22.7703 27.0932 22.6445 26.8873 22.5607 26.6624H21.7448V20.6885L22.9648 19.7354V24.5961C23.1363 24.4093 23.3422 24.2568 23.5747 24.1463V18.8586L24.6231 17.8102C24.6803 17.8102 24.7375 17.8064 24.7947 17.8026V23.99C25.012 24.0281 25.2178 24.1043 25.4046 24.2111V17.7073C27.1507 17.2917 28.4545 15.7249 28.4545 13.853C28.4545 11.6686 26.6741 9.88821 24.4897 9.88821ZM12.2903 10.4982C12.2903 9.65566 12.9727 8.97325 13.8152 8.97325C14.6577 8.97325 15.3401 9.65566 15.3401 10.4982C15.3401 11.3407 14.6577 12.0231 13.8152 12.0231C12.9727 12.0231 12.2903 11.3407 12.2903 10.4982ZM13.5102 25.8999C13.5102 26.3193 13.1671 26.6624 12.7478 26.6624C12.3284 26.6624 11.9853 26.3193 11.9853 25.8999V19.3428H13.5102V25.8999ZM13.3577 15.6829H11.9853V15.073H14.4252V16.7504C14.4252 16.1633 13.9448 15.6829 13.3577 15.6829ZM15.6451 25.8999C15.6451 26.3193 15.302 26.6624 14.8827 26.6624C14.4633 26.6624 14.1202 26.3193 14.1202 25.8999V19.3428H15.0351V14.463H11.3753V15.6829H10.7654V16.2929H13.3577C13.6093 16.2929 13.8152 16.4988 13.8152 16.7504C13.8152 17.002 13.6093 17.2079 13.3577 17.2079H11.0703C10.5671 17.2079 10.1554 16.7961 10.1554 16.2929V15.3779C10.1554 13.8645 11.3868 12.6331 12.9002 12.6331H20.7193C20.624 12.9266 20.563 13.2316 20.5401 13.548H15.6451V25.8999ZM22.4768 17.265L20.7041 19.0378H17.9592L16.2551 20.7419V14.158H20.5401C20.6431 15.4809 21.3941 16.6208 22.4768 17.265ZM17.475 26.6624H16.0225C16.1674 26.4451 16.2551 26.182 16.2551 25.8999V23.4334L17.475 22.2134V26.6624ZM19.3049 26.6624H18.085V21.6035L18.8208 20.8677H19.3049V26.6624ZM21.1349 26.6624H19.9149V20.8677H21.1349V26.6624ZM21.314 20.2577H18.5692L16.2551 22.5718V21.6035L18.2108 19.6477H20.9557L23.0563 17.5472C23.2964 17.6425 23.5519 17.7111 23.8149 17.7568L21.314 20.2577ZM24.4897 17.2079C22.6407 17.2079 21.1349 15.702 21.1349 13.853C21.1349 12.004 22.6407 10.4982 24.4897 10.4982C26.3387 10.4982 27.8445 12.004 27.8445 13.853C27.8445 15.702 26.3387 17.2079 24.4897 17.2079Z" fill="#0F50A4"/>
<path d="M24.4744 13.5827C24.1313 13.5827 23.853 13.3426 23.853 13.0452C23.853 12.7478 24.1313 12.5077 24.4744 12.5077C24.8175 12.5077 25.0958 12.7478 25.0958 13.0452C25.0958 13.2015 25.2216 13.3273 25.3779 13.3273C25.5342 13.3273 25.66 13.2015 25.66 13.0452C25.66 12.5305 25.275 12.0959 24.7565 11.9778V11.8329C24.7565 11.6766 24.6307 11.5508 24.4744 11.5508C24.3181 11.5508 24.1923 11.6766 24.1923 11.8329V11.9778C23.6738 12.0959 23.2888 12.5305 23.2888 13.0452C23.2888 13.6514 23.8187 14.147 24.4706 14.147C24.8137 14.147 25.092 14.3871 25.092 14.6845C25.092 14.9819 24.8137 15.222 24.4706 15.222C24.1275 15.222 23.8492 14.9819 23.8492 14.6845C23.8492 14.5282 23.7234 14.4024 23.5671 14.4024C23.4108 14.4024 23.285 14.5282 23.285 14.6845C23.285 15.1992 23.67 15.6338 24.1885 15.752V15.874C24.1885 16.0303 24.3143 16.1561 24.4706 16.1561C24.6269 16.1561 24.7527 16.0303 24.7527 15.874V15.752C25.2712 15.6338 25.6562 15.1992 25.6562 14.6845C25.66 14.0745 25.1263 13.5827 24.4744 13.5827Z" fill="#0F50A4"/>
<circle cx="25.5" cy="26.6821" r="2.70455" stroke="#0F50A4" stroke-width="0.5"/>
</svg>
