<svg width="49" height="49" viewBox="0 0 49 49" fill="none" xmlns="http://www.w3.org/2000/svg">
<rect opacity="0.2" x="6" y="5" width="38" height="38" rx="19" fill="white"/>
<g opacity="0.1">
<path d="M43.4237 38.8224L43.1842 38.6393C46.3708 34.4553 48.0557 29.457 48.0557 24.1826C48.0557 16.0117 43.9449 8.49459 37.0589 4.0739L37.2223 3.82031C44.1957 8.29454 48.3572 15.9075 48.3572 24.1826C48.3572 29.5218 46.6498 34.5849 43.4237 38.8224Z" fill="white"/>
<path d="M24.18 48.36C10.8475 48.36 0 37.5125 0 24.18C0 10.8475 10.8475 0 24.18 0V0.301473C11.0137 0.301473 0.304293 11.0137 0.304293 24.1772C0.304293 37.3435 11.0165 48.0529 24.18 48.0529C28.1583 48.0529 32.0972 47.0555 35.5684 45.1677L35.7121 45.4326C32.1959 47.3513 28.2062 48.36 24.18 48.36Z" fill="white"/>
<path d="M12.7381 42.7923C6.22394 38.7801 2.33575 31.8208 2.33575 24.1797H2.94152C2.94152 31.6095 6.72264 38.3744 13.0564 42.2767L12.7381 42.7923Z" fill="white"/>
<path d="M24.18 46.0266C21.7851 46.0266 19.4325 45.6406 17.1841 44.8826L17.3785 44.3107C19.5649 45.0489 21.8527 45.4236 24.1828 45.4236C35.1233 45.4236 44.2098 37.2274 45.3114 26.3574L45.9144 26.4194C44.7761 37.5937 35.4332 46.0266 24.18 46.0266Z" fill="white"/>
<path d="M45.148 20.7872C44.3563 15.8593 41.8261 11.3428 38.0196 8.07167C34.1737 4.7639 29.2571 2.94377 24.18 2.94377C20.0805 2.94377 16.1021 4.11305 12.6732 6.32762C8.67794 8.90847 5.62938 12.7967 4.08819 17.2765L3.51624 17.0793C5.09968 12.4726 8.23559 8.47457 12.3435 5.82046C15.8711 3.5439 19.9621 2.34082 24.1771 2.34082C29.4008 2.34082 34.4555 4.21447 38.4113 7.61522C42.3248 10.9793 44.9282 15.6255 45.7425 20.6942L45.148 20.7872Z" fill="white"/>
<path d="M24.18 39.9582C15.4795 39.9582 8.40186 32.8806 8.40186 24.1801C8.40186 20.6582 9.53732 17.3279 11.6815 14.5498L12.1604 14.9189C10.098 17.5927 9.00762 20.7934 9.00762 24.1801C9.00762 32.5453 15.8148 39.3525 24.18 39.3525C25.6648 39.3525 27.1328 39.1383 28.5387 38.7157L28.7134 39.2961C27.2483 39.7385 25.7212 39.9582 24.18 39.9582Z" fill="white"/>
<path d="M34.8359 35.8168L34.4274 35.3717C37.5576 32.5034 39.3524 28.4265 39.3524 24.1833C39.3524 21.1967 38.4846 18.3059 36.8448 15.8237L37.3491 15.4912C39.0566 18.0721 39.9582 21.0784 39.9582 24.1861C39.9554 28.5955 38.0902 32.8359 34.8359 35.8168Z" fill="white"/>
<path d="M33.6187 12.3009C30.9111 10.1455 27.6456 9.00724 24.18 9.00724C21.1399 9.00724 18.2069 9.90322 15.6964 11.5994L15.3583 11.0979C17.9674 9.33408 21.0187 8.4043 24.18 8.4043C27.7864 8.4043 31.1816 9.58766 33.9963 11.8304L33.6187 12.3009Z" fill="white"/>
<path d="M24.18 37.2479C22.0556 37.2479 19.9453 36.7266 18.0801 35.7405L18.221 35.4728C20.0439 36.4364 22.1035 36.9464 24.1772 36.9464C29.9052 36.9464 34.9655 33.0948 36.4842 27.5781L36.7744 27.6598C35.2247 33.3062 30.0433 37.2479 24.18 37.2479Z" fill="white"/>
<path d="M14.9413 33.4244C12.4732 30.9562 11.1123 27.6738 11.1123 24.1829C11.1123 16.9785 16.9728 11.1152 24.18 11.1152C31.3844 11.1152 37.2477 16.9785 37.2477 24.1829H36.9462C36.9462 17.1447 31.221 11.4195 24.1828 11.4195C17.1446 11.4195 11.4194 17.1447 11.4194 24.1829C11.4194 27.5921 12.7465 30.7985 15.1611 33.2103L14.9413 33.4244Z" fill="white"/>
<path d="M24.18 32.3089C19.6973 32.3089 16.0515 28.663 16.0515 24.1803C16.0515 19.6976 19.6973 16.0518 24.18 16.0518V16.6575C20.0326 16.6575 16.6572 20.0329 16.6572 24.1803C16.6572 28.3277 20.0326 31.7031 24.18 31.7031C28.3274 31.7031 31.7028 28.3277 31.7028 24.1803H32.3086C32.3058 28.663 28.6599 32.3089 24.18 32.3089Z" fill="white"/>
<path d="M24.18 28.2203C21.9513 28.2203 20.1396 26.4086 20.1396 24.18H20.4411C20.4411 26.2396 22.1175 27.916 24.1772 27.916C26.2368 27.916 27.9132 26.2396 27.9132 24.18C27.9132 22.1204 26.2368 20.4439 24.1772 20.4439C23.0332 20.4439 21.9682 20.9567 21.2526 21.8527L21.0159 21.6639C21.7879 20.6947 22.9403 20.1396 24.1772 20.1396C26.4058 20.1396 28.2175 21.9513 28.2175 24.18C28.2175 26.4086 26.4058 28.2203 24.18 28.2203Z" fill="white"/>
</g>
<path d="M25 40C33.8366 40 41 32.8366 41 24C41 15.1634 33.8366 8 25 8C16.1634 8 9 15.1634 9 24C9 32.8366 16.1634 40 25 40Z" fill="white"/>
<path fill-rule="evenodd" clip-rule="evenodd" d="M31.4505 29.9092C31.2602 29.9092 31.1059 30.0763 31.1059 30.2826V31.2533H30.0719C29.8815 31.2533 29.7272 31.4205 29.7272 31.6267C29.7272 31.8329 29.8815 32.0001 30.0719 32.0001H31.1059V33.1202C31.1059 33.3264 31.2602 33.4936 31.4505 33.4936C31.6409 33.4936 31.7952 33.3264 31.7952 33.1202V32.0001H32.967C33.1573 32.0001 33.3116 31.8329 33.3116 31.6267C33.3116 31.4205 33.1573 31.2533 32.967 31.2533H31.7952V30.2826C31.7952 30.0763 31.6409 29.9092 31.4505 29.9092Z" fill="#0F50A4"/>
<path d="M30.4897 14.8882C28.9648 14.8882 27.6381 15.7574 26.9747 17.0231H21.3058C21.7023 16.6342 21.9501 16.0967 21.9501 15.4982C21.9501 14.3202 20.9932 13.3633 19.8152 13.3633C18.6372 13.3633 17.6803 14.3202 17.6803 15.4982C17.6803 16.1196 17.9472 16.68 18.3741 17.0689C16.773 17.3205 15.5454 18.7081 15.5454 20.3779V21.2929C15.5454 22.1354 16.2278 22.8178 17.0703 22.8178H17.3753V30.8999C17.3753 31.6548 17.9929 32.2724 18.7478 32.2724C19.1824 32.2724 19.5636 32.0665 19.8152 31.7501C20.0668 32.0665 20.448 32.2724 20.8827 32.2724H28.9266C28.7703 32.0932 28.6445 31.8873 28.5607 31.6624H27.7448V25.6885L28.9648 24.7354V29.5961C29.1363 29.4093 29.3422 29.2568 29.5747 29.1463V23.8586L30.6231 22.8102C30.6803 22.8102 30.7375 22.8064 30.7947 22.8026V28.99C31.012 29.0281 31.2178 29.1043 31.4046 29.2111V22.7073C33.1507 22.2917 34.4545 20.7249 34.4545 18.853C34.4545 16.6686 32.6741 14.8882 30.4897 14.8882ZM18.2903 15.4982C18.2903 14.6557 18.9727 13.9733 19.8152 13.9733C20.6577 13.9733 21.3401 14.6557 21.3401 15.4982C21.3401 16.3407 20.6577 17.0231 19.8152 17.0231C18.9727 17.0231 18.2903 16.3407 18.2903 15.4982ZM19.5102 30.8999C19.5102 31.3193 19.1671 31.6624 18.7478 31.6624C18.3284 31.6624 17.9853 31.3193 17.9853 30.8999V24.3428H19.5102V30.8999ZM19.3577 20.6829H17.9853V20.073H20.4252V21.7504C20.4252 21.1633 19.9448 20.6829 19.3577 20.6829ZM21.6451 30.8999C21.6451 31.3193 21.302 31.6624 20.8827 31.6624C20.4633 31.6624 20.1202 31.3193 20.1202 30.8999V24.3428H21.0351V19.463H17.3753V20.6829H16.7654V21.2929H19.3577C19.6093 21.2929 19.8152 21.4988 19.8152 21.7504C19.8152 22.002 19.6093 22.2079 19.3577 22.2079H17.0703C16.5671 22.2079 16.1554 21.7961 16.1554 21.2929V20.3779C16.1554 18.8645 17.3868 17.6331 18.9002 17.6331H26.7193C26.624 17.9266 26.563 18.2316 26.5401 18.548H21.6451V30.8999ZM28.4768 22.265L26.7041 24.0378H23.9592L22.2551 25.7419V19.158H26.5401C26.6431 20.4809 27.3941 21.6208 28.4768 22.265ZM23.475 31.6624H22.0225C22.1674 31.4451 22.2551 31.182 22.2551 30.8999V28.4334L23.475 27.2134V31.6624ZM25.3049 31.6624H24.085V26.6035L24.8208 25.8677H25.3049V31.6624ZM27.1349 31.6624H25.9149V25.8677H27.1349V31.6624ZM27.314 25.2577H24.5692L22.2551 27.5718V26.6035L24.2108 24.6477H26.9557L29.0563 22.5472C29.2964 22.6425 29.5519 22.7111 29.8149 22.7568L27.314 25.2577ZM30.4897 22.2079C28.6407 22.2079 27.1349 20.702 27.1349 18.853C27.1349 17.004 28.6407 15.4982 30.4897 15.4982C32.3387 15.4982 33.8445 17.004 33.8445 18.853C33.8445 20.702 32.3387 22.2079 30.4897 22.2079Z" fill="#0F50A4"/>
<path d="M30.4744 18.5827C30.1313 18.5827 29.853 18.3426 29.853 18.0452C29.853 17.7478 30.1313 17.5077 30.4744 17.5077C30.8175 17.5077 31.0958 17.7478 31.0958 18.0452C31.0958 18.2015 31.2216 18.3273 31.3779 18.3273C31.5342 18.3273 31.66 18.2015 31.66 18.0452C31.66 17.5305 31.275 17.0959 30.7565 16.9778V16.8329C30.7565 16.6766 30.6307 16.5508 30.4744 16.5508C30.3181 16.5508 30.1923 16.6766 30.1923 16.8329V16.9778C29.6738 17.0959 29.2888 17.5305 29.2888 18.0452C29.2888 18.6514 29.8187 19.147 30.4706 19.147C30.8137 19.147 31.092 19.3871 31.092 19.6845C31.092 19.9819 30.8137 20.222 30.4706 20.222C30.1275 20.222 29.8492 19.9819 29.8492 19.6845C29.8492 19.5282 29.7234 19.4024 29.5671 19.4024C29.4108 19.4024 29.285 19.5282 29.285 19.6845C29.285 20.1992 29.67 20.6338 30.1885 20.752V20.874C30.1885 21.0303 30.3143 21.1561 30.4706 21.1561C30.6269 21.1561 30.7527 21.0303 30.7527 20.874V20.752C31.2712 20.6338 31.6562 20.1992 31.6562 19.6845C31.66 19.0745 31.1263 18.5827 30.4744 18.5827Z" fill="#0F50A4"/>
<circle cx="31.5" cy="31.6821" r="2.70455" stroke="#0F50A4" stroke-width="0.5"/>
</svg>
