<svg width="20" height="22" viewBox="0 0 20 22" fill="none" xmlns="http://www.w3.org/2000/svg">
<path d="M16.1827 0.771484C17.6267 0.771484 18.9613 2.02762 18.9613 3.62622V8.65078C18.9613 8.99464 18.74 9.22201 18.404 9.22201C18.0693 9.22201 17.848 8.99464 17.848 8.64938V3.62482C17.848 2.71254 17.0693 1.91394 16.1827 1.91394H2.848C1.95867 1.91394 1.18267 2.71394 1.18267 3.62622V17.3245C1.18267 18.2367 1.96134 19.0367 2.848 19.0367H7.404C7.74 19.0367 7.96134 19.2641 7.96134 19.608C7.96134 19.9518 7.74 20.1792 7.404 20.1792H2.848C1.29067 20.1792 0.0693359 18.9231 0.0693359 17.3245V3.62622C0.0693359 2.02622 1.29067 0.771484 2.848 0.771484H16.1827ZM3.96134 6.48096C3.62667 6.48096 3.404 6.25359 3.404 5.90973C3.404 5.56447 3.62667 5.3371 3.96134 5.3371H15.072C15.2933 5.3371 15.6293 5.56447 15.6293 5.90973C15.6293 6.25359 15.2933 6.48096 15.072 6.48096H3.96134ZM3.96134 9.90412C3.62667 9.90412 3.404 9.67675 3.404 9.33289C3.404 8.98763 3.62667 8.76026 3.96134 8.76026H9.51867C9.74 8.76026 10.0747 8.98763 10.0747 9.33289C10.0747 9.67675 9.74 9.90412 9.51867 9.90412H3.96H3.96134Z" fill="#0F50A4"/>
<path d="M7.40484 20.2344H2.84885C1.26218 20.2344 0.0168457 18.9572 0.0168457 17.3249V3.6267C0.0168457 1.99301 1.26085 0.71582 2.84885 0.71582H16.1808C17.7155 0.71582 19.0115 2.04915 19.0115 3.6267V8.65126C19.0115 9.02319 18.7675 9.27722 18.4022 9.27722C18.0395 9.27722 17.7955 9.026 17.7955 8.64986V3.62529C17.7955 2.74249 17.0422 1.96775 16.1808 1.96775H2.84751C1.99018 1.96775 1.23418 2.74249 1.23418 3.6267V17.3249C1.23418 18.2092 1.98751 18.9839 2.84751 18.9839H7.40484C7.76751 18.9839 8.01151 19.2351 8.01151 19.6113C8.01151 19.9846 7.76751 20.2358 7.40484 20.2358V20.2344ZM2.84885 0.828101C1.31951 0.828101 0.120846 2.05757 0.120846 3.6267V17.3249C0.120846 18.8941 1.31818 20.1249 2.84751 20.1249H7.40351C7.70884 20.1249 7.90751 19.9228 7.90751 19.6085C7.90751 19.2941 7.71151 19.092 7.40351 19.092H2.84885C1.93418 19.092 1.13151 18.2667 1.13151 17.3249V3.6267C1.13151 2.68494 1.93418 1.85828 2.84885 1.85828H16.1808C17.0955 1.85828 17.8982 2.68494 17.8982 3.6267V8.65126C17.8982 8.96564 18.0955 9.16635 18.4022 9.16635C18.7088 9.16635 18.9062 8.96565 18.9062 8.64986V3.62529C18.9062 2.1067 17.6568 0.826698 16.1808 0.826698H2.84751L2.84885 0.828101ZM9.51551 9.96073H3.96218C3.59951 9.96073 3.35551 9.71091 3.35551 9.33477C3.35551 8.96143 3.59951 8.7074 3.96218 8.7074H9.51951C9.76751 8.7074 10.1248 8.95161 10.1248 9.33477C10.1248 9.71371 9.75951 9.96073 9.51551 9.96073ZM3.96218 8.82108C3.65684 8.82108 3.45818 9.02178 3.45818 9.33757C3.45818 9.65196 3.65418 9.85266 3.96218 9.85266H9.51951C9.72084 9.85266 10.0235 9.63793 10.0235 9.33757C10.0235 9.0288 9.72084 8.82108 9.51951 8.82108H3.96084H3.96218ZM15.0728 6.53477H3.96218C3.59951 6.53477 3.35551 6.28354 3.35551 5.9074C3.35551 5.53126 3.59951 5.28144 3.96218 5.28144H15.0728C15.3222 5.28144 15.6795 5.52565 15.6795 5.9074C15.6795 6.28635 15.3142 6.53477 15.0728 6.53477ZM3.96218 5.39512C3.65684 5.39512 3.45818 5.59582 3.45818 5.91161C3.45818 6.226 3.65418 6.4267 3.96218 6.4267H15.0728C15.2755 6.4267 15.5768 6.21196 15.5768 5.91161C15.5768 5.60284 15.2755 5.39512 15.0728 5.39512H3.96218Z" fill="#0F50A4"/>
<path d="M16.161 13.7306H11.2428L12.705 12.2204C12.7396 12.1867 12.7671 12.1459 12.786 12.1004C12.8048 12.055 12.8146 12.0059 12.8146 11.9563C12.8146 11.9067 12.8048 11.8577 12.786 11.8122C12.7671 11.7668 12.7396 11.7259 12.705 11.6922C12.6717 11.6564 12.6319 11.628 12.5879 11.6085C12.544 11.5891 12.4968 11.5791 12.4492 11.5791C12.4016 11.5791 12.3544 11.5891 12.3105 11.6085C12.2665 11.628 12.2267 11.6564 12.1934 11.6922L10.1092 13.8248C10.0751 13.8589 10.0478 13.8998 10.0291 13.9453C10.0103 13.9907 10.0004 14.0396 10 14.0891C10 14.1838 10.0364 14.278 10.1092 14.3535L12.1757 16.4866C12.209 16.5224 12.2488 16.5509 12.2928 16.5703C12.3367 16.5897 12.3839 16.5997 12.4315 16.5997C12.4792 16.5997 12.5263 16.5897 12.5703 16.5703C12.6142 16.5509 12.654 16.5224 12.6874 16.4866C12.722 16.4529 12.7496 16.412 12.7685 16.3665C12.7874 16.321 12.7972 16.2719 12.7972 16.2222C12.7972 16.1726 12.7874 16.1235 12.7685 16.078C12.7496 16.0325 12.722 15.9916 12.6874 15.9579L11.2615 14.4854H16.161C17.5317 14.4854 18.6289 15.6185 18.6289 17.034C18.6289 18.4495 17.5317 19.582 16.161 19.582H12.4128C12.3168 19.5813 12.2243 19.6206 12.1557 19.6913C12.0872 19.7621 12.048 19.8586 12.0467 19.9597C12.0467 20.1671 12.2116 20.3368 12.4128 20.3368H16.1604C17.9342 20.3368 19.36 18.8644 19.36 17.034C19.36 15.203 17.9342 13.7306 16.161 13.7306Z" fill="#ED1E26" stroke="#ED1E26" stroke-width="0.5"/>
</svg>
