<svg width="26" height="27" viewBox="0 0 26 27" fill="none" xmlns="http://www.w3.org/2000/svg">
<path d="M6.52539 26.429H2.08257C1.41799 26.429 0.879883 25.8909 0.879883 25.2263V18.546C0.879883 17.8814 1.41799 17.3433 2.08257 17.3433H6.52309C7.18767 17.3433 7.72578 17.8814 7.72578 18.546V25.2263C7.72578 25.8909 7.18767 26.429 6.52539 26.429Z" fill="#0F50A4"/>
<path d="M15.2819 26.4267H10.8414C10.1768 26.4267 9.63867 25.8886 9.63867 25.224V13.8594C9.63867 13.1948 10.1768 12.6567 10.8414 12.6567H15.2819C15.9465 12.6567 16.4846 13.1948 16.4846 13.8594V25.224C16.4846 25.8886 15.9465 26.4267 15.2819 26.4267ZM24.041 26.4267H19.6005C18.9359 26.4267 18.3978 25.8886 18.3978 25.224V7.2481C18.3978 6.58352 18.9359 6.04541 19.6005 6.04541H24.041C24.7056 6.04541 25.2437 6.58352 25.2437 7.2481V25.224C25.2437 25.8886 24.7056 26.4267 24.041 26.4267Z" fill="#0F50A4"/>
<path d="M8.67326 0.879883H16.1814C16.3723 0.879883 16.5287 1.03626 16.5287 1.22712V8.99975C16.5287 9.3125 16.1492 9.46427 15.9331 9.24121L13.9117 7.14858C13.8566 7.09079 13.7829 7.05411 13.7035 7.04487C13.6242 7.03563 13.5441 7.05442 13.4771 7.09799L3.04385 13.7415C2.71961 13.9485 2.34937 13.5506 2.57933 13.2425L9.97253 3.30595C10.0783 3.16338 10.0599 2.96332 9.92883 2.84374L8.4387 1.48468C8.20644 1.27081 8.35591 0.879883 8.67326 0.879883Z" fill="#0685CF"/>
<path d="M15.2819 12.6567H10.8414C10.1768 12.6567 9.63867 13.1948 9.63867 13.8594V25.224C9.63867 25.8886 10.1768 26.4267 10.8414 26.4267H12.4626C13.871 25.964 15.2207 25.3389 16.4846 24.564V13.8594C16.4846 13.1948 15.9465 12.6567 15.2819 12.6567ZM25.2437 11.9646V7.2481C25.2437 6.58352 24.7056 6.04541 24.041 6.04541H19.6005C18.9359 6.04541 18.3978 6.58352 18.3978 7.2481V23.2142C21.8702 20.4432 24.3561 16.4925 25.2437 11.9646Z" fill="#0F50A4"/>
<path d="M19.8216 6.04541H19.5986C18.934 6.04541 18.3959 6.58352 18.3959 7.2481V9.94782C19.0136 8.70356 19.4917 7.3948 19.8216 6.04541ZM16.3148 13.25C16.1055 12.8959 15.7238 12.6567 15.2822 12.6567H10.8417C10.1771 12.6567 9.63904 13.1948 9.63904 13.8594V18.6633C12.256 17.3847 14.5349 15.522 16.3148 13.25ZM6.52539 17.341H2.08257C1.41799 17.341 0.879883 17.8791 0.879883 18.5437V20.5857C1.00636 20.588 1.13284 20.5949 1.25932 20.5949C3.52902 20.5949 5.70673 20.1971 7.72578 19.4704V18.5437C7.72578 17.8791 7.18767 17.341 6.52539 17.341Z" fill="#0F50A4"/>
<path d="M2.99414 12.6814C8.41199 10.7083 12.68 6.35062 14.545 0.879883H8.67184C8.3545 0.879883 8.20502 1.26851 8.43728 1.48238L9.92742 2.84144C10.0585 2.96102 10.0792 3.16108 9.97111 3.30366L2.99414 12.6814Z" fill="#0685CF"/>
</svg>
