<svg width="11" height="12" viewBox="0 0 11 12" fill="none" xmlns="http://www.w3.org/2000/svg">
<path fill-rule="evenodd" clip-rule="evenodd" d="M2.3934 9.53553C0.432783 7.57492 0.432783 4.42508 2.3934 2.46447C4.35401 0.503852 7.50385 0.503852 9.46447 2.46447C11.4251 4.42508 11.4251 7.57492 9.46447 9.53553C7.50385 11.4961 4.35401 11.4961 2.3934 9.53553ZM4.19535 4.71435C4.19535 4.45722 4.38819 4.26437 4.64532 4.26437L7.21662 4.26437C7.2809 4.26437 7.34519 4.26437 7.37733 4.29652C7.44161 4.29652 7.50589 4.3608 7.53803 4.39294C7.57017 4.42508 7.63446 4.48936 7.63446 4.55365C7.6666 4.58579 7.6666 4.65007 7.6666 4.71435L7.6666 7.28565C7.6666 7.54278 7.47375 7.73563 7.21662 7.73563C6.95949 7.73563 6.76664 7.54278 6.76664 7.28565L6.76664 5.80715L4.96674 7.60706C4.77389 7.79991 4.51676 7.79991 4.32391 7.60706C4.13106 7.41421 4.13106 7.15708 4.32391 6.96424L6.12382 5.16433L4.64532 5.16433C4.38819 5.16433 4.19535 4.97148 4.19535 4.71435Z" fill="#ED1E26"/>
</svg>
