<svg width="22" height="15" viewBox="0 0 22 15" fill="none" xmlns="http://www.w3.org/2000/svg">
<path d="M21.4634 12.6314H19.5686V0.536551C19.5686 0.240711 19.3279 0 19.0321 0H17.8078C17.63 0 17.4859 0.144117 17.4859 0.321921C17.4859 0.499726 17.63 0.643843 17.8078 0.643843H18.9248V12.6314H15.8668V0.643843H16.2941C16.4719 0.643843 16.616 0.499726 16.616 0.321921C16.616 0.144117 16.4719 0 16.2941 0H15.7595C15.4637 0 15.223 0.240711 15.223 0.536551V12.6314H13.1729V4.61231C13.1729 4.31647 12.9322 4.07576 12.6363 4.07576H9.36375C9.06791 4.07576 8.8272 4.31647 8.8272 4.61231V12.6314H6.77707V8.1333C6.77707 7.83746 6.53636 7.59675 6.24052 7.59675H2.96798C2.67214 7.59675 2.43143 7.83746 2.43143 8.1333V9.57296C2.43143 9.75077 2.57555 9.89489 2.75335 9.89489C2.93116 9.89489 3.07527 9.75077 3.07527 9.57296V8.24063H6.13319V12.6314H3.07527V11.07C3.07527 10.8922 2.93116 10.7481 2.75335 10.7481C2.57555 10.7481 2.43143 10.8922 2.43143 11.07V12.6314H0.536551C0.240711 12.6314 0 12.8721 0 13.168V14.1946C0 14.4904 0.240711 14.7311 0.536551 14.7311H21.4634C21.7593 14.7311 22 14.4904 22 14.1946V13.168C22 12.8721 21.7593 12.6314 21.4634 12.6314ZM9.47104 4.71964H12.529V12.6314H9.47104V4.71964ZM21.3561 14.0873H0.643887V13.2753H2.75339H6.45519H9.14916H12.851H15.5449H19.2467H21.3562L21.3561 14.0873Z" fill="#0F50A4"/>
<path fill-rule="evenodd" clip-rule="evenodd" d="M9.4928 4.74655V12.5716H12.5074V4.74655H9.4928ZM9.30038 4.04102C9.01699 4.04102 8.78726 4.27075 8.78726 4.55414V13.2772H13.2129V4.55414C13.2129 4.27075 12.9832 4.04102 12.6998 4.04102H9.30038Z" fill="#ED1E26"/>
<path d="M9.49283 12.5723H12.5074V12.8288H9.49283V12.5723Z" fill="white"/>
<path d="M8.5307 12.6367H13.4695V13.2781H8.5307V12.6367Z" fill="#0F50A4"/>
</svg>
