<svg width="16" height="16" viewBox="0 0 16 16" fill="none" xmlns="http://www.w3.org/2000/svg">
<path fill-rule="evenodd" clip-rule="evenodd" d="M5.76273 8.12705C7.87943 8.12705 9.57617 6.40835 9.57617 4.26427C9.57617 2.12018 7.87943 0.401489 5.76273 0.401489C3.64604 0.401489 1.94929 2.12018 1.94929 4.26427C1.94929 6.40835 3.64604 8.12705 5.76273 8.12705ZM5.76299 10.0209C2.65409 10.0209 -0.000244141 10.5179 -0.000244141 12.5039C-0.000244141 14.489 2.63794 15.004 5.76299 15.004C8.87112 15.004 11.5262 14.5069 11.5262 12.521C11.5262 10.5351 8.88804 10.0209 5.76299 10.0209ZM13.7532 5.84463H14.6776C15.0582 5.84463 15.3684 6.15926 15.3684 6.54514C15.3684 6.93102 15.0582 7.24566 14.6776 7.24566H13.7532V8.15032C13.7532 8.5362 13.4437 8.85083 13.0624 8.85083C12.6818 8.85083 12.3716 8.5362 12.3716 8.15032V7.24566H11.4487C11.0673 7.24566 10.7579 6.93102 10.7579 6.54514C10.7579 6.15926 11.0673 5.84463 11.4487 5.84463H12.3716V4.94076C12.3716 4.55488 12.6818 4.24025 13.0624 4.24025C13.4437 4.24025 13.7532 4.55488 13.7532 4.94076V5.84463Z" fill="#0F50A4"/>
</svg>
