<svg width="16" height="12" viewBox="0 0 16 12" fill="none" xmlns="http://www.w3.org/2000/svg">
<path fill-rule="evenodd" clip-rule="evenodd" d="M5.76298 6.09145C7.87967 6.09145 9.57642 4.85481 9.57642 3.31208C9.57642 1.76936 7.87967 0.532715 5.76298 0.532715C3.64628 0.532715 1.94954 1.76936 1.94954 3.31208C1.94954 4.85481 3.64628 6.09145 5.76298 6.09145ZM5.76323 7.4541C2.65433 7.4541 0 7.81175 0 9.24068C0 10.669 2.63818 11.0396 5.76323 11.0396C8.87136 11.0396 11.5265 10.6819 11.5265 9.25301C11.5265 7.82408 8.88828 7.4541 5.76323 7.4541ZM13.7534 4.44919H14.6779C15.0584 4.44919 15.3687 4.67558 15.3687 4.95323C15.3687 5.23088 15.0584 5.45727 14.6779 5.45727H13.7534V6.1082C13.7534 6.38585 13.4439 6.61224 13.0626 6.61224C12.6821 6.61224 12.3718 6.38585 12.3718 6.1082V5.45727H11.4489C11.0676 5.45727 10.7581 5.23088 10.7581 4.95323C10.7581 4.67558 11.0676 4.44919 11.4489 4.44919H12.3718V3.79884C12.3718 3.52119 12.6821 3.2948 13.0626 3.2948C13.4439 3.2948 13.7534 3.52119 13.7534 3.79884V4.44919Z" fill="#0F50A4"/>
</svg>
