<svg width="38" height="31" viewBox="0 0 38 31" fill="none" xmlns="http://www.w3.org/2000/svg">
<path d="M32.331 30.7516H5.15899C2.31361 30.7516 0 28.438 0 25.5926V5.15899C0 2.31361 2.31361 0 5.15899 0H32.331C35.1764 0 37.49 2.31361 37.49 5.15899V25.5926C37.49 28.436 35.1744 30.7516 32.331 30.7516ZM5.15899 2.38107C3.62717 2.38107 2.38107 3.62717 2.38107 5.15899V25.5926C2.38107 27.1244 3.62717 28.3705 5.15899 28.3705H32.331C33.8628 28.3705 35.1089 27.1244 35.1089 25.5926V5.15899C35.1089 3.62717 33.8628 2.38107 32.331 2.38107H5.15899Z" fill="#0F50A4"/>
<path d="M6.35823 4.43252C6.76675 4.43252 7.09792 4.10134 7.09792 3.69282C7.09792 3.2843 6.76675 2.95312 6.35823 2.95312C5.9497 2.95312 5.61853 3.2843 5.61853 3.69282C5.61853 4.10134 5.9497 4.43252 6.35823 4.43252Z" fill="#0F50A4"/>
<path d="M9.39082 4.43252C9.79934 4.43252 10.1305 4.10134 10.1305 3.69282C10.1305 3.2843 9.79934 2.95312 9.39082 2.95312C8.9823 2.95312 8.65112 3.2843 8.65112 3.69282C8.65112 4.10134 8.9823 4.43252 9.39082 4.43252Z" fill="#0F50A4"/>
<path d="M12.4233 4.43252C12.8318 4.43252 13.163 4.10134 13.163 3.69282C13.163 3.2843 12.8318 2.95312 12.4233 2.95312C12.0148 2.95312 11.6836 3.2843 11.6836 3.69282C11.6836 4.10134 12.0148 4.43252 12.4233 4.43252Z" fill="#0F50A4"/>
<rect x="1.85083" y="5.55469" width="34.2417" height="1.8509" fill="#0F50A4"/>
<path d="M25.494 11H12.0489C10.9662 11 10.0854 11.8808 10.0854 12.9634V20.4329C10.0854 21.5156 10.9662 22.3963 12.0489 22.3963H25.494C26.5766 22.3963 27.4574 21.5156 27.4574 20.4329V12.9634C27.4574 11.8808 26.5766 11 25.494 11ZM26.2623 20.4329C26.2623 20.8566 25.9176 21.2012 25.494 21.2012H12.0489C11.6252 21.2012 11.2806 20.8566 11.2806 20.4329V12.9634C11.2806 12.5398 11.6252 12.1951 12.0489 12.1951H25.494C25.9176 12.1951 26.2623 12.5398 26.2623 12.9634V20.4329Z" fill="#ED1E26"/>
<path d="M20.6063 16.0707L17.6636 14.3705C17.4398 14.2412 17.1618 14.2411 16.938 14.3702C16.7141 14.4993 16.575 14.7401 16.5749 14.9985L16.5738 18.397V18.3971C16.5737 18.6555 16.7127 18.8963 16.9364 19.0256C17.0468 19.0893 17.172 19.1227 17.2995 19.1226C17.4248 19.1226 17.5502 19.0904 17.6621 19.0258L20.6059 17.3275C20.8297 17.1983 20.9688 16.9576 20.9689 16.6992C20.9689 16.4407 20.83 16.1999 20.6063 16.0707ZM17.7692 17.5842L17.7698 15.8121L19.3042 16.6987L17.7692 17.5842ZM26.8171 23.8047H10.5976C10.2675 23.8047 10 24.0723 10 24.4023C10 24.7323 10.2675 24.9998 10.5976 24.9998H26.8171C27.1471 24.9998 27.4146 24.7323 27.4146 24.4023C27.4146 24.0723 27.1471 23.8047 26.8171 23.8047Z" fill="#ED1E26"/>
</svg>
