<svg width="139" height="159" viewBox="0 0 139 159" fill="none" xmlns="http://www.w3.org/2000/svg">
<path fill-rule="evenodd" clip-rule="evenodd" d="M88.0005 147.929C130.486 147.929 164.927 113.487 164.927 71.0023C164.927 28.5172 130.486 -5.92383 88.0005 -5.92383C45.5153 -5.92383 11.0742 28.5172 11.0742 71.0023C11.0742 113.487 45.5153 147.929 88.0005 147.929ZM125.404 78.901C121.941 81.1706 117.337 78.6741 117.337 74.5366C117.337 73.6468 117.546 72.7696 117.94 71.9932C118.335 71.2169 118.92 70.5414 119.666 70.0461C122.544 68.1476 124.448 64.8819 124.448 61.1731C124.448 55.3101 119.689 50.5512 113.826 50.5512C113.689 50.5512 113.558 50.5512 113.421 50.5566L114.089 49.3678L114.399 48.8184C114.817 48.0006 115.044 47.0748 115.044 46.0949C115.044 43.3192 113.187 40.9721 110.643 40.2372C111.538 40.1003 112.452 40.0229 113.378 40.0049C124.794 39.7725 134.485 48.8238 134.98 60.2293C135.32 68.0395 131.43 74.9599 125.404 78.901ZM55.5576 72.0509L45.0005 53.761V101.285C45.0005 102.742 45.5932 104.063 46.5478 105.017C47.5025 105.974 48.8174 106.565 50.28 106.565C53.1926 106.565 55.5576 104.201 55.5576 101.287V72.0509ZM114.184 53.8276V101.285C114.184 102.742 113.594 104.061 112.637 105.017C111.683 105.972 110.362 106.565 108.905 106.565C105.991 106.565 103.627 104.2 103.627 101.287V72.1175L114.184 53.8276ZM54.8552 43.4218C53.9131 41.7881 52.1713 40.783 50.2854 40.783C46.2236 40.783 43.6839 45.1817 45.7157 48.6995L75.0183 99.4551C75.0342 99.4813 75.0522 99.5065 75.0705 99.5321C75.0936 99.5643 75.1171 99.5972 75.1372 99.6334C75.2218 99.7577 75.3047 99.8784 75.3947 99.9973C75.4722 100.098 75.5515 100.194 75.6343 100.289C75.7766 100.451 75.9261 100.611 76.0936 100.761C76.1446 100.809 76.2004 100.854 76.2568 100.9L76.362 100.988C76.5529 101.13 76.7565 101.262 76.9654 101.388C77.1744 101.507 77.3833 101.608 77.5977 101.698C77.812 101.78 78.0336 101.858 78.2479 101.917C79.1431 102.157 80.0744 102.15 80.9408 101.917C81.1551 101.858 81.3713 101.786 81.5856 101.703L81.5982 101.698C81.8018 101.615 82.0053 101.519 82.2016 101.406L82.2168 101.403L82.2323 101.388C82.3318 101.332 82.4282 101.27 82.5229 101.209L82.5421 101.197C82.7402 101.06 82.9257 100.916 83.1041 100.761C83.259 100.619 83.4085 100.464 83.5453 100.302C83.6534 100.181 83.7489 100.062 83.8444 99.9306C83.911 99.8405 83.9705 99.7577 84.0299 99.6622C84.0515 99.6275 84.075 99.5962 84.0985 99.565L84.1283 99.5249L84.1614 99.4767L85.696 96.8234L54.8552 43.4218ZM114.179 46.0571C114.179 46.9703 113.947 47.8835 113.475 48.6959L87.5135 93.6821L81.4235 83.1141L104.341 43.4182C104.991 42.2888 105.958 41.5197 107.039 41.1126L107.082 41.0978L107.191 41.0622L107.192 41.062C107.223 41.0522 107.253 41.0424 107.284 41.0322C107.304 41.0256 107.324 41.0188 107.343 41.0118C109.559 40.3363 112.156 41.1379 113.475 43.4182C113.947 44.236 114.179 45.1492 114.179 46.0571Z" fill="#0A0B09"/>
<rect x="4" y="-13" width="168" height="168" rx="83.9998" stroke="black" stroke-width="6.18948" stroke-miterlimit="16"/>
</svg>
