<svg width="24" height="25" viewBox="0 0 24 25" fill="none" xmlns="http://www.w3.org/2000/svg">
<path d="M3.90088 3.63672C6.81998 3.63672 9.73908 3.63672 12.6582 3.63672C12.7039 3.64727 12.7461 3.66485 12.7918 3.67189C13.7695 3.84422 14.5855 4.71292 14.6207 5.67657C14.6523 6.51361 14.6382 6.27206 14.6277 7.10911C14.6242 7.4186 14.4448 7.63666 14.1599 7.75272C13.6781 7.94967 13.1506 7.60149 13.14 7.07394C13.1295 6.35296 13.1365 6.71408 13.1365 5.9931C13.1365 5.44093 12.8411 5.14199 12.2959 5.14199C11.2514 5.14199 10.2104 5.14199 9.16581 5.14199C9.11657 5.14199 9.06381 5.14551 9.00754 5.14902C9.02161 5.16661 9.02513 5.18068 9.03216 5.18419C9.85162 5.52886 10.1295 5.95089 10.1295 6.84421C10.1295 10.4491 10.1295 14.054 10.1295 17.6589C10.1295 17.7328 10.1295 17.8066 10.1295 17.8911C10.2244 17.8911 10.2877 17.8911 10.351 17.8911C10.956 17.8911 11.5609 17.8664 12.1623 17.8981C12.9008 17.9333 13.1611 17.4936 13.1435 16.9239C13.1189 16.0271 13.1365 16.1223 13.1365 15.2255C13.1365 15.127 13.14 15.025 13.1646 14.9301C13.2596 14.5819 13.6042 14.3463 13.9489 14.3885C14.3393 14.4342 14.6242 14.7226 14.6242 15.113C14.6312 16.1223 14.6347 16.1361 14.6242 17.1455C14.6136 18.4221 13.6253 19.3893 12.3452 19.3928C11.6699 19.3963 10.9982 19.3928 10.3229 19.3928C10.2631 19.3928 10.1998 19.3928 10.1259 19.3928C10.1259 19.6284 10.1295 19.8395 10.1259 20.0505C10.1224 20.1806 10.1224 20.3107 10.0978 20.4338C9.90789 21.3483 9.01106 21.8512 8.10016 21.5487C6.65468 21.0704 5.21272 20.5886 3.77075 20.1068C3.00405 19.85 2.63477 19.3365 2.63477 18.5171C2.63477 14.1033 2.63477 9.68945 2.63477 5.27563C2.63477 5.22288 2.63477 5.17012 2.63477 5.11737C2.66642 4.47728 2.97943 4.02359 3.55622 3.7563C3.66524 3.70354 3.78482 3.67541 3.90088 3.63672Z" fill="#0F50A4"/>
<path d="M21.3619 11.3062C21.2248 11.4926 21.1027 11.691 20.9504 11.8584C19.9149 12.9967 19.1949 13.7617 18.1931 14.8927C18.0068 15.1031 17.7641 15.2022 17.4827 15.1495C17.1099 15.0826 16.8637 14.7802 16.8637 14.3863C16.8602 13.7181 16.8637 12.8698 16.8637 12.2016C16.8637 12.1383 16.8637 12.255 16.8637 12.1635C16.7863 12.1635 16.7195 12.1635 16.6492 12.1635C15.7418 12.1635 13.9309 12.1635 13.0235 12.1635C12.4901 12.2016 12.1387 11.6028 12.1387 11.1121C12.1387 10.6215 12.4819 10.1253 12.9848 10.1218C13.9063 10.1183 15.7242 10.1218 16.6457 10.1218C16.709 10.1218 16.7723 10.1218 16.8637 10.1218C16.8637 10.0515 16.8637 9.98815 16.8637 9.92836C16.8637 9.26716 16.8672 8.60245 16.8637 7.94126C16.8602 7.58956 17.0009 7.32579 17.3244 7.18159C17.6199 7.04795 17.9258 7.12532 18.1896 7.38558C19.1949 8.45172 20.0049 9.30033 21.1087 10.5817C21.211 10.7004 21.281 10.8525 21.3654 10.9897C21.3619 11.0952 21.3619 11.2007 21.3619 11.3062Z" fill="#0685CF"/>
</svg>
