<svg width="80" height="70" viewBox="0 0 80 70" fill="none" xmlns="http://www.w3.org/2000/svg">
<path d="M52.9324 68.5713C52.6791 68.571 52.4265 68.5452 52.1784 68.4945C52.1427 68.4883 52.1048 68.4803 52.0669 68.4701L12.0354 59.0866C11.13 58.875 10.3288 58.3514 9.77331 57.6083L9.74815 57.5774C9.25119 56.9032 8.98419 56.0881 8.98634 55.2517V20.8472C8.98546 20.1446 9.19432 19.4576 9.58635 18.8735L9.72238 18.9469C9.45125 19.5768 9.44287 20.1761 9.69939 20.6795C10.0044 21.2797 10.6662 21.7253 11.5628 21.9332L53.7771 31.5864C54.5977 31.7757 55.3295 32.2369 55.8527 32.8945C56.3759 33.5522 56.6596 34.3672 56.6573 35.2064V64.8498C56.6592 66.9017 54.9871 68.5713 52.9324 68.5713Z" fill="#A9BED9"/>
<path d="M9.65907 18.9177C8.99602 20.4585 9.91995 21.6311 11.5535 22.0117C11.5582 22.0117 11.5628 22.0117 11.5675 22.0148L53.7682 31.6634C54.5706 31.8511 55.2858 32.3035 55.7977 32.9471C56.3096 33.5908 56.5881 34.3879 56.5881 35.2091V64.8525C56.5881 66.9091 54.9011 68.4966 52.9399 68.4966C52.6918 68.4964 52.4444 68.4712 52.2014 68.4214C52.1658 68.4152 52.1301 68.4075 52.0942 68.3982L12.0613 59.0142C11.1604 58.8043 10.3651 58.2789 9.82056 57.5337C9.3349 56.872 9.07379 56.0732 9.07522 55.2534V20.8477C9.0741 20.1604 9.27843 19.4883 9.66218 18.9171L9.65907 18.9177ZM9.53298 18.8311C9.13243 19.4278 8.91904 20.1298 8.91993 20.8477V55.2513C8.91776 56.1041 9.18986 56.9352 9.69634 57.6228L9.74292 57.6862H9.74541C10.3113 58.4276 11.1186 58.9496 12.0287 59.1627L52.0616 68.5467C52.0967 68.5557 52.1371 68.5647 52.1778 68.5718C52.4295 68.6231 52.6858 68.6491 52.9427 68.6491C55.0399 68.6491 56.7462 66.945 56.7462 64.8504V35.2069C56.7487 34.3497 56.4589 33.5171 55.9243 32.8455C55.3897 32.1738 54.6419 31.703 53.8036 31.5102L11.6088 21.8632H11.6041L11.5908 21.861H11.5889C10.7147 21.658 10.0712 21.2273 9.77678 20.6475C9.53143 20.1649 9.54013 19.5882 9.80193 18.9802L9.52988 18.8332L9.53298 18.8311Z" fill="#66142E"/>
<path d="M9.85921 24.2536C9.80473 24.254 9.75113 24.2399 9.70393 24.2128C9.38266 24.0317 9.09152 23.8021 8.84087 23.5321C8.81262 23.5024 8.79057 23.4673 8.77601 23.429C8.76145 23.3907 8.75466 23.35 8.75603 23.309C8.75741 23.2681 8.76693 23.2279 8.78404 23.1906C8.80115 23.1534 8.8255 23.1199 8.85569 23.0921C8.88588 23.0644 8.92131 23.0428 8.95992 23.0288C8.99852 23.0147 9.03955 23.0085 9.0806 23.0103C9.12166 23.0122 9.16194 23.0222 9.1991 23.0397C9.23626 23.0572 9.26957 23.0818 9.29709 23.1122C9.50464 23.3353 9.74559 23.5251 10.0114 23.6747C10.0707 23.7087 10.1172 23.7613 10.1434 23.8243C10.1697 23.8873 10.1743 23.9571 10.1566 24.023C10.1389 24.0889 10.0998 24.1471 10.0455 24.1886C9.99114 24.2301 9.92456 24.2525 9.8561 24.2524L9.85921 24.2536Z" fill="white"/>
<path d="M52.2571 66.2026C52.2331 66.2027 52.2091 66.1999 52.1857 66.1942L50.2292 65.7357C50.149 65.7169 50.0796 65.6671 50.0362 65.5974C49.9929 65.5276 49.9791 65.4435 49.9979 65.3636C50.0168 65.2837 50.0668 65.2146 50.1368 65.1714C50.2068 65.1282 50.2912 65.1145 50.3714 65.1333L52.3279 65.5918C52.4022 65.609 52.4676 65.6529 52.5115 65.715C52.5554 65.7771 52.5748 65.8532 52.5661 65.9287C52.5573 66.0042 52.521 66.0738 52.464 66.1243C52.4071 66.1748 52.3334 66.2027 52.2571 66.2026ZM53.987 65.6534C53.9349 65.6533 53.8836 65.6402 53.838 65.6153C53.7923 65.5903 53.7536 65.5543 53.7256 65.5106C53.6975 65.4669 53.681 65.4168 53.6774 65.3651C53.6739 65.3133 53.6835 65.2615 53.7053 65.2143C53.7575 65.0998 53.784 64.9753 53.7829 64.8496V63.3576C53.7829 63.2756 53.8156 63.1969 53.8739 63.1389C53.9321 63.0808 54.0111 63.0482 54.0935 63.0482C54.1759 63.0482 54.2548 63.0808 54.3131 63.1389C54.3713 63.1969 54.404 63.2756 54.404 63.3576V64.8496C54.4053 65.065 54.3592 65.2781 54.269 65.4739C54.244 65.5275 54.2043 65.5729 54.1543 65.6047C54.1043 65.6365 54.0463 65.6534 53.987 65.6534ZM48.3444 65.2852C48.3203 65.2852 48.2964 65.2826 48.2729 65.2771L46.3164 64.8186C46.2767 64.8093 46.2392 64.7923 46.206 64.7686C46.1729 64.7448 46.1448 64.7148 46.1233 64.6803C46.1018 64.6457 46.0874 64.6073 46.0808 64.5671C46.0743 64.527 46.0757 64.486 46.085 64.4464C46.0944 64.4068 46.1114 64.3695 46.1353 64.3365C46.1591 64.3035 46.1892 64.2755 46.2239 64.2541C46.2586 64.2327 46.2972 64.2183 46.3375 64.2117C46.3777 64.2052 46.4189 64.2066 46.4586 64.2159L48.4152 64.6747C48.4892 64.6922 48.5541 64.7362 48.5978 64.7982C48.6414 64.8602 48.6607 64.9361 48.652 65.0113C48.6433 65.0866 48.6071 65.156 48.5504 65.2065C48.4937 65.257 48.4204 65.285 48.3444 65.2852ZM44.4313 64.3681C44.4072 64.3682 44.3833 64.3655 44.3598 64.3601L42.4033 63.9013C42.3636 63.8919 42.3261 63.8749 42.293 63.8512C42.2599 63.8275 42.2318 63.7975 42.2104 63.7629C42.1889 63.7284 42.1745 63.69 42.1679 63.6499C42.1613 63.6098 42.1628 63.5688 42.1721 63.5292C42.1814 63.4896 42.1985 63.4523 42.2223 63.4193C42.2461 63.3864 42.2763 63.3584 42.3109 63.337C42.3456 63.3156 42.3842 63.3012 42.4244 63.2947C42.4647 63.2881 42.5058 63.2896 42.5455 63.2989L44.5021 63.7574C44.5764 63.7746 44.6417 63.8184 44.6856 63.8806C44.7295 63.9427 44.749 64.0188 44.7402 64.0942C44.7315 64.1697 44.6952 64.2394 44.6382 64.2899C44.5812 64.3404 44.5076 64.3682 44.4313 64.3681ZM40.5182 63.4511C40.4942 63.451 40.4704 63.4482 40.4471 63.4427L38.4905 62.9842C38.4104 62.9654 38.3409 62.9156 38.2976 62.8459C38.2542 62.7761 38.2405 62.692 38.2593 62.6121C38.2782 62.5323 38.3281 62.4631 38.3982 62.4199C38.4682 62.3767 38.5526 62.363 38.6328 62.3818L40.5893 62.8403C40.6636 62.8575 40.729 62.9014 40.7729 62.9636C40.8168 63.0257 40.8362 63.1018 40.8275 63.1773C40.8187 63.2528 40.7823 63.3225 40.7252 63.373C40.6682 63.4235 40.5945 63.4513 40.5182 63.4511ZM36.6051 62.5337C36.5812 62.5338 36.5573 62.5311 36.534 62.5257L34.5774 62.0671C34.4972 62.0483 34.4278 61.9986 34.3844 61.9288C34.341 61.859 34.3272 61.7749 34.3461 61.6949C34.3649 61.615 34.4149 61.5458 34.485 61.5026C34.555 61.4594 34.6395 61.4456 34.7197 61.4644L36.6762 61.9233C36.7502 61.9408 36.8152 61.9847 36.8589 62.0468C36.9025 62.1088 36.9218 62.1847 36.913 62.26C36.9043 62.3353 36.8681 62.4047 36.8113 62.4552C36.7546 62.5056 36.6812 62.5336 36.6051 62.5337ZM54.0926 61.6646C54.0102 61.6646 53.9312 61.632 53.873 61.574C53.8147 61.516 53.782 61.4373 53.782 61.3552V59.3531C53.782 59.271 53.8147 59.1923 53.873 59.1343C53.9312 59.0763 54.0102 59.0437 54.0926 59.0437C54.1749 59.0437 54.2539 59.0763 54.3122 59.1343C54.3704 59.1923 54.4031 59.271 54.4031 59.3531V61.3552C54.4031 61.4371 54.3705 61.5157 54.3125 61.5737C54.2544 61.6317 54.1757 61.6644 54.0935 61.6646H54.0926ZM32.6926 61.6167C32.6686 61.6167 32.6446 61.614 32.6212 61.6086L30.6647 61.1498C30.5845 61.131 30.5151 61.0812 30.4717 61.0115C30.4284 60.9417 30.4146 60.8576 30.4335 60.7777C30.4523 60.6978 30.5023 60.6287 30.5723 60.5855C30.6423 60.5423 30.7267 60.5286 30.8069 60.5474L32.7635 61.0059C32.8377 61.0231 32.9031 61.067 32.947 61.1291C32.9909 61.1912 33.0104 61.2673 33.0016 61.3428C32.9929 61.4182 32.9565 61.4879 32.8995 61.5384C32.8426 61.5889 32.7689 61.6168 32.6926 61.6167ZM28.7796 60.6996C28.7555 60.6996 28.7315 60.6967 28.7081 60.6912L26.7516 60.2327C26.7119 60.2234 26.6744 60.2064 26.6413 60.1827C26.6082 60.1589 26.5801 60.1289 26.5586 60.0944C26.5372 60.0598 26.5227 60.0214 26.5162 59.9813C26.5096 59.9412 26.511 59.9002 26.5204 59.8607C26.5297 59.8211 26.5468 59.7838 26.5706 59.7508C26.5944 59.7178 26.6245 59.6898 26.6592 59.6684C26.6939 59.647 26.7325 59.6327 26.7727 59.6261C26.813 59.6196 26.8541 59.621 26.8938 59.6303L28.8504 60.0888C28.9247 60.1061 28.99 60.1499 29.0339 60.212C29.0778 60.2742 29.0973 60.3502 29.0885 60.4257C29.0798 60.5012 29.0434 60.5708 28.9865 60.6213C28.9295 60.6719 28.8558 60.6997 28.7796 60.6996ZM24.8665 59.7822C24.8424 59.7823 24.8185 59.7796 24.795 59.7742L22.8385 59.3157C22.7583 59.2969 22.6888 59.2471 22.6454 59.1773C22.6021 59.1075 22.5883 59.0234 22.6071 58.9435C22.626 58.8635 22.676 58.7943 22.746 58.7511C22.8161 58.7079 22.9005 58.6942 22.9807 58.713L24.9373 59.1718C25.0113 59.1893 25.0763 59.2332 25.1199 59.2952C25.1636 59.3573 25.1829 59.4331 25.1741 59.5084C25.1654 59.5836 25.1293 59.6531 25.0725 59.7035C25.0158 59.754 24.9425 59.782 24.8665 59.7822ZM20.9534 58.8652C20.9294 58.8652 20.9054 58.8625 20.882 58.8571L18.9254 58.3983C18.8452 58.3795 18.7758 58.3297 18.7325 58.26C18.6891 58.1902 18.6753 58.1061 18.6942 58.0262C18.7131 57.9464 18.763 57.8772 18.833 57.834C18.9031 57.7908 18.9875 57.7771 19.0677 57.7959L21.0242 58.2544C21.0985 58.2716 21.1638 58.3155 21.2078 58.3776C21.2517 58.4397 21.2711 58.5158 21.2624 58.5913C21.2536 58.6668 21.2173 58.7364 21.1603 58.7869C21.1033 58.8374 21.0297 58.8653 20.9534 58.8652ZM17.0403 57.9481C17.0163 57.9481 16.9923 57.9453 16.9689 57.9398L15.0123 57.4812C14.9322 57.4624 14.8628 57.4127 14.8194 57.3429C14.776 57.2731 14.7623 57.1891 14.7811 57.1092C14.8 57.0293 14.8499 56.9602 14.92 56.917C14.99 56.8738 15.0744 56.86 15.1546 56.8788L17.1111 57.3374C17.1854 57.3546 17.2507 57.3984 17.2947 57.4606C17.3386 57.5227 17.358 57.5987 17.3493 57.6742C17.3405 57.7497 17.3042 57.8193 17.2472 57.8699C17.1902 57.9204 17.1166 57.9482 17.0403 57.9481ZM54.0904 57.6601C54.008 57.6601 53.929 57.6275 53.8708 57.5694C53.8125 57.5114 53.7798 57.4327 53.7798 57.3507V55.3486C53.7798 55.2665 53.8125 55.1878 53.8708 55.1298C53.929 55.0718 54.008 55.0392 54.0904 55.0392C54.1727 55.0392 54.2517 55.0718 54.31 55.1298C54.3682 55.1878 54.4009 55.2665 54.4009 55.3486V57.3507C54.4009 57.4322 54.3687 57.5104 54.3111 57.5684C54.2535 57.6263 54.1753 57.6593 54.0935 57.6601H54.0904ZM13.1272 57.0308C13.1032 57.0309 13.0792 57.0281 13.0558 57.0224L12.5462 56.903C12.0463 56.8146 11.5545 56.6862 11.0753 56.519C11.0361 56.5059 10.9999 56.4852 10.9688 56.4579C10.9377 56.4307 10.9124 56.3976 10.8943 56.3605C10.8763 56.3233 10.8659 56.283 10.8637 56.2418C10.8615 56.2007 10.8676 56.1595 10.8817 56.1207C10.8957 56.0819 10.9174 56.0463 10.9454 56.0159C10.9735 55.9856 11.0073 55.9612 11.045 55.9441C11.0826 55.927 11.1234 55.9175 11.1647 55.9163C11.2061 55.9151 11.2473 55.9222 11.2859 55.937C11.7385 56.094 12.2029 56.2146 12.6747 56.2978L13.198 56.4215C13.272 56.439 13.337 56.483 13.3807 56.545C13.4243 56.607 13.4436 56.6829 13.4349 56.7581C13.4261 56.8334 13.39 56.9028 13.3333 56.9533C13.2766 57.0038 13.2033 57.0318 13.1272 57.032V57.0308ZM54.0904 53.6555C54.008 53.6555 53.929 53.6229 53.8708 53.5649C53.8125 53.5069 53.7798 53.4282 53.7798 53.3461V51.344C53.7798 51.262 53.8125 51.1833 53.8708 51.1252C53.929 51.0672 54.008 51.0346 54.0904 51.0346C54.1727 51.0346 54.2517 51.0672 54.31 51.1252C54.3682 51.1833 54.4009 51.262 54.4009 51.344V53.3461C54.4009 53.4277 54.3687 53.5059 54.3111 53.5638C54.2535 53.6218 54.1753 53.6547 54.0935 53.6555H54.0904ZM54.0904 49.651C54.008 49.651 53.929 49.6184 53.8708 49.5604C53.8125 49.5023 53.7798 49.4236 53.7798 49.3416V47.3395C53.7798 47.2574 53.8125 47.1787 53.8708 47.1207C53.929 47.0627 54.008 47.0301 54.0904 47.0301C54.1727 47.0301 54.2517 47.0627 54.31 47.1207C54.3682 47.1787 54.4009 47.2574 54.4009 47.3395V49.3416C54.4009 49.4231 54.3687 49.5013 54.3111 49.5593C54.2535 49.6172 54.1753 49.6502 54.0935 49.651H54.0904ZM54.0904 45.6464C54.008 45.6464 53.929 45.6138 53.8708 45.5558C53.8125 45.4978 53.7798 45.4191 53.7798 45.337V43.3349C53.7798 43.2529 53.8125 43.1742 53.8708 43.1161C53.929 43.0581 54.008 43.0255 54.0904 43.0255C54.1727 43.0255 54.2517 43.0581 54.31 43.1161C54.3682 43.1742 54.4009 43.2529 54.4009 43.3349V45.337C54.4009 45.4186 54.3687 45.4968 54.3111 45.5547C54.2535 45.6127 54.1753 45.6456 54.0935 45.6464H54.0904ZM54.0904 41.6422C54.008 41.6422 53.929 41.6096 53.8708 41.5516C53.8125 41.4936 53.7798 41.4149 53.7798 41.3328V39.3304C53.7798 39.2483 53.8125 39.1696 53.8708 39.1116C53.929 39.0536 54.008 39.021 54.0904 39.021C54.1727 39.021 54.2517 39.0536 54.31 39.1116C54.3682 39.1696 54.4009 39.2483 54.4009 39.3304V41.3328C54.4009 41.4143 54.3687 41.4926 54.3111 41.5505C54.2535 41.6084 54.1753 41.6414 54.0935 41.6422H54.0904ZM54.0904 37.6377C54.008 37.6377 53.929 37.6051 53.8708 37.547C53.8125 37.489 53.7798 37.4103 53.7798 37.3283V35.3258C53.7798 35.2438 53.8125 35.1651 53.8708 35.1071C53.929 35.049 54.008 35.0164 54.0904 35.0164C54.1727 35.0164 54.2517 35.049 54.31 35.1071C54.3682 35.1651 54.4009 35.2438 54.4009 35.3258V37.3283C54.4009 37.4098 54.3687 37.488 54.3111 37.546C54.2535 37.6039 54.1753 37.6368 54.0935 37.6377H54.0904ZM52.8792 34.3088C52.8557 34.3089 52.8322 34.3062 52.8093 34.3008L50.8506 33.8531C50.7717 33.8334 50.7038 33.7837 50.6613 33.7147C50.6188 33.6456 50.6052 33.5627 50.6233 33.4838C50.6415 33.4049 50.69 33.3362 50.7585 33.2925C50.8269 33.2488 50.9098 33.2336 50.9894 33.2501L52.9481 33.6978C53.0226 33.7147 53.0882 33.7583 53.1324 33.8203C53.1765 33.8824 53.1963 33.9584 53.1877 34.034C53.1792 34.1096 53.143 34.1794 53.0861 34.2301C53.0292 34.2808 52.9555 34.3088 52.8792 34.3088ZM48.9614 33.4116C48.9379 33.4117 48.9145 33.409 48.8916 33.4035L46.9356 32.9574C46.8553 32.9391 46.7856 32.8897 46.7419 32.8201C46.6981 32.7506 46.6839 32.6666 46.7023 32.5866C46.7207 32.5066 46.7702 32.4371 46.84 32.3935C46.9098 32.3499 46.9942 32.3357 47.0745 32.3541L49.0332 32.8021C49.1076 32.819 49.1732 32.8626 49.2174 32.9246C49.2616 32.9866 49.2813 33.0627 49.2728 33.1383C49.2643 33.2139 49.2281 33.2837 49.1712 33.3344C49.1143 33.3851 49.0406 33.4131 48.9642 33.4131L48.9614 33.4116ZM45.0437 32.5143C45.0202 32.5144 44.9967 32.5117 44.9738 32.5063L43.0151 32.0586C42.9348 32.0403 42.8651 31.9909 42.8213 31.9213C42.7776 31.8518 42.7633 31.7678 42.7817 31.6878C42.8001 31.6078 42.8497 31.5383 42.9195 31.4947C42.9893 31.4511 43.0736 31.4369 43.1539 31.4553L45.113 31.9033C45.1874 31.9202 45.253 31.9638 45.2972 32.0259C45.3414 32.0879 45.3611 32.164 45.3526 32.2396C45.344 32.3153 45.3077 32.3851 45.2508 32.4357C45.1938 32.4864 45.1201 32.5144 45.0437 32.5143ZM41.1281 31.6217C41.1046 31.6216 41.0812 31.6189 41.0583 31.6137L39.0995 31.166C39.0192 31.1476 38.9495 31.0983 38.9058 31.0287C38.862 30.9592 38.8477 30.8752 38.8662 30.7952C38.8846 30.7152 38.9341 30.6457 39.0039 30.6021C39.0737 30.5585 39.1581 30.5443 39.2384 30.5627L41.1974 31.0107C41.2719 31.0276 41.3375 31.0712 41.3817 31.1333C41.4259 31.1953 41.4456 31.2714 41.437 31.347C41.4284 31.4226 41.3922 31.4925 41.3352 31.5431C41.2782 31.5938 41.2045 31.6218 41.1281 31.6217ZM37.2104 30.7245C37.187 30.7245 37.1637 30.7219 37.1408 30.7167L35.1815 30.2718C35.1012 30.2535 35.0315 30.2041 34.9877 30.1346C34.9439 30.065 34.9297 29.981 34.9481 29.901C34.9665 29.821 35.0161 29.7516 35.0859 29.7079C35.1557 29.6643 35.24 29.6501 35.3203 29.6685L37.2793 30.1165C37.3535 30.1337 37.4187 30.1774 37.4627 30.2394C37.5066 30.3013 37.5261 30.3772 37.5176 30.4526C37.509 30.528 37.473 30.5976 37.4163 30.6482C37.3596 30.6989 37.2862 30.727 37.2101 30.7272L37.2104 30.7245ZM33.2927 29.8272C33.2692 29.8272 33.2459 29.8246 33.2231 29.8195L31.2637 29.3746C31.1834 29.3562 31.1137 29.3069 31.07 29.2373C31.0262 29.1678 31.012 29.0838 31.0304 29.0037C31.0488 28.9237 31.0983 28.8543 31.1681 28.8107C31.2379 28.7671 31.3223 28.7529 31.4026 28.7712L33.3616 29.2192C33.4358 29.2364 33.501 29.2802 33.5449 29.3421C33.5889 29.4041 33.6084 29.48 33.5998 29.5553C33.5913 29.6307 33.5553 29.7003 33.4986 29.751C33.4419 29.8016 33.3685 29.8297 33.2923 29.83L33.2927 29.8272ZM29.3749 28.93C29.3515 28.93 29.3282 28.9274 29.3053 28.9222L27.3463 28.4745C27.266 28.4562 27.1963 28.4068 27.1525 28.3373C27.1088 28.2677 27.0945 28.1837 27.1129 28.1037C27.1313 28.0237 27.1809 27.9543 27.2507 27.9107C27.3205 27.867 27.4048 27.8529 27.4851 27.8712L29.4442 28.3192C29.5183 28.3364 29.5836 28.3801 29.6275 28.4421C29.6714 28.504 29.691 28.5799 29.6824 28.6553C29.6739 28.7307 29.6378 28.8003 29.5811 28.8509C29.5244 28.9016 29.4511 28.9297 29.3749 28.93ZM25.4572 28.0327C25.4338 28.0327 25.4104 28.0301 25.3876 28.025L23.4286 27.577C23.3492 27.5577 23.2807 27.5081 23.2378 27.4388C23.195 27.3696 23.1812 27.2863 23.1995 27.207C23.2178 27.1278 23.2667 27.0588 23.3356 27.0152C23.4045 26.9716 23.4879 26.9568 23.5677 26.9739L25.5264 27.4219C25.6006 27.4391 25.6658 27.4829 25.7098 27.5448C25.7537 27.6068 25.7732 27.6827 25.7647 27.758C25.7561 27.8334 25.7201 27.903 25.6634 27.9537C25.6067 28.0043 25.5333 28.0324 25.4572 28.0327ZM21.5394 27.1354C21.516 27.1355 21.4927 27.1329 21.4699 27.1277L19.5111 26.6797C19.4323 26.66 19.3643 26.6103 19.3218 26.5413C19.2793 26.4722 19.2657 26.3893 19.2839 26.3104C19.3021 26.2315 19.3506 26.1628 19.419 26.1191C19.4875 26.0754 19.5704 26.0602 19.65 26.0767L21.6087 26.5247C21.6828 26.5419 21.7481 26.5856 21.792 26.6476C21.8359 26.7095 21.8555 26.7854 21.8469 26.8608C21.8384 26.9362 21.8023 27.0058 21.7456 27.0564C21.689 27.1071 21.6156 27.1352 21.5394 27.1354ZM17.622 26.2397C17.5985 26.2397 17.575 26.2372 17.5521 26.232L15.5934 25.784C15.5145 25.7643 15.4466 25.7146 15.4041 25.6456C15.3616 25.5765 15.348 25.4936 15.3661 25.4147C15.3843 25.3358 15.4328 25.2671 15.5013 25.2234C15.5697 25.1797 15.6526 25.1644 15.7322 25.181L17.6909 25.629C17.7651 25.6462 17.8303 25.6899 17.8742 25.7518C17.9182 25.8137 17.9377 25.8896 17.9292 25.9649C17.9207 26.0403 17.8847 26.1099 17.8281 26.1606C17.7714 26.2112 17.6981 26.2394 17.622 26.2397ZM13.7055 25.3524C13.682 25.3524 13.6586 25.3498 13.6356 25.3446L11.6769 24.8966C11.598 24.877 11.5301 24.8273 11.4876 24.7582C11.4451 24.6892 11.4315 24.6063 11.4496 24.5273C11.4678 24.4484 11.5163 24.3797 11.5848 24.336C11.6532 24.2923 11.7361 24.2771 11.8157 24.2936L13.7744 24.7416C13.8486 24.7588 13.9138 24.8025 13.9577 24.8644C14.0017 24.9264 14.0212 25.0022 14.0127 25.0776C14.0042 25.1529 13.9682 25.2225 13.9116 25.2732C13.8549 25.3239 13.7816 25.352 13.7055 25.3524Z" fill="white"/>
<path d="M9.51891 55.4649C9.47282 55.4649 9.42732 55.4547 9.38569 55.435C9.34406 55.4153 9.30735 55.3866 9.27822 55.3511C9.03448 55.055 8.86091 54.708 8.77045 54.3359C8.75106 54.2562 8.76426 54.172 8.80715 54.1019C8.85005 54.0319 8.91912 53.9816 8.99918 53.9623C9.07924 53.943 9.16373 53.9561 9.23406 53.9989C9.30438 54.0416 9.35479 54.1104 9.37418 54.1902C9.44298 54.4724 9.57471 54.7355 9.75959 54.96C9.79672 55.0053 9.82018 55.0602 9.82723 55.1184C9.83429 55.1765 9.82465 55.2354 9.79945 55.2882C9.77425 55.3411 9.73452 55.3858 9.68486 55.417C9.6352 55.4483 9.57765 55.4649 9.51891 55.4649Z" fill="white"/>
<g opacity="0.55">
<path opacity="0.55" d="M9.51327 20.3923C9.22322 20.9095 9.07137 21.4923 9.07227 22.0847V20.8472C9.07115 20.1598 9.27549 19.4877 9.65923 18.9165C9.42476 19.461 9.38905 19.9592 9.51327 20.3923Z" fill="white"/>
</g>
<g opacity="0.55">
<path opacity="0.55" d="M56.5968 35.2062V36.4437C56.5968 35.6226 56.3183 34.8255 55.8064 34.1818C55.2945 33.5382 54.5793 33.0858 53.7769 32.898L11.5762 23.2485C11.5715 23.2485 11.5668 23.2485 11.5622 23.2454C10.0466 22.8943 9.1398 21.8593 9.54974 20.481C9.8044 21.2297 10.5451 21.7727 11.5622 22.0078C11.5668 22.0078 11.5715 22.0078 11.5762 22.0109L53.7769 31.6595C54.5795 31.8473 55.2948 32.2998 55.8067 32.9437C56.3186 33.5875 56.597 34.3848 56.5968 35.2062Z" fill="white"/>
</g>
<g opacity="0.55">
<path opacity="0.55" d="M9.65377 20.1553C9.60764 20.262 9.56823 20.3716 9.53576 20.4832C9.52481 20.4539 9.51549 20.4239 9.50781 20.3935C9.55284 20.3124 9.60098 20.232 9.65377 20.1553Z" fill="white"/>
</g>
<path d="M52.9389 68.958C52.6598 68.958 52.3814 68.9297 52.1081 68.8736C52.073 68.868 52.0246 68.8572 51.9758 68.8445L11.954 59.4635C10.9995 59.243 10.1484 58.7061 9.54007 57.9408C8.93175 57.1756 8.60225 56.2272 8.60549 55.2511V20.8475C8.60454 20.0684 8.83621 19.3067 9.27103 18.6591C9.33555 18.5629 9.4338 18.4942 9.54653 18.4664C9.65925 18.4387 9.77833 18.4539 9.88041 18.509C9.98249 18.5642 10.0602 18.6553 10.0983 18.7646C10.1365 18.8738 10.1323 18.9934 10.0866 19.0997C9.85892 19.6285 9.84774 20.1012 10.053 20.5056C10.3052 21.0006 10.8748 21.375 11.6568 21.5576L11.671 21.5607L53.8705 31.2086C54.777 31.4174 55.5854 31.9267 56.1634 32.6531C56.7414 33.3794 57.0547 34.2798 57.0519 35.2067V64.8501C57.0514 65.9377 56.6183 66.9807 55.8473 67.7507C55.0764 68.5207 54.0305 68.9548 52.9389 68.958ZM9.53718 21.3954V55.2511C9.53452 56.0178 9.79327 56.7627 10.271 57.3638C10.7488 57.9649 11.4173 58.3866 12.167 58.5598L52.2003 67.9441C52.2348 67.9531 52.2578 67.9577 52.2808 67.9618C52.745 68.058 53.2248 68.0499 53.6855 67.9382C54.1462 67.8265 54.576 67.6139 54.9439 67.3159C55.3117 67.0179 55.6083 66.6419 55.812 66.2154C56.0157 65.7889 56.1214 65.3225 56.1215 64.8501V35.2067C56.1237 34.4895 55.8815 33.7929 55.4345 33.2308C54.9875 32.6687 54.3622 32.2745 53.6609 32.1127L11.4627 22.4647L11.4471 22.461C10.6279 22.2713 9.96855 21.9001 9.53718 21.3954Z" fill="#66142E"/>
<path d="M59.3035 32.7943C59.3035 31.9908 59.031 31.2109 58.5304 30.581C58.0297 29.9511 57.3301 29.5081 56.5451 29.3238L12.3438 19.6016H59.3464C60.3366 19.6023 61.2861 19.9945 61.9863 20.6921C62.6865 21.3897 63.0802 22.3356 63.0809 23.3221V53.1651C63.0806 53.9169 62.8516 54.651 62.4241 55.2706C61.9967 55.8902 61.3909 56.3662 60.6865 56.6359C60.2699 56.7952 59.8282 56.879 59.3821 56.8835H59.3035V32.7943Z" fill="#A9BED9"/>
<path d="M59.3528 19.6791C60.3225 19.6798 61.2522 20.0638 61.9379 20.7469C62.6235 21.43 63.009 22.3563 63.0097 23.3223V53.1653C63.0094 53.9015 62.7852 54.6204 62.3667 55.2271C61.9481 55.8339 61.3548 56.3 60.6649 56.564C60.2567 56.7196 59.824 56.8013 59.387 56.8054V32.7961C59.3869 31.9751 59.1085 31.1783 58.5969 30.5347C58.0854 29.8912 57.3707 29.4386 56.5686 29.2504L13.062 19.6807H59.3528V19.6791ZM59.3528 19.526H11.6387L13.0287 19.8316L56.5354 29.4013C57.3029 29.582 57.9867 30.0155 58.4761 30.6316C58.9655 31.2477 59.2319 32.0104 59.232 32.7961V56.9632L59.3888 56.9616C60.1766 56.9551 60.943 56.7052 61.5823 56.2465C62.2216 55.7878 62.7023 55.1428 62.9581 54.4004C63.0956 54.0036 63.1657 53.5867 63.1653 53.1668V23.3223C63.1646 22.3152 62.7628 21.3496 62.048 20.6375C61.3332 19.9254 60.364 19.5251 59.3531 19.5244L59.3528 19.526Z" fill="#66142E"/>
<g opacity="0.3">
<path opacity="0.3" d="M63.0033 23.3224V53.1654C63.0031 53.9017 62.7789 54.6205 62.3603 55.2273C61.9418 55.834 61.3484 56.3001 60.6586 56.5642C60.2504 56.7198 59.8176 56.8015 59.3806 56.8055V32.7962C59.3807 32.3111 59.2835 31.831 59.0947 31.3838C58.9059 30.9367 58.6294 30.5317 58.2812 30.1926V23.6581L59.1089 23.194C61.0841 23.1383 62.6027 22.764 62.2021 21.0483C62.7225 21.6927 63.0053 22.4954 63.0033 23.3224Z" fill="#A9BED9"/>
</g>
<path d="M59.3731 57.2698C59.2496 57.2698 59.1311 57.2209 59.0437 57.1338C58.9563 57.0468 58.9073 56.9288 58.9073 56.8057V32.7964C58.9095 32.0795 58.6675 31.383 58.2208 30.821C57.7741 30.2589 57.1492 29.8646 56.4482 29.7024L12.9478 20.1327C12.8356 20.1081 12.7365 20.0431 12.6695 19.9502C12.6025 19.8572 12.5723 19.7429 12.5848 19.6292C12.5972 19.5154 12.6514 19.4102 12.7369 19.3339C12.8224 19.2575 12.9333 19.2153 13.0481 19.2153H59.3389C61.6123 19.2153 63.4617 21.0578 63.4617 23.3226V53.1656C63.4615 53.9957 63.2088 54.8063 62.7368 55.4904C62.2648 56.1745 61.5957 56.7 60.8178 56.9975C60.358 57.1729 59.8704 57.2651 59.3781 57.2698H59.3731ZM17.3187 20.1435L56.6563 28.7959C57.5633 29.0044 58.3723 29.5137 58.9507 30.2402C59.5291 30.9668 59.8426 31.8675 59.8399 32.7948V56.3026C60.4119 56.2132 60.9486 55.97 61.3921 55.5993C61.8357 55.2285 62.1694 54.7443 62.3573 54.1987C62.4727 53.8665 62.5314 53.5174 62.5309 53.1659V23.3226C62.53 22.4797 62.1935 21.6716 61.5953 21.0757C60.997 20.4797 60.1859 20.1444 59.3399 20.1435H17.3187Z" fill="#66142E"/>
<g opacity="0.3">
<path opacity="0.3" d="M13.8281 19.8503H23.0338L23.4127 21.7247L13.8281 19.8503Z" fill="#66142E"/>
</g>
<g opacity="0.3">
<path opacity="0.3" d="M29.0293 23.1948H58.5995C62.0933 23.2628 62.7765 22.0717 61.9271 20.7474C60.8361 19.3496 58.1426 19.4622 54.9892 20.0086L29.0293 23.1948Z" fill="#66142E"/>
</g>
<path d="M53.9707 68.7032C53.3675 68.7003 52.7666 68.6302 52.1791 68.4944L52.212 68.3431C52.4498 68.3919 52.6919 68.4165 52.9347 68.4167C54.9033 68.4167 56.5061 66.8165 56.5061 64.85V35.2065C56.5063 34.4027 56.2338 33.6225 55.7327 32.9924C55.2317 32.3624 54.5316 31.9196 53.7461 31.736L11.5249 22.0828C10.5892 21.8662 9.89075 21.3922 9.56466 20.7502C9.28733 20.2041 9.29385 19.5596 9.58329 18.8864C9.90841 18.3955 10.3507 17.9927 10.8705 17.714C11.3902 17.4354 11.9713 17.2895 12.5616 17.2896H61.777C62.7671 17.2905 63.7165 17.6828 64.4167 18.3802C65.1169 19.0776 65.5109 20.0233 65.5121 21.0098V50.8528C65.5646 54.7735 63.9242 55.8777 60.6745 56.6385L60.6288 56.4913C61.304 56.2329 61.8848 55.7766 62.2944 55.1827C62.7041 54.5889 62.9235 53.8852 62.9236 53.1646V23.3225C62.9243 23.0023 62.8808 22.6835 62.7944 22.3751L62.7916 22.3646V22.3615C62.58 21.6126 62.1289 20.953 61.5067 20.4828C60.8845 20.0127 60.1253 19.7577 59.3443 19.7567H13.7647L56.5763 29.1735C57.1598 29.3108 57.7017 29.5858 58.1562 29.9755C58.6106 30.3651 58.9643 30.8579 59.1875 31.4124C59.3656 31.8516 59.4566 32.321 59.4555 32.7947V62.295C59.5847 64.2872 59.0807 65.9505 57.9981 67.1008C57.0111 68.1488 55.6182 68.7032 53.9707 68.7032Z" fill="#0F50A4"/>
<path d="M61.7888 17.3669C62.7586 17.367 63.6887 17.7508 64.3745 18.434C65.0603 19.1172 65.4455 20.0439 65.4456 21.0101V50.8531C65.4984 54.7917 63.7764 55.8359 60.6676 56.5646C61.3575 56.3005 61.9508 55.8344 62.3694 55.2277C62.7879 54.6209 63.0121 53.9021 63.0124 53.1658V23.3228C63.0131 22.9955 62.9687 22.6696 62.8804 22.3544V22.3513C62.6669 21.5833 62.2066 20.9062 61.5699 20.4236C60.9333 19.9411 60.1554 19.6798 59.3555 19.6796H13.0647L56.5713 29.2493C57.1427 29.3835 57.6732 29.6528 58.1181 30.0343C58.563 30.4159 58.9091 30.8985 59.1272 31.4414C59.3013 31.8716 59.3904 32.3312 59.3897 32.795V62.2952C59.6518 66.3484 57.2639 68.6268 53.9825 68.6268C53.3851 68.624 52.7898 68.5546 52.2079 68.4198C52.4509 68.4696 52.6984 68.4948 52.9464 68.495C54.908 68.495 56.5946 66.9075 56.5946 64.8509V35.2074C56.5947 34.3862 56.3162 33.5891 55.8043 32.9454C55.2924 32.3018 54.5772 31.8494 53.7747 31.6617L11.574 22.0116C11.5693 22.0116 11.5647 22.0116 11.56 22.0085C9.92646 21.6295 9.00253 20.4569 9.66558 18.9145C9.98427 18.4374 10.4164 18.0462 10.9236 17.7757C11.4308 17.5053 11.9972 17.364 12.5724 17.3644H61.7888V17.3669ZM61.7888 17.2097H12.5731C11.9723 17.2092 11.3807 17.3568 10.851 17.6392C10.3213 17.9217 9.86988 18.3302 9.53701 18.8285L9.52925 18.8406L9.52366 18.8536C9.22459 19.5485 9.21868 20.2149 9.50658 20.7823C9.8426 21.4438 10.5569 21.9314 11.5187 22.1561H11.5237L11.5377 22.1589H11.5398L53.7406 31.8074C54.5088 31.9873 55.1934 32.4206 55.6834 33.0368C56.1734 33.6531 56.44 34.4163 56.44 35.2025V64.8459C56.44 66.7701 54.8732 68.3353 52.9471 68.3353C52.7095 68.3352 52.4726 68.311 52.2399 68.2632L52.1741 68.5655C52.7673 68.7029 53.3741 68.7737 53.9831 68.7765C55.6527 68.7765 57.0648 68.214 58.067 67.1491C59.1639 65.9839 59.6751 64.3026 59.5456 62.2853V32.795C59.5467 32.3113 59.4538 31.8319 59.272 31.3833C59.0441 30.8177 58.6831 30.3149 58.2194 29.9173C57.7558 29.5197 57.203 29.239 56.6077 29.0987L14.4883 19.8343H59.3555C60.1175 19.8354 60.8584 20.0836 61.4663 20.5413C62.0742 20.999 62.5161 21.6414 62.7251 22.3714L62.731 22.3949C62.8155 22.6971 62.8579 23.0094 62.8571 23.3231V53.1661C62.8567 53.871 62.642 54.5593 62.2412 55.1402C61.8405 55.7211 61.2725 56.1674 60.612 56.4204L60.7034 56.7156C62.0577 56.3978 63.4363 55.973 64.3543 55.0201C65.2307 54.1092 65.6276 52.7843 65.6009 50.8512V21.0101C65.5998 20.0031 65.1979 19.0377 64.4832 18.3257C63.7685 17.6137 62.7995 17.2133 61.7888 17.2122V17.2097Z" fill="#66142E"/>
<g opacity="0.55">
<path opacity="0.55" d="M56.5879 64.8499V65.8167C56.5895 66.3119 56.4888 66.8021 56.2922 67.2569C56.0956 67.7117 55.8072 68.1214 55.445 68.4605C54.4698 68.691 53.3673 68.6833 52.2012 68.4188C54.4574 68.8798 56.5879 67.1611 56.5879 64.8499Z" fill="white"/>
</g>
<g opacity="0.55">
<path opacity="0.55" d="M59.3809 62.2949C59.4054 62.6554 59.4075 63.0171 59.3871 63.3778C59.3871 63.3391 59.384 63.3005 59.3809 63.2618V62.2949Z" fill="white"/>
</g>
<g opacity="0.55">
<path opacity="0.55" d="M62.8061 54.349C62.9382 53.9683 63.0053 53.5683 63.0049 53.1655V54.1324C63.0051 54.7993 62.8208 55.4534 62.4723 56.0228C61.935 56.2363 61.3294 56.408 60.6602 56.5643C61.1584 56.3733 61.6087 56.0761 61.9794 55.6934C62.3501 55.3107 62.6323 54.8518 62.8061 54.349Z" fill="white"/>
</g>
<g opacity="0.55">
<path opacity="0.55" d="M65.4474 21.0101V21.977C65.4473 21.0108 65.062 20.0842 64.3762 19.401C63.6904 18.7178 62.7603 18.3339 61.7905 18.3338H12.5748C11.9996 18.3334 11.4331 18.4747 10.926 18.7451C10.4188 19.0156 9.98663 19.4068 9.66795 19.8839C9.60174 20.0368 9.54926 20.1952 9.51111 20.3573C9.39931 19.9319 9.43968 19.4461 9.66795 18.917C9.98663 18.4399 10.4188 18.0487 10.926 17.7783C11.4331 17.5078 11.9996 17.3665 12.5748 17.3669H61.7905C62.7603 17.367 63.6904 17.7509 64.3762 18.4341C65.062 19.1173 65.4473 20.0439 65.4474 21.0101Z" fill="white"/>
</g>
<g opacity="0.3">
<path opacity="0.3" d="M59.3829 62.2948C59.6904 67.0502 56.3518 69.3614 52.2012 68.4193C54.4574 68.8803 56.5879 67.1616 56.5879 64.8504V35.207C56.5883 34.6408 56.4559 34.0825 56.2012 33.5764C55.8627 31.2389 57.6143 30.2535 59.1205 31.4416C59.2946 31.8718 59.3837 32.3314 59.3829 32.7952V62.2948Z" fill="#0F50A4"/>
</g>
<path d="M53.994 69.0917C53.3577 69.0887 52.7237 69.0146 52.104 68.8708C51.9862 68.8419 51.8844 68.7684 51.8202 68.666C51.756 68.5635 51.7344 68.4401 51.7601 68.3221C51.7857 68.204 51.8565 68.1005 51.9575 68.0337C52.0585 67.9668 52.1817 67.9418 52.3009 67.964C52.7643 68.058 53.243 68.0482 53.7022 67.9352C54.1614 67.8223 54.5896 67.6091 54.9559 67.311C55.3222 67.013 55.6175 66.6375 55.8202 66.2118C56.023 65.786 56.1282 65.3208 56.1282 64.8496V35.2061C56.1305 34.489 55.8883 33.7924 55.4412 33.2303C54.9942 32.6682 54.3689 32.2739 53.6676 32.1121L11.4694 22.4642L11.4539 22.4604C10.398 22.2154 9.60729 21.6696 9.2284 20.9237C8.89766 20.2739 8.90045 19.5147 9.23679 18.7331C9.24825 18.7071 9.26186 18.682 9.27748 18.6582C9.6388 18.1176 10.1287 17.6743 10.7036 17.3679C11.2785 17.0615 11.9205 16.9015 12.5725 16.9021H61.7882C64.0615 16.9021 65.9109 18.7446 65.9109 21.0094V50.8524C65.9665 54.9859 64.0693 56.2433 60.7739 57.0156C60.6591 57.0422 60.5384 57.0245 60.4362 56.9659C60.334 56.9074 60.2578 56.8124 60.2231 56.7002C60.1884 56.5879 60.1977 56.4668 60.2492 56.3611C60.3006 56.2554 60.3904 56.1731 60.5003 56.1307C61.1021 55.9002 61.6197 55.4934 61.9849 54.9641C62.3501 54.4347 62.5457 53.8075 62.546 53.1651V23.3221C62.5451 22.4793 62.2086 21.6712 61.6104 21.0752C61.0121 20.4792 60.201 20.1439 59.355 20.143H17.3359L56.6723 28.7954C57.5793 29.0039 58.3883 29.5132 58.9667 30.2397C59.5451 30.9663 59.8586 31.867 59.8559 32.7943V62.28C60.0028 64.6073 59.2994 66.554 57.8742 67.7635C56.8394 68.64 55.5006 69.0917 53.994 69.0917ZM11.6778 21.5595L53.8773 31.2081C54.7837 31.4169 55.5922 31.9262 56.1702 32.6525C56.7481 33.3789 57.0614 34.2792 57.0587 35.2061V64.8496C57.0598 65.4302 56.9368 66.0044 56.6978 66.534C56.4588 67.0636 56.1093 67.5364 55.6726 67.921C56.2579 67.7438 56.8008 67.4495 57.268 67.0562C58.4842 66.024 59.0565 64.3876 58.923 62.3224C58.923 62.3125 58.923 62.3022 58.923 62.2914V32.7943C58.9253 32.0774 58.6833 31.381 58.2366 30.8189C57.7899 30.2568 57.1649 29.8625 56.464 29.7004L12.9638 20.1322C12.8517 20.1076 12.7526 20.0426 12.6855 19.9497C12.6185 19.8568 12.5883 19.7424 12.6008 19.6287C12.6132 19.5149 12.6674 19.4098 12.7529 19.3334C12.8385 19.257 12.9493 19.2148 13.0642 19.2149H59.355C61.6283 19.2149 63.4777 21.0573 63.4777 23.3221V53.1651C63.4781 53.6195 63.4023 54.0707 63.2535 54.5002C63.1516 54.7965 63.0161 55.0803 62.8497 55.3461C64.3168 54.593 65.014 53.3684 64.9802 50.8598V21.0094C64.9793 20.1665 64.6428 19.3584 64.0446 18.7624C63.4463 18.1664 62.6352 17.8312 61.7892 17.8303H12.5725C12.0813 17.8299 11.5973 17.9489 11.1625 18.1768C10.7278 18.4047 10.3554 18.7348 10.0775 19.1384C9.86599 19.6511 9.86009 20.1109 10.0604 20.505C10.3126 21.0001 10.8821 21.3745 11.6645 21.557L11.6784 21.5601L11.6778 21.5595Z" fill="#0A0B09"/>
<path d="M58.8768 23.6608C58.7826 23.6608 58.6868 23.6598 58.5895 23.658H29.0283C28.9048 23.658 28.7863 23.6091 28.6989 23.522C28.6116 23.435 28.5625 23.317 28.5625 23.1939C28.5625 23.0708 28.6116 22.9527 28.6989 22.8657C28.7863 22.7787 28.9048 22.7298 29.0283 22.7298H58.5985C61.006 22.7743 61.5842 22.2168 61.7206 21.9745C61.8908 21.6722 61.7128 21.2756 61.5342 20.9962C61.4693 20.8925 61.448 20.7675 61.475 20.6482C61.5021 20.529 61.5752 20.4252 61.6786 20.3594C61.782 20.2936 61.9073 20.2711 62.0273 20.2967C62.1473 20.3224 62.2522 20.3942 62.3193 20.4965C62.8923 21.3898 62.7526 22.0401 62.5339 22.4281C62.0731 23.2465 60.8435 23.6608 58.8768 23.6608Z" fill="#0A0B09"/>
<path d="M48.3912 23.1926L31.7233 23.3102L31.6969 23.304L27.9469 22.4795L25.9158 22.0324L23.4173 21.4838L23.0322 19.6785L22.5384 17.3657L20.29 6.8462C20.2679 6.742 20.2882 6.63332 20.3464 6.544C20.4046 6.45468 20.496 6.39201 20.6005 6.36973L32.4112 3.8636L34.2063 3.48304L39.197 2.4249L41.4967 1.9376H41.4983L43.3539 1.54311C43.4585 1.5211 43.5675 1.5413 43.6572 1.59931C43.7469 1.65731 43.8098 1.74837 43.8321 1.85251L43.9765 2.52855L44.2095 3.61918L47.1474 17.3657L47.6412 19.6785L48.3912 23.1926Z" fill="#6D7174"/>
<path d="M31.7282 23.3877L31.6928 23.3793L23.3654 21.548L22.4763 17.3813L20.2275 6.86177C20.2008 6.73754 20.2246 6.60782 20.2938 6.50108C20.3629 6.39435 20.4718 6.31932 20.5964 6.29247L41.5088 1.86034L43.3498 1.4674C43.4116 1.45438 43.4754 1.45361 43.5375 1.46515C43.5996 1.47668 43.6588 1.50029 43.7117 1.53462C43.7647 1.56895 43.8103 1.61334 43.8461 1.66524C43.8818 1.71715 43.9069 1.77556 43.92 1.83713L48.5004 23.2707H48.4054L31.7282 23.3877ZM23.4965 21.4183L31.7456 23.233L48.3091 23.116L43.7681 1.86807C43.7591 1.82657 43.7419 1.78723 43.7176 1.75233C43.6934 1.71742 43.6624 1.68762 43.6266 1.66464C43.5907 1.64165 43.5507 1.62593 43.5087 1.61836C43.4668 1.6108 43.4237 1.61155 43.3821 1.62056L20.6287 6.44717C20.5447 6.46555 20.4714 6.51633 20.4249 6.58839C20.3783 6.66046 20.3623 6.74795 20.3803 6.83175L23.4965 21.4183Z" fill="#66142E"/>
<g opacity="0.55">
<path opacity="0.55" d="M43.9153 2.24211L42.5256 2.53759H42.524L35.2351 4.08458L21.6285 6.96817C21.524 6.99045 21.4326 7.05312 21.3743 7.14244C21.3161 7.23177 21.2958 7.34045 21.3179 7.44465L23.568 17.9642L24.0617 20.2769L24.3614 21.6909L23.4173 21.4836L23.0322 19.6783L22.5384 17.3655L20.29 6.84596C20.2679 6.74176 20.2882 6.63308 20.3464 6.54376C20.4046 6.45444 20.496 6.39176 20.6005 6.36949L34.2063 3.48435L41.4967 1.93735H41.4983L43.3539 1.54287C43.4585 1.52085 43.5675 1.54106 43.6572 1.59906C43.7469 1.65706 43.8098 1.74812 43.8321 1.85227L43.9153 2.24211Z" fill="white"/>
</g>
<path d="M46.0102 23.1949L31.6979 23.3063L25.9168 22.0346L25.4137 19.6801L24.9199 17.3673L23.4121 10.31C23.9627 10.193 24.4441 9.86291 24.7504 9.39235C25.0568 8.9218 25.163 8.3493 25.0457 7.80075L33.6063 5.9852L39.8797 4.65479C39.9971 5.20331 40.3284 5.6829 40.8007 5.98809C41.273 6.29329 41.8477 6.39908 42.3983 6.28222L44.7654 17.3673L45.2592 19.6801L46.0102 23.1949Z" fill="#BDBDBD"/>
<path d="M31.702 23.3825L31.6933 23.3807L25.8634 22.0985L24.856 17.3824L23.332 10.2495L23.4081 10.2331C23.9383 10.1198 24.4017 9.80166 24.6967 9.34842C24.9917 8.89519 25.0942 8.34388 24.9817 7.81545L24.9659 7.73996L25.0417 7.72387L39.9486 4.56274L39.9651 4.63824C40.0793 5.16611 40.3987 5.62744 40.8534 5.9213C41.3081 6.21516 41.8612 6.31763 42.3915 6.20627L42.4676 6.19018L42.4838 6.26598L46.1173 23.2705L31.702 23.3825ZM25.9945 21.9689L31.7184 23.2278L45.9267 23.1171L42.349 6.37242C41.8007 6.46862 41.2362 6.3544 40.7691 6.05276C40.3019 5.75111 39.9667 5.2844 39.8309 4.74653L25.1491 7.85938C25.2448 8.40543 25.1298 8.96733 24.827 9.43241C24.5243 9.89749 24.0563 10.2314 23.5168 10.3671L25.9945 21.9689Z" fill="#66142E"/>
<g opacity="0.3">
<path opacity="0.3" d="M48.3935 23.195L31.7257 23.3126L31.6993 23.3064L27.9492 22.4819L32.412 3.86693L34.207 3.48637L39.1978 2.42822L44.2102 3.62095L47.1482 17.3675L47.642 19.6803L48.3935 23.195Z" fill="#66142E"/>
</g>
<path d="M48.392 23.6584C48.2853 23.6583 48.1819 23.6218 48.099 23.5549C48.0162 23.488 47.9589 23.3948 47.9367 23.2908L43.3894 2.01227L41.595 2.39531L41.5776 2.39871L20.7591 6.81104L23.9812 21.8874C23.9946 21.9473 23.9961 22.0092 23.9853 22.0697C23.9746 22.1301 23.952 22.1878 23.9187 22.2394C23.8855 22.2911 23.8423 22.3357 23.7916 22.3706C23.741 22.4055 23.6839 22.4301 23.6237 22.4428C23.5634 22.4556 23.5012 22.4564 23.4407 22.4451C23.3802 22.4338 23.3225 22.4106 23.271 22.3769C23.2195 22.3432 23.1752 22.2997 23.1407 22.2489C23.1062 22.1981 23.0822 22.1409 23.07 22.0808L19.8355 6.94346C19.7875 6.71915 19.8308 6.48505 19.9559 6.29249C20.0809 6.09994 20.2775 5.96464 20.5026 5.91626L41.3994 1.48567L41.4161 1.48258L43.2562 1.0915C43.4814 1.04375 43.7163 1.08689 43.9096 1.21147C44.1029 1.33605 44.2387 1.53191 44.2873 1.75609L48.8479 23.0975C48.8736 23.2178 48.8502 23.3434 48.783 23.4466C48.7158 23.5498 48.6102 23.6222 48.4895 23.6479C48.4574 23.6549 48.4248 23.6584 48.392 23.6584Z" fill="#0A0B09"/>
<path d="M46.0208 23.581C45.9319 23.5808 45.8458 23.5502 45.7768 23.4945C45.7078 23.4387 45.6601 23.361 45.6416 23.2744L42.1012 6.71165C41.5701 6.74007 41.0435 6.60014 40.5972 6.31193C40.1508 6.02372 39.8076 5.60204 39.6167 5.10742L25.4861 8.10363C25.5146 8.63278 25.3741 9.15731 25.0849 9.60199C24.7956 10.0467 24.3723 10.3886 23.8759 10.5788L26.4132 22.4523C26.4347 22.5526 26.4153 22.6573 26.3593 22.7434C26.3033 22.8295 26.2153 22.8899 26.1146 22.9113C26.0647 22.9219 26.0132 22.9226 25.9631 22.9134C25.913 22.9042 25.8651 22.8852 25.8224 22.8576C25.736 22.8018 25.6753 22.7141 25.6538 22.6138L23.0417 10.3907C23.0311 10.341 23.0304 10.2897 23.0397 10.2398C23.049 10.1898 23.0681 10.1422 23.0958 10.0996C23.1236 10.0569 23.1595 10.0202 23.2016 9.99143C23.2436 9.96266 23.2909 9.94242 23.3408 9.93187C23.7906 9.83595 24.1839 9.56615 24.4342 9.18168C24.6846 8.79722 24.7716 8.3295 24.6762 7.88118C24.6549 7.78087 24.6745 7.67625 24.7305 7.59029C24.7866 7.50432 24.8746 7.44403 24.9753 7.42264L39.8074 4.27637C39.9081 4.25526 40.0131 4.27476 40.0994 4.3306C40.1858 4.38645 40.2464 4.47408 40.268 4.57432C40.3642 5.02244 40.6349 5.41421 41.0208 5.66364C41.4067 5.91308 41.8761 5.99978 42.3261 5.90474C42.376 5.89386 42.4275 5.89289 42.4778 5.90189C42.5281 5.91089 42.5761 5.92967 42.6191 5.95718C42.662 5.98468 42.6992 6.02036 42.7283 6.06217C42.7574 6.10397 42.778 6.15109 42.7888 6.20083L46.4022 23.1126C46.4236 23.2129 46.4042 23.3176 46.3482 23.4036C46.2922 23.4897 46.2041 23.55 46.1034 23.5714C46.0763 23.5774 46.0486 23.5806 46.0208 23.581Z" fill="#0A0B09"/>
<path d="M58.2626 6.34337L55.8433 16.4313L54.2221 23.1932H29.4766L34.8524 0.771104C34.8774 0.667583 34.9427 0.578181 35.0338 0.522501C35.1249 0.466822 35.2344 0.449409 35.3384 0.47408L57.9644 5.85978C58.0682 5.88474 58.1578 5.94963 58.2137 6.04026C58.2696 6.13089 58.2871 6.23987 58.2626 6.34337Z" fill="#6D7174"/>
<g opacity="0.55">
<path opacity="0.55" d="M58.2641 6.34337L58.1508 6.8152L36.0123 1.54615C35.9084 1.52148 35.7988 1.53889 35.7077 1.59457C35.6166 1.65025 35.5514 1.73965 35.5263 1.84317L30.4082 23.1932H29.4766L34.8524 0.771104C34.8774 0.667583 34.9427 0.578181 35.0338 0.522501C35.1249 0.466822 35.2344 0.449409 35.3384 0.47408L57.966 5.85978C58.0698 5.88474 58.1594 5.94963 58.2153 6.04026C58.2711 6.13089 58.2887 6.23987 58.2641 6.34337Z" fill="white"/>
</g>
<path d="M54.2212 23.6582H29.4757C29.4053 23.6582 29.3358 23.6423 29.2724 23.6117C29.2091 23.5811 29.1535 23.5366 29.1099 23.4816C29.0663 23.4265 29.0358 23.3623 29.0207 23.2938C29.0055 23.2254 29.0062 23.1543 29.0226 23.0861L34.3984 0.662782C34.4524 0.440174 34.5927 0.247928 34.7886 0.128084C34.9845 0.0082401 35.22 -0.0294492 35.4437 0.0232559L58.0713 5.40864C58.2951 5.46217 58.4885 5.60192 58.609 5.79725C58.7296 5.99258 58.7675 6.22757 58.7144 6.4507L54.674 23.3005C54.65 23.4022 54.5922 23.4929 54.51 23.5578C54.4279 23.6227 54.3261 23.6581 54.2212 23.6582ZM30.0657 22.73H53.8548L57.7939 6.29693L35.29 0.94124L30.0657 22.73Z" fill="#0A0B09"/>
<path d="M55.0659 9.72794L51.836 23.1945H31.8809L36.1868 5.23548C36.4579 5.3 36.7391 5.31068 37.0144 5.26692C37.2896 5.22316 37.5535 5.12581 37.791 4.98043C38.0285 4.83505 38.2349 4.6445 38.3985 4.41964C38.562 4.19478 38.6795 3.94002 38.7443 3.66992L53.496 7.18005C53.3654 7.7253 53.4574 8.29989 53.7517 8.77761C54.0461 9.25534 54.5187 9.59714 55.0659 9.72794Z" fill="#BDBDBD"/>
<path d="M43.7322 16.0486C42.788 15.8687 41.813 15.9394 40.9049 16.2535C39.9967 16.5676 39.1875 17.114 38.5583 17.8381C37.929 18.5621 37.502 19.4382 37.3199 20.3786C37.1379 21.3189 37.2072 22.2905 37.521 23.1957H47.8879C48.1445 22.4551 48.2383 21.6682 48.1627 20.8884C48.0871 20.1086 47.844 19.3541 47.4499 18.6761C47.0558 17.9981 46.5198 17.4126 45.8785 16.9592C45.2371 16.5059 44.5053 16.1953 43.7329 16.0486H43.7322Z" fill="#6D7174"/>
<path d="M41.222 23.1391C40.5077 23.0033 39.9549 22.4705 39.8505 21.5562L38.9844 21.3926L39.1952 20.293L39.926 20.4322C40.0577 19.8258 40.3297 19.2704 40.5546 19.0012L41.5614 19.461C41.3204 19.7704 41.0431 20.2636 40.9403 20.8072C40.8282 21.3929 41.0127 21.7474 41.3816 21.8177C41.7335 21.8845 41.986 21.6555 42.3596 21.0244C42.8658 20.1506 43.5037 19.6392 44.3267 19.7958C45.1031 19.944 45.6344 20.5863 45.6773 21.5262L46.5469 21.6914L46.336 22.791L45.5285 22.6363C45.4305 22.9928 45.273 23.3303 45.0627 23.6348L44.0841 23.1546C44.3332 22.8212 44.5024 22.4354 44.5788 22.0268C44.6847 21.4746 44.4857 21.1605 44.1903 21.1033C43.8298 21.0346 43.6096 21.3226 43.1931 21.9968C42.6291 22.9216 42.0186 23.2907 41.222 23.1391Z" fill="#BDBDBD"/>
<path d="M44.8366 11.826C45.6988 11.826 46.3978 11.1297 46.3978 10.2707C46.3978 9.41168 45.6988 8.71533 44.8366 8.71533C43.9744 8.71533 43.2754 9.41168 43.2754 10.2707C43.2754 11.1297 43.9744 11.826 44.8366 11.826Z" fill="#6D7174"/>
<g opacity="0.3">
<path opacity="0.3" d="M57.248 16.3632L55.6269 23.1251H45.4746C45.0197 22.1979 44.7838 21.1792 44.7852 20.1472C44.7852 16.4004 47.8333 13.3621 51.5942 13.3621C52.7115 13.3616 53.8117 13.6351 54.7977 14.1585C55.7837 14.6819 56.6253 15.4391 57.248 16.3632Z" fill="#66142E"/>
</g>
<path d="M51.8316 23.5813H31.8764C31.8178 23.5813 31.76 23.568 31.7072 23.5425C31.6545 23.517 31.6082 23.48 31.5719 23.4341C31.5355 23.3883 31.5101 23.3349 31.4974 23.2778C31.4848 23.2208 31.4852 23.1617 31.4988 23.1049L35.8047 5.14552C35.8166 5.09612 35.838 5.04952 35.8679 5.00839C35.8979 4.96727 35.9356 4.93242 35.979 4.90584C36.0225 4.87926 36.0707 4.86147 36.1211 4.85349C36.1714 4.84551 36.2229 4.84749 36.2724 4.85932C36.7198 4.96497 37.1909 4.88967 37.5826 4.64993C37.9743 4.41019 38.2546 4.02555 38.3622 3.58027C38.3862 3.48046 38.4489 3.39421 38.5367 3.34049C38.6244 3.28676 38.73 3.26996 38.8302 3.29377L53.5801 6.80389C53.6297 6.81567 53.6764 6.83707 53.7177 6.86686C53.759 6.89665 53.794 6.93426 53.8207 6.97753C53.8474 7.02079 53.8653 7.06888 53.8734 7.11904C53.8814 7.16919 53.8795 7.22044 53.8676 7.26985C53.7613 7.71551 53.8368 8.18498 54.0775 8.57527C54.3182 8.96557 54.7044 9.24482 55.1515 9.35179C55.2011 9.36356 55.2479 9.38496 55.2892 9.41476C55.3305 9.44455 55.3655 9.48215 55.3922 9.52542C55.4189 9.56869 55.4368 9.61678 55.4448 9.66693C55.4529 9.71709 55.4509 9.76833 55.4391 9.81774L52.2092 23.2846C52.1889 23.3692 52.1406 23.4444 52.0721 23.4983C52.0036 23.5521 51.9189 23.5814 51.8316 23.5813ZM32.3684 22.8078H51.5254L54.6 9.98544C54.1084 9.78354 53.6937 9.43168 53.4154 8.98037C53.1371 8.52906 53.0095 8.0015 53.0509 7.47343L38.9982 4.12852C38.7955 4.61816 38.4423 5.03123 37.9893 5.30844C37.5363 5.58565 37.0068 5.71275 36.4768 5.67149L32.3684 22.8078Z" fill="#0A0B09"/>
<g opacity="0.3">
<path opacity="0.3" d="M55.3379 37.5676V64.8504C55.3379 66.1777 54.2587 67.2575 52.9326 67.2575C52.7682 67.2574 52.6043 67.2403 52.4435 67.2064L52.4062 67.2003L12.3375 57.8069C12.1647 57.7667 11.9966 57.7086 11.8359 57.6337C29.0054 58.2138 46.1344 51.2523 55.3379 37.5676Z" fill="#0F50A4"/>
</g>
<path d="M61.4994 21.0947C60.6354 25.024 56.7372 27.5116 52.7931 26.6508C51.8321 26.4421 50.9234 26.0418 50.1216 25.4742C49.3199 24.9065 48.6417 24.1832 48.1278 23.3477C47.9201 23.0124 47.7408 22.6606 47.5915 22.2958C47.0483 20.9809 46.906 19.5358 47.1824 18.1409C47.1933 18.0861 47.2039 18.0326 47.216 17.9784C48.0803 14.0491 51.9785 11.56 55.9226 12.421C57.7344 12.8156 59.3276 13.882 60.3792 15.4039C60.6028 15.7295 60.8001 16.0723 60.9692 16.4289C61.6586 17.8836 61.8442 19.5249 61.4972 21.0959L61.4994 21.0947Z" fill="#E28112"/>
<g opacity="0.55">
<path opacity="0.55" d="M61.4964 21.095C61.4573 21.2729 61.4116 21.4483 61.3607 21.621C61.8998 17.8797 59.4523 14.3015 55.6867 13.4798C51.9212 12.658 48.1966 14.8888 47.1152 18.5118C47.1413 18.3345 47.1733 18.1563 47.2124 17.9784C48.0767 14.0491 51.9749 11.56 55.919 12.421C59.8632 13.2821 62.361 17.1644 61.4964 21.095Z" fill="white"/>
</g>
<path d="M61.4992 21.095C60.6352 25.0243 56.737 27.5119 52.7929 26.6511C48.8487 25.7904 46.3518 21.9068 47.2158 17.9775C47.2894 17.6421 47.3867 17.3123 47.5068 16.9905C47.2351 20.5526 49.6307 23.8616 53.2336 24.6478C56.8364 25.434 60.401 23.4263 61.6498 20.0773C61.6237 20.4197 61.5733 20.7597 61.4992 21.095Z" fill="#E28112"/>
<path d="M53.2693 24.4968C50.5233 23.8975 48.7789 21.1844 49.3804 18.4484C49.982 15.7123 52.7053 13.9748 55.4516 14.5741C58.1979 15.1734 59.942 17.8868 59.3404 20.6222C58.7389 23.3576 56.0156 25.0961 53.2693 24.4968Z" fill="#E28112"/>
<g opacity="0.55">
<path opacity="0.55" d="M59.3355 20.6231C59.3045 20.7567 59.2712 20.8882 59.2321 21.0163C59.5896 18.4211 57.884 15.9375 55.2724 15.3676C52.6609 14.7977 50.0693 16.3432 49.3047 18.8496C49.3233 18.7169 49.3466 18.5829 49.3761 18.4492C49.9777 15.7135 52.701 13.9747 55.447 14.574C58.193 15.1733 59.9371 17.8874 59.3355 20.6231Z" fill="white"/>
</g>
<path d="M55.9007 21.0122C55.7579 21.662 55.252 22.157 54.4048 22.2303L54.2308 23.0202L53.2203 22.7999L53.3669 22.1332C52.81 21.9973 52.3038 21.7347 52.0625 21.5215L52.5122 20.6097C52.7917 20.8383 53.2405 21.1047 53.7402 21.2139C54.2784 21.3315 54.6097 21.1709 54.6846 20.8343C54.7551 20.5135 54.5498 20.2774 53.9762 19.9182C53.1815 19.4321 52.7249 18.8353 52.8892 18.0844C53.0445 17.3746 53.652 16.9046 54.5212 16.8889L54.6954 16.0962L55.706 16.3168L55.5439 17.0538C55.8707 17.1529 56.1785 17.3061 56.4545 17.5067L55.9855 18.3919C55.6835 18.1556 55.3315 17.9909 54.956 17.9105C54.4482 17.7997 54.1523 17.9752 54.0933 18.244C54.0209 18.5726 54.2815 18.7818 54.8939 19.1803C55.7349 19.7168 56.0607 20.2854 55.9007 21.0122Z" fill="#0A0B09"/>
<g opacity="0.27">
<path opacity="0.27" d="M60.3792 15.4033L47.5915 22.2951C47.0483 20.9803 46.906 19.5351 47.1824 18.1402L57.1142 12.7876C58.4361 13.3222 59.5714 14.2317 60.3792 15.4033Z" fill="#FCE5E5"/>
</g>
<g opacity="0.27">
<path opacity="0.27" d="M61.505 17.9969L49.4791 24.8891C48.8397 24.3693 48.5552 24.0416 48.127 23.348L60.9699 16.428C61.3177 17.1613 61.4199 17.1739 61.505 17.9969Z" fill="#FCE5E5"/>
</g>
<path d="M54.3545 25.0018C53.2195 25.0016 52.1126 24.6507 51.1863 23.9973C50.26 23.3439 49.56 22.4203 49.1828 21.3539C48.8056 20.2874 48.7698 19.1307 49.0804 18.0431C49.391 16.9556 50.0325 15.9908 50.9167 15.2818C51.8009 14.5729 52.884 14.1547 54.0168 14.0849C55.1496 14.0151 56.2762 14.2972 57.2413 14.8922C58.2064 15.4872 58.9625 16.3659 59.4051 17.4071C59.8478 18.4482 59.9554 19.6006 59.7129 20.7052C59.1517 23.2568 56.8753 25.0018 54.3545 25.0018ZM54.348 14.8421C53.1052 14.853 51.9171 15.3526 51.0425 16.2323C50.1679 17.1119 49.6776 18.3003 49.6784 19.5384C49.6793 20.7766 50.1712 21.9642 51.0471 22.8427C51.9229 23.7211 53.1117 24.2191 54.3545 24.2283C56.5188 24.2283 58.4729 22.7305 58.9545 20.5397C59.2202 19.3241 58.9912 18.0533 58.3176 17.0058C57.6441 15.9583 56.5811 15.2197 55.3616 14.9519C55.0287 14.8792 54.6888 14.8424 54.348 14.8421Z" fill="#0A0B09"/>
<path d="M54.361 27.2846C53.8008 27.2844 53.2423 27.2239 52.6951 27.1042C51.5031 26.8477 50.3894 26.3126 49.4457 25.543C48.769 24.9927 48.19 24.3329 47.733 23.5913C46.7124 21.9354 46.3541 19.9578 46.7289 18.0509C46.7414 17.9872 46.7522 17.933 46.7643 17.8779C47.6821 13.7045 51.8361 11.052 56.0256 11.9666C57.9527 12.3867 59.6473 13.521 60.7663 15.1395C61.0042 15.4856 61.2144 15.8499 61.3949 16.2288C62.1291 17.7762 62.3271 19.5225 61.958 21.1941C61.1611 24.8109 57.934 27.2846 54.361 27.2846ZM54.3588 12.7144C51.2135 12.7144 48.3731 14.8922 47.6727 18.0766C47.6622 18.1251 47.6525 18.1731 47.6417 18.2217C47.4472 19.2099 47.4748 20.2287 47.7223 21.205C47.9699 22.1813 48.4313 23.0909 49.0735 23.8686C49.7157 24.6462 50.5227 25.2725 51.4366 25.7027C52.3505 26.1328 53.3487 26.3561 54.3594 26.3564C57.5048 26.3564 60.3449 24.1791 61.0449 20.9954C61.37 19.5252 61.1964 17.9891 60.5514 16.6277C60.3923 16.2932 60.2069 15.9719 59.9968 15.6667C59.3669 14.757 58.5248 14.0132 57.5427 13.4992C56.5607 12.9853 55.4681 12.7165 54.3588 12.7159V12.7144Z" fill="#0A0B09"/>
<path d="M71.695 48.7145L70.3382 47.579C70.1838 47.4498 70.0849 47.2666 70.0618 47.0671C70.0387 46.8675 70.0932 46.6668 70.214 46.506C70.2224 46.4945 70.2326 46.4825 70.2416 46.4716L76.782 38.7156C76.9167 38.5561 77.1094 38.4563 77.3178 38.4383C77.5262 38.4202 77.7333 38.4854 77.8935 38.6194L79.2504 39.7552C79.4105 39.8893 79.5107 40.0812 79.5288 40.2888C79.5469 40.4964 79.4815 40.7026 79.347 40.8622L72.8062 48.6195C72.7395 48.6984 72.6579 48.7635 72.5659 48.811C72.474 48.8585 72.3736 48.8875 72.2704 48.8963C72.1672 48.9051 72.0633 48.8936 71.9646 48.8624C71.8658 48.8312 71.7743 48.7809 71.695 48.7145Z" fill="#E28112"/>
<path d="M72.201 48.9756C71.9975 48.9758 71.8003 48.9043 71.6445 48.7738L70.2877 47.638C70.1181 47.4961 70.0096 47.2949 69.9842 47.0758C69.9589 46.8567 70.0187 46.6362 70.1513 46.4595C70.1603 46.4475 70.1718 46.4335 70.1824 46.4215L76.7228 38.6658C76.8708 38.4908 77.0825 38.3814 77.3113 38.3616C77.5402 38.3419 77.7676 38.4133 77.9436 38.5603L79.3005 39.6958C79.4761 39.8432 79.5859 40.0541 79.6058 40.2821C79.6256 40.5101 79.5539 40.7366 79.4064 40.912L72.8656 48.668C72.7842 48.7646 72.6825 48.8423 72.5677 48.8954C72.4528 48.9486 72.3277 48.9759 72.201 48.9756ZM71.7445 48.6553C71.889 48.7759 72.0756 48.8346 72.2634 48.8183C72.4512 48.8021 72.6249 48.7123 72.7464 48.5687L79.2868 40.8127C79.408 40.6687 79.4669 40.4827 79.4506 40.2956C79.4343 40.1084 79.3441 39.9353 79.1999 39.8143L77.8421 38.6785C77.6975 38.5579 77.5109 38.4993 77.3231 38.5156C77.1353 38.5319 76.9616 38.6218 76.8402 38.7654L70.2995 46.5214C70.2914 46.531 70.2824 46.5415 70.2752 46.5524C70.1661 46.6973 70.1169 46.8783 70.1375 47.0583C70.1582 47.2383 70.2473 47.4035 70.3864 47.5202L71.7445 48.6553Z" fill="#66142E"/>
<path d="M73.3449 42.8094L70.5156 46.1638L73.0802 48.3107L75.9094 44.9563L73.3449 42.8094Z" fill="#F89E1D"/>
<g opacity="0.55">
<path opacity="0.55" d="M76.4466 39.1303L75.0723 40.7598L77.6368 42.9066L79.0112 41.2772L76.4466 39.1303Z" fill="#FCE5E5"/>
</g>
<path d="M72.2032 49.3621C71.9084 49.3624 71.623 49.2585 71.3979 49.0688L70.0414 47.9333C69.9152 47.8277 69.8111 47.6984 69.7351 47.5527C69.6591 47.4071 69.6127 47.2479 69.5984 47.0844C69.5842 46.9208 69.6024 46.7561 69.6521 46.5996C69.7018 46.4431 69.7819 46.2978 69.888 46.1722L76.4281 38.4168C76.6421 38.1629 76.9485 38.004 77.28 37.975C77.6115 37.946 77.941 38.0493 78.1961 38.2621L79.5533 39.3994C79.8081 39.6128 79.9674 39.9182 79.9961 40.2485C80.0249 40.5788 79.9208 40.907 79.7067 41.1608L73.1666 48.9162C73.0609 49.0423 72.9312 49.1462 72.7849 49.222C72.6386 49.2977 72.4787 49.3437 72.3144 49.3574C72.2768 49.3621 72.2399 49.3621 72.2032 49.3621ZM77.3896 38.8991C77.3423 38.8989 77.2955 38.9091 77.2526 38.9289C77.2097 38.9486 77.1716 38.9776 77.1412 39.0136L70.601 46.7693C70.5459 46.8347 70.5191 46.9192 70.5265 47.0042C70.5339 47.0893 70.5749 47.1679 70.6405 47.2229L71.997 48.3581C72.0627 48.4129 72.1476 48.4397 72.233 48.4326C72.2753 48.429 72.3164 48.4171 72.354 48.3976C72.3916 48.3782 72.425 48.3515 72.4523 48.3191L78.9943 40.5643C79.0494 40.4989 79.0762 40.4145 79.0688 40.3294C79.0614 40.2444 79.0204 40.1657 78.9548 40.1107L77.5983 38.9753C77.5399 38.9262 77.4657 38.8995 77.3893 38.9001L77.3896 38.8991Z" fill="#0A0B09"/>
<path d="M10.6845 37.5736C8.10682 34.7819 5.10803 33.2711 3.62603 33.9271C3.62603 33.9271 1.55861 34.3713 0.822893 36.6692C-0.0466805 38.1674 1.18842 41.2211 3.82323 44.0762C5.84189 46.2618 8.11737 47.6625 9.72391 47.8531C9.72391 47.8531 12.1988 48.5337 13.6991 44.9562C14.5628 43.5759 13.3044 40.413 10.6845 37.5736Z" fill="#E28112"/>
<path d="M10.1871 47.9788C10.0207 47.9816 9.85453 47.9647 9.69206 47.9287C8.01503 47.7298 5.73488 46.2731 3.75629 44.1293C1.10005 41.2519 -0.13816 38.1731 0.741663 36.6385C1.46092 34.4062 3.44355 33.8892 3.59138 33.8539C5.14202 33.1763 8.14298 34.7168 10.7318 37.5218C13.348 40.3562 14.6477 43.5702 13.7551 44.9981C12.6548 47.6212 11.0045 47.9785 10.1871 47.9788ZM4.41716 33.852C4.12989 33.852 3.87088 33.8997 3.64759 33.9984L3.63268 34.0033C3.61219 34.0077 1.59975 34.4674 0.887005 36.6951L0.880172 36.7102C0.0258157 38.1842 1.25564 41.1925 3.87058 44.026C5.79606 46.1119 8.09236 47.5841 9.72156 47.7787C9.75759 47.787 12.1607 48.3975 13.6176 44.9291C14.4803 43.5473 13.1881 40.4134 10.6175 37.6273C8.49205 35.3238 6.01532 33.852 4.41716 33.852Z" fill="#66142E"/>
<g opacity="0.55">
<path opacity="0.55" d="M2.93037 35.527C2.93037 35.527 1.69961 36.0121 1.51079 37.6761C1.51079 37.6761 0.961717 39.285 1.91173 40.758C1.91173 40.758 0.638421 38.1591 0.552396 37.9471C0.46637 37.7352 1.41421 35.01 1.41421 35.01L2.32384 34.5459L2.93037 35.527Z" fill="white"/>
</g>
<g opacity="0.55">
<path opacity="0.55" d="M7.18244 35.3271C7.18244 35.3271 5.78305 34.7788 4.63242 34.7701C3.99608 34.7655 3.48613 35.272 3.50756 35.9056C3.53551 36.7364 3.81812 38.1701 4.98429 40.3582L2.93457 36.8824C2.93457 36.8824 2.72184 34.5545 3.32868 33.9867C3.32899 33.9871 5.83367 33.5694 7.18244 35.3271Z" fill="white"/>
</g>
<path d="M11.2781 42.8897C11.94 42.2806 11.0587 40.2577 9.30965 38.3714C7.56064 36.4851 5.60627 35.4497 4.94444 36.0588C4.28261 36.6679 5.16395 38.6908 6.91295 40.5771C8.66195 42.4634 10.6163 43.4988 11.2781 42.8897Z" fill="#E28112"/>
<path d="M10.7478 43.1392C9.82486 43.1392 8.28571 42.1782 6.84781 40.6275C5.04251 38.6804 4.17946 36.6477 4.88351 36.0001C5.58755 35.3525 7.55434 36.3698 9.3584 38.3169C11.1625 40.2639 12.0267 42.2967 11.3227 42.9446C11.1795 43.0764 10.9839 43.1392 10.7478 43.1392ZM5.45556 35.9593C5.26177 35.9593 5.10276 36.0088 4.98972 36.114C4.37108 36.6833 5.27481 38.7024 6.96272 40.5229C8.65062 42.3434 10.6 43.4003 11.2174 42.8313C11.8348 42.2623 10.9326 40.2429 9.24442 38.4221C7.86614 36.9364 6.31613 35.9593 5.45556 35.9593Z" fill="#66142E"/>
<path d="M10.7481 43.3036C9.67696 43.3036 8.01669 42.1279 6.72817 40.7371C5.11325 38.9968 3.88063 36.7035 4.77163 35.8824C5.66263 35.0612 7.8611 36.4678 9.47478 38.2081C11.0885 39.9485 12.3226 42.2421 11.4313 43.0632C11.2503 43.2287 11.0186 43.3036 10.7481 43.3036ZM5.45456 36.12C5.30114 36.12 5.17971 36.1571 5.09741 36.2329C4.61387 36.6782 5.30859 38.5048 7.07942 40.4144C8.79931 42.269 10.6239 43.1579 11.1071 42.7139C11.5903 42.2699 10.8956 40.442 9.12478 38.5321C7.69868 36.9934 6.19991 36.12 5.45456 36.12Z" fill="#0A0B09"/>
<path d="M9.21705 39.1305C9.52295 39.4513 9.65836 39.8765 9.48134 40.2985L9.8683 40.7103L9.48382 41.1156L9.15214 40.7582C8.92201 40.9776 8.62947 41.1212 8.43785 41.1527L8.05834 40.5299C8.26952 40.49 8.54748 40.3848 8.74841 40.1911C8.96021 39.9869 8.96332 39.7679 8.80245 39.5965C8.64996 39.4343 8.46611 39.43 8.11052 39.5429C7.60958 39.7078 7.13908 39.6701 6.78069 39.2775C6.44559 38.9105 6.39187 38.4498 6.66175 38.0751L6.30273 37.6884L6.73224 37.3728L7.06175 37.723C7.21371 37.6296 7.38248 37.5665 7.55865 37.5374L7.87915 38.0634C7.6786 38.0911 7.48924 38.1721 7.331 38.2979C7.1192 38.4678 7.12138 38.6658 7.24622 38.8007C7.4015 38.9665 7.59001 38.9371 7.9807 38.8316C8.49623 38.6884 8.87916 38.7756 9.21705 39.1305Z" fill="#0A0B09"/>
<g opacity="0.27">
<path opacity="0.27" d="M13.845 40.7565L1.38086 39.6034C1.62262 38.4033 2.21403 37.3007 3.08119 36.4336L12.7602 37.3308C13.4507 38.3423 13.8279 39.5334 13.845 40.7565Z" fill="#FCE5E5"/>
</g>
<g opacity="0.27">
<path opacity="0.27" d="M13.4132 43.15L1.49543 42.3605C1.28673 41.6838 1.24046 41.3138 1.26624 40.6133L13.7819 41.772C13.68 42.4626 13.7468 42.5204 13.4132 43.15Z" fill="#FCE5E5"/>
</g>
<path d="M12.2779 46.0317C11.6646 46.0317 10.9447 45.8494 10.1494 45.4859C8.69809 44.8225 7.12882 43.6224 5.72974 42.107C2.71729 38.8428 1.5061 35.2327 2.97444 33.8884C4.44277 32.5441 7.95119 34.0484 10.9636 37.3125C12.3612 38.8286 13.4314 40.4869 13.9733 41.9844C14.5547 43.5893 14.4646 44.8491 13.7193 45.532C13.3547 45.8661 12.8652 46.0317 12.2779 46.0317ZM4.40333 34.1709C4.01947 34.1709 3.71078 34.2662 3.50084 34.4583C2.53406 35.3441 3.4468 38.4873 6.30242 41.5816C7.63318 43.0231 9.11456 44.1595 10.4736 44.7808C11.709 45.3454 12.7 45.4107 13.1925 44.9596C13.6851 44.5085 13.7028 43.519 13.2416 42.2456C12.7338 40.844 11.7199 39.2781 10.391 37.8366C8.15616 35.4144 5.78875 34.1709 4.40333 34.1709Z" fill="#0A0B09"/>
<path d="M10.1749 48.4386C9.99141 48.4399 9.80825 48.4236 9.62796 48.3898C7.83508 48.1667 5.4568 46.6571 3.41454 44.444C1.80211 42.6971 0.73222 41.0286 0.235321 39.4847C-0.548538 37.0574 0.685946 34.4489 3.0456 33.5467C3.1753 33.4963 3.30745 33.4524 3.44156 33.4152C5.20338 32.6828 8.33229 34.2345 11.0774 37.2084C13.8525 40.2155 15.1476 43.5647 14.1777 45.2045C12.9715 48.038 11.1227 48.4386 10.1749 48.4386ZM9.85405 47.3313C9.95125 47.3561 11.9097 47.7954 13.1892 44.7491C13.2004 44.7223 13.2138 44.6964 13.2292 44.6717C13.8619 43.6597 12.9125 40.7987 10.2758 37.9417C7.69813 35.1488 4.9276 33.9415 3.83784 34.4232C3.80776 34.4362 3.77658 34.4466 3.74467 34.4542C3.63933 34.4826 3.53566 34.5167 3.43411 34.5566C1.61297 35.253 0.662032 37.2718 1.26918 39.1524C1.71887 40.5447 2.71019 42.0796 4.21517 43.7101C6.06954 45.7193 8.25248 47.1345 9.77858 47.3158C9.80406 47.3193 9.82927 47.3245 9.85405 47.3313Z" fill="#0A0B09"/>
</svg>
