<svg width="223" height="120" viewBox="0 0 223 120" fill="none" xmlns="http://www.w3.org/2000/svg">
<path d="M44.0911 95.9648C39.3282 93.8115 34.1641 88.0346 35.6279 82.5993C36.36 82.4121 37.1303 82.7104 37.5449 83.3418C37.5449 83.3418 45.8075 96.2396 43.4892 84.374C42.3969 78.7976 40.517 73.4068 40.3684 67.6448C40.1232 57.1751 49.7381 54.2718 52.5022 65.8404C52.8663 67.37 54.2632 79.8074 57.4434 78.3818C57.853 78.1665 58.1854 77.8291 58.3945 77.4165C60.0069 74.7731 60.4899 70.8896 63.4471 69.9912C66.0403 69.1744 68.5964 71.4243 69.9933 73.7484C72.8243 78.4709 76.6137 90.2102 70.8181 94.1902C65.0224 98.1702 50.3994 98.8013 44.1431 96.0168L44.0911 95.9648Z" fill="url(#paint0_linear)"/>
<path d="M164.419 108.52C162.324 103.731 162.376 95.9865 167.131 92.9273C167.803 93.2883 168.166 94.0408 168.03 94.7911C168.03 94.7911 165.496 109.902 171.745 99.5433C174.717 94.6648 176.947 89.4152 180.662 85.0417C187.49 77.0669 196.592 81.3959 190.879 91.8284C190.135 93.2095 182.809 103.367 186.123 104.451C186.572 104.562 187.043 104.533 187.475 104.37C190.448 103.494 193.42 100.939 196.228 102.231C198.695 103.367 199.082 106.738 198.561 109.404C197.492 114.802 192.247 120.839 185.277 119.903C178.159 118.938 167.183 114.832 164.441 108.572L164.419 108.52Z" fill="url(#paint1_linear)"/>
<path d="M223 119.903C194.98 100.694 155.384 88.717 111.5 88.717C67.6163 88.717 28.0199 100.694 0 119.903H223Z" fill="url(#paint2_linear)"/>
<path d="M176.627 61.9861C174.851 64.2137 173.714 67.3694 174.777 70.191C175.512 72.1365 177.727 72.1513 177.571 74.8541C177.418 76.2037 176.955 77.4997 176.218 78.641C174.963 80.8353 173.424 82.855 171.641 84.6481C173.127 85.8065 173.883 87.6682 173.625 89.5339C173.334 91.3857 172.456 93.0954 171.121 94.4123C170.728 94.8927 170.215 95.2614 169.635 95.4816C169.073 95.6114 168.488 95.6114 167.926 95.4816C165.161 95.0127 162.477 94.1552 159.953 92.9347C158.378 92.1847 156.773 91.16 156.238 89.5265C155.625 87.6516 156.6 87.0558 157.664 86.4684L157.938 86.3167C158.487 86.0106 159.026 85.6778 159.351 85.1456C160.131 83.8684 160.154 82.1606 160.429 80.7349C160.83 78.6336 160.236 74.8021 162.866 73.9779C163.884 73.6586 164.991 73.7329 166.009 73.4062C168.22 72.7028 169.136 70.6241 170.022 68.5222L170.183 68.1401C170.694 66.9312 171.221 65.7418 172.005 64.83C173.12 63.5305 175.884 62.892 176.627 61.9861ZM170.207 74.4531C170.207 74.4531 162.205 83.7793 162.465 92.4001H165.05C165.05 92.4001 165.987 82.0047 170.207 74.4531Z" fill="url(#paint3_linear)"/>
<path d="M62.6758 13.2384C62.7171 10.36 60.6598 7.87815 57.8221 7.38305C54.9845 6.88795 52.2073 8.52635 51.2702 11.2484C49.4823 11.2134 47.8179 12.1565 46.9302 13.7078C46.0424 15.259 46.073 17.1709 47.0098 18.693C47.9467 20.2151 49.6403 21.1047 51.4262 21.0126H62.1928C64.237 20.9854 65.9148 19.3884 66.0415 17.3493C66.1682 15.3102 64.7009 13.5181 62.6758 13.2384Z" fill="url(#paint4_linear)"/>
<path d="M107.175 7.34273V7.3056C107.171 3.74796 104.605 0.709501 101.097 0.106506C97.5883 -0.49649 94.1544 1.5109 92.961 4.86268C89.5857 4.91599 86.8927 7.69354 86.9461 11.0665C86.9994 14.4395 89.7789 17.1306 93.1542 17.0773H106.529C109.106 17.0819 111.241 15.0813 111.402 12.5113C111.564 9.94126 109.695 7.68972 107.138 7.37243L107.175 7.34273Z" fill="url(#paint5_linear)"/>
<path fill-rule="evenodd" clip-rule="evenodd" d="M102.01 60.0283H84.5899C83.7534 60.0283 83.0752 60.8861 83.0752 61.9441C83.0752 63.0022 83.7534 63.8599 84.5899 63.8599H102.01C102.846 63.8599 103.524 63.0022 103.524 61.9441C103.524 60.8861 102.846 60.0283 102.01 60.0283ZM94.9276 70.4904H85.1365C83.9981 70.4904 83.0752 71.4126 83.0752 72.5503C83.0752 73.6879 83.9981 74.6101 85.1365 74.6101H94.9276C96.066 74.6101 96.9888 73.6879 96.9888 72.5503C96.9888 71.4126 96.066 70.4904 94.9276 70.4904ZM85.1365 80.7928H94.9276C96.066 80.7928 96.9888 81.7151 96.9888 82.8527C96.9888 83.9903 96.066 84.9126 94.9276 84.9126H85.1365C83.9981 84.9126 83.0752 83.9903 83.0752 82.8527C83.0752 81.7151 83.9981 80.7928 85.1365 80.7928Z" fill="white"/>
<path fill-rule="evenodd" clip-rule="evenodd" d="M72.0345 30H136.396C137.996 30 139.531 30.6358 140.663 31.7675C141.795 32.8991 142.43 34.434 142.43 36.0345V97.7874C142.431 98.5801 142.275 99.3651 141.972 100.098C141.669 100.83 141.224 101.496 140.664 102.056C140.104 102.617 139.438 103.062 138.706 103.365C137.974 103.668 137.189 103.825 136.396 103.825H72.0345C71.2418 103.825 70.4569 103.668 69.7246 103.365C68.9922 103.062 68.3269 102.617 67.7665 102.056C67.2061 101.496 66.7617 100.83 66.4586 100.098C66.1555 99.3651 65.9996 98.5801 66 97.7874V36.0345C66 34.434 66.6358 32.8991 67.7675 31.7675C68.8991 30.6358 70.434 30 72.0345 30V30Z" fill="white" stroke="#E0E4EC" stroke-width="2.5"/>
<path opacity="0.6" fill-rule="evenodd" clip-rule="evenodd" d="M121.416 87.3916H123.427C124.538 87.3916 125.439 86.9035 125.439 86.2979V53.5539C125.439 52.951 124.538 52.4602 123.427 52.4602H121.416C120.304 52.4602 119.403 52.9483 119.403 53.5539V86.2979C119.403 86.9035 120.304 87.3916 121.416 87.3916Z" fill="#CCD2DF"/>
<path opacity="0.6" fill-rule="evenodd" clip-rule="evenodd" d="M103.308 87.3916H105.319C106.431 87.3916 107.332 86.9692 107.332 86.4483V58.1488C107.332 57.628 106.431 57.2055 105.319 57.2055H103.308C102.197 57.2055 101.296 57.628 101.296 58.1488V86.4483C101.296 86.9692 102.197 87.3916 103.308 87.3916Z" fill="#CCD2DF"/>
<path opacity="0.6" fill-rule="evenodd" clip-rule="evenodd" d="M85.0046 87.3916H87.0156C88.1271 87.3916 89.028 87.1182 89.028 86.7764V68.3052C89.028 67.9648 88.1271 67.69 87.0156 67.69H85.0046C83.8931 67.69 82.9922 67.9634 82.9922 68.3052V86.7764C82.9922 87.1182 83.8931 87.3916 85.0046 87.3916Z" fill="#CCD2DF"/>
<path d="M86.0098 61.6813L104.694 50.0607L122.925 43.4575" stroke="#E2E6EF" stroke-width="1.6"/>
<path d="M104.318 52.448C105.828 52.448 107.052 51.2238 107.052 49.7137C107.052 48.2037 105.828 46.9795 104.318 46.9795C102.808 46.9795 101.584 48.2037 101.584 49.7137C101.584 51.2238 102.808 52.448 104.318 52.448Z" fill="#E2E6EF"/>
<path d="M123.754 45.6123C125.264 45.6123 126.488 44.3881 126.488 42.878C126.488 41.368 125.264 40.1438 123.754 40.1438C122.244 40.1438 121.02 41.368 121.02 42.878C121.02 44.3881 122.244 45.6123 123.754 45.6123Z" fill="#E2E6EF"/>
<path d="M85.1796 64.7519C86.6896 64.7519 87.9138 63.5278 87.9138 62.0177C87.9138 60.5076 86.6896 59.2834 85.1796 59.2834C83.6695 59.2834 82.4453 60.5076 82.4453 62.0177C82.4453 63.5278 83.6695 64.7519 85.1796 64.7519Z" fill="#E2E6EF"/>
<path d="M136.406 109.293C145.844 109.293 153.495 101.336 153.495 91.5207C153.495 81.7051 145.844 73.748 136.406 73.748C126.968 73.748 119.317 81.7051 119.317 91.5207C119.317 101.336 126.968 109.293 136.406 109.293Z" fill="white"/>
<path d="M135.874 110.37C146.35 110.37 154.873 101.847 154.873 91.3705C154.873 86.2913 152.898 81.5193 149.311 77.9329C145.724 74.3461 140.953 72.3708 135.874 72.3708C125.397 72.3708 116.874 80.8939 116.874 91.3705C116.874 96.4498 118.849 101.222 122.436 104.808C126.022 108.395 130.794 110.37 135.874 110.37ZM135.874 107.204C132.174 107.204 128.67 105.946 125.85 103.633L148.137 81.3465C150.449 84.1664 151.707 87.6705 151.707 91.3705C151.707 100.101 144.604 107.204 135.874 107.204ZM135.874 75.5375C139.573 75.5375 143.078 76.7953 145.897 79.1076L123.611 101.395C121.298 98.5746 120.041 95.0706 120.041 91.3705C120.041 82.6403 127.143 75.5375 135.874 75.5375Z" fill="#E0E4EC"/>
<defs>
<linearGradient id="paint0_linear" x1="17.2837" y1="-14.771" x2="63.5982" y2="97.0092" gradientUnits="userSpaceOnUse">
<stop stop-color="#D2D2D2"/>
<stop offset="1" stop-color="#D2D2D2" stop-opacity="0"/>
</linearGradient>
<linearGradient id="paint1_linear" x1="205.54" y1="37.6003" x2="178.628" y2="100.985" gradientUnits="userSpaceOnUse">
<stop stop-color="#D2D2D2"/>
<stop offset="1" stop-color="#D2D2D2" stop-opacity="0"/>
</linearGradient>
<linearGradient id="paint2_linear" x1="111.5" y1="19.7465" x2="111.5" y2="119.903" gradientUnits="userSpaceOnUse">
<stop stop-color="#D2D2D2"/>
<stop offset="1" stop-color="#D2D2D2" stop-opacity="0"/>
</linearGradient>
<linearGradient id="paint3_linear" x1="177.596" y1="29.1389" x2="148.936" y2="89.8687" gradientUnits="userSpaceOnUse">
<stop stop-color="#D2D2D2"/>
<stop offset="1" stop-color="#D2D2D2" stop-opacity="0"/>
</linearGradient>
<linearGradient id="paint4_linear" x1="56.1671" y1="-24.286" x2="56.1671" y2="21.0192" gradientUnits="userSpaceOnUse">
<stop stop-color="#D2D2D2"/>
<stop offset="1" stop-color="#D2D2D2" stop-opacity="0"/>
</linearGradient>
<linearGradient id="paint5_linear" x1="99.1786" y1="-28.8966" x2="99.1786" y2="17.0781" gradientUnits="userSpaceOnUse">
<stop stop-color="#D2D2D2"/>
<stop offset="1" stop-color="#D2D2D2" stop-opacity="0"/>
</linearGradient>
</defs>
</svg>
