<svg width="37" height="34" viewBox="0 0 37 34" fill="none" xmlns="http://www.w3.org/2000/svg">
<path d="M30.3386 0H3.65952L0 12.2235V12.418C0 13.6064 0.468828 14.7159 1.31989 15.5423C1.72471 15.9353 2.20081 16.2475 2.72266 16.4621V30.0156C2.72266 32.2126 4.51005 34 6.70703 34H22.47C21.8187 33.3859 21.008 32.5747 20.1984 31.6399C20.1126 31.5411 20.0284 31.4423 19.9452 31.3438H6.70703C5.9747 31.3438 5.37891 30.748 5.37891 30.0156V27.3009H17.2385C16.7976 26.3967 16.4815 25.5106 16.2905 24.6447H5.37891V16.702C6.2072 16.5247 6.96755 16.1143 7.57031 15.5191C8.40115 16.3409 9.52283 16.8014 10.6914 16.8005C11.9159 16.8005 13.0268 16.3033 13.8319 15.5C14.3352 15.9978 14.9488 16.3699 15.6228 16.586C16.2969 16.8021 17.0124 16.8562 17.7113 16.7439C18.7002 15.2125 20.0755 13.969 21.6984 13.1389C21.578 12.8939 21.5155 12.6245 21.5156 12.3516V10.957H18.8594V12.2852C18.8594 13.3105 18.0253 14.1445 17 14.1445C15.9747 14.1445 15.1406 13.3105 15.1406 12.2852V10.957H12.4844V12.3516C12.4838 12.8269 12.2947 13.2826 11.9586 13.6188C11.6225 13.9549 11.1668 14.144 10.6914 14.1445C10.2161 14.144 9.76033 13.9549 9.42421 13.6188C9.08808 13.2826 8.899 12.8269 8.89844 12.3516V10.957H6.24219V12.3516C6.24163 12.8269 6.05254 13.2826 5.71642 13.6188C5.38029 13.9549 4.92457 14.144 4.44922 14.1445C3.5028 14.1445 2.74922 13.4725 2.66422 12.5858L5.63736 2.65625H28.3645L31.336 12.521C31.3137 12.7566 31.2446 12.9853 31.1328 13.1939C31.9219 13.6084 32.654 14.1233 33.311 14.7257C33.7618 14.016 34.0008 13.1924 34 12.3516V12.1561L30.3386 0Z" fill="#0F50A4"/>
<path d="M20.7825 30.2175C22.5768 32.0118 24.9625 33 27.5 33C30.0375 33 32.4232 32.0118 34.2175 30.2175C36.0118 28.4232 37 26.0375 37 23.5C37 20.9625 36.0118 18.5768 34.2175 16.7825C32.4232 14.9882 30.0375 14 27.5 14C25.7628 14 24.063 14.4734 22.5844 15.3691C22.2338 15.5815 22.1218 16.0379 22.3342 16.3884C22.5466 16.7391 23.0029 16.8511 23.3535 16.6387C24.6001 15.8835 26.034 15.4844 27.5 15.4844C31.9198 15.4844 35.5156 19.0802 35.5156 23.5C35.5156 27.9198 31.9198 31.5156 27.5 31.5156C23.0802 31.5156 19.4844 27.9198 19.4844 23.5C19.4844 21.9196 19.9544 20.3812 20.8435 19.0512C21.0714 18.7104 20.9798 18.2495 20.6391 18.0217C20.2983 17.7938 19.8374 17.8854 19.6096 18.2262C18.5566 19.8012 18 21.6249 18 23.5C18 26.0375 18.9882 28.4232 20.7825 30.2175Z" fill="#ED1E26"/>
<path fill-rule="evenodd" clip-rule="evenodd" d="M24.26 27.8201C24.422 27.9416 24.6119 28.0001 24.7991 28.0001C25.0727 28.0001 25.3436 27.8759 25.52 27.6401L30.92 20.4401C31.2179 20.0423 31.1378 19.478 30.74 19.1801C30.3422 18.8813 29.7788 18.9632 29.48 19.3601L24.08 26.5601C23.7821 26.9579 23.8622 27.5222 24.26 27.8201ZM24.8 22.6C23.8073 22.6 23 21.7927 23 20.8C23 19.8073 23.8073 19 24.8 19C25.7927 19 26.6 19.8073 26.6 20.8C26.6 21.7927 25.7927 22.6 24.8 22.6ZM30.2 28.0001C29.2073 28.0001 28.4 27.1928 28.4 26.2001C28.4 25.2074 29.2073 24.4001 30.2 24.4001C31.1927 24.4001 32 25.2074 32 26.2001C32 27.1928 31.1927 28.0001 30.2 28.0001Z" fill="#ED1E26"/>
</svg>
