<svg width="24" height="24" viewBox="0 0 24 24" fill="none" xmlns="http://www.w3.org/2000/svg">
<path d="M21 15.546C21 18.057 18.984 20.091 16.473 20.1H16.464H7.545C5.043 20.1 3 18.075 3 15.564V15.555C3 15.555 3.0054 11.5716 3.0126 9.5682C3.0135 9.192 3.4455 8.9814 3.7398 9.2154C5.8782 10.9119 9.7023 14.0052 9.75 14.0457C10.389 14.5578 11.199 14.8467 12.027 14.8467C12.855 14.8467 13.665 14.5578 14.304 14.0358C14.3517 14.0043 18.0903 11.0037 20.2611 9.2793C20.5563 9.0444 20.9901 9.255 20.991 9.6303C21 11.6184 21 15.546 21 15.546" fill="#12539F"/>
<path d="M20.5283 6.30699C19.7489 4.83819 18.2153 3.90039 16.5269 3.90039H7.5449C5.8565 3.90039 4.3229 4.83819 3.5435 6.30699C3.3689 6.63549 3.4517 7.04499 3.7424 7.27719L10.4249 12.6223C10.8929 13.0003 11.4599 13.1884 12.0269 13.1884C12.0305 13.1884 12.0332 13.1884 12.0359 13.1884C12.0386 13.1884 12.0422 13.1884 12.0449 13.1884C12.6119 13.1884 13.1789 13.0003 13.6469 12.6223L20.3294 7.27719C20.6201 7.04499 20.7029 6.63549 20.5283 6.30699" fill="#12539F"/>
</svg>
