<svg width="16" height="14" viewBox="0 0 16 14" fill="none" xmlns="http://www.w3.org/2000/svg">
<path d="M13.6328 3.40228H12.4844V2.37243C12.4844 1.69644 11.871 1.14648 11.1172 1.14648H2.36719C1.61332 1.14648 1 1.69644 1 2.37243V10.2185C1 10.8945 1.61332 11.4444 2.36719 11.4444H3.51565V12.4743C3.51565 13.1503 4.12897 13.7002 4.88283 13.7002H13.6328C14.3867 13.7002 15 13.1503 15 12.4743V4.6282C15 3.95221 14.3867 3.40228 13.6328 3.40228ZM2.36719 10.9541C1.91487 10.9541 1.54687 10.6241 1.54687 10.2185V2.37243C1.54687 1.96684 1.91487 1.63686 2.36719 1.63686H11.1172C11.5695 1.63686 11.9375 1.96684 11.9375 2.37243V10.2185C11.9375 10.6241 11.5695 10.9541 11.1172 10.9541H2.36719ZM14.4531 12.4743C14.4531 12.8799 14.0851 13.2099 13.6328 13.2099H4.88283C4.43051 13.2099 4.06252 12.8799 4.06252 12.4743V11.4444H11.1172C11.871 11.4444 12.4844 10.8945 12.4844 10.2185V3.89265H13.6328C14.0851 3.89265 14.4531 4.22263 14.4531 4.62822V12.4743Z" fill="#0F50A4" stroke="#0F50A4" stroke-width="0.5"/>
<path d="M5.75885 2.77539H5.75146C5.60045 2.77539 5.47803 2.88516 5.47803 3.02058C5.47803 3.156 5.60045 3.26577 5.75146 3.26577H5.75885C5.90987 3.26577 6.03228 3.156 6.03228 3.02058C6.03228 2.88516 5.90989 2.77539 5.75885 2.77539Z" fill="#0F50A4" stroke="#0F50A4" stroke-width="0.5"/>
<path d="M4.0908 2.77539H3.24219C3.09117 2.77539 2.96875 2.88516 2.96875 3.02058C2.96875 3.156 3.09117 3.26577 3.24219 3.26577H4.09077C4.24179 3.26577 4.36421 3.156 4.36421 3.02058C4.36424 2.88516 4.24182 2.77539 4.0908 2.77539Z" fill="#0F50A4" stroke="#0F50A4" stroke-width="0.5"/>
<path d="M9.02468 6.07987C8.95969 5.86412 8.80492 5.68398 8.58932 5.57291L7.25172 4.88045C7.23829 4.87263 7.22476 4.86512 7.21114 4.85811L5.87699 4.16736C5.72416 4.07701 5.54651 4.0293 5.36257 4.0293C4.84657 4.0293 4.42676 4.40571 4.42676 4.86843V7.72761C4.42676 7.73759 4.42744 7.74745 4.42873 7.75711C4.43411 7.89392 4.47718 8.02829 4.55412 8.14745C4.72065 8.40529 5.03067 8.56545 5.36322 8.56545C5.5269 8.56545 5.68861 8.52641 5.8305 8.45271L7.21114 7.73791C7.21896 7.73384 7.22648 7.7295 7.2337 7.72487L8.57953 7.02818C8.72644 6.9546 8.84859 6.84633 8.93289 6.71486C9.05706 6.52111 9.08965 6.29558 9.02468 6.07987ZM8.4588 6.4705C8.4237 6.52525 8.37292 6.57022 8.312 6.60055C8.31066 6.60121 8.30929 6.6019 8.30795 6.60258L6.93713 7.31221C6.92928 7.31626 6.92176 7.32062 6.91454 7.32526L5.55676 8.02821C5.49773 8.05886 5.43079 8.07509 5.36322 8.07509C5.22514 8.07509 5.09643 8.00867 5.02736 7.90172C4.9931 7.84866 4.97503 7.78854 4.97508 7.72786C4.97508 7.71952 4.97462 7.71121 4.97366 7.70297V4.86843H4.97369C4.97369 4.67613 5.14817 4.51968 5.36262 4.51968C5.44058 4.51968 5.51561 4.54017 5.57962 4.57894C5.58495 4.58215 5.5904 4.58521 5.59595 4.58811L6.93828 5.28307C6.945 5.28655 6.95146 5.29023 6.95785 5.29403C6.96239 5.29671 6.96701 5.29928 6.97172 5.30173L8.3164 5.99785C8.40581 6.04392 8.46985 6.11846 8.49676 6.20776C8.52364 6.29705 8.51016 6.39037 8.4588 6.4705Z" fill="#0F50A4" stroke="#0F50A4" stroke-width="0.5"/>
</svg>
