<svg width="20" height="21" viewBox="0 0 20 21" fill="none" xmlns="http://www.w3.org/2000/svg">
<path d="M17.2063 0.184765L15.6169 1.78812C13.9802 0.640472 12.0278 0.000471015 9.96507 0.000471015C4.47016 0.000471015 0 4.5098 0 10.0528C0 11.0346 0.142833 12.0114 0.425176 12.9563C0.505727 13.2286 0.753193 13.4036 1.02059 13.4036C1.08038 13.4036 1.141 13.3953 1.20079 13.3768C1.52964 13.2763 1.71648 12.9261 1.61766 12.5936C1.37103 11.7668 1.24563 10.9115 1.24563 10.0528C1.24563 5.20257 5.15692 1.25702 9.96507 1.25702C11.6923 1.25702 13.3324 1.7655 14.725 2.68781L13.4694 3.9544C13.0783 4.34896 13.3565 5.02666 13.9096 5.02666H17.6465C17.9903 5.02666 18.2693 4.74519 18.2693 4.39838V0.628744C18.2693 0.0691622 17.5966 -0.209791 17.2063 0.184765Z" fill="#0F50A4"/>
<path d="M19.5751 7.2477C19.4762 6.91595 19.1275 6.72829 18.7986 6.82714C18.4698 6.92768 18.2829 7.27786 18.3818 7.61045C18.6292 8.43731 18.7546 9.29266 18.7546 10.1514C18.7546 15.002 14.8433 18.9478 10.0352 18.9478C8.31207 18.9478 6.67365 18.4418 5.28353 17.5228L6.53331 16.2477C6.92195 15.8514 6.64293 15.1779 6.0907 15.1779H2.3538C2.18772 15.1779 2.02745 15.2449 1.91119 15.3647C1.7941 15.4837 1.72933 15.6454 1.73099 15.8129L1.77251 19.5828C1.77915 20.1407 2.45262 20.4122 2.83794 20.0176L4.39747 18.4267C6.03091 19.5677 7.97824 20.2044 10.0352 20.2044C15.5301 20.2044 20.0002 15.6948 20.0002 10.1514C20.0002 9.16951 19.8574 8.19269 19.5751 7.2477Z" fill="#0F50A4"/>
<path d="M9.99983 9.32082C8.04774 9.32082 5.76904 8.86276 5.76904 7.57252C5.76904 6.28227 8.04774 5.82422 9.99983 5.82422C11.9519 5.82422 14.2306 6.28227 14.2306 7.57252C14.2306 8.86276 11.9519 9.32082 9.99983 9.32082Z" fill="#0F50A4"/>
<path d="M9.99983 10.6089C8.15605 10.6089 6.7142 10.2938 5.76904 9.72266V10.192C5.76904 11.4226 8.04774 11.8595 9.99983 11.8595C11.9519 11.8595 14.2306 11.4226 14.2306 10.192V9.72266C13.2846 10.2938 11.8436 10.6089 9.99983 10.6089Z" fill="#0F50A4"/>
<path d="M9.99983 13.1167C8.15605 13.1167 6.7142 12.8016 5.76904 12.2305V12.6999C5.76904 13.9304 8.04774 14.3673 9.99983 14.3673C11.9519 14.3673 14.2306 13.9304 14.2306 12.6999V12.2305C13.2846 12.8016 11.8436 13.1167 9.99983 13.1167Z" fill="#0F50A4"/>
</svg>
