<svg width="4" height="19" viewBox="0 0 4 19" fill="none" xmlns="http://www.w3.org/2000/svg">
<path d="M2.00029 11.3988C1.00618 11.3988 0.200293 10.5929 0.200293 9.59883C0.200293 8.60472 1.00618 7.79883 2.00029 7.79883C2.99441 7.79883 3.80029 8.60472 3.80029 9.59883C3.80029 10.5929 2.99441 11.3988 2.00029 11.3988Z" fill="white"/>
<path d="M2.00029 4.19961C1.00618 4.19961 0.200293 3.39372 0.200293 2.39961C0.200293 1.4055 1.00618 0.599609 2.00029 0.599609C2.99441 0.599609 3.80029 1.4055 3.80029 2.39961C3.80029 3.39372 2.99441 4.19961 2.00029 4.19961Z" fill="white"/>
<path d="M2.00029 18.6C1.00618 18.6 0.200293 17.7941 0.200293 16.8C0.200293 15.8059 1.00618 15 2.00029 15C2.99441 15 3.80029 15.8059 3.80029 16.8C3.80029 17.7941 2.99441 18.6 2.00029 18.6Z" fill="white"/>
</svg>
