<svg width="24" height="24" viewBox="0 0 24 24" fill="none" xmlns="http://www.w3.org/2000/svg">
<path fill-rule="evenodd" clip-rule="evenodd" d="M11.9995 22.0793C17.563 22.0793 22.0732 17.5695 22.0732 12.0064C22.0732 6.44336 17.563 1.93359 11.9995 1.93359C6.43592 1.93359 1.92578 6.44336 1.92578 12.0064C1.92578 17.5695 6.43592 22.0793 11.9995 22.0793ZM16.8977 13.0411C16.4441 13.3383 15.8412 13.0114 15.8412 12.4696C15.8412 12.3531 15.8685 12.2383 15.9202 12.1366C15.9718 12.035 16.0485 11.9465 16.1462 11.8816C16.5231 11.6331 16.7724 11.2054 16.7724 10.7198C16.7724 9.95209 16.1492 9.32895 15.3814 9.32895C15.3635 9.32895 15.3463 9.32895 15.3284 9.32966L15.4159 9.17399L15.4564 9.10206C15.5112 8.99498 15.5409 8.87374 15.5409 8.74544C15.5409 8.38198 15.2977 8.07466 14.9646 7.97843C15.0819 7.9605 15.2015 7.95036 15.3227 7.948C16.8177 7.91758 18.0867 9.10276 18.1516 10.5962C18.1962 11.6189 17.6867 12.5251 16.8977 13.0411ZM7.75105 12.1442L6.36857 9.74925V15.9721C6.36857 16.1629 6.44617 16.3358 6.57119 16.4608C6.6962 16.5861 6.86839 16.6634 7.05993 16.6634C7.44134 16.6634 7.75105 16.354 7.75105 15.9724V12.1442ZM15.4284 9.75798V15.9721C15.4284 16.1629 15.351 16.3356 15.2258 16.4608C15.1007 16.5858 14.9278 16.6634 14.737 16.6634C14.3554 16.6634 14.0459 16.3538 14.0459 15.9724V12.1529L15.4284 9.75798ZM7.65906 8.39542C7.5357 8.1815 7.3076 8.04989 7.06064 8.04989C6.52874 8.04989 6.19615 8.62586 6.46222 9.08649L10.2995 15.7325L10.3027 15.7376L10.3063 15.7426C10.3093 15.7468 10.3124 15.7511 10.315 15.7559C10.3261 15.7721 10.337 15.7879 10.3488 15.8035C10.3589 15.8167 10.3693 15.8292 10.3801 15.8417C10.3988 15.8629 10.4183 15.8839 10.4403 15.9035C10.447 15.9097 10.4543 15.9157 10.4616 15.9218L10.4754 15.9332C10.5004 15.9519 10.5271 15.9691 10.5544 15.9856C10.5818 16.0011 10.6092 16.0144 10.6372 16.0261C10.6653 16.037 10.6943 16.0471 10.7224 16.0549C10.8396 16.0863 10.9616 16.0853 11.075 16.0549C11.1031 16.0471 11.1314 16.0377 11.1595 16.0269L11.1611 16.0261C11.1878 16.0153 11.2144 16.0028 11.2401 15.9879L11.2421 15.9876L11.2442 15.9856C11.2572 15.9783 11.2698 15.9702 11.2822 15.9622L11.2847 15.9606C11.3107 15.9427 11.335 15.9238 11.3583 15.9035C11.3786 15.8849 11.3982 15.8646 11.4161 15.8434C11.4303 15.8276 11.4428 15.812 11.4553 15.7948C11.464 15.783 11.4718 15.7721 11.4796 15.7596C11.4824 15.7551 11.4855 15.751 11.4885 15.7469L11.4924 15.7417L11.4968 15.7353L11.6977 15.3879L7.65906 8.39542ZM15.4277 8.74049C15.4277 8.86007 15.3972 8.97965 15.3354 9.08602L11.9357 14.9766L11.1382 13.5928L14.1393 8.39495C14.2245 8.24707 14.3511 8.14636 14.4926 8.09305L14.4983 8.09111L14.5126 8.08645L14.5127 8.08642C14.5193 8.08431 14.5259 8.0822 14.5325 8.07985C14.8226 7.9914 15.1628 8.09636 15.3354 8.39495C15.3972 8.50203 15.4277 8.62161 15.4277 8.74049Z" fill="url(#paint0_linear_35326_7970)"/>
<rect x="1" y="1" width="22" height="21.9981" rx="10.9991" stroke="url(#paint1_linear_35326_7970)" stroke-width="0.810493" stroke-miterlimit="16"/>
<defs>
<linearGradient id="paint0_linear_35326_7970" x1="12.7907" y1="-2.82802" x2="12.7907" y2="21.9193" gradientUnits="userSpaceOnUse">
<stop stop-color="#F9D423"/>
<stop offset="1" stop-color="#E65C00"/>
</linearGradient>
<linearGradient id="paint1_linear_35326_7970" x1="12.864" y1="-4.19946" x2="12.864" y2="22.8235" gradientUnits="userSpaceOnUse">
<stop stop-color="#F9D423"/>
<stop offset="1" stop-color="#E65C00"/>
</linearGradient>
</defs>
</svg>
