<svg width="44" height="44" viewBox="0 0 44 44" fill="none" xmlns="http://www.w3.org/2000/svg">
<path d="M22 44C34.1503 44 44 34.1503 44 22C44 9.84974 34.1503 0 22 0C9.84974 0 0 9.84974 0 22C0 34.1503 9.84974 44 22 44Z" fill="#0F50A4"/>
<path d="M29.8846 19.6161H14.1154C13.9043 19.616 13.6975 19.5553 13.5192 19.4409C13.3408 19.3266 13.1982 19.1635 13.1079 18.9704C13.0176 18.7773 12.9832 18.5622 13.0089 18.3501C13.0345 18.1381 13.1191 17.9377 13.2528 17.7724L16.7773 13.4134C17.1677 12.9318 17.8704 12.8603 18.3463 13.2554C18.8222 13.6504 18.8928 14.3616 18.5024 14.8432L16.4688 17.3585H29.8846C30.5 17.3585 31 17.8646 31 18.4873C31 19.11 30.5 19.6161 29.8846 19.6161ZM26.3601 31C26.1147 31 25.8675 30.9191 25.6612 30.7498C25.4307 30.5619 25.2834 30.2891 25.2517 29.9913C25.2199 29.6935 25.3064 29.3952 25.492 29.1619L27.5554 26.5676H14.1154C13.5001 26.5676 13 26.0615 13 25.4388C13 24.8161 13.5001 24.31 14.1154 24.31H29.8846C30.3141 24.31 30.7044 24.5602 30.8903 24.9515C31.0762 25.3429 31.0223 25.8075 30.7528 26.1462L27.2282 30.5767C27.1246 30.7092 26.9927 30.8161 26.8423 30.8894C26.6919 30.9628 26.527 31.0006 26.3601 31Z" fill="white"/>
</svg>
