<svg width="48" height="48" viewBox="0 0 48 48" fill="none" xmlns="http://www.w3.org/2000/svg">
<path d="M43.1184 22.7472C42.324 22.7472 41.6784 23.3928 41.6784 24.1872C41.6784 33.936 33.7488 41.8656 24 41.8656C14.2512 41.8656 6.3216 33.936 6.3216 24.1872C6.3216 14.4384 14.2512 6.50879 24 6.50879C29.064 6.50879 33.8304 8.67119 37.1616 12.3864H31.7208C30.9264 12.3864 30.2808 13.032 30.2808 13.8264C30.2808 14.6208 30.9264 15.2664 31.7208 15.2664H40.5456C41.34 15.2664 41.9856 14.6208 41.9856 13.8264V4.69439C41.9856 3.89999 41.34 3.25439 40.5456 3.25439C39.7512 3.25439 39.1056 3.89999 39.1056 4.69439V10.2384C37.1812 8.15248 34.8453 6.48802 32.2455 5.35C29.6456 4.21199 26.838 3.62511 24 3.62639C12.6648 3.62639 3.4416 12.8496 3.4416 24.1848C3.4416 35.52 12.6648 44.7432 24 44.7432C35.3352 44.7432 44.5584 35.52 44.5584 24.1848C44.5584 23.3904 43.9128 22.7472 43.1184 22.7472Z" fill="#0F50A4"/>
<path fill-rule="evenodd" clip-rule="evenodd" d="M24.6087 31.4719C26.7585 31.0371 27.8622 29.3333 28.0031 27.5898C28.091 26.5261 27.7023 25.5474 26.8812 24.7607C26.1641 24.0741 25.1291 23.5423 23.7923 23.1814C23.3853 23.0735 22.9849 22.9421 22.593 22.788C22.4228 22.7117 22.2595 22.6206 22.1051 22.5158C22.0183 22.4611 21.9314 22.4064 21.8445 22.3546C21.439 22.0344 21.1655 21.6302 21.2057 21.1275C21.3603 19.2436 23.0351 19.1281 23.7474 19.1653C24.877 19.2207 25.5874 19.6284 25.8738 20.3665C25.8929 20.4152 25.9082 20.4524 25.9187 20.4763C26.0372 20.7404 26.2552 20.9469 26.5252 21.0511C26.7953 21.1553 27.0955 21.1487 27.3607 21.0326C27.6258 20.9166 27.8345 20.7006 27.9412 20.4315C28.0479 20.1625 28.0441 19.8622 27.9305 19.596L27.9268 19.5855L27.9258 19.5826C27.4004 18.207 26.236 17.326 24.6087 17.0527V14.0981C24.6087 13.8068 24.493 13.5275 24.2871 13.3216C24.0811 13.1157 23.8019 13 23.5106 13C23.2194 13 22.9401 13.1157 22.7342 13.3216C22.5283 13.5275 22.4126 13.8068 22.4126 14.0981V17.0688C20.2634 17.5028 19.1599 19.204 19.0172 20.948C18.9293 22.0117 19.318 22.9904 20.1391 23.7772C20.8562 24.4646 21.8912 24.9955 23.228 25.3564C23.635 25.4644 24.0354 25.5958 24.4273 25.7498C24.6004 25.8285 24.7665 25.9218 24.9238 26.0286C25.0071 26.0813 25.0923 26.1333 25.1731 26.1826C25.5812 26.5032 25.8568 26.9086 25.8165 27.4132C25.6619 29.2971 23.9871 29.4126 23.2748 29.3754C22.1452 29.32 21.4301 28.9123 21.1484 28.1742C21.1302 28.1255 21.115 28.0892 21.1045 28.0653C20.988 27.7984 20.7702 27.5887 20.4991 27.4823C20.228 27.376 19.9258 27.3817 19.6588 27.4982C19.3919 27.6146 19.1822 27.8324 19.0759 28.1035C18.9695 28.3746 18.9752 28.6769 19.0917 28.9438L19.0964 28.9571C19.6209 30.3325 20.785 31.2142 22.4126 31.4878V34.4426C22.4126 34.5868 22.441 34.7296 22.4962 34.8628C22.5513 34.9961 22.6322 35.1171 22.7342 35.2191C22.8362 35.321 22.9572 35.4019 23.0904 35.4571C23.2236 35.5123 23.3664 35.5407 23.5106 35.5407C23.6548 35.5407 23.7976 35.5123 23.9308 35.4571C24.0641 35.4019 24.1851 35.321 24.2871 35.2191C24.389 35.1171 24.4699 34.9961 24.5251 34.8628C24.5803 34.7296 24.6087 34.5868 24.6087 34.4426V31.4719Z" fill="#ED1E26"/>
</svg>
