<svg width="48" height="48" viewBox="0 0 48 48" fill="none" xmlns="http://www.w3.org/2000/svg">
<path d="M37.9896 44.232H10.0104C6.56879 44.232 3.77039 41.4336 3.77039 37.992V32.6736C3.77039 31.8792 4.41599 31.2336 5.21039 31.2336C6.00479 31.2336 6.65039 31.8792 6.65039 32.6736V37.992C6.65039 39.8448 8.15759 41.352 10.0104 41.352H37.992C39.8448 41.352 41.352 39.8448 41.352 37.992V10.0104C41.352 8.15759 39.8448 6.65039 37.992 6.65039H10.0104C8.15759 6.65039 6.65039 8.15759 6.65039 10.0104V19.1832C6.65039 19.9776 6.00479 20.6232 5.21039 20.6232C4.41599 20.6232 3.77039 19.9776 3.77039 19.1832V10.0104C3.77039 6.56879 6.56879 3.77039 10.0104 3.77039H37.992C41.4336 3.77039 44.232 6.56879 44.232 10.0104V37.992C44.2296 41.4312 41.4312 44.232 37.9896 44.232Z" fill="#0F50A4"/>
<path d="M35.8824 14.1288H28.092C27.2976 14.1288 26.652 14.7744 26.652 15.5688C26.652 16.3632 27.2976 17.0088 28.092 17.0088H32.2368L25.3176 24.144L20.1648 18.456C20.0334 18.3112 19.874 18.1946 19.6961 18.1134C19.5183 18.0321 19.3258 17.9878 19.1304 17.9832C18.7344 17.9736 18.3528 18.1272 18.0744 18.408L8.19599 28.3656C7.92719 28.637 7.77699 29.0039 7.77834 29.3859C7.77969 29.7678 7.93248 30.1337 8.20319 30.4032C8.47303 30.6712 8.83807 30.8214 9.21839 30.8208C9.58799 30.8208 9.95999 30.6792 10.2408 30.396L19.0488 21.516L24.2112 27.216C24.3433 27.3618 24.5039 27.4789 24.683 27.5602C24.8622 27.6415 25.0561 27.6853 25.2528 27.6888C25.644 27.7008 26.0328 27.5376 26.3112 27.252L34.4376 18.8736V22.716C34.4376 23.5104 35.0832 24.156 35.8776 24.156C36.672 24.156 37.3176 23.5104 37.3176 22.716V15.5688C37.3224 14.772 36.6768 14.1288 35.8824 14.1288Z" fill="#ED1E26"/>
</svg>
