<svg width="16" height="16" viewBox="0 0 16 16" fill="none" xmlns="http://www.w3.org/2000/svg">
<path fill-rule="evenodd" clip-rule="evenodd" d="M7.60976 1.95122C4.48357 1.95122 1.95122 4.48227 1.95122 7.6021C1.95122 10.7219 4.48357 13.253 7.60976 13.253C9.16945 13.253 10.58 12.6241 11.6044 11.6044C12.6334 10.5801 13.2683 9.16595 13.2683 7.6021C13.2683 4.48227 10.7359 1.95122 7.60976 1.95122ZM0 7.6021C0 3.40251 3.40807 0 7.60976 0C11.8114 0 15.2195 3.40251 15.2195 7.6021C15.2195 9.35353 14.6258 10.9676 13.6299 12.2526L15.7139 14.3341C16.0951 14.7149 16.0954 15.3326 15.7146 15.7139C15.3339 16.0951 14.7161 16.0954 14.3349 15.7146L12.2475 13.6296C10.9639 14.6165 9.35479 15.2042 7.60976 15.2042C3.40807 15.2042 0 11.8017 0 7.6021Z" fill="#0F50A4"/>
</svg>
