<svg width="25" height="20" viewBox="0 0 25 20" fill="none" xmlns="http://www.w3.org/2000/svg">
<path opacity="0.3" d="M3.89204 4.39844H9.89204C10.912 4.39844 11.692 5.17844 11.692 6.19844C11.692 7.21844 10.912 7.99844 9.89204 7.99844H3.89204C2.87204 7.99844 2.09204 7.21844 2.09204 6.19844C2.09204 5.17844 2.87204 4.39844 3.89204 4.39844ZM14.692 13.9984H20.692C21.712 13.9984 22.492 14.7784 22.492 15.7984C22.492 16.8184 21.712 17.5984 20.692 17.5984H14.692C13.672 17.5984 12.892 16.8184 12.892 15.7984C12.892 14.7784 13.672 13.9984 14.692 13.9984Z" fill="#0F50A4"/>
<path d="M18.892 9.2C16.912 9.2 15.292 7.58 15.292 5.6C15.292 3.62 16.912 2 18.892 2C20.872 2 22.492 3.62 22.492 5.6C22.492 7.58 20.872 9.2 18.892 9.2ZM5.69204 18.8C3.71204 18.8 2.09204 17.18 2.09204 15.2C2.09204 13.22 3.71204 11.6 5.69204 11.6C7.67204 11.6 9.29204 13.22 9.29204 15.2C9.29204 17.18 7.67204 18.8 5.69204 18.8Z" fill="#0F50A4"/>
</svg>
