<svg width="19" height="19" viewBox="0 0 19 19" fill="none" xmlns="http://www.w3.org/2000/svg">
<path d="M9.5 0C4.26194 0 0 4.26194 0 9.5C0 14.7381 4.26194 19 9.5 19C14.7381 19 19 14.7381 19 9.5C19 4.26194 14.7381 0 9.5 0ZM9.5 17.8125C4.91625 17.8125 1.1875 14.0837 1.1875 9.5C1.1875 4.91625 4.91625 1.1875 9.5 1.1875C14.0837 1.1875 17.8125 4.91625 17.8125 9.5C17.8125 14.0837 14.0837 17.8125 9.5 17.8125Z" fill="#0685CF"/>
<path d="M9.50015 4.15625C6.91199 4.15625 4.74896 6.00638 4.2609 8.45263L3.4439 7.36369L2.4939 8.07619L4.27515 10.4512C4.39152 10.6068 4.57024 10.6887 4.75074 10.6887C4.87424 10.6887 4.99952 10.6501 5.1064 10.5699L7.4814 8.78869L6.7689 7.83869L5.39733 8.86766C5.70371 6.87563 7.4238 5.34375 9.50015 5.34375C10.9798 5.34375 12.3596 6.14116 13.1012 7.42425L14.129 6.82991C13.1761 5.18106 11.4025 4.15625 9.50015 4.15625Z" fill="#0685CF"/>
<path d="M14.7136 9.12847C14.5094 8.87256 14.1377 8.831 13.8824 9.03347L11.6261 10.8147L12.3618 11.7463L13.5956 10.772C13.2696 12.7414 11.5596 14.2496 9.49993 14.2496C8.02089 14.2496 6.64102 13.4533 5.89942 12.1708L4.87164 12.7658C5.82521 14.4134 7.59814 15.4371 9.49993 15.4371C12.1112 15.4371 14.2867 13.5531 14.7493 11.0742L15.6862 12.2457L16.6136 11.5041L14.7136 9.12847Z" fill="#0685CF"/>
</svg>
