<svg width="200" height="163" viewBox="0 0 200 163" fill="none" xmlns="http://www.w3.org/2000/svg">
<g opacity="0.9">
<path opacity="0.9" d="M3.53832 89.2652C-15.3369 40.6712 45.7823 12.514 81.0703 17.8375C95.0861 19.956 100.726 24.3895 114.567 19.126C124.63 15.304 129.735 3.52137 140.846 0.906028C165.214 -4.82697 190.964 17.7174 196.844 38.3725C202.948 59.7976 197.09 81.987 178.002 89.7948C164.035 95.5114 149.768 88.2223 141.6 91.7495C124.799 98.9949 125.558 110.439 115.648 122.642C79.2576 167.436 20.6882 133.387 3.53832 89.2652Z" fill="#9ABFED"/>
</g>
<g opacity="0.9">
<path opacity="0.9" d="M3.53832 89.2652C-15.3369 40.6712 45.7823 12.514 81.0703 17.8375C95.0861 19.956 100.726 24.3895 114.567 19.126C124.63 15.304 129.735 3.52137 140.846 0.906028C165.214 -4.82697 190.964 17.7174 196.844 38.3725C202.948 59.7976 197.09 81.987 178.002 89.7948C164.035 95.5114 149.768 88.2223 141.6 91.7495C124.799 98.9949 125.558 110.439 115.648 122.642C79.2576 167.436 20.6882 133.387 3.53832 89.2652Z" fill="white"/>
</g>
<path d="M99.5 162.504C151.97 162.504 194.506 160.021 194.506 156.958C194.506 153.894 151.97 151.411 99.5 151.411C47.0296 151.411 4.4939 153.894 4.4939 156.958C4.4939 160.021 47.0296 162.504 99.5 162.504Z" fill="#F5F5F5"/>
<path d="M72.0941 9.94282C72.5841 7.87992 77.7095 5.91992 82.1195 8.96282C84.0744 10.2866 85.5407 12.2155 86.2931 14.4533C87.0455 16.6911 87.0425 19.1141 86.2845 21.35C83.9178 28.357 96.2707 28.0973 99.1323 39.9112C101.391 49.2212 99.2989 62.4071 86.6912 61.6917C67.4489 60.599 69.11 41.7928 68.2672 31.9095C67.4244 22.0262 56.9237 10.9424 72.0941 9.94282Z" fill="#263238"/>
<path d="M65.7389 36.3293C65.6556 37.7601 65.489 39.0684 65.3028 40.4257C65.1166 41.783 64.8569 43.1109 64.5678 44.4437C64.2787 45.7765 63.9504 47.1093 63.5339 48.4225C63.1316 49.7552 62.6539 51.064 62.1031 52.3425L61.6719 53.3225C61.6082 53.4646 61.4906 53.6802 61.4024 53.8615C61.3142 54.0428 61.1966 54.2094 61.0937 54.3858C60.6907 55.0142 60.242 55.6119 59.7511 56.1743C58.8382 57.2192 57.856 58.2014 56.8111 59.1143C54.7856 60.9046 52.6302 62.5424 50.3627 64.0143L49.0593 62.2699C49.9805 61.3781 50.9213 60.4569 51.8278 59.5357C52.7343 58.6145 53.631 57.6786 54.4836 56.728C55.3237 55.8064 56.1168 54.8432 56.8601 53.8419C57.1998 53.3732 57.5076 52.882 57.7813 52.3719C57.8352 52.2592 57.9038 52.1416 57.9479 52.0338C57.992 51.926 58.041 51.8378 58.0949 51.6761L58.4281 50.8137C59.2689 48.446 59.9242 46.0164 60.3881 43.547C60.638 42.3024 60.8193 41.0382 61.0055 39.7789C61.1917 38.5196 61.3338 37.2211 61.4416 36.0255L65.7389 36.3293Z" fill="#FFB573"/>
<path d="M62.7989 31.1843C61.0594 31.6253 59.8589 38.7891 59.8589 38.7891L66.518 43.3167C66.518 43.3167 69.2571 34.825 67.9145 32.9091C66.5033 30.9099 65.3371 30.5375 62.7989 31.1843Z" fill="#9ABFED"/>
<path opacity="0.2" d="M62.9559 32.7817L61.6182 40.0043L64.3131 41.832L62.9559 32.7817Z" fill="black"/>
<path d="M49.8531 61.6722L45.3696 62.3876L47.9274 65.2198C47.9274 65.2198 50.5685 64.6171 51.034 62.9266L49.8531 61.6722Z" fill="#FFB573"/>
<path d="M43.248 62.9511L45.8058 65.7196L47.9275 65.2198L45.3697 62.3876L43.248 62.9511Z" fill="#FFB573"/>
<path d="M72.2166 151.744H67.9928L67.7086 141.964H71.9324L72.2166 151.744Z" fill="#FFB573"/>
<path d="M101.421 139.298L97.5105 140.895L92.5566 132.355L96.4668 130.757L101.421 139.298Z" fill="#FFB573"/>
<path d="M96.7756 140.307L100.852 137.887C100.922 137.843 101.006 137.827 101.087 137.84C101.168 137.854 101.241 137.897 101.293 137.96L103.675 140.9C103.73 140.977 103.768 141.064 103.788 141.155C103.807 141.247 103.808 141.342 103.789 141.434C103.77 141.526 103.732 141.613 103.678 141.69C103.624 141.767 103.554 141.832 103.474 141.88C102.038 142.699 101.303 143.022 99.5098 144.09C98.4073 144.747 95.8103 146.991 94.2864 147.898C92.7625 148.804 91.7874 147.344 92.3264 146.829C94.1234 145.205 95.4846 143.157 96.2856 140.871C96.3805 140.633 96.5532 140.434 96.7756 140.307Z" fill="#263238"/>
<path d="M67.8459 151.259H72.594C72.6747 151.257 72.7534 151.285 72.8149 151.337C72.8764 151.39 72.9163 151.463 72.9272 151.543L73.4711 155.301C73.4806 155.396 73.4703 155.492 73.4407 155.582C73.4111 155.672 73.3629 155.756 73.2992 155.826C73.2355 155.897 73.1577 155.953 73.0709 155.992C72.984 156.031 72.89 156.051 72.7949 156.051C71.1387 156.022 70.3449 155.924 68.2526 155.924C66.9688 155.924 64.3326 156.056 62.544 156.056C60.7555 156.056 60.6771 154.307 61.4121 154.145C64.7246 153.435 66.028 152.455 67.1403 151.519C67.3373 151.351 67.5873 151.259 67.8459 151.259Z" fill="#263238"/>
<g opacity="0.2">
<path opacity="0.2" d="M67.7136 141.969L67.8557 147.011H72.0795L71.9374 141.969H67.7136Z" fill="black"/>
<path opacity="0.2" d="M96.4717 130.757L92.5566 132.355L95.1144 136.76L99.0246 135.162L96.4717 130.757Z" fill="black"/>
</g>
<path d="M62.799 31.1843C62.799 31.1843 60.7851 31.8899 64.8178 56.6643H81.9678C81.6787 49.6818 81.6738 45.3943 85.0107 31.052C82.609 30.5484 80.1738 30.2209 77.7244 30.072C75.1324 29.8856 72.5303 29.8856 69.9383 30.072C66.5916 30.4199 62.799 31.1843 62.799 31.1843Z" fill="#9ABFED"/>
<path opacity="0.2" d="M83.5946 36.7312C82.0413 37.1183 80.6056 38.8137 80.7771 41.935C80.8737 43.3507 81.3698 44.71 82.2079 45.855C82.4823 43.454 82.9429 40.6659 83.6779 37.0987L83.5946 36.7312Z" fill="black"/>
<path d="M70.8398 36.9516C70.8398 36.9516 73.0693 38.3285 73.6524 40.3816C76.073 38.6078 79.3609 33.6735 79.4932 30.7188C79.4939 30.6328 79.4775 30.5476 79.445 30.4679C79.4126 30.3883 79.3647 30.3159 79.3041 30.2548C79.2435 30.1938 79.1715 30.1454 79.0921 30.1123C79.0127 30.0793 78.9275 30.0622 78.8415 30.0622C78.4684 30.0526 78.0951 30.069 77.7243 30.1112L70.8398 36.9516Z" fill="#FAFAFA"/>
<path d="M70.8399 36.9516C70.8399 36.9516 68.6104 38.3285 68.0273 40.3816C65.4254 38.4755 66.8709 32.1839 68.3605 30.0916C68.885 30.0364 69.4138 30.0364 69.9383 30.0916L70.8399 36.9516Z" fill="#FAFAFA"/>
<path d="M76.96 21.3304C76.47 23.8343 75.98 28.4256 77.7293 30.1014C76.1042 32.974 73.7232 35.3465 70.8448 36.9614C67.3707 34.188 69.9432 30.1014 69.9432 30.1014C72.7362 29.435 72.6627 27.3574 72.1776 25.4121L76.96 21.3304Z" fill="#FFB573"/>
<path opacity="0.2" d="M75 22.9964L72.1678 25.4121C72.2901 25.8644 72.3705 26.3269 72.4079 26.7939C73.4761 26.6371 75.1568 25.7306 75.3871 24.5693C75.49 24.0205 75.098 23.2561 75 22.9964Z" fill="black"/>
<path d="M81.1544 17.3027C79.998 21.3305 79.5913 23.0602 77.0629 24.7017C73.2605 27.1517 68.5663 24.8585 68.4977 20.5661C68.434 16.7 70.3401 10.7661 74.7011 10.0262C75.6614 9.85852 76.6486 9.93932 77.5688 10.2609C78.489 10.5825 79.3117 11.1342 79.9585 11.8635C80.6052 12.5928 81.0547 13.4755 81.264 14.4275C81.4734 15.3796 81.4356 16.3694 81.1544 17.3027Z" fill="#FFB573"/>
<path d="M72.4568 10.3838C72.6479 11.746 80.1058 16.1266 81.5219 13.8432C82.938 11.5598 80.8996 9.83992 77.7244 9.40382C75.9081 9.1187 74.049 9.46458 72.4568 10.3838Z" fill="#263238"/>
<path d="M77.3177 11.1238C76.4014 12.3292 78.3418 21.012 81.1201 20.1937C83.8984 19.3754 83.771 16.5971 81.8404 14.0344C80.748 12.5347 79.1352 11.4968 77.3177 11.1238Z" fill="#263238"/>
<path d="M64.8179 56.6741C64.8179 56.6741 61.4859 89.2199 61.7701 102.082C62.0592 115.479 66.969 146.035 66.969 146.035H72.6775C72.6775 146.035 71.7759 116.263 72.2806 103.107C72.8294 88.7642 77.3864 56.6741 77.3864 56.6741H64.8179Z" fill="#9ABFED"/>
<path opacity="0.4" d="M64.8179 56.6741C64.8179 56.6741 61.4859 89.2199 61.7701 102.082C62.0592 115.479 66.969 146.035 66.969 146.035H72.6775C72.6775 146.035 71.7759 116.263 72.2806 103.107C72.8294 88.7642 77.3864 56.6741 77.3864 56.6741H64.8179Z" fill="black"/>
<path d="M73.1623 146.236H66.4641L65.9741 144.1L73.4759 143.84L73.1623 146.236Z" fill="#263238"/>
<path opacity="0.2" d="M72.2167 64.7689C68.0028 73.241 71.369 88.7005 72.8586 94.4531C73.623 85.8144 74.9117 75.2549 75.9162 67.5031C75.2743 63.1127 74.1571 60.8587 72.2167 64.7689Z" fill="black"/>
<path d="M69.3455 56.6742C69.3455 56.6742 73.2312 90.4842 76.1663 101.352C79.6502 114.244 93.8062 136.24 93.8062 136.24L99.1374 134.065C99.1374 134.065 89.9989 109.021 87.3333 102.215C81.6493 87.7157 86.515 66.1165 81.9727 56.6448L69.3455 56.6742Z" fill="#9ABFED"/>
<path opacity="0.4" d="M69.3455 56.6742C69.3455 56.6742 73.2312 90.4842 76.1663 101.352C79.6502 114.244 93.8062 136.24 93.8062 136.24L99.1374 134.065C99.1374 134.065 89.9989 109.021 87.3333 102.215C81.6493 87.7157 86.515 66.1165 81.9727 56.6448L69.3455 56.6742Z" fill="black"/>
<path d="M99.8625 134.089L93.2475 136.789L91.6942 135.001L99.3333 131.473L99.8625 134.089Z" fill="#263238"/>
<path d="M21.8889 13.6424C17.6216 17.4191 14.5701 22.3764 13.1203 27.8874C11.6704 33.3984 11.8873 39.2155 13.7436 44.6033C15.5999 49.991 19.0121 54.7072 23.5488 58.1556C28.0855 61.604 33.5429 63.6297 39.2309 63.9765C44.9189 64.3232 50.5819 62.9755 55.5039 60.1038C60.4259 57.232 64.3858 52.9651 66.8828 47.8428C69.3798 42.7205 70.3018 36.9728 69.5321 31.3265C68.7625 25.6801 66.3358 20.3889 62.5589 16.1218C57.4937 10.4011 50.3639 6.92624 42.7372 6.46129C35.1106 5.99634 27.6115 8.57935 21.8889 13.6424ZM57.0562 53.3814C53.4641 56.5595 49.0103 58.6011 44.258 59.248C39.5056 59.8949 34.6681 59.1181 30.3573 57.0157C26.0464 54.9134 22.4558 51.5799 20.0394 47.4369C17.6231 43.2938 16.4895 38.5273 16.7822 33.7401C17.0748 28.9528 18.7804 24.3598 21.6833 20.5419C24.5863 16.724 28.5561 13.8527 33.0909 12.291C37.6258 10.7293 42.5218 10.5474 47.16 11.7683C51.7982 12.9891 55.9702 15.558 59.1485 19.15C61.2588 21.535 62.8787 24.3123 63.9156 27.3234C64.9526 30.3345 65.3863 33.5203 65.192 36.699C64.9977 39.8777 64.1792 42.987 62.7833 45.8493C61.3873 48.7117 59.4413 51.2711 57.0562 53.3814Z" fill="#263238"/>
<path opacity="0.3" d="M39.6317 57.4043C35.2428 57.1402 31.0308 55.5803 27.5286 52.9219C24.0263 50.2635 21.3913 46.6261 19.9567 42.4699C18.5221 38.3136 18.3525 33.8252 19.4693 29.5725C20.5861 25.3199 22.9391 21.494 26.2307 18.5788C29.5223 15.6637 33.6046 13.7904 37.961 13.1958C42.3175 12.6012 46.7525 13.312 50.7049 15.2385C54.6573 17.1649 57.9495 20.2203 60.1651 24.0182C62.3807 27.816 63.42 32.1857 63.1517 36.5744C62.7909 42.454 60.1114 47.9501 55.7015 51.8556C51.2916 55.7612 45.5119 57.7568 39.6317 57.4043Z" fill="#9ABFED"/>
<g opacity="0.5">
<path opacity="0.5" d="M42.3365 13.0348H41.92L18.8312 33.4678L18.8018 33.8843C18.5023 38.7021 19.7859 43.4857 22.4572 47.5063L55.3999 18.317C51.737 15.1805 47.1501 13.3257 42.3365 13.0348Z" fill="#FAFAFA"/>
<path opacity="0.5" d="M57.5511 20.4044L24.2654 49.8583C25.377 51.1419 26.6332 52.2929 28.009 53.2883L60.4764 24.54C59.6621 23.0544 58.6807 21.6669 57.5511 20.4044Z" fill="#FAFAFA"/>
</g>
<path d="M63.6565 57.0122L59.8639 60.3687C59.5881 60.6122 59.227 60.7366 58.8597 60.7145C58.4923 60.6925 58.1487 60.5259 57.9039 60.2511C57.6628 59.9741 57.5401 59.6136 57.5621 59.2471C57.5841 58.8805 57.7491 58.5373 58.0215 58.2911L61.8141 54.9346C62.0906 54.6917 62.4521 54.5682 62.8194 54.5912C63.1868 54.6141 63.53 54.7816 63.7741 55.0571C64.0174 55.3322 64.1416 55.6925 64.1195 56.059C64.0975 56.4255 63.931 56.7683 63.6565 57.0122Z" fill="#263238"/>
<path d="M62.2599 56.3899C65.1166 58.9036 67.8508 61.53 70.5507 64.1907C73.2506 66.8514 75.8868 69.5807 78.4936 72.2953C81.1004 75.0099 83.6582 77.8127 86.1964 80.6253C88.5778 83.5653 91.8216 85.7409 92.3067 90.3567C92.3447 90.7259 92.2942 91.0988 92.1595 91.4445C92.0247 91.7903 91.8096 92.099 91.5319 92.3452C91.2541 92.5913 90.9218 92.7677 90.5623 92.8599C90.2028 92.9521 89.8266 92.9574 89.4647 92.8753C84.9371 91.8316 83.178 88.3477 80.5516 85.6233C78.0755 82.765 75.6353 79.8805 73.231 76.9699C70.8267 74.0593 68.4666 71.1014 66.1505 68.096C63.8377 65.0972 61.5641 62.0641 59.413 58.9232C59.1369 58.5386 59.0131 58.0653 59.0653 57.5947C59.1175 57.1241 59.3422 56.6896 59.6959 56.3748C60.0496 56.0601 60.5073 55.8874 60.9808 55.8902C61.4542 55.893 61.9099 56.071 62.2599 56.3899Z" fill="#263238"/>
<path d="M74.4022 16.9401C74.3287 17.2732 74.0935 17.5035 73.873 17.43C73.6525 17.3565 73.5398 17.0723 73.6133 16.744C73.6868 16.4158 73.922 16.1806 74.1425 16.2541C74.363 16.3276 74.4757 16.6069 74.4022 16.9401Z" fill="#263238"/>
<path d="M70.6438 16.1071C70.5703 16.4403 70.3302 16.6706 70.1146 16.6216C69.899 16.5726 69.7814 16.2639 69.8549 15.9307C69.9284 15.5975 70.1636 15.3672 70.3841 15.4162C70.6046 15.4652 70.7173 15.7739 70.6438 16.1071Z" fill="#263238"/>
<path d="M70.4774 15.4554L69.7277 15.0487C69.7277 15.0487 69.9972 15.7641 70.4774 15.4554Z" fill="#263238"/>
<path d="M71.6679 16.9645C71.2031 17.6562 70.6459 18.281 70.0117 18.8216C70.1542 18.9811 70.3297 19.1075 70.526 19.1921C70.7224 19.2768 70.9348 19.3175 71.1485 19.3116L71.6679 16.9645Z" fill="#ED893E"/>
<path d="M72.6724 21.0119C72.5074 21.0003 72.3436 20.9757 72.1825 20.9384C72.1699 20.9355 72.1581 20.9302 72.1476 20.9227C72.1371 20.9152 72.1282 20.9057 72.1213 20.8948C72.1145 20.8839 72.1099 20.8717 72.1078 20.859C72.1057 20.8463 72.1061 20.8333 72.109 20.8208C72.1119 20.8083 72.1172 20.7964 72.1247 20.7859C72.1321 20.7754 72.1416 20.7665 72.1525 20.7597C72.1635 20.7529 72.1756 20.7483 72.1883 20.7461C72.201 20.744 72.214 20.7444 72.2266 20.7473C72.6384 20.8473 73.0679 20.8493 73.4806 20.7531C73.8934 20.6569 74.2778 20.4653 74.603 20.1936C74.6113 20.1806 74.6224 20.1697 74.6355 20.1615C74.6486 20.1534 74.6633 20.1483 74.6786 20.1467C74.6939 20.145 74.7094 20.1468 74.7239 20.1519C74.7384 20.157 74.7516 20.1653 74.7625 20.1762C74.7734 20.1871 74.7817 20.2003 74.7868 20.2148C74.7919 20.2293 74.7937 20.2448 74.792 20.2601C74.7904 20.2754 74.7853 20.2902 74.7772 20.3032C74.769 20.3163 74.7581 20.3274 74.7451 20.3357C74.4616 20.58 74.1324 20.7655 73.7766 20.8816C73.4208 20.9977 73.0455 21.042 72.6724 21.0119Z" fill="#263238"/>
<path d="M81.4238 21.3207C81.1981 21.6539 80.9087 21.9393 80.5723 22.1605C80.236 22.3816 79.8593 22.5342 79.4638 22.6094C78.4054 22.8054 77.9938 21.8352 78.3515 20.8895C78.6847 20.0369 79.6451 18.9295 80.6643 19.1451C80.8863 19.2002 81.091 19.3098 81.26 19.4638C81.429 19.6179 81.5569 19.8116 81.6323 20.0275C81.7077 20.2434 81.7281 20.4747 81.6917 20.7005C81.6553 20.9262 81.5632 21.1394 81.4238 21.3207Z" fill="#FFB573"/>
<path d="M75.98 15.475C75.9402 15.4871 75.8976 15.4865 75.8581 15.4733C75.8186 15.4602 75.7841 15.4351 75.7595 15.4015C75.2156 14.6518 74.02 14.6616 74.0102 14.6616C73.9569 14.6616 73.9058 14.6404 73.8682 14.6027C73.8305 14.5651 73.8093 14.5139 73.8093 14.4607C73.8087 14.4345 73.8133 14.4085 73.8228 14.3842C73.8324 14.3598 73.8467 14.3376 73.865 14.3189C73.8832 14.3002 73.9051 14.2853 73.9292 14.2751C73.9533 14.265 73.9792 14.2598 74.0053 14.2598C74.0641 14.2598 75.4165 14.2598 76.0829 15.1663C76.1139 15.2092 76.1266 15.2627 76.1183 15.315C76.1101 15.3673 76.0815 15.4142 76.0388 15.4456L75.98 15.475Z" fill="#263238"/>
<path d="M69.8599 13.3533C69.8253 13.3508 69.7919 13.3396 69.7628 13.3208C69.7337 13.3019 69.7098 13.276 69.6933 13.2455C69.6694 13.198 69.6652 13.143 69.6818 13.0925C69.6983 13.042 69.7342 13.0001 69.7815 12.9759C70.0616 12.8257 70.3735 12.7442 70.6913 12.7383C71.0091 12.7323 71.3237 12.802 71.6093 12.9416C71.6544 12.9692 71.6873 13.013 71.7009 13.0641C71.7146 13.1152 71.7081 13.1696 71.6828 13.2161C71.6561 13.2622 71.6122 13.2958 71.5608 13.3096C71.5093 13.3234 71.4545 13.3162 71.4084 13.2896C71.181 13.1823 70.9315 13.1304 70.6803 13.1381C70.4291 13.1457 70.1832 13.2127 69.9628 13.3337C69.9303 13.3472 69.8952 13.3539 69.8599 13.3533Z" fill="#263238"/>
<path d="M95.1537 141.91H95.09C94.9953 141.888 94.9077 141.842 94.8357 141.777C94.7636 141.712 94.7095 141.629 94.6784 141.537C94.6509 141.483 94.6387 141.423 94.643 141.362C94.6473 141.302 94.668 141.244 94.7029 141.194C95.0116 140.753 96.5404 140.807 96.7119 140.817C96.7316 140.816 96.751 140.822 96.767 140.834C96.783 140.845 96.7947 140.862 96.8001 140.881C96.8067 140.899 96.8079 140.919 96.8036 140.938C96.7993 140.957 96.7896 140.975 96.7756 140.989C96.3983 141.361 95.678 141.973 95.1537 141.91ZM96.4767 141.003C95.8642 141.003 95.0459 141.072 94.8842 141.302C94.8709 141.325 94.8639 141.351 94.8639 141.378C94.8639 141.405 94.8709 141.431 94.8842 141.454C94.9042 141.516 94.9394 141.571 94.9865 141.616C95.0335 141.66 95.0911 141.692 95.1537 141.709C95.433 141.773 95.9181 141.503 96.4767 141.003Z" fill="#9ABFED"/>
<path d="M96.5601 141.003C96.0358 140.939 95.0901 140.582 94.9627 140.17C94.9365 140.095 94.9368 140.013 94.9635 139.938C94.9902 139.863 95.0418 139.8 95.1097 139.758C95.1697 139.711 95.2394 139.677 95.3139 139.659C95.3884 139.641 95.4659 139.64 95.5409 139.656C96.1436 139.773 96.7708 140.817 96.8002 140.861C96.8076 140.876 96.8114 140.893 96.8114 140.91C96.8114 140.927 96.8076 140.944 96.8002 140.959C96.7909 140.974 96.778 140.987 96.7625 140.995C96.7471 141.004 96.7297 141.008 96.712 141.008C96.6613 141.011 96.6105 141.01 96.5601 141.003ZM95.4772 139.847C95.3897 139.837 95.3018 139.861 95.2322 139.915C95.1293 139.994 95.1342 140.057 95.1538 140.102C95.2518 140.381 96.0113 140.729 96.5209 140.797C96.2955 140.459 95.8643 139.92 95.5066 139.852L95.4772 139.847Z" fill="#9ABFED"/>
<path d="M66.2633 151.994C65.9022 152.028 65.5404 151.936 65.2392 151.734C65.1707 151.674 65.1182 151.598 65.0865 151.512C65.0549 151.427 65.045 151.334 65.0579 151.244C65.0601 151.189 65.0767 151.136 65.1059 151.09C65.1351 151.043 65.176 151.005 65.2245 150.98C65.7439 150.69 67.4295 151.553 67.6157 151.651C67.634 151.661 67.649 151.676 67.6586 151.694C67.6682 151.712 67.672 151.733 67.6696 151.754C67.6677 151.774 67.6589 151.794 67.6447 151.809C67.6305 151.824 67.6117 151.834 67.5912 151.837C67.1546 151.932 66.71 151.984 66.2633 151.994ZM65.5087 151.122C65.4448 151.118 65.3809 151.13 65.3225 151.156C65.3032 151.167 65.2869 151.183 65.2749 151.201C65.263 151.22 65.2558 151.242 65.2539 151.264C65.2465 151.323 65.2533 151.383 65.2737 151.44C65.2942 151.496 65.3277 151.546 65.3715 151.587C65.6263 151.817 66.3221 151.857 67.258 151.7C66.7116 151.41 66.1202 151.214 65.5087 151.122Z" fill="#9ABFED"/>
<path d="M67.5715 151.847H67.5323C67.0423 151.621 66.0329 150.71 66.1113 150.23C66.1113 150.117 66.2093 149.975 66.4837 149.946C66.5832 149.935 66.6838 149.945 66.7791 149.976C66.8745 150.006 66.9624 150.056 67.0374 150.122C67.5715 150.563 67.6695 151.7 67.6695 151.749C67.6723 151.766 67.67 151.783 67.6631 151.799C67.6561 151.814 67.6447 151.828 67.6303 151.837C67.6123 151.847 67.5917 151.85 67.5715 151.847ZM66.567 150.132H66.5033C66.322 150.132 66.3122 150.225 66.3073 150.25C66.2583 150.534 66.9345 151.254 67.449 151.563C67.4094 151.083 67.221 150.627 66.91 150.259C66.8164 150.174 66.6935 150.129 66.567 150.132Z" fill="#9ABFED"/>
<path d="M74.2357 16.2932L73.486 15.8817C73.486 15.8817 73.7555 16.597 74.2357 16.2932Z" fill="#263238"/>
<path d="M82.2275 55.6647L82.6636 57.1984C82.7224 57.3209 82.5852 57.4434 82.3843 57.4434H64.7099C64.558 57.4434 64.4306 57.365 64.4208 57.267L64.264 55.7333C64.264 55.6255 64.3865 55.5373 64.558 55.5373H81.9286C81.9853 55.5287 82.0433 55.536 82.0961 55.5585C82.1489 55.581 82.1944 55.6178 82.2275 55.6647Z" fill="#9ABFED"/>
<path opacity="0.2" d="M82.2275 55.6647L82.6636 57.1984C82.7224 57.3209 82.5852 57.4434 82.3843 57.4434H64.7099C64.558 57.4434 64.4306 57.365 64.4208 57.267L64.264 55.7333C64.264 55.6255 64.3865 55.5373 64.558 55.5373H81.9286C81.9853 55.5287 82.0433 55.536 82.0961 55.5585C82.1489 55.581 82.1944 55.6178 82.2275 55.6647Z" fill="black"/>
<path d="M79.8362 57.6052H80.3017C80.3948 57.6052 80.4634 57.5611 80.4585 57.5023L80.238 55.508C80.238 55.4492 80.1498 55.4002 80.0616 55.4002H79.5716C79.4785 55.4002 79.405 55.4492 79.4148 55.508L79.6304 57.5023C79.6598 57.5611 79.7431 57.6052 79.8362 57.6052Z" fill="#9ABFED"/>
<path opacity="0.4" d="M79.8362 57.6052H80.3017C80.3948 57.6052 80.4634 57.5611 80.4585 57.5023L80.238 55.508C80.238 55.4492 80.1498 55.4002 80.0616 55.4002H79.5716C79.4785 55.4002 79.405 55.4492 79.4148 55.508L79.6304 57.5023C79.6598 57.5611 79.7431 57.6052 79.8362 57.6052Z" fill="white"/>
<path d="M66.038 57.6052H66.5035C66.5966 57.6052 66.6652 57.5611 66.6603 57.5023L66.4447 55.508C66.4447 55.4492 66.3565 55.4002 66.2634 55.4002H65.7979C65.7048 55.4002 65.6362 55.4492 65.6411 55.508L65.8567 57.5023C65.8665 57.5611 65.9449 57.6052 66.038 57.6052Z" fill="#9ABFED"/>
<path opacity="0.4" d="M66.038 57.6052H66.5035C66.5966 57.6052 66.6652 57.5611 66.6603 57.5023L66.4447 55.508C66.4447 55.4492 66.3565 55.4002 66.2634 55.4002H65.7979C65.7048 55.4002 65.6362 55.4492 65.6411 55.508L65.8567 57.5023C65.8665 57.5611 65.9449 57.6052 66.038 57.6052Z" fill="white"/>
<path d="M72.9077 57.6052H73.3978C73.4909 57.6052 73.5595 57.5611 73.5546 57.5023L73.339 55.508C73.339 55.4492 73.2508 55.4002 73.1577 55.4002H72.6921C72.599 55.4002 72.5304 55.4492 72.5353 55.508L72.7509 57.5023C72.7362 57.5611 72.8146 57.6052 72.9077 57.6052Z" fill="#9ABFED"/>
<path opacity="0.4" d="M72.9077 57.6052H73.3978C73.4909 57.6052 73.5595 57.5611 73.5546 57.5023L73.339 55.508C73.339 55.4492 73.2508 55.4002 73.1577 55.4002H72.6921C72.599 55.4002 72.5304 55.4492 72.5353 55.508L72.7509 57.5023C72.7362 57.5611 72.8146 57.6052 72.9077 57.6052Z" fill="white"/>
<path d="M71.6631 60.0944L67.4981 58.2324L68.6839 62.363C68.6839 62.363 71.3299 62.9608 72.4814 61.6329L71.6631 60.0944Z" fill="#FFB573"/>
<path d="M87.0099 36.148C87.201 37.5935 87.3529 39.0488 87.5244 40.4943L87.9654 44.8553C88.1222 46.3253 88.2398 47.761 88.377 49.2163L88.5583 51.3968L88.6073 51.9456C88.6073 51.9995 88.6073 52.2249 88.6073 52.3817C88.6073 52.5385 88.6073 52.7198 88.6073 52.8717C88.5342 53.4946 88.3358 54.0963 88.0242 54.6406C87.5197 55.4789 86.8534 56.2085 86.0642 56.7868C85.4024 57.2858 84.701 57.7299 83.967 58.1147C82.5944 58.824 81.1672 59.422 79.6991 59.9032C78.2634 60.3932 76.8228 60.7999 75.3773 61.1625C73.9318 61.5251 72.4863 61.824 70.9918 62.0543L70.5018 59.9718C71.8493 59.5259 73.2262 59.0702 74.5639 58.5557C75.9016 58.0412 77.2393 57.5365 78.5231 56.9534C79.7868 56.4004 81.0113 55.7619 82.1883 55.0424C82.7309 54.7147 83.2455 54.3427 83.7269 53.9301C84.1043 53.6244 84.4188 53.2483 84.653 52.8227C84.704 52.7296 84.731 52.6251 84.7314 52.5189C84.7314 52.5189 84.7314 52.5189 84.7314 52.4797C84.7314 52.4405 84.7314 52.4797 84.7314 52.3719L84.653 51.8329L84.3394 49.6622C84.1483 48.1922 83.9327 46.7663 83.7563 45.3159L83.2026 40.9696C83.0458 39.4996 82.8645 38.0688 82.7126 36.6135L87.0099 36.148Z" fill="#FFB573"/>
<path d="M85.0107 31.0618C86.7257 31.5812 88.7935 37.5004 88.7935 37.5004L82.7812 43.6892C82.7812 43.6892 79.6942 37.3191 80.4145 35.1043C81.1691 32.7915 83.0507 30.464 85.0107 31.0618Z" fill="#9ABFED"/>
<path d="M64.0535 59.0899L65.2295 62.4905L68.684 62.3631L67.4982 58.2324L64.0535 59.0899Z" fill="#FFB573"/>
<path d="M122.216 46.8938C123.343 38.8382 117.718 32.3065 109.663 32.3065H168.521C176.582 32.3065 182.202 38.8382 181.08 46.8938H122.216Z" fill="#263238"/>
<path opacity="0.7" d="M122.216 46.8938C123.343 38.8382 117.718 32.3065 109.663 32.3065H168.521C176.582 32.3065 182.202 38.8382 181.08 46.8938H122.216Z" fill="#9ABFED"/>
<path d="M109.663 32.3065H168.522C160.466 32.3065 153.023 38.8382 151.901 46.8938L138.592 142.365C137.47 150.426 130.027 156.958 121.972 156.958H92.2873C84.2317 156.958 78.6114 150.426 79.7335 142.365L93.037 46.8938C94.164 38.8382 101.602 32.3065 109.663 32.3065Z" fill="#9ABFED"/>
<path d="M109.413 142.365C108.291 150.426 113.911 156.958 121.972 156.958H63.1078C55.0522 156.958 49.4319 150.426 50.554 142.365H109.413Z" fill="#263238"/>
<path opacity="0.7" d="M109.413 142.365C108.291 150.426 113.911 156.958 121.972 156.958H63.1078C55.0522 156.958 49.4319 150.426 50.554 142.365H109.413Z" fill="#9ABFED"/>
<path opacity="0.4" d="M118.85 62.0054H141.64C141.972 61.9898 142.289 61.862 142.539 61.6431C142.789 61.4242 142.957 61.127 143.017 60.8C143.043 60.6499 143.035 60.4958 142.995 60.3488C142.954 60.2019 142.882 60.0657 142.783 59.9501C142.683 59.8344 142.56 59.7421 142.421 59.6798C142.282 59.6175 142.13 59.5868 141.978 59.5897H119.188C118.854 59.6002 118.534 59.7268 118.282 59.9476C118.031 60.1684 117.865 60.4698 117.811 60.8C117.785 60.95 117.793 61.1039 117.833 61.2506C117.874 61.3973 117.946 61.5332 118.046 61.6485C118.145 61.7638 118.269 61.8556 118.408 61.9173C118.547 61.9791 118.698 62.0092 118.85 62.0054Z" fill="white"/>
<path opacity="0.4" d="M118.223 66.4988H134.976C135.31 66.4885 135.629 66.3626 135.88 66.1428C136.132 65.9229 136.299 65.6227 136.353 65.2934C136.379 65.1434 136.372 64.9895 136.331 64.8428C136.291 64.6961 136.218 64.5602 136.119 64.4449C136.019 64.3296 135.896 64.2378 135.757 64.1761C135.617 64.1143 135.466 64.0842 135.314 64.088H118.561C118.227 64.0973 117.907 64.2228 117.656 64.4428C117.404 64.6629 117.238 64.9636 117.184 65.2934C117.158 65.4433 117.165 65.5972 117.206 65.7439C117.246 65.8906 117.319 66.0265 117.418 66.1418C117.518 66.2571 117.641 66.3489 117.781 66.4107C117.92 66.4724 118.071 66.5025 118.223 66.4988Z" fill="white"/>
<path opacity="0.4" d="M108.773 67.2091C111.925 64.2685 112.407 59.6612 109.848 56.9185C107.29 54.1758 102.66 54.3363 99.508 57.2769C96.3556 60.2175 95.8743 64.8248 98.4328 67.5675C100.991 70.3102 105.621 70.1498 108.773 67.2091Z" fill="white"/>
<path d="M97.643 62.27C97.4854 63.3153 97.6071 64.3837 97.9958 65.3668C98.4187 66.401 99.1474 67.2814 100.084 67.89C101.021 68.4986 102.122 68.8065 103.239 68.7723C104.468 68.7431 105.672 68.4184 106.749 67.8256C107.826 67.2329 108.745 66.3895 109.428 65.3668C110.066 64.442 110.482 63.3821 110.643 62.27C111.133 58.6832 108.639 55.7726 105.047 55.7726C103.249 55.8241 101.526 56.5013 100.174 57.6875C98.8229 58.8737 97.9275 60.4943 97.643 62.27Z" fill="white"/>
<path opacity="0.4" d="M99.4118 64.72C99.7358 65.5128 100.294 66.1877 101.012 66.6544C101.73 67.1211 102.574 67.3574 103.43 67.3317C104.373 67.3099 105.298 67.0611 106.125 66.6066C106.953 66.152 107.658 65.5049 108.183 64.72C106.962 63.8385 105.489 63.3729 103.983 63.3921C102.366 63.4058 100.785 63.8653 99.4118 64.72Z" fill="#263238"/>
<path opacity="0.4" d="M102.141 60.653C102.092 60.9299 102.104 61.2143 102.178 61.4856C102.253 61.7568 102.386 62.0082 102.57 62.2213C102.753 62.4344 102.982 62.6039 103.239 62.7174C103.497 62.831 103.776 62.8857 104.057 62.8776C104.672 62.86 105.261 62.628 105.723 62.2217C106.185 61.8155 106.49 61.2605 106.586 60.653C106.635 60.3769 106.623 60.0931 106.549 59.8224C106.475 59.5517 106.342 59.3009 106.159 59.0882C105.975 58.8756 105.747 58.7064 105.491 58.5931C105.234 58.4799 104.955 58.4253 104.675 58.4333C104.06 58.4506 103.471 58.6818 103.008 59.087C102.546 59.4922 102.239 60.046 102.141 60.653Z" fill="#263238"/>
<path opacity="0.4" d="M116.116 81.6397H123.804C124.138 81.6293 124.457 81.5035 124.709 81.2837C124.96 81.0638 125.127 80.7636 125.181 80.4343C125.207 80.2843 125.2 80.1305 125.159 79.9837C125.119 79.837 125.046 79.7011 124.947 79.5858C124.847 79.4705 124.724 79.3787 124.585 79.317C124.445 79.2553 124.294 79.2252 124.142 79.2289H116.449C116.116 79.2384 115.796 79.3641 115.546 79.5842C115.295 79.8043 115.13 80.105 115.077 80.4343C115.051 80.5842 115.059 80.7381 115.099 80.8848C115.14 81.0315 115.212 81.1674 115.311 81.2827C115.411 81.398 115.535 81.4898 115.674 81.5515C115.813 81.6133 115.964 81.6434 116.116 81.6397Z" fill="white"/>
<path opacity="0.4" d="M128.444 81.6397H139.43C139.764 81.6294 140.084 81.5036 140.335 81.2837C140.586 81.0639 140.753 80.7637 140.807 80.4343C140.834 80.2843 140.827 80.13 140.787 79.9829C140.747 79.8358 140.675 79.6995 140.575 79.584C140.476 79.4685 140.351 79.3767 140.212 79.3152C140.072 79.2538 139.921 79.2243 139.768 79.2289H128.783C128.449 79.2383 128.128 79.3638 127.877 79.5838C127.626 79.8038 127.459 80.1046 127.406 80.4343C127.38 80.5843 127.387 80.7382 127.427 80.8849C127.468 81.0316 127.541 81.1675 127.64 81.2828C127.739 81.3981 127.863 81.4899 128.002 81.5516C128.141 81.6133 128.292 81.6434 128.444 81.6397Z" fill="white"/>
<path opacity="0.4" d="M115.489 86.138H134.319C134.654 86.1275 134.974 86.001 135.225 85.7801C135.477 85.5593 135.643 85.2579 135.696 84.9277C135.723 84.7777 135.715 84.6239 135.675 84.4772C135.634 84.3304 135.562 84.1945 135.462 84.0792C135.363 83.9639 135.239 83.8721 135.1 83.8104C134.961 83.7487 134.81 83.7186 134.658 83.7223H115.822C115.489 83.7337 115.171 83.86 114.921 84.0798C114.67 84.2996 114.504 84.5992 114.45 84.9277C114.423 85.078 114.43 85.2324 114.47 85.3798C114.51 85.5271 114.582 85.6636 114.682 85.7795C114.781 85.8954 114.905 85.9877 115.045 86.0497C115.184 86.1117 115.336 86.1418 115.489 86.138Z" fill="white"/>
<path opacity="0.4" d="M106.039 86.8455C109.191 83.9049 109.672 79.2976 107.114 76.5549C104.555 73.8122 99.9259 73.9727 96.7735 76.9133C93.6212 79.8539 93.1398 84.4611 95.6983 87.2038C98.2569 89.9465 102.886 89.7861 106.039 86.8455Z" fill="white"/>
<path d="M94.9038 81.87C94.7475 82.9157 94.8709 83.9842 95.2615 84.9668C95.6805 85.9997 96.4045 86.8805 97.3368 87.4915C98.2691 88.1026 99.3656 88.4149 100.48 88.387C101.709 88.3586 102.914 88.0342 103.991 87.4414C105.068 86.8486 105.987 86.0048 106.669 84.9815C107.311 84.0585 107.729 82.998 107.889 81.8847C108.379 78.2979 105.885 75.3873 102.293 75.3873C100.5 75.4415 98.7821 76.1182 97.4337 77.3011C96.0854 78.484 95.1909 80.0994 94.9038 81.87Z" fill="white"/>
<path opacity="0.4" d="M96.6728 84.3691C96.9977 85.1622 97.5569 85.8373 98.2758 86.304C98.9947 86.7707 99.839 87.0068 100.696 86.9808C101.639 86.9581 102.562 86.7091 103.389 86.2545C104.215 85.8 104.92 85.1533 105.444 84.3691C104.223 83.4869 102.751 83.0213 101.244 83.0412C99.6277 83.0564 98.0462 83.5158 96.6728 84.3691Z" fill="#263238"/>
<path opacity="0.4" d="M99.4071 80.2872C99.3576 80.5636 99.3702 80.8476 99.444 81.1185C99.5179 81.3895 99.6511 81.6405 99.8341 81.8536C100.017 82.0666 100.245 82.2361 100.502 82.35C100.759 82.4639 101.037 82.5192 101.318 82.5118C101.933 82.4944 102.523 82.2625 102.986 81.8563C103.448 81.4502 103.755 80.8952 103.851 80.2872C103.901 80.0111 103.889 79.7273 103.815 79.4566C103.741 79.1859 103.607 78.9351 103.424 78.7224C103.241 78.5098 103.013 78.3407 102.756 78.2274C102.5 78.1141 102.221 78.0595 101.94 78.0676C101.326 78.0848 100.736 78.316 100.274 78.7212C99.8116 79.1264 99.505 79.6802 99.4071 80.2872Z" fill="#263238"/>
<path opacity="0.4" d="M113.377 101.279H126.769C127.103 101.268 127.423 101.142 127.674 100.921C127.926 100.7 128.092 100.399 128.145 100.069C128.172 99.9187 128.164 99.7648 128.124 99.6181C128.083 99.4714 128.011 99.3355 127.911 99.2202C127.812 99.1049 127.688 99.0131 127.549 98.9513C127.41 98.8896 127.259 98.8595 127.107 98.8632H113.71C113.376 98.8735 113.057 98.9994 112.806 99.2192C112.554 99.4391 112.387 99.7393 112.333 100.069C112.306 100.219 112.313 100.374 112.353 100.522C112.394 100.67 112.467 100.806 112.567 100.922C112.667 101.038 112.791 101.131 112.931 101.192C113.072 101.254 113.224 101.284 113.377 101.279Z" fill="white"/>
<path opacity="0.4" d="M112.73 105.772H133.609C133.942 105.756 134.259 105.628 134.509 105.408C134.759 105.188 134.927 104.89 134.986 104.562C135.011 104.412 135.003 104.258 134.962 104.111C134.921 103.964 134.848 103.829 134.748 103.713C134.648 103.598 134.524 103.507 134.385 103.445C134.246 103.383 134.095 103.353 133.942 103.357H113.068C112.735 103.367 112.415 103.493 112.164 103.713C111.913 103.932 111.746 104.233 111.691 104.562C111.664 104.712 111.671 104.867 111.711 105.014C111.751 105.161 111.824 105.298 111.923 105.414C112.023 105.53 112.147 105.622 112.286 105.684C112.426 105.746 112.577 105.776 112.73 105.772Z" fill="white"/>
<path opacity="0.2" d="M89.8911 124.902H121.859C122.327 124.886 122.776 124.709 123.128 124.4C123.48 124.091 123.714 123.669 123.789 123.206C123.827 122.995 123.816 122.778 123.759 122.571C123.702 122.364 123.599 122.172 123.458 122.01C123.317 121.848 123.142 121.72 122.945 121.634C122.748 121.549 122.534 121.508 122.319 121.516H90.3615C89.8939 121.529 89.4457 121.706 89.0942 122.014C88.7426 122.323 88.5098 122.745 88.4358 123.206C88.3979 123.417 88.4074 123.633 88.4635 123.84C88.5197 124.046 88.6211 124.238 88.7605 124.4C88.8999 124.562 89.0737 124.692 89.2692 124.778C89.4648 124.865 89.6772 124.907 89.8911 124.902Z" fill="white"/>
<path opacity="0.2" d="M89.0142 131.203H112.505C112.973 131.189 113.421 131.011 113.773 130.702C114.124 130.392 114.357 129.97 114.43 129.508C114.468 129.296 114.457 129.079 114.4 128.872C114.343 128.665 114.24 128.474 114.099 128.312C113.958 128.15 113.783 128.021 113.586 127.936C113.389 127.85 113.175 127.81 112.96 127.817H89.4845C89.0167 127.832 88.5683 128.008 88.2161 128.316C87.8639 128.625 87.6299 129.046 87.5539 129.508C87.5213 129.718 87.5347 129.933 87.5932 130.137C87.6517 130.342 87.7539 130.531 87.8927 130.693C88.0316 130.854 88.2037 130.983 88.3974 131.071C88.591 131.159 88.8014 131.204 89.0142 131.203Z" fill="white"/>
<path opacity="0.2" d="M101.005 47.771H139.122C139.361 47.7603 139.59 47.6671 139.768 47.5072C139.947 47.3474 140.065 47.1307 140.102 46.8938C140.121 46.7851 140.115 46.6735 140.086 46.5672C140.056 46.4608 140.003 46.3623 139.931 46.2789C139.859 46.1954 139.769 46.129 139.668 46.0845C139.567 46.04 139.457 46.0186 139.347 46.0217H101.25C101.011 46.0339 100.784 46.127 100.606 46.2856C100.428 46.4441 100.309 46.6587 100.27 46.8938C100.251 47.0012 100.256 47.1113 100.285 47.2164C100.313 47.3216 100.364 47.4193 100.434 47.5028C100.504 47.5863 100.591 47.6535 100.69 47.6998C100.788 47.7461 100.896 47.7704 101.005 47.771Z" fill="white"/>
<path opacity="0.4" d="M103.302 106.482C106.454 103.541 106.936 98.9336 104.377 96.1909C101.819 93.4482 97.1892 93.6087 94.0369 96.5493C90.8846 99.4899 90.4032 104.097 92.9617 106.84C95.5202 109.583 100.15 109.422 103.302 106.482Z" fill="white"/>
<path d="M92.1501 101.524C91.9928 102.569 92.1145 103.638 92.5029 104.621C92.9271 105.654 93.6563 106.533 94.5931 107.14C95.53 107.748 96.6298 108.055 97.7459 108.021C98.9746 107.992 100.178 107.668 101.255 107.076C102.332 106.484 103.251 105.642 103.935 104.621C104.572 103.696 104.988 102.636 105.15 101.524C105.64 97.9322 103.146 95.0216 99.5541 95.0216C97.7558 95.0733 96.032 95.7513 94.6802 96.9384C93.3285 98.1256 92.4336 99.7474 92.1501 101.524Z" fill="white"/>
<path opacity="0.4" d="M93.9387 104.008C94.2635 104.801 94.8228 105.476 95.5417 105.943C96.2606 106.41 97.1049 106.646 97.9616 106.62C98.9044 106.597 99.828 106.348 100.654 105.894C101.481 105.439 102.186 104.792 102.71 104.008C101.49 103.124 100.017 102.659 98.5104 102.68C96.893 102.692 95.3105 103.151 93.9387 104.008Z" fill="#263238"/>
<path opacity="0.4" d="M96.6679 99.9266C96.619 100.203 96.6324 100.487 96.7069 100.758C96.7814 101.028 96.9152 101.279 97.0986 101.491C97.2821 101.704 97.5105 101.873 97.7674 101.986C98.0243 102.1 98.3032 102.154 98.5838 102.146C99.1978 102.129 99.7865 101.897 100.248 101.492C100.71 101.087 101.015 100.533 101.112 99.9266C101.162 99.6502 101.149 99.3662 101.075 99.0953C101.001 98.8244 100.868 98.5733 100.685 98.3603C100.502 98.1473 100.274 97.9777 100.017 97.8638C99.7607 97.75 99.4819 97.6947 99.2012 97.702C98.5859 97.7195 97.996 97.9513 97.5334 98.3575C97.0709 98.7637 96.7647 99.3187 96.6679 99.9266Z" fill="#263238"/>
</svg>
