<svg width="91" height="92" viewBox="0 0 91 92" fill="none" xmlns="http://www.w3.org/2000/svg">
<path d="M14.5064 7.91359L6.55078 0.662109H76.0202C76.9744 0.662109 77.9191 0.850059 78.8006 1.21522C79.6821 1.58039 80.483 2.11562 81.1576 2.79034C81.8322 3.46506 82.3673 4.26607 82.7323 5.14761C83.0973 6.02914 83.2851 6.97395 83.2849 7.92807V77.8529H29.0356V84.2226C29.0356 86.1493 28.2703 87.9971 26.9079 89.3595C25.5455 90.7219 23.6977 91.4872 21.771 91.4872C19.8443 91.4872 17.9965 90.7219 16.6341 89.3595C15.2717 87.9971 14.5064 86.1493 14.5064 84.2226V7.91359Z" fill="#E0E0DF"/>
<path d="M83.2888 7.93261V77.8588H78.4365V7.93261C78.4365 6.00591 77.6711 4.15812 76.3088 2.79573C74.9464 1.43335 73.0986 0.667969 71.1719 0.667969H76.0242C77.9509 0.667969 79.7987 1.43335 81.1611 2.79573C82.5234 4.15812 83.2888 6.00591 83.2888 7.93261V7.93261Z" fill="#C2C6C6"/>
<path d="M29.0395 77.8555H90.0375V84.2265C90.0393 85.1793 89.8529 86.123 89.4891 87.0036C89.1253 87.8841 88.5912 88.6842 87.9175 89.3579C87.2438 90.0317 86.4437 90.5657 85.5631 90.9295C84.6826 91.2933 83.7388 91.4797 82.7861 91.478H21.7749C22.7282 91.4794 23.6724 91.2928 24.5536 90.9291C25.4347 90.5653 26.2355 90.0314 26.9102 89.358C27.5849 88.6845 28.1202 87.8847 28.4856 87.0042C28.851 86.1237 29.0392 85.1798 29.0395 84.2265V77.8555Z" fill="#C2C6C6"/>
<path d="M47.016 52.6096L40.6712 67.5469L38.197 62.8367L33.1289 64.4502L39.1328 50.3789" fill="#80A6D5"/>
<path d="M57.2521 50.3945L63.2678 64.4527L58.1996 62.8392L55.7254 67.5494L49.3794 52.6121" fill="#80A6D5"/>
<path d="M65.1049 38.031L63.4533 40.1617C63.2955 40.365 63.18 40.5978 63.1135 40.8464C63.0471 41.095 63.031 41.3544 63.0663 41.6093L63.4375 44.2809C63.4961 44.7056 63.4115 45.1377 63.197 45.5088C62.9824 45.8799 62.6503 46.1689 62.253 46.33L59.7525 47.3408C59.5135 47.4378 59.2963 47.5818 59.1139 47.7642C58.9315 47.9466 58.7875 48.1638 58.6905 48.4028L57.6797 50.9033C57.5186 51.3006 57.2296 51.6328 56.8585 51.8473C56.4873 52.0618 56.0553 52.1465 55.6306 52.0878L52.959 51.7167C52.7041 51.6814 52.4447 51.6974 52.1961 51.7638C51.9475 51.8303 51.7147 51.9458 51.5113 52.1036L49.3807 53.7605C49.0424 54.0248 48.6255 54.1683 48.1962 54.1683C47.7669 54.1683 47.35 54.0248 47.0117 53.7605L44.881 52.1036C44.6778 51.9457 44.445 51.8301 44.1964 51.7636C43.9477 51.6972 43.6883 51.6812 43.4334 51.7167L40.7631 52.0878C40.3384 52.1467 39.9062 52.0622 39.5351 51.8476C39.1639 51.633 38.8749 51.3007 38.714 50.9033L37.7019 48.4028C37.6056 48.1636 37.462 47.9463 37.2797 47.7638C37.0975 47.5813 36.8803 47.4374 36.6412 47.3408L34.1407 46.3287C33.7433 46.1678 33.411 45.8788 33.1964 45.5077C32.9819 45.1365 32.8973 44.7043 32.9562 44.2796L33.3274 41.6093C33.3627 41.3544 33.3466 41.095 33.2802 40.8464C33.2137 40.5978 33.0982 40.365 32.9404 40.1617L31.2822 38.031C31.0186 37.6924 30.8755 37.2756 30.8755 36.8465C30.8755 36.4174 31.0186 36.0006 31.2822 35.6621L32.9404 33.5314C33.0984 33.3281 33.214 33.0953 33.2804 32.8467C33.3469 32.5981 33.3628 32.3386 33.3274 32.0837L32.9562 29.4134C32.8973 28.9888 32.9819 28.5566 33.1964 28.1854C33.411 27.8142 33.7433 27.5252 34.1407 27.3643L36.6412 26.3523C36.8804 26.2554 37.0976 26.1115 37.2801 25.9291C37.4625 25.7466 37.6064 25.5294 37.7033 25.2902L38.714 22.7897C38.8747 22.3922 39.1636 22.0597 39.5349 21.8451C39.9061 21.6306 40.3384 21.5461 40.7631 21.6052L43.4334 21.9751C43.6883 22.011 43.9478 21.9952 44.1965 21.9288C44.4453 21.8623 44.678 21.7464 44.881 21.5881L47.0104 19.9312C47.3487 19.667 47.7656 19.5234 48.1949 19.5234C48.6241 19.5234 49.0411 19.667 49.3793 19.9312L51.51 21.5881C51.7131 21.7464 51.9458 21.8623 52.1945 21.929C52.4432 21.9957 52.7027 22.0118 52.9577 21.9764L55.6293 21.6052C56.0539 21.5466 56.486 21.6312 56.8572 21.8457C57.2283 22.0603 57.5173 22.3925 57.6784 22.7897L58.6891 25.2902C58.7862 25.5293 58.9301 25.7464 59.1126 25.9288C59.295 26.1113 59.5121 26.2552 59.7512 26.3523L62.2517 27.363C62.649 27.5241 62.9811 27.8131 63.1957 28.1842C63.4102 28.5554 63.4948 28.9875 63.4362 29.4121L63.0584 32.0903C63.023 32.3452 63.039 32.6046 63.1054 32.8533C63.1719 33.1019 63.2875 33.3347 63.4454 33.538L65.1023 35.6687C65.3653 36.0061 65.5083 36.4215 65.5088 36.8494C65.5093 37.2772 65.3672 37.693 65.1049 38.031V38.031Z" fill="#9ABFED"/>
<path d="M48.1978 29.5586L50.5667 34.3596L55.8638 35.1282L52.0315 38.8644L52.9356 44.1405L48.1978 41.6492L43.46 44.1405L44.3654 38.8644L40.5317 35.1282L45.8289 34.3596L48.1978 29.5586Z" fill="white"/>
<path d="M54.1691 82.3075C54.1691 82.5412 54.0763 82.7652 53.9113 82.9306C53.7462 83.0959 53.5223 83.1889 53.2886 83.1893H42.1337C41.8999 83.1893 41.6756 83.0964 41.5102 82.931C41.3448 82.7657 41.252 82.5414 41.252 82.3075C41.252 82.0737 41.3448 81.8494 41.5102 81.684C41.6756 81.5187 41.8999 81.4258 42.1337 81.4258H53.2939C53.5266 81.4275 53.7492 81.5212 53.9131 81.6864C54.0771 81.8515 54.1691 82.0748 54.1691 82.3075V82.3075Z" fill="white"/>
<path d="M39.2865 82.3075C39.2865 82.5412 39.1938 82.7652 39.0287 82.9306C38.8636 83.0959 38.6397 83.1889 38.406 83.1893H37.4848C37.2509 83.1893 37.0267 83.0964 36.8613 82.931C36.6959 82.7657 36.603 82.5414 36.603 82.3075C36.603 82.0737 36.6959 81.8494 36.8613 81.684C37.0267 81.5187 37.2509 81.4258 37.4848 81.4258H38.406C38.6397 81.4261 38.8636 81.5192 39.0287 81.6845C39.1938 81.8498 39.2865 82.0739 39.2865 82.3075V82.3075Z" fill="white"/>
<path d="M0 16.1232V7.91231C0.0257064 6.00237 0.802468 4.17937 2.16218 2.83783C3.52189 1.4963 5.35519 0.744141 7.2653 0.744141C9.17542 0.744141 11.0087 1.4963 12.3684 2.83783C13.7281 4.17937 14.5049 6.00237 14.5306 7.91231V16.1232H0Z" fill="#C2C6C6"/>
</svg>
