<svg width="215" height="195" viewBox="0 0 215 195" fill="none" xmlns="http://www.w3.org/2000/svg">
<path d="M107.415 194.981C166.739 194.981 214.83 192.173 214.83 188.71C214.83 185.246 166.739 182.438 107.415 182.438C48.0914 182.438 0 185.246 0 188.71C0 192.173 48.0914 194.981 107.415 194.981Z" fill="#F5F5F5"/>
<path d="M202.61 37.0247C198.438 22.2218 186.422 6.55469 171.73 1.68503C161.099 -1.84949 151.127 0.709991 142.623 4.45503C123.044 13.1251 114.258 37.213 95.5659 47.1906C80.2422 55.3676 56.326 50.9135 40.6645 58.5919C28.4765 64.5806 17.0475 72.6635 11.7457 85.3889C6.4439 98.1143 8.58234 116.341 20.244 129.753C31.2631 142.429 47.5673 147.875 62.348 151.06C88.5245 156.7 114.623 158.052 137.692 152.567C154.002 148.689 172.317 141.542 181.281 128.113C190.649 114.075 193.779 98.0755 199.385 81.8599C199.79 80.6854 200.189 79.4999 200.571 78.3088C204.571 65.8161 206.942 52.3705 202.61 37.0247Z" fill="#9ABFED"/>
<path opacity="0.8" d="M202.61 37.0247C198.438 22.2218 186.422 6.55469 171.73 1.68503C161.099 -1.84949 151.127 0.709991 142.623 4.45503C123.044 13.1251 114.258 37.213 95.5659 47.1906C80.2422 55.3676 56.326 50.9135 40.6645 58.5919C28.4765 64.5806 17.0475 72.6635 11.7457 85.3889C6.4439 98.1143 8.58234 116.341 20.244 129.753C31.2631 142.429 47.5673 147.875 62.348 151.06C88.5245 156.7 114.623 158.052 137.692 152.567C154.002 148.689 172.317 141.542 181.281 128.113C190.649 114.075 193.779 98.0755 199.385 81.8599C199.79 80.6854 200.189 79.4999 200.571 78.3088C204.571 65.8161 206.942 52.3705 202.61 37.0247Z" fill="white"/>
<path d="M14.0006 93.3167L13.297 92.3472L64.0046 55.5062L97.9704 80.7907L125.299 61.3841L154.412 79.4334L192.361 31.7451L193.264 32.5263L154.656 80.9846L125.349 62.819L97.9537 82.2754L97.6047 82.0151L63.9991 56.9909L14.0006 93.3167Z" fill="#9ABFED"/>
<g opacity="0.7">
<path opacity="0.7" d="M14.0006 93.3167L13.297 92.3472L64.0046 55.5062L97.9704 80.7907L125.299 61.3841L154.412 79.4334L192.361 31.7451L193.264 32.5263L154.656 80.9846L125.349 62.819L97.9537 82.2754L97.6047 82.0151L63.9991 56.9909L14.0006 93.3167Z" fill="white"/>
</g>
<path d="M13.646 95.8149C15.2951 95.8149 16.632 94.478 16.632 92.8288C16.632 91.1797 15.2951 89.8428 13.646 89.8428C11.9968 89.8428 10.6599 91.1797 10.6599 92.8288C10.6599 94.478 11.9968 95.8149 13.646 95.8149Z" fill="#9ABFED"/>
<path d="M65.4117 56.7248C65.3466 57.1492 65.1573 57.5447 64.8676 57.8615C64.5778 58.1783 64.2007 58.4021 63.7838 58.5046C63.3669 58.6072 62.929 58.5839 62.5254 58.4377C62.1218 58.2914 61.7705 58.0289 61.516 57.6831C61.2616 57.3374 61.1153 56.924 61.0957 56.4951C61.076 56.0663 61.1839 55.6412 61.4058 55.2737C61.6276 54.9061 61.9534 54.6125 62.342 54.4301C62.7306 54.2476 63.1645 54.1844 63.589 54.2484C63.8714 54.291 64.1427 54.3889 64.3872 54.5365C64.6318 54.6841 64.8448 54.8785 65.0141 55.1085C65.1834 55.3385 65.3056 55.5997 65.3739 55.8771C65.4421 56.1544 65.4549 56.4425 65.4117 56.7248Z" fill="#9ABFED"/>
<path d="M125.332 64.3644C126.333 64.3644 127.144 63.5533 127.144 62.5528C127.144 61.5523 126.333 60.7412 125.332 60.7412C124.332 60.7412 123.521 61.5523 123.521 62.5528C123.521 63.5533 124.332 64.3644 125.332 64.3644Z" fill="#9ABFED"/>
<path d="M100.757 81.9594C100.673 82.5118 100.427 83.0268 100.05 83.4394C99.6736 83.852 99.1831 84.1436 98.6407 84.2775C98.0982 84.4113 97.5283 84.3814 97.0029 84.1914C96.4775 84.0014 96.0203 83.6599 95.6889 83.2101C95.3575 82.7603 95.167 82.2224 95.1413 81.6643C95.1156 81.1062 95.256 80.553 95.5446 80.0747C95.8332 79.5963 96.2572 79.2143 96.7629 78.9768C97.2687 78.7394 97.8334 78.6572 98.3858 78.7407C99.1266 78.8541 99.7922 79.2566 100.237 79.86C100.681 80.4633 100.868 81.2183 100.757 81.9594Z" fill="#9ABFED"/>
<path d="M156.639 80.5467C156.575 80.9624 156.389 81.3498 156.105 81.6601C155.821 81.9703 155.452 82.1893 155.043 82.2896C154.635 82.3898 154.206 82.3668 153.811 82.2234C153.415 82.0799 153.071 81.8225 152.822 81.4836C152.573 81.1448 152.43 80.7397 152.411 80.3196C152.392 79.8994 152.498 79.4831 152.716 79.1232C152.933 78.7632 153.252 78.4759 153.633 78.2973C154.014 78.1188 154.439 78.0572 154.855 78.1202C155.132 78.1621 155.397 78.2582 155.637 78.4029C155.876 78.5476 156.085 78.7381 156.25 78.9635C156.416 79.1889 156.536 79.4447 156.602 79.7164C156.669 79.9881 156.681 80.2702 156.639 80.5467Z" fill="#9ABFED"/>
<path d="M195.458 28.0996L184.4 35.357L190.81 40.4815L195.458 28.0996Z" fill="#9ABFED"/>
<path d="M162.666 188.848V182.699L162.112 182.145C161.935 181.968 161.752 181.79 161.525 181.558H121.288L120.762 182.112L120.114 182.749V188.898L120.762 189.53L121.288 190.084H161.503L162.057 189.53L162.666 188.931V188.848Z" fill="#9ABFED"/>
<path d="M166.212 180.388V174.239L165.63 173.685L165.049 173.064H124.834L124.28 173.591L123.637 174.228V180.372L124.28 181.009L124.834 181.535H165.049L165.603 180.981L166.212 180.377V180.388Z" fill="#9ABFED"/>
<path d="M162.666 171.957V165.785L162.112 165.231L161.525 164.644H121.288L120.762 165.17L120.114 165.807V171.957L120.762 172.594L121.288 173.12H161.503L162.057 172.566L162.666 171.962V171.957Z" fill="#9ABFED"/>
<path d="M159.354 163.48V157.32L158.766 156.766L158.179 156.179H117.975L117.449 156.705L116.806 157.342V163.486L117.449 164.118L117.975 164.672H158.19L158.744 164.118C158.927 163.935 159.11 163.752 159.354 163.519V163.48Z" fill="#9ABFED"/>
<path d="M167.636 155.021V148.871L167.054 148.317L166.461 147.73H126.258L125.704 148.256L125.061 148.893V155.037L125.704 155.674L126.258 156.201H166.467L167.021 155.647L167.63 155.043L167.636 155.021Z" fill="#9ABFED"/>
<path d="M161.01 146.567V140.417L160.456 139.863L159.847 139.271H119.632L119.105 139.825L118.463 140.462V146.605L119.105 147.243L119.632 147.769H159.847L160.401 147.215L161.004 146.611L161.01 146.567Z" fill="#9ABFED"/>
<path d="M164.772 138.113V131.953L164.184 131.399L163.597 130.817H123.416L122.862 131.338L122.219 131.975V138.108L122.862 138.739L123.416 139.293H163.63L164.184 138.739C164.367 138.556 164.55 138.373 164.794 138.141L164.772 138.113Z" fill="#9ABFED"/>
<path d="M106.347 188.848V182.699L105.765 182.145L105.178 181.558H64.9685L64.4422 182.112L63.7996 182.749V188.898L64.4422 189.53L64.9685 190.084H105.183L105.737 189.53L106.347 188.931V188.848Z" fill="#9ABFED"/>
<path d="M109.892 180.388V174.239L109.338 173.685L108.729 173.064H68.5196L67.9656 173.591L67.323 174.228V180.372L67.9656 181.009L68.5196 181.535H108.729L109.283 180.981L109.892 180.377V180.388Z" fill="#9ABFED"/>
<path d="M106.347 171.957V165.785L105.765 165.231L105.178 164.644H64.9685L64.4422 165.17C64.2428 165.364 64.0489 165.553 63.7996 165.807V171.957L64.4422 172.594L64.9685 173.12H105.183L105.737 172.566L106.347 171.962V171.957Z" fill="#9ABFED"/>
<path d="M103.034 163.48V157.32L102.447 156.766L101.859 156.179H61.6556L61.1016 156.705L60.459 157.342V163.486L61.1016 164.118L61.6556 164.672H101.87L102.424 164.118L103.034 163.519V163.48Z" fill="#9ABFED"/>
<path d="M111.316 155.021V148.871L110.762 148.317L110.169 147.73H69.938L69.384 148.256L68.7413 148.893V155.037L69.384 155.674L69.938 156.201H110.147L110.701 155.647L111.311 155.043L111.316 155.021Z" fill="#9ABFED"/>
<path d="M121.56 146.567V140.418L120.978 139.864C120.801 139.686 120.618 139.509 120.391 139.276H80.1592L79.6052 139.83L78.9625 140.467V146.611C79.2174 146.861 79.4113 147.049 79.6052 147.248L80.1592 147.775H120.374L120.928 147.221L121.537 146.617L121.56 146.567Z" fill="#9ABFED"/>
<path d="M125.321 138.113V131.963L124.74 131.409L124.152 130.828H83.943L83.4167 131.348L82.7796 131.952V138.107L83.4222 138.739L83.9762 139.293H124.191L124.745 138.739L125.355 138.14L125.321 138.113Z" fill="#9ABFED"/>
<g opacity="0.25">
<path opacity="0.25" d="M106.347 188.848V182.699L105.765 182.145L105.178 181.558H64.9685L64.4422 182.112L63.7996 182.749V188.898L64.4422 189.53L64.9685 190.084H105.183L105.737 189.53L106.347 188.931V188.848Z" fill="black"/>
</g>
<g opacity="0.25">
<path opacity="0.25" d="M109.892 180.388V174.239L109.338 173.685L108.729 173.064H68.5196L67.9656 173.591L67.323 174.228V180.372L67.9656 181.009L68.5196 181.535H108.729L109.283 180.981L109.892 180.377V180.388Z" fill="black"/>
</g>
<g opacity="0.1">
<path opacity="0.1" d="M106.347 171.957V165.785L105.765 165.231L105.178 164.644H64.9685L64.4422 165.17C64.2428 165.364 64.0489 165.553 63.7996 165.807V171.957L64.4422 172.594L64.9685 173.12H105.183L105.737 172.566L106.347 171.962V171.957Z" fill="black"/>
</g>
<g opacity="0.25">
<path opacity="0.25" d="M103.034 163.48V157.32L102.447 156.766L101.859 156.179H61.6556L61.1016 156.705L60.459 157.342V163.486L61.1016 164.118L61.6556 164.672H101.87L102.424 164.118L103.034 163.519V163.48Z" fill="black"/>
</g>
<g opacity="0.1">
<path opacity="0.1" d="M111.316 155.021V148.871L110.762 148.317L110.169 147.73H69.938L69.384 148.256L68.7413 148.893V155.037L69.384 155.674L69.938 156.201H110.147L110.701 155.647L111.311 155.043L111.316 155.021Z" fill="black"/>
</g>
<g opacity="0.25">
<path opacity="0.25" d="M121.56 146.567V140.418L120.978 139.864C120.801 139.686 120.618 139.509 120.391 139.276H80.1592L79.6052 139.83L78.9625 140.467V146.611C79.2174 146.861 79.4113 147.049 79.6052 147.248L80.1592 147.775H120.374L120.928 147.221L121.537 146.617L121.56 146.567Z" fill="black"/>
</g>
<g opacity="0.1">
<path opacity="0.1" d="M125.321 138.113V131.963L124.74 131.409L124.152 130.828H83.943L83.4167 131.348L82.7796 131.952V138.107L83.4222 138.739L83.9762 139.293H124.191L124.745 138.739L125.355 138.14L125.321 138.113Z" fill="black"/>
</g>
<g opacity="0.2">
<path opacity="0.2" d="M162.666 188.848V182.699L162.112 182.145C161.935 181.968 161.752 181.79 161.525 181.558H121.288L120.762 182.112L120.114 182.749V188.898L120.762 189.53L121.288 190.084H161.503L162.057 189.53L162.666 188.931V188.848Z" fill="black"/>
</g>
<g opacity="0.2">
<path opacity="0.2" d="M166.212 180.388V174.239L165.63 173.685L165.049 173.064H124.834L124.28 173.591L123.637 174.228V180.372L124.28 181.009L124.834 181.535H165.049L165.603 180.981L166.212 180.377V180.388Z" fill="black"/>
</g>
<g opacity="0.3">
<path opacity="0.3" d="M162.666 171.957V165.785L162.112 165.231L161.525 164.644H121.288L120.762 165.17L120.114 165.807V171.957L120.762 172.594L121.288 173.12H161.503L162.057 172.566L162.666 171.962V171.957Z" fill="black"/>
</g>
<g opacity="0.2">
<path opacity="0.2" d="M159.354 163.48V157.32L158.766 156.766L158.179 156.179H117.975L117.449 156.705L116.806 157.342V163.486L117.449 164.118L117.975 164.672H158.19L158.744 164.118C158.927 163.935 159.11 163.752 159.354 163.519V163.48Z" fill="black"/>
</g>
<g opacity="0.3">
<path opacity="0.3" d="M167.636 155.021V148.871L167.054 148.317L166.461 147.73H126.258L125.704 148.256L125.061 148.893V155.037L125.704 155.674L126.258 156.201H166.467L167.021 155.647L167.63 155.043L167.636 155.021Z" fill="black"/>
</g>
<g opacity="0.2">
<path opacity="0.2" d="M161.01 146.567V140.417L160.456 139.863L159.847 139.271H119.632L119.105 139.825L118.463 140.462V146.605L119.105 147.243L119.632 147.769H159.847L160.401 147.215L161.004 146.611L161.01 146.567Z" fill="black"/>
</g>
<g opacity="0.3">
<path opacity="0.3" d="M164.772 138.113V131.953L164.184 131.399L163.597 130.817H123.416L122.862 131.338L122.219 131.975V138.108L122.862 138.739L123.416 139.293H163.63L164.184 138.739C164.367 138.556 164.55 138.373 164.794 138.141L164.772 138.113Z" fill="black"/>
</g>
<path d="M132.95 115.05V121.194L131.781 122.363H91.566L90.3971 121.194V115.05L91.566 113.881H131.781C132.241 114.341 132.501 114.59 132.95 115.05Z" fill="#9ABFED"/>
<g opacity="0.3">
<path opacity="0.3" d="M132.95 115.05V121.194L131.781 122.363H91.566L90.3971 121.194V115.05L91.566 113.881H131.781C132.241 114.341 132.501 114.59 132.95 115.05Z" fill="white"/>
</g>
<g opacity="0.3">
<path opacity="0.3" d="M132.95 117.26H90.3971V120.335H132.95V117.26Z" fill="white"/>
</g>
<g opacity="0.1">
<path opacity="0.1" d="M91.5716 122.363H131.775L132.955 121.199H90.3971L91.5716 122.363Z" fill="black"/>
</g>
<g opacity="0.3">
<path opacity="0.3" d="M131.775 113.881H91.5716L90.3971 115.044H132.955L131.775 113.881Z" fill="white"/>
</g>
<g style="mix-blend-mode:screen" opacity="0.1">
<g style="mix-blend-mode:screen" opacity="0.1">
<path d="M117.582 113.881H109.422V122.363H117.582V113.881Z" fill="white"/>
</g>
</g>
<g style="mix-blend-mode:screen" opacity="0.1">
<g style="mix-blend-mode:screen" opacity="0.1">
<path d="M125.255 113.881H121.177V122.363H125.255V113.881Z" fill="white"/>
</g>
</g>
<path d="M140.285 123.504V129.648L139.116 130.817H98.901L97.7376 129.648V123.504C98.1919 123.044 98.4467 122.795 98.9065 122.335H139.121C139.576 122.795 139.842 123.044 140.285 123.504Z" fill="#9ABFED"/>
<g opacity="0.3">
<path opacity="0.3" d="M140.285 123.504V129.648L139.116 130.817H98.901L97.7376 129.648V123.504C98.1919 123.044 98.4467 122.795 98.9065 122.335H139.121C139.576 122.795 139.842 123.044 140.285 123.504Z" fill="white"/>
</g>
<g opacity="0.3">
<path opacity="0.3" d="M140.285 125.714H97.7321V128.789H140.285V125.714Z" fill="white"/>
</g>
<g opacity="0.1">
<path opacity="0.1" d="M98.9065 130.817H139.11L140.285 129.653H97.7376L98.9065 130.817Z" fill="black"/>
</g>
<g opacity="0.3">
<path opacity="0.3" d="M139.11 122.335H98.9066L97.7266 123.498H140.285L139.11 122.335Z" fill="white"/>
</g>
<g style="mix-blend-mode:screen" opacity="0.1">
<g style="mix-blend-mode:screen" opacity="0.1">
<path d="M124.917 122.335H116.756V130.817H124.917V122.335Z" fill="white"/>
</g>
</g>
<g style="mix-blend-mode:screen" opacity="0.1">
<g style="mix-blend-mode:screen" opacity="0.1">
<path d="M132.584 122.335H128.507V130.817H132.584V122.335Z" fill="white"/>
</g>
</g>
<path d="M137.448 131.958V138.107L136.279 139.271H96.0757L94.9067 138.102V131.958L96.0757 130.789H136.291L137.448 131.958Z" fill="#9ABFED"/>
<g opacity="0.3">
<path opacity="0.3" d="M137.448 131.958V138.107L136.279 139.271H96.0757L94.9067 138.102V131.958L96.0757 130.789H136.291L137.448 131.958Z" fill="white"/>
</g>
<g opacity="0.3">
<path opacity="0.3" d="M137.448 134.168H94.8956V137.243H137.448V134.168Z" fill="white"/>
</g>
<g opacity="0.1">
<path opacity="0.1" d="M96.0756 139.271H136.279L137.454 138.107H94.8956L96.0756 139.271Z" fill="black"/>
</g>
<g opacity="0.3">
<path opacity="0.3" d="M136.274 130.789H96.0756L94.9011 131.952H137.454L136.274 130.789Z" fill="white"/>
</g>
<g style="mix-blend-mode:screen" opacity="0.1">
<g style="mix-blend-mode:screen" opacity="0.1">
<path d="M122.08 130.789H113.92V139.271H122.08V130.789Z" fill="white"/>
</g>
</g>
<g style="mix-blend-mode:screen" opacity="0.1">
<g style="mix-blend-mode:screen" opacity="0.1">
<path d="M129.748 130.789H125.67V139.271H129.748V130.789Z" fill="white"/>
</g>
</g>
<path d="M133.665 140.417V146.561L132.496 147.73H92.2807L91.0896 146.561V140.417L92.2585 139.249H132.473L133.665 140.417Z" fill="#9ABFED"/>
<g opacity="0.3">
<path opacity="0.3" d="M133.665 140.417V146.561L132.496 147.73H92.2807L91.0896 146.561V140.417L92.2585 139.249H132.473L133.665 140.417Z" fill="white"/>
</g>
<g opacity="0.3">
<path opacity="0.3" d="M133.665 142.628H91.1118V145.703H133.665V142.628Z" fill="white"/>
</g>
<g opacity="0.1">
<path opacity="0.1" d="M92.2862 147.73H132.49L133.665 146.567H91.0896L92.2862 147.73Z" fill="black"/>
</g>
<g opacity="0.3">
<path opacity="0.3" d="M132.49 139.271H92.2862L91.0896 140.406H133.648L132.49 139.271Z" fill="white"/>
</g>
<g style="mix-blend-mode:screen" opacity="0.1">
<g style="mix-blend-mode:screen" opacity="0.1">
<path d="M118.297 139.249H110.136V147.73H118.297V139.249Z" fill="white"/>
</g>
</g>
<g style="mix-blend-mode:screen" opacity="0.1">
<g style="mix-blend-mode:screen" opacity="0.1">
<path d="M125.964 139.249H121.886V147.73H125.964V139.249Z" fill="white"/>
</g>
</g>
<path d="M140.285 148.872V155.015L139.116 156.184H98.901L97.7376 155.015V148.872L98.9065 147.703H139.121L140.285 148.872Z" fill="#9ABFED"/>
<g opacity="0.3">
<path opacity="0.3" d="M140.285 148.872V155.015L139.116 156.184H98.901L97.7376 155.015V148.872L98.9065 147.703H139.121L140.285 148.872Z" fill="white"/>
</g>
<g opacity="0.3">
<path opacity="0.3" d="M140.285 151.082H97.7321V154.157H140.285V151.082Z" fill="white"/>
</g>
<g opacity="0.1">
<path opacity="0.1" d="M98.9065 156.184H139.11L140.285 155.021H97.7376L98.9065 156.184Z" fill="black"/>
</g>
<g opacity="0.3">
<path opacity="0.3" d="M139.11 147.703H98.9066L97.7266 148.866H140.285L139.11 147.703Z" fill="white"/>
</g>
<g style="mix-blend-mode:screen" opacity="0.1">
<g style="mix-blend-mode:screen" opacity="0.1">
<path d="M124.917 147.703H116.756V156.184H124.917V147.703Z" fill="white"/>
</g>
</g>
<g style="mix-blend-mode:screen" opacity="0.1">
<g style="mix-blend-mode:screen" opacity="0.1">
<path d="M132.584 147.703H128.507V156.184H132.584V147.703Z" fill="white"/>
</g>
</g>
<path d="M132.008 157.326V163.47L130.834 164.644H90.6243L89.4553 163.47V157.326C89.9041 156.866 90.1644 156.617 90.6243 156.157H130.834C131.293 156.617 131.532 156.866 132.008 157.326Z" fill="#9ABFED"/>
<g opacity="0.3">
<path opacity="0.3" d="M132.008 157.326V163.47L130.834 164.644H90.6243L89.4553 163.47V157.326C89.9041 156.866 90.1644 156.617 90.6243 156.157H130.834C131.293 156.617 131.532 156.866 132.008 157.326Z" fill="white"/>
</g>
<g opacity="0.3">
<path opacity="0.3" d="M132.008 159.536H89.4553V162.611H132.008V159.536Z" fill="white"/>
</g>
<g opacity="0.1">
<path opacity="0.1" d="M90.6243 164.639H130.834L132.008 163.475H89.4276L90.6243 164.639Z" fill="black"/>
</g>
<g opacity="0.3">
<path opacity="0.3" d="M130.834 156.157H90.6243L89.4498 157.32H132.008L130.834 156.157Z" fill="white"/>
</g>
<g style="mix-blend-mode:screen" opacity="0.1">
<g style="mix-blend-mode:screen" opacity="0.1">
<path d="M116.635 156.157H108.474V164.638H116.635V156.157Z" fill="white"/>
</g>
</g>
<g style="mix-blend-mode:screen" opacity="0.1">
<g style="mix-blend-mode:screen" opacity="0.1">
<path d="M124.307 156.157H120.23V164.638H124.307V156.157Z" fill="white"/>
</g>
</g>
<path d="M135.315 165.785V171.957L134.146 173.126H93.9316L92.7516 171.957V165.785C93.2059 165.325 93.4607 165.076 93.9205 164.616H134.135C134.606 165.076 134.856 165.309 135.315 165.785Z" fill="#9ABFED"/>
<g opacity="0.3">
<path opacity="0.3" d="M135.315 165.785V171.957L134.146 173.126H93.9316L92.7516 171.957V165.785C93.2059 165.325 93.4607 165.076 93.9205 164.616H134.135C134.606 165.076 134.856 165.309 135.315 165.785Z" fill="white"/>
</g>
<g opacity="0.3">
<path opacity="0.3" d="M135.315 167.996H92.7627V171.07H135.315V167.996Z" fill="white"/>
</g>
<g opacity="0.1">
<path opacity="0.1" d="M93.9371 173.092H134.141L135.321 171.935H92.7516L93.9371 173.092Z" fill="black"/>
</g>
<g opacity="0.3">
<path opacity="0.3" d="M134.141 164.616H93.9371L92.7516 165.774H135.31L134.141 164.616Z" fill="white"/>
</g>
<g style="mix-blend-mode:screen" opacity="0.1">
<g style="mix-blend-mode:screen" opacity="0.1">
<path d="M119.947 164.616H111.787V173.098H119.947V164.616Z" fill="white"/>
</g>
</g>
<g style="mix-blend-mode:screen" opacity="0.1">
<g style="mix-blend-mode:screen" opacity="0.1">
<path d="M127.62 164.616H123.543V173.098H127.62V164.616Z" fill="white"/>
</g>
</g>
<path d="M144.828 174.239V180.383L143.659 181.552H103.433L102.264 180.383V174.239L103.433 173.07H143.648L144.828 174.239Z" fill="#9ABFED"/>
<g opacity="0.3">
<path opacity="0.3" d="M144.828 174.239V180.383L143.659 181.552H103.433L102.264 180.383V174.239L103.433 173.07H143.648L144.828 174.239Z" fill="white"/>
</g>
<g opacity="0.3">
<path opacity="0.3" d="M144.817 176.45H102.264V179.524H144.817V176.45Z" fill="white"/>
</g>
<g opacity="0.1">
<path opacity="0.1" d="M103.438 181.552H143.642L144.822 180.389H102.264L103.438 181.552Z" fill="black"/>
</g>
<g opacity="0.3">
<path opacity="0.3" d="M143.642 173.064H103.438L102.264 174.228H144.828L143.642 173.064Z" fill="white"/>
</g>
<g style="mix-blend-mode:screen" opacity="0.1">
<g style="mix-blend-mode:screen" opacity="0.1">
<path d="M129.449 173.07H121.288V181.552H129.449V173.07Z" fill="white"/>
</g>
</g>
<g style="mix-blend-mode:screen" opacity="0.1">
<g style="mix-blend-mode:screen" opacity="0.1">
<path d="M137.122 173.07H133.044V181.552H137.122V173.07Z" fill="white"/>
</g>
</g>
<path d="M135.315 182.693V188.837L134.146 190.006H93.9316L92.7516 188.837V182.693C93.2059 182.234 93.4662 181.984 93.9205 181.524H134.135C134.606 181.984 134.856 182.234 135.315 182.693Z" fill="#9ABFED"/>
<g opacity="0.3">
<path opacity="0.3" d="M135.315 182.693V188.837L134.146 190.006H93.9316L92.7516 188.837V182.693C93.2059 182.234 93.4662 181.984 93.9205 181.524H134.135C134.606 181.984 134.856 182.234 135.315 182.693Z" fill="white"/>
</g>
<g opacity="0.3">
<path opacity="0.3" d="M135.315 184.903H92.7627V187.978H135.315V184.903Z" fill="white"/>
</g>
<g opacity="0.1">
<path opacity="0.1" d="M93.9371 190.006H134.141L135.321 188.843H92.7516L93.9371 190.006Z" fill="black"/>
</g>
<g opacity="0.3">
<path opacity="0.3" d="M134.141 181.524H93.9372L92.7627 182.688H135.321L134.141 181.524Z" fill="white"/>
</g>
<g style="mix-blend-mode:screen" opacity="0.1">
<g style="mix-blend-mode:screen" opacity="0.1">
<path d="M119.947 181.524H111.787V190.006H119.947V181.524Z" fill="white"/>
</g>
</g>
<g style="mix-blend-mode:screen" opacity="0.1">
<g style="mix-blend-mode:screen" opacity="0.1">
<path d="M127.62 181.524H123.543V190.006H127.62V181.524Z" fill="white"/>
</g>
</g>
<path d="M83.5054 157.326V163.47L82.3364 164.644H42.1216L40.9526 163.47V157.326L42.1216 156.157H82.3364L83.5054 157.326Z" fill="#9ABFED"/>
<g opacity="0.3">
<path opacity="0.3" d="M83.5054 157.326V163.47L82.3364 164.644H42.1216L40.9526 163.47V157.326L42.1216 156.157H82.3364L83.5054 157.326Z" fill="white"/>
</g>
<g opacity="0.3">
<path opacity="0.3" d="M83.5054 159.536H40.9526V162.611H83.5054V159.536Z" fill="white"/>
</g>
<g opacity="0.1">
<path opacity="0.1" d="M42.127 164.639H82.3308L83.5053 163.475H40.947L42.127 164.639Z" fill="black"/>
</g>
<g opacity="0.3">
<path opacity="0.3" d="M82.3308 156.157H42.127L40.947 157.32H83.5053L82.3308 156.157Z" fill="white"/>
</g>
<g style="mix-blend-mode:screen" opacity="0.1">
<g style="mix-blend-mode:screen" opacity="0.1">
<path d="M68.1374 156.157H59.9769V164.638H68.1374V156.157Z" fill="white"/>
</g>
</g>
<g style="mix-blend-mode:screen" opacity="0.1">
<g style="mix-blend-mode:screen" opacity="0.1">
<path d="M75.8047 156.157H71.7273V164.638H75.8047V156.157Z" fill="white"/>
</g>
</g>
<path d="M86.8127 165.785V171.957L85.6438 173.126H45.4344L44.2655 171.957V165.785C44.7142 165.325 44.9746 165.076 45.4344 164.616H85.6438C86.1036 165.076 86.364 165.309 86.8127 165.785Z" fill="#9ABFED"/>
<g opacity="0.3">
<path opacity="0.3" d="M86.8127 165.785V171.957L85.6438 173.126H45.4344L44.2655 171.957V165.785C44.7142 165.325 44.9746 165.076 45.4344 164.616H85.6438C86.1036 165.076 86.364 165.309 86.8127 165.785Z" fill="white"/>
</g>
<g opacity="0.3">
<path opacity="0.3" d="M86.8182 167.996H44.2655V171.07H86.8182V167.996Z" fill="white"/>
</g>
<g opacity="0.1">
<path opacity="0.1" d="M45.4345 173.092H85.6438L86.8183 171.935H44.26L45.4345 173.092Z" fill="black"/>
</g>
<g opacity="0.3">
<path opacity="0.3" d="M85.6438 164.616H45.4345L44.26 165.774H86.8183C86.3585 165.309 86.1036 165.07 85.6438 164.616Z" fill="white"/>
</g>
<g style="mix-blend-mode:screen" opacity="0.1">
<g style="mix-blend-mode:screen" opacity="0.1">
<path d="M71.4448 164.616H63.2844V173.098H71.4448V164.616Z" fill="white"/>
</g>
</g>
<g style="mix-blend-mode:screen" opacity="0.1">
<g style="mix-blend-mode:screen" opacity="0.1">
<path d="M79.1177 164.616H75.0403V173.098H79.1177V164.616Z" fill="white"/>
</g>
</g>
<path d="M90.0813 174.239V180.383L88.9124 181.552H48.6975L47.5286 180.383V174.239L48.6975 173.07H88.9124L90.0813 174.239Z" fill="#9ABFED"/>
<g opacity="0.3">
<path opacity="0.3" d="M90.0813 174.239V180.383L88.9124 181.552H48.6975L47.5286 180.383V174.239L48.6975 173.07H88.9124L90.0813 174.239Z" fill="white"/>
</g>
<g opacity="0.3">
<path opacity="0.3" d="M90.0813 176.45H47.5286V179.524H90.0813V176.45Z" fill="white"/>
</g>
<g opacity="0.1">
<path opacity="0.1" d="M48.7031 181.552H88.9069L90.0814 180.389H47.5231L48.7031 181.552Z" fill="black"/>
</g>
<g opacity="0.3">
<path opacity="0.3" d="M88.9069 173.064H48.7031L47.5231 174.228H90.0814L88.9069 173.064Z" fill="white"/>
</g>
<g style="mix-blend-mode:screen" opacity="0.1">
<g style="mix-blend-mode:screen" opacity="0.1">
<path d="M74.7134 173.07H66.553V181.552H74.7134V173.07Z" fill="white"/>
</g>
</g>
<g style="mix-blend-mode:screen" opacity="0.1">
<g style="mix-blend-mode:screen" opacity="0.1">
<path d="M82.3808 173.07H78.3033V181.552H82.3808V173.07Z" fill="white"/>
</g>
</g>
<path d="M80.5636 182.693V188.837L79.3946 190.006H39.1964L38.0275 188.837V182.693L39.1964 181.524H79.4113L80.5636 182.693Z" fill="#9ABFED"/>
<g opacity="0.3">
<path opacity="0.3" d="M80.5636 182.693V188.837L79.3946 190.006H39.1964L38.0275 188.837V182.693L39.1964 181.524H79.4113L80.5636 182.693Z" fill="white"/>
</g>
<g opacity="0.3">
<path opacity="0.3" d="M80.5802 184.903H38.0275V187.978H80.5802V184.903Z" fill="white"/>
</g>
<g opacity="0.1">
<path opacity="0.1" d="M39.202 190.006H79.4058L80.5802 188.843H38.022L39.202 190.006Z" fill="black"/>
</g>
<g opacity="0.3">
<path opacity="0.3" d="M79.4058 181.524H39.202L38.022 182.688H80.5636L79.4058 181.524Z" fill="white"/>
</g>
<g style="mix-blend-mode:screen" opacity="0.1">
<g style="mix-blend-mode:screen" opacity="0.1">
<path d="M65.2123 181.524H57.0519V190.006H65.2123V181.524Z" fill="white"/>
</g>
</g>
<g style="mix-blend-mode:screen" opacity="0.1">
<g style="mix-blend-mode:screen" opacity="0.1">
<path d="M72.8796 181.524H68.8021V190.006H72.8796V181.524Z" fill="white"/>
</g>
</g>
<path d="M189.38 140.417V146.561L188.211 147.73H147.996L146.828 146.561V140.417L147.996 139.249H188.211L189.38 140.417Z" fill="#9ABFED"/>
<g opacity="0.3">
<path opacity="0.3" d="M189.38 140.417V146.561L188.211 147.73H147.996L146.828 146.561V140.417L147.996 139.249H188.211L189.38 140.417Z" fill="white"/>
</g>
<g opacity="0.3">
<path opacity="0.3" d="M189.38 142.628H146.828V145.703H189.38V142.628Z" fill="white"/>
</g>
<g opacity="0.1">
<path opacity="0.1" d="M148.002 147.73H188.206L189.38 146.567H146.828L148.002 147.73Z" fill="black"/>
</g>
<g opacity="0.3">
<path opacity="0.3" d="M188.206 139.271H148.002L146.828 140.428H189.38L188.206 139.271Z" fill="white"/>
</g>
<g style="mix-blend-mode:screen" opacity="0.1">
<g style="mix-blend-mode:screen" opacity="0.1">
<path d="M174.012 139.249H165.852V147.73H174.012V139.249Z" fill="white"/>
</g>
</g>
<g style="mix-blend-mode:screen" opacity="0.1">
<g style="mix-blend-mode:screen" opacity="0.1">
<path d="M181.68 139.249H177.602V147.73H181.68V139.249Z" fill="white"/>
</g>
</g>
<path d="M196.001 148.872V155.015L194.832 156.184H154.617L153.448 155.015V148.872L154.617 147.703H194.832L196.001 148.872Z" fill="#9ABFED"/>
<g opacity="0.3">
<path opacity="0.3" d="M196.001 148.872V155.015L194.832 156.184H154.617L153.448 155.015V148.872L154.617 147.703H194.832L196.001 148.872Z" fill="white"/>
</g>
<g opacity="0.3">
<path opacity="0.3" d="M196.001 151.082H153.448V154.157H196.001V151.082Z" fill="white"/>
</g>
<g opacity="0.1">
<path opacity="0.1" d="M154.622 156.184H194.826L196.001 155.021H153.448L154.622 156.184Z" fill="black"/>
</g>
<g opacity="0.3">
<path opacity="0.3" d="M194.826 147.703H154.622L153.448 148.866H196.001L194.826 147.703Z" fill="white"/>
</g>
<g style="mix-blend-mode:screen" opacity="0.1">
<g style="mix-blend-mode:screen" opacity="0.1">
<path d="M180.633 147.703H172.472V156.184H180.633V147.703Z" fill="white"/>
</g>
</g>
<g style="mix-blend-mode:screen" opacity="0.1">
<g style="mix-blend-mode:screen" opacity="0.1">
<path d="M188.3 147.703H184.223V156.184H188.3V147.703Z" fill="white"/>
</g>
</g>
<path d="M187.724 157.326V163.47L186.549 164.644H146.34L145.171 163.47V157.326C145.62 156.866 145.88 156.617 146.34 156.157H186.549C187.009 156.617 187.27 156.866 187.724 157.326Z" fill="#9ABFED"/>
<g opacity="0.3">
<path opacity="0.3" d="M187.724 157.326V163.47L186.549 164.644H146.34L145.171 163.47V157.326C145.62 156.866 145.88 156.617 146.34 156.157H186.549C187.009 156.617 187.27 156.866 187.724 157.326Z" fill="white"/>
</g>
<g opacity="0.3">
<path opacity="0.3" d="M187.724 159.536H145.171V162.611H187.724V159.536Z" fill="white"/>
</g>
<g opacity="0.1">
<path opacity="0.1" d="M146.34 164.639H186.549L187.724 163.475H145.166L146.34 164.639Z" fill="black"/>
</g>
<g opacity="0.3">
<path opacity="0.3" d="M186.549 156.157H146.34L145.166 157.32H187.724L186.549 156.157Z" fill="white"/>
</g>
<g style="mix-blend-mode:screen" opacity="0.1">
<g style="mix-blend-mode:screen" opacity="0.1">
<path d="M172.35 156.157H164.19V164.638H172.35V156.157Z" fill="white"/>
</g>
</g>
<g style="mix-blend-mode:screen" opacity="0.1">
<g style="mix-blend-mode:screen" opacity="0.1">
<path d="M180.023 156.157H175.946V164.638H180.023V156.157Z" fill="white"/>
</g>
</g>
<path d="M191.031 165.785V171.957L189.862 173.126H149.647L148.479 171.957V165.785L149.647 164.616H189.862C190.322 165.076 190.583 165.309 191.031 165.785Z" fill="#9ABFED"/>
<g opacity="0.3">
<path opacity="0.3" d="M191.031 165.785V171.957L189.862 173.126H149.647L148.479 171.957V165.785L149.647 164.616H189.862C190.322 165.076 190.583 165.309 191.031 165.785Z" fill="white"/>
</g>
<g opacity="0.3">
<path opacity="0.3" d="M191.031 167.996H148.479V171.07H191.031V167.996Z" fill="white"/>
</g>
<g opacity="0.1">
<path opacity="0.1" d="M149.653 173.092H189.857L191.037 171.935H148.479L149.653 173.092Z" fill="black"/>
</g>
<g opacity="0.3">
<path opacity="0.3" d="M189.857 164.616H149.653L148.479 165.774H191.037L189.857 164.616Z" fill="white"/>
</g>
<g style="mix-blend-mode:screen" opacity="0.1">
<g style="mix-blend-mode:screen" opacity="0.1">
<path d="M175.663 164.616H167.503V173.098H175.663V164.616Z" fill="white"/>
</g>
</g>
<g style="mix-blend-mode:screen" opacity="0.1">
<g style="mix-blend-mode:screen" opacity="0.1">
<path d="M183.336 164.616H179.259V173.098H183.336V164.616Z" fill="white"/>
</g>
</g>
<path d="M194.627 174.239V180.383L193.458 181.552H153.248L152.074 180.383V174.239C152.528 173.779 152.789 173.53 153.248 173.07H193.458C193.918 173.53 194.178 173.779 194.627 174.239Z" fill="#9ABFED"/>
<g opacity="0.3">
<path opacity="0.3" d="M194.627 174.239V180.383L193.458 181.552H153.248L152.074 180.383V174.239C152.528 173.779 152.789 173.53 153.248 173.07H193.458C193.918 173.53 194.178 173.779 194.627 174.239Z" fill="white"/>
</g>
<g opacity="0.3">
<path opacity="0.3" d="M194.627 176.45H152.074V179.524H194.627V176.45Z" fill="white"/>
</g>
<g opacity="0.1">
<path opacity="0.1" d="M153.248 181.552H193.452L194.632 180.389H152.074L153.248 181.552Z" fill="black"/>
</g>
<g opacity="0.3">
<path opacity="0.3" d="M193.452 173.064H153.248L152.074 174.228H194.632L193.452 173.064Z" fill="white"/>
</g>
<g style="mix-blend-mode:screen" opacity="0.1">
<g style="mix-blend-mode:screen" opacity="0.1">
<path d="M179.259 173.07H171.098V181.552H179.259V173.07Z" fill="white"/>
</g>
</g>
<g style="mix-blend-mode:screen" opacity="0.1">
<g style="mix-blend-mode:screen" opacity="0.1">
<path d="M186.932 173.07H182.854V181.552H186.932V173.07Z" fill="white"/>
</g>
</g>
<path d="M191.031 182.693V188.837L189.862 190.006H149.653L148.479 188.837V182.693C148.933 182.234 149.193 181.984 149.653 181.524H189.862C190.322 181.984 190.583 182.234 191.031 182.693Z" fill="#9ABFED"/>
<g opacity="0.3">
<path opacity="0.3" d="M191.031 182.693V188.837L189.862 190.006H149.653L148.479 188.837V182.693C148.933 182.234 149.193 181.984 149.653 181.524H189.862C190.322 181.984 190.583 182.234 191.031 182.693Z" fill="white"/>
</g>
<g opacity="0.3">
<path opacity="0.3" d="M191.031 184.903H148.479V187.978H191.031V184.903Z" fill="white"/>
</g>
<g opacity="0.1">
<path opacity="0.1" d="M149.653 190.006H189.857L191.037 188.843H148.479L149.653 190.006Z" fill="black"/>
</g>
<g opacity="0.3">
<path opacity="0.3" d="M189.857 181.524H149.653L148.479 182.688H191.037L189.857 181.524Z" fill="white"/>
</g>
<g style="mix-blend-mode:screen" opacity="0.1">
<g style="mix-blend-mode:screen" opacity="0.1">
<path d="M175.663 181.524H167.503V190.006H175.663V181.524Z" fill="white"/>
</g>
</g>
<g style="mix-blend-mode:screen" opacity="0.1">
<g style="mix-blend-mode:screen" opacity="0.1">
<path d="M183.336 181.524H179.259V190.006H183.336V181.524Z" fill="white"/>
</g>
</g>
<path d="M161.697 116.413C161.697 116.413 160.295 118.923 162.539 122.341C163.863 124.357 165.675 124.934 166.777 124.213C167.88 123.493 168.09 121.604 166.777 119.582C164.567 116.147 161.697 116.413 161.697 116.413Z" fill="#9ABFED"/>
<path opacity="0.2" d="M161.697 116.413C161.697 116.413 160.295 118.923 162.539 122.341C163.863 124.357 165.675 124.934 166.777 124.213C167.88 123.493 168.09 121.604 166.777 119.582C164.567 116.147 161.697 116.413 161.697 116.413Z" fill="white"/>
<path d="M181.574 104.474C181.574 104.474 176.716 103.4 172.156 108.801C169.475 111.987 169.42 115.272 171.154 116.745C172.888 118.219 176.14 117.626 178.827 114.463C183.43 109.089 181.574 104.474 181.574 104.474Z" fill="#9ABFED"/>
<path d="M175.198 83.0288C175.198 83.0288 174.118 83.328 173.78 84.8902C173.58 85.8099 173.918 86.4747 174.417 86.5522C174.915 86.6298 175.525 86.2032 175.713 85.2836C175.833 84.8956 175.849 84.4829 175.758 84.0871C175.668 83.6912 175.474 83.3262 175.198 83.0288Z" fill="#9ABFED"/>
<path d="M166.6 131.11C165.977 128.9 165.686 126.609 165.736 124.313C165.784 122.085 166.11 119.873 166.705 117.726C166.999 116.673 167.342 115.637 167.736 114.629C167.929 114.125 168.134 113.632 168.356 113.138C168.461 112.889 168.578 112.651 168.688 112.407L168.855 112.053L169.015 111.709C169.885 109.887 170.711 108.053 171.453 106.169C172.203 104.315 172.856 102.424 173.409 100.502C173.96 98.5828 174.346 96.62 174.561 94.6349C174.781 92.649 174.717 90.6419 174.373 88.6738C174.021 86.6794 173.267 84.7775 172.157 83.084C173.481 84.6771 174.468 86.5222 175.059 88.5076C175.643 90.5186 175.939 92.6019 175.94 94.6958C175.949 96.788 175.777 98.877 175.425 100.939C175.078 102.994 174.621 105.028 174.057 107.033C173.503 109.039 172.866 111.017 172.19 112.972L172.062 113.338L172.001 113.521L171.946 113.692C171.868 113.92 171.785 114.152 171.719 114.385C171.575 114.845 171.436 115.31 171.314 115.776C171.071 116.701 170.871 117.637 170.722 118.573C170.426 120.404 170.359 122.265 170.522 124.113C170.686 125.9 171.113 127.653 171.791 129.315L166.6 131.11Z" fill="#9ABFED"/>
<path opacity="0.2" d="M166.6 131.11C165.977 128.9 165.686 126.609 165.736 124.313C165.784 122.085 166.11 119.873 166.705 117.726C166.999 116.673 167.342 115.637 167.736 114.629C167.929 114.125 168.134 113.632 168.356 113.138C168.461 112.889 168.578 112.651 168.688 112.407L168.855 112.053L169.015 111.709C169.885 109.887 170.711 108.053 171.453 106.169C172.203 104.315 172.856 102.424 173.409 100.502C173.96 98.5828 174.346 96.62 174.561 94.6349C174.781 92.649 174.717 90.6419 174.373 88.6738C174.021 86.6794 173.267 84.7775 172.157 83.084C173.481 84.6771 174.468 86.5222 175.059 88.5076C175.643 90.5186 175.939 92.6019 175.94 94.6958C175.949 96.788 175.777 98.877 175.425 100.939C175.078 102.994 174.621 105.028 174.057 107.033C173.503 109.039 172.866 111.017 172.19 112.972L172.062 113.338L172.001 113.521L171.946 113.692C171.868 113.92 171.785 114.152 171.719 114.385C171.575 114.845 171.436 115.31 171.314 115.776C171.071 116.701 170.871 117.637 170.722 118.573C170.426 120.404 170.359 122.265 170.522 124.113C170.686 125.9 171.113 127.653 171.791 129.315L166.6 131.11Z" fill="black"/>
<path d="M176.854 125.792L176.699 127.493L175.713 138.573C175.694 138.76 175.607 138.933 175.468 139.06C175.329 139.187 175.148 139.258 174.96 139.26H162.401C162.212 139.26 162.03 139.19 161.89 139.063C161.75 138.936 161.664 138.761 161.647 138.573L160.655 127.493L160.506 125.792H176.854Z" fill="#9ABFED"/>
<path d="M176.668 131.939L176.313 135.907L176.462 135.92L176.817 131.953L176.668 131.939Z" fill="#9ABFED"/>
<path d="M176.859 129.834L176.775 130.772L176.924 130.786L177.008 129.848L176.859 129.834Z" fill="#9ABFED"/>
<path d="M169.159 93.5601C169.159 93.5601 167.198 96.1749 169.198 100.363C170.378 102.834 172.328 103.754 173.68 103.133C175.032 102.513 175.558 100.402 174.395 97.92C172.422 93.7041 169.159 93.5601 169.159 93.5601Z" fill="#9ABFED"/>
<path opacity="0.2" d="M169.159 93.5601C169.159 93.5601 167.198 96.1749 169.198 100.363C170.378 102.834 172.328 103.754 173.68 103.133C175.032 102.513 175.558 100.402 174.395 97.92C172.422 93.7041 169.159 93.5601 169.159 93.5601Z" fill="black"/>
<path opacity="0.2" d="M176.854 125.792L176.699 127.493H160.655L160.506 125.792H176.854Z" fill="black"/>
<path d="M177.824 123.692H159.531C159.335 123.692 159.176 123.851 159.176 124.047V126.285C159.176 126.481 159.335 126.64 159.531 126.64H177.824C178.02 126.64 178.178 126.481 178.178 126.285V124.047C178.178 123.851 178.02 123.692 177.824 123.692Z" fill="#9ABFED"/>
<path d="M184.918 99.2434C187.546 97.2658 188.074 93.532 186.096 90.9038C184.119 88.2756 180.385 87.7482 177.757 89.7259C175.128 91.7035 174.601 95.4372 176.579 98.0654C178.556 100.694 182.29 101.221 184.918 99.2434Z" fill="#9ABFED"/>
<path opacity="0.1" d="M186.112 95.9479C186.312 95.1565 186.311 94.3273 186.108 93.5365C185.904 92.7458 185.506 92.0187 184.948 91.4221C184.391 90.8255 183.693 90.3785 182.917 90.122C182.142 89.8655 181.315 89.8078 180.512 89.9541C179.709 90.1005 178.955 90.4463 178.32 90.9597C177.685 91.4731 177.19 92.1378 176.879 92.8926C176.567 93.6475 176.451 94.4684 176.54 95.28C176.628 96.0917 176.919 96.868 177.386 97.5379C176.866 96.8602 176.528 96.06 176.406 95.2142C176.283 94.3684 176.381 93.5054 176.688 92.708C176.995 91.9105 177.502 91.2054 178.16 90.6604C178.819 90.1153 179.606 89.7486 180.447 89.5954C181.287 89.4422 182.153 89.5077 182.961 89.7855C183.77 90.0634 184.493 90.5443 185.062 91.1821C185.63 91.8199 186.026 92.5932 186.21 93.4277C186.394 94.2623 186.36 95.1301 186.112 95.9479Z" fill="black"/>
<path d="M183.17 95.3331L182.577 96.6128C182.554 96.6606 182.521 96.7033 182.481 96.7385C182.441 96.7737 182.395 96.8006 182.345 96.8178C182.296 96.8399 182.243 96.8512 182.189 96.8512C182.136 96.8512 182.083 96.8399 182.034 96.8178L180.926 96.2971L180.505 97.1835C180.457 97.2826 180.372 97.3586 180.268 97.395C180.164 97.4313 180.05 97.425 179.951 97.3774C179.853 97.3303 179.778 97.2468 179.741 97.1447C179.72 97.0956 179.709 97.0428 179.709 96.9896C179.709 96.9363 179.72 96.8835 179.741 96.8344L180.162 95.937L179.054 95.4218C179.006 95.3995 178.963 95.3679 178.928 95.3289C178.893 95.2899 178.866 95.2442 178.849 95.1946C178.828 95.1455 178.817 95.0928 178.817 95.0395C178.817 94.9862 178.828 94.9335 178.849 94.8844C178.871 94.8368 178.903 94.7941 178.942 94.7589C178.981 94.7237 179.026 94.6966 179.076 94.6794C179.125 94.6574 179.178 94.646 179.231 94.646C179.285 94.646 179.337 94.6574 179.386 94.6794L181.957 95.8926L182.206 95.3663L179.641 94.1586C179.591 94.1356 179.547 94.1028 179.51 94.0621C179.474 94.0214 179.446 93.9737 179.428 93.9219C179.411 93.8702 179.404 93.8153 179.408 93.7608C179.412 93.7062 179.427 93.6531 179.453 93.6046L180.04 92.3526C180.062 92.3034 180.094 92.2593 180.134 92.2231C180.174 92.1869 180.221 92.1593 180.273 92.1421C180.32 92.1202 180.372 92.1088 180.425 92.1088C180.477 92.1088 180.529 92.1202 180.577 92.1421L181.685 92.6573L182.106 91.7709C182.126 91.7223 182.157 91.6784 182.195 91.6421C182.233 91.6059 182.278 91.578 182.328 91.5604C182.379 91.5376 182.435 91.5259 182.491 91.5259C182.548 91.5259 182.603 91.5376 182.655 91.5604C182.702 91.5821 182.744 91.6136 182.779 91.6527C182.813 91.6919 182.839 91.7378 182.854 91.7875C182.876 91.8353 182.887 91.8873 182.887 91.9399C182.887 91.9924 182.876 92.0444 182.854 92.0922L182.439 92.9842L183.547 93.5382C183.647 93.5851 183.724 93.6695 183.763 93.7732C183.801 93.8768 183.797 93.9914 183.752 94.0921C183.728 94.1413 183.695 94.1853 183.654 94.2214C183.613 94.2576 183.565 94.2852 183.513 94.3027C183.464 94.3234 183.412 94.3341 183.358 94.3341C183.305 94.3341 183.252 94.3234 183.203 94.3027L180.633 93.0839L180.383 93.6046L182.948 94.8179C182.997 94.8393 183.041 94.8705 183.077 94.9095C183.113 94.9486 183.141 94.9947 183.159 95.045C183.198 95.1363 183.202 95.2391 183.17 95.3331Z" fill="#FAFAFA"/>
<path d="M168.254 114.291C170.149 112.865 170.529 110.173 169.103 108.278C167.678 106.384 164.986 106.004 163.091 107.429C161.196 108.855 160.816 111.547 162.242 113.441C163.668 115.336 166.359 115.716 168.254 114.291Z" fill="#9ABFED"/>
<path opacity="0.1" d="M169.121 111.914C169.266 111.343 169.265 110.744 169.119 110.173C168.973 109.602 168.685 109.077 168.283 108.646C167.881 108.215 167.377 107.892 166.817 107.707C166.258 107.522 165.661 107.48 165.081 107.586C164.501 107.691 163.957 107.941 163.498 108.312C163.04 108.683 162.683 109.163 162.458 109.708C162.234 110.253 162.15 110.846 162.215 111.431C162.279 112.017 162.49 112.578 162.827 113.061C162.447 112.571 162.199 111.992 162.108 111.379C162.017 110.766 162.085 110.14 162.306 109.561C162.527 108.982 162.894 108.47 163.371 108.074C163.848 107.678 164.419 107.411 165.029 107.3C165.638 107.189 166.267 107.237 166.852 107.439C167.438 107.642 167.962 107.992 168.373 108.455C168.785 108.919 169.07 109.481 169.2 110.087C169.331 110.693 169.304 111.322 169.121 111.914Z" fill="black"/>
<path d="M166.988 111.471L166.561 112.379C166.545 112.414 166.522 112.444 166.493 112.469C166.465 112.494 166.431 112.512 166.395 112.524C166.359 112.539 166.32 112.546 166.281 112.546C166.242 112.546 166.204 112.539 166.168 112.524L165.381 112.125L165.076 112.767C165.061 112.802 165.038 112.834 165.009 112.86C164.98 112.885 164.947 112.905 164.91 112.917C164.839 112.945 164.76 112.945 164.689 112.917C164.62 112.88 164.565 112.822 164.533 112.751C164.518 112.715 164.511 112.676 164.511 112.637C164.511 112.598 164.518 112.559 164.533 112.524L164.838 111.881L164.046 111.504C164.012 111.489 163.981 111.467 163.955 111.439C163.929 111.411 163.909 111.379 163.896 111.344C163.881 111.308 163.874 111.271 163.874 111.233C163.874 111.195 163.881 111.157 163.896 111.122C163.911 111.086 163.934 111.053 163.962 111.026C163.991 110.999 164.025 110.979 164.063 110.967C164.098 110.952 164.135 110.944 164.173 110.944C164.211 110.944 164.249 110.952 164.284 110.967L166.14 111.842L166.317 111.46L164.467 110.59C164.432 110.574 164.4 110.551 164.375 110.523C164.349 110.494 164.329 110.46 164.317 110.424C164.302 110.389 164.295 110.351 164.295 110.313C164.295 110.275 164.302 110.237 164.317 110.202L164.744 109.299C164.777 109.229 164.837 109.176 164.91 109.15C164.945 109.135 164.983 109.127 165.021 109.127C165.059 109.127 165.097 109.135 165.132 109.15L165.918 109.521L166.223 108.878C166.238 108.843 166.26 108.812 166.287 108.786C166.315 108.76 166.348 108.741 166.384 108.729C166.42 108.712 166.46 108.704 166.5 108.704C166.54 108.704 166.58 108.712 166.616 108.729C166.684 108.762 166.737 108.821 166.761 108.892C166.786 108.964 166.782 109.042 166.749 109.111L166.45 109.754L167.254 110.136C167.289 110.152 167.322 110.174 167.348 110.203C167.375 110.232 167.395 110.265 167.409 110.302C167.422 110.338 167.428 110.376 167.426 110.414C167.424 110.453 167.415 110.49 167.398 110.525C167.381 110.559 167.358 110.59 167.33 110.616C167.301 110.641 167.268 110.661 167.231 110.673C167.196 110.69 167.157 110.698 167.118 110.698C167.079 110.698 167.04 110.69 167.004 110.673L165.148 109.798L164.971 110.175L166.821 111.05C166.857 111.066 166.888 111.089 166.914 111.117C166.94 111.146 166.959 111.18 166.971 111.216C166.995 111.254 167.01 111.297 167.013 111.341C167.016 111.386 167.007 111.431 166.988 111.471Z" fill="#FAFAFA"/>
<path d="M103.832 83.4496C103.832 83.4496 101.361 87.4717 104.807 93.2333C106.834 96.6293 109.793 97.6653 111.626 96.5905C113.46 95.5157 113.953 92.4078 111.948 88.9952C108.524 83.2114 103.832 83.4496 103.832 83.4496Z" fill="#9ABFED"/>
<path opacity="0.2" d="M103.832 83.4496C103.832 83.4496 101.361 87.4717 104.807 93.2333C106.834 96.6293 109.793 97.6653 111.626 96.5905C113.46 95.5157 113.953 92.4078 111.948 88.9952C108.524 83.2114 103.832 83.4496 103.832 83.4496Z" fill="white"/>
<path d="M127.848 72.7906C127.848 72.7906 121.898 71.4721 116.324 78.0924C113.034 81.9981 112.967 86.0256 115.094 87.8317C117.222 89.6377 121.188 88.9397 124.512 85.0284C130.124 78.4414 127.848 72.7906 127.848 72.7906Z" fill="#9ABFED"/>
<path d="M120.795 43.5728C120.795 43.5728 118.917 44.0935 118.33 46.8026C117.986 48.3981 118.574 49.5449 119.438 49.7388C120.302 49.9327 121.321 49.1294 121.654 47.5228C122.285 44.8303 120.795 43.5728 120.795 43.5728Z" fill="#9ABFED"/>
<path d="M109.826 104.02C109.065 101.317 108.706 98.5169 108.762 95.7097C108.822 92.9782 109.222 90.2649 109.953 87.6324C110.308 86.3415 110.734 85.0729 111.211 83.8375C111.451 83.2207 111.706 82.6113 111.975 82.0093C112.103 81.7046 112.247 81.411 112.38 81.1118L112.585 80.6797L112.784 80.2586C113.848 78.0426 114.856 75.7768 115.77 73.4998C116.693 71.227 117.491 68.906 118.164 66.5471C118.845 64.1925 119.317 61.7825 119.576 59.3451C119.849 56.9112 119.774 54.4508 119.355 52.0379C118.908 49.5904 117.965 47.2602 116.585 45.1904C118.209 47.1423 119.419 49.4041 120.141 51.8384C120.858 54.301 121.221 56.8526 121.222 59.4172C121.231 61.9808 121.019 64.5404 120.59 67.0679C120.17 69.5888 119.615 72.0854 118.928 74.5469C118.252 77.0011 117.471 79.4276 116.646 81.8209L116.491 82.2697L116.413 82.4912L116.341 82.7073C116.247 82.9898 116.147 83.2613 116.064 83.5549C115.887 84.1089 115.72 84.6629 115.571 85.2557C115.268 86.3868 115.025 87.5334 114.845 88.6905C114.48 90.9429 114.398 93.232 114.601 95.5047C114.799 97.6955 115.321 99.8447 116.153 101.881L109.826 104.02Z" fill="#9ABFED"/>
<path opacity="0.2" d="M109.826 104.02C109.065 101.317 108.706 98.5169 108.762 95.7097C108.822 92.9782 109.222 90.2649 109.953 87.6324C110.308 86.3415 110.734 85.0729 111.211 83.8375C111.451 83.2207 111.706 82.6113 111.975 82.0093C112.103 81.7046 112.247 81.411 112.38 81.1118L112.585 80.6797L112.784 80.2586C113.848 78.0426 114.856 75.7768 115.77 73.4998C116.693 71.227 117.491 68.906 118.164 66.5471C118.845 64.1925 119.317 61.7825 119.576 59.3451C119.849 56.9112 119.774 54.4508 119.355 52.0379C118.908 49.5904 117.965 47.2602 116.585 45.1904C118.209 47.1423 119.419 49.4041 120.141 51.8384C120.858 54.301 121.221 56.8526 121.222 59.4172C121.231 61.9808 121.019 64.5404 120.59 67.0679C120.17 69.5888 119.615 72.0854 118.928 74.5469C118.252 77.0011 117.471 79.4276 116.646 81.8209L116.491 82.2697L116.413 82.4912L116.341 82.7073C116.247 82.9898 116.147 83.2613 116.064 83.5549C115.887 84.1089 115.72 84.6629 115.571 85.2557C115.268 86.3868 115.025 87.5334 114.845 88.6905C114.48 90.9429 114.398 93.232 114.601 95.5047C114.799 97.6955 115.321 99.8447 116.153 101.881L109.826 104.02Z" fill="black"/>
<path d="M122.391 97.5044L122.202 99.5874L121.006 113.138C120.985 113.368 120.879 113.582 120.709 113.738C120.539 113.893 120.317 113.98 120.086 113.98H104.679C104.448 113.981 104.224 113.895 104.053 113.739C103.881 113.583 103.775 113.369 103.754 113.138L102.541 99.5874L102.352 97.5044H122.391Z" fill="#9ABFED"/>
<path d="M122.169 105.035L121.734 109.902L121.916 109.918L122.352 105.051L122.169 105.035Z" fill="#9ABFED"/>
<path d="M122.399 102.468L122.297 103.616L122.479 103.632L122.581 102.485L122.399 102.468Z" fill="#9ABFED"/>
<path d="M114.474 49.7388C114.474 49.7388 112.468 52.4035 114.513 56.6804C115.715 59.2066 117.709 60.1484 119.089 59.4947C120.468 58.841 121.006 56.7247 119.82 54.1708C117.803 49.8828 114.474 49.7388 114.474 49.7388Z" fill="#9ABFED"/>
<path opacity="0.2" d="M114.474 49.7388C114.474 49.7388 112.468 52.4035 114.513 56.6804C115.715 59.2066 117.709 60.1484 119.089 59.4947C120.468 58.841 121.006 56.7247 119.82 54.1708C117.803 49.8828 114.474 49.7388 114.474 49.7388Z" fill="black"/>
<path opacity="0.2" d="M122.391 97.5044L122.202 99.5874H102.541L102.352 97.5044H122.391Z" fill="black"/>
<path d="M123.576 94.9287H101.161C100.92 94.9287 100.724 95.1247 100.724 95.3664V98.1086C100.724 98.3504 100.92 98.5463 101.161 98.5463H123.576C123.818 98.5463 124.014 98.3504 124.014 98.1086V95.3664C124.014 95.1247 123.818 94.9287 123.576 94.9287Z" fill="#9ABFED"/>
<path d="M132.383 66.7338C135.606 64.3092 136.252 59.7314 133.828 56.5091C131.403 53.2868 126.825 52.6402 123.603 55.0649C120.381 57.4895 119.734 62.0673 122.159 65.2896C124.583 68.5118 129.161 69.1585 132.383 66.7338Z" fill="#9ABFED"/>
<path opacity="0.1" d="M133.847 62.697C134.094 61.7262 134.094 60.7089 133.845 59.7385C133.596 58.7681 133.108 57.8758 132.424 57.1435C131.741 56.4112 130.884 55.8624 129.933 55.5475C128.982 55.2327 127.967 55.1619 126.982 55.3416C125.996 55.5214 125.072 55.9459 124.293 56.5762C123.515 57.2065 122.907 58.0223 122.526 58.9488C122.145 59.8752 122.003 60.8826 122.113 61.8783C122.223 62.874 122.581 63.8261 123.155 64.6471C122.509 63.8156 122.088 62.8316 121.933 61.7901C121.778 60.7486 121.894 59.6846 122.27 58.7009C122.645 57.7173 123.268 56.847 124.078 56.1742C124.888 55.5014 125.858 55.0486 126.894 54.8597C127.93 54.6708 128.997 54.752 129.992 55.0955C130.988 55.4391 131.878 56.0334 132.577 56.8211C133.276 57.6088 133.76 58.5633 133.982 59.5925C134.205 60.6217 134.158 61.6909 133.847 62.697Z" fill="black"/>
<path d="M130.241 61.9433L129.515 63.489C129.457 63.6055 129.355 63.6948 129.233 63.7383C129.171 63.7642 129.105 63.7775 129.039 63.7775C128.972 63.7775 128.906 63.7642 128.845 63.7383L127.487 63.0956L126.978 64.2036C126.95 64.262 126.91 64.3142 126.862 64.3571C126.813 64.3999 126.757 64.4325 126.695 64.4529C126.636 64.4789 126.572 64.4923 126.507 64.4923C126.442 64.4923 126.378 64.4789 126.319 64.4529C126.258 64.4262 126.204 64.3874 126.159 64.3388C126.114 64.2901 126.08 64.2328 126.058 64.1704C126.031 64.1114 126.017 64.0471 126.017 63.9821C126.017 63.917 126.031 63.8527 126.058 63.7937L126.573 62.6857L125.227 62.0486C125.139 62.0067 125.066 61.9399 125.016 61.8564C124.966 61.773 124.942 61.6767 124.947 61.5796C124.952 61.4825 124.985 61.3889 125.043 61.3107C125.101 61.2325 125.18 61.1731 125.271 61.14C125.331 61.1127 125.395 61.0986 125.46 61.0986C125.525 61.0986 125.589 61.1127 125.648 61.14L128.8 62.6303L129.105 61.9876L125.992 60.4752C125.932 60.4494 125.879 60.4113 125.835 60.3636C125.791 60.3159 125.758 60.2596 125.737 60.1982C125.71 60.1392 125.695 60.0749 125.695 60.0099C125.695 59.9448 125.71 59.8805 125.737 59.8215L126.463 58.2814C126.49 58.2218 126.529 58.1684 126.577 58.1245C126.626 58.0807 126.683 58.0473 126.745 58.0266C126.866 57.9767 127.001 57.9767 127.122 58.0266L128.457 58.6581L128.972 57.5501C128.998 57.4914 129.035 57.4385 129.082 57.3947C129.128 57.3509 129.183 57.3171 129.244 57.2953C129.308 57.2711 129.377 57.261 129.446 57.2658C129.515 57.2706 129.582 57.2901 129.643 57.323C129.701 57.3492 129.754 57.3874 129.796 57.4351C129.839 57.4828 129.872 57.539 129.892 57.6C129.942 57.7206 129.942 57.8561 129.892 57.9767L129.377 59.0847L130.745 59.7329C130.805 59.7599 130.859 59.7988 130.904 59.8474C130.949 59.896 130.983 59.9531 131.005 60.0154C131.031 60.0748 131.045 60.1389 131.045 60.2038C131.045 60.2686 131.031 60.3327 131.005 60.3921C130.978 60.4524 130.939 60.5066 130.891 60.5513C130.842 60.5961 130.785 60.6305 130.723 60.6525C130.598 60.7024 130.459 60.7024 130.335 60.6525L127.183 59.1622L126.884 59.7993L130.025 61.2841C130.085 61.3111 130.139 61.35 130.184 61.3986C130.229 61.4472 130.263 61.5043 130.285 61.5666C130.304 61.629 130.31 61.6948 130.303 61.7596C130.295 61.8245 130.274 61.887 130.241 61.9433Z" fill="#FAFAFA"/>
<path d="M113.967 76.2944C117.189 73.8697 117.836 69.292 115.411 66.0697C112.986 62.8474 108.409 62.2008 105.186 64.6254C101.964 67.0501 101.317 71.6278 103.742 74.8501C106.167 78.0724 110.745 78.719 113.967 76.2944Z" fill="#9ABFED"/>
<path opacity="0.1" d="M115.432 72.2367C115.679 71.2659 115.677 70.2487 115.428 69.2785C115.179 68.3084 114.69 67.4165 114.006 66.6846C113.322 65.9528 112.465 65.4046 111.514 65.0903C110.563 64.776 109.548 64.7057 108.563 64.8859C107.578 65.0662 106.653 65.4911 105.875 66.1217C105.097 66.7522 104.49 67.5683 104.109 68.4948C103.729 69.4213 103.587 70.4286 103.697 71.4241C103.807 72.4197 104.166 73.3716 104.74 74.1923C104.091 73.3608 103.668 72.3759 103.511 71.3329C103.354 70.2899 103.468 69.224 103.843 68.2382C104.218 67.2524 104.841 66.38 105.652 65.7053C106.463 65.0306 107.434 64.5765 108.472 64.3867C109.509 64.1969 110.578 64.278 111.575 64.622C112.572 64.966 113.464 65.5614 114.164 66.3506C114.863 67.1398 115.348 68.0961 115.57 69.1272C115.792 70.1583 115.745 71.2293 115.432 72.2367Z" fill="black"/>
<path d="M111.826 71.5052L111.095 73.0508C111.067 73.1096 111.028 73.1621 110.979 73.205C110.931 73.2479 110.874 73.2803 110.812 73.3001C110.752 73.3262 110.687 73.3397 110.621 73.3397C110.555 73.3397 110.49 73.3262 110.43 73.3001L109.073 72.663L108.557 73.771C108.53 73.8295 108.491 73.882 108.444 73.9254C108.396 73.9688 108.34 74.0024 108.279 74.024C108.218 74.0457 108.154 74.055 108.089 74.0515C108.025 74.048 107.962 74.0318 107.904 74.0037C107.842 73.9785 107.787 73.9401 107.742 73.8913C107.697 73.8425 107.663 73.7844 107.643 73.7212C107.616 73.6621 107.602 73.5979 107.602 73.5328C107.602 73.4678 107.616 73.4035 107.643 73.3445L108.158 72.2365L106.812 71.5994C106.753 71.5726 106.7 71.5343 106.657 71.4868C106.613 71.4392 106.579 71.3833 106.557 71.3224C106.507 71.2017 106.507 71.0663 106.557 70.9456C106.614 70.8272 106.715 70.7357 106.838 70.6911C106.961 70.6465 107.097 70.6524 107.217 70.7074L110.369 72.1977L110.668 71.555L107.56 70.0205C107.501 69.9937 107.448 69.9554 107.405 69.9079C107.361 69.8603 107.327 69.8044 107.305 69.7435C107.279 69.684 107.266 69.6199 107.266 69.5551C107.266 69.4903 107.279 69.4261 107.305 69.3667L108.031 67.8266C108.058 67.7674 108.097 67.7143 108.145 67.6704C108.194 67.6265 108.25 67.5927 108.311 67.571C108.373 67.5493 108.438 67.5402 108.503 67.5441C108.568 67.548 108.632 67.565 108.69 67.5939L110.025 68.22L110.541 67.112C110.566 67.0533 110.603 67.0004 110.65 66.9566C110.697 66.9127 110.752 66.8789 110.812 66.8571C110.875 66.829 110.943 66.8145 111.012 66.8145C111.08 66.8145 111.148 66.829 111.211 66.8571C111.327 66.9133 111.417 67.0127 111.46 67.1341C111.486 67.1935 111.5 67.2577 111.5 67.3225C111.5 67.3873 111.486 67.4514 111.46 67.5108L110.951 68.6188L112.319 69.267C112.378 69.2949 112.431 69.3342 112.475 69.3827C112.518 69.4312 112.552 69.4879 112.574 69.5496C112.6 69.6089 112.614 69.673 112.614 69.7379C112.614 69.8028 112.6 69.867 112.574 69.9263C112.546 69.9873 112.507 70.0419 112.457 70.0868C112.408 70.1316 112.349 70.1656 112.286 70.1867C112.163 70.2368 112.026 70.2368 111.903 70.1867L108.751 68.6964L108.452 69.3335L111.593 70.8182C111.653 70.8444 111.707 70.8832 111.751 70.9319C111.795 70.9806 111.828 71.0382 111.848 71.1008C111.875 71.1656 111.887 71.2355 111.883 71.3055C111.879 71.3754 111.859 71.4437 111.826 71.5052Z" fill="#FAFAFA"/>
<path d="M59.7221 135.559C59.7221 135.559 57.6668 137.221 58.4313 140.938C58.88 143.121 60.2429 144.229 61.434 143.991C62.6251 143.752 63.4506 142.196 63.0129 140.007C62.2816 136.301 59.7221 135.559 59.7221 135.559Z" fill="#9ABFED"/>
<path opacity="0.2" d="M59.7221 135.559C59.7221 135.559 57.6668 137.221 58.4313 140.938C58.88 143.121 60.2429 144.229 61.434 143.991C62.6251 143.752 63.4506 142.196 63.0129 140.007C62.2816 136.301 59.7221 135.559 59.7221 135.559Z" fill="white"/>
<path d="M72.514 128.118C72.514 128.118 69.0681 127.354 65.866 131.187C63.9658 133.448 63.927 135.775 65.1569 136.816C66.3868 137.858 68.6748 137.442 70.5916 135.198C73.827 131.392 72.514 128.118 72.514 128.118Z" fill="#9ABFED"/>
<path d="M68.8244 113.449C68.8244 113.449 67.6776 113.765 67.3175 115.421C67.107 116.402 67.4671 117.083 67.9989 117.221C68.5308 117.36 69.1512 116.85 69.3673 115.875C69.7385 114.219 68.8244 113.449 68.8244 113.449Z" fill="#9ABFED"/>
<path d="M61.0406 149.126C60.5568 147.403 60.3291 145.619 60.3647 143.83C60.4027 142.093 60.6576 140.368 61.1237 138.694C61.3487 137.878 61.615 137.074 61.9214 136.284C62.0766 135.889 62.2372 135.501 62.4034 135.121C62.4865 134.927 62.5807 134.739 62.6638 134.567L62.7968 134.29L62.9242 134.024C63.5945 132.606 64.2372 131.177 64.8189 129.725C65.4064 128.276 65.9149 126.797 66.3424 125.293C66.7732 123.798 67.0735 122.269 67.2398 120.723C67.4135 119.176 67.365 117.613 67.0958 116.08C66.8167 114.525 66.2229 113.043 65.3507 111.726C66.3841 112.966 67.1532 114.404 67.611 115.953C68.0669 117.519 68.2982 119.141 68.298 120.772C68.3065 122.402 68.173 124.03 67.8991 125.637C67.6262 127.237 67.2693 128.822 66.8299 130.384C66.3978 131.947 65.9047 133.487 65.3784 135.01L65.2787 135.298L65.2288 135.437L65.1845 135.575C65.1291 135.753 65.0626 135.93 65.0072 136.129C64.8964 136.489 64.7912 136.849 64.697 137.21C64.5049 137.929 64.3495 138.657 64.2316 139.392C64.0001 140.824 63.9498 142.28 64.082 143.725C64.206 145.118 64.5384 146.485 65.0682 147.78L61.0406 149.126Z" fill="#9ABFED"/>
<path opacity="0.2" d="M61.0406 149.126C60.5568 147.403 60.3291 145.619 60.3647 143.83C60.4027 142.093 60.6576 140.368 61.1237 138.694C61.3487 137.878 61.615 137.074 61.9214 136.284C62.0766 135.889 62.2372 135.501 62.4034 135.121C62.4865 134.927 62.5807 134.739 62.6638 134.567L62.7968 134.29L62.9242 134.024C63.5945 132.606 64.2372 131.177 64.8189 129.725C65.4064 128.276 65.9149 126.797 66.3424 125.293C66.7732 123.798 67.0735 122.269 67.2398 120.723C67.4135 119.176 67.365 117.613 67.0958 116.08C66.8167 114.525 66.2229 113.043 65.3507 111.726C66.3841 112.966 67.1532 114.404 67.611 115.953C68.0669 117.519 68.2982 119.141 68.298 120.772C68.3065 122.402 68.173 124.03 67.8991 125.637C67.6262 127.237 67.2693 128.822 66.8299 130.384C66.3978 131.947 65.9047 133.487 65.3784 135.01L65.2787 135.298L65.2288 135.437L65.1845 135.575C65.1291 135.753 65.0626 135.93 65.0072 136.129C64.8964 136.489 64.7912 136.849 64.697 137.21C64.5049 137.929 64.3495 138.657 64.2316 139.392C64.0001 140.824 63.9498 142.28 64.082 143.725C64.206 145.118 64.5384 146.485 65.0682 147.78L61.0406 149.126Z" fill="black"/>
<path d="M71.6165 142.7L71.4669 144.4L70.4752 155.48C70.4586 155.669 70.3719 155.844 70.2324 155.971C70.0928 156.098 69.9106 156.168 69.7218 156.167H57.1626C56.9745 156.166 56.7937 156.095 56.6547 155.968C56.5157 155.841 56.4283 155.668 56.4092 155.48L55.4231 144.4L55.2679 142.7H71.6165Z" fill="#9ABFED"/>
<path d="M71.436 148.844L71.0812 152.811L71.2302 152.824L71.5849 148.857L71.436 148.844Z" fill="#9ABFED"/>
<path d="M71.6262 146.744L71.5424 147.682L71.6913 147.695L71.7752 146.757L71.6262 146.744Z" fill="#9ABFED"/>
<path d="M62.4976 116.739C62.4976 116.739 60.7248 119.105 62.5364 122.9C63.6056 125.116 65.3729 125.974 66.5917 125.393C67.8105 124.811 68.2924 122.922 67.2398 120.673C65.456 116.867 62.4976 116.739 62.4976 116.739Z" fill="#9ABFED"/>
<path opacity="0.2" d="M62.4976 116.739C62.4976 116.739 60.7248 119.105 62.5364 122.9C63.6056 125.116 65.3729 125.974 66.5917 125.393C67.8105 124.811 68.2924 122.922 67.2398 120.673C65.456 116.867 62.4976 116.739 62.4976 116.739Z" fill="black"/>
<path opacity="0.2" d="M71.6165 142.7L71.4669 144.4H55.4231L55.2679 142.7H71.6165Z" fill="black"/>
<path d="M72.586 140.6H54.2929C54.0971 140.6 53.9384 140.759 53.9384 140.955V143.193C53.9384 143.389 54.0971 143.547 54.2929 143.547H72.586C72.7818 143.547 72.9405 143.389 72.9405 143.193V140.955C72.9405 140.759 72.7818 140.6 72.586 140.6Z" fill="#9ABFED"/>
<path d="M70.5472 125.221C72.022 125.221 73.2175 124.025 73.2175 122.551C73.2175 121.076 72.022 119.88 70.5472 119.88C69.0725 119.88 67.877 121.076 67.877 122.551C67.877 124.025 69.0725 125.221 70.5472 125.221Z" fill="#9ABFED"/>
<path opacity="0.1" d="M72.6912 123.205C72.7822 122.849 72.7823 122.476 72.6915 122.121C72.6007 121.765 72.4219 121.438 72.1716 121.17C71.9213 120.901 71.6075 120.7 71.2591 120.585C70.9107 120.469 70.5389 120.444 70.1779 120.51C69.8169 120.575 69.4782 120.731 69.1931 120.962C68.9081 121.193 68.6857 121.493 68.5465 121.832C68.4072 122.172 68.3557 122.541 68.3965 122.906C68.4373 123.27 68.5692 123.619 68.78 123.919C68.5556 123.617 68.412 123.262 68.3627 122.889C68.3134 122.515 68.3601 122.136 68.4983 121.785C68.6366 121.435 68.8618 121.126 69.1528 120.887C69.4438 120.648 69.7909 120.487 70.1613 120.419C70.5318 120.351 70.9134 120.379 71.2701 120.5C71.6268 120.621 71.9469 120.83 72.2001 121.109C72.4533 121.388 72.6312 121.726 72.7172 122.093C72.8031 122.46 72.7942 122.842 72.6912 123.205Z" fill="black"/>
<path d="M71.3728 122.939L71.1068 123.493C71.0963 123.514 71.0816 123.533 71.0635 123.548C71.0454 123.563 71.0243 123.575 71.0016 123.581C70.9798 123.591 70.9562 123.596 70.9323 123.596C70.9085 123.596 70.8849 123.591 70.8631 123.581L70.3645 123.349L70.1761 123.742C70.1669 123.765 70.1526 123.785 70.1344 123.801C70.1161 123.818 70.0944 123.83 70.0709 123.836C70.05 123.846 70.0273 123.851 70.0044 123.851C69.9814 123.851 69.9588 123.846 69.9379 123.836C69.9146 123.827 69.8936 123.813 69.8764 123.795C69.8592 123.776 69.8461 123.755 69.8382 123.731C69.8216 123.686 69.8216 123.637 69.8382 123.592L70.0376 123.205L69.5446 122.972C69.5014 122.952 69.4676 122.916 69.4504 122.872C69.4408 122.85 69.4358 122.827 69.4358 122.803C69.4358 122.779 69.4408 122.756 69.4504 122.734C69.4596 122.711 69.4739 122.691 69.4921 122.674C69.5103 122.658 69.5321 122.646 69.5556 122.64C69.5765 122.63 69.5992 122.625 69.6221 122.625C69.645 122.625 69.6677 122.63 69.6886 122.64L70.8465 123.194L70.9573 122.961L69.8049 122.407C69.7618 122.387 69.728 122.351 69.7108 122.307C69.7011 122.285 69.6962 122.262 69.6962 122.238C69.6962 122.214 69.7011 122.19 69.7108 122.169L69.9767 121.615C69.9856 121.593 69.9992 121.573 70.0164 121.557C70.0336 121.541 70.054 121.528 70.0764 121.52C70.0982 121.511 70.1218 121.506 70.1456 121.506C70.1695 121.506 70.1931 121.511 70.2149 121.52L70.7024 121.748L70.8908 121.349C70.9125 121.308 70.9478 121.277 70.9905 121.26C71.013 121.249 71.0376 121.244 71.0625 121.244C71.0875 121.244 71.1121 121.249 71.1345 121.26C71.1566 121.27 71.1764 121.285 71.1926 121.303C71.2088 121.321 71.2211 121.342 71.2287 121.365C71.2453 121.41 71.2453 121.459 71.2287 121.504L71.0404 121.897L71.539 122.135C71.561 122.146 71.5808 122.16 71.597 122.178C71.6132 122.196 71.6255 122.218 71.6331 122.241C71.6428 122.262 71.6477 122.286 71.6477 122.31C71.6477 122.334 71.6428 122.357 71.6331 122.379C71.6111 122.423 71.5736 122.456 71.5279 122.473C71.4832 122.49 71.4341 122.49 71.3894 122.473L70.2371 121.919L70.1263 122.152L71.273 122.706C71.2957 122.715 71.316 122.729 71.3323 122.748C71.3486 122.766 71.3606 122.788 71.3672 122.811C71.3853 122.851 71.3873 122.897 71.3728 122.939Z" fill="#FAFAFA"/>
<path d="M61.7664 133.281C63.2411 133.281 64.4366 132.086 64.4366 130.611C64.4366 129.136 63.2411 127.941 61.7664 127.941C60.2916 127.941 59.0961 129.136 59.0961 130.611C59.0961 132.086 60.2916 133.281 61.7664 133.281Z" fill="#9ABFED"/>
<path opacity="0.1" d="M63.9048 131.276C63.9958 130.921 63.9959 130.548 63.9051 130.193C63.8143 129.837 63.6355 129.51 63.3852 129.242C63.1349 128.973 62.8211 128.772 62.4727 128.657C62.1243 128.541 61.7525 128.515 61.3915 128.581C61.0305 128.647 60.6918 128.803 60.4068 129.034C60.1217 129.265 59.8993 129.564 59.7601 129.904C59.6209 130.243 59.5693 130.613 59.6101 130.977C59.6509 131.342 59.7828 131.691 59.9936 131.991C59.7692 131.689 59.6256 131.334 59.5763 130.961C59.527 130.587 59.5737 130.207 59.7119 129.857C59.8502 129.507 60.0754 129.198 60.3664 128.958C60.6574 128.719 61.0045 128.558 61.3749 128.491C61.7454 128.423 62.127 128.451 62.4837 128.572C62.8404 128.692 63.1605 128.902 63.4137 129.181C63.6669 129.46 63.8448 129.798 63.9308 130.165C64.0167 130.532 64.0078 130.914 63.9048 131.276Z" fill="black"/>
<path d="M62.5862 130.999L62.3203 131.553C62.3102 131.575 62.2956 131.595 62.2775 131.611C62.2594 131.627 62.2381 131.64 62.2151 131.647C62.1932 131.657 62.1697 131.662 62.1458 131.662C62.122 131.662 62.0984 131.657 62.0766 131.647L61.578 131.415L61.3896 131.814C61.3806 131.835 61.3671 131.855 61.3499 131.871C61.3327 131.888 61.3122 131.9 61.2899 131.908C61.2452 131.924 61.1961 131.924 61.1514 131.908C61.1082 131.888 61.0744 131.852 61.0572 131.808C61.0476 131.786 61.0426 131.763 61.0426 131.739C61.0426 131.715 61.0476 131.691 61.0572 131.67L61.2456 131.265L60.7525 131.032C60.7318 131.023 60.7133 131.009 60.6981 130.992C60.6829 130.974 60.6712 130.954 60.6639 130.933C60.6527 130.911 60.6469 130.888 60.6469 130.863C60.6469 130.839 60.6527 130.816 60.6639 130.794C60.6836 130.751 60.7194 130.717 60.7636 130.7C60.8083 130.684 60.8574 130.684 60.9021 130.7L62.0544 131.254L62.1652 131.016L61.0184 130.462C60.9753 130.442 60.9415 130.406 60.9242 130.362C60.9146 130.34 60.9097 130.317 60.9097 130.293C60.9097 130.269 60.9146 130.245 60.9242 130.224L61.1902 129.67C61.2006 129.648 61.2154 129.63 61.2335 129.614C61.2516 129.599 61.2727 129.588 61.2954 129.581C61.3163 129.572 61.339 129.567 61.3619 129.567C61.3848 129.567 61.4075 129.572 61.4284 129.581L61.9214 129.814L62.1098 129.415C62.1181 129.392 62.1314 129.372 62.1487 129.356C62.166 129.34 62.1868 129.328 62.2095 129.321C62.232 129.31 62.2566 129.304 62.2815 129.304C62.3065 129.304 62.3311 129.31 62.3536 129.321C62.3746 129.33 62.3934 129.344 62.4087 129.361C62.424 129.378 62.4354 129.398 62.4422 129.42C62.4518 129.442 62.4568 129.466 62.4568 129.49C62.4568 129.513 62.4518 129.537 62.4422 129.559L62.2538 129.958L62.758 130.19C62.8015 130.212 62.8351 130.25 62.8522 130.296C62.8618 130.317 62.8667 130.341 62.8667 130.365C62.8667 130.389 62.8618 130.412 62.8522 130.434C62.842 130.456 62.8274 130.476 62.8093 130.492C62.7912 130.508 62.77 130.521 62.7469 130.528C62.7008 130.547 62.649 130.547 62.6029 130.528L61.4505 129.974L61.3453 130.207L62.4921 130.761C62.514 130.77 62.5337 130.783 62.5499 130.801C62.5662 130.818 62.5785 130.838 62.5862 130.861C62.5959 130.883 62.6008 130.906 62.6008 130.93C62.6008 130.954 62.5959 130.977 62.5862 130.999Z" fill="#FAFAFA"/>
</svg>
