<svg width="97" height="97" viewBox="0 0 97 97" fill="none" xmlns="http://www.w3.org/2000/svg">
<g clip-path="url(#clip0)">
<path d="M30.0259 76.3613L28.1685 87.9187L31.4705 85.0294L36.2174 88.5379L34.5662 78.6315L30.0259 76.3613Z" fill="#72A3E0"/>
<path d="M25.0727 74.2988L14.7534 76.1563L19.0875 76.9819L17.4365 79.6647L29.8194 76.3627L25.0727 74.2988Z" fill="#72A3E0"/>
<path d="M74.1917 53.453C58.3002 65.836 38.0745 65.836 22.1831 53.453C22.1831 41.6892 22.1831 29.9254 22.1831 17.9551C39.5193 17.9551 56.8555 17.9551 74.1917 17.9551C74.1917 29.9254 74.1917 41.6892 74.1917 53.453Z" fill="#3A5569"/>
<path d="M2.57666 18.368L50.4576 37.7681L93.5916 17.1297L48.3937 0L2.57666 18.368Z" fill="#637888"/>
<path d="M94.0045 36.529C93.5918 36.529 93.1789 36.1163 93.1789 35.7034V17.9545C93.1789 16.7162 91.7341 16.5098 91.5279 16.3035L49.4257 17.9545C49.013 17.9545 48.6001 17.5418 48.6001 17.1289C48.6001 16.716 49.0128 16.3033 49.4257 16.3033L91.7343 14.6523C92.7662 14.8588 94.8301 15.6842 94.8301 17.9545V35.7034C94.8301 36.1163 94.4174 36.529 94.0045 36.529Z" fill="#3A5569"/>
<path d="M96.8939 49.327L95.2429 33.4356C95.2429 33.0229 95.0365 32.8164 94.6238 32.8164H93.5919C93.3855 32.8164 92.9728 33.0229 92.9728 33.4356L91.3218 49.327C91.1153 51.5971 92.3536 53.4546 94.2111 53.4546C95.8619 53.4548 97.1002 51.5973 96.8939 49.327Z" fill="black"/>
<path d="M94.0045 30.9583C94.9163 30.9583 95.6555 30.2191 95.6555 29.3072C95.6555 28.3954 94.9163 27.6562 94.0045 27.6562C93.0927 27.6562 92.3535 28.3954 92.3535 29.3072C92.3535 30.2191 93.0927 30.9583 94.0045 30.9583Z" fill="black"/>
<path d="M78.3195 89.7764C78.3195 89.7764 73.9855 96.3806 64.2855 96.9997C64.2855 96.9997 28.5813 69.3444 2.98975 69.3444C2.98975 69.3444 3.6089 64.8039 9.18124 62.7402L51.2834 74.0914L78.3195 89.7764Z" fill="#C2C6C6"/>
<path d="M81.6213 85.0296C78.3191 92.2529 71.5085 95.5551 66.5553 92.2529C61.6021 89.1572 60.1574 80.6955 63.4596 73.472C66.7617 66.2487 73.5724 62.9465 78.5256 66.2487C83.4788 69.3444 84.9235 77.8061 81.6213 85.0296Z" fill="#E5EAE9"/>
<path d="M71.9217 74.2978C76.0493 73.8851 77.4941 81.3149 71.509 83.9977L56.6494 78.8381C56.6494 78.8383 68.0004 74.7105 71.9217 74.2978Z" fill="#888C8C"/>
<path d="M74.8109 92.4587C74.8109 92.4587 63.6662 93.9034 65.7301 82.5523C66.1428 79.8693 67.794 75.7417 71.9216 74.2969L53.9663 71.2012L59.7451 87.5055L66.5557 92.2522C66.3493 92.2522 70.0642 95.1415 74.8109 92.4587Z" fill="#BABABA"/>
<path d="M63.4597 73.4723C65.7298 68.3127 69.8576 65.2169 73.9852 65.0107C39.5193 64.5979 7.73623 47.468 7.73623 47.468C7.73623 47.468 2.57659 46.2297 0.719138 53.6595C-1.55101 61.9149 2.98929 64.8042 2.98929 64.8042C29.2 66.0425 57.8871 85.8553 65.7298 91.6341C61.1893 87.9192 60.3639 80.2829 63.4597 73.4723Z" fill="#E0E0DF"/>
<path d="M44.2663 61.0891C44.2663 61.0891 28.3749 68.7253 36.4238 79.6636L27.5493 75.536C27.5493 75.536 23.8344 64.3913 36.2174 59.0254L44.2663 61.0891Z" fill="#9ABFED"/>
</g>
<defs>
<clipPath id="clip0">
<rect width="97" height="97" fill="white"/>
</clipPath>
</defs>
</svg>
