<svg width="196" height="150" viewBox="0 0 196 150" fill="none" xmlns="http://www.w3.org/2000/svg">
<path d="M97.8695 44.9257C91.3081 44.9257 85.4841 48.1015 81.7378 53.0306L85.328 55.8921C88.2346 52.0547 92.7614 49.5901 97.8695 49.5901C102.978 49.5901 107.499 52.0547 110.422 55.8921L114.001 53.0306C110.255 48.1015 104.431 44.9257 97.8695 44.9257ZM97.8695 16.9941C82.556 16.9941 68.9596 24.4153 60.229 35.9L63.8999 38.8222C71.7854 28.4568 84.0524 21.7633 97.8695 21.7633C111.681 21.7633 123.954 28.4568 131.839 38.8222L135.515 35.8945C126.774 24.4098 113.183 16.9941 97.8695 16.9941Z" fill="#6D7174"/>
<path d="M97.2448 30.7969C86.2679 30.7969 76.5227 36.0748 70.2672 44.2555L73.8649 47.1089C79.2886 40.0222 87.7319 35.437 97.2448 35.437C106.758 35.437 115.196 40.0222 120.63 47.1089L124.222 44.2555C117.967 36.0803 108.222 30.7969 97.2448 30.7969Z" fill="#6D7174"/>
<path d="M97.6054 72.1162C101.233 72.1162 104.173 69.1892 104.173 65.5786C104.173 61.968 101.233 59.041 97.6054 59.041C93.9783 59.041 91.0379 61.968 91.0379 65.5786C91.0379 69.1892 93.9783 72.1162 97.6054 72.1162Z" fill="#E28112"/>
<path d="M104.471 9.56427C104.463 13.1829 99.3968 47.686 97.6675 54.573C96.7883 58.0883 91.3673 13.117 91.3947 9.51753C91.365 8.63705 91.5133 7.75883 91.8306 6.93538C92.1479 6.11194 92.6278 5.36019 93.2414 4.7251C93.8551 4.09001 94.59 3.58462 95.4021 3.23917C96.2143 2.89372 97.087 2.7153 97.9681 2.71457C98.8492 2.71385 99.7206 2.89085 100.53 3.23497C101.34 3.57909 102.071 4.08327 102.68 4.71736C103.289 5.35144 103.763 6.10241 104.074 6.92534C104.385 7.74827 104.527 8.62625 104.491 9.50679L104.471 9.56427Z" fill="#E28112"/>
<path d="M181.598 89.4731C184.1 89.4731 186.498 90.4622 188.267 92.2227C190.036 93.9833 191.029 96.371 191.029 98.8608V135.919C191.029 138.408 190.036 140.796 188.267 142.557C186.498 144.317 184.1 145.306 181.598 145.306H14.1459C11.6448 145.306 9.24607 144.317 7.47748 142.557C5.70889 140.796 4.71531 138.408 4.71531 135.919V98.8608C4.71531 96.371 5.70889 93.9833 7.47748 92.2227C9.24607 90.4622 11.6448 89.4731 14.1459 89.4731H181.598ZM181.598 84.7793H14.1459C10.3942 84.7793 6.79613 86.2629 4.14325 88.9037C1.49037 91.5445 0 95.1262 0 98.8608L0 135.919C0 139.653 1.49037 143.235 4.14325 145.876C6.79613 148.517 10.3942 150 14.1459 150H181.598C185.35 150 188.948 148.517 191.601 145.876C194.254 143.235 195.744 139.653 195.744 135.919V98.8608C195.744 95.1262 194.254 91.5445 191.601 88.9037C188.948 86.2629 185.35 84.7793 181.598 84.7793Z" fill="#6D7174"/>
<path d="M162.631 97.1123H92.2197C90.9502 97.1123 89.921 98.1368 89.921 99.4005V99.4123C89.921 100.676 90.9502 101.701 92.2197 101.701H162.631C163.901 101.701 164.93 100.676 164.93 99.4123V99.4005C164.93 98.1368 163.901 97.1123 162.631 97.1123Z" fill="#6D7174"/>
<path d="M174.903 114.139H134.952C133.683 114.139 132.654 115.163 132.654 116.427V116.439C132.654 117.702 133.683 118.727 134.952 118.727H174.903C176.172 118.727 177.201 117.702 177.201 116.439V116.427C177.201 115.163 176.172 114.139 174.903 114.139Z" fill="#6D7174"/>
<path d="M127.702 129.372H94.3063C93.0367 129.372 92.0076 130.397 92.0076 131.66V131.672C92.0076 132.936 93.0367 133.96 94.3063 133.96H127.702C128.972 133.96 130.001 132.936 130.001 131.672V131.66C130.001 130.397 128.972 129.372 127.702 129.372Z" fill="#6D7174"/>
<path d="M122.186 114.139H100.165C98.8955 114.139 97.8663 115.163 97.8663 116.427V116.439C97.8663 117.702 98.8955 118.727 100.165 118.727H122.186C123.455 118.727 124.484 117.702 124.484 116.439V116.427C124.484 115.163 123.455 114.139 122.186 114.139Z" fill="#6D7174"/>
<path d="M160.12 129.372H140.611C139.341 129.372 138.312 130.397 138.312 131.66V131.672C138.312 132.936 139.341 133.96 140.611 133.96H160.12C161.39 133.96 162.419 132.936 162.419 131.672V131.66C162.419 130.397 161.39 129.372 160.12 129.372Z" fill="#6D7174"/>
<path d="M63.1615 127.705C69.5938 127.705 74.8083 122.514 74.8083 116.111C74.8083 109.708 69.5938 104.518 63.1615 104.518C56.7291 104.518 51.5146 109.708 51.5146 116.111C51.5146 122.514 56.7291 127.705 63.1615 127.705Z" fill="#E28112"/>
<path d="M33.4905 123.058C37.3447 123.058 40.4692 119.948 40.4692 116.111C40.4692 112.274 37.3447 109.164 33.4905 109.164C29.6363 109.164 26.5118 112.274 26.5118 116.111C26.5118 119.948 29.6363 123.058 33.4905 123.058Z" fill="#6D7174"/>
</svg>
