<svg width="93" height="68" viewBox="0 0 93 68" fill="none" xmlns="http://www.w3.org/2000/svg">
<path d="M92.5878 35.5611C91.7277 28.7109 89.5763 22.0967 87.0062 17.3548C80.7979 5.96062 63.5023 -1.66088 50.4717 0.310463C39.3566 1.99003 34.016 12.1309 23.9944 15.6499C14.7745 18.8872 6.47304 21.3863 2.12696 29.9288C-7.08023 47.9727 15.4265 67.6988 34.7162 66.1613C40.8053 65.6742 46.2449 63.3324 52.4938 64.431C65.1794 66.6611 69.391 69.0587 80.5949 64.5984C91.6339 60.2016 94.0923 47.5439 92.5878 35.5611Z" fill="#0F50A4"/>
<path opacity="0.8" d="M92.5878 35.5611C91.7277 28.7109 89.5763 22.0967 87.0062 17.3548C80.7979 5.96062 63.5023 -1.66088 50.4717 0.310463C39.3566 1.99003 34.016 12.1309 23.9944 15.6499C14.7745 18.8872 6.47304 21.3863 2.12696 29.9288C-7.08023 47.9727 15.4265 67.6988 34.7162 66.1613C40.8053 65.6742 46.2449 63.3324 52.4938 64.431C65.1794 66.6611 69.391 69.0587 80.5949 64.5984C91.6339 60.2016 94.0923 47.5439 92.5878 35.5611Z" fill="white"/>
<path d="M52.0261 8H23.7582C20.0233 8 17 11.0233 17 14.7582V52.8555C17 56.5941 20.0233 59.6174 23.7582 59.6174H35.8035C36.0505 58.6329 36.4929 57.7001 37.057 56.8411L49.8876 35.9987C51.5357 33.1708 54.7286 31.3532 58.1722 31.3532C58.3676 31.3532 58.5888 31.3532 58.7879 31.379V14.7582C58.7842 11.0233 55.7609 8 52.0261 8ZM26.8331 17.8331H36.6662C38.0193 17.8331 39.1254 18.9392 39.1254 20.2923C39.1254 21.6454 38.0156 22.7478 36.6625 22.7478H26.8294C25.48 22.7478 24.3739 21.6417 24.3739 20.2886C24.3739 18.9355 25.48 17.8331 26.8331 17.8331ZM39.1217 42.4103H26.8331C25.48 42.4103 24.3739 41.3043 24.3739 39.9511C24.3739 38.598 25.48 37.4956 26.8331 37.4956H39.1217C40.4748 37.4956 41.5809 38.6017 41.5809 39.9548C41.5809 41.3079 40.4748 42.4103 39.1217 42.4103ZM48.9548 32.5809H26.8331C25.48 32.5809 24.3739 31.4748 24.3739 30.1217C24.3739 28.7686 25.48 27.6625 26.8331 27.6625H48.9548C50.3079 27.6625 51.414 28.7686 51.414 30.1217C51.4103 31.4748 50.3042 32.5809 48.9548 32.5809Z" fill="#0F50A4"/>
<path d="M75.2722 59.6758L62.2978 38.6012C61.4498 37.1596 59.8681 36.2637 58.1721 36.2637C56.4761 36.2637 54.8944 37.1596 54.0685 38.557L41.1273 59.5873C40.6222 60.3395 40.353 61.2354 40.353 62.1793C40.353 64.8265 42.5173 66.9834 45.1756 66.9834H71.1723C73.8269 66.9907 75.9911 64.8339 75.9911 62.1866C75.9911 61.2428 75.722 60.3469 75.2722 59.6758ZM58.1721 62.076C56.8153 62.076 55.7129 60.9773 55.7129 59.6168C55.7129 58.26 56.8116 57.1576 58.1721 57.1576C59.5289 57.1576 60.6313 58.2563 60.6313 59.6168C60.6276 60.9736 59.5289 62.076 58.1721 62.076ZM60.6276 53.4707C60.6276 54.8275 59.5289 55.9299 58.1684 55.9299C56.8116 55.9299 55.7092 54.8275 55.7092 53.4707V48.556C55.7092 47.1992 56.8079 46.0968 58.1684 46.0968C59.5252 46.0968 60.6276 47.1992 60.6276 48.556V53.4707Z" fill="#0F50A4"/>
</svg>
