<svg width="22" height="22" viewBox="0 0 22 22" fill="none" xmlns="http://www.w3.org/2000/svg">
<path d="M11 1C5.48578 1 1 5.48578 1 11C1 16.5142 5.48578 21 11 21C16.5142 21 21 16.5142 21 11C21 5.48578 16.5142 1 11 1ZM11 19.75C6.17502 19.75 2.25 15.825 2.25 11C2.25 6.17502 6.17502 2.25 11 2.25C15.825 2.25 19.75 6.17502 19.75 11C19.75 15.825 15.825 19.75 11 19.75Z" fill="#0F50A4" stroke="#0F50A4" stroke-width="0.190476"/>
<path d="M7.8305 7.19052C7.66653 7.19052 7.50257 7.25273 7.37799 7.37824C7.12791 7.62832 7.12791 8.03377 7.37799 8.28385L13.7161 14.622C13.9664 14.8721 14.3718 14.8721 14.6219 14.622C14.872 14.3719 14.872 13.9665 14.6219 13.7162L8.28362 7.37824C8.15733 7.25273 7.99352 7.19052 7.8305 7.19052Z" fill="#0F50A4" stroke="#0F50A4" stroke-width="0.190476"/>
<path d="M14.1685 7.19052C14.0047 7.19052 13.8408 7.25274 13.7162 7.37826L7.37811 13.7162C7.12787 13.9663 7.12787 14.3718 7.37811 14.6219C7.62819 14.8721 8.03364 14.8721 8.28373 14.6219L14.6218 8.28318C14.872 8.03308 14.872 7.62759 14.6218 7.37748C14.4964 7.25274 14.3325 7.19052 14.1685 7.19052Z" fill="#0F50A4" stroke="#0F50A4" stroke-width="0.190476"/>
</svg>
