<svg width="20" height="20" viewBox="0 0 20 20" fill="none" xmlns="http://www.w3.org/2000/svg">
<path fill-rule="evenodd" clip-rule="evenodd" d="M0 10C0 4.48578 4.48578 0 10 0C15.5142 0 20 4.48578 20 10C20 15.5142 15.5142 20 10 20C4.48578 20 0 15.5142 0 10ZM12.6455 6.30748C12.7898 6.1622 12.9796 6.09033 13.1687 6.09033C13.3579 6.09033 13.5476 6.16223 13.6925 6.3064C13.9818 6.59557 13.982 7.06456 13.6926 7.35372L11.047 9.99965L13.6928 12.6453C13.9819 12.9346 13.9819 13.4034 13.6928 13.6925C13.4036 13.9817 12.9349 13.9816 12.6456 13.6926L9.99988 11.0468L7.35461 13.6924C7.06548 13.9817 6.5967 13.9817 6.30756 13.6924C6.01825 13.4033 6.01825 12.9344 6.30755 12.6453L8.95297 9.99991L6.30743 7.35437C6.01834 7.06528 6.01829 6.59662 6.3073 6.30747C6.45158 6.16218 6.64146 6.09033 6.83064 6.09033C7.01917 6.09033 7.2086 6.16236 7.35426 6.30712L10.0001 8.95282L12.6455 6.30748Z" fill="#0F50A4"/>
</svg>
