<svg width="240" height="240" viewBox="0 0 240 240" fill="none" xmlns="http://www.w3.org/2000/svg">
<path opacity="0.1" d="M70.896 148.8C74.0595 149.701 77.4012 149.777 80.6025 149.021C83.8038 148.265 86.7582 146.702 89.184 144.48C94.1136 140.006 100.891 138.057 107.242 138.384C118.56 138.926 128.702 144.96 138.13 149.28C142.507 151.296 147.034 153.24 152.002 154.181C164.002 156.47 174.926 150.547 183.778 141.993C202.018 124.382 206.842 95.3567 201.322 75.2735C197.702 62.1215 179.189 36.2159 155.112 38.7695C132.269 41.1983 146.026 74.3135 124.421 77.5343C100.55 81.0959 99.7056 43.8047 70.4592 48.8735C44.0592 53.4527 30.912 76.8863 39.1584 96.1055C43.1856 105.49 50.8944 112.877 54.9984 122.165C59.4048 132.134 57.4512 144.754 70.896 148.8Z" fill="#0F50A4"/>
<path opacity="0.5" d="M70.896 148.8C74.0595 149.701 77.4012 149.777 80.6025 149.021C83.8038 148.265 86.7582 146.702 89.184 144.48C94.1136 140.006 100.891 138.057 107.242 138.384C118.56 138.926 128.702 144.96 138.13 149.28C142.507 151.296 147.034 153.24 152.002 154.181C164.002 156.47 174.926 150.547 183.778 141.993C202.018 124.382 206.842 95.3567 201.322 75.2735C197.702 62.1215 179.189 36.2159 155.112 38.7695C132.269 41.1983 146.026 74.3135 124.421 77.5343C100.55 81.0959 99.7056 43.8047 70.4592 48.8735C44.0592 53.4527 30.912 76.8863 39.1584 96.1055C43.1856 105.49 50.8944 112.877 54.9984 122.165C59.4048 132.134 57.4512 144.754 70.896 148.8Z" fill="white"/>
<path d="M120 205.229C171.4 205.229 213.067 202.796 213.067 199.795C213.067 196.795 171.4 194.362 120 194.362C68.6004 194.362 26.9328 196.795 26.9328 199.795C26.9328 202.796 68.6004 205.229 120 205.229Z" fill="#F5F5F5"/>
<path d="M175.272 77.7597C175.944 80.0109 179.41 84.2253 179.683 87.2925C179.957 90.3597 174.048 95.2653 174.048 95.2653C174.048 95.2653 169.632 80.5005 172.397 78.7773C175.162 77.0541 175.272 77.7597 175.272 77.7597Z" fill="#263238"/>
<path d="M163.138 93.7105C162.091 94.5841 161.064 95.3185 159.994 96.0721C158.923 96.8257 157.819 97.5122 156.696 98.1554C155.569 98.8223 154.407 99.4296 153.216 99.9746C152.611 100.248 152.011 100.517 151.387 100.752C151.08 100.877 150.768 100.997 150.451 101.103L149.491 101.439C148.67 101.668 147.812 101.73 146.966 101.621C146.26 101.538 145.56 101.404 144.874 101.218C143.594 100.864 142.341 100.418 141.125 99.8834C138.764 98.8527 136.487 97.6411 134.314 96.2593L135.211 94.5889C136.344 95.0689 137.506 95.5489 138.658 95.9665C139.81 96.3841 140.971 96.8258 142.133 97.1858C143.265 97.5569 144.419 97.8583 145.589 98.0882C146.126 98.1931 146.67 98.2589 147.216 98.2849C147.623 98.3165 148.033 98.2742 148.426 98.1602C149.521 97.7411 150.591 97.2604 151.632 96.7202C152.165 96.4418 152.693 96.1586 153.211 95.8514C153.73 95.5442 154.258 95.2466 154.771 94.9298C155.803 94.2914 156.811 93.6146 157.81 92.9186C158.808 92.2226 159.802 91.4785 160.69 90.7729L163.138 93.7105Z" fill="#E58A7B"/>
<path d="M165.672 88.5984C164.482 87.6672 159.557 90.7152 158.064 91.9872L159.154 98.5776C159.154 98.5776 166.234 95.6112 166.656 93.5856C167.102 91.4688 166.56 89.3088 165.672 88.5984Z" fill="#0F50A4"/>
<path opacity="0.2" d="M165.672 88.5984C164.482 87.6672 159.557 90.7152 158.064 91.9872L159.154 98.5776C159.154 98.5776 166.234 95.6112 166.656 93.5856C167.102 91.4688 166.56 89.3088 165.672 88.5984Z" fill="black"/>
<path d="M182.237 108.542L167.29 111.456C159.566 90.5423 161.246 89.8559 161.246 89.8559C162.333 89.259 163.455 88.73 164.606 88.2719L164.808 88.1951C165.768 87.8447 165.96 87.7919 167.237 87.4175C169.435 86.8943 171.485 86.4575 174.024 86.0975L174.504 86.0303C174.984 85.9727 175.421 85.9247 175.862 85.8815C176.16 85.8479 176.458 85.8287 176.741 85.8095L177.701 85.7567C179.342 85.6751 180.518 85.6991 180.518 85.6991C180.062 98.7599 180.802 102.509 182.237 108.542Z" fill="#0F50A4"/>
<path opacity="0.2" d="M182.237 108.542L167.29 111.456C159.566 90.5423 161.246 89.8559 161.246 89.8559C162.333 89.259 163.455 88.73 164.606 88.2719L164.808 88.1951C165.768 87.8447 165.96 87.7919 167.237 87.4175C169.435 86.8943 171.485 86.4575 174.024 86.0975L174.504 86.0303C174.984 85.9727 175.421 85.9247 175.862 85.8815C176.16 85.8479 176.458 85.8287 176.741 85.8095L177.701 85.7567C179.342 85.6751 180.518 85.6991 180.518 85.6991C180.062 98.7599 180.802 102.509 182.237 108.542Z" fill="black"/>
<path d="M170.53 79.2624C169.57 80.8512 173.05 81.5856 175.109 79.9584C176.755 78.6528 176.366 75.6384 174.955 74.9376C173.544 74.2368 170.53 79.2624 170.53 79.2624Z" fill="#0F50A4"/>
<path opacity="0.4" d="M170.53 79.2624C169.57 80.8512 173.05 81.5856 175.109 79.9584C176.755 78.6528 176.366 75.6384 174.955 74.9376C173.544 74.2368 170.53 79.2624 170.53 79.2624Z" fill="black"/>
<path d="M185.078 195.105L181.339 195.384L179.971 186.777L183.71 186.499L185.078 195.105Z" fill="#E58A7B"/>
<path d="M211.526 183.077L208.354 185.074L202.704 178.373L205.877 176.371L211.526 183.077Z" fill="#E58A7B"/>
<path d="M179.971 186.778L180.73 191.558L184.416 190.939L183.715 186.504L179.971 186.778Z" fill="#CF6F64"/>
<path d="M205.882 176.376L202.704 178.373L205.046 181.147L208.291 179.232L205.882 176.376Z" fill="#CF6F64"/>
<path d="M167.52 111.456C167.52 111.456 167.467 141.13 169.891 152.304C172.416 163.93 179.842 190.378 179.842 190.378L185.227 189.682C185.227 189.682 181.018 162.965 179.222 151.411C177.269 138.821 178.469 109.325 178.469 109.325L167.52 111.456Z" fill="#0F50A4"/>
<path opacity="0.7" d="M167.52 111.456C167.52 111.456 167.467 141.13 169.891 152.304C172.416 163.93 179.842 190.378 179.842 190.378L185.227 189.682C185.227 189.682 181.018 162.965 179.222 151.411C177.269 138.821 178.469 109.325 178.469 109.325L167.52 111.456Z" fill="black"/>
<path opacity="0.5" d="M178.133 122.477L175.493 119.846C175.594 131.246 176.232 136.877 178.426 143.011C178.08 136.526 178.051 128.856 178.133 122.477Z" fill="black"/>
<path d="M171.235 110.688C171.235 110.688 179.285 135.211 183.278 149.338C187.493 164.242 203.65 180.725 203.65 180.725L208.286 178.046C208.286 178.046 197.246 162.398 193.186 148.493C184.93 120.264 188.323 114.283 182.232 108.542L171.235 110.688Z" fill="#0F50A4"/>
<path opacity="0.7" d="M171.235 110.688C171.235 110.688 179.285 135.211 183.278 149.338C187.493 164.242 203.65 180.725 203.65 180.725L208.286 178.046C208.286 178.046 197.246 162.398 193.186 148.493C184.93 120.264 188.323 114.283 182.232 108.542L171.235 110.688Z" fill="black"/>
<path d="M164.909 70.603C167.05 71.3182 168.994 76.6318 169.075 78.7246C169.157 80.8174 162.874 83.7022 162.874 83.7022C162.874 83.7022 160.104 76.9822 160.877 72.6622C161.213 70.7854 164.909 70.603 164.909 70.603Z" fill="#263238"/>
<path d="M135.528 94.7663L132.989 92.0015L132.158 95.4671C132.158 95.4671 133.963 97.0607 135.422 96.5135L135.528 94.7663Z" fill="#E58A7B"/>
<path d="M130.416 91.2095L128.64 92.6207L132.158 95.4671L132.989 92.0015L130.416 91.2095Z" fill="#E58A7B"/>
<path d="M207.36 184.358L210.326 181.368C210.378 181.317 210.446 181.286 210.518 181.281C210.59 181.275 210.662 181.296 210.72 181.339L213.422 183.346C213.489 183.398 213.544 183.464 213.584 183.54C213.623 183.615 213.646 183.698 213.651 183.783C213.656 183.867 213.643 183.952 213.613 184.032C213.582 184.111 213.536 184.183 213.475 184.243C212.419 185.266 211.862 185.707 210.557 187.022C209.755 187.834 208.666 189.096 207.557 190.214C206.448 191.333 205.282 190.291 205.637 189.734C207.254 187.205 206.966 186.259 207.077 184.973C207.094 184.74 207.194 184.522 207.36 184.358Z" fill="#263238"/>
<path d="M181.09 194.846H185.304C185.378 194.846 185.45 194.872 185.507 194.919C185.564 194.967 185.603 195.033 185.616 195.105L186.278 198.437C186.293 198.519 186.29 198.603 186.268 198.683C186.247 198.764 186.208 198.838 186.154 198.902C186.101 198.966 186.034 199.017 185.958 199.052C185.882 199.087 185.8 199.104 185.717 199.104C184.243 199.08 183.533 198.993 181.68 198.993C180.542 198.993 178.19 199.109 176.616 199.109C175.042 199.109 174.874 197.553 175.522 197.414C178.402 196.781 179.53 195.912 180.475 195.077C180.647 194.93 180.864 194.848 181.09 194.846Z" fill="#263238"/>
<g style="mix-blend-mode:multiply" opacity="0.27">
<path d="M181.003 93.2686L178.699 94.6414L181.358 104.64C180.778 101.611 181.037 98.2846 181.003 93.2686Z" fill="#0F50A4"/>
</g>
<path d="M167.909 77.6592C169.546 79.0272 171.922 81.0192 174.72 78.6912C177.12 76.6848 178.8 71.4192 174.494 71.2272C172.243 71.1264 167.909 77.6592 167.909 77.6592Z" fill="#263238"/>
<path d="M171.864 78.5952C171.864 80.8608 172.214 84.9456 174.024 86.1072C174.024 86.1072 173.861 88.44 169.8 89.2272C165.341 90.096 167.237 87.4272 167.237 87.4272C169.56 86.3712 169.157 84.576 168.389 82.9632L171.864 78.5952Z" fill="#E58A7B"/>
<path d="M170.448 80.376L168.394 82.9632C168.574 83.3371 168.721 83.7257 168.835 84.1248C169.738 83.808 170.818 82.5408 170.726 81.5472C170.707 81.1429 170.612 80.7458 170.448 80.376Z" fill="#CF6F64"/>
<path d="M172.08 73.3917C172.56 77.0829 172.853 78.6333 171.374 80.8653C169.152 84.2253 164.515 84.0093 162.936 80.5389C161.496 77.4141 160.958 71.8989 164.242 69.7629C164.964 69.285 165.796 68.9998 166.659 68.9344C167.522 68.869 168.388 69.0257 169.174 69.3894C169.959 69.7531 170.639 70.3118 171.148 71.0124C171.656 71.713 171.977 72.532 172.08 73.3917Z" fill="#E58A7B"/>
<path d="M165.667 66.9263C163.171 68.6975 168.178 69.2207 168.182 71.7887C168.182 72.8495 169.925 76.2143 172.402 76.0223L174.802 71.7599C177.326 67.6799 171.36 62.8799 165.667 66.9263Z" fill="#263238"/>
<path d="M165.667 66.9263C161.275 66.6959 159.36 70.1903 159.864 73.3295C162.928 72.5656 166.097 72.3142 169.243 72.5855C175.262 73.1999 165.667 66.9263 165.667 66.9263Z" fill="#263238"/>
<path d="M173.28 76.5744C173.341 77.2909 173.115 78.0022 172.651 78.552C172.032 79.2768 171.211 78.8496 170.923 77.9904C170.678 77.2128 170.707 75.9024 171.542 75.4896C171.727 75.4042 171.93 75.3662 172.133 75.3788C172.336 75.3915 172.532 75.4545 172.704 75.5622C172.877 75.6698 173.02 75.8187 173.12 75.9955C173.221 76.1722 173.276 76.3711 173.28 76.5744Z" fill="#E58A7B"/>
<path d="M166.747 75.4896C166.805 75.7872 166.694 76.056 166.502 76.0944C166.31 76.1328 166.104 75.9216 166.046 75.6144C165.989 75.3072 166.099 75.0432 166.291 75.0048C166.483 74.9664 166.69 75.192 166.747 75.4896Z" fill="#263238"/>
<path d="M163.392 76.1424C163.45 76.44 163.339 76.7135 163.147 76.7519C162.955 76.7903 162.749 76.5791 162.691 76.2719C162.634 75.9647 162.744 75.7008 162.936 75.6672C163.128 75.6336 163.334 75.84 163.392 76.1424Z" fill="#263238"/>
<path d="M163.027 75.6718L162.274 75.6094C162.274 75.6094 162.749 76.0942 163.027 75.6718Z" fill="#263238"/>
<path d="M164.381 76.4829C164.246 77.2101 164.013 77.9156 163.69 78.5805C163.862 78.6607 164.049 78.7023 164.239 78.7023C164.429 78.7023 164.617 78.6607 164.789 78.5805L164.381 76.4829Z" fill="#DF5753"/>
<path d="M166.042 79.5405C166.021 79.5408 166.001 79.5337 165.985 79.5205C165.969 79.5073 165.959 79.4889 165.955 79.4685C165.953 79.4572 165.953 79.4455 165.956 79.4343C165.958 79.423 165.963 79.4123 165.97 79.4029C165.977 79.3935 165.985 79.3856 165.995 79.3795C166.005 79.3735 166.016 79.3695 166.027 79.3677C166.398 79.3032 166.749 79.1522 167.051 78.9271C167.353 78.7019 167.597 78.4089 167.765 78.0717C167.769 78.061 167.776 78.0513 167.784 78.0431C167.792 78.0349 167.802 78.0283 167.812 78.0239C167.823 78.0194 167.835 78.0171 167.846 78.0171C167.858 78.0171 167.869 78.0193 167.88 78.0237C167.891 78.0282 167.9 78.0346 167.909 78.0428C167.917 78.051 167.923 78.0607 167.928 78.0714C167.932 78.0821 167.935 78.0936 167.935 78.1052C167.935 78.1167 167.932 78.1282 167.928 78.1389C167.752 78.5054 167.491 78.8241 167.166 79.068C166.841 79.312 166.462 79.4741 166.061 79.5405H166.042Z" fill="#263238"/>
<path d="M167.52 74.2126C167.476 74.2131 167.434 74.1978 167.4 74.1694C167.239 74.0159 167.043 73.9028 166.829 73.8394C166.616 73.776 166.39 73.7641 166.171 73.8046C166.123 73.8167 166.072 73.8091 166.029 73.7834C165.986 73.7577 165.955 73.7162 165.943 73.6678C165.931 73.6194 165.939 73.5682 165.964 73.5254C165.99 73.4827 166.032 73.4519 166.08 73.4398C166.357 73.3853 166.643 73.3974 166.914 73.475C167.185 73.5526 167.434 73.6935 167.64 73.8862C167.673 73.9194 167.691 73.9643 167.691 74.011C167.691 74.0577 167.673 74.1025 167.64 74.1358C167.627 74.1564 167.609 74.1739 167.588 74.1871C167.568 74.2004 167.544 74.2091 167.52 74.2126Z" fill="#263238"/>
<path d="M161.534 74.8801C161.512 74.885 161.489 74.885 161.467 74.8801C161.445 74.8712 161.425 74.8579 161.409 74.8412C161.392 74.8245 161.379 74.8046 161.37 74.7827C161.361 74.7608 161.356 74.7373 161.357 74.7136C161.357 74.69 161.362 74.6666 161.371 74.6449C161.473 74.3824 161.637 74.1482 161.848 73.9619C162.06 73.7757 162.312 73.6428 162.586 73.5745C162.609 73.5696 162.633 73.5696 162.656 73.5743C162.679 73.579 162.701 73.5884 162.72 73.6019C162.739 73.6154 162.756 73.6327 162.768 73.6527C162.78 73.6728 162.789 73.6952 162.792 73.7185C162.797 73.7412 162.797 73.7647 162.793 73.7875C162.788 73.8103 162.779 73.832 162.766 73.8513C162.753 73.8705 162.737 73.887 162.717 73.8996C162.698 73.9123 162.676 73.9209 162.653 73.9249C162.437 73.9837 162.238 74.092 162.071 74.2411C161.905 74.3903 161.775 74.5762 161.693 74.7841C161.677 74.8128 161.655 74.8368 161.627 74.8537C161.599 74.8706 161.567 74.8797 161.534 74.8801Z" fill="#263238"/>
<path d="M206.246 186.101C206.164 186.098 206.084 186.076 206.012 186.036C205.94 185.996 205.879 185.939 205.834 185.87C205.8 185.83 205.777 185.781 205.767 185.728C205.758 185.676 205.763 185.622 205.781 185.573C205.949 185.121 207.274 184.833 207.422 184.8C207.44 184.797 207.458 184.799 207.474 184.805C207.49 184.812 207.504 184.824 207.514 184.838C207.524 184.852 207.529 184.869 207.529 184.886C207.529 184.903 207.524 184.92 207.514 184.934C207.254 185.361 206.746 186.077 206.27 186.101H206.246ZM207.25 185.021C206.726 185.155 206.035 185.395 205.949 185.635C205.94 185.657 205.939 185.681 205.944 185.704C205.949 185.727 205.961 185.748 205.978 185.765C206.007 185.814 206.05 185.855 206.1 185.883C206.151 185.91 206.208 185.924 206.266 185.923C206.52 185.909 206.88 185.577 207.25 185.021Z" fill="#0F50A4"/>
<path d="M207.034 185.021C206.554 185.021 205.954 184.901 205.776 184.642C205.737 184.583 205.718 184.512 205.725 184.441C205.731 184.371 205.761 184.304 205.81 184.253C205.852 184.199 205.905 184.155 205.965 184.124C206.026 184.092 206.092 184.074 206.16 184.07H206.198C206.736 184.07 207.475 184.795 207.504 184.824C207.516 184.835 207.524 184.849 207.528 184.864C207.532 184.879 207.532 184.895 207.528 184.91C207.524 184.925 207.516 184.939 207.505 184.95C207.494 184.96 207.48 184.968 207.466 184.973C207.324 185.007 207.179 185.023 207.034 185.021ZM206.198 184.248H206.17C206.127 184.249 206.084 184.26 206.046 184.28C206.008 184.3 205.975 184.329 205.949 184.363C205.882 184.454 205.901 184.507 205.925 184.541C206.069 184.761 206.803 184.886 207.254 184.834C206.967 184.54 206.6 184.337 206.198 184.248Z" fill="#0F50A4"/>
<path d="M179.712 195.504C179.389 195.533 179.066 195.451 178.795 195.274C178.731 195.224 178.681 195.158 178.649 195.084C178.617 195.009 178.605 194.927 178.613 194.846C178.613 194.798 178.625 194.751 178.648 194.709C178.672 194.667 178.706 194.631 178.747 194.606C179.189 194.347 180.734 195.115 180.907 195.202C180.924 195.21 180.937 195.223 180.945 195.24C180.954 195.256 180.957 195.275 180.955 195.293C180.953 195.311 180.945 195.328 180.933 195.341C180.921 195.355 180.906 195.365 180.888 195.37C180.501 195.451 180.107 195.496 179.712 195.504ZM179.002 194.726C178.945 194.723 178.889 194.734 178.838 194.76C178.822 194.769 178.809 194.782 178.8 194.798C178.792 194.814 178.788 194.833 178.79 194.851C178.786 194.905 178.794 194.96 178.815 195.01C178.836 195.06 178.869 195.104 178.91 195.139C179.15 195.346 179.77 195.379 180.586 195.245C180.09 194.985 179.555 194.81 179.002 194.726Z" fill="#0F50A4"/>
<path d="M180.869 195.36H180.835C180.355 195.154 179.429 194.338 179.496 193.92C179.496 193.824 179.582 193.699 179.822 193.675H179.894C180.73 193.675 180.946 195.202 180.955 195.269C180.957 195.285 180.955 195.301 180.95 195.316C180.944 195.332 180.934 195.345 180.922 195.355C180.905 195.362 180.887 195.364 180.869 195.36ZM179.909 193.843H179.856C179.702 193.843 179.693 193.915 179.693 193.935C179.654 194.189 180.288 194.827 180.768 195.111C180.672 194.736 180.427 193.853 179.89 193.853L179.909 193.843Z" fill="#0F50A4"/>
<path d="M166.382 75.0194L165.629 74.9521C165.629 74.9521 166.104 75.4418 166.382 75.0194Z" fill="#263238"/>
<path d="M169.68 92.4193C161.65 94.2097 164.131 89.3521 164.611 88.2817L164.813 88.2049C165.773 87.8545 165.965 87.8017 167.242 87.4273C169.47 86.8259 171.738 86.3847 174.029 86.1073L174.509 86.0401C174.989 85.9777 175.426 85.9297 175.867 85.8913C176.165 85.8577 176.462 85.8385 176.746 85.8193L177.706 85.7617C177.869 86.5105 178.267 90.5137 169.68 92.4193Z" fill="#E58A7B"/>
<path d="M182.285 107.621L183.221 108.831C183.293 108.922 183.192 109.051 183.019 109.085L167.342 112.138C167.208 112.167 167.083 112.138 167.059 112.037L166.661 110.727C166.661 110.635 166.738 110.535 166.882 110.506L182.021 107.559C182.066 107.545 182.115 107.544 182.161 107.555C182.207 107.566 182.25 107.588 182.285 107.621Z" fill="#26395A"/>
<path d="M180.581 109.709L180.989 109.632C181.07 109.632 181.123 109.565 181.109 109.512L180.581 107.813C180.581 107.76 180.485 107.736 180.403 107.75L180 107.827C179.918 107.827 179.866 107.899 179.88 107.947L180.408 109.651C180.422 109.699 180.504 109.728 180.581 109.709Z" fill="#0F50A4"/>
<path d="M171.398 115.373L168.274 114.211L168.754 117.182C168.754 117.182 171.019 117.998 172.176 116.952L171.398 115.373Z" fill="#E58A7B"/>
<path d="M165.298 114.998L164.554 116.947L168.754 117.182L168.274 114.211L165.298 114.998Z" fill="#E58A7B"/>
<path d="M168.509 112.061L168.917 111.984C168.994 111.984 169.051 111.917 169.032 111.864L168.504 110.165C168.504 110.112 168.413 110.088 168.331 110.102L167.923 110.179C167.842 110.179 167.789 110.251 167.808 110.299L168.336 112.003C168.35 112.051 168.427 112.08 168.509 112.061Z" fill="#0F50A4"/>
<path d="M174.547 110.88L174.95 110.803C175.032 110.803 175.085 110.736 175.07 110.683L174.542 108.984C174.542 108.931 174.446 108.907 174.365 108.922L173.962 108.998C173.88 108.998 173.827 109.07 173.842 109.118L174.37 110.822C174.389 110.85 174.417 110.871 174.449 110.881C174.481 110.892 174.515 110.891 174.547 110.88Z" fill="#0F50A4"/>
<path d="M172.838 84.2017C173.179 84.0721 173.606 85.2721 173.501 85.4257C173.256 85.7761 168.773 87.0001 168.571 86.3137C168.559 85.9416 168.616 85.5705 168.739 85.2193C168.869 84.9889 169.862 85.4113 172.838 84.2017Z" fill="#0F50A4"/>
<path d="M172.08 84.2303C172.253 83.8319 172.747 83.1935 173.179 83.5583C173.611 83.9231 173.794 84.7103 173.51 84.8399C173.227 84.9695 171.782 84.8975 172.08 84.2303Z" fill="#0F50A4"/>
<path d="M172.997 84.4369C173.294 84.1201 173.957 83.6833 174.259 84.1729C174.562 84.6625 174.451 85.4641 174.144 85.4881C173.837 85.5121 172.493 84.9601 172.997 84.4369Z" fill="#0F50A4"/>
<path d="M173.16 84.3646C173.136 84.1094 173.186 83.8527 173.304 83.6253C173.423 83.3979 173.604 83.2096 173.827 83.083C174.374 82.7278 174.907 82.4974 175.118 82.123C175.209 82.4741 175.227 82.84 175.171 83.1983C175.061 83.7119 173.357 84.1054 173.472 84.5518L173.16 84.3646Z" fill="#0F50A4"/>
<path d="M173.088 84.3409C172.929 84.1395 172.832 83.8963 172.808 83.6408C172.784 83.3853 172.835 83.1283 172.954 82.9009C173.213 82.3057 173.539 81.8257 173.52 81.4033C173.787 81.6489 174.001 81.9461 174.149 82.2769C174.331 82.7569 173.117 84.0193 173.458 84.3361L173.088 84.3409Z" fill="#0F50A4"/>
<path d="M206.472 178.109C206.462 178.109 206.453 178.106 206.444 178.101C206.436 178.096 206.429 178.089 206.424 178.08C206.314 177.926 195.341 162.269 191.318 148.512C188.693 139.688 186.676 130.694 185.28 121.594C184.45 116.467 183.946 113.371 182.294 110.832C182.283 110.82 182.277 110.805 182.277 110.789C182.277 110.773 182.283 110.757 182.294 110.746C182.306 110.736 182.32 110.73 182.335 110.73C182.35 110.73 182.365 110.736 182.376 110.746C184.046 113.309 184.55 116.414 185.381 121.555C186.783 130.642 188.804 139.623 191.429 148.435C195.446 162.173 206.41 177.811 206.52 177.97C206.529 177.981 206.534 177.996 206.534 178.01C206.534 178.025 206.529 178.04 206.52 178.051C206.519 178.065 206.514 178.078 206.506 178.088C206.497 178.098 206.485 178.106 206.472 178.109Z" fill="#0F50A4"/>
<path opacity="0.4" d="M206.472 178.109C206.462 178.109 206.453 178.106 206.444 178.101C206.436 178.096 206.429 178.089 206.424 178.08C206.314 177.926 195.341 162.269 191.318 148.512C188.693 139.688 186.676 130.694 185.28 121.594C184.45 116.467 183.946 113.371 182.294 110.832C182.283 110.82 182.277 110.805 182.277 110.789C182.277 110.773 182.283 110.757 182.294 110.746C182.306 110.736 182.32 110.73 182.335 110.73C182.35 110.73 182.365 110.736 182.376 110.746C184.046 113.309 184.55 116.414 185.381 121.555C186.783 130.642 188.804 139.623 191.429 148.435C195.446 162.173 206.41 177.811 206.52 177.97C206.529 177.981 206.534 177.996 206.534 178.01C206.534 178.025 206.529 178.04 206.52 178.051C206.519 178.065 206.514 178.078 206.506 178.088C206.497 178.098 206.485 178.106 206.472 178.109Z" fill="black"/>
<path d="M186.192 189.662L178.858 190.613L178.378 188.568L186.014 186.95L186.192 189.662Z" fill="#0F50A4"/>
<path d="M208.675 177.883L203.266 181.008L201.442 179.448L207.36 175.445L208.675 177.883Z" fill="#0F50A4"/>
<path d="M183.288 90.7822C183.547 92.1166 183.696 93.3742 183.84 94.675C183.984 95.9758 184.037 97.2622 184.075 98.563C184.114 99.874 184.085 101.186 183.989 102.494C183.936 103.152 183.878 103.809 183.787 104.472C183.749 104.798 183.706 105.129 183.643 105.461L183.466 106.478C183.269 107.308 182.908 108.089 182.405 108.777C181.992 109.356 181.536 109.903 181.042 110.414C180.115 111.366 179.121 112.248 178.066 113.054C176.025 114.626 173.864 116.036 171.605 117.273L170.578 115.68C171.538 114.917 172.498 114.129 173.458 113.328C174.418 112.526 175.33 111.715 176.208 110.87C177.076 110.057 177.895 109.193 178.661 108.283C179.013 107.862 179.333 107.416 179.621 106.949C179.848 106.608 180.01 106.229 180.101 105.83C180.257 104.665 180.348 103.492 180.374 102.317C180.374 101.717 180.374 101.117 180.374 100.517C180.374 99.9166 180.35 99.307 180.322 98.7022C180.264 97.4926 180.154 96.3022 180.024 95.0734C179.894 93.8446 179.726 92.6302 179.544 91.4926L183.288 90.7822Z" fill="#E58A7B"/>
<path d="M182.707 86.7024C184.757 88.3632 184.267 93.2976 184.267 93.2976L177.355 95.5728C177.355 95.5728 177.672 89.8848 178.018 87.84C178.421 85.4064 180.686 85.0656 182.707 86.7024Z" fill="#0F50A4"/>
<path opacity="0.2" d="M182.707 86.7024C184.757 88.3632 184.267 93.2976 184.267 93.2976L177.355 95.5728C177.355 95.5728 177.672 89.8848 178.018 87.84C178.421 85.4064 180.686 85.0656 182.707 86.7024Z" fill="black"/>
<path d="M91.3968 107.294C91.1286 106.13 90.4738 105.092 89.5392 104.348C88.6046 103.604 87.4456 103.2 86.2512 103.2H47.8512C46.4509 103.2 45.1079 103.756 44.1177 104.746C43.1275 105.736 42.5712 107.079 42.5712 108.48V193.833C42.5712 195.234 43.1275 196.577 44.1177 197.567C45.1079 198.557 46.4509 199.113 47.8512 199.113H169.771C171.172 199.113 172.515 198.557 173.505 197.567C174.495 196.577 175.051 195.234 175.051 193.833V122.136C175.051 120.735 174.495 119.392 173.505 118.402C172.515 117.412 171.172 116.856 169.771 116.856H103.411C100.622 116.856 97.9156 115.911 95.7334 114.174C93.5511 112.437 92.0224 110.012 91.3968 107.294Z" fill="#0F50A4"/>
<path opacity="0.6" d="M91.3968 107.294C91.1286 106.13 90.4738 105.092 89.5392 104.348C88.6046 103.604 87.4456 103.2 86.2512 103.2H47.8512C46.4509 103.2 45.1079 103.756 44.1177 104.746C43.1275 105.736 42.5712 107.079 42.5712 108.48V193.833C42.5712 195.234 43.1275 196.577 44.1177 197.567C45.1079 198.557 46.4509 199.113 47.8512 199.113H169.771C171.172 199.113 172.515 198.557 173.505 197.567C174.495 196.577 175.051 195.234 175.051 193.833V122.136C175.051 120.735 174.495 119.392 173.505 118.402C172.515 117.412 171.172 116.856 169.771 116.856H103.411C100.622 116.856 97.9156 115.911 95.7334 114.174C93.5511 112.437 92.0224 110.012 91.3968 107.294Z" fill="black"/>
<path opacity="0.22" d="M77.8416 80.7119L81.264 91.7951C81.7009 93.2057 82.6798 94.3852 83.9857 95.0746C85.2915 95.764 86.8176 95.9069 88.2288 95.4719L99.3072 92.0495L77.8416 80.7119Z" fill="#0F50A4"/>
<path d="M77.8416 80.7119L38.2416 92.9471C37.5425 93.1619 36.8927 93.5124 36.3292 93.9785C35.7657 94.4447 35.2997 95.0173 34.9577 95.6638C34.6158 96.3102 34.4047 97.0177 34.3364 97.7458C34.2682 98.474 34.3441 99.2084 34.56 99.9071L57.168 173.098C57.3838 173.796 57.7351 174.446 58.202 175.009C58.6688 175.572 59.242 176.037 59.8887 176.379C60.5355 176.72 61.2432 176.931 61.9714 176.999C62.6996 177.067 63.4341 176.99 64.1328 176.774L114.816 161.117C115.515 160.901 116.164 160.551 116.727 160.084C117.29 159.618 117.755 159.045 118.097 158.399C118.438 157.752 118.649 157.045 118.717 156.317C118.785 155.589 118.709 154.855 118.493 154.157L99.2928 92.0495L77.8416 80.7119Z" fill="#0F50A4"/>
<path opacity="0.8" d="M77.8416 80.7119L38.2416 92.9471C37.5425 93.1619 36.8927 93.5124 36.3292 93.9785C35.7657 94.4447 35.2997 95.0173 34.9577 95.6638C34.6158 96.3102 34.4047 97.0177 34.3364 97.7458C34.2682 98.474 34.3441 99.2084 34.56 99.9071L57.168 173.098C57.3838 173.796 57.7351 174.446 58.202 175.009C58.6688 175.572 59.242 176.037 59.8887 176.379C60.5355 176.72 61.2432 176.931 61.9714 176.999C62.6996 177.067 63.4341 176.99 64.1328 176.774L114.816 161.117C115.515 160.901 116.164 160.551 116.727 160.084C117.29 159.618 117.755 159.045 118.097 158.399C118.438 157.752 118.649 157.045 118.717 156.317C118.785 155.589 118.709 154.855 118.493 154.157L99.2928 92.0495L77.8416 80.7119Z" fill="white"/>
<g opacity="0.28">
<path opacity="0.28" d="M99.1488 157.92L66.2016 168.096C65.5854 168.285 64.9194 168.223 64.3491 167.922C63.7789 167.622 63.3508 167.108 63.1584 166.493C62.9708 165.877 63.0346 165.211 63.3359 164.642C63.6372 164.073 64.1514 163.646 64.7664 163.454L97.7136 153.274C98.3304 153.085 98.9969 153.148 99.5673 153.449C100.138 153.75 100.565 154.265 100.757 154.882C100.944 155.498 100.881 156.163 100.579 156.732C100.278 157.302 99.7637 157.729 99.1488 157.92Z" fill="#0F50A4"/>
</g>
<g opacity="0.28">
<path opacity="0.28" d="M63.6912 98.1984L46.2672 103.579C45.651 103.767 44.9856 103.704 44.4156 103.404C43.8457 103.104 43.4174 102.59 43.224 101.976C43.0362 101.359 43.0999 100.693 43.4011 100.123C43.7023 99.5532 44.2166 99.1253 44.832 98.9328L62.256 93.552C62.8721 93.3615 63.5387 93.4233 64.1093 93.7239C64.6799 94.0245 65.1079 94.5393 65.2992 95.1552C65.4869 95.772 65.4232 96.438 65.122 97.008C64.8208 97.5781 64.3065 98.006 63.6912 98.1984Z" fill="#0F50A4"/>
</g>
<g opacity="0.28">
<path opacity="0.28" d="M77.9088 103.906L49.1088 112.8C48.4939 112.985 47.831 112.92 47.264 112.618C46.6969 112.317 46.2715 111.805 46.08 111.192C45.8909 110.577 45.9534 109.911 46.2539 109.342C46.5544 108.772 47.0683 108.345 47.6832 108.154L76.4832 99.2593C77.0993 99.0701 77.7654 99.1325 78.3356 99.4329C78.9059 99.7333 79.334 100.247 79.5264 100.863C79.7124 101.481 79.6468 102.147 79.3438 102.717C79.0409 103.287 78.5251 103.714 77.9088 103.906Z" fill="#0F50A4"/>
</g>
<g opacity="0.28">
<path opacity="0.28" d="M93.9888 109.037L51.96 121.997C51.3445 122.186 50.6791 122.123 50.1096 121.823C49.5401 121.522 49.1129 121.008 48.9216 120.394C48.7337 119.777 48.7967 119.112 49.0969 118.542C49.3972 117.972 49.9104 117.544 50.5248 117.35L92.5536 104.39C93.1691 104.203 93.8339 104.266 94.4031 104.566C94.9722 104.866 95.3996 105.379 95.592 105.994C95.7812 106.61 95.7188 107.276 95.4184 107.846C95.118 108.416 94.604 108.844 93.9888 109.037Z" fill="#0F50A4"/>
</g>
<g opacity="0.28">
<path opacity="0.28" d="M96.8353 118.253L72.4033 125.803C71.7871 125.991 71.1218 125.927 70.5525 125.625C69.9832 125.324 69.5563 124.81 69.3649 124.195C69.1771 123.579 69.2402 122.915 69.5405 122.345C69.8408 121.776 70.354 121.349 70.9681 121.157L95.4001 113.606C96.0168 113.42 96.6823 113.484 97.252 113.785C97.8217 114.086 98.2497 114.6 98.4433 115.214C98.6308 115.83 98.567 116.496 98.2658 117.065C97.9645 117.634 97.4502 118.061 96.8353 118.253Z" fill="#0F50A4"/>
</g>
<g opacity="0.28">
<path opacity="0.28" d="M61.2 129.264L54.8112 131.237C54.195 131.426 53.529 131.364 52.9588 131.063C52.3885 130.763 51.9604 130.249 51.768 129.634C51.579 129.017 51.642 128.35 51.9434 127.78C52.2448 127.209 52.7599 126.782 53.376 126.59L59.7648 124.618C60.381 124.43 61.0464 124.493 61.6163 124.793C62.1863 125.093 62.6145 125.606 62.808 126.221C62.9944 126.837 62.9301 127.503 62.6291 128.073C62.3281 128.642 61.8146 129.07 61.2 129.264Z" fill="#0F50A4"/>
</g>
<g opacity="0.28">
<path opacity="0.28" d="M99.6864 127.474L57.6576 140.458C57.0415 140.645 56.3761 140.582 55.8069 140.28C55.2376 139.979 54.8106 139.465 54.6192 138.85C54.4301 138.234 54.4927 137.569 54.7931 136.999C55.0936 136.43 55.6076 136.003 56.2224 135.811L98.2512 122.827C98.8667 122.64 99.5315 122.703 100.101 123.003C100.67 123.303 101.097 123.816 101.29 124.431C101.479 125.047 101.416 125.713 101.116 126.283C100.816 126.853 100.302 127.281 99.6864 127.474Z" fill="#0F50A4"/>
</g>
<g opacity="0.28">
<path opacity="0.28" d="M86.3136 141.701L60.504 149.673C59.8885 149.861 59.2237 149.798 58.6545 149.498C58.0854 149.197 57.658 148.684 57.4656 148.07C57.2777 147.454 57.3407 146.789 57.6409 146.219C57.9412 145.649 58.4544 145.22 59.0688 145.027L84.8784 137.054C85.4952 136.866 86.1612 136.93 86.7312 137.231C87.3013 137.532 87.7291 138.047 87.9216 138.662C88.1105 139.278 88.0473 139.944 87.7459 140.514C87.4444 141.083 86.9293 141.51 86.3136 141.701Z" fill="#0F50A4"/>
</g>
<g opacity="0.28">
<path opacity="0.28" d="M102.533 136.694L95.6448 138.821C95.028 139.008 94.362 138.945 93.792 138.643C93.222 138.342 92.7941 137.828 92.6016 137.213C92.414 136.596 92.4778 135.931 92.7791 135.362C93.0804 134.793 93.5947 134.366 94.2096 134.174L101.098 132.048C101.713 131.859 102.379 131.921 102.948 132.222C103.517 132.522 103.945 133.036 104.136 133.651C104.325 134.267 104.263 134.933 103.962 135.503C103.662 136.074 103.148 136.502 102.533 136.694Z" fill="#0F50A4"/>
</g>
<g opacity="0.28">
<path opacity="0.28" d="M105.379 145.92L63.36 158.88C62.7432 159.069 62.0766 159.006 61.5063 158.705C60.9359 158.403 60.5082 157.888 60.3168 157.272C60.1279 156.656 60.1911 155.99 60.4925 155.42C60.794 154.851 61.3091 154.424 61.9248 154.234L103.949 141.25C104.566 141.063 105.231 141.128 105.801 141.429C106.37 141.73 106.798 142.243 106.992 142.858C107.088 143.165 107.123 143.488 107.094 143.808C107.065 144.129 106.973 144.44 106.823 144.725C106.673 145.009 106.468 145.262 106.221 145.467C105.973 145.672 105.687 145.826 105.379 145.92Z" fill="#0F50A4"/>
</g>
<path d="M123.394 86.0303L82.0272 88.5839C81.2964 88.6273 80.5813 88.8144 79.9229 89.1346C79.2645 89.4547 78.6757 89.9015 78.1902 90.4494C77.7047 90.9974 77.332 91.6357 77.0934 92.3278C76.8549 93.02 76.7552 93.7524 76.8 94.4831L81.5184 170.937C81.5624 171.669 81.7503 172.384 82.0713 173.043C82.3923 173.701 82.84 174.29 83.389 174.775C83.9379 175.26 84.5771 175.632 85.2701 175.87C85.963 176.107 86.6961 176.206 87.4272 176.16L140.371 172.891C141.101 172.847 141.815 172.659 142.473 172.339C143.13 172.018 143.718 171.571 144.202 171.023C144.686 170.475 145.058 169.837 145.295 169.145C145.532 168.454 145.63 167.722 145.584 166.992L141.6 102.11L123.394 86.0303Z" fill="#0F50A4"/>
<path opacity="0.8" d="M123.394 86.0303L82.0272 88.5839C81.2964 88.6273 80.5813 88.8144 79.9229 89.1346C79.2645 89.4547 78.6757 89.9015 78.1902 90.4494C77.7047 90.9974 77.332 91.6357 77.0934 92.3278C76.8549 93.02 76.7552 93.7524 76.8 94.4831L81.5184 170.937C81.5624 171.669 81.7503 172.384 82.0713 173.043C82.3923 173.701 82.84 174.29 83.389 174.775C83.9379 175.26 84.5771 175.632 85.2701 175.87C85.963 176.107 86.6961 176.206 87.4272 176.16L140.371 172.891C141.101 172.847 141.815 172.659 142.473 172.339C143.13 172.018 143.718 171.571 144.202 171.023C144.686 170.475 145.058 169.837 145.295 169.145C145.532 168.454 145.63 167.722 145.584 166.992L141.6 102.11L123.394 86.0303Z" fill="white"/>
<g opacity="0.22">
<path opacity="0.22" d="M125.894 166.08L91.4736 168.206C90.8306 168.243 90.1991 168.024 89.7171 167.597C89.235 167.169 88.9416 166.569 88.9008 165.926C88.8639 165.283 89.0822 164.652 89.5083 164.169C89.9343 163.687 90.5337 163.392 91.176 163.349L125.597 161.227C126.24 161.189 126.872 161.407 127.355 161.833C127.838 162.259 128.132 162.859 128.174 163.502C128.213 164.146 127.994 164.779 127.567 165.262C127.139 165.745 126.538 166.039 125.894 166.08Z" fill="#0F50A4"/>
</g>
<g opacity="0.22">
<path opacity="0.22" d="M105.523 99.6865L87.3168 100.8C86.6741 100.837 86.0428 100.619 85.5601 100.193C85.0774 99.7666 84.7824 99.1672 84.7392 98.5249C84.7024 97.8814 84.9214 97.2494 85.3484 96.7666C85.7755 96.2838 86.376 95.9893 87.0192 95.9473L105.226 94.8241C105.868 94.786 106.5 95.004 106.982 95.4304C107.464 95.8568 107.758 96.4569 107.798 97.0993C107.839 97.7439 107.623 98.3784 107.196 98.8635C106.769 99.3486 106.168 99.6445 105.523 99.6865Z" fill="#0F50A4"/>
</g>
<g opacity="0.22">
<path opacity="0.22" d="M117.994 108.585L87.912 110.438C87.2686 110.478 86.6359 110.26 86.1527 109.834C85.6694 109.407 85.3752 108.806 85.3344 108.163C85.2963 107.519 85.5148 106.886 85.9421 106.403C86.3694 105.92 86.9707 105.626 87.6144 105.585L117.691 103.733C118.335 103.693 118.967 103.911 119.451 104.337C119.934 104.764 120.228 105.365 120.269 106.008C120.307 106.651 120.089 107.283 119.663 107.766C119.237 108.249 118.636 108.543 117.994 108.585Z" fill="#0F50A4"/>
</g>
<g opacity="0.22">
<path opacity="0.22" d="M132.408 117.365L88.5072 120.072C87.8621 120.111 87.2276 119.893 86.7427 119.466C86.2578 119.039 85.962 118.437 85.92 117.792C85.8819 117.149 86.0999 116.518 86.5264 116.035C86.9528 115.553 87.5529 115.26 88.1952 115.219L132.101 112.507C132.744 112.47 133.375 112.689 133.857 113.116C134.339 113.544 134.633 114.144 134.674 114.787C134.712 115.428 134.495 116.059 134.071 116.542C133.647 117.024 133.049 117.32 132.408 117.365Z" fill="#0F50A4"/>
</g>
<g opacity="0.22">
<path opacity="0.22" d="M133.003 126.994L107.482 128.568C106.839 128.606 106.207 128.388 105.724 127.962C105.241 127.536 104.946 126.936 104.904 126.293C104.865 125.649 105.082 125.017 105.509 124.533C105.935 124.05 106.536 123.756 107.179 123.715L132.701 122.141C133.344 122.101 133.977 122.319 134.46 122.745C134.943 123.172 135.238 123.773 135.278 124.416C135.317 125.059 135.099 125.691 134.672 126.174C134.246 126.657 133.646 126.952 133.003 126.994Z" fill="#0F50A4"/>
</g>
<g opacity="0.22">
<path opacity="0.22" d="M95.7744 129.288L89.0976 129.701C88.455 129.739 87.8236 129.521 87.3414 129.094C86.8592 128.668 86.5656 128.068 86.5248 127.426C86.4866 126.783 86.7045 126.15 87.1308 125.668C87.5571 125.185 88.1572 124.89 88.8 124.848L95.4768 124.435C96.1203 124.398 96.7523 124.617 97.2351 125.044C97.7179 125.471 98.0124 126.072 98.0544 126.715C98.0912 127.358 97.8721 127.99 97.4449 128.472C97.0177 128.954 96.4172 129.247 95.7744 129.288Z" fill="#0F50A4"/>
</g>
<g opacity="0.22">
<path opacity="0.22" d="M133.598 136.622L89.6929 139.329C89.0498 139.368 88.4178 139.15 87.9348 138.723C87.4519 138.297 87.1572 137.697 87.1153 137.054C87.0784 136.411 87.2974 135.779 87.7245 135.296C88.1515 134.813 88.7521 134.519 89.3953 134.477L133.296 131.769C133.94 131.731 134.573 131.95 135.056 132.377C135.539 132.804 135.833 133.406 135.874 134.049C135.912 134.692 135.694 135.323 135.267 135.806C134.841 136.288 134.241 136.581 133.598 136.622Z" fill="#0F50A4"/>
</g>
<g opacity="0.22">
<path opacity="0.22" d="M117.25 147.298L90.288 148.963C89.6445 149 89.0125 148.781 88.5297 148.354C88.0469 147.927 87.7524 147.326 87.7104 146.683C87.6736 146.04 87.8927 145.409 88.3199 144.927C88.7471 144.445 89.3476 144.151 89.9904 144.11L116.952 142.445C117.595 142.408 118.226 142.627 118.709 143.054C119.191 143.482 119.484 144.082 119.525 144.725C119.564 145.368 119.347 146 118.92 146.482C118.493 146.965 117.892 147.258 117.25 147.298Z" fill="#0F50A4"/>
</g>
<g opacity="0.22">
<path opacity="0.22" d="M134.189 146.256L126.989 146.697C126.346 146.735 125.715 146.517 125.233 146.091C124.75 145.665 124.457 145.065 124.416 144.422C124.377 143.779 124.594 143.146 125.021 142.663C125.447 142.18 126.048 141.885 126.691 141.845L133.891 141.403C134.535 141.364 135.167 141.581 135.651 142.008C136.134 142.434 136.428 143.035 136.469 143.678C136.506 144.322 136.287 144.954 135.86 145.437C135.433 145.919 134.832 146.214 134.189 146.256Z" fill="#0F50A4"/>
</g>
<g opacity="0.22">
<path opacity="0.22" d="M134.784 155.885L90.8832 158.592C90.2402 158.63 89.6081 158.412 89.1252 157.986C88.6422 157.56 88.3476 156.96 88.3056 156.317C88.2675 155.674 88.4853 155.042 88.9116 154.559C89.3379 154.076 89.938 153.781 90.5808 153.739L134.486 151.032C135.129 150.994 135.76 151.212 136.243 151.638C136.725 152.065 137.018 152.665 137.059 153.307C137.099 153.951 136.881 154.583 136.455 155.067C136.028 155.55 135.427 155.844 134.784 155.885Z" fill="#0F50A4"/>
</g>
<path opacity="0.22" d="M123.394 86.0303L124.109 97.6079C124.153 98.3379 124.341 99.0519 124.662 99.7092C124.983 100.366 125.43 100.954 125.978 101.439C126.525 101.923 127.163 102.295 127.855 102.533C128.546 102.771 129.278 102.87 130.008 102.825L141.6 102.11L123.394 86.0303Z" fill="#0F50A4"/>
<path opacity="0.5" d="M109.848 114.912C109.841 114.357 109.722 113.809 109.5 113.301C109.277 112.793 108.955 112.334 108.553 111.952C108.15 111.571 107.675 111.274 107.155 111.079C106.636 110.884 106.082 110.795 105.528 110.817H67.08C64.1664 110.817 61.32 113.184 60.7728 116.097L45.6 193.833C45.0336 196.747 46.9344 199.113 49.848 199.113H171.768C174.682 199.113 177.504 196.752 178.075 193.833L190.589 129.753C191.155 126.835 189.254 124.473 186.341 124.473H120C114.24 124.473 110.045 120.509 109.848 114.912Z" fill="#0F50A4"/>
</svg>
