<svg width="18" height="22" viewBox="0 0 18 22" fill="none" xmlns="http://www.w3.org/2000/svg">
<path d="M9.05078 4.11767C9.41047 4.11767 10.265 4.34512 10.265 4.34512C12.5801 4.87563 14.2096 7.00804 14.2096 9.41563V15.8959L14.6829 16.3714L15.0784 16.7687H2.92159L3.31707 16.3714L3.7904 15.8959V9.41563C3.7904 7.00809 5.41992 4.87563 7.73499 4.34512C7.73499 4.34512 8.65123 4.11767 8.94922 4.11767H9.05078ZM9 0.4375C8.10615 0.4375 7.42278 1.12396 7.42278 2.02187V2.7612C4.42593 3.44791 2.1654 6.19406 2.1654 9.41563V15.225L0.0625 17.3375V18.3938H17.9375V17.3375L15.8346 15.225V9.41563C15.8346 6.19406 13.574 3.44791 10.5772 2.7612V2.02187C10.5772 1.12396 9.89385 0.4375 9 0.4375ZM11.1029 19.45H6.89705C6.89705 20.6119 7.84325 21.5625 9 21.5625C10.1567 21.5625 11.1029 20.6119 11.1029 19.45Z" fill="white"/>
</svg>
