<svg width="19" height="19" viewBox="0 0 19 19" fill="none" xmlns="http://www.w3.org/2000/svg">
<path d="M15.9505 14.7725H3.04952C2.16507 14.7725 1.44592 14.0534 1.44592 13.1689C1.44592 12.2845 2.16507 11.5653 3.04952 11.5653C3.08657 11.5653 3.11697 11.5349 3.11697 11.4979V7.25802C3.11697 3.73827 5.98027 0.874023 9.50097 0.874023C13.0217 0.874023 15.885 3.73732 15.885 7.25802V11.4979C15.885 11.5349 15.9154 11.5653 15.9524 11.5653C16.8369 11.5653 17.556 12.2845 17.556 13.1689C17.556 14.0534 16.835 14.7725 15.9505 14.7725ZM9.50002 2.01402C6.60917 2.01402 4.25602 4.36622 4.25602 7.25802V11.4979C4.25602 12.1638 3.71452 12.7053 3.04857 12.7053C2.79302 12.7053 2.58497 12.9134 2.58497 13.1689C2.58497 13.4245 2.79302 13.6325 3.04857 13.6325H15.9505C16.2061 13.6325 16.4141 13.4245 16.4141 13.1689C16.4141 12.9134 16.2061 12.7053 15.9505 12.7053C15.2846 12.7053 14.7431 12.1638 14.7431 11.4979V7.25802C14.7431 4.36622 12.3909 2.01402 9.50002 2.01402Z" fill="#F2F2F2"/>
<path d="M9.5 17.9484C8.455 17.9484 7.41 17.5503 6.6139 16.7552C6.50716 16.6483 6.4472 16.5034 6.4472 16.3524C6.4472 16.2013 6.50716 16.0564 6.6139 15.9496C6.72078 15.8428 6.86565 15.7829 7.0167 15.7829C7.16775 15.7829 7.31263 15.8428 7.4195 15.9496C8.56615 17.0962 10.4329 17.0962 11.5796 15.9496C11.8019 15.7273 12.1629 15.7273 12.3861 15.9496C12.6094 16.1719 12.6084 16.5329 12.3861 16.7561C11.59 17.5503 10.545 17.9484 9.5 17.9484Z" fill="#F2F2F2"/>
</svg>
