<svg width="24" height="24" viewBox="0 0 24 24" fill="none" xmlns="http://www.w3.org/2000/svg">
<path fill-rule="evenodd" clip-rule="evenodd" d="M14.4811 3.87632C14.4584 3.90246 14.436 3.9289 14.4139 3.95563C13.8433 4.64706 13.5005 5.5335 13.5005 6.5C13.5005 8.70914 15.2913 10.5 17.5005 10.5C17.8044 10.5 18.1004 10.4661 18.3849 10.4019V13.9988C18.3849 14.0359 18.4153 14.0663 18.4523 14.0663C19.3368 14.0663 20.0559 14.7854 20.0559 15.6699C20.0559 16.5543 19.3349 17.2735 18.4504 17.2735H5.5494C4.66495 17.2735 3.9458 16.5543 3.9458 15.6699C3.9458 14.7854 4.66495 14.0663 5.5494 14.0663C5.58645 14.0663 5.61685 14.0359 5.61685 13.9988V9.759C5.61685 6.23925 8.48015 3.375 12.0009 3.375C12.88 3.375 13.7182 3.55356 14.4811 3.87632Z" fill="#0F50A4"/>
<path d="M12.0001 20.4468C10.9551 20.4468 9.91006 20.0487 9.11396 19.2536C9.00722 19.1467 8.94727 19.0018 8.94727 18.8508C8.94727 18.6997 9.00722 18.5549 9.11396 18.448C9.22084 18.3412 9.36571 18.2813 9.51676 18.2813C9.66781 18.2813 9.81269 18.3412 9.91956 18.448C11.0662 19.5946 12.933 19.5946 14.0796 18.448C14.3019 18.2257 14.6629 18.2257 14.8862 18.448C15.1094 18.6703 15.1085 19.0313 14.8862 19.2545C14.0901 20.0487 13.0451 20.4468 12.0001 20.4468Z" fill="#0F50A4"/>
<circle cx="17.5005" cy="6.5" r="3" fill="#0685CF"/>
</svg>
