<svg width="328" height="321" viewBox="0 0 328 321" fill="none" xmlns="http://www.w3.org/2000/svg">
<mask id="mask0" mask-type="alpha" maskUnits="userSpaceOnUse" x="0" y="0" width="300" height="321">
<path d="M2.2779 125.13C2.2779 125.13 -10.795 181.164 25.6948 229.992C62.1847 278.819 125.891 297.808 177.071 314.516C228.252 331.225 276.189 311.926 294.172 268.916C312.156 225.906 275.829 202.735 267.822 146.562C259.815 90.3889 266.188 74.2111 228.848 31.4381C191.509 -11.335 114.828 -10.3136 62.9854 33.5951C11.143 77.5039 2.2779 125.13 2.2779 125.13Z" fill="#0F50A4"/>
<path opacity="0.7" d="M2.2779 125.13C2.2779 125.13 -10.795 181.164 25.6948 229.992C62.1847 278.819 125.891 297.808 177.071 314.516C228.252 331.225 276.189 311.926 294.172 268.916C312.156 225.906 275.829 202.735 267.822 146.562C259.815 90.3889 266.188 74.2111 228.848 31.4381C191.509 -11.335 114.828 -10.3136 62.9854 33.5951C11.143 77.5039 2.2779 125.13 2.2779 125.13Z" fill="white"/>
</mask>
<g mask="url(#mask0)">
<rect x="-15" y="-5" width="342" height="280" fill="#0F50A4"/>
</g>
<g opacity="0.7">
<mask id="mask1" mask-type="alpha" maskUnits="userSpaceOnUse" x="0" y="0" width="300" height="321">
<path d="M2.2779 125.13C2.2779 125.13 -10.795 181.164 25.6948 229.992C62.1847 278.819 125.891 297.808 177.071 314.516C228.252 331.225 276.189 311.926 294.172 268.916C312.156 225.906 275.829 202.735 267.822 146.562C259.815 90.3889 266.188 74.2111 228.848 31.4381C191.509 -11.335 114.828 -10.3136 62.9854 33.5951C11.143 77.5039 2.2779 125.13 2.2779 125.13Z" fill="#0F50A4"/>
<path opacity="0.7" d="M2.2779 125.13C2.2779 125.13 -10.795 181.164 25.6948 229.992C62.1847 278.819 125.891 297.808 177.071 314.516C228.252 331.225 276.189 311.926 294.172 268.916C312.156 225.906 275.829 202.735 267.822 146.562C259.815 90.3889 266.188 74.2111 228.848 31.4381C191.509 -11.335 114.828 -10.3136 62.9854 33.5951C11.143 77.5039 2.2779 125.13 2.2779 125.13Z" fill="white"/>
</mask>
<g mask="url(#mask1)">
<rect x="-15" y="-5" width="342" height="280" fill="white"/>
</g>
</g>
<path d="M294.529 273H49.297C34.4959 275.267 22.623 278.203 26.3505 281.545C35.0699 289.371 97.8638 280.23 96.0182 289.291C94.1727 298.352 141.264 296.106 166.885 296.106C192.505 296.106 220.473 293.701 211.47 286.748C202.467 279.794 262.231 284.873 287.917 284.873C306.664 284.873 319.51 279.641 294.529 273Z" fill="#0F50A4"/>
<path d="M4 273H327.241" stroke="#263238" stroke-width="0.75" stroke-linecap="round" stroke-linejoin="round"/>
<path d="M236.011 122.33L234.413 132.13L240.401 132.025L239.36 123.026L236.011 122.33Z" fill="#FC9D9D"/>
<path opacity="0.15" d="M237.268 122.625L234.413 132.129L240.401 132.024L239.36 123.025L237.268 122.625Z" fill="black"/>
<path d="M246.471 276.161L227.798 276.621L235.24 271.298C235.857 270.859 236.366 270.288 236.727 269.623C237.089 268.962 237.295 268.224 237.329 267.468L237.587 261.627L247.742 261.658L246.471 276.161Z" fill="#FC9D9D"/>
<path opacity="0.15" d="M244.4 269.352V269.237C244.43 268.924 244.338 268.614 244.143 268.367C243.949 268.12 243.666 267.956 243.356 267.915L237.399 267.051L237.458 265.871H247.425L246.534 275.768L238.391 274.877L241.068 273.812C241.981 273.45 242.776 272.841 243.364 272.054C243.952 271.264 244.31 270.331 244.4 269.352Z" fill="black"/>
<path d="M280.103 275.829H271.7L270.147 261.615L280.072 261.643L280.103 275.829Z" fill="#FC9D9D"/>
<path opacity="0.15" d="M278.001 273.434L277.799 269.062C277.784 268.784 277.672 268.515 277.481 268.31C277.29 268.105 277.033 267.972 276.755 267.938L270.711 267.019L270.569 265.811L280.034 265.838L280.062 275.906L278.001 273.434Z" fill="black"/>
<path d="M280.65 160.016V265.863H269.743L260.25 178.887C260.226 178.587 260.09 178.305 259.869 178.1C259.648 177.895 259.357 177.781 259.055 177.781C258.753 177.781 258.463 177.895 258.242 178.1C258.02 178.305 257.884 178.587 257.861 178.887L247.765 265.863H236.862L240.81 160.016H280.65Z" fill="#21252B"/>
<path d="M279.452 270.82L279.191 270.558C278.219 269.618 276.915 269.096 275.563 269.114C274.21 269.131 272.919 269.681 271.971 270.645L271.828 270.82C271.351 271.314 271.083 271.975 271.08 272.661V273.754C271.084 274.388 270.986 275.021 270.791 275.624L269.899 278.586C269.67 279.303 269.553 280.048 269.551 280.8V281.176C269.563 281.462 269.687 281.733 269.897 281.928C270.107 282.123 270.385 282.228 270.672 282.221H281.022C281.164 282.228 281.307 282.207 281.441 282.158C281.576 282.109 281.698 282.033 281.803 281.935C281.907 281.838 281.991 281.719 282.05 281.591C282.108 281.458 282.14 281.319 282.143 281.176V281.034C282.143 280.16 281.997 279.296 281.711 278.471L280.667 275.564C280.424 274.896 280.297 274.189 280.291 273.476L280.263 272.644C280.217 271.958 279.93 271.31 279.452 270.82Z" fill="#3F3F3F"/>
<path d="M280.936 265.861H269.312L269.082 263.473H280.918L280.936 265.861Z" fill="#21252B"/>
<path opacity="0.3" d="M280.936 265.862H276.062L275.972 263.48H280.908L280.936 265.862Z" fill="black"/>
<path opacity="0.3" d="M282.143 281.034V281.177C282.132 281.462 282.008 281.734 281.798 281.929C281.588 282.127 281.309 282.232 281.022 282.221H270.693C270.55 282.228 270.408 282.207 270.274 282.159C270.14 282.11 270.016 282.033 269.912 281.936C269.808 281.838 269.724 281.72 269.665 281.591C269.607 281.459 269.575 281.32 269.572 281.177V280.801C269.568 280.658 269.577 280.512 269.6 280.369H282.133L282.143 281.034Z" fill="black"/>
<path d="M258.478 99.5898L246.255 101.445C245.146 101.626 244.096 102.074 243.198 102.752C242.3 103.428 241.58 104.313 241.1 105.33C238.882 109.898 235.387 122.194 235.387 122.194L241.598 123.485L239.787 163.603H281.715V124.174L292.967 122.618L288.963 107.085C288.651 105.867 288.009 104.759 287.107 103.884C286.205 103.008 285.079 102.398 283.853 102.121L273.434 99.6838L258.478 99.5898Z" fill="#0F50A4"/>
<path d="M247.774 272.857V280.136C247.775 280.415 247.72 280.693 247.614 280.951C247.507 281.212 247.351 281.445 247.153 281.644C246.955 281.842 246.721 281.999 246.462 282.107C246.204 282.211 245.927 282.267 245.647 282.267H220.906C220.669 282.267 220.443 282.173 220.275 282.006C220.108 281.839 220.013 281.612 220.011 281.376C220.014 280.53 220.282 279.705 220.778 279.019C221.274 278.33 221.972 277.818 222.775 277.546L228.345 275.705L235.422 270.208C235.778 269.929 236.219 269.783 236.67 269.793C237.122 269.807 237.555 269.971 237.898 270.267L241.031 272.941C241.256 273.136 241.527 273.271 241.819 273.334C242.111 273.393 242.414 273.379 242.698 273.289L246.667 272.053C246.794 272.015 246.928 272.004 247.059 272.025C247.19 272.046 247.315 272.098 247.422 272.178C247.53 272.255 247.618 272.356 247.679 272.474C247.74 272.592 247.772 272.725 247.774 272.857Z" fill="#3F3F3F"/>
<path opacity="0.3" d="M245.636 282.288H220.895C220.659 282.288 220.432 282.194 220.265 282.027C220.097 281.86 220.002 281.634 220.001 281.397C219.995 281.094 220.035 280.795 220.119 280.506H247.736C247.653 281.004 247.397 281.456 247.013 281.783C246.628 282.107 246.141 282.288 245.636 282.288Z" fill="black"/>
<path d="M235.566 273.118C235.621 273.118 235.673 273.097 235.712 273.059C235.754 273.017 235.777 272.961 235.777 272.902C235.777 272.84 235.754 272.784 235.712 272.742L234.198 271.144C234.156 271.102 234.099 271.078 234.039 271.078C233.98 271.078 233.923 271.102 233.881 271.144C233.839 271.186 233.816 271.242 233.816 271.304C233.816 271.364 233.839 271.419 233.881 271.461L235.378 273.069C235.435 273.101 235.5 273.118 235.566 273.118Z" fill="white"/>
<path d="M234.389 274.045C234.442 274.045 234.493 274.024 234.532 273.989C234.574 273.947 234.597 273.891 234.597 273.832C234.597 273.773 234.574 273.714 234.532 273.672L233.035 272.06C232.993 272.018 232.936 271.994 232.877 271.994C232.817 271.994 232.76 272.018 232.718 272.06C232.676 272.102 232.653 272.158 232.653 272.22C232.653 272.28 232.676 272.335 232.718 272.377L234.215 273.989C234.269 274.02 234.328 274.038 234.389 274.045Z" fill="white"/>
<path d="M233.209 274.974C233.263 274.974 233.314 274.953 233.352 274.915C233.394 274.873 233.417 274.818 233.417 274.758C233.417 274.696 233.394 274.64 233.352 274.598L231.855 272.99C231.813 272.948 231.756 272.924 231.697 272.924C231.638 272.924 231.581 272.948 231.538 272.99C231.498 273.032 231.475 273.087 231.475 273.147C231.475 273.206 231.498 273.261 231.538 273.303L233.035 274.915C233.059 274.936 233.087 274.953 233.116 274.964C233.146 274.974 233.178 274.978 233.209 274.974Z" fill="white"/>
<path d="M273.717 273.268C273.758 273.272 273.798 273.261 273.832 273.241C274.425 272.959 275.074 272.812 275.731 272.812C276.388 272.812 277.037 272.959 277.63 273.241C277.66 273.258 277.695 273.272 277.73 273.275C277.765 273.279 277.8 273.275 277.835 273.265C277.869 273.258 277.9 273.241 277.928 273.216C277.955 273.195 277.977 273.167 277.993 273.136C278.009 273.101 278.018 273.066 278.02 273.032C278.022 272.997 278.016 272.962 278.004 272.927C277.991 272.896 277.972 272.865 277.947 272.84C277.923 272.816 277.893 272.795 277.86 272.781C277.193 272.454 276.46 272.283 275.717 272.283C274.975 272.283 274.242 272.454 273.575 272.781C273.515 272.812 273.47 272.868 273.449 272.931C273.427 272.997 273.429 273.067 273.456 273.129C273.484 273.171 273.523 273.209 273.569 273.234C273.615 273.258 273.665 273.268 273.717 273.268Z" fill="white"/>
<path d="M273.717 274.583C273.758 274.586 273.798 274.576 273.832 274.555C274.425 274.273 275.074 274.123 275.731 274.123C276.388 274.123 277.037 274.273 277.63 274.555C277.66 274.572 277.695 274.586 277.73 274.59C277.765 274.593 277.8 274.59 277.835 274.583C277.869 274.572 277.9 274.555 277.928 274.531C277.955 274.51 277.977 274.482 277.993 274.451C278.009 274.416 278.018 274.384 278.02 274.346C278.022 274.311 278.016 274.276 278.004 274.242C277.991 274.21 277.972 274.179 277.947 274.155C277.923 274.13 277.893 274.109 277.86 274.095C277.193 273.768 276.46 273.598 275.717 273.598C274.975 273.598 274.242 273.768 273.575 274.095C273.515 274.13 273.47 274.183 273.449 274.249C273.427 274.311 273.429 274.381 273.456 274.444C273.484 274.485 273.523 274.524 273.569 274.548C273.615 274.572 273.665 274.583 273.717 274.583Z" fill="white"/>
<path d="M273.717 275.874C273.758 275.877 273.798 275.867 273.832 275.846C274.425 275.564 275.074 275.418 275.731 275.418C276.388 275.418 277.037 275.564 277.63 275.846C277.66 275.863 277.695 275.877 277.73 275.881C277.765 275.884 277.8 275.881 277.835 275.874C277.869 275.863 277.9 275.846 277.928 275.822C277.955 275.801 277.977 275.773 277.993 275.742C278.009 275.707 278.018 275.675 278.02 275.637C278.022 275.602 278.016 275.568 278.004 275.533C277.991 275.501 277.972 275.47 277.947 275.446C277.923 275.421 277.893 275.4 277.86 275.386C277.193 275.059 276.46 274.889 275.717 274.889C274.975 274.889 274.242 275.059 273.575 275.386C273.515 275.421 273.47 275.474 273.449 275.536C273.427 275.602 273.429 275.672 273.456 275.735C273.484 275.776 273.523 275.815 273.569 275.839C273.615 275.863 273.665 275.874 273.717 275.874Z" fill="white"/>
<path opacity="0.3" d="M241.263 264.529L252.023 182.862C252.193 181.478 252.863 180.205 253.907 179.281C254.951 178.357 256.297 177.846 257.691 177.846H259.041C258.744 177.847 258.457 177.961 258.239 178.163C258.02 178.365 257.886 178.642 257.861 178.939L247.821 265.396L241.263 264.529Z" fill="black"/>
<path d="M248.053 265.862H236.46L236.634 263.48H248.282L248.053 265.862Z" fill="#21252B"/>
<path opacity="0.3" d="M248.053 265.861H241.16L241.417 263.473H248.282L248.053 265.861Z" fill="black"/>
<path opacity="0.3" d="M271.702 163.643L280.68 163.539V263.43L275.991 263.458L271.734 182.467L271.702 163.643Z" fill="black"/>
<path d="M267.555 86.5787L267.252 85.1862C266.535 75.6511 254.257 83.7624 254.257 83.7624C254.257 83.7624 254.664 87.1636 254.873 90.9059C254.873 91.7171 255.6 92.2984 255.75 92.9181V95.5812L255.489 100.713C255.489 100.713 257.477 103.407 262.002 103.435C262.002 103.435 266.831 103.459 269.567 99.8527L267.555 86.5787Z" fill="#FC9D9D"/>
<path d="M254.506 83.3192C253.969 83.2945 253.443 83.1643 252.957 82.9363C252.471 82.7083 252.034 82.3866 251.672 81.9898C251.31 81.5929 251.03 81.1288 250.848 80.6237C250.665 80.1186 250.584 79.5825 250.608 79.046C250.633 78.5096 250.763 77.9832 250.991 77.4969C251.219 77.0109 251.541 76.5743 251.938 76.2123C252.335 75.8506 252.799 75.5703 253.304 75.3876C253.809 75.2052 254.345 75.124 254.882 75.1488C255.004 75.1488 255.334 75.0722 255.292 75.194C254.366 78.7449 255.411 83.3262 254.506 83.3192Z" fill="#21252B"/>
<path d="M252.468 72.5546C252.468 72.5546 247.98 95.026 258.355 96.1644C267.343 97.1426 267.998 83.1376 267.998 83.1376L267.354 74.1002L260.391 71.5137L252.468 72.5546Z" fill="#FC9D9D"/>
<path d="M255.409 77.9401C256.453 76.4815 258.194 75.4092 260.053 75.458C262.141 75.5102 263.826 77.1777 263.617 79.6076L263.576 80.1472C263.558 80.3926 263.637 80.6349 263.794 80.8233C263.952 81.0116 264.177 81.1314 264.422 81.1568C264.881 81.1707 265.317 81.3656 265.634 81.6998C265.95 82.0337 266.121 82.4793 266.11 82.9392L266.061 84.5231C266.061 84.6154 266.098 84.7042 266.163 84.7693C266.229 84.8347 266.317 84.8713 266.409 84.8713C266.409 84.8713 266.872 84.9513 266.952 84.5649L267.193 82.8695L265.626 73.2926L257.689 71.1621L254.354 73.9471L255.409 77.9401Z" fill="#21252B"/>
<path opacity="0.15" d="M267.556 86.6083C267.556 86.6083 266.939 86.5666 266.442 85.752L267.664 87.8825L267.556 86.6083Z" fill="black"/>
<path d="M256.308 90.1348L260.44 89.1914C260.462 89.6659 260.32 90.1334 260.036 90.5146C259.752 90.8955 259.345 91.166 258.884 91.2802C256.913 91.7571 256.308 90.1348 256.308 90.1348Z" fill="white"/>
<path d="M260 84.8393C260.168 84.8407 260.332 84.7924 260.473 84.7001C260.614 84.6075 260.724 84.4756 260.789 84.3206C260.855 84.1657 260.872 83.9951 260.841 83.8298C260.809 83.6648 260.729 83.5126 260.611 83.3932C260.493 83.2735 260.342 83.1917 260.177 83.1579C260.012 83.1241 259.841 83.1401 259.686 83.2035C259.53 83.2672 259.397 83.3755 259.303 83.5147C259.208 83.6543 259.158 83.8183 259.157 83.9864C259.156 84.0978 259.177 84.2085 259.219 84.3116C259.261 84.415 259.323 84.5086 259.401 84.588C259.479 84.6674 259.573 84.7304 259.675 84.7736C259.778 84.8167 259.888 84.839 260 84.8393Z" fill="#21252B"/>
<path d="M259.609 83.9138C259.649 83.9138 259.688 83.8974 259.717 83.8689C259.746 83.84 259.762 83.801 259.762 83.7606C259.762 83.7199 259.746 83.6809 259.717 83.652C259.688 83.6234 259.649 83.6074 259.609 83.6074C259.568 83.6074 259.529 83.6234 259.5 83.652C259.472 83.6809 259.455 83.7199 259.455 83.7606C259.455 83.801 259.472 83.84 259.5 83.8689C259.529 83.8974 259.568 83.9138 259.609 83.9138Z" fill="white"/>
<path d="M253.399 85.0269C253.567 85.0283 253.732 84.9796 253.872 84.8873C254.013 84.7951 254.123 84.6631 254.188 84.5082C254.254 84.3533 254.272 84.1824 254.24 84.0174C254.208 83.8524 254.129 83.7002 254.01 83.5805C253.892 83.4611 253.741 83.3792 253.576 83.3455C253.412 83.3117 253.24 83.3274 253.085 83.3911C252.929 83.4548 252.796 83.5631 252.702 83.7023C252.608 83.8416 252.557 84.0059 252.556 84.174C252.556 84.2854 252.577 84.3958 252.618 84.4992C252.66 84.6022 252.722 84.6962 252.8 84.7756C252.879 84.8546 252.972 84.9176 253.075 84.9608C253.177 85.004 253.287 85.0266 253.399 85.0269Z" fill="#21252B"/>
<path d="M253.057 84.0585C253.098 84.0585 253.137 84.0425 253.165 84.0136C253.194 83.985 253.21 83.946 253.21 83.9053C253.21 83.8649 253.194 83.8259 253.165 83.797C253.137 83.7685 253.098 83.7521 253.057 83.7521C253.037 83.7511 253.016 83.7546 252.997 83.7619C252.978 83.7692 252.96 83.7803 252.945 83.7946C252.931 83.8092 252.919 83.8263 252.912 83.8454C252.904 83.8642 252.9 83.8848 252.901 83.9053C252.901 83.9259 252.905 83.946 252.913 83.9648C252.92 83.9836 252.932 84.0007 252.947 84.015C252.961 84.0292 252.979 84.0404 252.998 84.048C253.016 84.0554 253.037 84.0592 253.057 84.0585Z" fill="white"/>
<path opacity="0.2" d="M281.844 124.661C281.844 124.661 281.495 120.887 281.213 119.091C280.963 117.63 280.566 116.198 280.03 114.816C280.03 114.816 277.774 109.246 273.339 163.529L281.844 163.731V124.661Z" fill="black"/>
<g opacity="0.3">
<path opacity="0.3" d="M256.39 88.86L257.469 88.9053C257.536 88.9105 257.602 88.8896 257.653 88.8464C257.704 88.8033 257.735 88.7416 257.741 88.6755C257.747 88.609 257.726 88.5429 257.682 88.492C257.639 88.4412 257.578 88.4092 257.511 88.404L256.432 88.3587C256.16 88.3169 255.931 88.0872 255.969 87.8539C256.007 87.6207 256.244 87.3561 256.474 87.3944C256.536 87.3861 256.595 87.3603 256.644 87.3196C256.692 87.2788 256.727 87.2249 256.745 87.1646C256.784 87.0498 256.63 86.9314 256.516 86.8931C256.257 86.8848 256.006 86.9753 255.812 87.1459C255.618 87.3164 255.496 87.5549 255.471 87.8122C255.461 87.9417 255.476 88.0719 255.517 88.1951C255.558 88.3187 255.624 88.4325 255.709 88.5303C255.795 88.6278 255.899 88.7075 256.016 88.7643C256.133 88.8207 256.26 88.8534 256.39 88.86Z" fill="black"/>
</g>
<path d="M250.987 82.0409L254.615 81.9469H255.116L258.28 81.8877H258.319L262.395 81.7972C262.713 81.7896 263.02 81.9079 263.25 82.1265C263.481 82.3452 263.615 82.646 263.624 82.9634L263.659 83.8894C263.68 84.7545 263.356 85.5925 262.759 86.2188C262.162 86.845 261.341 87.2088 260.475 87.2297C259.61 87.2502 258.772 86.9265 258.146 86.3295C257.519 85.7324 257.156 84.9112 257.135 84.0461L257.1 83.1201C257.08 82.8534 257.165 82.5899 257.337 82.3856L256.063 82.4169C256.244 82.6178 256.34 82.8809 256.331 83.1514L256.362 84.0809C256.383 84.515 256.316 84.9488 256.166 85.3565C256.016 85.7645 255.786 86.1383 255.489 86.4562C255.193 86.774 254.836 87.0295 254.44 87.2074C254.043 87.3853 253.615 87.4821 253.18 87.4925C252.746 87.5026 252.314 87.4261 251.909 87.267C251.505 87.1075 251.137 86.8694 250.825 86.5658C250.515 86.2623 250.267 85.8995 250.099 85.4992C249.93 85.0988 249.842 84.6686 249.842 84.2341L249.807 83.3081C249.806 82.9864 249.928 82.6766 250.147 82.4413C250.366 82.2059 250.667 82.0628 250.987 82.0409ZM257.522 83.1201L257.556 84.0461C257.564 84.4116 257.644 84.7723 257.792 85.1072C257.939 85.4421 258.151 85.7446 258.415 85.9973C258.679 86.2504 258.991 86.4489 259.332 86.5815C259.673 86.7138 260.037 86.7782 260.402 86.7702C260.768 86.7622 261.129 86.6821 261.463 86.5349C261.798 86.3873 262.101 86.1756 262.354 85.9114C262.607 85.6471 262.805 85.3356 262.938 84.9944C263.07 84.6536 263.134 84.2898 263.126 83.9243L263.095 82.9982C263.086 82.8103 263.005 82.6331 262.869 82.5036C262.733 82.3737 262.552 82.3017 262.364 82.302L258.235 82.396C258.052 82.4183 257.882 82.5022 257.752 82.6334C257.623 82.765 257.541 82.9363 257.522 83.1201ZM250.301 84.2376C250.309 84.6031 250.39 84.9638 250.537 85.2987C250.684 85.6336 250.896 85.9361 251.16 86.1888C251.425 86.4419 251.736 86.6403 252.077 86.773C252.418 86.9053 252.782 86.9697 253.147 86.9617C253.513 86.9536 253.874 86.8736 254.208 86.7263C254.543 86.5787 254.846 86.3671 255.099 86.1028C255.352 85.8386 255.55 85.527 255.683 85.1859C255.815 84.8451 255.879 84.4813 255.871 84.1157L255.84 83.1897C255.831 83.0017 255.75 82.8245 255.614 82.695C255.478 82.5652 255.297 82.4931 255.109 82.4935H254.608L250.98 82.5909C250.793 82.5979 250.615 82.678 250.485 82.8137C250.355 82.9495 250.283 83.1305 250.284 83.3185L250.301 84.2376Z" fill="#21252B"/>
<path d="M270.053 76.8925C269.757 74.4557 268.493 72.6419 266.373 72.165C265.478 71.9829 264.552 72.0174 263.672 72.266C263.594 72.29 263.511 72.2983 263.429 72.2896C263.347 72.2813 263.268 72.2562 263.196 72.2162C263.124 72.1761 263.061 72.1218 263.01 72.0567C262.96 71.992 262.923 71.9171 262.903 71.8378C262.707 71.035 262.25 70.3206 261.603 69.8068C260.956 69.2933 260.157 69.0092 259.331 69.0005C258.751 68.9904 258.177 69.121 257.658 69.3803C257.14 69.6397 256.691 70.0205 256.351 70.4905C256.306 70.5675 256.244 70.6333 256.17 70.6834C256.096 70.7332 256.012 70.7659 255.924 70.7788C255.836 70.792 255.746 70.785 255.66 70.7586C255.576 70.7321 255.497 70.6869 255.432 70.6263C255.432 70.6263 252.971 68.6455 249.719 70.6263C248.621 71.3316 247.823 72.4198 247.481 73.6797C247.139 74.9396 247.276 76.2816 247.867 77.4461C249.166 80.0396 252.556 80.8298 254.652 78.8734C255.537 78.009 256.055 76.8368 256.097 75.601C256.203 74.7457 256.13 73.8778 255.881 73.0527H256.96C258.234 72.9831 260.243 72.7638 262.133 73.0527C262.091 73.091 262.053 73.091 262.015 73.1293L265.367 74.2677C265.367 74.2677 266.359 83.1483 266.899 83.0752C269.273 82.5739 270.335 79.1066 270.053 76.8925Z" fill="#21252B"/>
<path d="M267.192 82.1182C267.239 81.8926 267.335 81.6803 267.473 81.4958C267.611 81.3109 267.788 81.1588 267.991 81.0498C268.194 80.9405 268.418 80.8772 268.648 80.8639C268.878 80.8507 269.108 80.888 269.322 80.9729C271.324 81.5647 270.955 85.6134 268.278 86.5255C266.614 86.8736 266.854 85.8606 266.976 84.5098L267.192 82.1182Z" fill="#FC9D9D"/>
<path opacity="0.15" d="M269.547 82.0797C269.407 81.9875 269.247 81.9283 269.081 81.9071C268.915 81.8862 268.745 81.9032 268.587 81.9579C268.439 82.0178 268.304 82.1065 268.19 82.219C268.077 82.3314 267.987 82.4648 267.925 82.6124C267.753 82.9852 267.697 83.4012 267.765 83.8064V84.1546C267.78 84.2005 267.811 84.2395 267.853 84.2639C267.895 84.2882 267.944 84.2966 267.992 84.2872C268.039 84.2778 268.082 84.2513 268.111 84.2127C268.141 84.1741 268.155 84.126 268.151 84.078V83.7298C268.126 83.3908 268.167 83.0503 268.273 82.7272C268.362 82.5326 268.511 82.3715 268.698 82.2677C268.908 82.2221 269.126 82.2503 269.318 82.3478C269.364 82.3652 269.415 82.3676 269.464 82.3544C269.512 82.3415 269.554 82.3133 269.586 82.2747C269.662 82.2747 269.624 82.1563 269.547 82.0797Z" fill="black"/>
<path opacity="0.15" d="M265.03 93.9587C263.843 95.4225 262.145 96.3816 260.278 96.6427C258.896 97.592 257.248 98.0794 255.572 98.0352L255.714 95.2502L256.094 95.466C257.518 96.1992 259.151 96.4189 260.718 96.0885C262.285 95.7581 263.69 94.8976 264.696 93.6523C264.738 93.5653 264.908 93.5688 264.992 93.6105C265.028 93.66 265.051 93.7181 265.058 93.7794C265.065 93.8406 265.055 93.9023 265.03 93.9587Z" fill="black"/>
<path opacity="0.2" d="M241.599 123.493L243.283 111.977C243.283 111.977 241.595 111.25 239.851 123.117L241.599 123.493Z" fill="black"/>
<path d="M242.997 128.039H251.902C251.969 128.04 252.036 128.027 252.098 128.002C252.16 127.976 252.216 127.939 252.264 127.892C252.312 127.844 252.349 127.788 252.375 127.726C252.401 127.664 252.414 127.598 252.414 127.531L249.19 111.096C249.19 111.029 249.177 110.963 249.151 110.901C249.126 110.839 249.088 110.783 249.04 110.736C248.993 110.688 248.936 110.651 248.874 110.626C248.812 110.6 248.746 110.588 248.679 110.588H239.767C239.632 110.588 239.503 110.642 239.407 110.737C239.312 110.832 239.258 110.961 239.258 111.096L242.482 127.531C242.482 127.598 242.496 127.665 242.521 127.727C242.547 127.789 242.585 127.846 242.633 127.893C242.681 127.94 242.738 127.977 242.8 128.002C242.863 128.028 242.93 128.04 242.997 128.039Z" fill="#21252B"/>
<path opacity="0.3" d="M242.997 128.039H251.902C251.969 128.04 252.036 128.027 252.098 128.002C252.16 127.976 252.216 127.939 252.264 127.892C252.312 127.844 252.349 127.788 252.375 127.726C252.401 127.664 252.414 127.598 252.414 127.531L249.19 111.096C249.19 111.029 249.177 110.963 249.151 110.901C249.126 110.839 249.088 110.783 249.04 110.736C248.993 110.688 248.936 110.651 248.874 110.626C248.812 110.6 248.746 110.588 248.679 110.588H239.767C239.632 110.588 239.503 110.642 239.407 110.737C239.312 110.832 239.258 110.961 239.258 111.096L242.482 127.531C242.482 127.598 242.496 127.665 242.521 127.727C242.547 127.789 242.585 127.846 242.633 127.893C242.681 127.94 242.738 127.977 242.8 128.002C242.863 128.028 242.93 128.04 242.997 128.039Z" fill="black"/>
<path d="M243.093 128.065H251.392C251.459 128.065 251.525 128.052 251.587 128.026C251.649 128.001 251.705 127.963 251.752 127.915C251.8 127.868 251.837 127.811 251.862 127.749C251.888 127.687 251.9 127.621 251.9 127.554L248.677 111.627C248.677 111.492 248.623 111.362 248.528 111.266C248.432 111.17 248.303 111.116 248.168 111.115H239.869C239.802 111.115 239.735 111.128 239.673 111.154C239.612 111.18 239.555 111.218 239.508 111.265C239.461 111.313 239.424 111.369 239.398 111.431C239.373 111.493 239.36 111.56 239.361 111.627L242.584 127.554C242.584 127.621 242.597 127.687 242.622 127.749C242.647 127.811 242.685 127.868 242.732 127.915C242.779 127.963 242.835 128.001 242.897 128.026C242.959 128.052 243.025 128.065 243.093 128.065Z" fill="#21252B"/>
<path d="M243.861 113.88C243.787 114.018 243.756 114.176 243.772 114.332C243.789 114.488 243.852 114.635 243.954 114.755C244.057 114.874 244.193 114.959 244.344 115C244.496 115.04 244.657 115.034 244.805 114.981C244.953 114.928 245.081 114.832 245.173 114.705C245.265 114.578 245.316 114.426 245.32 114.269C245.324 114.112 245.28 113.957 245.194 113.825C245.109 113.694 244.985 113.591 244.84 113.532C244.664 113.448 244.462 113.438 244.279 113.503C244.095 113.569 243.945 113.704 243.861 113.88Z" fill="#F4F4F4"/>
<path d="M237.577 125.342L239.917 118.38L240.401 116.354L240.749 118.442L241.657 119.302C242.214 119.34 245.901 118.16 246.879 119.466C247.857 120.771 249.514 126.679 249.514 126.679C249.514 126.679 243.617 129.711 242.552 129.812C242.552 129.812 242.204 134.338 242.005 135.963C241.807 137.589 240.637 142.184 238.381 142.111C233.964 141.969 233.32 138.585 233.508 135.901C233.629 134.338 234.038 132.811 234.712 131.396L237.577 125.342Z" fill="#FC9D9D"/>
<path opacity="0.15" d="M242.9 118.244C242.966 118.321 243.018 118.384 243.05 118.425C244.042 119.731 249.514 126.676 249.514 126.676C249.514 126.676 247.015 127.96 244.989 128.886L244.926 128.918L244.864 128.946C244.125 129.313 243.351 129.603 242.552 129.809C242.552 129.809 242.204 134.335 242.005 135.96C241.807 137.586 240.637 142.181 238.381 142.108C234.921 141.997 233.776 139.894 233.532 137.697C241.511 145.064 241.473 129.478 241.473 129.478L243.802 127.668L240.258 122.568C240.08 122.36 239.953 122.113 239.886 121.847C239.818 121.582 239.814 121.304 239.871 121.036C239.889 120.965 239.911 120.896 239.938 120.827C240.13 120.316 240.197 119.766 240.132 119.223C240.07 118.683 239.917 117.868 240.387 117.402C240.477 117.402 240.171 116.413 240.387 116.357L240.735 118.446L241.083 118.794C241.083 118.794 241.932 117.694 242.9 118.244Z" fill="black"/>
<path d="M241.111 121.841C240.147 120.943 241.331 120.351 241.331 120.351C240.443 119.167 241.923 118.576 241.923 118.576C241.834 118.459 241.778 118.32 241.762 118.175C241.745 118.029 241.768 117.881 241.829 117.747C241.87 117.622 241.941 117.51 242.036 117.42C242.131 117.33 242.247 117.264 242.374 117.23C242.5 117.195 242.634 117.193 242.761 117.222C242.889 117.252 243.008 117.313 243.106 117.399L245.769 118.878L251.099 120.055L250.497 116.699L258.852 122.965L281.731 130.398V124.295L291.924 122.617L292.968 137.855C292.994 138.843 292.77 139.821 292.317 140.699C291.864 141.577 291.196 142.327 290.376 142.878C289.555 143.429 288.609 143.764 287.625 143.852C286.641 143.939 285.65 143.777 284.745 143.379L255.673 129.9L246.953 127.174L242.204 124.233C241.949 124.083 241.756 123.846 241.661 123.564C241.414 122.757 242.5 122.868 242.5 122.868L241.634 122.294C241.48 122.144 241.285 121.998 241.111 121.841Z" fill="#FC9D9D"/>
<path opacity="0.15" d="M242.068 118.713L245.031 120.502L248.582 121.686" stroke="black" stroke-width="0.85" stroke-miterlimit="10" stroke-linecap="round"/>
<path opacity="0.15" d="M241.479 120.213L244.142 121.988L247.989 123.468" stroke="black" stroke-width="0.85" stroke-miterlimit="10" stroke-linecap="round"/>
<path opacity="0.15" d="M242.515 122.871L244.44 124.055L247.399 125.534" stroke="black" stroke-width="0.85" stroke-miterlimit="10" stroke-linecap="round"/>
<path opacity="0.15" d="M246.951 127.162L248.817 127.576C251.122 128.089 253.475 128.349 255.836 128.349L283.884 139.594C291.442 142.184 292.653 138.588 292.935 136.461L292.967 137.742C293.017 139.205 292.533 140.637 291.605 141.769C290.791 142.747 289.682 143.432 288.444 143.724C287.207 144.015 285.908 143.896 284.744 143.385L255.672 129.905L246.951 127.18" fill="black"/>
<path opacity="0.15" d="M281.734 130.323C281.734 130.323 282.552 130.64 284.195 131.127C284.217 131.135 284.241 131.133 284.262 131.124C284.284 131.115 284.301 131.098 284.31 131.077C284.319 131.055 284.321 131.031 284.314 131.009C284.307 130.987 284.292 130.968 284.271 130.957L281.73 129.355L281.734 130.323Z" fill="black"/>
<path d="M196.659 223.396L129.599 223.34C125.726 223.337 122.013 221.797 119.275 219.057C116.538 216.318 115 212.603 115 208.731L115.036 40.6039C115.036 38.6852 115.414 36.7853 116.149 35.0128C116.883 33.2403 117.96 31.63 119.317 30.2737C120.674 28.9175 122.285 27.842 124.058 27.1087C125.831 26.3754 127.731 25.9987 129.65 26L196.711 26.0411C198.629 26.0418 200.527 26.4202 202.299 27.1547C204.071 27.8893 205.68 28.9655 207.036 30.3221C208.391 31.6787 209.466 33.289 210.2 35.061C210.933 36.8331 211.31 38.7323 211.309 40.6501L211.279 208.777C211.28 210.697 210.903 212.599 210.169 214.373C209.434 216.147 208.358 217.759 207 219.117C205.642 220.475 204.03 221.552 202.256 222.286C200.481 223.02 198.58 223.397 196.659 223.396Z" fill="black"/>
<path d="M197.51 29.0302H184.063C183.625 29.0399 183.193 29.1363 182.792 29.3138C182.391 29.4914 182.029 29.7466 181.726 30.065C181.423 30.3833 181.185 30.7585 181.027 31.1692C180.868 31.5798 180.791 32.0178 180.801 32.4582V34.909C180.811 35.3494 180.735 35.7875 180.576 36.1981C180.417 36.6087 180.18 36.9839 179.877 37.3023C179.574 37.6206 179.212 37.8758 178.811 38.0534C178.409 38.2309 177.977 38.3273 177.539 38.337H151.326C150.441 38.3146 149.6 37.941 148.988 37.2977C148.376 36.6544 148.042 35.7937 148.059 34.9037V32.4529C148.069 32.012 147.993 31.5734 147.835 31.1622C147.677 30.7509 147.439 30.3751 147.136 30.0562C146.833 29.7373 146.471 29.4816 146.069 29.3037C145.668 29.1258 145.235 29.0292 144.797 29.0195H128.29C126.9 29.0188 125.524 29.2933 124.24 29.8272C122.956 30.3612 121.79 31.1442 120.807 32.1314C119.824 33.1187 119.044 34.2908 118.513 35.581C117.981 36.8712 117.707 38.254 117.707 39.6506L117.67 210.228C117.669 211.624 117.942 213.007 118.473 214.297C119.005 215.588 119.784 216.761 120.766 217.748C121.748 218.736 122.915 219.52 124.198 220.054C125.482 220.589 126.858 220.864 128.247 220.864L197.467 220.907C198.857 220.907 200.234 220.633 201.518 220.099C202.802 219.565 203.969 218.782 204.952 217.795C205.936 216.808 206.716 215.636 207.248 214.346C207.781 213.055 208.055 211.672 208.056 210.276L208.088 39.6933C208.09 38.2949 207.819 36.9097 207.289 35.6168C206.759 34.3239 205.98 33.1487 204.998 32.1584C204.015 31.1681 202.848 30.3821 201.564 29.8454C200.279 29.3086 198.901 29.0316 197.51 29.0302Z" fill="#CFDCED"/>
<path d="M158.231 202.799C158.234 203.055 158.161 203.305 158.022 203.519C157.882 203.733 157.682 203.901 157.447 204.001C157.212 204.101 156.953 204.129 156.702 204.082C156.451 204.034 156.22 203.913 156.037 203.734C155.855 203.555 155.731 203.325 155.679 203.075C155.628 202.825 155.651 202.565 155.748 202.329C155.844 202.092 156.008 201.889 156.22 201.746C156.432 201.603 156.681 201.526 156.937 201.525C157.105 201.524 157.273 201.556 157.429 201.619C157.585 201.683 157.728 201.776 157.848 201.894C157.968 202.013 158.064 202.153 158.129 202.309C158.195 202.464 158.23 202.631 158.231 202.799Z" fill="#263238"/>
<path d="M165.423 202.743C165.425 202.997 165.352 203.246 165.212 203.458C165.073 203.67 164.874 203.836 164.64 203.935C164.406 204.034 164.148 204.062 163.898 204.014C163.649 203.967 163.419 203.846 163.238 203.668C163.057 203.49 162.933 203.262 162.881 203.014C162.83 202.765 162.853 202.506 162.948 202.271C163.044 202.036 163.207 201.834 163.417 201.691C163.627 201.548 163.874 201.471 164.128 201.469C164.468 201.469 164.794 201.602 165.037 201.841C165.279 202.079 165.418 202.403 165.423 202.743Z" fill="#263238"/>
<path d="M172.258 203.584C172.754 203.077 172.744 202.264 172.237 201.768C171.729 201.273 170.916 201.283 170.421 201.79C169.925 202.298 169.935 203.111 170.442 203.606C170.95 204.101 171.763 204.092 172.258 203.584Z" fill="#263238"/>
<path d="M187.092 103.537C196.919 90.9246 194.662 72.7333 182.049 62.9057C169.437 53.0781 151.245 55.3357 141.418 67.9482C131.59 80.5607 133.848 98.752 146.46 108.58C159.073 118.407 177.264 116.15 187.092 103.537Z" fill="#0F50A4" stroke="#0F50A4" stroke-linecap="round" stroke-linejoin="round"/>
<path d="M148.524 98.8636C148.618 99.489 148.94 100.057 149.429 100.459C149.918 100.861 150.538 101.067 151.17 101.038L161.073 100.758C161.043 100.961 161.03 101.167 161.036 101.373C161.051 101.891 161.168 102.401 161.381 102.873C161.593 103.345 161.897 103.771 162.274 104.127C162.651 104.482 163.094 104.759 163.579 104.943C164.063 105.127 164.579 105.213 165.096 105.198C165.614 105.183 166.124 105.065 166.596 104.853C167.069 104.64 167.495 104.337 167.85 103.96C168.205 103.583 168.482 103.139 168.666 102.655C168.85 102.171 168.937 101.655 168.921 101.137C168.912 100.931 168.887 100.726 168.848 100.523L178.742 100.24C179.385 100.235 180.002 99.9878 180.472 99.5488C180.942 99.1098 181.23 98.5105 181.279 97.8695C181.307 97.5211 181.261 97.1708 181.144 96.8415C181.027 96.5123 180.841 96.2114 180.6 95.9588C180.358 95.7061 180.066 95.5074 179.743 95.3755C179.419 95.2436 179.071 95.1816 178.722 95.1936L178.069 94.5209C176.647 93.0827 175.824 91.1589 175.766 89.1376L175.579 82.6259C175.502 79.9443 174.457 77.3812 172.637 75.4105C170.817 73.4398 168.345 72.1948 165.678 71.9058C166.239 71.5539 166.669 71.0271 166.901 70.4065C167.133 69.786 167.155 69.1063 166.962 68.4723C166.77 67.8383 166.374 67.2854 165.836 66.8988C165.298 66.5123 164.647 66.3136 163.985 66.3334C163.323 66.3533 162.685 66.5906 162.171 67.0087C161.657 67.4268 161.295 68.0024 161.141 68.6468C160.987 69.2911 161.049 69.9683 161.318 70.5738C161.587 71.1794 162.047 71.6795 162.629 71.9972C159.961 72.4261 157.542 73.8133 155.823 75.8986C154.105 77.984 153.206 80.6244 153.296 83.3249L153.484 89.9076C153.523 91.059 153.311 92.2051 152.863 93.2665C152.415 94.328 151.743 95.2796 150.891 96.0556C150.546 96.0697 150.207 96.1555 149.897 96.3075C149.587 96.4595 149.312 96.6743 149.089 96.9384C148.867 97.2025 148.701 97.5101 148.604 97.8415C148.507 98.1729 148.479 98.521 148.524 98.8636ZM165.814 69.3799C165.824 69.7273 165.731 70.0698 165.546 70.3642C165.362 70.6586 165.094 70.8917 164.777 71.0339C164.46 71.1761 164.107 71.221 163.765 71.1631C163.422 71.1052 163.104 70.947 162.851 70.7085C162.599 70.47 162.422 70.1619 162.345 69.8231C162.267 69.4844 162.291 69.1302 162.415 68.8054C162.538 68.4805 162.755 68.1996 163.039 67.9981C163.322 67.7966 163.658 67.6836 164.006 67.6733C164.237 67.6652 164.467 67.703 164.684 67.7847C164.9 67.8663 165.098 67.99 165.267 68.1488C165.435 68.3075 165.57 68.4981 165.664 68.7094C165.758 68.9207 165.809 69.1486 165.814 69.3799Z" fill="white" stroke="#ED1E26" stroke-linecap="round" stroke-linejoin="round"/>
<path d="M167.136 100.234L162.765 100.367" stroke="#ED1E26" stroke-linecap="round" stroke-linejoin="round"/>
<path d="M174.826 95.2827L154.801 95.868" stroke="#ED1E26" stroke-linecap="round" stroke-linejoin="round"/>
<path d="M189.933 179.05L137.627 179.182C136.13 179.191 134.646 178.904 133.26 178.338C131.874 177.772 130.614 176.939 129.55 175.885C128.487 174.832 127.641 173.579 127.062 172.199C126.483 170.819 126.182 169.338 126.176 167.841C126.168 166.343 126.456 164.859 127.022 163.472C127.589 162.086 128.424 160.825 129.478 159.762C130.533 158.699 131.787 157.854 133.168 157.276C134.55 156.697 136.032 156.398 137.53 156.393L189.836 156.26C192.845 156.26 195.733 157.451 197.867 159.573C200.001 161.695 201.209 164.576 201.225 167.586C201.245 170.603 200.067 173.504 197.95 175.653C195.833 177.803 192.95 179.024 189.933 179.05Z" fill="#0F50A4"/>
<path d="M135.64 170.761V163.064H137.086L140.803 168.485V163.064H142.249V170.761H140.803L137.086 165.351V170.761H135.64Z" fill="white"/>
<path d="M145.669 170.893C145.127 170.893 144.637 170.772 144.2 170.53C143.771 170.288 143.428 169.955 143.172 169.53C142.924 169.097 142.799 168.599 142.799 168.034C142.799 167.47 142.927 166.975 143.184 166.55C143.44 166.117 143.782 165.78 144.212 165.538C144.649 165.296 145.138 165.175 145.68 165.175C146.215 165.175 146.697 165.296 147.127 165.538C147.563 165.78 147.906 166.117 148.155 166.55C148.411 166.975 148.539 167.47 148.539 168.034C148.539 168.599 148.411 169.097 148.155 169.53C147.906 169.955 147.563 170.288 147.127 170.53C146.69 170.772 146.204 170.893 145.669 170.893ZM145.669 169.673C146.046 169.673 146.373 169.537 146.652 169.266C146.931 168.987 147.07 168.577 147.07 168.034C147.07 167.492 146.931 167.085 146.652 166.813C146.373 166.535 146.05 166.396 145.68 166.396C145.296 166.396 144.965 166.535 144.686 166.813C144.415 167.085 144.279 167.492 144.279 168.034C144.279 168.577 144.415 168.987 144.686 169.266C144.965 169.537 145.293 169.673 145.669 169.673Z" fill="white"/>
<path d="M151.34 170.761C150.752 170.761 150.282 170.622 149.928 170.343C149.574 170.065 149.397 169.57 149.397 168.859V166.484H148.436V165.307H149.397L149.566 163.844H150.843V165.307H152.357V166.484H150.843V168.87C150.843 169.134 150.899 169.317 151.012 169.42C151.133 169.515 151.336 169.563 151.622 169.563H152.323V170.761H151.34Z" fill="white"/>
<path d="M153.61 164.46C153.346 164.46 153.128 164.383 152.954 164.229C152.789 164.075 152.706 163.881 152.706 163.646C152.706 163.412 152.789 163.221 152.954 163.075C153.128 162.921 153.346 162.844 153.61 162.844C153.873 162.844 154.088 162.921 154.254 163.075C154.427 163.221 154.514 163.412 154.514 163.646C154.514 163.881 154.427 164.075 154.254 164.229C154.088 164.383 153.873 164.46 153.61 164.46ZM152.887 170.761V165.307H154.333V170.761H152.887Z" fill="white"/>
<path d="M155.334 170.761V166.484H154.566V165.307H155.334V164.669C155.334 164.009 155.503 163.54 155.842 163.262C156.189 162.983 156.656 162.844 157.243 162.844H157.865V164.042H157.469C157.221 164.042 157.044 164.09 156.938 164.185C156.833 164.281 156.78 164.442 156.78 164.669V165.307H160.395V170.761H158.949V166.484H156.78V170.761H155.334ZM159.684 164.526C159.42 164.526 159.202 164.449 159.028 164.295C158.863 164.141 158.78 163.947 158.78 163.712C158.78 163.478 158.863 163.287 159.028 163.141C159.202 162.987 159.42 162.91 159.684 162.91C159.947 162.91 160.162 162.987 160.328 163.141C160.501 163.287 160.587 163.478 160.587 163.712C160.587 163.947 160.501 164.141 160.328 164.295C160.162 164.449 159.947 164.526 159.684 164.526Z" fill="white"/>
<path d="M163.903 170.893C163.33 170.893 162.826 170.772 162.389 170.53C161.952 170.288 161.606 169.951 161.349 169.519C161.101 169.086 160.977 168.591 160.977 168.034C160.977 167.477 161.101 166.982 161.349 166.55C161.606 166.117 161.952 165.78 162.389 165.538C162.826 165.296 163.33 165.175 163.903 165.175C164.618 165.175 165.221 165.358 165.711 165.725C166.2 166.084 166.513 166.583 166.648 167.22H165.123C165.048 166.956 164.897 166.751 164.671 166.605C164.453 166.451 164.193 166.374 163.892 166.374C163.492 166.374 163.153 166.52 162.875 166.813C162.596 167.107 162.457 167.514 162.457 168.034C162.457 168.555 162.596 168.961 162.875 169.255C163.153 169.548 163.492 169.695 163.892 169.695C164.193 169.695 164.453 169.621 164.671 169.475C164.897 169.328 165.048 169.119 165.123 168.848H166.648C166.513 169.464 166.2 169.959 165.711 170.332C165.221 170.706 164.618 170.893 163.903 170.893Z" fill="white"/>
<path d="M169.096 170.893C168.614 170.893 168.218 170.82 167.909 170.673C167.601 170.519 167.371 170.318 167.22 170.068C167.07 169.819 166.994 169.544 166.994 169.244C166.994 168.738 167.198 168.327 167.604 168.012C168.011 167.697 168.621 167.539 169.435 167.539H170.858V167.407C170.858 167.033 170.749 166.759 170.531 166.583C170.312 166.407 170.041 166.319 169.717 166.319C169.423 166.319 169.167 166.388 168.949 166.528C168.73 166.66 168.595 166.857 168.542 167.121H167.13C167.167 166.726 167.303 166.381 167.537 166.088C167.778 165.794 168.086 165.571 168.463 165.417C168.84 165.256 169.261 165.175 169.728 165.175C170.527 165.175 171.156 165.369 171.615 165.758C172.075 166.146 172.304 166.696 172.304 167.407V170.761H171.073L170.937 169.882C170.772 170.175 170.538 170.417 170.237 170.607C169.943 170.798 169.563 170.893 169.096 170.893ZM169.423 169.794C169.838 169.794 170.158 169.662 170.384 169.398C170.617 169.134 170.764 168.808 170.824 168.419H169.593C169.209 168.419 168.934 168.489 168.768 168.628C168.602 168.76 168.519 168.925 168.519 169.123C168.519 169.335 168.602 169.5 168.768 169.618C168.934 169.735 169.152 169.794 169.423 169.794Z" fill="white"/>
<path d="M175.336 170.761C174.748 170.761 174.278 170.622 173.924 170.343C173.57 170.065 173.393 169.57 173.393 168.859V166.484H172.432V165.307H173.393L173.562 163.844H174.839V165.307H176.353V166.484H174.839V168.87C174.839 169.134 174.895 169.317 175.008 169.42C175.129 169.515 175.332 169.563 175.618 169.563H176.319V170.761H175.336Z" fill="white"/>
<path d="M177.606 164.46C177.342 164.46 177.124 164.383 176.95 164.229C176.785 164.075 176.702 163.881 176.702 163.646C176.702 163.412 176.785 163.221 176.95 163.075C177.124 162.921 177.342 162.844 177.606 162.844C177.869 162.844 178.084 162.921 178.25 163.075C178.423 163.221 178.509 163.412 178.509 163.646C178.509 163.881 178.423 164.075 178.25 164.229C178.084 164.383 177.869 164.46 177.606 164.46ZM176.883 170.761V165.307H178.329V170.761H176.883Z" fill="white"/>
<path d="M181.759 170.893C181.217 170.893 180.727 170.772 180.29 170.53C179.861 170.288 179.518 169.955 179.262 169.53C179.013 169.097 178.889 168.599 178.889 168.034C178.889 167.47 179.017 166.975 179.273 166.55C179.529 166.117 179.872 165.78 180.301 165.538C180.738 165.296 181.228 165.175 181.77 165.175C182.305 165.175 182.787 165.296 183.216 165.538C183.653 165.78 183.996 166.117 184.244 166.55C184.501 166.975 184.629 167.47 184.629 168.034C184.629 168.599 184.501 169.097 184.244 169.53C183.996 169.955 183.653 170.288 183.216 170.53C182.779 170.772 182.294 170.893 181.759 170.893ZM181.759 169.673C182.135 169.673 182.463 169.537 182.742 169.266C183.021 168.987 183.16 168.577 183.16 168.034C183.16 167.492 183.021 167.085 182.742 166.813C182.463 166.535 182.139 166.396 181.77 166.396C181.386 166.396 181.055 166.535 180.776 166.813C180.505 167.085 180.369 167.492 180.369 168.034C180.369 168.577 180.505 168.987 180.776 169.266C181.055 169.537 181.382 169.673 181.759 169.673Z" fill="white"/>
<path d="M185.153 170.761V165.307H186.43L186.543 166.231C186.716 165.908 186.965 165.652 187.289 165.461C187.62 165.27 188.008 165.175 188.452 165.175C189.145 165.175 189.684 165.388 190.068 165.813C190.452 166.238 190.644 166.861 190.644 167.682V170.761H189.198V167.814C189.198 167.345 189.1 166.986 188.904 166.737C188.709 166.487 188.403 166.363 187.989 166.363C187.582 166.363 187.247 166.502 186.984 166.781C186.728 167.059 186.6 167.448 186.6 167.946V170.761H185.153Z" fill="white"/>
<path d="M81.0634 128.599L85.7603 118.568L104.22 130.763L88.9878 157.751L77.1077 151.007L81.0634 128.599Z" fill="white"/>
<path d="M65.8509 215.35C65.8509 215.35 62.8662 223.636 62.4266 227.67C61.9871 231.704 63.3319 248.695 63.0433 253.378C62.7546 258.062 60.2225 272.042 60.2225 272.042C60.2225 272.042 72.6405 281.068 76.583 278.162C76.583 278.162 67.8321 271.077 66.9465 268.256L69.7803 249.108L72.5946 226.463C72.5946 226.463 73.3096 221.733 74.3067 219.3C75.3038 216.866 75.1529 211.703 75.1529 211.703L65.8509 215.35Z" fill="white"/>
<path d="M66.113 214.624C66.113 214.624 62.8855 223.349 62.1311 229.613C61.3767 235.878 63.6465 250.087 62.8986 256.929C62.1508 263.771 61.3833 267.556 60.0582 271.157L60.7142 281.726H62.4132L63.0692 275.73C63.0692 275.73 65.7325 274.621 67.3463 278.459C68.96 282.296 74.923 282.801 77.7504 280.578C77.7504 280.578 77.7504 278.859 75.6249 277.344C73.4995 275.828 67.9498 271.092 66.9396 268.265C66.9396 268.265 69.9702 248.585 70.6787 242.208C71.3872 235.832 72.4958 224.241 73.9128 220.502C75.3297 216.762 75.3232 211.416 75.3232 211.416" stroke="#263238" stroke-linecap="round" stroke-linejoin="round"/>
<path d="M60.7081 269.174C60.7081 269.174 69.0327 278.227 76.019 278.168" stroke="#263238" stroke-linecap="round" stroke-linejoin="round"/>
<path d="M76.5827 278.168C75.428 278.296 74.2593 278.15 73.1716 277.741C71.2889 277.085 64.5124 273.805 61.18 269.666L60.1566 270.827L60.6946 281.48L62.4067 281.723L63.0627 275.727C63.0627 275.727 65.2537 274.724 66.6641 277.19C68.0745 279.657 69.0913 281.349 71.5578 281.894C74.0244 282.438 77.7439 280.582 77.7439 280.582C77.7439 280.582 78.3933 279.604 76.5827 278.168Z" fill="#263238"/>
<path d="M60.0452 215.639C59.2629 218.515 58.3123 221.343 57.1981 224.108C55.709 227.525 42.845 262.09 42.845 262.09C42.845 262.09 41.8675 280.799 36.39 280.74C30.9124 280.681 36.6065 267.666 36.6065 267.666L39.9389 260.535C39.9389 260.535 41.2115 239.589 42.7859 231.888L49.4902 213.828L60.0452 215.639Z" fill="white"/>
<path d="M49.4186 214.43C49.4186 214.43 43.9147 226.953 42.7799 231.886C41.645 236.819 40.5036 259.012 39.9329 260.534C39.3621 262.055 30.2569 278.173 35.7607 281.401C41.2645 284.628 42.5634 262.81 42.5634 262.81C42.5634 262.81 55.27 227.517 57.1724 224.106C59.0748 220.695 61.1543 210.822 61.1543 210.822L49.4186 214.43Z" stroke="#263238" stroke-linecap="round" stroke-linejoin="round"/>
<path d="M34.6914 273.133C34.6914 273.133 35.0718 277.502 36.515 278.118C37.9582 278.735 41.1464 273.808 41.1464 273.808" stroke="#263238" stroke-linecap="round" stroke-linejoin="round"/>
<path d="M41.1327 274.559C41.1327 274.559 39.1647 282.011 36.5407 281.696C33.9167 281.381 33.4444 277.242 34.6842 274.047C34.6842 274.047 35.1238 277.327 36.5079 278.114C37.9052 278.134 41.1327 274.559 41.1327 274.559Z" fill="#263238"/>
<path d="M64.3615 149.291C64.3615 149.291 57.7294 158.344 53.1309 172.907C48.5323 187.47 49.0047 215.363 49.0047 215.363C49.0047 215.363 66.1196 220.867 82.7097 213.874L79.6725 151.029C79.6725 151.029 68.9994 151.226 64.3615 149.291Z" fill="#263238"/>
<path d="M72.9288 83.6387C72.9288 83.6387 78.0849 88.4668 78.6884 91.6287C79.1862 93.8418 79.9852 95.9762 81.0631 97.9722C80.5087 98.8114 79.6957 99.4471 78.7474 99.7827C78.7474 99.7827 78.4129 106.257 76.5302 106.756L72.0301 105.575L71.5512 108.35L65.0962 105.897V102.157L60.1762 98.943L61.9277 90.5397L69.9309 86.8006L72.9288 83.6387Z" fill="white"/>
<path d="M79.4913 150.632L80.0621 141.553C80.0621 141.553 84.2604 133.681 82.9287 130.821C81.4593 127.678 72.6296 116.041 72.6296 116.041L73.4956 109.691L61.1235 104.391L60.5331 109.691L62.0288 110.8L60.3691 114.355C60.3691 114.355 60.2641 113.299 57.3909 118.659C54.5176 124.018 43.6937 143.088 42.8409 146.748C41.9881 150.409 59.6737 163.306 65.6433 166.349C65.6433 166.349 66.3321 164.873 73.4234 170.285C75.2274 169.97 77.7202 168.35 78.2515 167.346C78.7829 166.343 76.2114 163.955 76.2114 163.955C76.2114 163.955 74.6632 161.029 71.9277 163.371H69.0151L52.3463 147.857L60.7955 135.491L64.1476 149.379C64.1476 149.379 74.9912 152.672 79.4913 150.632Z" fill="#0F50A4"/>
<path d="M73.7097 109.584L72.8241 116.071L60.7472 109.584L61.3376 104.283L73.7097 109.584Z" stroke="#263238" stroke-linecap="round" stroke-linejoin="round"/>
<path d="M72.8245 116.072C72.8245 116.072 83.8124 129.514 83.5172 132.164C83.222 134.814 80.2766 141.446 80.2766 141.446L79.6731 151.024C79.6731 151.024 70.7844 151.266 64.3622 149.292L61.01 135.404" stroke="#263238" stroke-linecap="round" stroke-linejoin="round"/>
<path d="M52.5606 147.748L69.5837 122.085C69.5837 122.085 71.2565 116.181 67.2287 114.075C63.2009 111.97 59.6979 114.639 58.4449 116.043C57.192 117.447 43.6785 143.484 43.0487 146.613C42.4189 149.742 56.6934 162.258 64.9524 165.637C64.9524 165.637 68.7112 167.893 68.7112 163.262L52.5606 147.748Z" stroke="#263238" stroke-linecap="round" stroke-linejoin="round"/>
<path d="M60.747 114.244L62.3411 110.439" stroke="#263238" stroke-linecap="round" stroke-linejoin="round"/>
<path d="M68.7107 163.292H72.135C72.135 163.292 74.8049 160.904 76.071 163.292C77.3371 165.68 78.9377 166.152 78.4588 167.267C77.98 168.382 75.2379 170.606 73.6307 170.206C72.0235 169.806 67.4906 166.119 67.4906 166.119" stroke="#263238" stroke-linecap="round" stroke-linejoin="round"/>
<path d="M74.1621 85.3379C74.1621 85.3379 78.1833 88.854 78.6294 90.8023C79.0755 92.7506 78.8852 96.0503 81.0631 97.9724C81.0631 97.9724 80.9516 99.5467 78.7474 99.7829C78.7474 99.7829 77.6191 105.995 76.5302 106.756C75.4412 107.517 68.7763 104.08 66.1655 102.663C65.4996 102.206 65.0145 101.531 64.7944 100.754" stroke="#263238" stroke-linecap="round" stroke-linejoin="round"/>
<path d="M77.2847 101.679C76.052 101.471 74.9398 100.815 74.1621 99.8359" stroke="#263238" stroke-linecap="round" stroke-linejoin="round"/>
<path d="M77.2847 92.6884C77.2847 92.6884 75.6972 91.7634 74.8247 93.2984" stroke="#263238" stroke-linecap="round" stroke-linejoin="round"/>
<path d="M76.1961 95.9931C76.1961 96.5244 76.3469 96.9574 76.5897 96.9705C76.8324 96.9836 77.0554 96.5638 77.0817 96.039C77.1079 95.5142 76.9308 95.0681 76.688 95.055C76.4453 95.0419 76.2223 95.4617 76.1961 95.9931Z" fill="#263238"/>
<path d="M72.03 105.574L71.4987 108.638" stroke="#263238" stroke-linecap="round" stroke-linejoin="round"/>
<path d="M66.8747 95.5844C66.8747 95.5844 65.8908 93.6754 64.7952 94.7906C63.6997 95.9058 61.6202 101.062 67.229 99.8352C67.229 99.8352 67.6029 102.984 64.7952 103.771C61.9876 104.558 56.6543 100.216 56.4772 92.8095C56.3001 85.4033 63.4505 80.4046 67.229 81.8347C67.229 81.8347 72.7065 73.2477 78.1382 76.9082C83.5698 80.5686 79.9094 86.2036 81.0639 87.4763C82.2185 88.7489 84.685 87.555 84.7637 90.9727C84.8424 94.3904 79.1287 94.0428 79.1287 94.0428L78.4399 90.2774L73.7102 85.3377C73.7102 85.3377 74.8254 88.9063 72.9296 92.0092C71.2174 94.8037 66.8747 95.5844 66.8747 95.5844Z" fill="#263238"/>
<path d="M56.4764 92.8074C56.4764 92.8074 53.8525 93.3978 54.1411 96.9468C54.4297 100.496 60.3534 109.22 59.9073 114.245L44.616 142.742C44.616 142.742 37.7347 141.43 38.0561 134.345C38.3775 127.26 46.7743 121.291 45.154 116.069C43.5337 110.847 37.1705 97.5503 46.1839 89.9276C55.1972 82.3049 69.2487 93.9882 69.2487 93.9882L62.3673 91.771L56.4764 92.8074Z" fill="#263238"/>
<path d="M81.6537 128.015L85.7603 118.568L104.22 130.763L88.9878 157.751L79.7514 152.667" stroke="#263238" stroke-linecap="round" stroke-linejoin="round"/>
<path d="M98.4734 144.119C98.4734 144.119 99.4705 142.059 98.1389 140.924C96.8072 139.789 92.2349 136.424 92.2349 137.25C92.2046 137.451 92.217 137.656 92.2713 137.851C92.3256 138.047 92.4205 138.229 92.5498 138.385C93.8618 140.143 97.004 142.977 96.8006 143.207C96.8006 143.207 91.0672 139.402 90.5162 139.763C90.3784 139.855 90.4572 140.347 90.936 140.825C92.5073 142.224 94.166 143.521 95.9019 144.709C95.9019 144.709 89.8536 142.367 89.073 142.741C88.85 142.846 88.8959 143.187 89.5978 143.613C91.3539 144.568 93.1605 145.426 95.0098 146.185L93.4944 148.717C93.4944 148.717 96.3546 149.216 98.4734 144.119Z" fill="white" stroke="#263238" stroke-linecap="round" stroke-linejoin="round"/>
<path d="M65.5161 101.678L65.0963 105.896" stroke="#263238" stroke-linejoin="round"/>
<path d="M263.719 21H293.281C294.003 21 294.694 21.2819 295.204 21.7839C295.714 22.286 296 22.9665 296 23.6765V44.8294C296 45.5394 295.714 46.22 295.204 46.722C294.694 47.224 294.003 47.5059 293.281 47.5059H282.516C281.432 48.9977 279.684 51.3759 278.726 52.6947C278.653 52.7942 278.555 52.8741 278.443 52.9273C278.33 52.9805 278.206 53.0052 278.081 52.9991C277.957 52.993 277.835 52.9567 277.729 52.8927C277.622 52.8292 277.533 52.7401 277.47 52.6342L274.453 47.5232H263.719C262.997 47.5232 262.306 47.2413 261.796 46.7393C261.286 46.2373 261 45.5567 261 44.8467V23.6765C261 22.9665 261.286 22.286 261.796 21.7839C262.306 21.2819 262.997 21 263.719 21Z" fill="#0F50A4"/>
<path d="M263.719 21H293.281C294.003 21 294.694 21.2819 295.204 21.7839C295.714 22.286 296 22.9665 296 23.6765V44.8294C296 45.5394 295.714 46.22 295.204 46.722C294.694 47.224 294.003 47.5059 293.281 47.5059H282.516C281.432 48.9977 279.684 51.3759 278.726 52.6947C278.653 52.7942 278.555 52.8741 278.443 52.9273C278.33 52.9805 278.206 53.0052 278.081 52.9991C277.957 52.993 277.835 52.9567 277.729 52.8927C277.622 52.8292 277.533 52.7401 277.47 52.6342L274.453 47.5232H263.719C262.997 47.5232 262.306 47.2413 261.796 46.7393C261.286 46.2373 261 45.5567 261 44.8467V23.6765C261 22.9665 261.286 22.286 261.796 21.7839C262.306 21.2819 262.997 21 263.719 21Z" stroke="black" stroke-miterlimit="10"/>
<path d="M272 40.9088L273.891 38.6881V33.371C273.894 32.1286 274.334 30.9279 275.128 29.9854C275.922 29.0429 277.019 28.4209 278.221 28.2311V26H279.584V28.2033C280.828 28.3538 281.969 28.963 282.801 29.9162C283.632 30.8692 284.092 32.0994 284.092 33.3745V38.4344L286 40.9123H280.801C280.678 41.2476 280.474 41.5472 280.211 41.7842C279.949 42.0212 279.632 42.1891 279.288 42.2728C278.947 42.3562 278.589 42.3535 278.249 42.2641C277.911 42.1748 277.595 42.0018 277.336 41.7602C277.09 41.5253 276.899 41.2351 276.78 40.9123L272 40.9088Z" fill="white"/>
<path d="M75.5339 163.207C75.5339 163.607 77.2006 165.707 78.0339 166.707C78.0339 167.907 75.5 169.667 74 170C72.3333 168.833 68.1 166 68.5 166C68.9 166 69.3333 164.667 69.5 164C70.3333 164.167 72.6339 164.107 73.0339 163.707C73.5339 163.207 75.5339 162.707 75.5339 163.207Z" fill="white" stroke="#263238"/>
</svg>
