<svg width="14" height="14" viewBox="0 0 14 14" fill="none" xmlns="http://www.w3.org/2000/svg">
<path d="M11.5962 2.20655C10.3685 0.978836 8.73621 0.302734 7 0.302734C5.26379 0.302734 3.63148 0.978836 2.40381 2.20652C1.1761 3.43421 0.5 5.06652 0.5 6.80273C0.5 8.53895 1.1761 10.1712 2.40381 11.3989C3.63148 12.6266 5.26379 13.3027 7 13.3027C8.73624 13.3027 10.3685 12.6266 11.5962 11.3989C12.8239 10.1712 13.5 8.53892 13.5 6.80271C13.5 5.0665 12.8239 3.43421 11.5962 2.20655ZM2.94298 2.74572C3.51455 2.17415 4.18555 1.73819 4.9169 1.45364C4.72211 1.69683 4.53983 1.97636 4.37278 2.29074C4.17877 2.65586 4.01137 3.05686 3.87195 3.48517C3.38897 3.40501 2.94146 3.30645 2.54166 3.19077C2.66696 3.03675 2.80064 2.88806 2.94298 2.74572ZM2.08003 3.84688C2.54765 3.99661 3.08243 4.12288 3.66596 4.22289C3.50346 4.91266 3.40781 5.6549 3.38498 6.42149H1.27533C1.33525 5.50152 1.61155 4.62351 2.08003 3.84688ZM2.03852 9.68807C1.59533 8.92892 1.33345 8.07625 1.2753 7.18398H3.38643C3.41137 7.92866 3.50511 8.6498 3.66212 9.32151C3.06661 9.41805 2.5184 9.54111 2.03852 9.68807ZM2.94298 10.8597C2.78099 10.6977 2.63012 10.5276 2.49024 10.3505C2.9047 10.2356 3.36802 10.1383 3.86677 10.0602C4.00718 10.4945 4.17638 10.9008 4.37276 11.2704C4.55481 11.613 4.75496 11.914 4.96969 12.1719C4.21787 11.888 3.52829 11.445 2.94298 10.8597ZM6.61873 12.4424C6.03962 12.2802 5.4918 11.7513 5.04614 10.9126C4.89027 10.6193 4.75336 10.2993 4.63608 9.95826C5.26399 9.88914 5.93215 9.84829 6.61873 9.83869V12.4424ZM6.61873 9.07613C5.85732 9.08652 5.11518 9.13433 4.42016 9.21596C4.26685 8.58219 4.17461 7.89621 4.14929 7.184H6.61876V9.07613H6.61873ZM6.61873 6.42147H4.14785C4.17098 5.68936 4.26469 4.98423 4.42278 4.33433C5.11335 4.42066 5.85394 4.47317 6.61873 4.4882V6.42147ZM6.61873 3.72559C5.92948 3.7117 5.2628 3.66676 4.63933 3.59344C4.7559 3.25594 4.89174 2.93917 5.04614 2.64852C5.49177 1.80982 6.03962 1.28098 6.61873 1.11876V3.72559ZM11.944 3.88738C12.3978 4.654 12.6658 5.51744 12.7247 6.42147H10.6151C10.5925 5.66371 10.4987 4.9298 10.3396 4.24684C10.9269 4.15198 11.4683 4.0313 11.944 3.88738ZM11.057 2.74572C11.2101 2.8988 11.3531 3.05927 11.4864 3.22586C11.0783 3.33729 10.6239 3.43187 10.1356 3.508C9.9947 3.07107 9.82471 2.66236 9.62724 2.29074C9.4602 1.97636 9.27792 1.69683 9.08312 1.45364C9.81442 1.73819 10.4854 2.17415 11.057 2.74572ZM7.38127 7.184H9.85073C9.82524 7.90174 9.73175 8.59293 9.57626 9.23079C8.88579 9.14494 8.14552 9.09292 7.38127 9.07829V7.184ZM7.38127 6.42147V4.49074C8.14311 4.48074 8.88584 4.43333 9.58152 4.35201C9.73703 4.997 9.82923 5.69598 9.85215 6.42147H7.38127ZM7.38122 1.11876H7.38124C7.96035 1.28098 8.50818 1.80982 8.95383 2.64852C9.1107 2.94374 9.24839 3.26597 9.36618 3.60951C8.73743 3.67837 8.06851 3.71892 7.38122 3.72818V1.11876ZM7.38127 12.4424V9.8409C8.06986 9.85441 8.73603 9.89894 9.35927 9.97181C9.24301 10.3078 9.10763 10.6232 8.95386 10.9126C8.5082 11.7513 7.96037 12.2802 7.38127 12.4424ZM11.057 10.8597C10.4717 11.445 9.78213 11.888 9.03028 12.1719C9.24501 11.914 9.44517 11.613 9.62722 11.2704C9.82069 10.9063 9.98771 10.5065 10.1269 10.0794C10.6211 10.161 11.0784 10.2619 11.4857 10.3806C11.3526 10.5468 11.2098 10.7069 11.057 10.8597ZM11.9412 9.72289C11.468 9.57077 10.9255 9.44277 10.3333 9.34177C10.4931 8.66435 10.5884 7.93615 10.6136 7.184H12.7247C12.6656 8.08989 12.3968 8.95507 11.9412 9.72289Z" fill="#88889D" stroke="#88889D" stroke-width="0.2"/>
</svg>
