<svg width="19" height="19" viewBox="0 0 19 19" fill="none" xmlns="http://www.w3.org/2000/svg">
<path d="M7.48126 9.5H3.32501C2.96876 9.5 2.73126 9.7375 2.73126 10.0938C2.73126 10.45 2.96876 10.6875 3.32501 10.6875H7.48126C7.83751 10.6875 8.07501 10.45 8.07501 10.0938C8.07501 9.7375 7.77814 9.5 7.48126 9.5Z" fill="#6D7174"/>
<path d="M7.48126 12.4688H3.32501C2.96876 12.4688 2.73126 12.7062 2.73126 13.0625C2.73126 13.4187 2.96876 13.6562 3.32501 13.6562H7.48126C7.83751 13.6562 8.07501 13.4187 8.07501 13.0625C8.07501 12.7062 7.77814 12.4688 7.48126 12.4688Z" fill="#6D7174"/>
<path d="M15.2 13.6562H14.8438V12.4688C14.8438 12.1125 14.6063 11.875 14.25 11.875C13.8938 11.875 13.6562 12.1125 13.6562 12.4688V14.25C13.6562 14.6063 13.7156 14.8438 14.0125 14.8438H15.2C15.5563 14.8438 15.7938 14.6063 15.7938 14.25C15.7938 13.8937 15.5563 13.6562 15.2 13.6562Z" fill="#6D7174"/>
<path d="M9.5 16.0312H8.3125H2.85C2.25625 16.0312 1.78125 15.7938 1.78125 15.2594V7.125H14.8438V7.71875V7.8375C14.8438 8.19375 15.0813 8.43125 15.4375 8.43125C15.7937 8.43125 16.0312 8.19375 16.0312 7.8375V7.71875V6.05625V4.5125C16.0312 3.8 15.4969 2.96875 14.7844 2.96875H13.0625V1.12813C13.0625 0.83125 12.825 0.59375 12.4688 0.59375C12.1125 0.59375 11.875 0.83125 11.875 1.12813V2.96875H5.34375V1.12813C5.34375 0.83125 5.10625 0.59375 4.75 0.59375C4.39375 0.59375 4.15625 0.83125 4.15625 1.12813V2.96875H1.84062C1.12812 2.96875 0.59375 3.8 0.59375 4.5125V16.2688C0.59375 16.9219 1.12812 17.2188 1.84062 17.2188H8.3125H9.5C9.85625 17.2188 10.0938 16.9813 10.0938 16.625C10.0938 16.2688 9.85625 16.0312 9.5 16.0312ZM1.78125 5.4625C1.78125 4.86875 2.25625 4.15625 2.85 4.15625H4.15625V5.10625C4.15625 5.40313 4.39375 5.64062 4.75 5.64062C5.10625 5.64062 5.34375 5.40313 5.34375 5.10625V4.15625H11.875V5.10625C11.875 5.40313 12.1125 5.64062 12.4688 5.64062C12.825 5.64062 13.0625 5.40313 13.0625 5.10625V4.15625H13.775C14.3688 4.15625 14.8438 4.86875 14.8438 5.4625V5.9375H1.78125V5.4625Z" fill="#6D7174"/>
<path d="M14.0125 9.5C11.5781 9.5 9.55939 11.5187 9.55939 13.9531C9.55939 16.3875 11.5781 18.4062 14.0125 18.4062C16.4469 18.4062 18.4656 16.3875 18.4656 13.9531C18.4656 11.5187 16.5063 9.5 14.0125 9.5ZM14.0125 17.2188C12.2313 17.2188 10.7469 15.7344 10.7469 13.9531C10.7469 12.1719 12.2313 10.6875 14.0125 10.6875C15.7938 10.6875 17.2781 12.1719 17.2781 13.9531C17.2781 15.7344 15.8531 17.2188 14.0125 17.2188Z" fill="#6D7174"/>
</svg>
