<svg width="24" height="21" viewBox="0 0 24 21" fill="none" xmlns="http://www.w3.org/2000/svg">
<path d="M11.9384 16.4156C10.6305 16.4156 9.45898 15.1804 9.45898 13.5243C9.45898 11.8681 10.6305 10.6329 11.9384 10.6329C13.2463 10.6329 14.4179 11.8681 14.4179 13.5243C14.4179 15.1804 13.2463 16.4156 11.9384 16.4156Z" stroke="#0F50A4"/>
<path d="M22.1269 7.59522C22.0873 7.60132 22.047 7.60132 22.0074 7.59522C21.9 7.55938 21.788 7.53829 21.6746 7.53255H20.1216C20.0464 7.53284 19.9725 7.51368 19.9073 7.47699C19.8421 7.44031 19.788 7.38741 19.7504 7.32366L17.8347 4.07332C17.4375 4.20324 17.0102 4.21586 16.6058 4.10963C16.2014 4.0034 15.8379 3.78299 15.5605 3.47589L8.48219 7.47824C8.41674 7.51329 8.34345 7.53195 8.26885 7.53255H4.85554C4.75922 7.53578 4.66462 7.50698 4.58714 7.45084C4.50967 7.3947 4.45388 7.31454 4.42888 7.22339C4.40419 7.13407 4.41049 7.03924 4.44678 6.9538C4.48307 6.86835 4.54731 6.79713 4.62941 6.7513L16.0939 0.279856C16.5838 0.00286226 17.1661 -0.072202 17.7126 0.0711763C18.2591 0.214555 18.7251 0.564631 19.008 1.0444L22.4981 6.96854C22.5409 7.04092 22.5605 7.12421 22.5544 7.20764C22.5483 7.29106 22.5168 7.37077 22.464 7.43646C22.4238 7.48625 22.3725 7.52642 22.3141 7.55393C22.2557 7.58144 22.1917 7.59556 22.1269 7.59522ZM20.369 6.69699H21.3504L18.2613 1.46218C18.091 1.17579 17.8118 0.967103 17.4848 0.881763C17.1578 0.796423 16.8095 0.841379 16.5163 1.0068L14.464 2.16823L6.45127 6.69699H8.15792L15.4709 2.56095C15.5699 2.5079 15.6856 2.493 15.7952 2.51917C15.8497 2.53343 15.9007 2.55813 15.9454 2.59183C15.9901 2.62554 16.0275 2.66758 16.0555 2.71552C16.079 2.75937 16.1061 2.80129 16.1365 2.84086C16.3243 3.08721 16.5981 3.25738 16.9057 3.31901C17.2133 3.38063 17.5332 3.32941 17.8048 3.17508C17.8535 3.14746 17.9073 3.12954 17.9631 3.12237C18.0189 3.11519 18.0756 3.11889 18.1299 3.13326C18.1842 3.14762 18.2351 3.17237 18.2796 3.20608C18.3242 3.23979 18.3614 3.28179 18.3893 3.32966L20.369 6.69699Z" fill="#0F50A4"/>
<path d="M19.9451 18.6316H3.83636C3.72393 18.6316 3.61611 18.5864 3.53661 18.5059C3.45711 18.4255 3.41245 18.3163 3.41245 18.2026C3.41245 17.8612 3.27846 17.5338 3.03997 17.2925C2.80147 17.0511 2.478 16.9155 2.14071 16.9155C2.02828 16.9155 1.92046 16.8703 1.84096 16.7898C1.76146 16.7094 1.7168 16.6003 1.7168 16.4865V10.4802C1.7168 10.3664 1.76146 10.2573 1.84096 10.1768C1.92046 10.0964 2.02828 10.0512 2.14071 10.0512C2.478 10.0512 2.80147 9.91556 3.03997 9.67419C3.27846 9.43282 3.41245 9.10545 3.41245 8.7641C3.41245 8.65032 3.45711 8.5412 3.53661 8.46074C3.61611 8.38028 3.72393 8.33508 3.83636 8.33508H19.9451C20.0575 8.33508 20.1653 8.38028 20.2448 8.46074C20.3243 8.5412 20.369 8.65032 20.369 8.7641C20.369 9.10545 20.503 9.43282 20.7415 9.67419C20.98 9.91556 21.3034 10.0512 21.6407 10.0512C21.7531 10.0512 21.861 10.0964 21.9405 10.1768C22.02 10.2573 22.0646 10.3664 22.0646 10.4802V16.4865C22.0646 16.6003 22.02 16.7094 21.9405 16.7898C21.861 16.8703 21.7531 16.9155 21.6407 16.9155C21.3034 16.9155 20.98 17.0511 20.7415 17.2925C20.503 17.5338 20.369 17.8612 20.369 18.2026C20.369 18.3163 20.3243 18.4255 20.2448 18.5059C20.1653 18.5864 20.0575 18.6316 19.9451 18.6316ZM4.21788 17.7735H19.5635C19.6466 17.3613 19.8476 16.9829 20.1416 16.6854C20.4356 16.3879 20.8095 16.1844 21.2168 16.1004V10.8663C20.8095 10.7822 20.4356 10.5788 20.1416 10.2813C19.8476 9.98378 19.6466 9.60537 19.5635 9.19312H4.21788C4.13481 9.60537 3.93379 9.98378 3.63983 10.2813C3.34587 10.5788 2.97196 10.7822 2.56462 10.8663V16.1004C2.97196 16.1844 3.34587 16.3879 3.63983 16.6854C3.93379 16.9829 4.13481 17.3613 4.21788 17.7735Z" fill="#0F50A4"/>
<path d="M21.6568 20.3477H2.12321C1.93059 20.3492 1.73881 20.3222 1.55419 20.2676C1.10773 20.1444 0.714154 19.8796 0.433534 19.5137C0.152914 19.1477 0.000657679 18.7008 0 18.2409V8.97108C0 8.41232 0.223695 7.87646 0.621875 7.48136C1.02006 7.08626 1.5601 6.8643 2.12321 6.8643H21.6568C21.848 6.8631 22.0383 6.89008 22.2216 6.94435C22.6688 7.06681 23.0633 7.33127 23.3448 7.69728C23.6262 8.06329 23.7791 8.5107 23.78 8.97108V18.2409C23.78 18.7997 23.5563 19.3355 23.1581 19.7306C22.7599 20.1257 22.2199 20.3477 21.6568 20.3477ZM2.12321 7.70701C1.78535 7.70701 1.46132 7.84019 1.22241 8.07725C0.983503 8.3143 0.849286 8.63583 0.849286 8.97108V18.2409C0.850339 18.5166 0.942193 18.7844 1.11085 19.0035C1.27951 19.2226 1.51572 19.3809 1.7835 19.4544C1.89363 19.4877 2.00809 19.5047 2.12321 19.505H21.6568C21.9947 19.505 22.3187 19.3718 22.5576 19.1348C22.7965 18.8977 22.9307 18.5762 22.9307 18.2409V8.97108C22.9297 8.69539 22.8378 8.42761 22.6691 8.20853C22.5005 7.98945 22.2643 7.83109 21.9965 7.75757C21.8862 7.72494 21.7719 7.70792 21.6568 7.70701H2.12321Z" fill="#0F50A4"/>
</svg>
