<svg width="22" height="19" viewBox="0 0 22 19" fill="none" xmlns="http://www.w3.org/2000/svg">
<path d="M9.39196 0.00425046H16.1495C16.7225 -0.0292376 17.2896 0.135942 17.755 0.471927C18.2205 0.807912 18.5557 1.29414 18.7044 1.84859C18.7593 2.07106 18.7847 2.29979 18.78 2.52888V5.25004C18.7903 5.3649 18.7771 5.48066 18.7411 5.59023C18.7051 5.69979 18.6471 5.80085 18.5707 5.8872C18.4942 5.97355 18.401 6.04337 18.2966 6.09238C18.1922 6.14139 18.0789 6.16856 17.9636 6.17221C17.8458 6.16843 17.7299 6.14092 17.6229 6.09132C17.5159 6.04173 17.4201 5.97106 17.341 5.88356C17.262 5.79606 17.2014 5.69352 17.1629 5.58207C17.1244 5.47062 17.1088 5.35255 17.117 5.23492C17.117 4.35811 17.117 3.46617 17.117 2.57423C17.1312 2.45301 17.118 2.33015 17.0784 2.2147C17.0388 2.09925 16.9738 1.99414 16.8883 1.90712C16.8027 1.82009 16.6987 1.75336 16.5839 1.71184C16.4692 1.67032 16.3465 1.65506 16.2251 1.66718H2.61929C2.49727 1.65548 2.37416 1.6709 2.2588 1.71234C2.14343 1.75379 2.03865 1.82023 1.95197 1.90691C1.86529 1.99359 1.79885 2.09837 1.7574 2.21374C1.71596 2.3291 1.70054 2.45221 1.71224 2.57423V12.5669C1.70016 12.6904 1.71584 12.8149 1.75814 12.9315C1.80044 13.0481 1.86828 13.1537 1.9567 13.2407C2.04511 13.3277 2.15186 13.3938 2.26913 13.4341C2.38639 13.4745 2.5112 13.4881 2.63441 13.474H8.68143C8.79174 13.4583 8.90371 13.4583 9.01402 13.474C9.20392 13.5245 9.36981 13.6405 9.48228 13.8017C9.59474 13.9628 9.6465 14.1586 9.62839 14.3542C9.61027 14.5499 9.52345 14.7328 9.38331 14.8705C9.24317 15.0083 9.05878 15.0919 8.86284 15.1067H2.36229C1.74029 15.0875 1.14925 14.8309 0.710625 14.3894C0.272002 13.948 0.0191233 13.3553 0.00395695 12.7332C0.00395695 10.2993 0.00395695 7.88049 0.00395695 5.44657V2.61959C-0.0157624 2.27097 0.0383793 1.92212 0.162837 1.59588C0.287294 1.26963 0.47926 0.973362 0.726164 0.726458C0.973068 0.479554 1.26934 0.287588 1.59558 0.16313C1.92182 0.038673 2.27068 -0.0154688 2.61929 0.00425046H9.39196Z" fill="#0F50A4"/>
<path d="M11.101 14.9425C11.0862 14.7312 11.0862 14.519 11.101 14.3076C11.1879 13.8263 11.0908 13.3299 10.8289 12.9168C10.7792 12.7427 10.7388 12.5661 10.708 12.3877C10.6118 12.2136 10.5789 12.0116 10.6147 11.8159C10.6505 11.6203 10.7529 11.4431 10.9045 11.3143C11.6066 10.7265 12.0735 9.90535 12.2197 9.00134C12.2678 8.79752 12.3838 8.61612 12.5486 8.48698C12.7135 8.35784 12.9174 8.28866 13.1268 8.29082C13.4291 8.29082 13.7163 8.21523 14.0036 8.21523C14.2807 8.19492 14.5448 8.0893 14.7595 7.91288L15.3944 7.48959C15.5624 7.35717 15.7701 7.28516 15.984 7.28516C16.1979 7.28516 16.4056 7.35717 16.5736 7.48959C16.6343 7.51576 16.6904 7.55149 16.7399 7.59541C17.3127 8.0936 18.0521 8.35803 18.811 8.33617C18.9345 8.32154 19.0598 8.33207 19.1791 8.36711C19.2985 8.40216 19.4096 8.461 19.5056 8.54009C19.6017 8.61919 19.6807 8.7169 19.738 8.82734C19.7953 8.93779 19.8296 9.05868 19.839 9.18275C19.9912 9.97989 20.4128 10.7005 21.0332 11.2236C21.2296 11.3636 21.3632 11.5749 21.4056 11.8123C21.448 12.0497 21.3957 12.2942 21.26 12.4935C20.8411 13.2257 20.6964 14.0831 20.8518 14.9123C20.8968 15.1182 20.8647 15.3335 20.7616 15.5174C20.6585 15.7012 20.4916 15.8409 20.2925 15.9101C19.434 16.1849 18.7106 16.7733 18.2667 17.5579C18.1639 17.7441 17.9959 17.8857 17.795 17.9555C17.594 18.0253 17.3744 18.0183 17.1783 17.9358C16.3625 17.6414 15.4694 17.6414 14.6536 17.9358C14.4522 18.0203 14.2262 18.0252 14.0213 17.9494C13.8165 17.8736 13.648 17.7229 13.5501 17.5276C13.125 16.7847 12.4499 16.2168 11.6452 15.9252C11.4556 15.8486 11.2981 15.7092 11.199 15.5303C11.0999 15.3514 11.0653 15.1439 11.101 14.9425ZM12.8093 14.3681C12.8093 14.5495 12.8093 14.6553 13.0209 14.7309C13.6725 14.9469 14.2146 15.4077 14.5327 16.0159C14.5485 16.0572 14.5731 16.0945 14.6049 16.1253C14.6367 16.156 14.6748 16.1795 14.7166 16.1939C14.7584 16.2083 14.8029 16.2134 14.8468 16.2087C14.8908 16.2041 14.9332 16.1899 14.9711 16.1671C15.6078 15.9183 16.3148 15.9183 16.9515 16.1671C16.9888 16.1872 17.0299 16.1993 17.0722 16.2025C17.1144 16.2057 17.1569 16.2 17.1968 16.1857C17.2367 16.1715 17.2732 16.149 17.3039 16.1197C17.3345 16.0905 17.3587 16.0551 17.3748 16.0159C17.6954 15.4097 18.2366 14.9497 18.8865 14.7309C19.0528 14.7309 19.0982 14.5948 19.068 14.4285C18.9232 13.7287 19.0473 13.0001 19.4157 12.3877C19.4446 12.3621 19.4678 12.3307 19.4837 12.2955C19.4996 12.2604 19.5078 12.2222 19.5078 12.1836C19.5078 12.145 19.4996 12.1068 19.4837 12.0716C19.4678 12.0364 19.4446 12.005 19.4157 11.9795C18.8572 11.545 18.4888 10.9111 18.3877 10.2107C18.3877 10.0293 18.297 9.96887 18.1156 9.96887C17.394 9.9902 16.6914 9.73617 16.1503 9.25834C16.1292 9.23018 16.1018 9.20732 16.0703 9.19158C16.0388 9.17583 16.0041 9.16763 15.9689 9.16763C15.9337 9.16763 15.8989 9.17583 15.8675 9.19158C15.836 9.20732 15.8086 9.23018 15.7875 9.25834C15.2587 9.72672 14.5738 9.9802 13.8675 9.96887C13.6559 9.96887 13.5501 10.0445 13.5198 10.2561C13.4259 10.9391 13.0676 11.558 12.5221 11.9795C12.486 12.005 12.4554 12.0375 12.432 12.075C12.4086 12.1125 12.393 12.1543 12.3859 12.198C12.3789 12.2416 12.3806 12.2862 12.391 12.3291C12.4014 12.3721 12.4203 12.4126 12.4465 12.4481C12.6248 12.7195 12.7474 13.0237 12.8071 13.3429C12.8668 13.6622 12.8624 13.9901 12.7942 14.3076L12.8093 14.3681Z" fill="#0685CF"/>
<path d="M8.75818 4.01458H12.5527C12.6692 3.99963 12.7875 4.00952 12.8998 4.04359C13.0122 4.07767 13.1161 4.13516 13.2046 4.21229C13.2932 4.28941 13.3644 4.38441 13.4136 4.49104C13.4628 4.59767 13.4888 4.71351 13.49 4.83093C13.4909 4.95159 13.4661 5.07107 13.4171 5.18135C13.3681 5.29162 13.296 5.39015 13.2059 5.47031C13.1157 5.55048 13.0094 5.61045 12.8941 5.64618C12.7789 5.68192 12.6573 5.6926 12.5376 5.67751H4.9032C4.71383 5.69246 4.52505 5.6421 4.36827 5.53484C4.21149 5.42757 4.09618 5.26985 4.0415 5.08793C3.98813 4.92052 3.99019 4.74036 4.04739 4.57422C4.10459 4.40808 4.21386 4.26483 4.35897 4.16576C4.5234 4.05452 4.72024 4.00132 4.91832 4.01458H8.75818Z" fill="#0F50A4"/>
<path d="M6.98896 7.48559H9.0903C9.20523 7.47942 9.32021 7.49676 9.42822 7.53653C9.53622 7.57631 9.63498 7.63769 9.71846 7.71693C9.80194 7.79616 9.86839 7.89159 9.91374 7.99737C9.95909 8.10316 9.9824 8.21708 9.98223 8.33217C9.98272 8.44605 9.95938 8.55876 9.91371 8.66308C9.86804 8.76739 9.80106 8.861 9.71706 8.93788C9.63305 9.01476 9.5339 9.07322 9.42596 9.1095C9.31802 9.14577 9.20368 9.15907 9.0903 9.14852H4.88762C4.77843 9.14852 4.67031 9.12702 4.56943 9.08523C4.46855 9.04345 4.37689 8.9822 4.29968 8.90499C4.22247 8.82778 4.16123 8.73612 4.11944 8.63524C4.07766 8.53437 4.05615 8.42625 4.05615 8.31706C4.05615 8.20787 4.07766 8.09975 4.11944 7.99887C4.16123 7.89799 4.22247 7.80633 4.29968 7.72912C4.37689 7.65191 4.46855 7.59067 4.56943 7.54888C4.67031 7.5071 4.77843 7.48559 4.88762 7.48559H6.98896Z" fill="#0F50A4"/>
<path d="M15.6358 14.368C15.5366 14.3726 15.4375 14.3576 15.3441 14.3239C15.2507 14.2902 15.1649 14.2384 15.0915 14.1715L14.1845 13.4458C14.0955 13.3793 14.021 13.2953 13.9656 13.1989C13.9102 13.1026 13.8751 12.996 13.8623 12.8856C13.8496 12.7752 13.8595 12.6633 13.8915 12.5569C13.9235 12.4505 13.9769 12.3517 14.0484 12.2667C14.1874 12.0972 14.3876 11.9894 14.6056 11.9667C14.8236 11.9441 15.0417 12.0084 15.2125 12.1457C15.5602 12.3876 15.5602 12.4027 15.8474 12.0701L16.6033 11.1933C16.6735 11.1038 16.7614 11.0296 16.8615 10.9754C16.9615 10.9212 17.0717 10.8881 17.185 10.8782C17.2984 10.8682 17.4126 10.8817 17.5206 10.9177C17.6286 10.9537 17.728 11.0115 17.8127 11.0875C17.8951 11.1652 17.9607 11.2589 18.0055 11.3629C18.0504 11.4669 18.0735 11.579 18.0735 11.6922C18.0735 11.8054 18.0504 11.9175 18.0055 12.0215C17.9607 12.1255 17.8951 12.2192 17.8127 12.2969L16.3009 14.0203C16.2269 14.1282 16.1275 14.2163 16.0116 14.2769C15.8956 14.3375 15.7666 14.3688 15.6358 14.368Z" fill="#0685CF"/>
</svg>
