<svg width="23" height="20" viewBox="0 0 23 20" fill="none" xmlns="http://www.w3.org/2000/svg">
<path d="M10.0848 0.00456401H17.3409C17.9562 -0.0313944 18.5651 0.145971 19.0648 0.506742C19.5646 0.867513 19.9246 1.38961 20.0842 1.98496C20.1431 2.22385 20.1704 2.46944 20.1654 2.71544V5.63734C20.1765 5.76067 20.1623 5.88497 20.1236 6.00262C20.085 6.12027 20.0227 6.22878 19.9406 6.3215C19.8586 6.41422 19.7584 6.4892 19.6463 6.54182C19.5342 6.59445 19.4126 6.62362 19.2888 6.62754C19.1622 6.62348 19.0378 6.59394 18.923 6.54068C18.8081 6.48743 18.7052 6.41155 18.6203 6.3176C18.5354 6.22364 18.4704 6.11353 18.4291 5.99386C18.3877 5.87419 18.371 5.74741 18.3798 5.62111C18.3798 4.67961 18.3798 3.72187 18.3798 2.76414C18.395 2.63397 18.3808 2.50205 18.3383 2.37808C18.2958 2.25411 18.226 2.14125 18.1341 2.0478C18.0422 1.95436 17.9306 1.88271 17.8073 1.83812C17.6841 1.79354 17.5524 1.77715 17.422 1.79017H2.81252C2.68149 1.7776 2.54931 1.79416 2.42543 1.83867C2.30155 1.88317 2.18905 1.95451 2.09597 2.04759C2.00289 2.14066 1.93155 2.25317 1.88705 2.37705C1.84255 2.50092 1.82599 2.63311 1.83855 2.76414V13.494C1.82558 13.6265 1.84242 13.7603 1.88784 13.8855C1.93326 14.0107 2.0061 14.1241 2.10104 14.2175C2.19598 14.3109 2.3106 14.3818 2.43652 14.4252C2.56244 14.4685 2.69645 14.4831 2.82875 14.468H9.32186C9.44031 14.4511 9.56054 14.4511 9.67898 14.468C9.8829 14.5222 10.061 14.6468 10.1818 14.8198C10.3025 14.9929 10.3581 15.203 10.3387 15.4131C10.3192 15.6232 10.226 15.8196 10.0755 15.9675C9.92505 16.1154 9.72705 16.2053 9.51666 16.2211H2.53656C1.86867 16.2006 1.23403 15.925 0.763048 15.451C0.292068 14.977 0.020534 14.3406 0.00424885 13.6726C0.00424885 11.0591 0.00424885 8.46184 0.00424885 5.84836V2.81284C-0.0169251 2.4385 0.0412106 2.06391 0.174849 1.7136C0.308488 1.3633 0.514615 1.04517 0.779733 0.780049C1.04485 0.514931 1.36298 0.308803 1.71329 0.175165C2.0636 0.0415259 2.43818 -0.01661 2.81252 0.00456401H10.0848Z" fill="white"/>
<path d="M11.9202 16.0423C11.9042 15.8154 11.9042 15.5875 11.9202 15.3606C12.0135 14.8437 11.9092 14.3107 11.628 13.8671C11.5746 13.6802 11.5312 13.4906 11.4981 13.299C11.3949 13.1121 11.3595 12.8951 11.3979 12.6851C11.4364 12.475 11.5464 12.2847 11.7091 12.1465C12.4631 11.5152 12.9644 10.6336 13.1214 9.66286C13.173 9.444 13.2975 9.24921 13.4745 9.11055C13.6516 8.97189 13.8705 8.8976 14.0953 8.89992C14.42 8.89992 14.7284 8.81875 15.0368 8.81875C15.3344 8.79694 15.618 8.68353 15.8485 8.4941L16.5303 8.03958C16.7107 7.89739 16.9337 7.82007 17.1633 7.82007C17.393 7.82007 17.616 7.89739 17.7964 8.03958C17.8616 8.06769 17.9219 8.10605 17.975 8.15321C18.5901 8.68815 19.384 8.97209 20.1989 8.94862C20.3315 8.93291 20.466 8.94421 20.5942 8.98184C20.7224 9.01947 20.8416 9.08265 20.9448 9.16758C21.0479 9.25251 21.1328 9.35743 21.1943 9.47602C21.2558 9.59462 21.2927 9.72443 21.3027 9.85765C21.4661 10.7136 21.9189 11.4873 22.5851 12.0491C22.7959 12.1994 22.9394 12.4263 22.9849 12.6812C23.0304 12.9361 22.9743 13.1986 22.8286 13.4126C22.3788 14.1989 22.2234 15.1195 22.3903 16.0099C22.4385 16.231 22.4041 16.4622 22.2934 16.6596C22.1827 16.857 22.0035 17.007 21.7897 17.0812C20.8679 17.3764 20.0912 18.0082 19.6145 18.8506C19.5041 19.0506 19.3237 19.2027 19.1079 19.2776C18.8921 19.3525 18.6563 19.345 18.4457 19.2564C17.5698 18.9403 16.6108 18.9403 15.7349 19.2564C15.5186 19.3472 15.2759 19.3524 15.0559 19.271C14.8359 19.1897 14.655 19.0278 14.5499 18.8181C14.0934 18.0204 13.3686 17.4107 12.5045 17.0975C12.3009 17.0152 12.1318 16.8655 12.0254 16.6735C11.919 16.4814 11.8818 16.2586 11.9202 16.0423ZM13.7545 15.4255C13.7545 15.6203 13.7545 15.7339 13.9817 15.8151C14.6813 16.047 15.2634 16.5418 15.605 17.1949C15.6219 17.2392 15.6484 17.2793 15.6825 17.3123C15.7166 17.3454 15.7576 17.3705 15.8025 17.386C15.8473 17.4015 15.8951 17.4069 15.9423 17.4019C15.9895 17.397 16.0351 17.3817 16.0757 17.3572C16.7594 17.0901 17.5186 17.0901 18.2022 17.3572C18.2423 17.3788 18.2864 17.3918 18.3318 17.3952C18.3772 17.3987 18.4228 17.3926 18.4656 17.3772C18.5085 17.3619 18.5477 17.3378 18.5806 17.3064C18.6135 17.275 18.6395 17.237 18.6568 17.1949C19.001 16.5439 19.5821 16.05 20.28 15.8151C20.4586 15.8151 20.5073 15.669 20.4748 15.4904C20.3193 14.739 20.4526 13.9566 20.8482 13.299C20.8793 13.2716 20.9042 13.2379 20.9212 13.2001C20.9383 13.1623 20.9471 13.1213 20.9471 13.0799C20.9471 13.0384 20.9383 12.9974 20.9212 12.9596C20.9042 12.9219 20.8793 12.8881 20.8482 12.8607C20.2485 12.3942 19.8529 11.7135 19.7444 10.9615C19.7444 10.7667 19.647 10.7018 19.4522 10.7018C18.6774 10.7247 17.9229 10.4519 17.3419 9.93881C17.3192 9.90857 17.2898 9.88403 17.256 9.86713C17.2222 9.85022 17.1849 9.84142 17.1471 9.84142C17.1093 9.84142 17.072 9.85022 17.0382 9.86713C17.0044 9.88403 16.975 9.90857 16.9523 9.93881C16.3846 10.4418 15.6491 10.7139 14.8908 10.7018C14.6635 10.7018 14.5499 10.7829 14.5174 11.0102C14.4166 11.7436 14.0319 12.4081 13.446 12.8607C13.4073 12.8881 13.3744 12.923 13.3493 12.9633C13.3242 13.0036 13.3074 13.0484 13.2999 13.0953C13.2923 13.1421 13.2942 13.19 13.3053 13.2362C13.3165 13.2823 13.3367 13.3257 13.3649 13.3639C13.5564 13.6554 13.688 13.982 13.7521 14.3247C13.8162 14.6675 13.8115 15.0196 13.7382 15.3606L13.7545 15.4255Z" fill="white"/>
<path d="M9.4039 4.30634H13.4783C13.6034 4.29028 13.7304 4.3009 13.8511 4.33749C13.9718 4.37408 14.0833 4.43582 14.1784 4.51863C14.2735 4.60144 14.3499 4.70345 14.4027 4.81795C14.4555 4.93244 14.4835 5.05683 14.4848 5.18291C14.4858 5.31248 14.4591 5.44077 14.4065 5.55918C14.3538 5.67759 14.2765 5.78338 14.1797 5.86946C14.0828 5.95555 13.9687 6.01993 13.8449 6.0583C13.7212 6.09668 13.5906 6.10815 13.4621 6.09195H5.26454C5.0612 6.10799 4.85849 6.05393 4.69014 5.93875C4.5218 5.82356 4.39798 5.65421 4.33927 5.45887C4.28196 5.27911 4.28418 5.08566 4.34559 4.90726C4.40701 4.72887 4.52434 4.57505 4.68016 4.46867C4.85672 4.34923 5.06808 4.2921 5.28077 4.30634H9.4039Z" fill="white"/>
<path d="M7.50365 8.03964H9.76001C9.88342 8.03301 10.0069 8.05163 10.1229 8.09434C10.2388 8.13705 10.3449 8.20296 10.4345 8.28804C10.5241 8.37312 10.5955 8.47558 10.6442 8.58917C10.6929 8.70276 10.7179 8.82508 10.7177 8.94867C10.7183 9.07094 10.6932 9.19197 10.6442 9.30398C10.5951 9.41599 10.5232 9.51651 10.433 9.59906C10.3428 9.68161 10.2363 9.74438 10.1204 9.78334C10.0045 9.82229 9.88176 9.83656 9.76001 9.82524H5.2473C5.13005 9.82524 5.01395 9.80215 4.90563 9.75728C4.79731 9.71241 4.69889 9.64665 4.61599 9.56375C4.53308 9.48084 4.46732 9.38242 4.42245 9.2741C4.37759 9.16578 4.35449 9.04968 4.35449 8.93244C4.35449 8.81519 4.37759 8.6991 4.42245 8.59078C4.46732 8.48246 4.53308 8.38404 4.61599 8.30113C4.69889 8.21823 4.79731 8.15246 4.90563 8.1076C5.01395 8.06273 5.13005 8.03964 5.2473 8.03964H7.50365Z" fill="white"/>
<path d="M16.789 15.4255C16.6825 15.4304 16.5761 15.4143 16.4758 15.3781C16.3755 15.3419 16.2834 15.2863 16.2046 15.2145L15.2306 14.4353C15.135 14.3638 15.0551 14.2736 14.9956 14.1702C14.9361 14.0667 14.8984 13.9522 14.8847 13.8337C14.871 13.7152 14.8817 13.5951 14.916 13.4808C14.9504 13.3665 15.0077 13.2605 15.0845 13.1691C15.2337 12.9871 15.4487 12.8714 15.6828 12.8471C15.9168 12.8227 16.151 12.8918 16.3344 13.0393C16.7078 13.299 16.7078 13.3152 17.0162 12.9581L17.8279 12.0166C17.9033 11.9205 17.9976 11.8408 18.1051 11.7826C18.2125 11.7244 18.3308 11.6889 18.4525 11.6782C18.5743 11.6676 18.6969 11.682 18.8128 11.7207C18.9288 11.7593 19.0355 11.8214 19.1265 11.903C19.2149 11.9864 19.2854 12.0871 19.3335 12.1987C19.3817 12.3104 19.4065 12.4307 19.4065 12.5523C19.4065 12.6739 19.3817 12.7942 19.3335 12.9059C19.2854 13.0175 19.2149 13.1181 19.1265 13.2016L17.5032 15.0521C17.4237 15.168 17.317 15.2625 17.1925 15.3276C17.068 15.3927 16.9295 15.4263 16.789 15.4255Z" fill="white"/>
</svg>
