<svg width="17" height="17" viewBox="0 0 17 17" fill="none" xmlns="http://www.w3.org/2000/svg">
<path d="M6.29977 10.7192C6.29889 10.8121 6.31653 10.9042 6.35165 10.9901C6.38677 11.076 6.43867 11.1541 6.50431 11.2197C6.56996 11.2854 6.64803 11.3373 6.73397 11.3724C6.8199 11.4075 6.91198 11.4252 7.00481 11.4243C7.09795 11.4252 7.19034 11.4076 7.27664 11.3725C7.36294 11.3375 7.44145 11.2857 7.50761 11.2201C7.57378 11.1546 7.62631 11.0766 7.66215 10.9906C7.69799 10.9046 7.71644 10.8124 7.71644 10.7192V8.9863C7.72336 7.67428 8.24763 6.41797 9.17539 5.49021C10.1031 4.56246 11.3595 4.03819 12.6715 4.03127H14.2463L12.6715 5.60607C12.5957 5.66786 12.5346 5.74575 12.4927 5.83407C12.4507 5.9224 12.429 6.01895 12.429 6.11673C12.429 6.21451 12.4507 6.31106 12.4927 6.39939C12.5346 6.48771 12.5957 6.5656 12.6715 6.62739C12.7291 6.69685 12.8003 6.75375 12.8808 6.79455C12.9612 6.83536 13.0492 6.8592 13.1393 6.8646C13.2317 6.86676 13.3233 6.84628 13.406 6.80493C13.4887 6.76358 13.56 6.70263 13.6137 6.62739L15.8145 4.42661C15.9642 4.28442 16.0835 4.11324 16.1649 3.9235C16.2464 3.73376 16.2884 3.52943 16.2884 3.32293C16.2884 3.11644 16.2464 2.91211 16.1649 2.72237C16.0835 2.53263 15.9642 2.36145 15.8145 2.21925L13.8378 0.242506C13.776 0.166727 13.6981 0.105651 13.6098 0.0637065C13.5214 0.0217618 13.4249 0 13.3271 0C13.2293 0 13.1328 0.0217618 13.0444 0.0637065C12.9561 0.105651 12.8782 0.166727 12.8164 0.242506C12.7407 0.304299 12.6796 0.382182 12.6376 0.470507C12.5957 0.558833 12.5739 0.655386 12.5739 0.753165C12.5739 0.850944 12.5957 0.947498 12.6376 1.03582C12.6796 1.12415 12.7407 1.20203 12.8164 1.26382L14.3254 2.75297H12.5924C10.9047 2.75991 9.28802 3.43344 8.0946 4.62687C6.90117 5.82029 6.22764 7.43693 6.2207 9.12468L6.29977 10.7192Z" fill="#0F50A4"/>
<path d="M16.2884 9.14444C16.1952 9.14444 16.103 9.16289 16.017 9.19874C15.9311 9.23458 15.853 9.2871 15.7875 9.35327C15.7219 9.41944 15.6701 9.49794 15.6351 9.58424C15.6001 9.67054 15.5825 9.76293 15.5833 9.85607V13.8689C15.5783 13.9984 15.5476 14.1257 15.4931 14.2433C15.4386 14.3609 15.3613 14.4666 15.2657 14.5542C15.1702 14.6418 15.0582 14.7096 14.9363 14.7537C14.8144 14.7978 14.6849 14.8173 14.5554 14.8111H2.44457C2.31508 14.8173 2.18564 14.7978 2.06373 14.7537C1.94182 14.7096 1.82985 14.6418 1.73428 14.5542C1.63872 14.4666 1.56145 14.3609 1.50693 14.2433C1.45242 14.1257 1.42174 13.9984 1.41667 13.8689V2.45646C1.42174 2.32692 1.45242 2.19966 1.50693 2.08204C1.56145 1.96442 1.63872 1.85875 1.73428 1.77115C1.82985 1.68355 1.94182 1.61574 2.06373 1.57164C2.18564 1.52754 2.31508 1.50802 2.44457 1.51421H7.39961C7.57569 1.49721 7.73912 1.41524 7.85804 1.28428C7.97696 1.15333 8.04284 0.982774 8.04284 0.80588C8.04284 0.628986 7.97696 0.458432 7.85804 0.327476C7.73912 0.19652 7.57569 0.114549 7.39961 0.0975469H2.44457C1.81031 0.0954991 1.20022 0.340714 0.743798 0.78114C0.287379 1.22157 0.0205675 1.82253 0 2.45646V13.8689C0.0033945 14.1849 0.0695749 14.4972 0.194694 14.7874C0.319814 15.0777 0.501378 15.3402 0.728833 15.5597C0.956288 15.7792 1.2251 15.9513 1.51964 16.066C1.81419 16.1806 2.12859 16.2357 2.44457 16.2278H14.5554C15.1897 16.2298 15.7998 15.9846 16.2562 15.5442C16.7126 15.1038 16.9794 14.5028 17 13.8689V9.85607C17 9.66734 16.925 9.48633 16.7916 9.35287C16.6581 9.21942 16.4771 9.14444 16.2884 9.14444Z" fill="#0F50A4"/>
</svg>
