<svg width="23" height="26" viewBox="0 0 23 26" fill="none" xmlns="http://www.w3.org/2000/svg">
<path d="M4.768 0C3.89389 0 3.17871 0.715179 3.17871 1.58929V23.8393C3.17871 24.7134 3.89389 25.4286 4.768 25.4286H20.6609C21.535 25.4286 22.2501 24.7134 22.2501 23.8393V6.35714L15.893 0H4.768Z" fill="#E2E5E7"/>
<path d="M17.4819 6.35714H22.2497L15.8926 0V4.76786C15.8926 5.64196 16.6078 6.35714 17.4819 6.35714Z" fill="#B0B7BD"/>
<path d="M22.2503 11.1253L17.4824 6.35742H22.2503V11.1253Z" fill="#CAD1D8"/>
<path d="M19.0714 20.661C19.0714 21.098 18.7138 21.4556 18.2768 21.4556H0.794643C0.357589 21.4556 0 21.098 0 20.661V12.7146C0 12.2775 0.357589 11.9199 0.794643 11.9199H18.2768C18.7138 11.9199 19.0714 12.2775 19.0714 12.7146V20.661Z" fill="#F15642"/>
<path d="M3.46387 15.0558C3.46387 14.846 3.62915 14.6172 3.89536 14.6172H5.36306C6.18949 14.6172 6.93328 15.1703 6.93328 16.2303C6.93328 17.2347 6.18949 17.7942 5.36306 17.7942H4.30222V18.6333C4.30222 18.913 4.12422 19.0712 3.89536 19.0712C3.68557 19.0712 3.46387 18.913 3.46387 18.6333V15.0558ZM4.30222 15.4174V17.0003H5.36306C5.78899 17.0003 6.12592 16.6245 6.12592 16.2303C6.12592 15.7861 5.78899 15.4174 5.36306 15.4174H4.30222Z" fill="white"/>
<path d="M8.1779 19.0706C7.96812 19.0706 7.73926 18.9562 7.73926 18.6772V15.068C7.73926 14.8399 7.96812 14.6738 8.1779 14.6738H9.63289C12.5365 14.6738 12.4729 19.0706 9.69011 19.0706H8.1779ZM8.5784 15.4494V18.2958H9.63289C11.3485 18.2958 11.4248 15.4494 9.63289 15.4494H8.5784Z" fill="white"/>
<path d="M13.5021 15.5011V16.511H15.1224C15.3512 16.511 15.5801 16.7399 15.5801 16.9616C15.5801 17.1714 15.3512 17.343 15.1224 17.343H13.5021V18.6772C13.5021 18.8997 13.344 19.0706 13.1215 19.0706C12.8417 19.0706 12.6709 18.8997 12.6709 18.6772V15.068C12.6709 14.8399 12.8425 14.6738 13.1215 14.6738H15.352C15.6317 14.6738 15.797 14.8399 15.797 15.068C15.797 15.2714 15.6317 15.5003 15.352 15.5003H13.5021V15.5011Z" fill="white"/>
<path d="M18.2769 21.4548H3.17871V22.2494H18.2769C18.714 22.2494 19.0716 21.8919 19.0716 21.4548V20.6602C19.0716 21.0972 18.714 21.4548 18.2769 21.4548Z" fill="#CAD1D8"/>
</svg>
