<svg width="24" height="24" viewBox="0 0 24 24" fill="none" xmlns="http://www.w3.org/2000/svg">
<path fill-rule="evenodd" clip-rule="evenodd" d="M22 12C22 17.5228 17.5228 22 12 22C6.47715 22 2 17.5228 2 12C2 6.47715 6.47715 2 12 2C17.5228 2 22 6.47715 22 12ZM16.7512 12.4394C16.3349 12.7122 15.7816 12.4121 15.7816 11.9149C15.7816 11.8079 15.8067 11.7025 15.8541 11.6092C15.9015 11.5159 15.9719 11.4347 16.0615 11.3752C16.4074 11.1471 16.6362 10.7546 16.6362 10.3089C16.6362 9.60425 16.0643 9.03233 15.3597 9.03233C15.3433 9.03233 15.3274 9.03233 15.311 9.03298L15.3913 8.8901L15.4285 8.82408C15.4787 8.7258 15.506 8.61453 15.506 8.49677C15.506 8.16319 15.2828 7.88112 14.9772 7.7928C15.0848 7.77635 15.1945 7.76704 15.3058 7.76488C16.6778 7.73695 17.8424 8.82473 17.9019 10.1954C17.9428 11.1341 17.4753 11.9658 16.7512 12.4394ZM8.35704 11.6162L7.08829 9.41808V15.1295C7.08829 15.3046 7.15951 15.4633 7.27424 15.578C7.38897 15.693 7.547 15.764 7.72277 15.764C8.07281 15.764 8.35704 15.48 8.35704 15.1297V11.6162ZM15.4028 15.1295V9.42609L14.134 11.6242V15.1297C14.134 15.4798 14.418 15.764 14.7683 15.764C14.9434 15.764 15.1021 15.6928 15.2168 15.578C15.3318 15.4631 15.4028 15.3046 15.4028 15.1295ZM8.27261 8.17553C8.1594 7.97919 7.95007 7.8584 7.72343 7.8584C7.23528 7.8584 6.93006 8.38702 7.17424 8.80979L10.6958 14.9096C10.6977 14.9127 10.6999 14.9158 10.7021 14.9188C10.7048 14.9227 10.7077 14.9267 10.7101 14.931C10.7203 14.9459 10.7302 14.9604 10.741 14.9747C10.7504 14.9869 10.7599 14.9983 10.7698 15.0098C10.7869 15.0293 10.8049 15.0485 10.825 15.0665C10.8312 15.0722 10.8379 15.0777 10.8446 15.0833L10.8573 15.0938C10.8802 15.1109 10.9047 15.1267 10.9298 15.1418C10.9549 15.1561 10.98 15.1683 11.0058 15.1791C11.0315 15.189 11.0582 15.1983 11.0839 15.2055C11.1915 15.2343 11.3034 15.2334 11.4076 15.2055C11.4333 15.1983 11.4593 15.1897 11.4851 15.1797L11.4866 15.1791C11.511 15.1691 11.5355 15.1577 11.5591 15.144L11.5609 15.1437L11.5628 15.1418C11.5747 15.1352 11.5863 15.1277 11.5977 15.1204L11.6 15.1189C11.6238 15.1025 11.6461 15.0851 11.6675 15.0665C11.6862 15.0494 11.7041 15.0308 11.7206 15.0113C11.7336 14.9968 11.745 14.9825 11.7565 14.9667C11.7645 14.9559 11.7717 14.9459 11.7788 14.9345C11.7814 14.9303 11.7842 14.9265 11.7871 14.9228L11.7906 14.918L11.7946 14.9122L11.979 14.5933L8.27261 8.17553ZM15.3175 8.80936C15.3742 8.71173 15.4021 8.60198 15.4021 8.49223C15.4021 8.38313 15.3742 8.27337 15.3175 8.17509C15.159 7.90104 14.8469 7.80471 14.5806 7.88589C14.5745 7.88805 14.5684 7.89 14.5623 7.89195L14.5492 7.89622L14.544 7.89801C14.4141 7.94693 14.2979 8.03937 14.2197 8.17509L11.4656 12.9457L12.1975 14.2158L15.3175 8.80936Z" fill="#0F50A4"/>
<rect x="0.25" y="0.25" width="23.5" height="23.5" rx="11.75" stroke="#0F50A4" stroke-width="0.5"/>
</svg>
