<svg width="24" height="24" viewBox="0 0 24 24" fill="none" xmlns="http://www.w3.org/2000/svg">
<path fill-rule="evenodd" clip-rule="evenodd" d="M23 12C23 18.0751 18.0751 23 12 23C5.92487 23 1 18.0751 1 12C1 5.92487 5.92487 1 12 1C18.0751 1 23 5.92487 23 12ZM17.2263 12.4833C16.7684 12.7834 16.1598 12.4533 16.1598 11.9064C16.1598 11.7887 16.1874 11.6728 16.2395 11.5701C16.2917 11.4675 16.3691 11.3782 16.4676 11.3127C16.8482 11.0618 17.0998 10.63 17.0998 10.1398C17.0998 9.36467 16.4707 8.73556 15.6957 8.73556C15.6776 8.73556 15.6602 8.73556 15.6421 8.73627L15.7304 8.57911L15.7714 8.50649C15.8266 8.39838 15.8566 8.27599 15.8566 8.14645C15.8566 7.77951 15.6111 7.46924 15.2749 7.37208C15.3932 7.35399 15.514 7.34375 15.6364 7.34137C17.1456 7.31065 18.4266 8.5072 18.4921 10.015C18.5371 11.0475 18.0228 11.9623 17.2263 12.4833ZM7.99274 11.5778L6.59712 9.15989V15.4425C6.59712 15.6351 6.67546 15.8096 6.80167 15.9358C6.92787 16.0623 7.1017 16.1404 7.29505 16.1404C7.68009 16.1404 7.99274 15.828 7.99274 15.4427V11.5778ZM15.743 15.4425V9.1687L14.3474 11.5866V15.4427C14.3474 15.8277 14.6598 16.1404 15.0451 16.1404C15.2377 16.1404 15.4123 16.062 15.5385 15.9358C15.6649 15.8094 15.743 15.6351 15.743 15.4425ZM7.89988 7.79308C7.77534 7.5771 7.54508 7.44423 7.29577 7.44423C6.75881 7.44423 6.42306 8.02572 6.69166 8.49077L10.5654 15.2005C10.5675 15.204 10.5699 15.2073 10.5723 15.2107C10.5753 15.215 10.5784 15.2193 10.5811 15.2241C10.5923 15.2405 10.6032 15.2565 10.6151 15.2722C10.6254 15.2855 10.6359 15.2982 10.6468 15.3108C10.6656 15.3322 10.6854 15.3534 10.7075 15.3732C10.7143 15.3795 10.7217 15.3855 10.7291 15.3916L10.743 15.4032C10.7683 15.422 10.7952 15.4394 10.8228 15.456C10.8504 15.4717 10.878 15.4851 10.9064 15.497C10.9347 15.5079 10.964 15.5182 10.9923 15.526C11.1107 15.5577 11.2338 15.5568 11.3483 15.526C11.3767 15.5182 11.4052 15.5087 11.4336 15.4977L11.4352 15.497C11.4621 15.486 11.489 15.4734 11.515 15.4584L11.517 15.458L11.519 15.456C11.5322 15.4487 11.545 15.4405 11.5575 15.4324L11.56 15.4308C11.5862 15.4127 11.6107 15.3936 11.6343 15.3732C11.6548 15.3544 11.6745 15.3339 11.6926 15.3124C11.7069 15.2965 11.7195 15.2808 11.7322 15.2634C11.741 15.2515 11.7488 15.2405 11.7567 15.2279C11.7595 15.2233 11.7627 15.2192 11.7658 15.2151L11.7697 15.2098L11.7741 15.2034L11.9769 14.8526L7.89988 7.79308ZM15.6492 8.4903C15.7116 8.3829 15.7423 8.26218 15.7423 8.14145C15.7423 8.02144 15.7116 7.90071 15.6492 7.7926C15.4749 7.49114 15.1315 7.38518 14.8387 7.47448C14.832 7.47686 14.8253 7.479 14.8185 7.48114L14.8041 7.48584L14.7984 7.48781C14.6555 7.54162 14.5277 7.6433 14.4417 7.7926L11.4121 13.0403L12.2172 14.4374L15.6492 8.4903Z" fill="white"/>
<rect x="0.25" y="0.25" width="23.5" height="23.5" rx="11.75" stroke="white" stroke-width="0.5"/>
</svg>
