<svg width="24" height="24" viewBox="0 0 24 24" fill="none" xmlns="http://www.w3.org/2000/svg">
<path d="M4.0239 2.00391C7.40881 2.00391 10.7937 2.00391 14.1786 2.00391C14.1953 2.01436 14.21 2.03109 14.2267 2.03318C15.1884 2.16071 16.1774 3.03255 16.1565 4.42498C16.1376 5.64388 16.1523 6.86278 16.1523 8.08168C16.1523 8.15277 16.1523 8.22176 16.1523 8.30121C15.2993 8.59182 14.4546 8.87825 13.6037 9.16677C13.4071 8.76117 13.0768 8.642 12.6566 8.64409C10.2773 8.65245 7.89804 8.64827 5.51878 8.64827C5.44142 8.64827 5.36197 8.64827 5.28462 8.65245C4.77866 8.688 4.42323 9.18977 4.55704 9.6811C4.66367 10.0783 4.9731 10.3 5.43306 10.302C7.14537 10.3041 8.8556 10.302 10.5679 10.302C10.6327 10.302 10.6975 10.302 10.7435 10.302C10.547 10.5843 10.3296 10.831 10.1916 11.1174C10.0494 11.408 9.98669 11.7342 9.89051 12.0415C9.79225 12.0206 9.6668 11.9705 9.54136 11.9705C8.13429 11.9642 6.72723 11.9621 5.32016 11.9705C4.87065 11.9725 4.5215 12.3677 4.53195 12.8172C4.5424 13.2834 4.91247 13.6263 5.42261 13.6284C6.57669 13.6326 7.73078 13.6326 8.88487 13.6284C9.22984 13.6263 9.57481 13.6012 9.93024 13.5866C9.93024 14.1657 9.9386 14.7804 9.92815 15.3972C9.90515 16.7959 10.2752 18.0838 10.9902 19.2797C11.0174 19.3257 11.0383 19.3738 11.0676 19.4302C11.0237 19.4344 11.0028 19.4365 10.984 19.4365C8.74688 19.4365 6.50979 19.4428 4.2727 19.4344C3.05589 19.426 2.04397 18.4099 2.04188 17.191C2.03561 12.8799 2.03143 8.56882 2.04606 4.25772C2.04815 3.32943 2.5123 2.64367 3.34859 2.2318C3.55976 2.12726 3.7981 2.07917 4.0239 2.00391ZM7.01575 6.98404C7.55307 6.98404 8.09039 6.98614 8.62771 6.98404C9.12948 6.98195 9.50164 6.63489 9.50791 6.16657C9.51418 5.69615 9.15039 5.32609 8.6528 5.324C7.56561 5.31773 6.47634 5.31773 5.38915 5.324C4.88947 5.32609 4.52568 5.69197 4.52777 6.16238C4.53195 6.63071 4.90201 6.98195 5.4017 6.98404C5.94111 6.98614 6.47843 6.98404 7.01575 6.98404Z" fill="#0F50A4"/>
<path d="M11.582 14.1497C11.582 13.5267 11.5799 12.9057 11.582 12.2827C11.5841 11.8102 11.7848 11.5363 12.2343 11.3836C13.6309 10.9091 15.0275 10.4365 16.4241 9.95986C16.6625 9.87832 16.8904 9.87832 17.1266 9.95776C18.5295 10.4365 19.9324 10.9111 21.3332 11.3899C21.7681 11.5384 21.9625 11.8185 21.9625 12.2848C21.9625 13.282 21.9437 14.2814 21.9667 15.2787C22.0043 16.9596 21.3917 18.3751 20.269 19.5919C19.393 20.5432 18.3497 21.2645 17.1831 21.8185C16.9071 21.9502 16.6416 21.9502 16.3635 21.8164C14.8268 21.0742 13.495 20.0811 12.5375 18.6406C11.904 17.6893 11.582 16.6377 11.582 15.4899C11.5799 15.0445 11.582 14.5971 11.582 14.1497ZM16.4743 16.0962C16.144 15.7637 15.8345 15.4501 15.5209 15.1407C15.1634 14.7895 14.6533 14.779 14.3229 15.1093C13.9863 15.4439 13.9926 15.9519 14.3459 16.3073C14.8833 16.8509 15.4227 17.3924 15.9684 17.9297C16.3551 18.3103 16.9113 18.2747 17.2395 17.8398C18.0695 16.7443 18.8912 15.6467 19.7108 14.5448C20.0014 14.1539 19.924 13.6479 19.5498 13.3719C19.1735 13.0939 18.6779 13.1712 18.379 13.558C18.2096 13.7775 18.0445 14.0033 17.8772 14.2271C17.4151 14.8417 16.9531 15.4564 16.4743 16.0962Z" fill="#0685CF"/>
</svg>
