<svg width="22" height="22" viewBox="0 0 22 22" fill="none" xmlns="http://www.w3.org/2000/svg">
<path d="M12.6294 18.3452C12.6983 17.8869 12.7628 17.4562 12.8277 17.0219C12.8583 16.8192 12.8814 16.6152 12.9214 16.4143C12.9322 16.3724 12.9308 16.3284 12.9174 16.2873C12.904 16.2462 12.8792 16.2097 12.8459 16.1822C12.4263 15.7631 12.0138 15.3377 11.5946 14.9172C11.4253 14.7474 11.3332 14.5616 11.4141 14.3193C11.495 14.0771 11.6897 13.9797 11.932 13.942C12.5098 13.8531 13.0877 13.7499 13.6691 13.6588C13.7121 13.6548 13.7533 13.6391 13.7881 13.6135C13.8229 13.5879 13.8502 13.5533 13.8669 13.5135C14.1336 12.9854 14.411 12.4613 14.6799 11.9337C14.7888 11.7195 14.9408 11.5781 15.1937 11.5781C15.4466 11.5781 15.5973 11.723 15.7062 11.9368C15.9729 12.4596 16.2454 12.9787 16.5121 13.5015C16.5288 13.544 16.5569 13.5812 16.5932 13.609C16.6296 13.6367 16.6729 13.6539 16.7183 13.6588C17.2984 13.7477 17.8763 13.8513 18.4554 13.9429C18.6977 13.9811 18.8897 14.0762 18.9715 14.3229C19.0533 14.5696 18.9497 14.7603 18.7773 14.9328C18.3657 15.3444 17.9598 15.7617 17.5491 16.1738C17.4784 16.2449 17.4442 16.3071 17.4624 16.4183C17.5584 16.9961 17.6402 17.578 17.7291 18.158C17.766 18.3976 17.7371 18.615 17.5247 18.7665C17.3211 18.9123 17.1144 18.8857 16.8997 18.775C16.3827 18.5083 15.8591 18.2572 15.344 17.99C15.2975 17.9624 15.2444 17.948 15.1904 17.9486C15.1364 17.9491 15.0835 17.9645 15.0377 17.9931C14.5114 18.2647 13.9816 18.5265 13.4508 18.7932C13.1495 18.9421 12.8445 18.8608 12.7045 18.5932C12.6715 18.5131 12.6464 18.4301 12.6294 18.3452ZM13.0548 14.8399C13.0441 14.8616 13.033 14.8843 13.0223 14.9043C13.3002 15.167 13.5789 15.4284 13.8549 15.6928C14.0109 15.8418 14.0625 16.0204 14.0256 16.2369C13.9611 16.6116 13.9113 16.989 13.8518 17.3926C13.9238 17.3588 13.9731 17.3375 14.0207 17.3135C14.3181 17.1655 14.6159 17.0183 14.9119 16.869C14.997 16.822 15.0927 16.7973 15.1899 16.7973C15.2872 16.7973 15.3828 16.822 15.468 16.869C15.7738 17.025 16.0818 17.1775 16.389 17.3304C16.4294 17.3504 16.4734 17.3637 16.5317 17.3864C16.4748 17.0001 16.4321 16.637 16.3641 16.2787C16.3371 16.1652 16.3424 16.0465 16.3794 15.9359C16.4164 15.8253 16.4836 15.7272 16.5734 15.6528C16.8432 15.407 17.1068 15.1563 17.3735 14.9079L17.3313 14.8501C17.2802 14.8381 17.2291 14.8238 17.1771 14.8154C16.8659 14.763 16.5548 14.7012 16.2436 14.6634C15.9769 14.6309 15.8156 14.4914 15.7027 14.2576C15.5444 13.9309 15.3702 13.6126 15.1919 13.2703C15.0021 13.6366 14.8221 13.9793 14.6461 14.3242C14.6052 14.4125 14.5427 14.489 14.4642 14.5465C14.3858 14.604 14.2941 14.6407 14.1976 14.6532C13.8158 14.7083 13.4357 14.7754 13.0548 14.8399Z" fill="#0A0B09"/>
<path d="M14.1794 7.72445C14.1797 8.46164 13.9614 9.18236 13.5521 9.79544C13.1427 10.4085 12.5607 10.8864 11.8796 11.1686C11.1986 11.4508 10.4492 11.5247 9.72615 11.3808C9.00313 11.237 8.33902 10.882 7.81785 10.3606C7.29667 9.83923 6.94185 9.175 6.79828 8.45192C6.65471 7.72885 6.72884 6.97944 7.0113 6.29852C7.29375 5.61759 7.77183 5.03574 8.38506 4.62659C8.99828 4.21745 9.71908 3.99939 10.4563 4C11.4435 4.00153 12.3898 4.39446 13.0877 5.09264C13.7856 5.79081 14.1782 6.73726 14.1794 7.72445ZM13.1126 7.73156C13.1136 7.20516 12.9584 6.69029 12.6668 6.25205C12.3751 5.81382 11.9601 5.47191 11.4741 5.26955C10.9882 5.06719 10.4531 5.01347 9.93664 5.11519C9.42015 5.2169 8.94542 5.46948 8.57248 5.84099C8.19954 6.2125 7.94514 6.68626 7.84144 7.20235C7.73774 7.71844 7.7894 8.25369 7.9899 8.74042C8.19039 9.22715 8.5307 9.6435 8.96781 9.93682C9.40492 10.2301 9.9192 10.3873 10.4456 10.3883C11.1516 10.3896 11.8291 10.1105 12.3293 9.61223C12.8294 9.11401 13.1112 8.43752 13.1126 7.73156Z" fill="#0A0B09"/>
<path d="M4.0449 17.8434C3.98978 17.8411 4.10046 17.8434 4.0449 17.8434C4.03814 17.9611 4.02831 18.0136 4.02831 18.0136C4.0449 18.5938 4.03633 18.1426 4.03814 18.2734C4.03995 18.4043 4.12388 18.6245 4.03814 18.7234C3.9524 18.8223 3.83329 18.8863 3.70347 18.903C3.64835 18.9084 3.59279 18.9057 3.53723 18.9057H3.65107C3.19013 18.9057 2.99633 18.7119 3.00033 18.2456C3.00566 17.6144 2.97277 16.9832 3.09412 16.3561C3.4835 14.3403 5.25127 12.7112 7.29018 12.5538C8.03471 12.4956 8.78591 12.5254 9.534 12.5178C9.89405 12.5143 10.2545 12.5156 10.615 12.5178C10.9497 12.5178 11.188 12.7472 11.1844 13.0574C11.1804 13.3588 10.9435 13.5806 10.6164 13.5815C9.6958 13.5815 8.77525 13.5815 7.85514 13.5815C5.95224 13.5837 4.43517 14.851 4.11513 16.7272C4.05423 17.0877 4.06712 17.4562 4.0449 17.8434Z" fill="#0A0B09"/>
</svg>
