<svg width="18" height="18" viewBox="0 0 18 18" fill="none" xmlns="http://www.w3.org/2000/svg">
<g clip-path="url(#clip0_20326_71833)">
<path d="M5.93188 5.93176H7.1014V7.09676H5.93188V5.93176ZM10.4273 8.22605H11.3769V9.17203H10.4273V8.22605ZM8.55074 10.6046H9.45543V11.5058H8.55074V10.6046ZM12.3265 8.22605H13.9092V9.17203H12.3265V8.22605ZM8.55074 12.407H9.45543V13.909H8.55074V12.407Z" fill="#6D7174"/>
<path d="M8.67275 4.09088C8.84632 4.09088 9.01278 4.15982 9.13552 4.28254C9.19632 4.3433 9.24454 4.41544 9.27745 4.49485C9.31036 4.57425 9.3273 4.65936 9.32732 4.74531V8.67269C9.32728 8.84628 9.25831 9.01275 9.13556 9.1355C9.01281 9.25824 8.84634 9.32722 8.67275 9.32725H4.74551C4.57192 9.32722 4.40546 9.25823 4.28273 9.13546C4.15997 9.01274 4.09098 8.84628 4.09094 8.67269V4.74545C4.09094 4.57184 4.15991 4.40535 4.28266 4.2826C4.40541 4.15984 4.5719 4.09088 4.74551 4.09088H8.67275ZM8.621 4.7972H4.79726V8.6208H8.621V4.7972ZM7.03641 10.309C7.20996 10.3092 7.37636 10.3782 7.499 10.501C7.62165 10.6238 7.6905 10.7903 7.69043 10.9639V13.2545C7.6904 13.428 7.62149 13.5944 7.49886 13.7171C7.37622 13.8398 7.20989 13.9088 7.03641 13.9089H4.74551C4.57193 13.9089 4.40546 13.84 4.28271 13.7173C4.15996 13.5945 4.09098 13.4281 4.09094 13.2545V10.9639C4.09094 10.7903 4.15991 10.6238 4.28266 10.501C4.40541 10.3783 4.5719 10.3093 4.74551 10.3093L7.03641 10.309ZM4.72934 10.9474V13.2701H7.05203V10.9474H4.72934ZM13.2546 10.309C13.3405 10.3091 13.4257 10.326 13.5051 10.3589C13.5845 10.3918 13.6566 10.4401 13.7174 10.5009C13.7782 10.5617 13.8264 10.6339 13.8593 10.7133C13.8921 10.7928 13.909 10.8779 13.909 10.9639V13.2545C13.909 13.4281 13.84 13.5946 13.7173 13.7173C13.5945 13.8401 13.428 13.9091 13.2544 13.9091H10.9639C10.7903 13.9091 10.6238 13.8401 10.5011 13.7173C10.3783 13.5946 10.3094 13.4281 10.3094 13.2545V10.9639C10.3093 10.8779 10.3262 10.7927 10.3591 10.7133C10.392 10.6338 10.4402 10.5617 10.501 10.5008C10.5618 10.44 10.6339 10.3918 10.7134 10.3589C10.7928 10.326 10.8779 10.309 10.9639 10.309H13.2546ZM13.2546 10.9639H10.9639V13.2541H13.2542L13.2546 10.9639ZM13.2546 4.09088C13.4282 4.09088 13.5947 4.15984 13.7174 4.2826C13.8402 4.40535 13.9091 4.57184 13.9091 4.74545V7.03635C13.909 7.20986 13.84 7.37621 13.7172 7.49885C13.5945 7.62148 13.4281 7.69037 13.2546 7.69037H10.9639C10.7904 7.69044 10.6239 7.62159 10.5011 7.49894C10.3783 7.3763 10.3092 7.2099 10.3091 7.03635V4.74545C10.3091 4.65946 10.326 4.57432 10.3589 4.49489C10.3919 4.41546 10.4401 4.34329 10.5009 4.2825C10.5617 4.22172 10.6339 4.17351 10.7134 4.14063C10.7928 4.10775 10.8779 4.09085 10.9639 4.09088H13.2546ZM13.2555 4.74436H10.9626V7.0373H13.2555V4.74436Z" fill="#6D7174"/>
<path fill-rule="evenodd" clip-rule="evenodd" d="M2.16818 1.06364C1.55816 1.06364 1.06364 1.55816 1.06364 2.16818V6.25909H0V2.16818C0 0.970728 0.970728 0 2.16818 0H6.25909V1.06364H2.16818Z" fill="#6D7174"/>
<path fill-rule="evenodd" clip-rule="evenodd" d="M2.16818 16.65C1.55816 16.65 1.06364 16.1555 1.06364 15.5454V11.4545H0V15.5454C0 16.7429 0.970728 17.7136 2.16818 17.7136H6.25909V16.65H2.16818Z" fill="#6D7174"/>
<path fill-rule="evenodd" clip-rule="evenodd" d="M16.6499 2.16818C16.6499 1.55816 16.1553 1.06364 15.5453 1.06364L11.4544 1.06364L11.4544 -2.73594e-07L15.5453 -9.47742e-08C16.7428 -4.24319e-08 17.7135 0.970728 17.7135 2.16818L17.7135 6.25909L16.6499 6.25909L16.6499 2.16818Z" fill="#6D7174"/>
<path fill-rule="evenodd" clip-rule="evenodd" d="M16.6499 15.5454C16.6499 16.1555 16.1553 16.65 15.5453 16.65L11.4544 16.65L11.4544 17.7136L15.5453 17.7136C16.7428 17.7136 17.7135 16.7429 17.7135 15.5454L17.7135 11.4545L16.6499 11.4545L16.6499 15.5454Z" fill="#6D7174"/>
</g>
<defs>
<clipPath id="clip0_20326_71833">
<rect width="18" height="18" fill="white"/>
</clipPath>
</defs>
</svg>
