<svg width="17" height="17" viewBox="0 0 17 17" fill="none" xmlns="http://www.w3.org/2000/svg">
<path d="M3.1875 3.1875H5.2125V5.20468H3.1875V3.1875ZM10.9713 7.16002H12.6154V8.79796H10.9713V7.16002ZM7.72199 11.2784H9.28845V12.8388H7.72199V11.2784ZM14.2597 7.16002H17V8.79796H14.2597V7.16002ZM7.72199 14.3992H9.28845V17H7.72199V14.3992Z" fill="#F2F2F2"/>
<path d="M7.93332 9.76096e-08C8.23384 6.02702e-06 8.52207 0.119372 8.7346 0.331849C8.83986 0.437058 8.92336 0.561972 8.98034 0.699457C9.03732 0.836942 9.06666 0.984305 9.06668 1.13313V7.93332C9.06662 8.23389 8.94719 8.52212 8.73466 8.73466C8.52212 8.94719 8.23389 9.06662 7.93332 9.06668H1.13336C0.832804 9.06661 0.544578 8.94716 0.332084 8.7346C0.119521 8.5221 6.83036e-05 8.23388 0 7.93332L0 1.13336C0 0.832778 0.119408 0.544502 0.331955 0.331955C0.544502 0.119408 0.832778 9.76096e-08 1.13336 9.76096e-08H7.93332ZM7.84371 1.22297H1.22297V7.84348H7.84371V1.22297ZM5.10002 10.7666C5.40053 10.7669 5.68863 10.8864 5.90099 11.0991C6.11335 11.3117 6.23257 11.5999 6.23245 11.9004V15.8666C6.23239 16.167 6.11308 16.4551 5.90074 16.6676C5.68841 16.88 5.40041 16.9995 5.10002 16.9998H1.13336C0.832818 16.9998 0.544578 16.8804 0.332038 16.6679C0.119498 16.4554 6.2369e-05 16.1672 0 15.8666L0 11.9004C4.40301e-09 11.5999 0.119408 11.3116 0.331955 11.099C0.544502 10.8865 0.832778 10.7671 1.13336 10.7671L5.10002 10.7666ZM1.10538 11.872V15.8937H5.12707V11.872H1.10538ZM15.8666 10.7666C16.0155 10.7666 16.1629 10.796 16.3004 10.853C16.4379 10.91 16.5628 10.9935 16.6681 11.0988C16.7733 11.2041 16.8567 11.3291 16.9137 11.4666C16.9706 11.6042 16.9998 11.7516 16.9998 11.9004V15.8666C16.9998 16.1672 16.8804 16.4555 16.6678 16.668C16.4553 16.8806 16.167 17 15.8664 17H11.9004C11.5999 17 11.3116 16.8806 11.099 16.668C10.8865 16.4555 10.7671 16.1672 10.7671 15.8666V11.9004C10.767 11.7516 10.7963 11.6041 10.8532 11.4666C10.9101 11.329 10.9936 11.204 11.0989 11.0987C11.2041 10.9934 11.3291 10.9099 11.4666 10.8529C11.6042 10.7959 11.7516 10.7666 11.9004 10.7666H15.8666ZM15.8666 11.9004H11.9004V15.8659H15.8659L15.8666 11.9004ZM15.8666 9.76096e-08C16.1672 9.76096e-08 16.4555 0.119408 16.668 0.331955C16.8806 0.544502 17 0.832778 17 1.13336V5.10002C16.9998 5.40045 16.8802 5.68848 16.6677 5.90083C16.4552 6.11317 16.1671 6.23245 15.8666 6.23245H11.9004C11.5999 6.23257 11.3117 6.11335 11.0991 5.90099C10.8864 5.68863 10.7669 5.40053 10.7666 5.10002V1.13336C10.7666 0.98449 10.7959 0.837073 10.8529 0.699536C10.9099 0.561999 10.9934 0.437037 11.0987 0.331789C11.204 0.22654 11.329 0.143067 11.4666 0.0861373C11.6041 0.0292081 11.7516 -6.16868e-05 11.9004 9.76096e-08H15.8666ZM15.8683 1.13148H11.8981V5.10167H15.8683V1.13148Z" fill="#F2F2F2"/>
</svg>
