<svg width="18" height="18" viewBox="0 0 18 18" fill="none" xmlns="http://www.w3.org/2000/svg">
<path d="M9.52919 18H8.47276C8.42811 17.9873 8.38267 17.9776 8.33674 17.971C7.08091 17.8856 5.8867 17.563 4.78978 16.9494C1.83309 15.2937 0.226438 12.7617 0.0182329 9.37666C-0.0884092 7.77509 0.274442 6.17718 1.06234 4.77869C2.71301 1.8259 5.24668 0.226054 8.62418 0.0165552C10.2471 -0.083793 11.7935 0.273147 13.2232 1.05745C15.7627 2.45264 17.3077 4.57814 17.8583 7.43396C17.9238 7.77681 17.9538 8.12671 18 8.47309V9.52938C17.9868 9.57916 17.9768 9.62973 17.9701 9.68079C17.882 10.936 17.5515 12.1257 16.9444 13.226C15.5451 15.7611 13.4186 17.3134 10.5698 17.8583C10.2264 17.9239 9.87429 17.9538 9.52919 18ZM16.5941 9.01004C16.6011 4.82622 13.2108 1.42495 9.01902 1.40955C4.82719 1.39414 1.41756 4.79806 1.41008 8.99507C1.40304 13.1762 4.7933 16.5788 8.98469 16.5938C13.1761 16.6088 16.5866 13.2049 16.5941 9.01004V9.01004Z" fill="#9AA1A3"/>
<path d="M8.29873 10.3098C8.29873 10.0285 8.29521 9.7473 8.29873 9.4665C8.30445 9.06511 8.54611 8.78387 8.94623 8.74998C9.41018 8.71081 9.81911 8.57393 10.1065 8.18795C10.4477 7.73022 10.508 7.22892 10.2544 6.71793C9.99034 6.18714 9.54356 5.91515 8.94887 5.93759C8.21025 5.96576 7.6794 6.48995 7.60149 7.23596C7.59809 7.31183 7.59089 7.38748 7.57992 7.46262C7.54623 7.63489 7.44911 7.78824 7.30777 7.89233C7.16642 7.99643 6.99115 8.04369 6.81663 8.02477C6.6421 8.00585 6.48104 7.92212 6.36529 7.79015C6.24955 7.65818 6.18756 7.48758 6.19159 7.3121C6.21624 6.32402 6.63177 5.53004 7.45843 4.99177C8.40261 4.37824 9.40622 4.33907 10.3834 4.89626C11.3875 5.46842 11.8585 6.37596 11.803 7.52952C11.7484 8.65712 10.9574 9.6518 9.86621 10.0013C9.73415 10.0431 9.69454 10.0972 9.69938 10.2314C9.71082 10.5356 9.7051 10.8406 9.70246 11.1451C9.69894 11.5892 9.40534 11.8999 8.99509 11.8969C8.59145 11.8942 8.30181 11.5888 8.29785 11.1531C8.29609 10.8718 8.29829 10.5906 8.29873 10.3098Z" fill="#9AA1A3"/>
<path d="M8.99672 14.1815C8.82354 14.1803 8.65462 14.1276 8.51142 14.0302C8.36821 13.9328 8.25717 13.795 8.19237 13.6344C8.12758 13.4738 8.11197 13.2976 8.14751 13.1281C8.18305 12.9586 8.26814 12.8034 8.39199 12.6824C8.51584 12.5613 8.67286 12.4798 8.84313 12.4481C9.0134 12.4164 9.18925 12.436 9.34835 12.5045C9.50744 12.5729 9.64263 12.687 9.73675 12.8324C9.83086 12.9778 9.87967 13.1479 9.87697 13.3211C9.87235 13.5512 9.77751 13.7704 9.61287 13.9314C9.44823 14.0923 9.22696 14.1821 8.99672 14.1815Z" fill="#9AA1A3"/>
</svg>
