<svg width="25" height="18" viewBox="0 0 25 18" fill="none" xmlns="http://www.w3.org/2000/svg">
<path d="M15.8671 2.13345H24.6769V0.0625H13.1296C14.1551 0.589185 15.0813 1.28991 15.8671 2.13345ZM24.6769 7.31279V5.24106H17.8301C18.0904 5.90004 18.2838 6.5929 18.3978 7.31279H24.6769ZM24.6769 12.4914V10.4196H18.3978C18.2838 11.1388 18.0908 11.8316 17.8301 12.4914H24.6769ZM13.1296 17.6699H24.6769V15.5982H15.8671C15.0815 16.4421 14.1552 17.1431 13.1296 17.6699ZM8.63113 1.04721C4.31354 1.04721 0.8125 4.54786 0.8125 8.86661C0.8125 13.1846 4.31354 16.6845 8.63113 16.6845C12.9487 16.6845 16.4498 13.1846 16.4498 8.86661C16.4497 4.54786 12.9487 1.04721 8.63113 1.04721ZM15.3308 8.8602C15.3308 12.5605 12.3315 15.5606 8.6311 15.5606C4.93073 15.5606 1.93075 12.5605 1.93075 8.8602C1.93075 5.16017 4.93073 2.16058 8.6311 2.16058C12.3315 2.16058 15.3308 5.1602 15.3308 8.8602Z" fill="#848F92"/>
<path d="M8.93262 9.5415V11.3498C9.23518 11.2669 9.63274 11.0675 9.63274 10.4931C9.63276 9.88666 9.17299 9.66724 8.93262 9.5415Z" fill="#848F92"/>
<path d="M8.63269 3.40967C5.61901 3.41553 3.18232 5.85221 3.17676 8.86526C3.18232 11.8789 5.61901 14.315 8.63269 14.3215C11.6451 14.315 14.0821 11.879 14.088 8.86526C14.0821 5.85221 11.6451 3.41553 8.63269 3.40967ZM10.8336 10.4306C10.8336 11.8832 9.69536 12.3643 9.00568 12.4782V12.9488C9.00568 13.1263 8.97359 13.1577 8.78629 13.1577H8.57671C8.38877 13.1577 8.35698 13.1263 8.35698 12.9488V12.4782C8.00267 12.4782 6.5392 12.2385 6.5392 11.9251C6.5392 11.8937 6.5392 11.8937 6.56083 11.8308L6.86339 10.9535C6.87356 10.9322 6.91548 10.8694 6.95772 10.8694C7.01993 10.8694 7.72072 11.2771 8.35698 11.3498V9.30277C7.72072 9.0205 6.51891 8.65439 6.51891 7.27441C6.51891 5.73925 7.87659 5.30044 8.35698 5.27914V4.76733C8.35698 4.58916 8.38877 4.55775 8.57671 4.55775H8.78629C8.97361 4.55775 9.00568 4.58918 9.00568 4.76733V5.27914C9.30892 5.30042 10.646 5.53033 10.646 5.8853C10.646 5.92722 10.6358 5.95863 10.6148 6.00055L10.2913 6.71084C10.2694 6.76321 10.2383 6.79401 10.197 6.79401C10.1335 6.79401 9.45498 6.3765 9.00568 6.3765V8.30986C9.68485 8.64388 10.8336 9.09348 10.8336 10.4306Z" fill="#848F92"/>
<path d="M7.7207 7.19121C7.7207 7.7561 8.20076 7.97517 8.4313 8.07997V6.37646C8.22172 6.42855 7.7207 6.57492 7.7207 7.19121Z" fill="#848F92"/>
</svg>
