<svg width="24" height="17" viewBox="0 0 24 17" fill="none" xmlns="http://www.w3.org/2000/svg">
<path d="M23.9998 7.17773V13.5204C24.0001 14.3618 23.6794 15.1717 23.103 15.7847C22.5266 16.3977 21.738 16.7677 20.8981 16.8191L20.6963 16.8251H3.30445C2.46302 16.8251 1.6533 16.504 1.04052 15.9274C0.427737 15.3508 0.0580802 14.5621 0.00698286 13.7222L0.000976562 13.5216V7.17773H23.9998ZM19.5119 11.3882H16.5087L16.3874 11.3966C16.1717 11.4262 15.9741 11.533 15.8311 11.697C15.688 11.8611 15.6092 12.0714 15.6092 12.2891C15.6092 12.5068 15.688 12.7171 15.8311 12.8812C15.9741 13.0452 16.1717 13.152 16.3874 13.1816L16.5087 13.19H19.5119L19.6344 13.1816C19.85 13.152 20.0476 13.0452 20.1907 12.8812C20.3337 12.7171 20.4125 12.5068 20.4125 12.2891C20.4125 12.0714 20.3337 11.8611 20.1907 11.697C20.0476 11.533 19.85 11.4262 19.6344 11.3966L19.5119 11.3882Z" fill="#9AA1A3"/>
<path d="M0 2.75C0 1.23122 1.23122 0 2.75 0H21.25C22.7688 0 24 1.23122 24 2.75V5.4H0V2.75Z" fill="#9AA1A3"/>
</svg>
