<svg width="24" height="23" viewBox="0 0 24 23" fill="none" xmlns="http://www.w3.org/2000/svg">
<path d="M13.3091 1.41008C13.7438 1.03678 15.2463 0.332773 15.2463 2.53468V20.306C15.2463 22.5079 13.758 21.8795 13.3091 21.5251C11.8206 20.3439 6.24017 16.1149 4.85573 16.1149H2.1292C1.39688 16.1149 1 15.7226 1 14.9288V7.8836C1 7.08971 1.43475 6.74013 2.12932 6.74013H4.84618C6.23545 6.74013 11.8679 2.64331 13.3091 1.41008Z" fill="#9AA1A3" stroke="#9AA1A3" stroke-width="1.5"/>
<rect width="6.9462" height="1.82327" rx="0.911635" transform="matrix(0.850562 -0.525875 0.43789 0.899029 17.1777 7.20654)" fill="#9AA1A3"/>
<rect width="6.93954" height="1.82481" rx="0.912403" transform="matrix(-0.855554 -0.517715 0.430319 -0.902677 23.1143 18.1606)" fill="#9AA1A3"/>
</svg>
