<svg width="22" height="19" viewBox="0 0 22 19" fill="none" xmlns="http://www.w3.org/2000/svg">
<path d="M6.93251 15.3427C8.17093 16.2371 9.61576 16.6499 11.0606 16.6499H11.8174C11.955 16.6499 12.0926 16.5811 12.2302 16.5811C12.299 16.5811 12.4366 16.5123 12.5054 16.5123C12.643 16.5123 12.7806 16.4435 12.9182 16.3747C12.987 16.3747 13.0558 16.3059 13.1246 16.3059C13.2622 16.2371 13.4686 16.1683 13.6062 16.0995C13.6751 16.0995 13.6751 16.0995 13.7438 16.0307C13.9503 15.9619 14.0879 15.8931 14.2943 15.7555C14.9135 15.4115 15.3951 14.9987 15.8767 14.5171C16.0143 14.3795 16.1519 14.2419 16.2895 14.0355C16.2895 13.9667 16.3583 13.9667 16.3583 13.8979C17.3215 12.6594 17.8719 11.1458 17.8719 9.42578H16.2207C16.1519 9.42578 16.1519 9.42578 16.0831 9.35698V9.21937L18.8351 5.0225L18.9039 4.95369C19.1792 5.0913 19.2479 5.1601 19.2479 5.1601L22 9.35696V9.49457C22 9.56337 21.9312 9.56337 21.8624 9.56337H20.2112C20.2112 11.5586 19.592 13.3475 18.5599 14.8611C18.5599 14.8611 18.5599 14.9299 18.4911 14.9299C18.3535 15.0675 18.2847 15.2051 18.1471 15.3427C18.0783 15.4115 18.0783 15.4803 18.0095 15.4803C17.8719 15.6867 17.6655 15.8931 17.4591 16.0995C17.4591 16.0995 17.4591 16.1683 17.3903 16.1683C16.7711 16.7875 16.0831 17.3379 15.3263 17.7507C15.3263 17.7507 15.2575 17.7507 15.2575 17.8195C15.0511 17.9571 14.8447 18.0259 14.5695 18.1635C14.5007 18.1635 14.4319 18.2323 14.4319 18.2323L13.8126 18.4388C13.7438 18.4388 13.6062 18.5076 13.5374 18.5076C13.331 18.5763 13.1934 18.5763 12.987 18.6451C12.8494 18.6451 12.7806 18.714 12.643 18.714H12.5054C12.3678 18.714 12.1614 18.7828 11.955 18.7828H11.7486C11.4734 18.7828 11.1294 18.8516 10.8542 18.8516C8.99655 18.8516 7.13892 18.3011 5.5565 17.1315C5.0749 16.7875 4.93728 16.0995 5.28129 15.5491C5.76289 15.1363 6.45091 14.9987 6.93251 15.3427ZM1.70362 9.49457C1.70362 7.49933 2.32283 5.71051 3.35486 4.19688C3.35486 4.19688 3.35486 4.12809 3.42365 4.12809C3.56125 3.92168 3.69886 3.78406 3.83646 3.57767C3.83646 3.57767 3.83646 3.50887 3.90525 3.50887C4.86849 2.33925 6.03811 1.44483 7.34533 0.894418C7.41413 0.894418 7.41413 0.894418 7.48292 0.825621C7.68933 0.756805 7.89574 0.688008 8.10214 0.550395C8.17095 0.550395 8.23975 0.481617 8.30855 0.481617C8.51495 0.412801 8.72135 0.344004 8.85896 0.344004C8.99655 0.344004 9.06535 0.275207 9.20296 0.275207C9.27176 0.275207 9.34056 0.275207 9.34056 0.20641C9.47817 0.20641 9.61578 0.137594 9.75338 0.137594C9.82217 0.137594 9.95977 0.137594 10.0286 0.0687971C10.3038 0.0687971 10.5102 0.0687971 10.7854 0H10.923C12.7806 0 14.6383 0.550414 16.2207 1.72002C16.7711 2.20164 16.9087 2.88966 16.5647 3.37126C16.2207 3.85286 15.5327 3.99047 15.0511 3.64647C13.8126 2.75205 12.4366 2.33925 10.9918 2.33925H10.1662C10.0286 2.33925 9.82217 2.40805 9.68458 2.40805C9.61576 2.40805 9.54697 2.40805 9.47817 2.47684C9.34056 2.54564 9.13417 2.54564 8.99657 2.61446C8.92776 2.61446 8.92776 2.61446 8.85896 2.68325C8.65255 2.82085 8.44614 2.88966 8.23975 2.95846H8.17095C7.13892 3.44006 6.2445 4.12809 5.4877 4.95371C4.52448 6.19213 3.90525 7.77455 3.90525 9.49457H5.5565C5.62529 9.49457 5.62529 9.49457 5.69409 9.56337V9.70098L2.94204 13.8978L2.87324 13.9667C2.80444 13.9667 2.80444 13.9667 2.80444 13.8979L0.0523758 9.70098V9.56337C0.0523758 9.49457 0.121191 9.49457 0.189989 9.49457H1.70363H1.70362Z" fill="#0F50A4"/>
</svg>
