<svg width="23" height="23" viewBox="0 0 23 23" fill="none" xmlns="http://www.w3.org/2000/svg">
<path d="M6.46875 7.1875C6.46875 8.14062 6.84738 9.05471 7.52134 9.72866C8.19529 10.4026 9.10938 10.7812 10.0625 10.7812C11.0156 10.7812 11.9297 10.4026 12.6037 9.72866C13.2776 9.05471 13.6562 8.14062 13.6562 7.1875C13.6562 6.23438 13.2776 5.32029 12.6037 4.64634C11.9297 3.97238 11.0156 3.59375 10.0625 3.59375C9.10938 3.59375 8.19529 3.97238 7.52134 4.64634C6.84738 5.32029 6.46875 6.23438 6.46875 7.1875Z" fill="#FAFAFA"/>
<path d="M10.0625 11.5C7.61875 11.5 5.75 9.63125 5.75 7.1875C5.75 4.74375 7.61875 2.875 10.0625 2.875C12.5062 2.875 14.375 4.74375 14.375 7.1875C14.375 9.63125 12.5062 11.5 10.0625 11.5ZM10.0625 4.3125C8.48125 4.3125 7.1875 5.60625 7.1875 7.1875C7.1875 8.76875 8.48125 10.0625 10.0625 10.0625C11.6438 10.0625 12.9375 8.76875 12.9375 7.1875C12.9375 5.60625 11.6438 4.3125 10.0625 4.3125Z" fill="#0F50A4"/>
<path d="M16.9624 16.3875C17.3937 17.1062 17.2499 17.825 16.6749 18.4C16.0999 18.975 15.2374 19.4062 14.2312 19.4062H5.7499C4.74365 19.4062 3.88115 18.975 3.30615 18.4C2.8749 17.825 2.73115 17.1062 3.01865 16.3875C4.45615 13.9437 7.04365 12.2188 10.0624 12.2188C13.0812 12.2188 15.6687 13.9437 16.9624 16.3875Z" fill="#0685CF"/>
<path d="M14.375 20.125H5.74998C4.59998 20.125 3.44998 19.6938 2.73123 18.8313C2.01248 17.9688 1.86873 16.9625 2.44373 15.9563C4.02498 13.225 6.89998 11.5 10.0625 11.5C13.225 11.5 16.1 13.225 17.6812 15.9563C18.2562 16.9625 18.1125 17.9688 17.3937 18.8313C16.675 19.6938 15.525 20.125 14.375 20.125ZM10.0625 12.9375C7.47498 12.9375 5.03123 14.375 3.73748 16.675C3.44998 17.1063 3.59373 17.5375 3.88123 17.9688C4.31248 18.4 5.03123 18.6875 5.74998 18.6875H14.375C15.0937 18.6875 15.8125 18.4 16.2437 17.9688C16.5312 17.5375 16.675 17.25 16.3875 16.675C15.0937 14.375 12.65 12.9375 10.0625 12.9375ZM22.2812 5.75H20.125V3.59375C20.125 3.1625 19.8375 2.875 19.4062 2.875C18.975 2.875 18.6875 3.1625 18.6875 3.59375V5.75H16.5312C16.1 5.75 15.8125 6.0375 15.8125 6.46875C15.8125 6.9 16.1 7.1875 16.5312 7.1875H18.6875V9.34375C18.6875 9.775 18.975 10.0625 19.4062 10.0625C19.8375 10.0625 20.125 9.775 20.125 9.34375V7.1875H22.2812C22.7125 7.1875 23 6.9 23 6.46875C23 6.0375 22.7125 5.75 22.2812 5.75Z" fill="#0F50A4"/>
</svg>
