<svg width="16" height="16" viewBox="0 0 16 16" fill="none" xmlns="http://www.w3.org/2000/svg">
<path d="M14.0501 12.4517C14.3243 12.7241 14.596 12.9966 14.8701 13.2665C14.9649 13.3596 15.0371 13.4564 14.9766 13.5965C14.916 13.7367 14.7988 13.7513 14.6656 13.7509C13.8068 13.7488 12.9475 13.7509 12.0887 13.7509C11.8253 13.7509 11.7485 13.6725 11.7485 13.4038C11.7485 12.5501 11.7485 11.6961 11.7485 10.8424C11.7485 10.7043 11.7636 10.5788 11.9105 10.5199C12.0574 10.4611 12.1471 10.542 12.2393 10.6355C12.473 10.8725 12.7088 11.1074 12.9538 11.3535C12.9838 11.3172 13.0114 11.2893 13.0326 11.2572C14.4716 9.08759 14.2784 6.08899 12.5782 4.12261C11.6071 3.00027 10.3935 2.30893 8.92907 2.07487C7.84384 1.89879 6.731 2.02883 5.71564 2.45037C5.66765 2.46998 5.62049 2.49209 5.57167 2.50962C5.40974 2.56761 5.29999 2.52964 5.22069 2.37569C5.07797 2.09754 4.93886 1.81841 4.80337 1.53832C4.71406 1.35349 4.76163 1.23541 4.94901 1.14946C5.67445 0.818488 6.45035 0.611726 7.24431 0.53781C9.0117 0.370919 10.6543 0.753515 12.127 1.74526C14.028 3.02406 15.1485 4.81145 15.4377 7.08867C15.6789 8.99121 15.2178 10.7319 14.1285 12.3082C14.1077 12.3382 14.0868 12.3678 14.0668 12.3983C14.0594 12.4155 14.0538 12.4334 14.0501 12.4517Z" fill="white"/>
<path d="M1.95808 3.5587L1.18978 2.7956C1.15306 2.75888 1.09922 2.72842 1.08253 2.6842C1.04998 2.59783 1.01033 2.49937 1.0241 2.41384C1.04205 2.30202 1.14471 2.25195 1.26073 2.25195C2.16674 2.25195 3.07276 2.25195 3.97878 2.25195C4.15281 2.25195 4.24796 2.34958 4.24837 2.52607C4.25046 3.42686 4.24837 4.32765 4.24837 5.22802C4.2529 5.28052 4.24057 5.33309 4.21318 5.37811C4.18579 5.42312 4.14476 5.45824 4.09605 5.47836C3.9792 5.53009 3.88363 5.49087 3.80016 5.40618C3.54977 5.15584 3.30354 4.90175 3.04063 4.63431C2.99514 4.70107 2.95967 4.74988 2.92753 4.8012C0.817108 8.11355 2.46555 12.5845 6.22442 13.7298C7.60856 14.1518 8.97183 14.0859 10.3142 13.5321C10.613 13.4094 10.6844 13.4357 10.8288 13.7236C10.9477 13.9605 11.0675 14.1971 11.1844 14.4354C11.2866 14.644 11.2445 14.7658 11.0312 14.8588C9.90873 15.3581 8.67965 15.5703 7.4547 15.4763C5.63557 15.3374 4.06559 14.631 2.76185 13.3602C1.50987 12.1414 0.769115 10.6557 0.559199 8.91963C0.325913 6.99288 0.784138 5.2347 1.89799 3.64674C1.9151 3.62588 1.92845 3.60376 1.95808 3.5587Z" fill="white"/>
</svg>
