<svg width="30" height="36" viewBox="0 0 30 36" fill="none" xmlns="http://www.w3.org/2000/svg">
<path d="M13.0861 14.6705H6.28319C5.61122 14.6705 5.06512 14.1244 5.06512 13.4524C5.06512 12.7805 5.61122 12.2344 6.28319 12.2344H13.0861C13.758 12.2344 14.3041 12.7805 14.3041 13.4524C14.3041 14.1244 13.7601 14.6705 13.0861 14.6705ZM17.0143 21.4734H6.28319C5.61122 21.4734 5.06512 20.9273 5.06512 20.2553C5.06512 19.5834 5.61122 19.0373 6.28319 19.0373H17.0123C17.6843 19.0373 18.2304 19.5834 18.2304 20.2553C18.2304 20.9273 17.6863 21.4734 17.0143 21.4734ZM20.6685 28.2377H6.28319C5.61122 28.2377 5.06512 27.6916 5.06512 27.0196C5.06512 26.3477 5.61122 25.8016 6.28319 25.8016H20.6665C21.3385 25.8016 21.8846 26.3477 21.8846 27.0196C21.8846 27.6916 21.3405 28.2377 20.6685 28.2377Z" fill="#ED1E26"/>
<path d="M28.7321 10.8914L18.0537 1.14685C17.8296 0.942227 17.5371 0.828577 17.2336 0.828125H5.27828C2.3671 0.828125 0 3.19523 0 6.1064V30.5895C0 33.5007 2.3671 35.8678 5.27828 35.8678H23.8517C26.7629 35.8678 29.13 33.5007 29.13 30.5895V11.7907C29.13 11.4476 28.9859 11.1208 28.7321 10.8914ZM25.4799 11.2202H18.3156C18.0761 11.2202 17.8812 11.0253 17.8812 10.7858V4.2854L25.4799 11.2202ZM23.8517 33.4296H5.27828C3.71103 33.4296 2.43613 32.1547 2.43613 30.5875V6.1064C2.43613 4.53916 3.71103 3.26425 5.27828 3.26425H15.4451V10.7858C15.4451 12.3693 16.7321 13.6564 18.3156 13.6564H26.6939V30.5875C26.6939 32.1547 25.419 33.4296 23.8517 33.4296Z" fill="#0F50A4"/>
</svg>
