<svg width="48" height="48" viewBox="0 0 48 48" fill="none" xmlns="http://www.w3.org/2000/svg">
<path d="M22.7784 19.5936H14.736C13.9416 19.5936 13.296 18.948 13.296 18.1536C13.296 17.3592 13.9416 16.7136 14.736 16.7136H22.7784C23.5728 16.7136 24.2184 17.3592 24.2184 18.1536C24.2184 18.948 23.5752 19.5936 22.7784 19.5936ZM27.4224 27.636H14.736C13.9416 27.636 13.296 26.9904 13.296 26.196C13.296 25.4016 13.9416 24.756 14.736 24.756H27.42C28.2144 24.756 28.86 25.4016 28.86 26.196C28.86 26.9904 28.2168 27.636 27.4224 27.636ZM31.7424 35.6328H14.736C13.9416 35.6328 13.296 34.9872 13.296 34.1928C13.296 33.3984 13.9416 32.7528 14.736 32.7528H31.74C32.5344 32.7528 33.18 33.3984 33.18 34.1928C33.18 34.9872 32.5368 35.6328 31.7424 35.6328Z" fill="#ED1E26"/>
<path d="M41.2752 15.1296L28.6512 3.60959C28.3862 3.36768 28.0404 3.23332 27.6816 3.23279H13.548C10.1064 3.23279 7.30799 6.03119 7.30799 9.47279V38.4168C7.30799 41.8584 10.1064 44.6568 13.548 44.6568H35.5056C38.9472 44.6568 41.7456 41.8584 41.7456 38.4168V16.1928C41.7456 15.7872 41.5752 15.4008 41.2752 15.1296ZM37.4304 15.5184H28.9608C28.6776 15.5184 28.4472 15.288 28.4472 15.0048V7.31999L37.4304 15.5184ZM35.5056 41.7744H13.548C11.6952 41.7744 10.188 40.2672 10.188 38.4144V9.47279C10.188 7.61999 11.6952 6.11279 13.548 6.11279H25.5672V15.0048C25.5672 16.8768 27.0888 18.3984 28.9608 18.3984H38.8656V38.4144C38.8656 40.2672 37.3584 41.7744 35.5056 41.7744Z" fill="#0F50A4"/>
</svg>
