<svg width="26" height="26" viewBox="0 0 26 26" fill="none" xmlns="http://www.w3.org/2000/svg">
<path d="M15.8671 6.13345H24.6769V4.0625H13.1296C14.1551 4.58918 15.0813 5.28991 15.8671 6.13345ZM24.6769 11.3128V9.24106H17.8301C18.0904 9.90004 18.2838 10.5929 18.3978 11.3128H24.6769ZM24.6769 16.4914V14.4196H18.3978C18.2838 15.1388 18.0908 15.8316 17.8301 16.4914H24.6769ZM13.1296 21.6699H24.6769V19.5982H15.8671C15.0815 20.4421 14.1552 21.1431 13.1296 21.6699ZM8.63113 5.04721C4.31354 5.04721 0.8125 8.54786 0.8125 12.8666C0.8125 17.1846 4.31354 20.6845 8.63113 20.6845C12.9487 20.6845 16.4498 17.1846 16.4498 12.8666C16.4497 8.54786 12.9487 5.04721 8.63113 5.04721ZM15.3308 12.8602C15.3308 16.5605 12.3315 19.5606 8.6311 19.5606C4.93073 19.5606 1.93075 16.5605 1.93075 12.8602C1.93075 9.16017 4.93073 6.16058 8.6311 6.16058C12.3315 6.16058 15.3308 9.1602 15.3308 12.8602Z" fill="#0F50A4"/>
<path d="M8.93262 13.5415V15.3498C9.23518 15.2669 9.63274 15.0675 9.63274 14.4931C9.63276 13.8867 9.17299 13.6672 8.93262 13.5415Z" fill="#0685CF"/>
<path d="M8.63269 7.40967C5.61901 7.41553 3.18232 9.85221 3.17676 12.8653C3.18232 15.8789 5.61901 18.315 8.63269 18.3215C11.6451 18.315 14.0821 15.879 14.088 12.8653C14.0821 9.85221 11.6451 7.41553 8.63269 7.40967ZM10.8336 14.4306C10.8336 15.8832 9.69536 16.3643 9.00568 16.4782V16.9488C9.00568 17.1263 8.97359 17.1577 8.78629 17.1577H8.57671C8.38877 17.1577 8.35698 17.1263 8.35698 16.9488V16.4782C8.00267 16.4782 6.5392 16.2385 6.5392 15.9251C6.5392 15.8937 6.5392 15.8937 6.56083 15.8308L6.86339 14.9535C6.87356 14.9322 6.91548 14.8694 6.95772 14.8694C7.01993 14.8694 7.72072 15.2771 8.35698 15.3498V13.3028C7.72072 13.0205 6.51891 12.6544 6.51891 11.2744C6.51891 9.73925 7.87659 9.30044 8.35698 9.27914V8.76733C8.35698 8.58916 8.38877 8.55775 8.57671 8.55775H8.78629C8.97361 8.55775 9.00568 8.58918 9.00568 8.76733V9.27914C9.30892 9.30042 10.646 9.53033 10.646 9.8853C10.646 9.92722 10.6358 9.95863 10.6148 10.0005L10.2913 10.7108C10.2694 10.7632 10.2383 10.794 10.197 10.794C10.1335 10.794 9.45498 10.3765 9.00568 10.3765V12.3099C9.68485 12.6439 10.8336 13.0935 10.8336 14.4306Z" fill="#0685CF"/>
<path d="M7.7207 11.1912C7.7207 11.7561 8.20076 11.9752 8.4313 12.08V10.3765C8.22172 10.4285 7.7207 10.5749 7.7207 11.1912Z" fill="#0685CF"/>
</svg>
