<svg width="20" height="20" viewBox="0 0 20 20" fill="none" xmlns="http://www.w3.org/2000/svg">
<g clip-path="url(#clip0_13327_40790)">
<path d="M16.1817 0.937012C17.6257 0.937012 18.9604 2.08218 18.9604 3.53954V8.12021C18.9604 8.43369 18.739 8.64097 18.403 8.64097C18.0684 8.64097 17.847 8.43369 17.847 8.11893V3.53827C17.847 2.70658 17.0684 1.97854 16.1817 1.97854H2.84703C1.95769 1.97854 1.18169 2.70786 1.18169 3.53954V16.0276C1.18169 16.8593 1.96036 17.5886 2.84703 17.5886H7.40303C7.73903 17.5886 7.96036 17.7959 7.96036 18.1094C7.96036 18.4229 7.73903 18.6301 7.40303 18.6301H2.84703C1.28969 18.6301 0.0683594 17.485 0.0683594 16.0276V3.53954C0.0683594 2.0809 1.28969 0.937012 2.84703 0.937012H16.1817ZM3.96036 6.14208C3.62569 6.14208 3.40303 5.9348 3.40303 5.62132C3.40303 5.30655 3.62569 5.09927 3.96036 5.09927H15.071C15.2924 5.09927 15.6284 5.30655 15.6284 5.62132C15.6284 5.9348 15.2924 6.14208 15.071 6.14208H3.96036ZM3.96036 9.26281C3.62569 9.26281 3.40303 9.05553 3.40303 8.74205C3.40303 8.42729 3.62569 8.22001 3.96036 8.22001H9.51769C9.73903 8.22001 10.0737 8.42729 10.0737 8.74205C10.0737 9.05553 9.73903 9.26281 9.51769 9.26281H3.95903H3.96036Z" fill="#0F50A4"/>
<path d="M7.40558 18.68H2.84958C1.26291 18.68 0.0175781 17.5156 0.0175781 16.0275V3.53946C0.0175781 2.0501 1.26158 0.885742 2.84958 0.885742H16.1816C17.7162 0.885742 19.0122 2.10128 19.0122 3.53946V8.12012C19.0122 8.45919 18.7682 8.69078 18.4029 8.69078C18.0402 8.69078 17.7962 8.46175 17.7962 8.11884V3.53818C17.7962 2.73336 17.0429 2.02707 16.1816 2.02707H2.84824C1.99091 2.02707 1.23491 2.73336 1.23491 3.53946V16.0275C1.23491 16.8336 1.98824 17.5399 2.84824 17.5399H7.40558C7.76824 17.5399 8.01224 17.7689 8.01224 18.1118C8.01224 18.4522 7.76824 18.6812 7.40558 18.6812V18.68ZM2.84958 0.988103C1.32024 0.988103 0.121578 2.10896 0.121578 3.53946V16.0275C0.121578 17.458 1.31891 18.5802 2.84824 18.5802H7.40424C7.70958 18.5802 7.90824 18.3959 7.90824 18.1093C7.90824 17.8227 7.71224 17.6384 7.40424 17.6384H2.84958C1.93491 17.6384 1.13224 16.8861 1.13224 16.0275V3.53946C1.13224 2.6809 1.93491 1.92727 2.84958 1.92727H16.1816C17.0962 1.92727 17.8989 2.6809 17.8989 3.53946V8.12012C17.8989 8.40673 18.0962 8.5897 18.4029 8.5897C18.7096 8.5897 18.9069 8.40673 18.9069 8.11884V3.53818C18.9069 2.15374 17.6576 0.986824 16.1816 0.986824H2.84824L2.84958 0.988103ZM9.51624 9.31391H3.96291C3.60024 9.31391 3.35624 9.08615 3.35624 8.74324C3.35624 8.40289 3.60024 8.1713 3.96291 8.1713H9.52024C9.76824 8.1713 10.1256 8.39393 10.1256 8.74324C10.1256 9.08871 9.76024 9.31391 9.51624 9.31391ZM3.96291 8.27494C3.65758 8.27494 3.45891 8.45791 3.45891 8.7458C3.45891 9.03241 3.65491 9.21538 3.96291 9.21538H9.52024C9.72158 9.21538 10.0242 9.01962 10.0242 8.7458C10.0242 8.46431 9.72158 8.27494 9.52024 8.27494H3.96158H3.96291ZM15.0736 6.19061H3.96291C3.60024 6.19061 3.35624 5.96158 3.35624 5.61867C3.35624 5.27576 3.60024 5.048 3.96291 5.048H15.0736C15.3229 5.048 15.6802 5.27064 15.6802 5.61867C15.6802 5.96414 15.3149 6.19061 15.0736 6.19061ZM3.96291 5.15164C3.65758 5.15164 3.45891 5.33462 3.45891 5.62251C3.45891 5.90912 3.65491 6.09209 3.96291 6.09209H15.0736C15.2762 6.09209 15.5776 5.89632 15.5776 5.62251C15.5776 5.34101 15.2762 5.15164 15.0736 5.15164H3.96291Z" fill="#0F50A4"/>
<path d="M16.161 12.751H11.2428L12.705 11.3742C12.7396 11.3435 12.7671 11.3062 12.786 11.2648C12.8048 11.2234 12.8146 11.1787 12.8146 11.1334C12.8146 11.0882 12.8048 11.0435 12.786 11.0021C12.7671 10.9607 12.7396 10.9234 12.705 10.8927C12.6717 10.86 12.6319 10.8341 12.5879 10.8164C12.544 10.7987 12.4968 10.7896 12.4492 10.7896C12.4016 10.7896 12.3544 10.7987 12.3105 10.8164C12.2665 10.8341 12.2267 10.86 12.1934 10.8927L10.1092 12.8368C10.0751 12.8679 10.0478 12.9053 10.0291 12.9467C10.0103 12.9881 10.0004 13.0327 10 13.0778C10 13.1642 10.0364 13.25 10.1092 13.3189L12.1757 15.2635C12.209 15.2962 12.2488 15.3221 12.2928 15.3398C12.3367 15.3575 12.3839 15.3666 12.4315 15.3666C12.4792 15.3666 12.5263 15.3575 12.5703 15.3398C12.6142 15.3221 12.654 15.2962 12.6874 15.2635C12.722 15.2328 12.7496 15.1955 12.7685 15.154C12.7874 15.1125 12.7972 15.0678 12.7972 15.0225C12.7972 14.9772 12.7874 14.9324 12.7685 14.891C12.7496 14.8495 12.722 14.8122 12.6874 14.7815L11.2615 13.4391H16.161C17.5317 13.4391 18.6289 14.4721 18.6289 15.7625C18.6289 17.053 17.5317 18.0854 16.161 18.0854H12.4128C12.3168 18.0847 12.2243 18.1206 12.1557 18.1851C12.0872 18.2496 12.048 18.3376 12.0467 18.4297C12.0467 18.6189 12.2116 18.7736 12.4128 18.7736H16.1604C17.9342 18.7736 19.36 17.4312 19.36 15.7625C19.36 14.0933 17.9342 12.751 16.161 12.751Z" fill="#ED1E26" stroke="#ED1E26" stroke-width="0.5"/>
</g>
<defs>
<clipPath id="clip0_13327_40790">
<rect width="20" height="19.1927" fill="white" transform="translate(0 0.233398)"/>
</clipPath>
</defs>
</svg>
