<svg width="24" height="20" viewBox="0 0 24 20" fill="none" xmlns="http://www.w3.org/2000/svg">
<path fill-rule="evenodd" clip-rule="evenodd" d="M5 0H8.36377V1.3H5C4.06112 1.3 3.3 2.06112 3.3 3V6.36328H2V3C2 1.34315 3.34315 0 5 0ZM2 13.636V17C2 18.6569 3.34315 20 5 20H8.36377V18.7H5C4.06112 18.7 3.3 17.9389 3.3 17V13.636H2ZM20.7 13.636V17C20.7 17.9389 19.9389 18.7 19 18.7H15.6365V20H19C20.6569 20 22 18.6569 22 17V13.636H20.7ZM22 6.36328V3C22 1.34315 20.6569 0 19 0H15.6365V1.3H19C19.9389 1.3 20.7 2.06112 20.7 3V6.36328H22Z" fill="#0685CF"/>
<path d="M11.9874 14.8303C11.2576 14.8303 10.5313 14.8339 9.80148 14.8303C8.74928 14.8268 8.03364 14.0946 8.00176 13.0424C7.94862 11.4962 9.1071 11.2898 10.3896 11.1476C11.5906 11.0161 12.7809 10.977 13.9642 11.2187C15.2751 11.4889 16.2706 11.9228 15.934 13.5187C15.771 14.2865 15.0837 14.8197 14.2973 14.8268C13.5249 14.8339 12.7561 14.8268 11.9874 14.8303Z" fill="#0F50A4"/>
<path d="M12.0068 10.3818C10.2107 10.3861 8.74067 8.96269 8.72763 7.21215C8.71458 5.44887 10.1846 4.00426 11.9938 4.00001C13.8073 3.99576 15.2773 5.43188 15.273 7.19941C15.2686 8.94994 13.8117 10.3733 12.0068 10.3818Z" fill="#0F50A4"/>
</svg>
