<svg width="22" height="22" viewBox="0 0 22 22" fill="none" xmlns="http://www.w3.org/2000/svg">
<path d="M15.5834 2.83333H18.7885C19.0442 2.83333 19.25 3.03913 19.25 3.29488V6.5C19.25 6.62039 19.2737 6.7396 19.3198 6.85084C19.3658 6.96207 19.4333 7.06314 19.5185 7.14827C19.6036 7.23341 19.7046 7.30094 19.8159 7.34702C19.9271 7.39309 20.0463 7.41681 20.1667 7.41681C20.2871 7.41681 20.4063 7.39309 20.5175 7.34702C20.6287 7.30094 20.7298 7.23341 20.8149 7.14827C20.9 7.06314 20.9676 6.96207 21.0136 6.85084C21.0597 6.7396 21.0834 6.62039 21.0834 6.5V3.29488C21.0835 2.99346 21.0243 2.69496 20.909 2.41645C20.7938 2.13794 20.6247 1.88489 20.4116 1.67175C20.1985 1.45862 19.9454 1.28958 19.6669 1.17432C19.3884 1.05905 19.0899 0.99982 18.7885 1H15.5834C15.463 0.999982 15.3438 1.02368 15.2325 1.06974C15.1213 1.1158 15.0202 1.18331 14.9351 1.26844C14.8499 1.35356 14.7824 1.45462 14.7363 1.56584C14.6903 1.67707 14.6666 1.79628 14.6666 1.91667C14.6666 2.03706 14.6903 2.15627 14.7363 2.26749C14.7824 2.37872 14.8499 2.47978 14.9351 2.5649C15.0202 2.65002 15.1213 2.71754 15.2325 2.7636C15.3438 2.80966 15.463 2.83335 15.5834 2.83333ZM19.25 15.6667V18.8718C19.25 19.1275 19.0442 19.3333 18.7885 19.3333H15.5834C15.463 19.3333 15.3438 19.357 15.2325 19.4031C15.1213 19.4491 15.0202 19.5166 14.9351 19.6018C14.8499 19.6869 14.7824 19.788 14.7363 19.8992C14.6903 20.0104 14.6666 20.1296 14.6666 20.25C14.6666 20.3704 14.6903 20.4896 14.7363 20.6008C14.7824 20.712 14.8499 20.8131 14.9351 20.8982C15.0202 20.9834 15.1213 21.0509 15.2325 21.0969C15.3438 21.143 15.463 21.1667 15.5834 21.1667H18.7885C19.0899 21.1668 19.3884 21.1076 19.6669 20.9923C19.9454 20.8771 20.1985 20.7081 20.4116 20.4949C20.6247 20.2818 20.7938 20.0287 20.909 19.7502C21.0243 19.4717 21.0835 19.1732 21.0834 18.8718V15.6667C21.0834 15.5463 21.0597 15.4271 21.0136 15.3158C20.9676 15.2046 20.9 15.1035 20.8149 15.0184C20.7298 14.9333 20.6287 14.8657 20.5175 14.8197C20.4063 14.7736 20.2871 14.7499 20.1667 14.7499C20.0463 14.7499 19.9271 14.7736 19.8159 14.8197C19.7046 14.8657 19.6036 14.9333 19.5185 15.0184C19.4333 15.1035 19.3658 15.2046 19.3198 15.3158C19.2737 15.4271 19.25 15.5463 19.25 15.6667ZM6.41669 19.3333H3.21156C3.1509 19.3335 3.0908 19.3217 3.03472 19.2986C2.97865 19.2754 2.92769 19.2414 2.8848 19.1986C2.8419 19.1557 2.80791 19.1047 2.78478 19.0486C2.76165 18.9926 2.74984 18.9325 2.75002 18.8718V15.6667C2.75004 15.5463 2.72634 15.4271 2.68028 15.3158C2.63423 15.2046 2.56671 15.1035 2.48159 15.0184C2.39646 14.9333 2.2954 14.8657 2.18418 14.8197C2.07296 14.7736 1.95374 14.7499 1.83335 14.7499C1.71296 14.7499 1.59375 14.7736 1.48253 14.8197C1.3713 14.8657 1.27025 14.9333 1.18512 15.0184C1.1 15.1035 1.03248 15.2046 0.986424 15.3158C0.940366 15.4271 0.916669 15.5463 0.916687 15.6667V18.8718C0.916507 19.1732 0.975742 19.4717 1.09101 19.7502C1.20627 20.0287 1.3753 20.2818 1.58844 20.4949C1.80157 20.7081 2.05463 20.8771 2.33314 20.9923C2.61165 21.1076 2.91014 21.1668 3.21156 21.1667H6.41669C6.53708 21.1667 6.65629 21.143 6.76752 21.0969C6.87876 21.0509 6.97983 20.9834 7.06496 20.8982C7.1501 20.8131 7.21763 20.712 7.2637 20.6008C7.30978 20.4896 7.3335 20.3704 7.3335 20.25C7.3335 20.1296 7.30978 20.0104 7.2637 19.8992C7.21763 19.788 7.1501 19.6869 7.06496 19.6018C6.97983 19.5166 6.87876 19.4491 6.76752 19.4031C6.65629 19.357 6.53708 19.3333 6.41669 19.3333ZM2.75002 6.5C2.75004 6.62039 2.72634 6.7396 2.68028 6.85084C2.63423 6.96207 2.56671 7.06314 2.48159 7.14827C2.39646 7.23341 2.2954 7.30094 2.18418 7.34702C2.07296 7.39309 1.95374 7.41681 1.83335 7.41681C1.71296 7.41681 1.59375 7.39309 1.48253 7.34702C1.3713 7.30094 1.27025 7.23341 1.18512 7.14827C1.1 7.06314 1.03248 6.96207 0.986424 6.85084C0.940366 6.7396 0.916669 6.62039 0.916687 6.5V3.29488C0.916507 2.99346 0.975742 2.69496 1.09101 2.41645C1.20627 2.13794 1.3753 1.88489 1.58844 1.67175C1.80157 1.45862 2.05463 1.28958 2.33314 1.17432C2.61165 1.05905 2.91014 0.99982 3.21156 1H6.41669C6.53708 0.999982 6.65629 1.02368 6.76752 1.06974C6.87876 1.1158 6.97983 1.18331 7.06496 1.26844C7.1501 1.35356 7.21763 1.45462 7.2637 1.56584C7.30978 1.67707 7.3335 1.79628 7.3335 1.91667C7.3335 2.03706 7.30978 2.15627 7.2637 2.26749C7.21763 2.37872 7.1501 2.47978 7.06496 2.5649C6.97983 2.65002 6.87876 2.71754 6.76752 2.7636C6.65629 2.80966 6.53708 2.83335 6.41669 2.83333H3.21156C2.95581 2.83333 2.75002 3.03913 2.75002 3.29488V6.5ZM1.83335 12C1.59024 12 1.35708 11.9034 1.18517 11.7315C1.01326 11.5596 0.916687 11.3264 0.916687 11.0833C0.916687 10.8402 1.01326 10.6071 1.18517 10.4352C1.35708 10.2632 1.59024 10.1667 1.83335 10.1667H20.1667C20.4098 10.1667 20.643 10.2632 20.8149 10.4352C20.9868 10.6071 21.0834 10.8402 21.0834 11.0833C21.0834 11.3264 20.9868 11.5596 20.8149 11.7315C20.643 11.9034 20.4098 12 20.1667 12H1.83335Z" fill="#0F50A4"/>
</svg>
