<svg width="16" height="16" viewBox="0 0 16 16" fill="none" xmlns="http://www.w3.org/2000/svg">
<path d="M14.9308 14.4567L12.5468 12.0933C13.6086 10.8117 14.2509 9.1512 14.2509 7.3386C14.2509 3.2922 11.0541 0 7.12501 0C3.1959 0 0 3.2922 0 7.3386C0 11.385 3.19677 14.6772 7.12589 14.6772C8.91828 14.6772 10.5569 13.9905 11.8101 12.8619L14.2046 15.2352C14.3021 15.3323 14.4325 15.3866 14.5681 15.3864C14.7053 15.3864 14.8434 15.3306 14.9457 15.2208C15.1467 15.0048 15.1397 14.6628 14.9308 14.4567ZM7.12501 13.5972C3.77443 13.5972 1.04782 10.7901 1.04782 7.3386C1.04782 3.888 3.77356 1.08 7.12501 1.08C10.4765 1.08 13.2022 3.8871 13.2022 7.3386C13.2022 10.7901 10.4765 13.5972 7.12501 13.5972Z" fill="#6D7174"/>
<path d="M11.5846 7.87859C11.2953 7.87859 11.0603 7.63649 11.0603 7.33859C11.0603 5.10389 9.29496 3.28679 7.12591 3.28679C6.83665 3.28679 6.60156 3.04469 6.60156 2.74679C6.60156 2.44889 6.83665 2.20679 7.12591 2.20679C9.87349 2.20679 12.109 4.50899 12.109 7.33859C12.109 7.63739 11.8739 7.87859 11.5846 7.87859Z" fill="#6D7174"/>
</svg>
