<svg width="14" height="14" viewBox="0 0 14 14" fill="none" xmlns="http://www.w3.org/2000/svg">
<path fill-rule="evenodd" clip-rule="evenodd" d="M2 6.25C2 3.90279 3.90279 2 6.25 2C8.59721 2 10.5 3.90279 10.5 6.25C10.5 8.59721 8.59721 10.5 6.25 10.5C3.90279 10.5 2 8.59721 2 6.25ZM6.25 0C2.79822 0 0 2.79822 0 6.25C0 9.70178 2.79822 12.5 6.25 12.5C7.61497 12.5 8.87775 12.0624 9.9057 11.3199L12.2929 13.7071C12.6834 14.0976 13.3166 14.0976 13.7071 13.7071C14.0976 13.3166 14.0976 12.6834 13.7071 12.2929L11.3199 9.9057C12.0624 8.87775 12.5 7.61497 12.5 6.25C12.5 2.79822 9.70178 0 6.25 0Z" fill="#E0E0E0"/>
</svg>
