<svg width="100" height="129" viewBox="0 0 100 129" fill="none" xmlns="http://www.w3.org/2000/svg">
<path d="M4.21094 113.625H8.23438C9.09896 113.625 9.83594 113.755 10.4453 114.016C11.0547 114.276 11.5208 114.661 11.8438 115.172C12.1719 115.677 12.3359 116.302 12.3359 117.047C12.3359 117.615 12.2318 118.115 12.0234 118.547C11.8151 118.979 11.5208 119.344 11.1406 119.641C10.7604 119.932 10.3073 120.159 9.78125 120.32L9.1875 120.609H5.57031L5.55469 119.055H8.26562C8.73438 119.055 9.125 118.971 9.4375 118.805C9.75 118.638 9.98438 118.411 10.1406 118.125C10.3021 117.833 10.3828 117.505 10.3828 117.141C10.3828 116.745 10.3047 116.401 10.1484 116.109C9.9974 115.812 9.76302 115.586 9.44531 115.43C9.1276 115.268 8.72396 115.188 8.23438 115.188H6.17188V125H4.21094V113.625ZM10.7031 125L8.03125 119.891L10.0859 119.883L12.7969 124.898V125H10.7031ZM17.8281 125.156C17.2031 125.156 16.638 125.055 16.1328 124.852C15.6328 124.643 15.2057 124.354 14.8516 123.984C14.5026 123.615 14.2344 123.18 14.0469 122.68C13.8594 122.18 13.7656 121.641 13.7656 121.062V120.75C13.7656 120.089 13.862 119.49 14.0547 118.953C14.2474 118.417 14.5156 117.958 14.8594 117.578C15.2031 117.193 15.6094 116.898 16.0781 116.695C16.5469 116.492 17.0547 116.391 17.6016 116.391C18.2057 116.391 18.7344 116.492 19.1875 116.695C19.6406 116.898 20.0156 117.185 20.3125 117.555C20.6146 117.919 20.8385 118.354 20.9844 118.859C21.1354 119.365 21.2109 119.922 21.2109 120.531V121.336H14.6797V119.984H19.3516V119.836C19.3411 119.497 19.2734 119.18 19.1484 118.883C19.0286 118.586 18.8438 118.346 18.5938 118.164C18.3438 117.982 18.0104 117.891 17.5938 117.891C17.2812 117.891 17.0026 117.958 16.7578 118.094C16.5182 118.224 16.3177 118.414 16.1562 118.664C15.9948 118.914 15.8698 119.216 15.7812 119.57C15.6979 119.919 15.6562 120.312 15.6562 120.75V121.062C15.6562 121.432 15.7057 121.776 15.8047 122.094C15.9089 122.406 16.0599 122.68 16.2578 122.914C16.4557 123.148 16.6953 123.333 16.9766 123.469C17.2578 123.599 17.5781 123.664 17.9375 123.664C18.3906 123.664 18.7943 123.573 19.1484 123.391C19.5026 123.208 19.8099 122.951 20.0703 122.617L21.0625 123.578C20.8802 123.844 20.6432 124.099 20.3516 124.344C20.0599 124.583 19.7031 124.779 19.2812 124.93C18.8646 125.081 18.3802 125.156 17.8281 125.156ZM27.8281 128.25V118.227L28.0469 116.547H29.7266V128.25H27.8281ZM22.3359 120.859V120.695C22.3359 120.055 22.4089 119.471 22.5547 118.945C22.7005 118.414 22.9167 117.958 23.2031 117.578C23.4896 117.198 23.8385 116.906 24.25 116.703C24.6615 116.495 25.1354 116.391 25.6719 116.391C26.1927 116.391 26.6458 116.49 27.0312 116.688C27.4219 116.885 27.75 117.169 28.0156 117.539C28.2865 117.904 28.5026 118.339 28.6641 118.844C28.8255 119.349 28.9427 119.911 29.0156 120.531V121.055C28.9479 121.659 28.8333 122.211 28.6719 122.711C28.5104 123.211 28.2943 123.643 28.0234 124.008C27.7526 124.372 27.4219 124.656 27.0312 124.859C26.6406 125.057 26.1823 125.156 25.6562 125.156C25.1302 125.156 24.6615 125.049 24.25 124.836C23.8385 124.622 23.4896 124.323 23.2031 123.938C22.9219 123.547 22.7057 123.091 22.5547 122.57C22.4089 122.044 22.3359 121.474 22.3359 120.859ZM24.2188 120.695V120.859C24.2188 121.245 24.2526 121.607 24.3203 121.945C24.3932 122.279 24.5078 122.576 24.6641 122.836C24.8203 123.091 25.0182 123.292 25.2578 123.438C25.4974 123.583 25.7865 123.656 26.125 123.656C26.5677 123.656 26.9297 123.56 27.2109 123.367C27.4974 123.174 27.7161 122.917 27.8672 122.594C28.0234 122.266 28.1328 121.904 28.1953 121.508V120.094C28.1589 119.786 28.0938 119.5 28 119.234C27.9062 118.964 27.776 118.729 27.6094 118.531C27.4479 118.328 27.2448 118.172 27 118.062C26.7604 117.948 26.474 117.891 26.1406 117.891C25.8021 117.891 25.5104 117.964 25.2656 118.109C25.0208 118.255 24.8203 118.458 24.6641 118.719C24.513 118.974 24.401 119.271 24.3281 119.609C24.2552 119.948 24.2188 120.31 24.2188 120.695ZM36.8281 123.008V116.547H38.7188V125H36.9375L36.8281 123.008ZM37.0938 121.25L37.7266 121.234C37.7266 121.802 37.6641 122.326 37.5391 122.805C37.4141 123.279 37.2214 123.693 36.9609 124.047C36.7005 124.396 36.3672 124.669 35.9609 124.867C35.5547 125.06 35.0677 125.156 34.5 125.156C34.0885 125.156 33.7109 125.096 33.3672 124.977C33.0234 124.857 32.7266 124.672 32.4766 124.422C32.2318 124.172 32.0417 123.846 31.9062 123.445C31.7708 123.044 31.7031 122.565 31.7031 122.008V116.547H33.5859V122.023C33.5859 122.331 33.6224 122.589 33.6953 122.797C33.7682 123 33.8672 123.164 33.9922 123.289C34.1172 123.414 34.263 123.503 34.4297 123.555C34.5964 123.607 34.7734 123.633 34.9609 123.633C35.4974 123.633 35.9193 123.529 36.2266 123.32C36.5391 123.107 36.7604 122.82 36.8906 122.461C37.026 122.102 37.0938 121.698 37.0938 121.25ZM42.6641 116.547V125H40.7734V116.547H42.6641ZM40.6484 114.328C40.6484 114.042 40.7422 113.805 40.9297 113.617C41.1224 113.424 41.388 113.328 41.7266 113.328C42.0599 113.328 42.3229 113.424 42.5156 113.617C42.7083 113.805 42.8047 114.042 42.8047 114.328C42.8047 114.609 42.7083 114.844 42.5156 115.031C42.3229 115.219 42.0599 115.312 41.7266 115.312C41.388 115.312 41.1224 115.219 40.9297 115.031C40.7422 114.844 40.6484 114.609 40.6484 114.328ZM46.6172 118.156V125H44.7344V116.547H46.5312L46.6172 118.156ZM49.2031 116.492L49.1875 118.242C49.0729 118.221 48.9479 118.206 48.8125 118.195C48.6823 118.185 48.5521 118.18 48.4219 118.18C48.099 118.18 47.8151 118.227 47.5703 118.32C47.3255 118.409 47.1198 118.539 46.9531 118.711C46.7917 118.878 46.6667 119.081 46.5781 119.32C46.4896 119.56 46.4375 119.828 46.4219 120.125L45.9922 120.156C45.9922 119.625 46.0443 119.133 46.1484 118.68C46.2526 118.227 46.4089 117.828 46.6172 117.484C46.8307 117.141 47.0964 116.872 47.4141 116.68C47.737 116.487 48.1094 116.391 48.5312 116.391C48.6458 116.391 48.7682 116.401 48.8984 116.422C49.0339 116.443 49.1354 116.466 49.2031 116.492ZM53.9531 125.156C53.3281 125.156 52.763 125.055 52.2578 124.852C51.7578 124.643 51.3307 124.354 50.9766 123.984C50.6276 123.615 50.3594 123.18 50.1719 122.68C49.9844 122.18 49.8906 121.641 49.8906 121.062V120.75C49.8906 120.089 49.987 119.49 50.1797 118.953C50.3724 118.417 50.6406 117.958 50.9844 117.578C51.3281 117.193 51.7344 116.898 52.2031 116.695C52.6719 116.492 53.1797 116.391 53.7266 116.391C54.3307 116.391 54.8594 116.492 55.3125 116.695C55.7656 116.898 56.1406 117.185 56.4375 117.555C56.7396 117.919 56.9635 118.354 57.1094 118.859C57.2604 119.365 57.3359 119.922 57.3359 120.531V121.336H50.8047V119.984H55.4766V119.836C55.4661 119.497 55.3984 119.18 55.2734 118.883C55.1536 118.586 54.9688 118.346 54.7188 118.164C54.4688 117.982 54.1354 117.891 53.7188 117.891C53.4062 117.891 53.1276 117.958 52.8828 118.094C52.6432 118.224 52.4427 118.414 52.2812 118.664C52.1198 118.914 51.9948 119.216 51.9062 119.57C51.8229 119.919 51.7812 120.312 51.7812 120.75V121.062C51.7812 121.432 51.8307 121.776 51.9297 122.094C52.0339 122.406 52.1849 122.68 52.3828 122.914C52.5807 123.148 52.8203 123.333 53.1016 123.469C53.3828 123.599 53.7031 123.664 54.0625 123.664C54.5156 123.664 54.9193 123.573 55.2734 123.391C55.6276 123.208 55.9349 122.951 56.1953 122.617L57.1875 123.578C57.0052 123.844 56.7682 124.099 56.4766 124.344C56.1849 124.583 55.8281 124.779 55.4062 124.93C54.9896 125.081 54.5052 125.156 53.9531 125.156ZM63.9609 123.25V113H65.8516V125H64.1406L63.9609 123.25ZM58.4609 120.867V120.703C58.4609 120.062 58.5365 119.479 58.6875 118.953C58.8385 118.422 59.0573 117.966 59.3438 117.586C59.6302 117.201 59.9792 116.906 60.3906 116.703C60.8021 116.495 61.2656 116.391 61.7812 116.391C62.2917 116.391 62.7396 116.49 63.125 116.688C63.5104 116.885 63.8385 117.169 64.1094 117.539C64.3802 117.904 64.5964 118.341 64.7578 118.852C64.9193 119.357 65.0339 119.919 65.1016 120.539V121.062C65.0339 121.667 64.9193 122.219 64.7578 122.719C64.5964 123.219 64.3802 123.651 64.1094 124.016C63.8385 124.38 63.5078 124.661 63.1172 124.859C62.7318 125.057 62.2812 125.156 61.7656 125.156C61.2552 125.156 60.7943 125.049 60.3828 124.836C59.9766 124.622 59.6302 124.323 59.3438 123.938C59.0573 123.552 58.8385 123.099 58.6875 122.578C58.5365 122.052 58.4609 121.482 58.4609 120.867ZM60.3438 120.703V120.867C60.3438 121.253 60.3776 121.612 60.4453 121.945C60.5182 122.279 60.6302 122.573 60.7812 122.828C60.9323 123.078 61.1276 123.276 61.3672 123.422C61.612 123.562 61.9036 123.633 62.2422 123.633C62.6693 123.633 63.0208 123.539 63.2969 123.352C63.5729 123.164 63.7891 122.911 63.9453 122.594C64.1068 122.271 64.2161 121.911 64.2734 121.516V120.102C64.2422 119.794 64.1771 119.508 64.0781 119.242C63.9844 118.977 63.8568 118.745 63.6953 118.547C63.5339 118.344 63.3333 118.188 63.0938 118.078C62.8594 117.964 62.5807 117.906 62.2578 117.906C61.9141 117.906 61.6224 117.979 61.3828 118.125C61.1432 118.271 60.9453 118.471 60.7891 118.727C60.638 118.982 60.526 119.279 60.4531 119.617C60.3802 119.956 60.3438 120.318 60.3438 120.703ZM76.3125 120.758H73.3516V119.203H76.3125C76.8281 119.203 77.2448 119.12 77.5625 118.953C77.8802 118.786 78.112 118.557 78.2578 118.266C78.4089 117.969 78.4844 117.63 78.4844 117.25C78.4844 116.891 78.4089 116.555 78.2578 116.242C78.112 115.924 77.8802 115.669 77.5625 115.477C77.2448 115.284 76.8281 115.188 76.3125 115.188H73.9531V125H71.9922V113.625H76.3125C77.1927 113.625 77.9401 113.781 78.5547 114.094C79.1745 114.401 79.6458 114.828 79.9688 115.375C80.2917 115.917 80.4531 116.536 80.4531 117.234C80.4531 117.969 80.2917 118.599 79.9688 119.125C79.6458 119.651 79.1745 120.055 78.5547 120.336C77.9401 120.617 77.1927 120.758 76.3125 120.758ZM84.3047 113.625V125H82.3438V113.625H84.3047ZM95.7656 113.625V125H93.8047L88.7031 116.852V125H86.7422V113.625H88.7031L93.8203 121.789V113.625H95.7656Z" fill="white"/>
<g opacity="0.5">
<circle cx="50" cy="50" r="50" fill="white"/>
</g>
<path fill-rule="evenodd" clip-rule="evenodd" d="M53.3064 74.066V76.2624L53.3034 76.2616C53.3034 76.4918 53.3943 76.7126 53.556 76.8753C53.7177 77.0381 53.937 77.1296 54.1657 77.1296C54.3944 77.1296 54.6137 77.0381 54.7754 76.8753C54.9371 76.7126 55.0279 76.4918 55.0279 76.2616V74.0652L56.9174 75.1634C57.0153 75.2227 57.124 75.2617 57.2371 75.2782C57.3502 75.2947 57.4655 75.2883 57.5761 75.2595C57.6867 75.2307 57.7906 75.18 57.8816 75.1104C57.9725 75.0408 58.0488 74.9536 58.106 74.854C58.1631 74.7543 58.2 74.6443 58.2144 74.5301C58.2289 74.416 58.2206 74.3001 58.1901 74.1893C58.1595 74.0784 58.1074 73.9748 58.0367 73.8844C57.9659 73.794 57.878 73.7188 57.7781 73.663L55.8887 72.5648L57.7781 71.4666C57.8761 71.4097 57.9619 71.334 58.0308 71.2437C58.0997 71.1534 58.1502 71.0503 58.1796 70.9403C58.2089 70.8303 58.2164 70.7156 58.2017 70.6028C58.1869 70.4899 58.1503 70.381 58.0937 70.2824C58.0372 70.1838 57.962 70.0973 57.8723 70.028C57.7826 69.9586 57.6802 69.9078 57.5709 69.8783C57.3503 69.8187 57.1152 69.8497 56.9174 69.9646L55.0309 71.0643V68.868C55.0309 68.6378 54.9401 68.417 54.7784 68.2542C54.6167 68.0914 54.3974 68 54.1687 68C53.94 68 53.7207 68.0914 53.559 68.2542C53.3973 68.417 53.3064 68.6378 53.3064 68.868V71.0628L51.417 69.9646C51.2192 69.8497 50.9841 69.8187 50.7635 69.8783C50.5428 69.9378 50.3548 70.0832 50.2406 70.2824C50.1265 70.4816 50.0956 70.7182 50.1548 70.9403C50.214 71.1624 50.3584 71.3517 50.5563 71.4666L52.4465 72.5648L50.5563 73.663C50.3585 73.7779 50.2142 73.9671 50.1551 74.1892C50.096 74.4112 50.1269 74.6477 50.241 74.8468C50.3551 75.0459 50.5432 75.1912 50.7637 75.2507C50.9843 75.3102 51.2193 75.2791 51.417 75.1642L53.3064 74.066ZM43.2438 74.066V76.2624L43.237 76.2616C43.237 76.3756 43.2593 76.4884 43.3026 76.5938C43.346 76.6991 43.4095 76.7947 43.4895 76.8753C43.5696 76.9559 43.6647 77.0199 43.7693 77.0635C43.8739 77.1071 43.986 77.1296 44.0992 77.1296C44.2125 77.1296 44.3246 77.1071 44.4292 77.0635C44.5338 77.0199 44.6289 76.9559 44.7089 76.8753C44.789 76.7947 44.8525 76.6991 44.8958 76.5938C44.9392 76.4884 44.9615 76.3756 44.9615 76.2616V74.0652L46.8509 75.1634C46.9489 75.2227 47.0576 75.2617 47.1707 75.2782C47.2838 75.2947 47.399 75.2883 47.5097 75.2595C47.6203 75.2307 47.7241 75.18 47.8151 75.1104C47.9061 75.0408 47.9824 74.9536 48.0395 74.854C48.0967 74.7543 48.1335 74.6443 48.148 74.5301C48.1624 74.416 48.1541 74.3001 48.1236 74.1893C48.0931 74.0784 48.0409 73.9748 47.9702 73.8844C47.8995 73.794 47.8116 73.7188 47.7116 73.663L45.8222 72.5648L47.7116 71.4666C47.8133 71.412 47.9031 71.3373 47.9756 71.2471C48.0481 71.1568 48.1018 71.0529 48.1336 70.9413C48.1654 70.8298 48.1746 70.7129 48.1607 70.5977C48.1468 70.4825 48.1101 70.3713 48.0527 70.2707C47.9953 70.1701 47.9183 70.0821 47.8265 70.0119C47.7347 69.9418 47.6298 69.8909 47.518 69.8624C47.4063 69.8339 47.29 69.8282 47.176 69.8458C47.0621 69.8633 46.9528 69.9037 46.8547 69.9646L44.9675 71.0643V68.868C44.9675 68.6378 44.8766 68.417 44.7149 68.2542C44.5532 68.0914 44.3339 68 44.1052 68C43.8766 68 43.6572 68.0914 43.4955 68.2542C43.3338 68.417 43.243 68.6378 43.243 68.868V71.0628L41.3543 69.9646C41.1565 69.8497 40.9214 69.8187 40.7008 69.8783C40.4801 69.9378 40.2921 70.0832 40.1779 70.2824C40.0638 70.4816 40.0329 70.7182 40.0921 70.9403C40.1513 71.1624 40.2957 71.3517 40.4936 71.4666L42.383 72.5648L40.4936 73.663C40.2958 73.7779 40.1515 73.9671 40.0924 74.1892C40.0333 74.4112 40.0642 74.6477 40.1783 74.8468C40.2924 75.0459 40.4805 75.1912 40.701 75.2507C40.9216 75.3102 41.1566 75.2791 41.3543 75.1642L43.2438 74.066ZM33.1811 74.066V76.2624H33.1781C33.1781 76.4926 33.2689 76.7133 33.4306 76.8761C33.5923 77.0389 33.8116 77.1303 34.0403 77.1303C34.269 77.1303 34.4883 77.0389 34.65 76.8761C34.8117 76.7133 34.9025 76.4926 34.9025 76.2624V74.066L36.7927 75.1634C36.8907 75.2227 36.9994 75.2617 37.1125 75.2782C37.2256 75.2947 37.3408 75.2883 37.4515 75.2595C37.5621 75.2307 37.6659 75.18 37.7569 75.1104C37.8479 75.0408 37.9242 74.9536 37.9813 74.854C38.0385 74.7543 38.0753 74.6443 38.0898 74.5301C38.1042 74.416 38.0959 74.3001 38.0654 74.1893C38.0349 74.0784 37.9827 73.9748 37.912 73.8844C37.8413 73.794 37.7534 73.7188 37.6534 73.663L35.7633 72.5655L37.6534 71.4666C37.8513 71.3517 37.9957 71.1624 38.0549 70.9403C38.1141 70.7182 38.0832 70.4816 37.9691 70.2824C37.855 70.0832 37.6669 69.9378 37.4463 69.8783C37.2257 69.8187 36.9906 69.8497 36.7927 69.9646L34.9048 71.0643V68.868C34.9048 68.6378 34.8139 68.417 34.6522 68.2542C34.4905 68.0914 34.2712 68 34.0425 68C33.8139 68 33.5946 68.0914 33.4329 68.2542C33.2712 68.417 33.1803 68.6378 33.1803 68.868V71.0628L31.2916 69.9646C31.0938 69.8497 30.8587 69.8187 30.6381 69.8783C30.4174 69.9378 30.2294 70.0832 30.1152 70.2824C30.0011 70.4816 29.9702 70.7182 30.0294 70.9403C30.0886 71.1624 30.233 71.3517 30.4309 71.4666L32.3203 72.5648L30.4309 73.663C30.2331 73.7779 30.0888 73.9671 30.0297 74.1892C29.9706 74.4112 30.0015 74.6477 30.1156 74.8468C30.2298 75.0459 30.4178 75.1912 30.6383 75.2507C30.8589 75.3102 31.0939 75.2791 31.2916 75.1642L33.1811 74.066ZM63.1811 74.066V76.2624L63.1781 76.2616C63.1781 76.4918 63.2689 76.7126 63.4306 76.8753C63.5923 77.0381 63.8116 77.1296 64.0403 77.1296C64.269 77.1296 64.4883 77.0381 64.65 76.8753C64.8117 76.7126 64.9025 76.4918 64.9025 76.2616V74.0652L66.792 75.1634C66.8899 75.2227 66.9986 75.2617 67.1117 75.2782C67.2248 75.2947 67.3401 75.2883 67.4507 75.2595C67.5614 75.2307 67.6652 75.18 67.7562 75.1104C67.8471 75.0408 67.9234 74.9536 67.9806 74.854C68.0377 74.7543 68.0746 74.6443 68.089 74.5301C68.1035 74.416 68.0952 74.3001 68.0647 74.1893C68.0341 74.0784 67.982 73.9748 67.9113 73.8844C67.8405 73.794 67.7526 73.7188 67.6527 73.663L65.7633 72.5648L67.6527 71.4666C67.7507 71.4097 67.8365 71.334 67.9054 71.2437C67.9743 71.1534 68.0249 71.0503 68.0542 70.9403C68.0835 70.8303 68.091 70.7156 68.0763 70.6028C68.0615 70.4899 68.0249 70.381 67.9684 70.2824C67.9118 70.1838 67.8366 70.0973 67.7469 70.028C67.6572 69.9586 67.5548 69.9078 67.4455 69.8783C67.2249 69.8187 66.9898 69.8497 66.792 69.9646L64.9055 71.0643V68.868C64.9055 68.6378 64.8147 68.417 64.653 68.2542C64.4913 68.0914 64.272 68 64.0433 68C63.8146 68 63.5953 68.0914 63.4336 68.2542C63.2719 68.417 63.1811 68.6378 63.1811 68.868V71.0628L61.2916 69.9646C61.0938 69.8497 60.8587 69.8187 60.6381 69.8783C60.4174 69.9378 60.2294 70.0832 60.1152 70.2824C60.0011 70.4816 59.9702 70.7182 60.0294 70.9403C60.0886 71.1624 60.233 71.3517 60.4309 71.4666L62.3211 72.5648L60.4309 73.663C60.2331 73.7779 60.0888 73.9671 60.0297 74.1892C59.9706 74.4112 60.0015 74.6477 60.1156 74.8468C60.2298 75.0459 60.4178 75.1912 60.6383 75.2507C60.8589 75.3102 61.0939 75.2791 61.2916 75.1642L63.1811 74.066Z" fill="white"/>
<g clip-path="url(#clip0_17172_49598)">
<path d="M57.3614 30.8673H56.0975V28.3338C56.0975 26.654 55.4318 25.0429 54.2466 23.8551C53.0615 22.6673 51.4541 22 49.7781 22C48.1021 22 46.4947 22.6673 45.3096 23.8551C44.1245 25.0429 43.4587 26.654 43.4587 28.3338V30.8673H42.1948C41.525 30.8693 40.8832 31.1369 40.4096 31.6115C39.936 32.0862 39.669 32.7295 39.667 33.4008V46.0683C39.669 46.7397 39.936 47.3829 40.4096 47.8576C40.8832 48.3323 41.525 48.5998 42.1948 48.6019H57.3614C58.0312 48.5998 58.673 48.3323 59.1466 47.8576C59.6203 47.3829 59.8872 46.7397 59.8892 46.0683V33.4008C59.8872 32.7295 59.6203 32.0862 59.1466 31.6115C58.673 31.1369 58.0312 30.8693 57.3614 30.8673ZM49.7781 42.2681C49.2782 42.2681 48.7894 42.1195 48.3737 41.8411C47.9581 41.5627 47.6341 41.167 47.4427 40.7041C47.2514 40.2412 47.2014 39.7318 47.2989 39.2403C47.3964 38.7488 47.6372 38.2974 47.9907 37.9431C48.3442 37.5888 48.7946 37.3475 49.285 37.2497C49.7753 37.152 50.2836 37.2022 50.7454 37.3939C51.2073 37.5857 51.6021 37.9104 51.8799 38.327C52.1576 38.7437 52.3059 39.2335 52.3059 39.7346C52.3039 40.4059 52.0369 41.0491 51.5633 41.5238C51.0897 41.9985 50.4479 42.2661 49.7781 42.2681ZM45.9864 30.8673V28.3338C45.9864 27.3259 46.3859 26.3593 47.097 25.6466C47.8081 24.9339 48.7725 24.5335 49.7781 24.5335C50.7837 24.5335 51.7481 24.9339 52.4592 25.6466C53.1703 26.3593 53.5698 27.3259 53.5698 28.3338V30.8673H45.9864Z" fill="white"/>
</g>
<defs>
<clipPath id="clip0_17172_49598">
<rect width="28" height="26" fill="white" transform="translate(35 22)"/>
</clipPath>
</defs>
</svg>
