<svg width="20" height="20" viewBox="0 0 20 20" fill="none" xmlns="http://www.w3.org/2000/svg">
<path fill-rule="evenodd" clip-rule="evenodd" d="M9.30787 1.16819C9.45813 1.46443 9.53857 1.79451 9.53862 2.13289V7.40542C9.53854 7.97108 9.31349 8.51354 8.91352 8.91352C8.51354 9.31349 7.97108 9.53823 7.40542 9.53831H2.13289C1.56724 9.53823 1.02478 9.31349 0.624799 8.91352C0.224822 8.51354 8.15813e-05 7.97108 0 7.40542V2.13289C8.1587e-05 1.56724 0.224822 1.02478 0.624799 0.624799C1.02478 0.224822 1.56724 8.1587e-05 2.13289 0H7.40573C7.97138 8.15813e-05 8.51385 0.224822 8.91382 0.624799C9.06498 0.775959 9.19111 0.947469 9.28955 1.13289C9.29577 1.1446 9.30188 1.15637 9.30787 1.16819ZM8.30756 2.13289C8.30756 1.89363 8.21252 1.66416 8.04333 1.49498C7.87415 1.3258 7.64469 1.23075 7.40542 1.23075H2.13289C1.89363 1.23075 1.66416 1.3258 1.49498 1.49498C1.3258 1.66417 1.23075 1.89363 1.23075 2.13289V7.40573C1.23075 7.64499 1.3258 7.87446 1.49498 8.04364C1.66416 8.21283 1.89363 8.30787 2.13289 8.30787H7.40573C7.64499 8.30787 7.87446 8.21283 8.04364 8.04364C8.21282 7.87446 8.30787 7.64499 8.30787 7.40573L8.30756 2.13289ZM2.4615 4.923C2.42109 4.923 2.38108 4.91504 2.34375 4.89958C2.30642 4.88412 2.2725 4.86145 2.24393 4.83288C2.21536 4.80431 2.1927 4.77039 2.17723 4.73306C2.16177 4.69573 2.15381 4.65572 2.15381 4.61531V4.06086C2.15381 3.20857 2.72242 2.4615 3.50425 2.4615H5.42115C5.50275 2.4615 5.58101 2.49392 5.63872 2.55162C5.69642 2.60932 5.72884 2.68758 5.72884 2.76919C5.72884 2.85079 5.69642 2.92905 5.63872 2.98676C5.58101 3.04446 5.50275 3.07688 5.42115 3.07688H3.50425C3.02426 3.07688 2.76919 3.6061 2.76919 4.06086V4.61531C2.76919 4.69692 2.73677 4.77518 2.67907 4.83288C2.62137 4.89058 2.5431 4.923 2.4615 4.923ZM2.34427 5.97837C2.26397 5.97837 2.18397 5.94452 2.12581 5.88914C2.07012 5.83099 2.03658 5.75068 2.03658 5.67068C2.03658 5.59068 2.07012 5.51068 2.12581 5.45222C2.24273 5.33838 2.4455 5.33838 2.56273 5.45222C2.61811 5.51068 2.65196 5.59068 2.65196 5.67068C2.6514 5.75211 2.6188 5.83005 2.56122 5.88763C2.50364 5.94521 2.4257 5.97781 2.34427 5.97837ZM19.9997 7.40542C19.9996 7.97108 19.7749 8.51354 19.3749 8.91352C18.9749 9.31349 18.4325 9.53823 17.8668 9.53831H12.5943C12.0286 9.53823 11.4862 9.31349 11.0862 8.91352C10.6862 8.51354 10.4615 7.97108 10.4614 7.40542V2.13289C10.4615 1.56724 10.6862 1.02478 11.0862 0.624799C11.4862 0.224822 12.0286 8.15813e-05 12.5943 0H17.8671C18.4328 8.1587e-05 18.9752 0.224822 19.3752 0.624799C19.7752 1.02478 19.9999 1.56724 20 2.13289V7.40542H19.9997ZM18.7689 2.13289C18.7689 1.89363 18.6739 1.66416 18.5047 1.49498C18.3355 1.3258 18.1061 1.23075 17.8668 1.23075H12.5943C12.355 1.23075 12.1255 1.3258 11.9564 1.49498C11.7872 1.66416 11.6921 1.89363 11.6921 2.13289V7.40573C11.6921 7.5242 11.7155 7.64151 11.7608 7.75097C11.8061 7.86042 11.8726 7.95987 11.9564 8.04364C12.0401 8.12741 12.1396 8.19386 12.249 8.2392C12.3585 8.28454 12.4758 8.30787 12.5943 8.30787H17.8671C18.1064 8.30787 18.3358 8.21282 18.505 8.04364C18.6742 7.87446 18.7692 7.64499 18.7692 7.40573V2.13289H18.7689ZM9.53831 17.8668C9.53823 18.4325 9.31349 18.9749 8.91352 19.3749C8.51354 19.7749 7.97108 19.9996 7.40542 19.9997H2.13289C1.56724 19.9996 1.02478 19.7749 0.624799 19.3749C0.224822 18.9749 8.1587e-05 18.4325 0 17.8668V12.5943C8.15813e-05 12.0286 0.224822 11.4862 0.624799 11.0862C1.02478 10.6862 1.56724 10.4615 2.13289 10.4614H7.40573C7.97139 10.4615 8.51385 10.6862 8.91382 11.0862C9.3138 11.4862 9.53854 12.0286 9.53862 12.5943V17.8668H9.53831ZM8.30756 12.5943C8.30756 12.4758 8.28423 12.3585 8.23889 12.249C8.19356 12.1396 8.12711 12.0401 8.04333 11.9564C7.95956 11.8726 7.86011 11.8061 7.75066 11.7608C7.64121 11.7155 7.5239 11.6921 7.40542 11.6921H2.13289C1.89363 11.6921 1.66416 11.7872 1.49498 11.9564C1.3258 12.1255 1.23075 12.355 1.23075 12.5943V17.8671C1.23075 18.1064 1.3258 18.3358 1.49498 18.505C1.66416 18.6742 1.89363 18.7692 2.13289 18.7692H7.40573C7.64499 18.7692 7.87446 18.6742 8.04364 18.505C8.21283 18.3358 8.30787 18.1064 8.30787 17.8671V12.5943H8.30756ZM20 12.5942C20 12.2558 19.9196 11.9257 19.7693 11.6295C19.7633 11.6177 19.7572 11.6059 19.751 11.5942C19.6525 11.4088 19.5264 11.2373 19.3752 11.0861C18.9753 10.6861 18.4328 10.4614 17.8672 10.4613H12.5943C12.0287 10.4614 11.4862 10.6861 11.0862 11.0861C10.6862 11.4861 10.4615 12.0285 10.4614 12.5942V17.8667C10.4615 18.4324 10.6862 18.9748 11.0862 19.3748C11.4862 19.7748 12.0287 19.9995 12.5943 19.9996H17.8668C18.4325 19.9995 18.975 19.7748 19.3749 19.3748C19.7749 18.9748 20 18.4324 20 17.8667V12.5942ZM18.5048 11.9563C18.6739 12.1255 18.769 12.3549 18.769 12.5942L18.7693 17.867C18.7693 18.1063 18.6743 18.3358 18.5051 18.5049C18.3359 18.6741 18.1064 18.7692 17.8672 18.7692H12.5943C12.4758 18.7692 12.3585 18.7458 12.2491 18.7005C12.1396 18.6552 12.0402 18.5887 11.9564 18.5049C11.8726 18.4212 11.8062 18.3217 11.7608 18.2123C11.7155 18.1028 11.6922 17.9855 11.6922 17.867V12.5942C11.6922 12.4757 11.7155 12.3584 11.7608 12.249C11.8062 12.1395 11.8726 12.0401 11.9564 11.9563C12.0402 11.8725 12.1396 11.8061 12.2491 11.7607C12.3585 11.7154 12.4758 11.6921 12.5943 11.6921H17.8668C18.1061 11.6921 18.3356 11.7871 18.5048 11.9563Z" fill="#0F50A4"/>
</svg>
