<svg width="28" height="28" viewBox="0 0 28 28" fill="none" xmlns="http://www.w3.org/2000/svg">
<path fill-rule="evenodd" clip-rule="evenodd" d="M4.92482 4.92546C-0.107424 9.9577 -0.107425 18.0423 4.92482 23.0745C9.95706 28.1068 18.0417 28.1068 23.0739 23.0745C28.1061 18.0423 28.1061 9.95771 23.0739 4.92546C18.0417 -0.106783 9.95707 -0.106785 4.92482 4.92546ZM17.2992 9.54523L10.6995 9.54523C10.0396 9.54522 9.5446 10.0402 9.5446 10.7002C9.5446 11.3601 10.0396 11.8551 10.6995 11.8551L14.4943 11.8551L9.87458 16.4749C9.3796 16.9698 9.3796 17.6298 9.87458 18.1248C10.3696 18.6198 11.0295 18.6198 11.5245 18.1248L16.1443 13.505L16.1443 17.2998C16.1443 17.9598 16.6392 18.4548 17.2992 18.4548C17.9592 18.4548 18.4541 17.9598 18.4541 17.2998L18.4541 10.7002C18.4541 10.5352 18.4541 10.3702 18.3716 10.2877C18.3716 10.1227 18.2067 9.9577 18.1242 9.87521C18.0417 9.79271 17.8767 9.62772 17.7117 9.62772C17.6292 9.54523 17.4642 9.54523 17.2992 9.54523ZM21.424 6.57538C17.2992 2.45059 10.6995 2.45059 6.57475 6.57538C2.44996 10.7002 2.44996 17.2998 6.57475 21.4246C10.6995 25.5494 17.2992 25.5494 21.424 21.4246C25.5488 17.2998 25.5488 10.7002 21.424 6.57538Z" fill="#0F50A4"/>
<mask id="mask0" mask-type="alpha" maskUnits="userSpaceOnUse" x="1" y="1" width="26" height="26">
<path fill-rule="evenodd" clip-rule="evenodd" d="M4.92482 4.92546C-0.107424 9.9577 -0.107425 18.0423 4.92482 23.0745C9.95706 28.1068 18.0417 28.1068 23.0739 23.0745C28.1061 18.0423 28.1061 9.95771 23.0739 4.92546C18.0417 -0.106783 9.95707 -0.106785 4.92482 4.92546ZM17.2992 9.54523L10.6995 9.54523C10.0396 9.54522 9.5446 10.0402 9.5446 10.7002C9.5446 11.3601 10.0396 11.8551 10.6995 11.8551L14.4943 11.8551L9.87458 16.4749C9.3796 16.9698 9.3796 17.6298 9.87458 18.1248C10.3696 18.6198 11.0295 18.6198 11.5245 18.1248L16.1443 13.505L16.1443 17.2998C16.1443 17.9598 16.6392 18.4548 17.2992 18.4548C17.9592 18.4548 18.4541 17.9598 18.4541 17.2998L18.4541 10.7002C18.4541 10.5352 18.4541 10.3702 18.3716 10.2877C18.3716 10.1227 18.2067 9.9577 18.1242 9.87521C18.0417 9.79271 17.8767 9.62772 17.7117 9.62772C17.6292 9.54523 17.4642 9.54523 17.2992 9.54523ZM21.424 6.57538C17.2992 2.45059 10.6995 2.45059 6.57475 6.57538C2.44996 10.7002 2.44996 17.2998 6.57475 21.4246C10.6995 25.5494 17.2992 25.5494 21.424 21.4246C25.5488 17.2998 25.5488 10.7002 21.424 6.57538Z" fill="white"/>
</mask>
<g mask="url(#mask0)">
<rect width="28" height="28" fill="#ED1E26"/>
</g>
</svg>
