<svg width="28" height="28" viewBox="0 0 28 28" fill="none" xmlns="http://www.w3.org/2000/svg">
<path fill-rule="evenodd" clip-rule="evenodd" d="M4.92543 4.92546C-0.106814 9.9577 -0.106814 18.0423 4.92543 23.0745C9.95767 28.1068 18.0423 28.1068 23.0745 23.0745C28.1068 18.0423 28.1068 9.95771 23.0745 4.92546C18.0423 -0.106781 9.95767 -0.106782 4.92543 4.92546ZM17.2998 9.54523L10.7001 9.54523C10.0402 9.54523 9.54521 10.0402 9.54521 10.7002C9.54521 11.3601 10.0402 11.8551 10.7001 11.8551L14.495 11.8551L9.87519 16.4749C9.38021 16.9698 9.38021 17.6298 9.87519 18.1248C10.3702 18.6198 11.0301 18.6198 11.5251 18.1248L16.1449 13.505V17.2998C16.1449 17.9598 16.6398 18.4548 17.2998 18.4548C17.9598 18.4548 18.4548 17.9598 18.4548 17.2998V10.7002C18.4548 10.5352 18.4548 10.3702 18.3723 10.2877C18.3723 10.1227 18.2073 9.95771 18.1248 9.87521C18.0423 9.79272 17.8773 9.62772 17.7123 9.62772C17.6298 9.54523 17.4648 9.54523 17.2998 9.54523ZM21.4246 6.57538C17.2998 2.45059 10.7001 2.45059 6.57536 6.57538C2.45057 10.7002 2.45057 17.2998 6.57536 21.4246C10.7001 25.5494 17.2998 25.5494 21.4246 21.4246C25.5494 17.2998 25.5494 10.7002 21.4246 6.57538Z" fill="#0F50A4"/>
<mask id="mask0" mask-type="alpha" maskUnits="userSpaceOnUse" x="1" y="1" width="26" height="26">
<path fill-rule="evenodd" clip-rule="evenodd" d="M4.92543 4.92546C-0.106814 9.9577 -0.106814 18.0423 4.92543 23.0745C9.95767 28.1068 18.0423 28.1068 23.0745 23.0745C28.1068 18.0423 28.1068 9.95771 23.0745 4.92546C18.0423 -0.106781 9.95767 -0.106782 4.92543 4.92546ZM17.2998 9.54523L10.7001 9.54523C10.0402 9.54523 9.54521 10.0402 9.54521 10.7002C9.54521 11.3601 10.0402 11.8551 10.7001 11.8551L14.495 11.8551L9.87519 16.4749C9.38021 16.9698 9.38021 17.6298 9.87519 18.1248C10.3702 18.6198 11.0301 18.6198 11.5251 18.1248L16.1449 13.505V17.2998C16.1449 17.9598 16.6398 18.4548 17.2998 18.4548C17.9598 18.4548 18.4548 17.9598 18.4548 17.2998V10.7002C18.4548 10.5352 18.4548 10.3702 18.3723 10.2877C18.3723 10.1227 18.2073 9.95771 18.1248 9.87521C18.0423 9.79272 17.8773 9.62772 17.7123 9.62772C17.6298 9.54523 17.4648 9.54523 17.2998 9.54523ZM21.4246 6.57538C17.2998 2.45059 10.7001 2.45059 6.57536 6.57538C2.45057 10.7002 2.45057 17.2998 6.57536 21.4246C10.7001 25.5494 17.2998 25.5494 21.4246 21.4246C25.5494 17.2998 25.5494 10.7002 21.4246 6.57538Z" fill="white"/>
</mask>
<g mask="url(#mask0)">
<rect width="28" height="28" fill="#0F50A4"/>
</g>
</svg>
