<svg width="12" height="12" viewBox="0 0 12 12" fill="none" xmlns="http://www.w3.org/2000/svg">
<path fill-rule="evenodd" clip-rule="evenodd" d="M12 5.99967C12 2.67222 9.32713 -0.000652313 5.99967 -0.00065136C2.67222 -0.00065136 -0.000650406 2.67222 -0.000650406 5.99967C-0.000650406 9.32713 2.67222 12 5.99967 12C9.32713 12 12 9.32713 12 5.99967ZM4.45649 3.9174C4.14791 3.9174 3.91649 4.14883 3.91649 4.45741V7.54313C3.91649 7.62027 3.91649 7.69742 3.95506 7.73599C3.95506 7.81313 4.0322 7.89027 4.07077 7.92884C4.10934 7.96742 4.18649 8.04456 4.26363 8.04456C4.3022 8.08313 4.37934 8.08313 4.45649 8.08313L7.54221 8.08313C7.85078 8.08313 8.08221 7.8517 8.08221 7.54313C8.08221 7.23456 7.85078 7.00313 7.54221 7.00313L5.76792 7.00313L7.92793 4.84312C8.15935 4.61169 8.15935 4.30312 7.92793 4.07169C7.6965 3.84026 7.38792 3.84026 7.1565 4.07169L4.99649 6.2317L4.99649 4.45741C4.99649 4.14883 4.76506 3.9174 4.45649 3.9174Z" fill="#4FA30F"/>
</svg>
