<svg width="12" height="12" viewBox="0 0 12 12" fill="none" xmlns="http://www.w3.org/2000/svg">
<path fill-rule="evenodd" clip-rule="evenodd" d="M6.00033 0C9.32778 0 12.0007 2.67287 12.0007 6.00033C12.0007 9.32778 9.32778 12.0007 6.00033 12.0007C2.67287 12.0007 0 9.32778 0 6.00033C0 2.67287 2.67287 0 6.00033 0ZM3.9174 4.45779C3.9174 4.14922 4.14883 3.91779 4.45741 3.91779H7.54313C7.62027 3.91779 7.69742 3.91779 7.73599 3.95636C7.81313 3.95636 7.89027 4.0335 7.92884 4.07207C7.96742 4.11065 8.04456 4.18779 8.04456 4.26493C8.08313 4.3035 8.08313 4.38065 8.08313 4.45779V7.54351C8.08313 7.85208 7.8517 8.08351 7.54313 8.08351C7.23456 8.08351 7.00313 7.85208 7.00313 7.54351L7.00313 5.76922L4.84312 7.92923C4.61169 8.16066 4.30312 8.16066 4.07169 7.92923C3.84026 7.6978 3.84026 7.38923 4.07169 7.1578L6.2317 4.99779L4.45741 4.99779C4.14883 4.99779 3.9174 4.76636 3.9174 4.45779Z" fill="#FF78A8"/>
</svg>
