<svg width="21" height="21" viewBox="0 0 21 21" fill="none" xmlns="http://www.w3.org/2000/svg">
<path d="M10.1731 13.8872C8.3035 13.8872 6.7832 12.3669 6.7832 10.4973C6.7832 8.62772 8.3035 7.10742 10.1731 7.10742C12.0426 7.10742 13.5629 8.62772 13.5629 10.4973C13.5629 12.3669 12.0426 13.8872 10.1731 13.8872ZM10.1731 8.54279C9.09535 8.54279 8.21858 9.41957 8.21858 10.4973C8.21858 11.575 9.09535 12.4518 10.1731 12.4518C11.2508 12.4518 12.1276 11.575 12.1276 10.4973C12.1276 9.41957 11.2508 8.54279 10.1731 8.54279Z" fill="#ED1E26"/>
<path d="M10.173 20.9972C9.31179 20.9972 8.45176 20.8908 7.61686 20.6827C7.45924 20.6433 7.31967 20.5515 7.22101 20.4224C7.12235 20.2933 7.07045 20.1346 7.07381 19.9722C7.07381 19.9542 7.075 19.9363 7.0762 19.9171C7.06783 18.6887 6.06546 17.6911 4.83463 17.6911C4.41717 17.6911 4.0069 17.8095 3.64925 18.0344C3.51179 18.1206 3.34914 18.1576 3.18791 18.1394C3.02668 18.1211 2.87642 18.0487 2.76171 17.9339C1.44356 16.6206 0.496216 14.9783 0.0237391 13.1864C-0.061187 12.8635 0.0871347 12.5238 0.382582 12.3683C0.755779 12.1709 1.06438 11.8755 1.2749 11.513C1.42321 11.2588 1.51956 10.9776 1.55837 10.6858C1.59717 10.3941 1.57767 10.0975 1.50098 9.81331C1.35065 9.24303 0.98028 8.75565 0.471097 8.45808C0.453155 8.44971 0.437605 8.44133 0.422055 8.43296C0.280826 8.35394 0.17036 8.22962 0.108503 8.08008C0.0466463 7.93054 0.0370111 7.76451 0.0811541 7.60882C0.57401 5.88996 1.497 4.32515 2.76291 3.06228C2.87775 2.94769 3.02809 2.87547 3.18932 2.85744C3.35054 2.8394 3.51312 2.87662 3.65045 2.963C4.00809 3.18667 4.41837 3.30509 4.83582 3.30509C6.06665 3.30509 7.06902 2.30751 7.0774 1.07907C7.0762 1.05993 7.075 1.04199 7.075 1.02405C7.07188 0.861672 7.12387 0.703029 7.22249 0.573995C7.32112 0.444961 7.46055 0.353151 7.61805 0.313539C9.28787 -0.103915 11.0606 -0.105111 12.7316 0.313539C13.0557 0.394877 13.2818 0.689128 13.2746 1.02405C13.2746 1.04199 13.2734 1.05993 13.2722 1.07787C13.2806 2.30631 14.283 3.3039 15.5138 3.3039C15.9312 3.3039 16.3415 3.18548 16.6992 2.9618C16.8366 2.87559 16.9993 2.83859 17.1605 2.85684C17.3217 2.8751 17.472 2.94752 17.5867 3.06228C18.9036 4.37441 19.8485 6.01275 20.3247 7.80977C20.4096 8.13273 20.2613 8.47124 19.9658 8.62793C19.5926 8.82529 19.284 9.12074 19.0747 9.48317C18.4587 10.5477 18.8187 11.9149 19.8773 12.5381C19.8941 12.5465 19.9084 12.5537 19.9228 12.562C20.0653 12.6404 20.177 12.7649 20.2396 12.9151C20.3022 13.0652 20.3119 13.2322 20.2673 13.3886C19.7744 15.1074 18.8514 16.6722 17.5855 17.9351C17.4707 18.0497 17.3203 18.1219 17.1591 18.14C16.9979 18.158 16.8353 18.1208 16.698 18.0344C16.3428 17.8114 15.932 17.6929 15.5126 17.6923C14.2818 17.6923 13.2794 18.6899 13.271 19.9183C13.2722 19.9375 13.2734 19.9554 13.2734 19.9722C13.2794 20.3071 13.0545 20.6013 12.7304 20.6827C11.8939 20.8913 11.0351 20.997 10.173 20.9972V20.9972ZM8.47329 19.4016C9.59684 19.6145 10.7504 19.6145 11.8739 19.4016C12.1323 17.6253 13.6658 16.2557 15.5126 16.2557C16.0006 16.2557 16.4803 16.3538 16.9288 16.5416C17.7241 15.6519 18.3362 14.6142 18.7302 13.4879C17.3224 12.3743 16.9073 10.3623 17.8319 8.76429C18.0759 8.34205 18.4025 7.97484 18.79 7.68059C18.3995 6.48809 17.7657 5.3896 16.9288 4.45459C16.4805 4.6431 15.999 4.74029 15.5126 4.74046C13.6658 4.74046 12.1323 3.37088 11.8739 1.59461C10.7504 1.3817 9.59684 1.3817 8.47329 1.59461C8.21493 3.37088 6.68267 4.73927 4.83582 4.73927C4.3478 4.73927 3.86695 4.64119 3.41959 4.45339C2.62445 5.34337 2.01198 6.38095 1.617 7.50714C3.02367 8.61956 3.44112 10.6327 2.51531 12.2319C2.27111 12.6532 1.94539 13.0216 1.55719 13.3156C1.94778 14.5077 2.58155 15.6058 3.41839 16.5404C3.86575 16.3526 4.3466 16.2545 4.83463 16.2545C6.68267 16.2557 8.21493 17.6241 8.47329 19.4016V19.4016ZM0.456743 8.4509C0.457939 8.4509 0.459135 8.4521 0.459135 8.4521C0.459135 8.4521 0.457939 8.4509 0.456743 8.4509Z" fill="#AFAFAF" fill-opacity="0.25"/>
</svg>
