<svg width="21" height="21" viewBox="0 0 21 21" fill="none" xmlns="http://www.w3.org/2000/svg">
<path d="M10.173 13.8852C8.30341 13.8852 6.78311 12.3649 6.78311 10.4953C6.78311 8.62577 8.30341 7.10547 10.173 7.10547C12.0426 7.10547 13.5629 8.62577 13.5629 10.4953C13.5629 12.3649 12.0426 13.8852 10.173 13.8852ZM10.173 8.54084C9.09526 8.54084 8.21848 9.41761 8.21848 10.4953C8.21848 11.5731 9.09526 12.4498 10.173 12.4498C11.2507 12.4498 12.1275 11.5731 12.1275 10.4953C12.1275 9.41761 11.2507 8.54084 10.173 8.54084Z" fill="#ED1E26"/>
<path d="M10.173 20.9972C9.31176 20.9972 8.45173 20.8908 7.61683 20.6827C7.45921 20.6433 7.31964 20.5515 7.22098 20.4224C7.12232 20.2933 7.07042 20.1346 7.07378 19.9722C7.07378 19.9542 7.07497 19.9363 7.07617 19.9171C7.0678 18.6887 6.06543 17.6911 4.8346 17.6911C4.41714 17.6911 4.00687 17.8095 3.64922 18.0344C3.51176 18.1206 3.34911 18.1576 3.18788 18.1394C3.02665 18.1211 2.87639 18.0487 2.76168 17.9339C1.44353 16.6206 0.496185 14.9783 0.0237086 13.1864C-0.0612176 12.8635 0.0871042 12.5238 0.382552 12.3683C0.755748 12.1709 1.06435 11.8755 1.27487 11.513C1.42318 11.2588 1.51953 10.9776 1.55833 10.6858C1.59714 10.3941 1.57764 10.0975 1.50095 9.81331C1.35062 9.24303 0.98025 8.75565 0.471066 8.45808C0.453124 8.44971 0.437574 8.44133 0.422024 8.43296C0.280796 8.35394 0.17033 8.22962 0.108473 8.08008C0.0466158 7.93054 0.0369806 7.76451 0.0811236 7.60882C0.57398 5.88996 1.49697 4.32515 2.76288 3.06228C2.87772 2.94769 3.02806 2.87547 3.18929 2.85744C3.35051 2.8394 3.51309 2.87662 3.65041 2.963C4.00806 3.18668 4.41834 3.30509 4.83579 3.30509C6.06662 3.30509 7.06899 2.30751 7.07736 1.07907C7.07617 1.05993 7.07497 1.04199 7.07497 1.02405C7.07185 0.861672 7.12384 0.703029 7.22246 0.573995C7.32109 0.444961 7.46052 0.353151 7.61802 0.313539C9.28784 -0.103915 11.0605 -0.105111 12.7315 0.313539C13.0557 0.394877 13.2818 0.689128 13.2746 1.02405C13.2746 1.04199 13.2734 1.05993 13.2722 1.07787C13.2806 2.30631 14.2829 3.3039 15.5138 3.3039C15.9312 3.3039 16.3415 3.18548 16.6991 2.9618C16.8366 2.87559 16.9993 2.83859 17.1605 2.85684C17.3217 2.8751 17.472 2.94752 17.5867 3.06228C18.9036 4.37441 19.8485 6.01275 20.3246 7.80977C20.4096 8.13273 20.2613 8.47124 19.9658 8.62793C19.5926 8.82529 19.284 9.12074 19.0747 9.48317C18.4587 10.5477 18.8187 11.9149 19.8773 12.5381C19.894 12.5465 19.9084 12.5537 19.9227 12.562C20.0653 12.6404 20.177 12.7649 20.2396 12.9151C20.3021 13.0652 20.3119 13.2322 20.2672 13.3886C19.7744 15.1074 18.8514 16.6722 17.5855 17.9351C17.4706 18.0497 17.3203 18.1219 17.1591 18.14C16.9978 18.158 16.8353 18.1208 16.6979 18.0344C16.3427 17.8114 15.932 17.6929 15.5126 17.6923C14.2817 17.6923 13.2794 18.6899 13.271 19.9183C13.2722 19.9375 13.2734 19.9554 13.2734 19.9722C13.2794 20.3071 13.0545 20.6013 12.7303 20.6827C11.8939 20.8913 11.0351 20.997 10.173 20.9972ZM8.47326 19.4016C9.59681 19.6145 10.7504 19.6145 11.8739 19.4016C12.1323 17.6253 13.6657 16.2557 15.5126 16.2557C16.0006 16.2557 16.4802 16.3538 16.9288 16.5416C17.7241 15.6519 18.3362 14.6142 18.7302 13.4879C17.3223 12.3743 16.9073 10.3623 17.8319 8.76429C18.0759 8.34205 18.4024 7.97484 18.79 7.68059C18.3994 6.48809 17.7657 5.3896 16.9288 4.45459C16.4804 4.6431 15.999 4.74029 15.5126 4.74046C13.6657 4.74046 12.1323 3.37088 11.8739 1.59461C10.7504 1.3817 9.59681 1.3817 8.47326 1.59461C8.2149 3.37088 6.68264 4.73927 4.83579 4.73927C4.34777 4.73927 3.86692 4.64119 3.41956 4.45339C2.62442 5.34337 2.01195 6.38095 1.61697 7.50714C3.02364 8.61956 3.44109 10.6327 2.51528 12.2319C2.27108 12.6532 1.94536 13.0216 1.55716 13.3156C1.94775 14.5077 2.58152 15.6058 3.41836 16.5404C3.86572 16.3526 4.34657 16.2545 4.8346 16.2545C6.68264 16.2557 8.2149 17.6241 8.47326 19.4016ZM0.456712 8.4509C0.457909 8.4509 0.459105 8.4521 0.459105 8.4521C0.459105 8.4521 0.457909 8.4509 0.456712 8.4509Z" fill="#0A0B09"/>
</svg>
