<svg width="27" height="27" viewBox="0 0 27 27" fill="none" xmlns="http://www.w3.org/2000/svg">
<path d="M13.6593 17.3259C11.5493 17.3259 9.83344 15.61 9.83344 13.5C9.83344 11.3899 11.5493 9.67407 13.6593 9.67407C15.7694 9.67407 17.4852 11.3899 17.4852 13.5C17.4852 15.61 15.7694 17.3259 13.6593 17.3259ZM13.6593 11.2941C12.443 11.2941 11.4534 12.2836 11.4534 13.5C11.4534 14.7163 12.443 15.7059 13.6593 15.7059C14.8757 15.7059 15.8652 14.7163 15.8652 13.5C15.8652 12.2836 14.8757 11.2941 13.6593 11.2941Z" fill="#ED1E26"/>
<path d="M13.6593 25.3504C12.6873 25.3504 11.7166 25.2303 10.7743 24.9954C10.5964 24.9509 10.4389 24.8473 10.3276 24.7017C10.2162 24.556 10.1576 24.3768 10.1614 24.1935C10.1614 24.1732 10.1628 24.153 10.1641 24.1314C10.1547 22.7449 9.02338 21.619 7.63423 21.619C7.16308 21.619 6.70003 21.7527 6.29638 22.0065C6.14123 22.1038 5.95766 22.1455 5.7757 22.1249C5.59373 22.1043 5.42414 22.0226 5.29468 21.8931C3.80698 20.4108 2.73778 18.5572 2.20453 16.5349C2.10868 16.1704 2.27608 15.787 2.60953 15.6115C3.03073 15.3888 3.37903 15.0553 3.61663 14.6463C3.78401 14.3593 3.89275 14.042 3.93655 13.7127C3.98035 13.3834 3.95833 13.0486 3.87178 12.7279C3.70212 12.0843 3.28411 11.5342 2.70943 11.1984C2.68918 11.1889 2.67163 11.1795 2.65408 11.17C2.49468 11.0808 2.37001 10.9405 2.30019 10.7717C2.23038 10.603 2.21951 10.4156 2.26933 10.2399C2.82558 8.29991 3.86729 6.53383 5.29603 5.10851C5.42565 4.97919 5.59532 4.89768 5.77728 4.87733C5.95925 4.85697 6.14274 4.89897 6.29773 4.99646C6.70138 5.24891 7.16443 5.38256 7.63558 5.38256C9.02473 5.38256 10.156 4.25666 10.1655 2.87021C10.1641 2.84861 10.1628 2.82836 10.1628 2.80811C10.1593 2.62485 10.2179 2.4458 10.3292 2.30017C10.4405 2.15454 10.5979 2.05092 10.7757 2.00621C12.6603 1.53506 14.661 1.53371 16.5469 2.00621C16.9128 2.09801 17.1679 2.43011 17.1598 2.80811C17.1598 2.82836 17.1585 2.84861 17.1571 2.86886C17.1666 4.25531 18.2979 5.38121 19.687 5.38121C20.1582 5.38121 20.6212 5.24756 21.0249 4.99511C21.18 4.89782 21.3636 4.85606 21.5456 4.87666C21.7275 4.89726 21.8971 4.979 22.0266 5.10851C23.5129 6.58943 24.5793 8.4385 25.1167 10.4667C25.2126 10.8312 25.0452 11.2132 24.7117 11.3901C24.2905 11.6128 23.9422 11.9463 23.706 12.3553C23.0107 13.5568 23.4171 15.0999 24.6118 15.8032C24.6307 15.8127 24.6469 15.8208 24.6631 15.8302C24.824 15.9187 24.9501 16.0592 25.0207 16.2286C25.0913 16.3981 25.1023 16.5865 25.0519 16.7631C24.4957 18.703 23.454 20.4691 22.0252 21.8944C21.8956 22.0237 21.7259 22.1052 21.544 22.1256C21.362 22.146 21.1785 22.1039 21.0235 22.0065C20.6226 21.7548 20.159 21.621 19.6857 21.6204C18.2965 21.6204 17.1652 22.7463 17.1558 24.1327C17.1571 24.1543 17.1585 24.1746 17.1585 24.1935C17.1652 24.5715 16.9114 24.9036 16.5456 24.9954C15.6015 25.2309 14.6322 25.3501 13.6593 25.3504ZM11.7409 23.5495C13.009 23.7898 14.3109 23.7898 15.579 23.5495C15.8706 21.5448 17.6013 19.999 19.6857 19.999C20.2365 19.999 20.7778 20.1097 21.2841 20.3217C22.1816 19.3176 22.8725 18.1464 23.3172 16.8751C21.7282 15.6183 21.2598 13.3476 22.3033 11.544C22.5787 11.0674 22.9473 10.653 23.3847 10.3209C22.9439 8.97498 22.2286 7.73519 21.2841 6.67991C20.778 6.89267 20.2346 7.00236 19.6857 7.00256C17.6013 7.00256 15.8706 5.45681 15.579 3.45206C14.3109 3.21176 13.009 3.21176 11.7409 3.45206C11.4493 5.45681 9.71998 7.00121 7.63558 7.00121C7.08478 7.00121 6.54208 6.89051 6.03718 6.67856C5.13976 7.68302 4.44851 8.85406 4.00273 10.1251C5.59033 11.3806 6.06148 13.6527 5.01658 15.4576C4.74097 15.9331 4.37336 16.3489 3.93523 16.6807C4.37605 18.0262 5.09134 19.2655 6.03583 20.3203C6.54073 20.1084 7.08343 19.9977 7.63423 19.9977C9.71998 19.999 11.4493 21.5434 11.7409 23.5495ZM2.69323 11.1903C2.69458 11.1903 2.69593 11.1916 2.69593 11.1916C2.69593 11.1916 2.69458 11.1903 2.69323 11.1903Z" fill="white"/>
</svg>
