<svg width="12" height="12" viewBox="0 0 12 12" fill="none" xmlns="http://www.w3.org/2000/svg">
<path d="M10.5631 7.04312C10.1599 7.24152 9.71832 7.34392 9.26392 7.34392C7.63192 7.34392 6.30712 6.01912 6.30712 4.38712C6.30712 3.25432 6.94712 2.23672 7.93912 1.74392C8.17592 1.62872 8.15672 1.28312 7.91352 1.18712C7.31192 0.943918 6.66552 0.815918 5.99992 0.815918C3.13912 0.815918 0.815918 3.13272 0.815918 5.99992C0.815918 8.86712 3.13272 11.1839 5.99992 11.1839C8.33592 11.1839 10.3711 9.62232 10.9919 7.40152C11.0623 7.14552 10.7999 6.92792 10.5631 7.04312ZM5.99992 10.5695C3.47832 10.5695 1.43032 8.52152 1.43032 5.99992C1.43032 3.47832 3.47832 1.43032 5.99992 1.43032C6.37112 1.43032 6.73592 1.48152 7.09432 1.56472C6.23032 2.23032 5.69912 3.25432 5.69912 4.38712C5.69912 6.35832 7.29912 7.95192 9.26392 7.95192C9.57752 7.95192 9.88472 7.90712 10.1855 7.82392C9.46872 9.46232 7.84312 10.5695 5.99992 10.5695ZM10.3007 3.77912L10.0319 3.48472L9.63512 3.53592L9.83352 3.18392L9.66712 2.82552L10.0575 2.90872L10.3455 2.63352L10.3903 3.03672L10.7423 3.22872L10.3711 3.38872L10.3007 3.77912Z" fill="#ED1E26"/>
<path d="M8.75694 5L8.46528 4.80282L8.13889 4.93662L8.22917 4.59155L8 4.32394L8.35417 4.30282L8.53472 4L8.65972 4.33099L9 4.41549L8.72917 4.64085L8.75694 5Z" fill="#ED1E26"/>
</svg>
