<svg width="23" height="23" viewBox="0 0 23 23" fill="none" xmlns="http://www.w3.org/2000/svg">
<path d="M17.486 6.96363C13.5579 7.37859 10.0074 10.7058 9.31865 14.4302C9.30353 14.5121 9.2723 14.5903 9.22672 14.6602C9.18114 14.7302 9.12211 14.7905 9.05301 14.8378C8.9839 14.8852 8.90608 14.9185 8.82396 14.936C8.74185 14.9535 8.65707 14.9548 8.57445 14.9398C8.49184 14.9249 8.41301 14.8939 8.34247 14.8487C8.27192 14.8035 8.21105 14.745 8.16331 14.6765C8.11558 14.608 8.08193 14.5308 8.06428 14.4494C8.04662 14.368 8.04531 14.284 8.06043 14.2021C8.81911 10.099 12.5443 6.46924 16.8296 5.77287L14.8681 4.63111C14.7218 4.54594 14.6157 4.40665 14.573 4.24388C14.5303 4.08111 14.5546 3.90819 14.6405 3.76318C14.7264 3.61816 14.8669 3.51292 15.0311 3.4706C15.1953 3.42828 15.3697 3.45236 15.516 3.53753L19.2344 5.70272C19.3142 5.7492 19.3829 5.81233 19.4358 5.88774C19.4886 5.96314 19.5243 6.04902 19.5403 6.13944C19.5564 6.22986 19.5524 6.32265 19.5287 6.41141C19.505 6.50016 19.4622 6.58276 19.4031 6.65348L16.5602 10.0644C16.5067 10.1285 16.441 10.1816 16.3668 10.2206C16.2926 10.2595 16.2114 10.2836 16.1278 10.2915C16.0442 10.2993 15.9599 10.2908 15.8796 10.2663C15.7993 10.2418 15.7247 10.2019 15.66 10.1489C15.5953 10.0958 15.5418 10.0307 15.5025 9.95711C15.4632 9.88355 15.4389 9.80303 15.431 9.72016C15.4231 9.63729 15.4317 9.55369 15.4564 9.47412C15.481 9.39455 15.5213 9.32058 15.5748 9.25644L17.486 6.96363Z" fill="#ED1E26"/>
<path d="M18.6875 13.9272C18.6875 13.6985 18.7784 13.4791 18.9401 13.3173C19.1019 13.1556 19.3212 13.0647 19.55 13.0647C19.7787 13.0647 19.9981 13.1556 20.1599 13.3173C20.3216 13.4791 20.4125 13.6985 20.4125 13.9272V17.4807C20.4125 19.4116 19.029 21.0262 17.25 21.0262H4.6C2.82095 21.0262 1.4375 19.4116 1.4375 17.4796V6.74662C1.4375 4.81462 2.82095 3.20117 4.6 3.20117H9.54615C9.7749 3.20117 9.99428 3.29204 10.156 3.45379C10.3178 3.61554 10.4086 3.83492 10.4086 4.06367C10.4086 4.29242 10.3178 4.5118 10.156 4.67355C9.99428 4.8353 9.7749 4.92617 9.54615 4.92617H4.6C3.8387 4.92617 3.1625 5.71392 3.1625 6.74662V17.4796C3.1625 18.5123 3.8387 19.3012 4.6 19.3012H17.25C18.0113 19.3012 18.6875 18.5123 18.6875 17.4796V13.9272Z" fill="#0F50A4"/>
</svg>
