<svg width="23" height="23" viewBox="0 0 23 23" fill="none" xmlns="http://www.w3.org/2000/svg">
<path d="M16.0596 4.54385C16.0596 4.17998 15.7654 3.88574 15.4015 3.88574H4.87856C4.5147 3.88574 4.22046 4.17998 4.22046 4.54385C4.22046 4.90771 4.5147 5.20195 4.87856 5.20195H15.4038C15.7654 5.20195 16.0596 4.90771 16.0596 4.54385ZM4.87856 8.27236C4.5147 8.27236 4.22046 8.5666 4.22046 8.93047C4.22046 9.29434 4.5147 9.58857 4.87856 9.58857H13.3778C13.7417 9.58857 14.0359 9.29434 14.0359 8.93047C14.0359 8.5666 13.7417 8.27236 13.3778 8.27236H4.87856ZM10.0401 12.6567H4.87856C4.5147 12.6567 4.22046 12.951 4.22046 13.3148C4.22046 13.6787 4.5147 13.9729 4.87856 13.9729H10.0401C10.404 13.9729 10.6982 13.6787 10.6982 13.3148C10.696 12.951 10.404 12.6567 10.0401 12.6567ZM17.7936 17.6813H16.7649V15.6777C16.7649 15.3521 16.4999 15.087 16.1742 15.087C15.8485 15.087 15.5835 15.3521 15.5835 15.6777V18.1754C15.5835 18.1934 15.5924 18.2068 15.5924 18.2248C15.5902 18.2428 15.5835 18.2562 15.5835 18.2742C15.5835 18.5999 15.8485 18.8649 16.1742 18.8649H17.7936C18.1193 18.8649 18.3843 18.5999 18.3843 18.2742C18.3843 17.9485 18.1193 17.6813 17.7936 17.6813Z" fill="#0F50A4"/>
<path d="M16.1719 12.7109C13.3351 12.7109 11.0283 15.0177 11.0283 17.8545C11.0283 20.6913 13.3351 22.9981 16.1719 22.9981C19.0087 22.9981 21.3154 20.6913 21.3154 17.8545C21.3154 15.0177 19.0087 12.7109 16.1719 12.7109ZM16.1719 21.6863C14.0605 21.6863 12.3423 19.9681 12.3423 17.8567C12.3423 15.7454 14.0605 14.0249 16.1719 14.0249C18.2832 14.0249 20.0037 15.7432 20.0037 17.8567C20.0037 19.9703 18.2854 21.6863 16.1719 21.6863Z" fill="#ED1E26"/>
<path d="M4.77075 19.2308C3.7937 19.2308 2.99634 18.4356 2.99634 17.4564V3.13525C2.99634 2.15596 3.79146 1.36084 4.77075 1.36084H15.5026C16.4819 1.36084 17.277 2.15596 17.277 3.13525V11.7131C17.733 11.8052 18.1732 11.9422 18.591 12.1196V3.13525C18.591 1.43271 17.2051 0.046875 15.5026 0.046875H4.77075C3.06821 0.046875 1.68237 1.43271 1.68237 3.13525V17.4586C1.68237 19.1611 3.06821 20.547 4.77075 20.547H10.4017C10.2108 20.1292 10.0603 19.6912 9.95698 19.233H4.77075V19.2308Z" fill="#0F50A4"/>
</svg>
