<svg width="21" height="25" viewBox="0 0 21 25" fill="none" xmlns="http://www.w3.org/2000/svg">
<path d="M17.3767 16.5101L17.4484 16.4405L17.3767 16.5101L18.0337 17.1866H10.7309C10.5694 17.1866 10.4151 17.2527 10.3019 17.3693C10.1887 17.4858 10.1256 17.6433 10.1256 17.8069C10.1256 17.9705 10.1887 18.1279 10.3019 18.2444C10.4151 18.3611 10.5694 18.4272 10.7309 18.4272H18.0337L17.3767 19.1036L17.4484 19.1733L17.3767 19.1036C17.2635 19.2201 17.2004 19.3776 17.2004 19.5412C17.2004 19.7048 17.2635 19.8622 17.3767 19.9788C17.49 20.0954 17.6443 20.1615 17.8058 20.1615C17.9673 20.1615 18.1215 20.0954 18.2348 19.9788L19.9193 18.2445C19.9754 18.1867 20.0197 18.1184 20.0499 18.0433C20.0801 17.9683 20.0956 17.8879 20.0956 17.8069C20.0956 17.7258 20.0801 17.6455 20.0499 17.5704C20.0197 17.4954 19.9754 17.427 19.9193 17.3693L18.2348 15.635C18.1215 15.5183 17.9673 15.4522 17.8058 15.4522C17.6443 15.4522 17.49 15.5183 17.3767 15.635C17.2635 15.7515 17.2004 15.909 17.2004 16.0726C17.2004 16.2361 17.2635 16.3936 17.3767 16.5101Z" fill="#0A0B09" stroke="#0A0B09" stroke-width="0.2"/>
<path d="M19.4903 21.8633H12.2211L12.8379 21.3341L12.7728 21.2582L12.8379 21.3341C12.9527 21.2357 13.0208 21.0985 13.0208 20.9517C13.0208 20.8048 12.9527 20.6676 12.8379 20.5692C12.7236 20.4711 12.5715 20.4181 12.4154 20.4181C12.2594 20.4181 12.1073 20.4711 11.993 20.5692L10.3085 22.0144C10.3085 22.0144 10.3085 22.0144 10.3085 22.0144C10.2517 22.0631 10.2057 22.1218 10.174 22.1875C10.1422 22.2533 10.1256 22.3245 10.1256 22.3969C10.1256 22.4693 10.1422 22.5405 10.174 22.6063C10.2057 22.6721 10.2517 22.7307 10.3085 22.7794C10.3085 22.7794 10.3085 22.7794 10.3085 22.7794L11.993 24.2247C12.1073 24.3227 12.2594 24.3758 12.4154 24.3758C12.5715 24.3758 12.7236 24.3227 12.8379 24.2247C12.9527 24.1262 13.0208 23.9891 13.0208 23.8422C13.0208 23.6953 12.9527 23.5582 12.8379 23.4597L12.7728 23.5356L12.8379 23.4597L12.2211 22.9305H19.4903C19.6463 22.9305 19.7984 22.8775 19.9127 22.7794C20.0275 22.6809 20.0956 22.5438 20.0956 22.3969C20.0956 22.25 20.0275 22.1129 19.9127 22.0144C19.7984 21.9164 19.6463 21.8633 19.4903 21.8633Z" fill="#0A0B09" stroke="#0A0B09" stroke-width="0.2"/>
<path fill-rule="evenodd" clip-rule="evenodd" d="M7.5721 12.5341C7.08914 12.2734 6.64358 11.9524 6.24552 11.5811C3.28995 13.4331 0.0222384 17.1115 0.50353 23.1277C0.536561 23.5406 0.898056 23.8485 1.31095 23.8155C1.72384 23.7824 2.03178 23.4209 1.99875 23.0081C1.54526 17.3395 4.85959 14.032 7.5721 12.5341Z" fill="#0A0B09"/>
<circle cx="10.642" cy="6.90909" r="5.63809" stroke="#0A0B09" stroke-width="1.5"/>
</svg>
