<svg width="12" height="12" viewBox="0 0 12 12" fill="none" xmlns="http://www.w3.org/2000/svg">
<path d="M5.81825 9.321C5.92563 9.23924 6.07437 9.23924 6.18175 9.321L8.96003 11.4365C9.19176 11.613 9.51368 11.389 9.42873 11.1104L8.36208 7.61227C8.3249 7.49034 8.36883 7.35822 8.47164 7.28284L11.2609 5.23758C11.4947 5.06613 11.3735 4.69565 11.0835 4.69565H7.7191C7.58858 4.69565 7.47304 4.61127 7.43333 4.48694L6.28577 0.894595C6.19688 0.616314 5.80312 0.616313 5.71423 0.894595L4.56667 4.48694C4.52696 4.61127 4.41142 4.69565 4.2809 4.69565H0.916472C0.626523 4.69565 0.505251 5.06613 0.739075 5.23758L3.52836 7.28284C3.63117 7.35822 3.6751 7.49034 3.63792 7.61227L2.57127 11.1104C2.48632 11.389 2.80824 11.613 3.03997 11.4365L5.81825 9.321Z" fill="#E28112"/>
</svg>
