<svg width="28" height="28" viewBox="0 0 28 28" fill="none" xmlns="http://www.w3.org/2000/svg">
<path d="M23.309 18.1336H4.69116C3.3319 18.1336 2.23022 17.0319 2.23022 15.6726V4.15625C2.23022 2.79699 3.3319 1.69531 4.69116 1.69531H23.3087C24.668 1.69531 25.7696 2.79699 25.7696 4.15625V15.6726C25.7699 17.0319 24.668 18.1336 23.309 18.1336Z" fill="#12539F"/>
<path d="M15.8816 9.39117L13.0532 7.18338C12.4895 6.7433 11.6665 7.14507 11.6665 7.86007V12.2757C11.6665 12.9909 12.4895 13.3924 13.0532 12.9523L15.8816 10.7446C16.3222 10.401 16.3222 9.73493 15.8816 9.39117Z" fill="white"/>
<path fill-rule="evenodd" clip-rule="evenodd" d="M5.53338 26.1153C5.71932 26.2444 5.9315 26.3059 6.14205 26.3059C6.48111 26.3059 6.81443 26.1454 7.02225 25.8457L9.76597 21.8903H18.9381L21.6823 25.8457C21.8901 26.1454 22.2235 26.3059 22.5625 26.3059C22.7801 26.3061 22.9926 26.2396 23.1712 26.1153C23.6571 25.7784 23.7771 25.1118 23.4408 24.6264L21.5425 21.8903H23.6296C24.2205 21.8903 24.6995 21.4112 24.6995 20.8203C24.6995 20.2294 24.2205 19.7504 23.6296 19.7504H19.5249C19.5064 19.7499 19.4879 19.7499 19.4693 19.7504H9.23405C9.21551 19.7499 9.19697 19.7499 9.17845 19.7504H4.37001C3.77911 19.7504 3.30005 20.2294 3.30005 20.8203C3.30005 21.4112 3.77911 21.8903 4.37001 21.8903H7.16174L5.26377 24.6264C4.92744 25.1118 5.04748 25.7784 5.53338 26.1153Z" fill="#12539F"/>
</svg>
