<svg id="Layer_1" data-name="Layer 1" xmlns="http://www.w3.org/2000/svg" xmlns:xlink="http://www.w3.org/1999/xlink" viewBox="0 0 79 42"><defs><linearGradient id="linear-gradient" x1="32.76" y1="-3.22" x2="36.04" y2="33.8" gradientTransform="matrix(1, 0, 0, -1, 0, 41.89)" gradientUnits="userSpaceOnUse"><stop offset="0" stop-color="#fff" stop-opacity="0"/><stop offset="1" stop-color="#dde9f7"/></linearGradient><linearGradient id="linear-gradient-2" x1="67.07" y1="17.75" x2="69.8" y2="38.53" gradientTransform="matrix(1, 0, 0, -1, 0, 41.89)" gradientUnits="userSpaceOnUse"><stop offset="0" stop-color="#e5f1ff" stop-opacity="0.3"/><stop offset="1" stop-color="#e7eff7"/></linearGradient><linearGradient id="linear-gradient-3" x1="47.26" y1="-0.34" x2="46.7" y2="23.96" xlink:href="#linear-gradient"/><linearGradient id="linear-gradient-4" x1="51.12" y1="24.26" x2="38.31" y2="9.77" gradientTransform="matrix(1, 0, 0, -1, 0, 41.89)" gradientUnits="userSpaceOnUse"><stop offset="0" stop-color="#0382cc"/><stop offset="1" stop-color="#2faefd"/></linearGradient><linearGradient id="linear-gradient-5" x1="56.7" y1="32.65" x2="42.67" y2="9.12" gradientTransform="matrix(1, 0, 0, -1, 0, 41.89)" gradientUnits="userSpaceOnUse"><stop offset="0" stop-color="#094a9e"/><stop offset="1" stop-color="#4e8fe3"/></linearGradient></defs><title>logo education</title><path d="M30.41,24.36c-2.07-.94-4.32-3.45-3.68-5.82a.77.77,0,0,1,.83.32s3.6,5.62,2.59.45c-.48-2.43-1.29-4.78-1.36-7.28-.11-4.56,4.08-5.82,5.28-.79.16.67.77,6.08,2.15,5.46a1,1,0,0,0,.41-.42c.7-1.15.91-2.84,2.2-3.23,1.13-.36,2.24.62,2.85,1.64,1.23,2.06,2.88,7.17.36,8.9s-8.89,2-11.61.8Z" fill="url(#linear-gradient)"/><path d="M72.33,25.32c1.51-1.27,2.79-3.9,1.7-5.73a.66.66,0,0,0-.62.48s-1.68,5.53-2.05,1a40.69,40.69,0,0,0-.58-6.4c-1-3.84-4.77-3.9-4.59.58,0,.59.79,5.25-.51,5.06a.86.86,0,0,1-.44-.25c-.86-.79-1.43-2.16-2.6-2.19s-1.72,1-2,2c-.54,2,.22,4.92,2.73,5.77s7,1.31,8.94-.34Z" fill="url(#linear-gradient-2)"/><path d="M.5,42A63,63,0,0,1,94,42Z" fill="url(#linear-gradient-3)"/><path d="M40.51,21.64a1.73,1.73,0,0,0,.25.92c1,1.59,3.9,2.61,6,3.15a9.32,9.32,0,0,0,4.64,0c2.11-.54,5-1.55,6-3.15a1.73,1.73,0,0,0,.25-.92V17.5l-7.34,4-.61.3a1.46,1.46,0,0,1-.64.15,1.37,1.37,0,0,1-.62-.15l-.59-.3-7.37-4Z" fill="url(#linear-gradient-4)"/><path d="M60.37,22.3V14.54L50,20.17a1.45,1.45,0,0,1-.41.16,2.12,2.12,0,0,1-.44,0,1.92,1.92,0,0,1-.43,0,1.48,1.48,0,0,1-.4-.16L37.52,14.28a.73.73,0,0,1-.34-.33,1,1,0,0,1,0-.89.73.73,0,0,1,.34-.33L48.23,6.88a1.87,1.87,0,0,1,.41-.18,1.69,1.69,0,0,1,.89,0,1.87,1.87,0,0,1,.41.18l11.72,6.36a1,1,0,0,1,.36.36.88.88,0,0,1,.12.44V22.3a1.7,1.7,0,0,1,.13,2.88.28.28,0,0,0-.12.39c.22.6.43,1.2.64,1.81s0,.78-.56.79H60.4a.5.5,0,0,1-.49-.72c.21-.64.43-1.27.67-1.9a.26.26,0,0,0-.12-.36A1.85,1.85,0,0,1,60.37,22.3Z" fill="url(#linear-gradient-5)"/></svg>