<svg width="24" height="23" viewBox="0 0 24 23" fill="none" xmlns="http://www.w3.org/2000/svg">
<path fill-rule="evenodd" clip-rule="evenodd" d="M21.8167 0.714363H21.7779L3.3248 0.6875H2.52485C1.25115 0.6875 0.218216 1.58743 0.210449 2.68883V5.10855C0.210449 5.5155 0.540345 5.8454 0.947291 5.8454H23.0526C23.4595 5.8454 23.7894 5.5155 23.7894 5.10855V2.68883C23.7816 1.68816 22.9273 0.855396 21.8167 0.714363ZM6.70505 2.85121C6.34897 2.85121 6.06031 3.14525 6.06031 3.50133C6.06031 3.85741 6.34897 4.15145 6.70505 4.15145H17.4892C17.8453 4.15145 18.134 3.85741 18.134 3.50133C18.134 3.14525 17.8453 2.85121 17.4892 2.85121H6.70505Z" fill="#12539F"/>
<path d="M2.52485 22.0572H21.4905C22.7564 22.0572 23.7971 21.0722 23.7894 19.8742V8.32031C23.7894 7.76803 23.3416 7.32031 22.7894 7.32031H1.21045C0.658165 7.32031 0.210449 7.76803 0.210449 8.32031V19.8742C0.218216 21.0722 1.25115 22.0572 2.52485 22.0572Z" fill="#0F50A4"/>
<path d="M9.61305 15.6374L9.34949 17.1461C9.27834 17.5533 9.70407 17.8661 10.0714 17.6764L11.4815 16.9483C11.6698 16.8504 11.9034 16.8504 12.0918 16.9483L13.5018 17.6764C13.8692 17.8661 14.2949 17.5533 14.2238 17.1461L13.9602 15.6374C13.9225 15.4189 13.9979 15.1929 14.1561 15.0422L15.2528 13.9992C15.5558 13.7111 15.3923 13.2005 14.9783 13.1418L13.4479 12.9251C13.2294 12.895 13.041 12.7594 12.9506 12.5635L12.2382 11.1525C12.053 10.7858 11.5291 10.7864 11.3449 11.1536L10.6377 12.5635C10.5397 12.7594 10.3514 12.895 10.1329 12.9251L8.5998 13.1422C8.18629 13.2008 8.02254 13.7105 8.32459 13.9989L9.41717 15.0422C9.57538 15.1929 9.65072 15.4189 9.61305 15.6374Z" fill="white"/>
</svg>
