<svg width="28" height="28" viewBox="0 0 28 28" fill="none" xmlns="http://www.w3.org/2000/svg">
<path d="M2.23682 23.7178V24.903C2.23682 25.8497 3.00433 26.6173 3.9511 26.6173H23.832C24.7788 26.6173 25.5463 25.8497 25.5463 24.903V13.4154C25.5463 11.921 23.7674 11.1421 22.6693 12.1557L16.0963 18.223C15.4315 18.8367 14.4043 18.8281 13.7499 18.2034L11.6119 16.1626C10.9443 15.5254 9.8922 15.531 9.23146 16.1752L2.75436 22.4904C2.42344 22.813 2.23682 23.2556 2.23682 23.7178Z" fill="#12539F"/>
<path d="M22.5265 8.71674C22.9931 9.18331 23.7898 8.96984 23.9606 8.33249L25.3526 3.13715C25.5234 2.49981 24.9402 1.9166 24.3029 2.08737L19.1075 3.47946C18.4702 3.65024 18.2567 4.44692 18.7233 4.91349L19.1823 5.37255C19.5171 5.70729 19.5171 6.25 19.1823 6.58474L15.3987 10.3684C15.064 10.7031 14.5213 10.7031 14.1865 10.3684L10.9004 7.08224C10.5657 6.7475 10.0229 6.74751 9.68819 7.08225L1.87926 14.8916C1.54453 15.2263 1.54454 15.769 1.87927 16.1037L2.3401 16.5646C2.67484 16.8993 3.21757 16.8993 3.5523 16.5646L9.68821 10.4283C10.0229 10.0936 10.5657 10.0935 10.9004 10.4283L14.1865 13.7144C14.5213 14.0491 15.064 14.0491 15.3987 13.7144L20.8553 8.25775C21.1901 7.92302 21.7328 7.92302 22.0675 8.25775L22.5265 8.71674Z" fill="#12539F"/>
</svg>
