<svg width="28" height="28" viewBox="0 0 28 28" fill="none" xmlns="http://www.w3.org/2000/svg">
<path d="M6.13033 17.8772C7.84468 17.2391 8.76848 16.9248 9.10183 16.82C9.41015 16.7382 9.70293 16.6063 9.96849 16.4295C10.1198 16.338 10.2576 16.2258 10.378 16.0963V16.0391C10.3228 15.8992 10.2906 15.7512 10.2828 15.601C10.2728 15.522 10.2728 15.442 10.2828 15.3629L9.90186 15.0105C9.63617 14.7653 9.42521 14.4667 9.28277 14.1343C9.1875 13.9058 9.09234 13.6867 9.01606 13.4486V13.2772C8.8346 13.1147 8.67172 12.9327 8.5304 12.7344C8.31871 12.4245 8.16391 12.0794 8.07324 11.7152C7.92181 11.2651 7.86664 10.7881 7.91131 10.3153C7.94249 10.0326 8.00641 9.7546 8.10176 9.48673C8.14603 9.35274 8.20015 9.22222 8.26369 9.09623C8.26679 8.58977 8.30179 8.08402 8.36847 7.58196C8.42809 7.0617 8.52356 6.54617 8.65419 6.03906H8.46374C8.22376 6.04197 7.98458 6.06746 7.74938 6.11521C7.5003 6.15925 7.25734 6.2328 7.02565 6.33429C6.77218 6.45743 6.53271 6.60751 6.31137 6.78194C6.05915 6.98524 5.84338 7.22999 5.67328 7.5057C5.46587 7.83287 5.30854 8.18922 5.20652 8.56292C5.10517 8.9282 5.03197 9.30071 4.98755 9.67718C4.94002 10.088 4.92093 10.5017 4.93041 10.9152C4.77547 11.1268 4.68307 11.3776 4.66372 11.6391C4.6355 11.8029 4.6355 11.9704 4.66372 12.1343C4.70535 12.2829 4.76957 12.4243 4.85414 12.5534C4.91097 12.6349 4.97473 12.7114 5.0447 12.782C5.11136 12.8311 5.18522 12.8696 5.26367 12.8962L5.4066 13.3914C5.46372 13.5343 5.51138 13.6677 5.57802 13.8105C5.62618 13.9282 5.69743 14.0351 5.78758 14.1248C5.94905 14.261 6.10171 14.4073 6.24463 14.5629C6.3949 14.7262 6.47672 14.941 6.4732 15.1629V15.6104C6.47514 15.7498 6.45259 15.8884 6.40656 16.02C6.35158 16.1635 6.2709 16.2959 6.16848 16.4105C6.02334 16.5694 5.85666 16.7073 5.67328 16.82C5.37911 17.0076 5.05789 17.1489 4.72084 17.239C4.47327 17.3058 3.6161 17.62 3.03516 17.8296V21.8676H3.12082C3.12082 21.6295 3.17797 21.3629 3.22561 21.0106V20.9153C3.3162 20.0992 3.70649 19.3457 4.32086 18.801C4.82321 18.4041 5.39476 18.1038 6.00655 17.9153H6.13033V17.8772ZM22.6774 17.9153H22.8012C23.4129 18.1038 23.9845 18.4041 24.4868 18.801C25.1012 19.3458 25.4915 20.0992 25.5821 20.9153V21.0106C25.6297 21.3629 25.6869 21.6295 25.6869 21.8676H25.7726V17.8296C25.1916 17.62 24.3344 17.3058 24.0869 17.2391C23.7498 17.1489 23.4286 17.0076 23.1344 16.82C22.951 16.7073 22.7844 16.5695 22.6393 16.4105C22.5368 16.2959 22.4562 16.1636 22.4012 16.02C22.3551 15.8885 22.3326 15.7498 22.3345 15.6105V15.1629C22.331 14.941 22.4128 14.7262 22.5631 14.5629C22.706 14.4074 22.8587 14.261 23.0201 14.1248C23.1103 14.0351 23.1815 13.9282 23.2297 13.8105C23.2964 13.6677 23.344 13.5343 23.4011 13.3915L23.5441 12.8962C23.6225 12.8697 23.6964 12.8311 23.763 12.782C23.833 12.7114 23.8968 12.635 23.9536 12.5534C24.0382 12.4243 24.1024 12.2829 24.144 12.1343C24.1722 11.9704 24.1722 11.803 24.144 11.6391C24.1247 11.3776 24.0323 11.1268 23.8773 10.9152C23.8868 10.5017 23.8677 10.0881 23.8202 9.6772C23.7758 9.30073 23.7026 8.92822 23.6012 8.56294C23.4992 8.18923 23.3419 7.83288 23.1345 7.50573C22.9644 7.23001 22.7486 6.98526 22.4964 6.78196C22.275 6.60755 22.0356 6.45747 21.7821 6.33432C21.5504 6.23282 21.3074 6.15928 21.0584 6.11524C20.8232 6.06749 20.584 6.042 20.344 6.03909H20.1535C20.2842 6.5462 20.3797 7.06172 20.4393 7.58199C20.5059 8.08404 20.5409 8.5898 20.544 9.09626C20.6076 9.22225 20.6617 9.35277 20.706 9.48675C20.8013 9.75463 20.8652 10.0327 20.8964 10.3153C20.9411 10.7881 20.8859 11.2651 20.7345 11.7153C20.6438 12.0794 20.489 12.4245 20.2773 12.7344C20.136 12.9327 19.9731 13.1148 19.7917 13.2772V13.4486C19.7154 13.6867 19.6202 13.9058 19.5249 14.1344C19.3825 14.4667 19.1715 14.7653 18.9059 15.0106L18.525 15.363C18.5349 15.442 18.5349 15.522 18.525 15.601C18.5171 15.7513 18.4849 15.8992 18.4297 16.0391V16.0963C18.5501 16.2258 18.6879 16.338 18.8392 16.4295C19.1048 16.6063 19.3976 16.7382 19.7059 16.8201C20.0392 16.9249 20.9631 17.2391 22.6774 17.8772V17.9153ZM22.6774 17.9426H22.8012C23.4129 18.1312 23.9845 18.4315 24.4868 18.8283C25.1012 19.3731 25.4915 20.1265 25.5821 20.9426V21.0379C25.6297 21.3903 25.6869 21.6569 25.6869 21.895H25.7726V17.857C25.1916 17.6474 24.3344 17.3331 24.0869 17.2664C23.7498 17.1763 23.4286 17.035 23.1344 16.8474C22.951 16.7347 22.7844 16.5968 22.6393 16.4378C22.5368 16.3232 22.4562 16.1909 22.4012 16.0474C22.3551 15.9158 22.3326 15.7772 22.3345 15.6378V15.1903C22.331 14.9684 22.4128 14.7536 22.5631 14.5902C22.706 14.4347 22.8587 14.2884 23.0201 14.1522C23.1103 14.0624 23.1815 13.9556 23.2297 13.8378C23.2964 13.695 23.344 13.5616 23.4011 13.4188L23.5441 12.9236C23.6225 12.897 23.6964 12.8585 23.763 12.8094C23.833 12.7388 23.8968 12.6623 23.9536 12.5808C24.0382 12.4517 24.1024 12.3103 24.144 12.1617C24.1722 11.9978 24.1722 11.8304 24.144 11.6665C24.1247 11.405 24.0323 11.1542 23.8773 10.9426C23.8868 10.5291 23.8677 10.1155 23.8202 9.7046C23.7758 9.32813 23.7026 8.95562 23.6012 8.59034C23.4992 8.21662 23.3419 7.86026 23.1345 7.5331C22.9644 7.25738 22.7486 7.01263 22.4964 6.80934C22.275 6.63492 22.0356 6.48484 21.7821 6.36169C21.5504 6.2602 21.3074 6.18665 21.0584 6.14261C20.8232 6.09486 20.584 6.06937 20.344 6.06646H20.1535C20.2842 6.57357 20.3797 7.0891 20.4393 7.60936C20.5059 8.11142 20.5409 8.61717 20.544 9.12363C20.6076 9.24961 20.6617 9.38012 20.706 9.5141C20.8013 9.78198 20.8652 10.06 20.8964 10.3427C20.9411 10.8155 20.8859 11.2925 20.7345 11.7426C20.6438 12.1068 20.489 12.4519 20.2773 12.7617C20.136 12.9601 19.9731 13.1421 19.7917 13.3045V13.476C19.7154 13.7141 19.6202 13.9332 19.5249 14.1617C19.3825 14.4941 19.1715 14.7926 18.9059 15.0379L18.525 15.3903C18.5349 15.4693 18.5349 15.5493 18.525 15.6284C18.5171 15.7786 18.4849 15.9266 18.4297 16.0665V16.1237C18.5501 16.2532 18.6879 16.3653 18.8392 16.4569C19.1048 16.6336 19.3976 16.7656 19.7059 16.8474C20.0392 16.9522 20.9631 17.2664 22.6774 17.9045V17.9426Z" fill="#12539F"/>
<path d="M23.9132 20.7536C23.7959 20.3841 23.5783 20.0544 23.2847 19.8013C22.9756 19.5609 22.6362 19.3624 22.2752 19.2107C21.9038 19.0584 20.2656 18.2584 19.8561 18.1917C19.4709 18.0844 19.0924 17.954 18.7228 17.8012C18.3978 17.6656 18.0983 17.4755 17.837 17.2393C17.633 17.057 17.4706 16.8329 17.3609 16.5822C17.2648 16.3657 17.2098 16.1331 17.199 15.8965C17.1764 15.5069 17.2382 15.1172 17.38 14.7537C17.4293 14.6338 17.5003 14.524 17.5894 14.4298C17.6759 14.3377 17.7717 14.2547 17.8752 14.1822C18.0012 14.091 18.1191 13.989 18.2275 13.8774C18.3527 13.7529 18.4558 13.608 18.5323 13.4489C18.6181 13.2584 18.6942 13.0679 18.7705 12.8774C18.8466 12.687 18.8943 12.4203 18.9514 12.1917C19.0794 12.1347 19.1932 12.0502 19.2847 11.9441C19.4105 11.8165 19.5136 11.6683 19.5895 11.506C19.6914 11.2698 19.7557 11.0192 19.78 10.7632C19.8134 10.5646 19.8134 10.3618 19.78 10.1631C19.7528 10.0246 19.708 9.89022 19.6467 9.76312C19.6126 9.65137 19.5422 9.55419 19.4466 9.487C19.4595 8.89149 19.4245 8.29591 19.3418 7.70602C19.2732 7.15912 19.1521 6.62012 18.98 6.09649C18.8145 5.53245 18.5536 5.00095 18.2086 4.52507C18.035 4.29427 17.8298 4.08906 17.599 3.9155C17.3416 3.70003 17.0605 3.51472 16.761 3.36318C16.4293 3.2053 16.0853 3.07471 15.7324 2.97268C15.3602 2.86947 14.9756 2.81822 14.5895 2.82038C14.27 2.82582 13.9514 2.85765 13.6372 2.91553C13.3086 2.97867 12.9889 3.08099 12.6847 3.22028C11.8846 3.55289 11.1993 4.1124 10.7133 4.82981C10.4288 5.27618 10.2166 5.76476 10.0848 6.27742C9.82564 7.32658 9.7166 8.40721 9.76096 9.487C9.65438 9.62856 9.57083 9.78606 9.51339 9.95368C9.4458 10.1098 9.39471 10.2726 9.36095 10.4393C9.34145 10.6676 9.36735 10.8974 9.43713 11.1156C9.48404 11.3225 9.56794 11.5194 9.68481 11.6965C9.76492 11.8084 9.85409 11.9135 9.95141 12.0107C10.0392 12.0799 10.1394 12.1317 10.2466 12.1632L10.4562 12.8584C10.5229 13.0489 10.599 13.2393 10.6753 13.4203C10.7428 13.585 10.8432 13.734 10.9705 13.8584C11.1907 14.0469 11.4005 14.2472 11.5991 14.4583C11.8015 14.6839 11.9164 14.9745 11.9228 15.2775V15.9059C11.9195 16.0969 11.8874 16.2864 11.8277 16.4679C11.7469 16.6629 11.6342 16.8431 11.4943 17.0012C11.2988 17.2154 11.0744 17.4014 10.8276 17.5536C10.4488 17.8185 10.0266 18.0152 9.58003 18.1345C9.09435 18.2678 7.01816 19.0392 6.57052 19.2107C6.1436 19.3573 5.74674 19.58 5.39911 19.8679C5.05526 20.2001 4.83658 20.6407 4.78002 21.1155C4.65342 21.6777 4.62444 22.2576 4.69435 22.8297C4.68741 23.2178 4.80413 23.5981 5.02762 23.9155C5.36765 24.088 5.72978 24.213 6.10384 24.2869C8.95852 24.8758 11.8653 25.1758 14.78 25.1821C17.638 25.2175 20.4853 24.8259 23.2276 24.0202C23.4472 23.9602 23.6495 23.8493 23.8181 23.6964C23.9292 23.4724 24.0001 23.2307 24.0276 22.9822C24.0741 22.6509 24.0964 22.3166 24.0943 21.9821C24.0943 21.6392 24.0943 21.9154 24.0467 21.5726C24.0254 21.2824 23.9743 20.9952 23.8943 20.7154L23.9132 20.7536ZM15.8276 22.8869C15.7176 23.0295 15.5965 23.1633 15.4656 23.287C15.3371 23.4142 15.1968 23.529 15.0466 23.6298C14.9549 23.7079 14.8424 23.7575 14.7228 23.7726C14.6124 23.7521 14.5081 23.7065 14.418 23.6393C14.267 23.5356 14.1238 23.421 13.9895 23.2964C13.8536 23.1714 13.7293 23.0343 13.6181 22.8869C13.5364 22.804 13.4831 22.6973 13.4657 22.5822C13.4712 22.3964 13.4935 22.2115 13.5323 22.0297C13.5323 21.7917 13.6371 21.525 13.6942 21.2584C13.7514 20.9916 13.818 20.725 13.8942 20.4678C13.9705 20.2108 13.999 20.0774 14.0561 19.8869C13.9149 19.7602 13.7901 19.6162 13.6847 19.4584C13.6115 19.3553 13.5716 19.2324 13.5704 19.106C13.5741 18.9784 13.6101 18.8538 13.6752 18.744C13.738 18.6331 13.8149 18.5307 13.9038 18.4393C14.0123 18.322 14.1301 18.2137 14.2562 18.1155H15.2847L15.6371 18.4393C15.7424 18.5301 15.8297 18.6399 15.8942 18.7631C15.9699 18.8685 16.0099 18.9953 16.0085 19.125C16.0033 19.2816 15.9537 19.4335 15.8656 19.5631C15.7502 19.71 15.6193 19.8441 15.4752 19.963C15.4752 20.1345 15.5704 20.3345 15.618 20.6011L15.7895 21.3916C15.7895 21.6488 15.8943 21.8964 15.9324 22.125C15.9632 22.2789 15.9823 22.4349 15.9896 22.5916C15.9728 22.7097 15.9195 22.8196 15.8372 22.9059L15.8276 22.8869Z" fill="#12539F"/>
</svg>
