<svg width="27" height="20" viewBox="0 0 27 20" fill="none" xmlns="http://www.w3.org/2000/svg">
<path d="M17.1171 2.6752H26.7027V0.421875H14.1386C15.2544 0.99494 16.2622 1.75737 17.1171 2.6752ZM26.7027 8.31062V6.05646H19.253C19.5362 6.77346 19.7466 7.52734 19.8706 8.31062H26.7027ZM26.7027 13.9452V11.691H19.8706C19.7466 12.4735 19.5367 13.2274 19.253 13.9452H26.7027ZM14.1386 19.5798H26.7027V17.3256H17.1171C16.2623 18.2438 15.2545 19.0066 14.1386 19.5798ZM9.24395 1.4933C4.54616 1.4933 0.736816 5.30221 0.736816 10.0013C0.736816 14.6995 4.54616 18.5076 9.24395 18.5076C13.9418 18.5076 17.7511 14.6995 17.7511 10.0013C17.7511 5.30221 13.9418 1.4933 9.24395 1.4933ZM16.5336 9.99429C16.5336 14.0205 13.2702 17.2847 9.24392 17.2847C5.2177 17.2847 1.95353 14.0205 1.95353 9.99429C1.95353 5.96845 5.2177 2.70471 9.24392 2.70471C13.2702 2.70471 16.5336 5.96847 16.5336 9.99429Z" fill="#12539F"/>
<path d="M9.57202 10.7344V12.7019C9.90123 12.6118 10.3338 12.3947 10.3338 11.7698C10.3338 11.1099 9.83356 10.8712 9.57202 10.7344Z" fill="#12539F"/>
<path d="M9.24595 4.0625C5.96689 4.06888 3.31562 6.72013 3.30957 9.99851C3.31562 13.2776 5.96689 15.9281 9.24595 15.9353C12.5236 15.9281 15.1752 13.2776 15.1817 9.99851C15.1752 6.72013 12.5236 4.06888 9.24595 4.0625ZM11.6407 11.7017C11.6407 13.2822 10.4022 13.8056 9.65179 13.9296V14.4416C9.65179 14.6347 9.61686 14.669 9.41307 14.669H9.18504C8.98055 14.669 8.94595 14.6347 8.94595 14.4416V13.9296C8.56045 13.9296 6.96811 13.6688 6.96811 13.3278C6.96811 13.2936 6.96811 13.2936 6.99164 13.2252L7.32085 12.2707C7.33191 12.2475 7.37752 12.1791 7.42348 12.1791C7.49117 12.1791 8.25368 12.6227 8.94595 12.7018V10.4745C8.25368 10.1674 6.94603 9.76907 6.94603 8.26757C6.94603 6.59723 8.42327 6.11978 8.94595 6.0966V5.53971C8.94595 5.34586 8.98055 5.31168 9.18504 5.31168H9.41307C9.61689 5.31168 9.65179 5.34588 9.65179 5.53971V6.0966C9.98172 6.11976 11.4365 6.36991 11.4365 6.75614C11.4365 6.80175 11.4254 6.83592 11.4026 6.88153L11.0506 7.65437C11.0268 7.71135 10.9929 7.74486 10.948 7.74486C10.8789 7.74486 10.1407 7.29059 9.65179 7.29059V9.39421C10.3908 9.75763 11.6407 10.2468 11.6407 11.7017Z" fill="#12539F"/>
<path d="M8.25366 8.17555C8.25366 8.79019 8.776 9.02855 9.02683 9.14257V7.28906C8.7988 7.34573 8.25366 7.50499 8.25366 8.17555Z" fill="#12539F"/>
</svg>
