<svg width="26" height="26" viewBox="0 0 26 26" fill="none" xmlns="http://www.w3.org/2000/svg">
<path d="M14.5073 22.1726L14.7594 20.2764L18.8012 19.052L19.3242 17.4512L17.7359 13.2116L19.4218 7.83214L21.8946 6.83944L23.213 0.929688L25.5074 1.46309L25.5262 23.9419C25.526 24.0824 25.4981 24.2215 25.444 24.3511C25.39 24.4808 25.3109 24.5986 25.2112 24.6976C25.1116 24.7967 24.9934 24.8751 24.8634 24.9284C24.7334 24.9817 24.5941 25.0088 24.4536 25.0082H7.70715L7.64087 23.8359L14.5073 22.1726Z" fill="#12539F"/>
<path d="M3.30897 11.2021C3.13045 11.5699 3.03783 11.9734 3.03809 12.3822L3.13883 18.7105L0.944129 23.4204C0.864675 23.5669 0.811504 23.7263 0.787028 23.8912C0.758758 24.0763 0.767352 24.2652 0.812318 24.447C0.857284 24.6287 0.937735 24.7999 1.04905 24.9505C1.16036 25.1011 1.30034 25.2282 1.46094 25.3245C1.62153 25.4208 1.79958 25.4844 1.98485 25.5117C2.27347 25.556 2.56872 25.5103 2.83046 25.3809C3.09221 25.2514 3.30775 25.0446 3.4478 24.7884L5.86223 19.6401C5.91233 19.5206 5.95722 19.3948 5.97549 19.257L5.98853 19.0628L5.96974 15.1505L9.68011 16.7643L10.2793 20.5879C10.3415 20.8689 10.4875 21.1244 10.698 21.3206C10.9085 21.5169 11.1736 21.6447 11.4583 21.6871C11.8319 21.7422 12.2122 21.648 12.5168 21.4248C12.8214 21.2016 13.0257 20.8673 13.0857 20.4945C13.1039 20.3624 13.1039 20.2304 13.0914 20.1051L12.3602 15.4892C12.3163 15.2678 12.2209 15.0597 12.0818 14.8818C11.9428 14.704 11.7639 14.5613 11.5596 14.4652L8.24325 12.9975L10.355 9.33676L11.4025 10.6619C11.5094 10.7809 11.6483 10.8817 11.8054 10.9443L15.7971 12.1056C16.0552 12.162 16.325 12.1256 16.5591 12.0028C16.7931 11.8801 16.9764 11.6788 17.0768 11.4344C17.1324 11.2978 17.1606 11.1516 17.1596 11.0041C17.1587 10.8566 17.1287 10.7108 17.0714 10.5749C17.014 10.439 16.9304 10.3158 16.8254 10.2123C16.7204 10.1087 16.596 10.0269 16.4594 9.97142L16.4025 9.95263L12.9343 8.9354L10.3236 5.81481C9.9208 5.38513 9.38614 5.1021 8.80432 5.01053C8.30194 4.93561 7.78861 5.00924 7.32754 5.22234C6.86647 5.43544 6.47777 5.77872 6.20931 6.20991L3.30897 11.2021ZM10.0971 4.7339C11.2761 4.7339 12.2344 3.77983 12.2344 2.60549C12.2339 1.43169 11.2761 0.476562 10.0971 0.476562C8.91809 0.476562 7.95932 1.43169 7.95932 2.60549C7.9588 3.77983 8.91757 4.7339 10.0971 4.7339ZM5.84396 5.06689C5.88377 4.99764 5.90948 4.92119 5.91961 4.84195C5.92974 4.76272 5.92409 4.68226 5.90299 4.60522C5.88189 4.52818 5.84574 4.45607 5.79665 4.39306C5.74755 4.33005 5.68647 4.27737 5.61692 4.23808L4.58247 3.63525C4.44102 3.55514 4.27372 3.53393 4.11675 3.57622C3.95979 3.61852 3.82578 3.72091 3.74374 3.86125L0.553725 9.34355C0.514103 9.41282 0.488532 9.48923 0.478473 9.5684C0.468415 9.64757 0.474067 9.72795 0.495106 9.80493C0.516145 9.88191 0.55216 9.95399 0.601086 10.017C0.650013 10.0801 0.710895 10.1329 0.780243 10.1724L1.82097 10.7694C1.9606 10.8501 2.12649 10.8723 2.28239 10.831C2.43828 10.7897 2.5715 10.6884 2.65291 10.5492L5.84396 5.06689Z" fill="#12539F"/>
</svg>
