<svg width="30" height="30" viewBox="0 0 30 30" fill="none" xmlns="http://www.w3.org/2000/svg">
<path opacity="0.7" d="M30 15C30 23.2843 23.2843 30 15 30C6.71573 30 0 23.2843 0 15C0 6.71573 6.71573 0 15 0C23.2843 0 30 6.71573 30 15ZM3 15C3 21.6274 8.37258 27 15 27C21.6274 27 27 21.6274 27 15C27 8.37258 21.6274 3 15 3C8.37258 3 3 8.37258 3 15Z" fill="#AFAFAF" fill-opacity="0.25"/>
<path d="M30 15C30 23.2843 23.2843 30 15 30C6.71573 30 0 23.2843 0 15C0 6.71573 6.71573 0 15 0C23.2843 0 30 6.71573 30 15ZM3 15C3 21.6274 8.37258 27 15 27C21.6274 27 27 21.6274 27 15C27 8.37258 21.6274 3 15 3C8.37258 3 3 8.37258 3 15Z" fill="#0F50A4"/>
<g opacity="0.8">
<path d="M11.88 18V16.7H8.43V15.68L11.71 11H13.16V15.59H14.08V16.7H13.16V18H11.88ZM9.8 15.59H11.96V12.41L9.8 15.59Z" fill="#0F50A4"/>
<path d="M14.6363 19.11L17.1363 10.23H18.3863L15.8762 19.11H14.6363ZM22.4952 18V16.7H19.0452V15.68L22.3252 11H23.7752V15.59H24.6952V16.7H23.7752V18H22.4952ZM20.4152 15.59H22.5752V12.41L20.4152 15.59Z" fill="#6D7174"/>
</g>
</svg>
