<svg width="30" height="30" viewBox="0 0 30 30" fill="none" xmlns="http://www.w3.org/2000/svg">
<path opacity="0.7" d="M30 15C30 23.2843 23.2843 30 15 30C6.71573 30 0 23.2843 0 15C0 6.71573 6.71573 0 15 0C23.2843 0 30 6.71573 30 15ZM3 15C3 21.6274 8.37258 27 15 27C21.6274 27 27 21.6274 27 15C27 8.37258 21.6274 3 15 3C8.37258 3 3 8.37258 3 15Z" fill="#AFAFAF" fill-opacity="0.25"/>
<path d="M15 1.5C15 0.671573 15.6732 -0.00776793 16.4975 0.0749379C17.9536 0.221038 19.3833 0.579722 20.7403 1.14181C22.5601 1.89563 24.2137 3.00052 25.6066 4.3934C26.9995 5.78628 28.1044 7.43987 28.8582 9.25975C29.4203 10.6167 29.779 12.0464 29.9251 13.5025C30.0078 14.3268 29.3284 15 28.5 15C27.6716 15 27.0097 14.3259 26.9064 13.5039C26.7729 12.4421 26.4978 11.4006 26.0866 10.4078C25.4835 8.95189 24.5996 7.62902 23.4853 6.51472C22.371 5.40042 21.0481 4.5165 19.5922 3.91345C18.5994 3.5022 17.5579 3.22705 16.4961 3.09363C15.6741 2.99034 15 2.32843 15 1.5Z" fill="#0F50A4"/>
<g opacity="0.8">
<path d="M9.44 18V12.46L8.29 12.73V11.75L9.98 11H10.77V18H9.44Z" fill="#0F50A4"/>
<path d="M11.6773 19.11L14.1773 10.23H15.4273L12.9173 19.11H11.6773ZM19.5363 18V16.7H16.0863V15.68L19.3663 11H20.8163V15.59H21.7363V16.7H20.8163V18H19.5363ZM17.4563 15.59H19.6163V12.41L17.4563 15.59Z" fill="#6D7174"/>
</g>
</svg>
