<svg width="30" height="30" viewBox="0 0 30 30" fill="none" xmlns="http://www.w3.org/2000/svg">
<path opacity="0.7" d="M30 15C30 23.2843 23.2843 30 15 30C6.71573 30 0 23.2843 0 15C0 6.71573 6.71573 0 15 0C23.2843 0 30 6.71573 30 15ZM3 15C3 21.6274 8.37258 27 15 27C21.6274 27 27 21.6274 27 15C27 8.37258 21.6274 3 15 3C8.37258 3 3 8.37258 3 15Z" fill="#AFAFAF" fill-opacity="0.25"/>
<path d="M15 1.5C15 0.671573 15.6733 -0.00777211 16.4976 0.0749321C18.9352 0.319507 21.2839 1.15845 23.3336 2.52796C25.8003 4.17618 27.7229 6.51886 28.8582 9.25975C29.9935 12.0006 30.2906 15.0166 29.7118 17.9264C29.133 20.8361 27.7044 23.5088 25.6066 25.6066C23.5088 27.7044 20.8361 29.133 17.9264 29.7118C15.0166 30.2906 12.0006 29.9935 9.25975 28.8582C6.51886 27.7229 4.17618 25.8003 2.52796 23.3336C1.15845 21.2839 0.319506 18.9352 0.0749319 16.4976C-0.00777217 15.6733 0.671573 15 1.5 15C2.32843 15 2.99034 15.6742 3.09362 16.4961C3.32524 18.3394 3.9827 20.1109 5.02236 21.6668C6.34094 23.6402 8.21509 25.1783 10.4078 26.0866C12.6005 26.9948 15.0133 27.2324 17.3411 26.7694C19.6689 26.3064 21.8071 25.1635 23.4853 23.4853C25.1635 21.8071 26.3064 19.6689 26.7694 17.3411C27.2324 15.0133 26.9948 12.6005 26.0866 10.4078C25.1783 8.21509 23.6402 6.34094 21.6668 5.02236C20.1109 3.9827 18.3394 3.32524 16.4961 3.09362C15.6742 2.99034 15 2.32843 15 1.5Z" fill="#0F50A4"/>
<g opacity="0.8">
<path d="M10.97 18.12C10.51 18.12 10.0933 18.04 9.72 17.88C9.34667 17.7133 9.04667 17.46 8.82 17.12C8.59333 16.78 8.47333 16.3533 8.46 15.84H9.72C9.72667 16.18 9.83667 16.4667 10.05 16.7C10.27 16.9267 10.5767 17.04 10.97 17.04C11.3433 17.04 11.63 16.9367 11.83 16.73C12.03 16.5233 12.13 16.2633 12.13 15.95C12.13 15.5833 11.9967 15.3067 11.73 15.12C11.47 14.9267 11.1333 14.83 10.72 14.83H10.2V13.78H10.73C11.07 13.78 11.3533 13.7 11.58 13.54C11.8067 13.38 11.92 13.1433 11.92 12.83C11.92 12.57 11.8333 12.3633 11.66 12.21C11.4933 12.05 11.26 11.97 10.96 11.97C10.6333 11.97 10.3767 12.0667 10.19 12.26C10.01 12.4533 9.91 12.69 9.89 12.97H8.64C8.66667 12.3233 8.89 11.8133 9.31 11.44C9.73667 11.0667 10.2867 10.88 10.96 10.88C11.44 10.88 11.8433 10.9667 12.17 11.14C12.5033 11.3067 12.7533 11.53 12.92 11.81C13.0933 12.09 13.18 12.4 13.18 12.74C13.18 13.1333 13.07 13.4667 12.85 13.74C12.6367 14.0067 12.37 14.1867 12.05 14.28C12.4433 14.36 12.7633 14.5533 13.01 14.86C13.2567 15.16 13.38 15.54 13.38 16C13.38 16.3867 13.2867 16.74 13.1 17.06C12.9133 17.38 12.64 17.6367 12.28 17.83C11.9267 18.0233 11.49 18.12 10.97 18.12Z" fill="#0F50A4"/>
<path d="M14.187 19.11L16.687 10.23H17.937L15.427 19.11H14.187ZM22.046 18V16.7H18.596V15.68L21.876 11H23.326V15.59H24.246V16.7H23.326V18H22.046ZM19.966 15.59H22.126V12.41L19.966 15.59Z" fill="#6D7174"/>
</g>
</svg>
