<svg width="30" height="30" viewBox="0 0 30 30" fill="none" xmlns="http://www.w3.org/2000/svg">
<path opacity="0.7" d="M30 15C30 23.2843 23.2843 30 15 30C6.71573 30 0 23.2843 0 15C0 6.71573 6.71573 0 15 0C23.2843 0 30 6.71573 30 15ZM3 15C3 21.6274 8.37258 27 15 27C21.6274 27 27 21.6274 27 15C27 8.37258 21.6274 3 15 3C8.37258 3 3 8.37258 3 15Z" fill="#AFAFAF" fill-opacity="0.25"/>
<path d="M15 1.5C15 0.671573 15.6732 -0.00776793 16.4975 0.0749379C17.9536 0.221038 19.3833 0.579722 20.7403 1.14181C22.5601 1.89563 24.2137 3.00052 25.6066 4.3934C26.9995 5.78628 28.1044 7.43987 28.8582 9.25975C29.612 11.0796 30 13.0302 30 15C30 16.9698 29.612 18.9204 28.8582 20.7403C28.1044 22.5601 26.9995 24.2137 25.6066 25.6066C24.2137 26.9995 22.5601 28.1044 20.7402 28.8582C19.3833 29.4203 17.9536 29.779 16.4975 29.9251C15.6732 30.0078 15 29.3284 15 28.5C15 27.6716 15.6741 27.0097 16.4961 26.9064C17.5579 26.7729 18.5994 26.4978 19.5922 26.0866C21.0481 25.4835 22.371 24.5996 23.4853 23.4853C24.5996 22.371 25.4835 21.0481 26.0866 19.5922C26.6896 18.1363 27 16.5759 27 15C27 13.4241 26.6896 11.8637 26.0866 10.4078C25.4835 8.95189 24.5996 7.62902 23.4853 6.51472C22.371 5.40042 21.0481 4.5165 19.5922 3.91345C18.5994 3.5022 17.5579 3.22705 16.4961 3.09363C15.6741 2.99034 15 2.32843 15 1.5Z" fill="#0F50A4"/>
<g opacity="0.8">
<path d="M8.51 18V17.07C8.93667 16.7167 9.35 16.3667 9.75 16.02C10.1567 15.6733 10.5167 15.33 10.83 14.99C11.15 14.65 11.4033 14.32 11.59 14C11.7833 13.6733 11.88 13.3567 11.88 13.05C11.88 12.7633 11.8 12.51 11.64 12.29C11.4867 12.07 11.23 11.96 10.87 11.96C10.5033 11.96 10.2267 12.08 10.04 12.32C9.85333 12.56 9.76 12.85 9.76 13.19H8.52C8.53333 12.6767 8.64667 12.25 8.86 11.91C9.07333 11.5633 9.35667 11.3067 9.71 11.14C10.0633 10.9667 10.46 10.88 10.9 10.88C11.6133 10.88 12.1667 11.0767 12.56 11.47C12.96 11.8567 13.16 12.36 13.16 12.98C13.16 13.3667 13.07 13.7433 12.89 14.11C12.7167 14.4767 12.4867 14.83 12.2 15.17C11.9133 15.51 11.6033 15.83 11.27 16.13C10.9367 16.4233 10.6133 16.6967 10.3 16.95H13.33V18H8.51Z" fill="#0F50A4"/>
<path d="M13.9429 19.11L16.4429 10.23H17.6929L15.1829 19.11H13.9429ZM21.8019 18V16.7H18.3519V15.68L21.6319 11H23.0819V15.59H24.0019V16.7H23.0819V18H21.8019ZM19.7219 15.59H21.8819V12.41L19.7219 15.59Z" fill="#6D7174"/>
</g>
</svg>
