<svg width="27" height="23" viewBox="0 0 27 23" fill="none" xmlns="http://www.w3.org/2000/svg">
<path d="M23.7516 3.79492H2.63906C2.2925 3.79492 1.94932 3.86408 1.62914 3.99844C1.30895 4.13279 1.01802 4.32973 0.772963 4.57799C0.527904 4.82625 0.333512 5.12098 0.200887 5.44536C0.0682613 5.76973 0 6.11739 0 6.46848V19.8363C0 20.1874 0.0682613 20.535 0.200887 20.8594C0.333512 21.1838 0.527904 21.4785 0.772963 21.7268C1.01802 21.975 1.30895 22.172 1.62914 22.3063C1.94932 22.4407 2.2925 22.5098 2.63906 22.5098H23.7516C24.0981 22.5098 24.4413 22.4407 24.7615 22.3063C25.0817 22.172 25.3726 21.975 25.6177 21.7268C25.8627 21.4785 26.0571 21.1838 26.1897 20.8594C26.3224 20.535 26.3906 20.1874 26.3906 19.8363V6.46848C26.3906 6.11739 26.3224 5.76973 26.1897 5.44536C26.0571 5.12098 25.8627 4.82625 25.6177 4.57799C25.3726 4.32973 25.0817 4.13279 24.7615 3.99844C24.4413 3.86408 24.0981 3.79492 23.7516 3.79492Z" fill="#0F50A4"/>
<path d="M9.68404 18.1104H7.56103C7.24346 18.1104 6.98633 17.8372 6.98633 17.4998V14.1082C6.98633 13.7708 7.24346 13.4976 7.56103 13.4976H9.68294C10.0005 13.4976 10.2576 13.7708 10.2576 14.1082V17.4998C10.2576 17.8372 10.0005 18.1104 9.68404 18.1104Z" fill="white"/>
<path d="M13.8695 18.1094H11.7476C11.43 18.1094 11.1729 17.8362 11.1729 17.4988V11.7289C11.1729 11.3915 11.43 11.1183 11.7476 11.1183H13.8695C14.187 11.1183 14.4442 11.3915 14.4442 11.7289V17.4988C14.4442 17.8362 14.187 18.1094 13.8695 18.1094ZM18.055 18.1094H15.9331C15.6156 18.1094 15.3584 17.8362 15.3584 17.4988V8.37233C15.3584 8.03492 15.6156 7.76172 15.9331 7.76172H18.055C18.3726 7.76172 18.6297 8.03492 18.6297 8.37233V17.4988C18.6297 17.8362 18.3726 18.1094 18.055 18.1094Z" fill="white"/>
<path d="M3.88086 2.32858C3.88086 1.04254 4.9234 0 6.20944 0H20.181C21.467 0 22.5095 1.04254 22.5095 2.32858H3.88086Z" fill="#0685CF"/>
</svg>
