<svg width="22" height="18" viewBox="0 0 22 18" fill="none" xmlns="http://www.w3.org/2000/svg">
<path d="M18.9931 3.03442H2.11035C1.83321 3.03442 1.55879 3.08972 1.30275 3.19716C1.04671 3.30461 0.81407 3.46208 0.618106 3.66061C0.422142 3.85914 0.266695 4.09482 0.160641 4.35421C0.0545857 4.61359 0 4.8916 0 5.17236V15.862C0 16.1428 0.0545857 16.4208 0.160641 16.6802C0.266695 16.9396 0.422142 17.1752 0.618106 17.3738C0.81407 17.5723 1.04671 17.7298 1.30275 17.8372C1.55879 17.9446 1.83321 17.9999 2.11035 17.9999H18.9931C19.2702 17.9999 19.5447 17.9446 19.8007 17.8372C20.0567 17.7298 20.2894 17.5723 20.4854 17.3738C20.6813 17.1752 20.8368 16.9396 20.9428 16.6802C21.0489 16.4208 21.1035 16.1428 21.1035 15.862V5.17236C21.1035 4.8916 21.0489 4.61359 20.9428 4.35421C20.8368 4.09482 20.6813 3.85914 20.4854 3.66061C20.2894 3.46208 20.0567 3.30461 19.8007 3.19716C19.5447 3.08972 19.2702 3.03442 18.9931 3.03442Z" fill="#ED1E26"/>
<path d="M7.74318 14.4824H6.04551C5.79156 14.4824 5.58594 14.2639 5.58594 13.9941V11.282C5.58594 11.0122 5.79156 10.7937 6.04551 10.7937H7.7423C7.99625 10.7937 8.20187 11.0122 8.20187 11.282V13.9941C8.20187 14.2639 7.99625 14.4824 7.74318 14.4824Z" fill="white"/>
<path d="M11.0909 14.4814H9.39414C9.14019 14.4814 8.93457 14.2629 8.93457 13.9931V9.3792C8.93457 9.10938 9.14019 8.89092 9.39414 8.89092H11.0909C11.3449 8.89092 11.5505 9.10938 11.5505 9.3792V13.9931C11.5505 14.2629 11.3449 14.4814 11.0909 14.4814ZM14.438 14.4814H12.7412C12.4872 14.4814 12.2816 14.2629 12.2816 13.9931V6.69507C12.2816 6.42525 12.4872 6.20679 12.7412 6.20679H14.438C14.6919 6.20679 14.8975 6.42525 14.8975 6.69507V13.9931C14.8975 14.2629 14.6919 14.4814 14.438 14.4814Z" fill="white"/>
<path d="M3.10254 1.86207C3.10254 0.833677 3.93622 0 4.96461 0H16.137C17.1654 0 17.9991 0.833677 17.9991 1.86207H3.10254Z" fill="#ED1E26"/>
</svg>
