<svg width="64" height="63" viewBox="0 0 64 63" fill="none" xmlns="http://www.w3.org/2000/svg">
<path fill-rule="evenodd" clip-rule="evenodd" d="M40 62.0945C61.5908 62.0945 79.0937 44.5917 79.0937 23.0009C79.0937 1.41004 61.5908 -16.0928 40 -16.0928C18.4091 -16.0928 0.90625 1.41004 0.90625 23.0009C0.90625 44.5917 18.4091 62.0945 40 62.0945ZM53.5218 29.1531C51.9054 30.2122 49.7568 29.0472 49.7568 27.1164C49.7568 26.7011 49.8543 26.2917 50.0384 25.9295C50.2225 25.5672 50.4957 25.2519 50.8437 25.0208C52.187 24.1348 53.0754 22.6108 53.0754 20.8801C53.0754 18.144 50.8546 15.9232 48.1185 15.9232C48.0547 15.9232 47.9932 15.9232 47.9294 15.9257L48.2413 15.3709L48.3858 15.1145C48.5809 14.7329 48.6868 14.3008 48.6868 13.8436C48.6868 12.5482 47.8201 11.4529 46.6332 11.11C47.051 11.0461 47.4772 11.01 47.9092 11.0016C53.2368 10.8931 57.7592 15.1171 57.9903 20.4396C58.1492 24.0844 56.3335 27.3139 53.5218 29.1531ZM20.9266 25.9564L16 17.4211V39.599C16 40.279 16.2765 40.8952 16.722 41.3407C17.1675 41.787 17.7812 42.0627 18.4637 42.0627C19.8229 42.0627 20.9266 40.9599 20.9266 39.5998V25.9564ZM48.2858 17.4522V39.599C48.2858 40.279 48.0101 40.8943 47.5637 41.3407C47.1182 41.7862 46.5021 42.0627 45.8221 42.0627C44.462 42.0627 43.3592 40.9591 43.3592 39.5998V25.9875L48.2858 17.4522ZM20.5988 12.5961C20.1592 11.8337 19.3463 11.3647 18.4662 11.3647C16.5707 11.3647 15.3855 13.4174 16.3337 15.059L30.0083 38.745C30.0157 38.7572 30.0241 38.769 30.0326 38.7809C30.0434 38.796 30.0543 38.8113 30.0637 38.8282C30.1032 38.8862 30.1419 38.9425 30.1839 38.998C30.2201 39.0451 30.2571 39.0896 30.2957 39.1342C30.3621 39.2098 30.4319 39.2846 30.5101 39.3544C30.5339 39.3767 30.5599 39.3979 30.5862 39.4195L30.6353 39.4603C30.7244 39.5267 30.8194 39.5881 30.9169 39.6469C31.0144 39.7024 31.1119 39.7495 31.212 39.7915C31.312 39.8302 31.4154 39.8663 31.5154 39.894C31.9332 40.0058 32.3678 40.0025 32.7721 39.894C32.8721 39.8663 32.973 39.8327 33.073 39.794L33.0789 39.7915C33.1739 39.7528 33.2689 39.7083 33.3605 39.6553L33.3675 39.654L33.3748 39.6469C33.4212 39.621 33.4662 39.592 33.5104 39.5636L33.5193 39.5578C33.6118 39.4939 33.6984 39.4267 33.7816 39.3544C33.8539 39.288 33.9237 39.2157 33.9875 39.1401C34.038 39.0837 34.0825 39.0283 34.1271 38.9669C34.1582 38.9249 34.1859 38.8862 34.2137 38.8417C34.2237 38.8254 34.2347 38.8108 34.2457 38.7963L34.2596 38.7776L34.275 38.7551L34.9912 37.5169L20.5988 12.5961ZM48.2833 13.8259C48.2833 14.2521 48.1748 14.6783 47.9546 15.0574L35.8393 36.0509L32.9973 31.1192L43.692 12.5945C43.9955 12.0674 44.4469 11.7085 44.9512 11.5185L44.9712 11.5116L45.0223 11.495L45.0225 11.4949L45.0227 11.4948L45.0619 11.4822C45.0724 11.4787 45.0829 11.4752 45.0933 11.4714C46.1272 11.1562 47.3393 11.5303 47.9546 12.5945C48.1748 12.9761 48.2833 13.4023 48.2833 13.8259Z" fill="#0A0B09"/>
</svg>
