<svg width="18" height="18" viewBox="0 0 18 18" fill="none" xmlns="http://www.w3.org/2000/svg">
<path d="M16.335 2.47463C16.2542 2.19241 16.0728 1.94959 15.825 1.79213C15.6174 1.65979 15.3732 1.59677 15.1275 1.61213C14.9293 1.62754 14.7345 1.67306 14.55 1.74713C14.385 1.80713 13.6575 2.11463 12.5475 2.57963L7.96499 4.49963L1.76249 7.12463C1.60707 7.186 1.45871 7.26395 1.31999 7.35713C1.16814 7.45146 1.03782 7.57667 0.937494 7.72463C0.790387 7.94535 0.726584 8.21119 0.757494 8.47463C0.783331 8.65736 0.848302 8.83237 0.947968 8.98769C1.04763 9.14302 1.17965 9.275 1.33499 9.37463C1.46411 9.46837 1.60542 9.54407 1.75499 9.59963L4.58999 10.5521C4.64249 10.7396 4.76249 11.1296 4.90499 11.5871L5.65499 13.9571C5.7258 14.2279 5.84802 14.4825 6.01499 14.7071C6.08475 14.7999 6.17123 14.8787 6.26999 14.9396L6.36749 14.9921H6.47249C6.63 15.0358 6.79527 15.0436 6.9562 15.0151C7.11713 14.9865 7.26962 14.9223 7.40249 14.8271L9.04499 13.3271L11.835 15.4646H11.9025C12.1222 15.5621 12.3597 15.6131 12.6 15.6146C12.9382 15.6208 13.2686 15.5124 13.5375 15.3071C13.7503 15.1401 13.9158 14.9203 14.0175 14.6696L16.2675 3.26213C16.3501 3.00828 16.3732 2.73883 16.335 2.47463V2.47463ZM12.915 14.4746C12.9001 14.5012 12.8797 14.5242 12.855 14.5421L12.705 14.4971L9.04499 11.6921C9.02489 11.6757 8.99972 11.6667 8.97374 11.6667C8.94777 11.6667 8.9226 11.6757 8.90249 11.6921L6.91499 13.4996L7.32749 10.8746L13.3275 5.30213C13.485 5.15963 13.5525 5.04713 13.5375 4.95713C13.541 4.94234 13.541 4.92693 13.5375 4.91213C13.5363 4.87371 13.5262 4.83608 13.508 4.80223C13.4898 4.76838 13.4639 4.73925 13.4325 4.71713C13.29 4.62713 13.065 4.71713 12.99 4.76213L5.48999 9.41963L2.12249 8.30963L8.68499 5.54213C10.2525 4.88213 11.82 4.22963 13.0275 3.71213L15.1875 2.81213L12.915 14.4746Z" fill="#424242"/>
</svg>
