<svg width="24" height="24" viewBox="0 0 24 24" fill="none" xmlns="http://www.w3.org/2000/svg">
<path fill-rule="evenodd" clip-rule="evenodd" d="M7.276 4.0234C7.22077 3.76636 7.23782 3.24621 7.74084 3.17046H9.00914C9.1067 2.90784 9.43353 2.32531 9.96036 2.09612C10.6189 1.80963 11.3506 2.19162 11.6189 2.5736C11.8335 2.87919 11.9035 3.09883 11.9116 3.17046H13.0823C13.305 3.17046 13.6008 3.23621 13.6727 3.69511C13.7286 3.95125 13.7131 4.4746 13.2084 4.5506H11.9401H9.03767H7.86693C7.64389 4.5506 7.34728 4.48461 7.276 4.0234Z" fill="#0F50A4"/>
<path fill-rule="evenodd" clip-rule="evenodd" d="M15.5596 22.0029C18.1805 22.0029 20.3052 19.8783 20.3052 17.2573C20.3052 14.6364 18.1805 12.5117 15.5596 12.5117C12.9386 12.5117 10.814 14.6364 10.814 17.2573C10.814 19.8783 12.9386 22.0029 15.5596 22.0029ZM15.8835 16.8735C15.5363 17.219 15.1842 17.5694 14.8224 17.928C14.6756 17.7678 14.5488 17.6276 14.422 17.4808C14.3217 17.3705 14.214 17.2641 14.1072 17.1585C14.0718 17.1235 14.0364 17.0886 14.0015 17.0536C13.641 16.7132 13.2406 16.6865 12.9336 16.9802C12.6199 17.2805 12.6399 17.7077 12.9936 18.0681C13.2653 18.3443 13.5399 18.6174 13.8136 18.8896C13.9501 19.0253 14.0863 19.1608 14.2217 19.2962C14.6756 19.7501 15.036 19.7501 15.4832 19.3029C16.008 18.7825 16.5299 18.2592 17.0527 17.7348C17.3145 17.4723 17.5765 17.2096 17.8393 16.9468C17.8726 16.9135 17.9064 16.8805 17.9402 16.8475C18.0416 16.7487 18.143 16.6498 18.2331 16.5397C18.48 16.246 18.46 15.8322 18.1997 15.5719C17.9327 15.3049 17.5389 15.2849 17.2319 15.5385C17.1567 15.6037 17.0853 15.6764 17.0148 15.7482C16.9914 15.7719 16.9682 15.7956 16.9449 15.8188C16.5928 16.1675 16.2408 16.5179 15.8835 16.8735Z" fill="#0685CF"/>
<path fill-rule="evenodd" clip-rule="evenodd" d="M5.19482 3.85938H6.23772C6.23259 4.02758 6.24992 4.17981 6.27393 4.30001C6.34458 4.72006 6.54526 5.09064 6.9008 5.32792C7.2292 5.54709 7.57198 5.57067 7.75761 5.57067H13.3878L13.4531 5.56083C14.0872 5.46533 14.463 5.04408 14.6166 4.60163C14.7081 4.33803 14.7221 4.07499 14.7046 3.85938H15.7537C16.5821 3.85938 17.2537 4.53095 17.2537 5.35938V11.2241C16.6934 11.0579 16.1 10.9688 15.4858 10.9688C15.2996 10.9688 15.1153 10.9769 14.9333 10.993C14.7983 10.779 14.5597 10.6368 14.2879 10.6368H6.99999C6.57877 10.6368 6.2373 10.9783 6.2373 11.3995C6.2373 11.8207 6.57877 12.1622 6.99999 12.1622H11.8252C11.1968 12.6217 10.658 13.1964 10.2398 13.8553H6.99999C6.57877 13.8553 6.2373 14.1968 6.2373 14.618C6.2373 15.0392 6.57877 15.3807 6.99999 15.3807H9.54123C9.3696 15.9494 9.27734 16.5525 9.27734 17.1772C9.27734 18.4587 9.66563 19.6496 10.331 20.6385H5.19483C4.3664 20.6385 3.69482 19.9669 3.69482 19.1385V5.35937C3.69482 4.53095 4.3664 3.85938 5.19482 3.85938ZM6.2373 8.17675C6.2373 7.75553 6.57877 7.41406 6.99999 7.41406H10.3897C10.8109 7.41406 11.1524 7.75553 11.1524 8.17675C11.1524 8.59797 10.8109 8.93944 10.3897 8.93944H6.99999C6.57877 8.93944 6.2373 8.59797 6.2373 8.17675Z" fill="#0F50A4"/>
</svg>
