<svg width="14" height="12" viewBox="0 0 14 12" fill="none" xmlns="http://www.w3.org/2000/svg">
<path fill-rule="evenodd" clip-rule="evenodd" d="M12.174 6.00072C12.174 6.52799 12.6194 6.957 13.1667 6.957C13.4427 6.957 13.6667 7.17278 13.6667 7.43867V9.17332C13.6667 10.6402 12.428 11.8334 10.9054 11.8334H3.09537C1.57271 11.8334 0.333374 10.6402 0.333374 9.17332V7.43867C0.333374 7.17278 0.557374 6.957 0.833374 6.957C1.38137 6.957 1.82671 6.52799 1.82671 6.00072C1.82671 5.48694 1.39937 5.10032 0.833374 5.10032C0.700707 5.10032 0.574041 5.04959 0.480041 4.95903C0.386041 4.86848 0.333374 4.74581 0.333374 4.61865L0.334707 2.82749C0.334707 1.36065 1.57337 0.166748 3.09604 0.166748H10.904C12.4267 0.166748 13.666 1.36065 13.666 2.82749L13.6667 4.56278C13.6667 4.68994 13.614 4.81325 13.5207 4.90316C13.4267 4.99371 13.3 5.04445 13.1667 5.04445C12.6194 5.04445 12.174 5.47346 12.174 6.00072ZM8.50138 6.42012L9.28738 5.68285C9.42405 5.55569 9.47138 5.36816 9.41205 5.19476C9.35338 5.02136 9.20005 4.89805 9.01471 4.873L7.92871 4.72015L7.44271 3.77223C7.35938 3.6091 7.19005 3.50763 7.00138 3.50699H7.00005C6.81205 3.50699 6.64271 3.60846 6.55805 3.77159L6.07205 4.72015L4.98805 4.87236C4.80071 4.89805 4.64738 5.02136 4.58805 5.19476C4.52938 5.36816 4.57671 5.55569 4.71271 5.68285L5.49871 6.42012L5.31338 7.46246C5.28138 7.64228 5.35671 7.82082 5.51005 7.92807C5.59671 7.9878 5.69738 8.01862 5.79938 8.01862C5.87738 8.01862 5.95605 8 6.02805 7.96339L7.00005 7.47145L7.97005 7.96211C8.13805 8.04881 8.33738 8.03532 8.49005 7.92743C8.64405 7.82082 8.71938 7.64228 8.68738 7.46246L8.50138 6.42012Z" fill="#0685CF"/>
</svg>
