<svg width="40" height="34" viewBox="0 0 40 34" fill="none" xmlns="http://www.w3.org/2000/svg">
<path d="M35.8333 33.3255H4.16667C1.87 33.3255 0 31.4555 0 29.1589V25.8255C0 25.3655 0.373333 24.9922 0.833333 24.9922H1.66667C3.505 24.9922 5 23.4972 5 21.6589C5 19.8205 3.505 18.3255 1.66667 18.3255H0.833333C0.373333 18.3255 0 17.9522 0 17.4922V14.1589C0 11.8622 1.87 9.99219 4.16667 9.99219H35.8333C38.13 9.99219 40 11.8622 40 14.1589V17.4922C40 17.9522 39.6267 18.3255 39.1667 18.3255H38.3333C36.495 18.3255 35 19.8205 35 21.6589C35 22.5489 35.3467 23.3855 35.9767 24.0155C36.605 24.6455 37.4417 24.9922 38.3317 24.9922H39.165C39.625 24.9922 39.9983 25.3655 39.9983 25.8255V29.1589C40 31.4555 38.13 33.3255 35.8333 33.3255ZM1.66667 26.6589V29.1589C1.66667 30.5372 2.78833 31.6589 4.16667 31.6589H35.8333C37.2117 31.6589 38.3333 30.5372 38.3333 29.1589V26.6589H38.3317C36.9967 26.6589 35.7417 26.1389 34.7983 25.1955C33.8533 24.2505 33.3333 22.9939 33.3333 21.6589C33.3333 18.9022 35.5767 16.6589 38.3333 16.6589V14.1589C38.3333 12.7805 37.2117 11.6589 35.8333 11.6589H4.16667C2.78833 11.6589 1.66667 12.7805 1.66667 14.1589V16.6589C4.42333 16.6589 6.66667 18.9022 6.66667 21.6589C6.66667 24.4155 4.42333 26.6589 1.66667 26.6589Z" fill="black"/>
<path d="M14.1663 13.3255C13.7063 13.3255 13.333 12.9522 13.333 12.4922V10.8255C13.333 10.3655 13.7063 9.99219 14.1663 9.99219C14.6263 9.99219 14.9997 10.3655 14.9997 10.8255V12.4922C14.9997 12.9522 14.6263 13.3255 14.1663 13.3255Z" fill="black"/>
<path d="M14.1663 27.4273C13.7063 27.4273 13.333 27.054 13.333 26.594V23.7756C13.333 23.3156 13.7063 22.9423 14.1663 22.9423C14.6263 22.9423 14.9997 23.314 14.9997 23.7756V26.5956C14.9997 27.0556 14.6263 27.4273 14.1663 27.4273ZM14.1663 20.3773C13.7063 20.3773 13.333 20.004 13.333 19.544V16.724C13.333 16.264 13.7063 15.8906 14.1663 15.8906C14.6263 15.8906 14.9997 16.264 14.9997 16.724V19.544C14.9997 20.004 14.6263 20.3773 14.1663 20.3773Z" fill="black"/>
<path d="M14.1663 33.3255C13.7063 33.3255 13.333 32.9522 13.333 32.4922V30.8255C13.333 30.3655 13.7063 29.9922 14.1663 29.9922C14.6263 29.9922 14.9997 30.3655 14.9997 30.8255V32.4922C14.9997 32.9522 14.6263 33.3255 14.1663 33.3255Z" fill="black"/>
<path d="M4.16632 11.6591C3.82799 11.6591 3.50965 11.4524 3.38632 11.1174C3.22465 10.6857 3.44299 10.2057 3.87465 10.0457L30.3747 0.150721C31.663 -0.332612 33.1763 0.390721 33.6163 1.68905L36.6213 10.5574C36.768 10.9941 36.5346 11.4657 36.0996 11.6141C35.668 11.7624 35.1913 11.5274 35.043 11.0924L32.038 2.22405C31.8913 1.79072 31.388 1.55405 30.9563 1.71072L4.45632 11.6057C4.36132 11.6424 4.26299 11.6591 4.16632 11.6591Z" fill="black"/>
</svg>
