<svg width="20" height="19" viewBox="0 0 20 19" fill="none" xmlns="http://www.w3.org/2000/svg">
<path d="M16.4332 18.788H3.22857C1.60516 18.788 0.285156 17.468 0.285156 15.8446V2.94341C0.285156 1.32001 1.60516 0 3.22857 0H16.4332C18.0566 0 19.3766 1.32001 19.3766 2.94341V15.8446C19.3766 17.468 18.0554 18.788 16.4332 18.788V18.788ZM3.22857 1.3585C2.3546 1.3585 1.64365 2.06945 1.64365 2.94341V15.8446C1.64365 16.7186 2.3546 17.4295 3.22857 17.4295H16.4332C17.3071 17.4295 18.0181 16.7186 18.0181 15.8446V2.94341C18.0181 2.06945 17.3071 1.3585 16.4332 1.3585H3.22857Z" fill="#0F50A4"/>
<path d="M14.5561 8.03622H4.95269C4.82413 8.03615 4.69823 7.9996 4.58962 7.93082C4.48101 7.86203 4.39416 7.76384 4.33914 7.64765C4.28413 7.53145 4.26322 7.40203 4.27884 7.27443C4.29447 7.14682 4.34598 7.02627 4.4274 6.92678L6.57383 4.30375C6.81156 4.01394 7.23949 3.97092 7.5293 4.20866C7.59838 4.26508 7.65565 4.33458 7.69782 4.41318C7.74 4.49177 7.76625 4.57791 7.77509 4.66667C7.78392 4.75542 7.77516 4.84505 7.7493 4.93041C7.72344 5.01577 7.681 5.0952 7.6244 5.16413L6.3859 6.67773H14.5561C14.9309 6.67773 15.2354 6.98226 15.2354 7.35698C15.2354 7.73169 14.932 8.03622 14.5561 8.03622V8.03622ZM12.4097 14.8864C12.2603 14.8864 12.1097 14.8378 11.984 14.7359C11.8437 14.6228 11.754 14.4587 11.7347 14.2795C11.7154 14.1003 11.768 13.9208 11.881 13.7804L13.1376 12.2193H4.95269C4.57797 12.2193 4.27344 11.9147 4.27344 11.54C4.27344 11.1653 4.57797 10.8608 4.95269 10.8608H14.5561C14.8176 10.8608 15.0554 11.0113 15.1686 11.2468C15.2818 11.4823 15.249 11.7619 15.0848 11.9657L12.9384 14.6317C12.8754 14.7115 12.795 14.7759 12.7034 14.8201C12.6118 14.8642 12.5114 14.8869 12.4097 14.8864V14.8864Z" fill="#ED1E26"/>
</svg>
