<svg width="19" height="19" viewBox="0 0 19 19" fill="none" xmlns="http://www.w3.org/2000/svg">
<path fill-rule="evenodd" clip-rule="evenodd" d="M4.21943 4.23438C2.97092 4.23438 1.91066 4.68105 1.1661 5.48421C0.426691 6.2818 0.0468785 7.37806 0.0468785 8.59859V14.4343C0.0468785 15.6515 0.418187 16.7469 1.15554 17.5446C1.89862 18.3485 2.96031 18.7918 4.21943 18.7918H10.4318C11.6794 18.7918 12.7397 18.3474 13.4846 17.5459C14.2245 16.7498 14.6043 15.6549 14.6043 14.4343V11.8524C14.6043 11.4934 14.3133 11.2024 13.9543 11.2024C13.5954 11.2024 13.3043 11.4934 13.3043 11.8524V14.4343C13.3043 15.388 13.0101 16.1468 12.5323 16.6609C12.0596 17.1696 11.3585 17.4918 10.4318 17.4918H4.21943C3.27777 17.4918 2.57819 17.1685 2.11019 16.6622C1.63646 16.1497 1.34688 15.3913 1.34688 14.4343V8.59859C1.34688 7.64478 1.64117 6.88393 2.11946 6.36801C2.59259 5.85765 3.29361 5.53438 4.21943 5.53438H6.13346C6.49244 5.53438 6.78346 5.24336 6.78346 4.88438C6.78346 4.52539 6.49244 4.23438 6.13346 4.23438H4.21943ZM8.36225 8.49022C8.36225 8.13124 8.07124 7.84022 7.71225 7.84022C7.35327 7.84022 7.06225 8.13124 7.06225 8.49022L7.06225 11.5596V14.6291C7.06225 14.9881 7.35327 15.2791 7.71225 15.2791C8.07124 15.2791 8.36225 14.9881 8.36225 14.6291V11.5596V8.49022ZM5.06423 10.2366C5.06423 9.87762 4.77321 9.58661 4.41423 9.58661C4.05524 9.58661 3.76423 9.87762 3.76423 10.2366V14.8841C3.76423 15.2431 4.05524 15.5341 4.41423 15.5341C4.77321 15.5341 5.06423 15.2431 5.06423 14.8841V10.2366ZM10.4563 11.4503C10.8153 11.4503 11.1063 11.7413 11.1063 12.1003V14.8888C11.1063 15.2477 10.8153 15.5388 10.4563 15.5388C10.0973 15.5388 9.80631 15.2477 9.80631 14.8888V12.1003C9.80631 11.7413 10.0973 11.4503 10.4563 11.4503Z" fill="#0F50A4"/>
<path fill-rule="evenodd" clip-rule="evenodd" d="M9.2998 4.99943C9.2998 2.79061 11.0904 1 13.2992 1C15.5081 1 17.2987 2.79061 17.2987 4.99943C17.2987 7.20825 15.5081 8.99886 13.2992 8.99886C11.0904 8.99886 9.2998 7.20825 9.2998 4.99943ZM13.2992 0C10.5381 0 8.2998 2.23832 8.2998 4.99943C8.2998 7.76054 10.5381 9.99886 13.2992 9.99886C16.0603 9.99886 18.2987 7.76054 18.2987 4.99943C18.2987 2.23832 16.0603 0 13.2992 0ZM12.9423 2.47204C12.9423 2.26151 13.1134 2.08984 13.3245 2.08984C13.5356 2.08984 13.7067 2.26151 13.7067 2.47204V2.95812L13.7312 2.96405C14.0213 3.01007 14.2882 3.1182 14.5226 3.30496C14.5651 3.33857 14.6003 3.3771 14.612 3.42598C14.6241 3.47639 14.6087 3.52647 14.5761 3.57709L14.4923 3.72055L14.3982 3.89294C14.3811 3.92351 14.3646 3.94986 14.3471 3.96987C14.3294 3.99014 14.3077 4.0073 14.2798 4.01365C14.2517 4.02002 14.2248 4.01379 14.2001 4.0029C14.1759 3.9922 14.15 3.97529 14.1219 3.95479C13.9124 3.80242 13.6894 3.6968 13.4301 3.68672C13.2673 3.67911 13.1161 3.70587 12.9828 3.79391C12.881 3.86124 12.8253 3.9601 12.8175 4.05801C12.8097 4.15528 12.8489 4.25472 12.9437 4.32651C13.0791 4.42953 13.2398 4.50447 13.4013 4.57979C13.5026 4.62753 13.6064 4.6704 13.7112 4.71369L13.7574 4.73279C13.8775 4.78253 13.9987 4.83384 14.1161 4.89401C14.2148 4.94404 14.3061 5.00256 14.3863 5.07112C14.5556 5.21711 14.6739 5.40734 14.7068 5.65656C14.788 6.26357 14.4391 6.79779 13.8551 6.9767C13.7996 6.9935 13.7629 7.00482 13.7371 7.0165C13.7199 7.02428 13.7104 7.031 13.7045 7.03739L13.7067 7.53024C13.7067 7.74077 13.5356 7.91264 13.3245 7.91264C13.2149 7.91264 13.1163 7.86629 13.0467 7.79333C12.9822 7.72472 12.9423 7.63191 12.9423 7.53044V7.00722C12.6672 6.94839 12.4132 6.84735 12.186 6.68267C12.1224 6.63554 12.0621 6.58453 12.0017 6.5333C11.9652 6.50239 11.9374 6.46472 11.9317 6.41893C11.926 6.37264 11.944 6.32865 11.9763 6.28815L12.2298 5.95913C12.2653 5.9136 12.3053 5.87386 12.3604 5.87575C12.383 5.87597 12.4035 5.88368 12.4216 5.89368C12.4399 5.90379 12.4585 5.91776 12.4776 5.93351C12.7212 6.13849 12.9917 6.27294 13.3114 6.28944C13.4542 6.29813 13.5888 6.2672 13.7112 6.19081C13.8291 6.11757 13.8905 6.00816 13.8964 5.89981C13.9023 5.79191 13.8535 5.68027 13.7411 5.60049C13.6468 5.53467 13.5401 5.48489 13.4291 5.43325L13.3456 5.39359C13.2549 5.35062 13.161 5.30975 13.0663 5.26856L13.0663 5.26855C12.8967 5.19481 12.7247 5.11998 12.5643 5.02999C12.3646 4.91937 12.2105 4.7755 12.1131 4.59859C12.0156 4.42144 11.9765 4.21405 12.0021 3.97942C12.0258 3.76309 12.1025 3.58374 12.2202 3.43596C12.3484 3.27486 12.5239 3.15247 12.7285 3.05952C12.7974 3.02757 12.8696 3.00391 12.9417 2.98667L12.9423 2.47204Z" fill="#0685CF"/>
</svg>
