<svg width="20" height="20" viewBox="0 0 20 20" fill="none" xmlns="http://www.w3.org/2000/svg">
<path d="M1.77068 11.0366L0.220052 12.6351C-0.0797536 12.9442 -0.0722926 13.4378 0.23681 13.7376C0.388294 13.8846 0.584037 13.9577 0.779662 13.9577C0.983178 13.9577 1.18654 13.8785 1.33939 13.7209L2.89002 12.1225C3.18982 11.8134 3.18236 11.3197 2.87326 11.0199C2.56416 10.72 2.07052 10.7275 1.77068 11.0366Z" fill="#ED1E26"/>
<path d="M5.38007 11.54C4.94948 11.54 4.60034 11.8891 4.60034 12.3198V19.1814C4.60034 19.612 4.94944 19.9611 5.38007 19.9611H5.38011C5.81069 19.9611 6.15983 19.612 6.15983 19.1814L6.15976 12.3197C6.15976 11.8891 5.81069 11.54 5.38007 11.54Z" fill="#0F50A4"/>
<path d="M8.42108 9.82422C7.9905 9.82422 7.64136 10.1733 7.64136 10.6039V19.181C7.64136 19.6115 7.99046 19.9607 8.42108 19.9607C8.85171 19.9607 9.20081 19.6116 9.20081 19.181V10.6039C9.20077 10.1733 8.85171 9.82422 8.42108 9.82422Z" fill="#0F50A4"/>
<path d="M17.6607 0H15.3216C14.8909 0 14.5418 0.349102 14.5418 0.779728C14.5418 1.21035 14.8909 1.55946 15.3216 1.55946H17.3766L11.6512 7.28365C11.4976 7.43728 11.2966 7.52466 11.0978 7.52466C11.0937 7.52466 11.0894 7.52463 11.0852 7.52455C10.8938 7.52095 10.6981 7.43318 10.5486 7.28361L9.63186 6.36689C9.18307 5.9181 8.58729 5.65794 7.99717 5.6531C7.99143 5.65306 7.98572 5.65306 7.98002 5.65306C7.36924 5.65306 6.75931 5.92005 6.30349 6.3874L4.63255 8.06588C4.32872 8.37107 4.32982 8.86475 4.63501 9.16857C4.78712 9.32002 4.98611 9.39572 5.18509 9.39572C5.38521 9.39572 5.58533 9.31912 5.73767 9.16607L7.41166 7.48459C7.41396 7.48232 7.41619 7.48002 7.41846 7.47771C7.58127 7.31002 7.79346 7.21056 7.98439 7.21248C8.16607 7.21396 8.36975 7.31005 8.52924 7.46955L9.44596 8.38627C9.88447 8.82482 10.4564 9.07252 11.0562 9.08369C11.68 9.09541 12.2993 8.84115 12.754 8.38635L18.4405 2.70102V4.63938C18.4405 5.07001 18.7896 5.41911 19.2202 5.41911C19.6508 5.41911 19.9999 5.07001 19.9999 4.63938V2.33918C19.9999 1.04938 18.9506 0 17.6607 0Z" fill="#ED1E26"/>
<path d="M2.30277 15.0488C1.87113 15.0473 1.52039 15.3969 1.52039 15.8286V19.1814C1.52039 19.612 1.86949 19.9611 2.30011 19.9611H2.30015C2.73078 19.9611 3.07988 19.612 3.07988 19.1814V15.8286C3.07984 15.399 2.73242 15.0503 2.30277 15.0488Z" fill="#0F50A4"/>
<path d="M17.6218 6.66699C17.1911 6.66699 16.842 7.01609 16.842 7.44672V19.1817C16.842 19.6123 17.1911 19.9614 17.6218 19.9614H17.6218C18.0524 19.9614 18.4015 19.6123 18.4015 19.1817V7.44672C18.4015 7.01606 18.0524 6.66699 17.6218 6.66699Z" fill="#0F50A4"/>
<path d="M11.462 10.7988C11.0314 10.7988 10.6823 11.1479 10.6823 11.5786V19.1809C10.6823 19.6115 11.0314 19.9606 11.462 19.9606H11.462C11.8926 19.9606 12.2417 19.6115 12.2417 19.1809V11.5786C12.2417 11.1479 11.8926 10.7988 11.462 10.7988Z" fill="#0F50A4"/>
<path d="M14.5391 9.31739C14.1096 9.31895 13.7622 9.66762 13.7622 10.0971V19.181C13.7622 19.6116 14.1113 19.9607 14.5419 19.9607H14.542C14.9726 19.9607 15.3217 19.6116 15.3217 19.181V10.0971C15.3216 9.66536 14.9708 9.31579 14.5391 9.31739Z" fill="#0F50A4"/>
</svg>
