<svg width="23" height="20" viewBox="0 0 23 20" fill="none" xmlns="http://www.w3.org/2000/svg">
<path d="M0 2.55387C0 1.16085 1.10925 0 2.51087 0H18.522C19.9236 0 21.0329 1.16085 21.0329 2.55387V7.58421C21.0329 7.98836 20.7061 8.31511 20.302 8.31511C19.8978 8.31511 19.571 7.98836 19.571 7.58421V2.55387C19.571 1.94335 19.0895 1.47041 18.522 1.47041H2.51087C1.95194 1.47041 1.46181 1.94335 1.46181 2.55387V11.6343C1.46181 12.2448 1.94335 12.7177 2.51087 12.7177H9.53615C9.9403 12.7177 10.2671 13.0445 10.2671 13.4486C10.2671 13.8528 9.9403 14.1795 9.53615 14.1795H2.51087C1.10925 14.1795 0 13.0187 0 11.6257V2.55387Z" fill="#0F50A4"/>
<path d="M0 3.67231C0 3.26816 0.326757 2.94141 0.730905 2.94141H20.302C20.7061 2.94141 21.0329 3.26816 21.0329 3.67231C21.0329 4.07646 20.7061 4.40322 20.302 4.40322H0.730905C0.326757 4.40322 0 4.07646 0 3.67231Z" fill="#0F50A4"/>
<path d="M1.96051 8.56489C1.96051 8.16074 2.28727 7.83398 2.69141 7.83398H4.64336C5.04751 7.83398 5.37426 8.16074 5.37426 8.56489C5.37426 8.96904 5.04751 9.29579 4.64336 9.29579H2.68282C2.28727 9.29579 1.96051 8.96904 1.96051 8.56489Z" fill="#0F50A4"/>
<path d="M1.96051 11.0063C1.96051 10.6021 2.28727 10.2754 2.69141 10.2754H6.6039C7.00805 10.2754 7.33481 10.6021 7.33481 11.0063C7.33481 11.4104 7.00805 11.7372 6.6039 11.7372H2.69141C2.28727 11.7372 1.96051 11.4104 1.96051 11.0063Z" fill="#0F50A4"/>
<path d="M11.2658 13.9381C11.2658 11.1101 13.5614 8.81445 16.3895 8.81445C19.2175 8.81445 21.5131 11.1101 21.5131 13.9381C21.5131 16.7662 19.2175 19.0618 16.3895 19.0618C13.5614 19.0618 11.2658 16.7662 11.2658 13.9381Z" stroke="#ED1E26"/>
<path d="M16.2563 13.3667C15.7451 13.3667 15.3361 13.0042 15.3361 12.5673C15.3361 12.1304 15.7544 11.7679 16.2563 11.7679C16.7583 11.7679 17.1766 12.1304 17.1766 12.5673C17.1766 12.7997 17.3625 12.9856 17.5948 12.9856C17.8272 12.9856 18.0131 12.7997 18.0131 12.5673C18.0131 11.7958 17.4368 11.1544 16.6746 10.9778V10.764C16.6746 10.5316 16.4887 10.3457 16.2563 10.3457C16.0239 10.3457 15.838 10.5316 15.838 10.764V10.9778C15.0665 11.1544 14.4995 11.7958 14.4995 12.5673C14.4995 13.4689 15.2896 14.2032 16.2563 14.2032C16.7676 14.2032 17.1766 14.5658 17.1766 15.0026C17.1766 15.4395 16.7583 15.802 16.2563 15.802C15.7544 15.802 15.3361 15.4395 15.3361 15.0026C15.3361 14.7703 15.1502 14.5844 14.9178 14.5844C14.6854 14.5844 14.4995 14.7703 14.4995 15.0026C14.4995 15.7742 15.0758 16.4155 15.838 16.5921V16.7688C15.838 17.0011 16.0239 17.187 16.2563 17.187C16.4887 17.187 16.6746 17.0011 16.6746 16.7688V16.5921C17.4461 16.4155 18.0131 15.7742 18.0131 15.0026C18.0131 14.101 17.223 13.3667 16.2563 13.3667Z" fill="#0F50A4"/>
</svg>
