<svg width="23" height="21" viewBox="0 0 23 21" fill="none" xmlns="http://www.w3.org/2000/svg">
<path d="M0.986877 3.20816C0.986877 1.81514 2.09613 0.654297 3.49775 0.654297H19.5089C20.9105 0.654297 22.0197 1.81514 22.0197 3.20816V8.23851C22.0197 8.64265 21.693 8.96941 21.2888 8.96941C20.8847 8.96941 20.5579 8.64265 20.5579 8.23851V3.20816C20.5579 2.59764 20.0764 2.12471 19.5089 2.12471H3.49775C2.93882 2.12471 2.44869 2.59764 2.44869 3.20816V12.2886C2.44869 12.8991 2.93022 13.372 3.49775 13.372H10.523C10.9272 13.372 11.2539 13.6988 11.2539 14.1029C11.2539 14.5071 10.9272 14.8338 10.523 14.8338H3.49775C2.09613 14.8338 0.986877 13.673 0.986877 12.28V3.20816Z" fill="#0F50A4"/>
<path d="M0.986877 4.32661C0.986877 3.92246 1.31363 3.5957 1.71778 3.5957H21.2888C21.693 3.5957 22.0197 3.92246 22.0197 4.32661C22.0197 4.73075 21.693 5.05751 21.2888 5.05751H1.71778C1.31363 5.05751 0.986877 4.73075 0.986877 4.32661Z" fill="#0F50A4"/>
<path d="M2.94739 9.21821C2.94739 8.81406 3.27415 8.4873 3.67829 8.4873H5.63024C6.03438 8.4873 6.36114 8.81406 6.36114 9.21821C6.36114 9.62236 6.03438 9.94911 5.63024 9.94911H3.66969C3.27414 9.94911 2.94739 9.62236 2.94739 9.21821Z" fill="#0F50A4"/>
<path d="M2.94739 11.6606C2.94739 11.2564 3.27415 10.9297 3.67829 10.9297H7.59078C7.99493 10.9297 8.32169 11.2564 8.32169 11.6606C8.32169 12.0647 7.99493 12.3915 7.59078 12.3915H3.67829C3.27415 12.3915 2.94739 12.0647 2.94739 11.6606Z" fill="#0F50A4"/>
<path d="M12.2527 14.5924C12.2527 11.7644 14.5483 9.46875 17.3764 9.46875C20.2044 9.46875 22.5 11.7644 22.5 14.5924C22.5 17.4205 20.2044 19.7161 17.3764 19.7161C14.5483 19.7161 12.2527 17.4205 12.2527 14.5924Z" stroke="#ED1E26"/>
<path d="M17.2432 14.021C16.732 14.021 16.323 13.6585 16.323 13.2216C16.323 12.7847 16.7413 12.4222 17.2432 12.4222C17.7451 12.4222 18.1634 12.7847 18.1634 13.2216C18.1634 13.454 18.3493 13.6399 18.5817 13.6399C18.8141 13.6399 19 13.454 19 13.2216C19 12.4501 18.4237 11.8087 17.6615 11.6321V11.4183C17.6615 11.1859 17.4756 11 17.2432 11C17.0108 11 16.8249 11.1859 16.8249 11.4183V11.6321C16.0534 11.8087 15.4864 12.4501 15.4864 13.2216C15.4864 14.1232 16.2765 14.8575 17.2432 14.8575C17.7544 14.8575 18.1634 15.2201 18.1634 15.6569C18.1634 16.0938 17.7451 16.4563 17.2432 16.4563C16.7413 16.4563 16.323 16.0938 16.323 15.6569C16.323 15.4246 16.1371 15.2387 15.9047 15.2387C15.6723 15.2387 15.4864 15.4246 15.4864 15.6569C15.4864 16.4285 16.0627 17.0698 16.8249 17.2464V17.423C16.8249 17.6554 17.0108 17.8413 17.2432 17.8413C17.4756 17.8413 17.6615 17.6554 17.6615 17.423V17.2464C18.433 17.0698 19 16.4285 19 15.6569C19 14.7553 18.2099 14.021 17.2432 14.021Z" fill="#0F50A4"/>
</svg>
