<svg width="32" height="32" viewBox="0 0 32 32" fill="none" xmlns="http://www.w3.org/2000/svg">
<path d="M15.5573 18.2953V15.6116L9.7619 12.3599V18.6686C9.76191 18.7272 9.77773 18.7848 9.80778 18.8356C9.83783 18.8863 9.88103 18.9284 9.93303 18.9576L15.7285 22.2086C15.7801 22.2376 15.8387 22.2529 15.8983 22.2529C15.9578 22.2529 16.0164 22.2376 16.068 22.2086L21.8635 18.9576C21.9155 18.9284 21.9587 18.8863 21.9887 18.8356C22.0188 18.7848 22.0346 18.7272 22.0346 18.6686V12.1709C22.0346 12.1123 22.0188 12.0547 21.9887 12.0039C21.9587 11.9532 21.9155 11.9111 21.8635 11.8819L16.068 8.63089C16.0164 8.60188 15.9578 8.58662 15.8983 8.58662C15.8387 8.58662 15.7801 8.60188 15.7285 8.63089L13.7488 9.74156C13.8763 10.0409 13.8878 10.3755 13.7812 10.6826C13.6746 10.9896 13.4572 11.2482 13.1697 11.4099C12.8822 11.5715 12.5443 11.6252 12.2192 11.5608C11.8942 11.4964 11.6043 11.3184 11.4037 11.0601C11.2032 10.8018 11.1059 10.4809 11.1299 10.1575C11.1539 9.83405 11.2976 9.53026 11.5342 9.30297C11.7707 9.07568 12.0839 8.94048 12.415 8.92267C12.7462 8.90486 13.0726 9.00567 13.3333 9.20623L15.3893 8.05255C15.5442 7.96565 15.7197 7.91992 15.8983 7.91992C16.0768 7.91992 16.2523 7.96565 16.4072 8.05255L22.2027 11.3036C22.3588 11.3912 22.4885 11.5175 22.5787 11.6698C22.6689 11.822 22.7164 11.9949 22.7164 12.1709V18.6689C22.7164 18.8449 22.6689 19.0178 22.5787 19.1701C22.4885 19.3224 22.3588 19.4487 22.2027 19.5363L16.4072 22.7873C16.2523 22.8742 16.0768 22.9199 15.8983 22.9199C15.7197 22.9199 15.5442 22.8742 15.3893 22.7873L9.59383 19.5363C9.43771 19.4487 9.308 19.3224 9.2178 19.1701C9.12759 19.0178 9.08008 18.8449 9.08008 18.6689V12.3599C9.08013 12.2431 9.11159 12.1283 9.1713 12.0271C9.231 11.9259 9.31686 11.8418 9.42027 11.7833C9.52368 11.7247 9.64101 11.6938 9.7605 11.6935C9.87999 11.6933 9.99745 11.7238 10.1011 11.7819L15.9017 15.0356L18.2945 13.7476C18.2544 13.4257 18.3357 13.1005 18.5231 12.8329C18.7105 12.5654 18.9912 12.3738 19.3127 12.294C19.6342 12.2143 19.9744 12.2518 20.2696 12.3996C20.5648 12.5473 20.7948 12.7953 20.9166 13.0969C21.0383 13.3986 21.0435 13.7333 20.931 14.0384C20.8186 14.3434 20.5963 14.598 20.3058 14.7544C20.0153 14.9108 19.6764 14.9583 19.3526 14.888C19.0288 14.8178 18.7423 14.6345 18.5468 14.3726L16.2392 15.6156V18.2956C16.5595 18.3778 16.8383 18.571 17.0236 18.8394C17.209 19.1077 17.2882 19.4328 17.2464 19.754C17.2047 20.0753 17.0449 20.3707 16.7969 20.5852C16.5488 20.7997 16.2294 20.9187 15.8983 20.9199C15.5661 20.9203 15.2453 20.8021 14.996 20.5875C14.7466 20.3729 14.586 20.0768 14.5441 19.7546C14.5023 19.4324 14.5821 19.1064 14.7687 18.8377C14.9552 18.569 15.2357 18.3761 15.5573 18.2953ZM19.6483 14.2532C19.7378 14.2533 19.8265 14.236 19.9092 14.2025C19.9919 14.169 20.0671 14.1199 20.1304 14.058C20.1938 13.9961 20.244 13.9226 20.2783 13.8417C20.3125 13.7608 20.3302 13.6741 20.3302 13.5866C20.3302 13.499 20.3125 13.4123 20.2783 13.3314C20.244 13.2505 20.1938 13.177 20.1304 13.1151C20.0671 13.0532 19.9919 13.0041 19.9092 12.9706C19.8265 12.9371 19.7378 12.9199 19.6483 12.9199C19.4674 12.9199 19.2941 12.9902 19.1662 13.1152C19.0384 13.2402 18.9666 13.4098 18.9666 13.5866C18.9666 13.7634 19.0384 13.9329 19.1662 14.0579C19.2941 14.183 19.4674 14.2532 19.6483 14.2532ZM12.4892 10.9199C12.5787 10.9199 12.6674 10.9027 12.7501 10.8692C12.8329 10.8357 12.908 10.7866 12.9714 10.7247C13.0347 10.6628 13.0849 10.5893 13.1192 10.5084C13.1535 10.4275 13.1711 10.3408 13.1711 10.2532C13.1711 10.1657 13.1535 10.079 13.1192 9.99808C13.0849 9.91719 13.0347 9.84369 12.9714 9.78179C12.908 9.71988 12.8329 9.67077 12.7501 9.63728C12.6674 9.60378 12.5787 9.58655 12.4892 9.58656C12.3084 9.58659 12.135 9.65684 12.0071 9.78186C11.8793 9.90688 11.8075 10.0764 11.8075 10.2532C11.8075 10.43 11.8793 10.5996 12.0071 10.7246C12.135 10.8496 12.3084 10.9199 12.4892 10.9199ZM15.8983 20.2533C15.9878 20.2533 16.0765 20.2361 16.1592 20.2026C16.2419 20.1691 16.3171 20.12 16.3804 20.0581C16.4438 19.9961 16.494 19.9226 16.5283 19.8418C16.5625 19.7609 16.5802 19.6742 16.5802 19.5866C16.5802 19.4991 16.5625 19.4124 16.5283 19.3315C16.494 19.2506 16.4438 19.1771 16.3804 19.1152C16.3171 19.0533 16.2419 19.0042 16.1592 18.9707C16.0765 18.9372 15.9878 18.9199 15.8983 18.9199C15.7174 18.92 15.5441 18.9902 15.4162 19.1152C15.2884 19.2403 15.2166 19.4098 15.2166 19.5866C15.2166 19.7634 15.2884 19.933 15.4162 20.058C15.5441 20.183 15.7174 20.2532 15.8983 20.2533Z" fill="#75BF72" stroke="#75BF72" stroke-width="0.4"/>
<circle cx="16" cy="16" r="15" stroke="#75BF72" stroke-width="1.5"/>
</svg>
