<svg width="200" height="198" viewBox="0 0 200 198" fill="none" xmlns="http://www.w3.org/2000/svg">
<g opacity="0.9">
<path opacity="0.9" d="M3.53832 89.2652C-15.3369 40.6712 45.7823 12.514 81.0703 17.8375C95.0861 19.956 100.726 24.3895 114.567 19.126C124.63 15.304 129.735 3.52137 140.846 0.906028C165.214 -4.82697 190.964 17.7174 196.844 38.3725C202.948 59.7976 197.09 81.987 178.002 89.7948C164.035 95.5114 149.768 88.2223 141.6 91.7495C124.799 98.9949 125.558 110.439 115.648 122.642C79.2576 167.436 20.6882 133.387 3.53832 89.2652Z" fill="#B6B6BA"/>
</g>
<g opacity="0.9">
<path opacity="0.9" d="M3.53832 89.2652C-15.3369 40.6712 45.7823 12.514 81.0703 17.8375C95.0861 19.956 100.726 24.3895 114.567 19.126C124.63 15.304 129.735 3.52137 140.846 0.906028C165.214 -4.82697 190.964 17.7174 196.844 38.3725C202.948 59.7976 197.09 81.987 178.002 89.7948C164.035 95.5114 149.768 88.2223 141.6 91.7495C124.799 98.9949 125.558 110.439 115.648 122.642C79.2576 167.436 20.6882 133.387 3.53832 89.2652Z" fill="white"/>
</g>
<path d="M96.0187 197.162C144.094 197.162 183.067 194.116 183.067 190.358C183.067 186.601 144.094 183.555 96.0187 183.555C47.943 183.555 8.96991 186.601 8.96991 190.358C8.96991 194.116 47.943 197.162 96.0187 197.162Z" fill="#F5F5F5"/>
<path d="M186.77 43.3957L175.135 79.6938C175.002 80.11 174.764 80.4846 174.443 80.7808C174.122 81.0771 173.73 81.285 173.304 81.384C172.879 81.4831 172.435 81.47 172.016 81.346C171.597 81.222 171.218 80.9913 170.915 80.6766L164.865 74.414C164.408 73.9432 163.786 73.6682 163.13 73.6468C162.474 73.6254 161.836 73.8593 161.349 74.2993L110.827 120.163C110.376 120.572 109.792 120.805 109.183 120.818C108.575 120.831 107.981 120.624 107.513 120.234L75.4356 93.5622C74.972 93.1809 74.3878 92.977 73.7876 92.987C73.1873 92.997 72.6103 93.2202 72.1596 93.6168L9.14575 149.462L11.5372 127.076C11.5986 126.444 11.8971 125.858 12.3726 125.438L71.8375 72.7378C72.2893 72.343 72.8665 72.1214 73.4665 72.1124C74.0664 72.1034 74.65 72.3076 75.1135 72.6886L107.06 99.3116C107.528 99.701 108.121 99.9082 108.73 99.8952C109.339 99.8821 109.923 99.6497 110.374 99.2406L150.232 63.0354C150.483 62.8079 150.685 62.5324 150.827 62.2251C150.969 61.9179 151.048 61.5852 151.058 61.247C151.069 60.9087 151.012 60.5717 150.889 60.2561C150.767 59.9405 150.583 59.6527 150.347 59.4099L144.395 53.2183C144.084 52.8967 143.864 52.4984 143.757 52.0638C143.65 51.6293 143.661 51.1742 143.787 50.745C143.914 50.3158 144.152 49.9279 144.478 49.6209C144.803 49.314 145.204 49.0989 145.64 48.9977L183.795 40.1634C184.23 40.0614 184.684 40.0769 185.112 40.2082C185.539 40.3396 185.924 40.5821 186.226 40.9109C186.529 41.2397 186.739 41.6431 186.835 42.0797C186.93 42.5163 186.908 42.9705 186.77 43.3957Z" fill="#B6B6BA"/>
<path opacity="0.1" d="M186.754 43.4551L175.157 79.6549C175.021 80.0764 174.777 80.4553 174.451 80.7549C174.125 81.0544 173.727 81.2645 173.295 81.3645C172.864 81.4646 172.414 81.4512 171.989 81.3258C171.564 81.2003 171.179 80.9671 170.871 80.6487L164.865 74.457C164.401 73.9782 163.77 73.698 163.104 73.6756C162.438 73.6532 161.789 73.8903 161.294 74.3369L110.827 120.163C110.329 120.617 109.672 120.857 108.998 120.829C108.433 120.811 107.891 120.603 107.459 120.239L75.452 93.5998C74.9791 93.2117 74.3839 93.0037 73.7722 93.0127C73.1605 93.0217 72.5718 93.2471 72.1105 93.6489L9.14575 149.461L11.641 126.13L71.8156 72.8026C72.2759 72.3988 72.865 72.172 73.4773 72.163C74.0896 72.154 74.6852 72.3633 75.1572 72.7535L88.758 84.0721L107.033 99.3109C107.509 99.7039 108.11 99.913 108.727 99.8999C109.345 99.8869 109.937 99.6527 110.396 99.24L150.238 63.0565C150.493 62.8263 150.699 62.547 150.844 62.2352C150.989 61.9234 151.069 61.5857 151.08 61.2421C151.092 60.8985 151.033 60.5562 150.909 60.2356C150.785 59.915 150.597 59.6228 150.358 59.3765L144.455 53.2668C144.141 52.9401 143.918 52.5357 143.81 52.0949C143.702 51.6541 143.714 51.1927 143.842 50.7575C143.971 50.3224 144.213 49.9292 144.543 49.6181C144.873 49.3069 145.28 49.0888 145.722 48.9861L183.746 40.1737C184.186 40.0746 184.645 40.0936 185.076 40.2287C185.507 40.3638 185.895 40.6103 186.2 40.9432C186.505 41.2761 186.717 41.6837 186.815 42.1247C186.912 42.5658 186.891 43.0247 186.754 43.4551Z" fill="black"/>
<path d="M120.923 179.595H74.3436V190.166H120.923V179.595Z" fill="#B6B6BA"/>
<path opacity="0.2" d="M80.2404 179.595H78.9791V190.166H80.2404V179.595Z" fill="black"/>
<path opacity="0.2" d="M86.7214 179.595H85.4601V190.166H86.7214V179.595Z" fill="black"/>
<path opacity="0.2" d="M93.197 190.166H91.9357V179.595L93.197 179.781V190.166Z" fill="black"/>
<path opacity="0.2" d="M99.678 179.595H98.4167V190.166H99.678V179.595Z" fill="black"/>
<path opacity="0.2" d="M106.159 179.595H104.898V190.166H106.159V179.595Z" fill="black"/>
<path opacity="0.2" d="M112.635 179.595H111.373V190.166H112.635V179.595Z" fill="black"/>
<path opacity="0.2" d="M119.116 179.595H117.854V190.166H119.116V179.595Z" fill="black"/>
<path opacity="0.09" d="M120.923 179.595H74.3436V181.774H120.923V179.595Z" fill="black"/>
<path d="M128.185 169.019H81.6054V179.59H128.185V169.019Z" fill="#B6B6BA"/>
<path opacity="0.2" d="M87.5022 169.019H86.2409V179.59H87.5022V169.019Z" fill="black"/>
<path opacity="0.2" d="M93.9832 169.019H92.722V179.59H93.9832V169.019Z" fill="black"/>
<path opacity="0.2" d="M100.464 169.019H99.203V179.59H100.464V169.019Z" fill="black"/>
<path opacity="0.2" d="M106.94 169.019H105.679V179.59H106.94V169.019Z" fill="black"/>
<path opacity="0.2" d="M113.421 169.019H112.16V179.59H113.421V169.019Z" fill="black"/>
<path opacity="0.2" d="M119.896 169.019H118.635V179.59H119.896V169.019Z" fill="black"/>
<path opacity="0.2" d="M126.377 169.019H125.116V179.59H126.377V169.019Z" fill="black"/>
<path opacity="0.09" d="M128.185 169.019H81.6054V171.198H128.185V169.019Z" fill="black"/>
<path d="M121.709 158.449H75.1299V169.019H121.709V158.449Z" fill="#B6B6BA"/>
<path opacity="0.2" d="M81.0266 158.449H79.7654V169.019H81.0266V158.449Z" fill="black"/>
<path opacity="0.2" d="M87.5022 169.025H86.2409V158.46L87.5022 158.449V169.025Z" fill="black"/>
<path opacity="0.2" d="M93.9832 158.449H92.722V169.019H93.9832V158.449Z" fill="black"/>
<path opacity="0.2" d="M100.464 158.449H99.203V169.019H100.464V158.449Z" fill="black"/>
<path opacity="0.2" d="M106.94 169.025H105.679V158.449L106.94 158.46V169.025Z" fill="black"/>
<path opacity="0.2" d="M113.421 158.449H112.16V169.019H113.421V158.449Z" fill="black"/>
<path opacity="0.2" d="M119.896 158.449H118.635V169.019H119.896V158.449Z" fill="black"/>
<path opacity="0.09" d="M121.709 158.449H75.1299V161.053H121.709V158.449Z" fill="black"/>
<path d="M128.185 147.884H81.6054V158.454H128.185V147.884Z" fill="#B6B6BA"/>
<path opacity="0.2" d="M87.5022 147.884H86.2409V158.454H87.5022V147.884Z" fill="black"/>
<path opacity="0.2" d="M93.9832 147.884H92.722V158.454H93.9832V147.884Z" fill="black"/>
<path opacity="0.2" d="M100.464 147.884H99.203V158.454H100.464V147.884Z" fill="black"/>
<path opacity="0.2" d="M106.94 147.884H105.679V158.454H106.94V147.884Z" fill="black"/>
<path opacity="0.2" d="M113.421 147.884H112.16V158.454H113.421V147.884Z" fill="black"/>
<path opacity="0.2" d="M119.896 158.449L118.635 158.46V147.884L119.896 148.075V158.449Z" fill="black"/>
<path opacity="0.2" d="M126.377 147.884H125.116V158.454H126.377V147.884Z" fill="black"/>
<path opacity="0.09" d="M128.185 147.884H81.6054V150.062H128.185V147.884Z" fill="black"/>
<path d="M130.232 137.313H83.6529V147.884H130.232V137.313Z" fill="#B6B6BA"/>
<path opacity="0.2" d="M89.5497 137.313H88.2884V147.884H89.5497V137.313Z" fill="black"/>
<path opacity="0.2" d="M96.0253 137.313H94.764V147.884H96.0253V137.313Z" fill="black"/>
<path opacity="0.2" d="M102.506 137.313H101.245V147.884H102.506V137.313Z" fill="black"/>
<path opacity="0.2" d="M108.987 137.313H107.726V147.884H108.987V137.313Z" fill="black"/>
<path opacity="0.2" d="M115.463 137.313H114.202V147.884H115.463V137.313Z" fill="black"/>
<path opacity="0.2" d="M121.944 137.313H120.683V147.884H121.944V137.313Z" fill="black"/>
<path opacity="0.2" d="M128.419 137.313H127.158V147.884H128.419V137.313Z" fill="black"/>
<path opacity="0.09" d="M130.232 137.313H83.6529V139.492H130.232V137.313Z" fill="black"/>
<path d="M124.69 126.743H78.111V137.313H124.69V126.743Z" fill="#B6B6BA"/>
<path opacity="0.2" d="M84.0079 126.743H82.7466V137.313H84.0079V126.743Z" fill="black"/>
<path opacity="0.2" d="M90.4889 126.743H89.2276V137.313H90.4889V126.743Z" fill="black"/>
<path opacity="0.2" d="M96.9644 126.743H95.7031V137.313H96.9644V126.743Z" fill="black"/>
<path opacity="0.2" d="M103.445 126.743H102.184V137.313H103.445V126.743Z" fill="black"/>
<path opacity="0.2" d="M109.921 126.743H108.66V137.313H109.921V126.743Z" fill="black"/>
<path opacity="0.2" d="M116.402 126.743H115.141V137.313H116.402V126.743Z" fill="black"/>
<path opacity="0.2" d="M122.883 126.743H121.622V137.313H122.883V126.743Z" fill="black"/>
<path opacity="0.09" d="M124.69 126.743H78.111V128.921H124.69V126.743Z" fill="black"/>
<path d="M62.6811 179.754H16.1018V190.324H62.6811V179.754Z" fill="#B6B6BA"/>
<path opacity="0.2" d="M21.9986 179.754H20.7374V190.324H21.9986V179.754Z" fill="black"/>
<path opacity="0.2" d="M28.4797 179.754H27.2184V190.324H28.4797V179.754Z" fill="black"/>
<path opacity="0.2" d="M34.9607 179.754H33.6994V190.324H34.9607V179.754Z" fill="black"/>
<path opacity="0.2" d="M41.4362 179.754H40.1749V190.324H41.4362V179.754Z" fill="black"/>
<path opacity="0.2" d="M47.9172 179.754H46.6559V190.324H47.9172V179.754Z" fill="black"/>
<path opacity="0.2" d="M54.3928 179.754H53.1315V190.324H54.3928V179.754Z" fill="black"/>
<path opacity="0.2" d="M60.8738 179.754H59.6125V190.324H60.8738V179.754Z" fill="black"/>
<path opacity="0.09" d="M62.6811 179.754H16.1018V181.932H62.6811V179.754Z" fill="black"/>
<path d="M64.8814 169.183H18.3021V179.754H64.8814V169.183Z" fill="#B6B6BA"/>
<path opacity="0.2" d="M24.1989 169.183H22.9377V179.754H24.1989V169.183Z" fill="black"/>
<path opacity="0.2" d="M30.68 169.183H29.4187V179.754H30.68V169.183Z" fill="black"/>
<path opacity="0.2" d="M37.1556 169.183H35.8943V179.754H37.1556V169.183Z" fill="black"/>
<path opacity="0.2" d="M43.6366 169.183H42.3753V179.754H43.6366V169.183Z" fill="black"/>
<path opacity="0.2" d="M50.1122 169.183H48.8509V179.754H50.1122V169.183Z" fill="black"/>
<path opacity="0.2" d="M56.5932 169.183H55.3319V179.754H56.5932V169.183Z" fill="black"/>
<path opacity="0.2" d="M63.0741 169.183H61.8129V179.754H63.0741V169.183Z" fill="black"/>
<path opacity="0.09" d="M64.8814 169.183H18.3021V171.176H64.8814V169.183Z" fill="black"/>
<path d="M62.0259 158.607H15.4466V169.178H62.0259V158.607Z" fill="#B6B6BA"/>
<path opacity="0.2" d="M21.3433 158.607H20.0821V169.178H21.3433V158.607Z" fill="black"/>
<path opacity="0.2" d="M27.8244 158.607H26.5631V169.178H27.8244V158.607Z" fill="black"/>
<path opacity="0.2" d="M34.3 158.607H33.0387V169.178H34.3V158.607Z" fill="black"/>
<path opacity="0.2" d="M40.781 158.607H39.5197V169.178H40.781V158.607Z" fill="black"/>
<path opacity="0.2" d="M47.262 158.607H46.0008V169.178H47.262V158.607Z" fill="black"/>
<path opacity="0.2" d="M53.7376 158.607H52.4763V169.178H53.7376V158.607Z" fill="black"/>
<path opacity="0.2" d="M60.2187 158.607H58.9574V169.178H60.2187V158.607Z" fill="black"/>
<path opacity="0.09" d="M62.0259 158.607H15.4466V160.6H62.0259V158.607Z" fill="black"/>
<path d="M164.346 153.306H154.142V190.608H164.346V153.306Z" fill="#B6B6BA"/>
<g opacity="0.4">
<path opacity="0.4" d="M164.346 163.232V170.816L154.142 181.021V172.863L164.346 163.232Z" fill="white"/>
<path opacity="0.4" d="M164.346 157.684V158.973L154.142 169.183V167.895L164.346 157.684Z" fill="white"/>
</g>
<path d="M176.91 165.323H166.705V190.608H176.91V165.323Z" fill="#B6B6BA"/>
<g opacity="0.4">
<path opacity="0.4" d="M176.91 172.776V180.283L166.705 190.483V182.413L176.91 172.776Z" fill="white"/>
<path opacity="0.4" d="M176.91 169.238V170.679L166.705 180.889V179.437L176.91 169.238Z" fill="white"/>
</g>
<path d="M151.777 135.38H141.573V190.608H151.777V135.38Z" fill="#B6B6BA"/>
<g opacity="0.4">
<path opacity="0.4" d="M151.783 145.749V153.295L141.573 163.499V155.386L151.783 145.749Z" fill="white"/>
<path opacity="0.4" d="M151.783 141.599V143.008L141.573 153.224V151.804L151.783 141.599Z" fill="white"/>
</g>
<path d="M147.917 140C147.764 140.245 147.541 140.44 147.277 140.559C147.013 140.678 146.72 140.716 146.434 140.668C146.149 140.62 145.884 140.489 145.673 140.29C145.462 140.092 145.315 139.835 145.25 139.553C145.185 139.271 145.205 138.976 145.308 138.705C145.411 138.435 145.591 138.2 145.827 138.033C146.063 137.865 146.343 137.77 146.633 137.762C146.922 137.753 147.208 137.831 147.453 137.985C147.78 138.192 148.013 138.519 148.1 138.897C148.187 139.274 148.121 139.67 147.917 140Z" fill="#263238"/>
<path d="M160.481 157.734C160.327 157.977 160.105 158.17 159.842 158.288C159.579 158.405 159.287 158.442 159.003 158.394C158.72 158.346 158.456 158.215 158.247 158.018C158.037 157.82 157.891 157.565 157.826 157.284C157.762 157.004 157.781 156.71 157.883 156.441C157.985 156.171 158.165 155.938 158.399 155.771C158.633 155.603 158.912 155.509 159.2 155.5C159.488 155.491 159.772 155.567 160.016 155.719C160.18 155.82 160.321 155.953 160.433 156.109C160.545 156.266 160.624 156.442 160.667 156.63C160.711 156.817 160.716 157.011 160.684 157.2C160.652 157.39 160.583 157.571 160.481 157.734Z" fill="#263238"/>
<path d="M173.044 169.746C172.891 169.99 172.669 170.184 172.406 170.302C172.144 170.421 171.852 170.458 171.567 170.411C171.283 170.363 171.019 170.232 170.809 170.035C170.599 169.837 170.452 169.582 170.387 169.301C170.323 169.02 170.342 168.726 170.444 168.457C170.547 168.187 170.726 167.954 170.961 167.786C171.196 167.619 171.475 167.525 171.763 167.516C172.051 167.507 172.335 167.584 172.58 167.736C172.743 167.837 172.884 167.969 172.996 168.125C173.108 168.281 173.187 168.458 173.23 168.644C173.274 168.831 173.279 169.025 173.247 169.214C173.215 169.403 173.146 169.583 173.044 169.746Z" fill="#263238"/>
<path d="M171.81 168.959L158.859 181.021L159.241 156.958L146.678 164.728V139.224" stroke="#263238" stroke-miterlimit="10"/>
</svg>
