<svg width="48" height="48" viewBox="0 0 48 48" fill="none" xmlns="http://www.w3.org/2000/svg">
<path d="M38.1096 43.7664H10.116C6.67438 43.7664 3.87598 40.968 3.87598 37.5264V10.176C3.87598 6.73444 6.67438 3.93604 10.116 3.93604H38.1096C41.5512 3.93604 44.3496 6.73444 44.3496 10.176V37.5264C44.3496 40.968 41.5488 43.7664 38.1096 43.7664ZM10.116 6.81604C8.26318 6.81604 6.75598 8.32324 6.75598 10.176V37.5264C6.75598 39.3792 8.26318 40.8864 10.116 40.8864H38.1096C39.9624 40.8864 41.4696 39.3792 41.4696 37.5264V10.176C41.4696 8.32324 39.9624 6.81604 38.1096 6.81604H10.116Z" fill="#0F50A4"/>
<path d="M34.1304 20.9712H13.7712C13.4987 20.971 13.2318 20.8935 13.0015 20.7477C12.7713 20.6019 12.5871 20.3937 12.4705 20.1474C12.3539 19.9011 12.3095 19.6267 12.3427 19.3562C12.3758 19.0857 12.485 18.8301 12.6576 18.6192L17.208 13.0584C17.712 12.444 18.6192 12.3528 19.2336 12.8568C19.38 12.9764 19.5014 13.1237 19.5909 13.2904C19.6803 13.457 19.7359 13.6396 19.7547 13.8277C19.7734 14.0159 19.7548 14.2059 19.7 14.3869C19.6452 14.5679 19.5552 14.7362 19.4352 14.8824L16.8096 18.0912H34.1304C34.9248 18.0912 35.5704 18.7368 35.5704 19.5312C35.5704 20.3256 34.9272 20.9712 34.1304 20.9712ZM29.58 35.4936C29.2632 35.4936 28.944 35.3904 28.6776 35.1744C28.38 34.9347 28.1899 34.5867 28.1489 34.2068C28.108 33.8269 28.2196 33.4464 28.4592 33.1488L31.1232 29.8392H13.7712C12.9768 29.8392 12.3312 29.1936 12.3312 28.3992C12.3312 27.6048 12.9768 26.9592 13.7712 26.9592H34.1304C34.6848 26.9592 35.1888 27.2784 35.4288 27.7776C35.6688 28.2768 35.5992 28.8696 35.2512 29.3016L30.7008 34.9536C30.5672 35.1228 30.3969 35.2593 30.2027 35.3529C30.0085 35.4464 29.7955 35.4945 29.58 35.4936Z" fill="#ED1E26"/>
</svg>
