<svg width="124" height="193" viewBox="0 0 124 193" fill="none" xmlns="http://www.w3.org/2000/svg">
<path d="M78.743 112.478C78.2249 111.481 77.6873 110.447 77.1253 109.354C76.6906 110.199 76.2578 111.003 75.8378 111.783C74.9244 113.479 74.0715 115.062 73.3921 116.713C72.1601 119.715 69.967 121.015 66.7267 121.246C64.9826 121.371 63.2498 121.648 61.4372 121.937C60.5866 122.073 59.7184 122.211 58.8231 122.338C59.5143 123.02 60.1777 123.692 60.8278 124.35C62.2579 125.797 63.6231 127.179 65.0758 128.468C67.0902 130.248 67.8418 132.117 67.1764 134.811C66.7142 136.683 66.4215 138.589 66.1082 140.629C65.9705 141.525 65.8289 142.447 65.6672 143.404C66.5104 142.976 67.3289 142.59 68.12 142.216C69.6983 141.471 71.1673 140.778 72.5051 139.909C75.7207 137.808 78.6961 137.944 81.881 139.95C83.2375 140.807 84.7014 141.508 86.2805 142.264C87.032 142.624 87.8096 142.996 88.6141 143.404C88.4602 142.542 88.3315 141.724 88.2081 140.939C87.9412 139.242 87.6985 137.699 87.2774 136.206C86.2239 132.556 87.1911 129.773 90.2712 127.429C91.5284 126.478 92.6486 125.355 93.8502 124.15C94.4327 123.565 95.0343 122.962 95.6799 122.35C94.5379 122.185 93.4494 122.027 92.398 121.874C89.9956 121.525 87.7863 121.203 85.571 120.902C84.6917 120.801 83.8562 120.476 83.1503 119.961C82.4445 119.445 81.8937 118.759 81.5545 117.971C80.6664 116.178 79.7409 114.397 78.743 112.478Z" fill="#0A0B09"/>
<path fill-rule="evenodd" clip-rule="evenodd" d="M77.0623 173.294C49.6861 173.05 28.3963 152.246 28.6058 125.893C28.7844 100.376 50.9059 79.5181 77.5305 79.8207C83.9201 79.8624 90.238 81.1213 96.1203 83.525C102.003 85.9286 107.333 89.4295 111.805 93.8259C116.277 98.2224 119.802 103.428 122.177 109.142C124.551 114.856 125.729 120.966 125.642 127.121C125.426 152.732 103.496 173.501 77.0623 173.294ZM109.946 120.237C110.063 117.08 108.56 115.372 105.861 114.962C100.859 114.208 95.8511 113.455 90.8305 112.838C90.2315 112.818 89.6515 112.631 89.1613 112.299C88.6711 111.967 88.292 111.505 88.0707 110.968C86.6268 108.019 85.1245 105.101 83.6201 102.179C82.9421 100.862 82.2637 99.5439 81.5901 98.2222C80.6476 96.353 79.2985 95.0296 77.0192 95.0712C74.8569 95.1127 73.5756 96.4064 72.67 98.1984L71.8166 99.8988C69.9317 103.657 68.0503 107.408 66.0108 111.105C65.7512 111.512 65.41 111.866 65.007 112.145C64.604 112.424 64.1474 112.623 63.6637 112.731C58.6739 113.556 53.6533 114.244 48.6389 114.903C46.6122 115.164 45.1091 116.036 44.4807 117.905C43.8524 119.775 44.5177 121.466 46.0578 122.902C47.4687 124.196 48.8587 125.506 50.2502 126.818C52.3155 128.764 54.3845 130.714 56.5302 132.622C57.0838 133.056 57.4948 133.636 57.7135 134.292C57.9321 134.947 57.9491 135.649 57.7622 136.313C57.3468 138.452 56.9716 140.599 56.5965 142.746C56.1818 145.119 55.7671 147.493 55.2981 149.854C54.8731 151.955 55.2242 153.693 57.0415 154.981C58.8587 156.269 60.6206 155.913 62.4502 154.981C64.2746 154.04 66.1092 153.115 67.9438 152.191C70.3897 150.958 72.8356 149.725 75.2573 148.454C75.8217 148.099 76.481 147.911 77.1547 147.911C77.8285 147.911 78.4876 148.099 79.0521 148.454C81.8646 149.954 84.7157 151.387 87.5671 152.821C89.1357 153.61 90.7094 154.401 92.2719 155.201C94.0707 156.12 95.8264 156.156 97.4527 154.934C99.079 153.711 99.4733 152.103 99.0975 150.186C98.6552 147.89 98.248 145.588 97.8409 143.288C97.4488 141.072 97.0565 138.855 96.6334 136.645C96.3069 134.995 96.541 133.785 97.9517 132.562C101.475 129.483 104.851 126.237 108.19 122.967C108.886 122.128 109.475 121.211 109.946 120.237Z" fill="#0A0B09"/>
<path fill-rule="evenodd" clip-rule="evenodd" d="M77.3742 51.854C79.2798 46.8101 81.1874 41.7701 83.0971 36.7341L98.2883 -3.48078C99.5203 -6.70295 100.524 -7.40911 104.067 -7.41504H147.644C152.609 -7.41504 154.421 -4.86341 152.702 -0.294205C143.104 25.1272 133.484 50.5387 123.841 75.9403C123.188 77.6552 123.441 78.6284 124.759 79.9398C143.578 98.7685 149.924 121.045 141.866 145.944C133.808 170.843 115.642 186.195 88.9493 190.93C80.0425 192.523 70.8935 192.371 62.0493 190.481C53.2051 188.591 44.8472 185.003 37.4751 179.931C30.103 174.86 23.8681 168.408 19.1431 160.963C14.4181 153.517 11.2999 145.231 9.97489 136.598C6.50666 114.802 13.2521 95.7837 29.3797 80.0288C30.7842 78.6521 31.006 77.6196 30.3284 75.8453C20.7102 50.5901 11.1412 25.3171 1.62158 0.0262375C1.57067 -0.107816 1.51789 -0.240968 1.46517 -0.373964C1.32652 -0.723719 1.1883 -1.07239 1.08564 -1.43353C0.130806 -4.72098 1.96656 -7.36757 5.52103 -7.36757C20.7368 -7.43284 35.9527 -7.40317 51.1685 -7.36757C53.8113 -7.36757 55.0803 -5.78912 55.9119 -3.56386C60.9633 9.92616 66.0414 23.4023 71.1462 36.8647C73.0354 41.8611 74.9286 46.8556 76.8259 51.8481L77.3742 51.854ZM77.1093 183.346C109.451 183.346 136.057 157.83 136.063 126.712C136.063 111.613 129.84 97.131 118.761 86.4492C107.683 75.7674 92.6548 69.7593 76.9799 69.7451C44.6879 69.7451 18.1557 95.3445 18.1495 126.504C18.1674 141.57 24.3843 156.015 35.4381 166.674C46.4919 177.333 61.4811 183.337 77.1216 183.37L77.1093 183.346Z" fill="#0A0B09"/>
</svg>
