<svg width="16" height="22" viewBox="0 0 16 22" fill="none" xmlns="http://www.w3.org/2000/svg">
<path d="M8.17395 13.1581C8.1196 13.0496 8.06319 12.9369 8.00423 12.8179C7.95862 12.9099 7.91321 12.9974 7.86915 13.0824C7.77331 13.2671 7.68384 13.4396 7.61256 13.6193C7.48329 13.9464 7.2532 14.0879 6.91323 14.1131C6.73024 14.1267 6.54844 14.1568 6.35826 14.1883C6.26902 14.2031 6.17793 14.2182 6.084 14.232C6.15652 14.3064 6.22612 14.3795 6.29433 14.4511C6.44437 14.6088 6.58761 14.7593 6.74002 14.8997C6.95137 15.0936 7.03022 15.2972 6.96042 15.5906C6.91192 15.7945 6.88121 16.0021 6.84834 16.2242C6.8339 16.3219 6.81904 16.4223 6.80207 16.5265C6.89054 16.4799 6.97642 16.4378 7.05941 16.3971C7.22501 16.316 7.37913 16.2405 7.51948 16.1458C7.85686 15.917 8.16904 15.9319 8.50319 16.1503C8.64551 16.2436 8.7991 16.32 8.96478 16.4023C9.04362 16.4415 9.12521 16.4821 9.20961 16.5265C9.19346 16.4326 9.17997 16.3435 9.16701 16.258C9.13901 16.0732 9.11355 15.9051 9.06936 15.7425C8.95884 15.345 9.06031 15.0419 9.38348 14.7866C9.51537 14.683 9.6329 14.5606 9.75897 14.4294C9.82009 14.3657 9.88321 14.3 9.95094 14.2333C9.83112 14.2154 9.71693 14.1982 9.60661 14.1815C9.35456 14.1434 9.12276 14.1084 8.89033 14.0756C8.79808 14.0646 8.71042 14.0292 8.63636 13.9731C8.56231 13.917 8.50452 13.8422 8.46893 13.7563C8.37575 13.5611 8.27866 13.3672 8.17395 13.1581Z" fill="#0F50A4"/>
<path fill-rule="evenodd" clip-rule="evenodd" d="M7.99762 19.782C5.12537 19.7555 2.89168 17.4895 2.91366 14.6192C2.9324 11.84 5.25334 9.56818 8.04674 9.60114C8.71712 9.60569 9.37999 9.7428 9.99715 10.0046C10.6143 10.2664 11.1736 10.6477 11.6428 11.1266C12.112 11.6054 12.4818 12.1724 12.7309 12.7947C12.9801 13.4171 13.1036 14.0826 13.0945 14.753C13.0719 17.5425 10.771 19.8046 7.99762 19.782ZM11.4477 14.0032C11.46 13.6594 11.3023 13.4733 11.0192 13.4287C10.4944 13.3466 9.9689 13.2645 9.44215 13.1973C9.37931 13.1952 9.31845 13.1748 9.26702 13.1387C9.21559 13.1025 9.17582 13.0521 9.1526 12.9937C9.00111 12.6725 8.84349 12.3546 8.68565 12.0363C8.61452 11.8929 8.54334 11.7493 8.47267 11.6054C8.37378 11.4018 8.23224 11.2577 7.9931 11.2622C7.76624 11.2667 7.6318 11.4076 7.53679 11.6028L7.44725 11.788C7.24949 12.1973 7.0521 12.6059 6.83812 13.0086C6.81088 13.0529 6.77508 13.0915 6.7328 13.1219C6.69052 13.1523 6.64262 13.1739 6.59187 13.1856C6.06835 13.2755 5.5416 13.3505 5.01549 13.4222C4.80285 13.4506 4.64515 13.5456 4.57923 13.7492C4.5133 13.9528 4.5831 14.137 4.74469 14.2934C4.89272 14.4344 5.03855 14.5771 5.18455 14.72C5.40124 14.932 5.61831 15.1444 5.84343 15.3521C5.90152 15.3995 5.94464 15.4626 5.96758 15.534C5.99052 15.6053 5.9923 15.6818 5.9727 15.7541C5.92911 15.9871 5.88975 16.221 5.85039 16.4548C5.80688 16.7133 5.76337 16.9718 5.71417 17.229C5.66957 17.4578 5.70641 17.6472 5.89708 17.7875C6.08774 17.9277 6.27259 17.8889 6.46455 17.7875C6.65596 17.685 6.84844 17.5842 7.04092 17.4835C7.29754 17.3493 7.55416 17.215 7.80825 17.0765C7.86746 17.0379 7.93663 17.0173 8.00732 17.0173C8.078 17.0173 8.14717 17.0379 8.20638 17.0765C8.50147 17.2399 8.8006 17.396 9.09976 17.5522C9.26434 17.6381 9.42945 17.7242 9.59339 17.8114C9.78211 17.9115 9.96632 17.9154 10.1369 17.7823C10.3076 17.6491 10.3489 17.474 10.3095 17.2652C10.2631 17.0151 10.2204 16.7644 10.1777 16.5138C10.1365 16.2725 10.0954 16.031 10.051 15.7903C10.0167 15.6106 10.0413 15.4788 10.1893 15.3457C10.559 15.0102 10.9132 14.6567 11.2635 14.3005C11.3365 14.2091 11.3983 14.1093 11.4477 14.0032Z" fill="#0F50A4"/>
<path fill-rule="evenodd" clip-rule="evenodd" d="M8.03035 6.55507C8.23027 6.0057 8.43042 5.45675 8.63078 4.90824L10.2246 0.528121C10.3539 0.177168 10.4592 0.100256 10.8309 0.0996094H15.4029C15.9239 0.0996094 16.1139 0.377528 15.9336 0.875195C14.9266 3.64404 13.9173 6.4118 12.9055 9.17849C12.837 9.36528 12.8635 9.47127 13.0019 9.61411C14.9764 11.6649 15.6421 14.0912 14.7967 16.8031C13.9513 19.5151 12.0453 21.1871 9.24479 21.7029C8.31029 21.8765 7.3504 21.8598 6.42248 21.654C5.49457 21.4482 4.61767 21.0574 3.84421 20.505C3.07075 19.9526 2.4166 19.2499 1.92085 18.439C1.42511 17.628 1.09796 16.7254 0.958943 15.7852C0.595064 13.4113 1.30279 11.3398 2.99486 9.62381C3.14222 9.47386 3.16548 9.3614 3.09439 9.16815C2.08527 6.4174 1.08131 3.66472 0.0825309 0.910097C0.0771892 0.895496 0.0716512 0.880994 0.0661198 0.866508C0.051573 0.828414 0.0370713 0.790437 0.0263013 0.751103C-0.0738785 0.393041 0.118725 0.10478 0.491653 0.10478C2.08807 0.0976705 3.68448 0.100902 5.2809 0.10478C5.55817 0.10478 5.69131 0.276701 5.77856 0.519072C6.30855 1.98838 6.84133 3.45617 7.37692 4.92246C7.57512 5.46666 7.77376 6.01065 7.97282 6.55442L8.03035 6.55507ZM8.00255 20.8769C11.3957 20.8769 14.1872 18.0977 14.1878 14.7084C14.1879 13.0638 13.5349 11.4865 12.3726 10.3231C11.2103 9.15966 9.63356 8.50527 7.98898 8.50373C4.60096 8.50373 1.81726 11.292 1.81661 14.6858C1.81849 16.3268 2.47075 17.9001 3.63049 19.061C4.79023 20.222 6.36287 20.8759 8.00385 20.8795L8.00255 20.8769Z" fill="#0F50A4"/>
</svg>
