<svg width="40" height="40" viewBox="0 0 40 40" fill="none" xmlns="http://www.w3.org/2000/svg">
<path fill-rule="evenodd" clip-rule="evenodd" d="M20.0523 11.4787C20.3949 10.5373 20.7379 9.59668 21.0812 8.65679L23.8123 1.15126C24.0338 0.549893 24.2143 0.4181 24.8511 0.416992H32.6856C33.5782 0.416992 33.9038 0.893217 33.5948 1.74599C31.8693 6.49052 30.1398 11.2332 28.4062 15.974C28.2888 16.2941 28.3342 16.4757 28.5712 16.7205C31.9546 20.2346 33.0953 24.3921 31.6467 29.0392C30.1981 33.6863 26.9321 36.5514 22.1333 37.4352C20.532 37.7326 18.8872 37.7041 17.2972 37.3514C15.7072 36.9987 14.2046 36.329 12.8792 35.3825C11.5538 34.4359 10.4329 33.2318 9.58346 31.8422C8.73398 30.4526 8.17339 28.9061 7.93518 27.2949C7.31166 23.227 8.52437 19.6775 11.4238 16.7371C11.6763 16.4802 11.7162 16.2875 11.5944 15.9563C9.86518 11.2428 8.14487 6.52596 6.43341 1.8058C6.42426 1.78078 6.41477 1.75593 6.40529 1.73111C6.38036 1.66583 6.35552 1.60075 6.33706 1.53335C6.1654 0.919799 6.49543 0.425852 7.13446 0.425852C9.86998 0.41367 12.6055 0.419207 15.341 0.425852C15.8161 0.425852 16.0443 0.720446 16.1938 1.13576C17.102 3.65347 18.0149 6.1686 18.9326 8.68115C19.2723 9.61367 19.6126 10.5458 19.9538 11.4776L20.0523 11.4787ZM20.0047 36.0198C25.8191 36.0198 30.6024 31.2575 30.6035 25.4498C30.6035 22.6317 29.4847 19.929 27.493 17.9354C25.5012 15.9418 22.7995 14.8204 19.9814 14.8178C14.1759 14.8178 9.40594 19.5956 9.40483 25.411C9.40805 28.2229 10.5257 30.9189 12.513 32.9082C14.5003 34.8976 17.195 36.018 20.0069 36.0242L20.0047 36.0198Z" fill="white"/>
<path fill-rule="evenodd" clip-rule="evenodd" d="M19.9995 35.1631C25.2815 35.1631 29.5635 30.8811 29.5635 25.5991C29.5635 20.3171 25.2815 16.0352 19.9995 16.0352C14.7175 16.0352 10.4355 20.3171 10.4355 25.5991C10.4355 30.8811 14.7175 35.1631 19.9995 35.1631ZM18.1431 23.4133V27.8061H17.0731V25.1717L16.0907 27.8061H15.2271L14.2384 25.1654V27.8061H13.1684V23.4133H14.4324L15.6651 26.4545L16.8854 23.4133H18.1431ZM23.0363 23.4133L21.4781 27.8061H20.139L18.5809 23.4133H19.7198L20.8086 26.7298L21.9036 23.4133H23.0363ZM26.656 25.5284C26.7728 25.3156 26.8312 25.082 26.8312 24.8275C26.8312 24.5522 26.7707 24.3081 26.6497 24.0954C26.5288 23.8826 26.3473 23.7158 26.1053 23.5948C25.8634 23.4738 25.5672 23.4133 25.2168 23.4133H23.4835V27.8061H24.5535V26.2292H25.2168C25.5755 26.2292 25.8759 26.1645 26.1179 26.0352C26.3598 25.9059 26.5392 25.7369 26.656 25.5284ZM25.5922 25.2343C25.4921 25.3302 25.3398 25.3782 25.1354 25.3782H24.5535V24.2769H25.1354C25.3398 24.2769 25.4921 24.3248 25.5922 24.4208C25.6924 24.5167 25.7424 24.6523 25.7424 24.8275C25.7424 25.0027 25.6924 25.1383 25.5922 25.2343Z" fill="white"/>
</svg>
