<svg width="22" height="29" viewBox="0 0 22 29" fill="none" xmlns="http://www.w3.org/2000/svg">
<path d="M11.231 17.4683C11.1588 17.3241 11.0839 17.1746 11.0056 17.0165C10.945 17.1387 10.8847 17.2549 10.8262 17.3677C10.6989 17.6131 10.5801 17.8421 10.4854 18.0809C10.3137 18.5152 10.0082 18.7032 9.55664 18.7367C9.3136 18.7548 9.07215 18.7948 8.81957 18.8366C8.70105 18.8562 8.58007 18.8763 8.45532 18.8946C8.55163 18.9933 8.64407 19.0905 8.73466 19.1856C8.93393 19.395 9.12418 19.5949 9.32659 19.7813C9.60729 20.0389 9.71201 20.3093 9.61931 20.699C9.5549 20.9697 9.51411 21.2454 9.47045 21.5405C9.45127 21.6702 9.43153 21.8036 9.409 21.9419C9.5265 21.88 9.64056 21.8241 9.75078 21.7701C9.97072 21.6624 10.1754 21.5621 10.3618 21.4363C10.8099 21.1325 11.2245 21.1522 11.6683 21.4423C11.8573 21.5662 12.0613 21.6676 12.2813 21.777C12.3861 21.8291 12.4944 21.883 12.6065 21.9419C12.5851 21.8173 12.5671 21.6989 12.5499 21.5854C12.5128 21.3399 12.4789 21.1167 12.4203 20.9007C12.2735 20.3728 12.4082 19.9702 12.8374 19.6311C13.0126 19.4935 13.1687 19.331 13.3361 19.1567C13.4173 19.0722 13.5011 18.9849 13.5911 18.8963C13.432 18.8726 13.2803 18.8497 13.1338 18.8275C12.799 18.777 12.4912 18.7305 12.1825 18.6869C12.0599 18.6722 11.9435 18.6252 11.8452 18.5507C11.7468 18.4762 11.6701 18.3768 11.6228 18.2628C11.4991 18.0035 11.3701 17.746 11.231 17.4683Z" fill="url(#paint0_linear_31744_5663)"/>
<path fill-rule="evenodd" clip-rule="evenodd" d="M10.9968 26.2657C7.18213 26.2305 4.21552 23.2209 4.2447 19.4088C4.26959 15.7177 7.35209 12.7004 11.0621 12.7442C11.9524 12.7503 12.8328 12.9324 13.6525 13.2801C14.4721 13.6278 15.2149 14.1342 15.8381 14.7702C16.4612 15.4061 16.9524 16.1591 17.2833 16.9857C17.6142 17.8123 17.7783 18.6962 17.7662 19.5865C17.7361 23.2913 14.6802 26.2957 10.9968 26.2657ZM15.579 18.5908C15.5953 18.1341 15.3858 17.8869 15.0098 17.8276C14.3128 17.7186 13.6149 17.6096 12.9154 17.5203C12.8319 17.5176 12.7511 17.4905 12.6828 17.4425C12.6145 17.3944 12.5616 17.3275 12.5308 17.2499C12.3296 16.8233 12.1203 16.4012 11.9106 15.9784C11.8162 15.7879 11.7216 15.5973 11.6278 15.4061C11.4964 15.1357 11.3084 14.9443 10.9908 14.9503C10.6895 14.9563 10.511 15.1434 10.3848 15.4027L10.2659 15.6486C10.0032 16.1923 9.74107 16.7349 9.45688 17.2697C9.4207 17.3286 9.37316 17.3798 9.31701 17.4202C9.26085 17.4606 9.19723 17.4893 9.12983 17.5049C8.43453 17.6242 7.73494 17.7238 7.03621 17.8191C6.75379 17.8568 6.54434 17.983 6.45679 18.2534C6.36923 18.5238 6.46194 18.7684 6.67654 18.9762C6.87314 19.1635 7.06683 19.353 7.26073 19.5427C7.54852 19.8242 7.83682 20.1063 8.13581 20.3822C8.21296 20.4451 8.27023 20.529 8.3007 20.6238C8.33116 20.7185 8.33352 20.8201 8.30749 20.9162C8.2496 21.2256 8.19732 21.5362 8.14505 21.8467C8.08727 22.1901 8.02948 22.5334 7.96413 22.875C7.9049 23.1789 7.95383 23.4304 8.20706 23.6167C8.46028 23.8029 8.70578 23.7514 8.96073 23.6167C9.21495 23.4805 9.47059 23.3468 9.72623 23.213C10.0671 23.0347 10.4079 22.8564 10.7453 22.6724C10.824 22.6212 10.9158 22.5939 11.0097 22.5939C11.1036 22.5939 11.1955 22.6212 11.2741 22.6724C11.666 22.8894 12.0633 23.0968 12.4606 23.3042C12.6792 23.4182 12.8985 23.5327 13.1162 23.6484C13.3669 23.7815 13.6115 23.7866 13.8381 23.6098C14.0647 23.433 14.1197 23.2003 14.0673 22.9231C14.0057 22.5908 13.9489 22.2579 13.8922 21.9251C13.8376 21.6046 13.7829 21.2838 13.724 20.9642C13.6785 20.7256 13.7111 20.5505 13.9077 20.3736C14.3987 19.9281 14.8691 19.4586 15.3343 18.9856C15.4313 18.8642 15.5134 18.7316 15.579 18.5908Z" fill="url(#paint1_linear_31744_5663)"/>
<path fill-rule="evenodd" clip-rule="evenodd" d="M11.0403 8.69866C11.3058 7.96902 11.5717 7.23996 11.8378 6.51146L13.9546 0.694117C14.1262 0.228008 14.2662 0.125858 14.7597 0.125H20.832C21.5239 0.125 21.7763 0.49411 21.5368 1.15507C20.1994 4.83244 18.8589 8.50838 17.5152 12.1829C17.4242 12.431 17.4594 12.5717 17.6431 12.7614C20.2655 15.4851 21.1496 18.7076 20.0269 22.3094C18.9041 25.9112 16.3727 28.1319 12.6532 28.8169C11.4121 29.0474 10.1373 29.0253 8.90487 28.7519C7.67248 28.4786 6.50785 27.9596 5.48059 27.2259C4.45334 26.4922 3.58454 25.559 2.92613 24.4819C2.26773 23.4049 1.83322 22.2062 1.6486 20.9574C1.16532 17.8045 2.10526 15.0534 4.35254 12.7743C4.54826 12.5752 4.57916 12.4258 4.48474 12.1692C3.14449 8.51582 1.81112 4.85991 0.484611 1.20143C0.477517 1.18204 0.470162 1.16278 0.462815 1.14354C0.443495 1.09294 0.424235 1.04251 0.409931 0.990264C0.27688 0.514713 0.532682 0.131867 1.02798 0.131867C3.14821 0.122425 5.26845 0.126717 7.38869 0.131867C7.75694 0.131867 7.93377 0.3602 8.04966 0.682098C8.75354 2.63352 9.46115 4.58294 10.1725 6.53035C10.4357 7.25312 10.6995 7.9756 10.9639 8.6978L11.0403 8.69866ZM11.0034 27.7199C15.51 27.7199 19.2174 24.0287 19.2182 19.5273C19.2182 17.3431 18.3511 15.2483 16.8074 13.7031C15.2636 12.1579 13.1696 11.2888 10.9854 11.2867C6.48566 11.2867 2.78855 14.9898 2.78769 19.4973C2.79018 21.6767 3.65647 23.7663 5.19675 25.3082C6.73703 26.85 8.82569 27.7185 11.0051 27.7233L11.0034 27.7199Z" fill="url(#paint2_linear_31744_5663)"/>
<defs>
<linearGradient id="paint0_linear_31744_5663" x1="19.5" y1="-3" x2="5" y2="29" gradientUnits="userSpaceOnUse">
<stop stop-color="#F9D423"/>
<stop offset="1" stop-color="#E65C00"/>
</linearGradient>
<linearGradient id="paint1_linear_31744_5663" x1="19.5" y1="-3" x2="5" y2="29" gradientUnits="userSpaceOnUse">
<stop stop-color="#F9D423"/>
<stop offset="1" stop-color="#E65C00"/>
</linearGradient>
<linearGradient id="paint2_linear_31744_5663" x1="19.5" y1="-3" x2="5" y2="29" gradientUnits="userSpaceOnUse">
<stop stop-color="#F9D423"/>
<stop offset="1" stop-color="#E65C00"/>
</linearGradient>
</defs>
</svg>
