<svg width="174" height="209" viewBox="0 0 174 209" fill="none" xmlns="http://www.w3.org/2000/svg">
<g opacity="0.08">
<path fill-rule="evenodd" clip-rule="evenodd" d="M122.288 48.3269C124.188 43.1078 126.089 37.8929 127.992 32.682L143.134 -8.92914C144.362 -12.2632 145.363 -12.9939 148.893 -13H192.328C197.277 -13 199.082 -10.3598 197.369 -5.63193C187.803 20.6721 178.214 46.9658 168.603 73.2494C167.952 75.0238 168.204 76.0308 169.518 77.3878C188.275 96.8702 194.6 119.92 186.569 145.684C178.537 171.447 160.43 187.332 133.825 192.231C124.948 193.88 115.829 193.722 107.014 191.767C98.1984 189.812 89.8679 186.099 82.52 180.851C75.1721 175.603 68.9577 168.928 64.2481 161.224C59.5386 153.52 56.4306 144.945 55.11 136.013C51.6531 113.461 58.3765 93.7817 74.4511 77.4799C75.8511 76.0554 76.0721 74.987 75.3967 73.1511C65.81 47.0191 56.2725 20.8686 46.784 -5.30036C46.7333 -5.43907 46.6807 -5.57685 46.6281 -5.71446C46.4899 -6.07636 46.3522 -6.43714 46.2499 -6.81081C45.2982 -10.2124 47.1279 -12.9509 50.6707 -12.9509C65.8366 -13.0184 81.0026 -12.9877 96.1685 -12.9509C98.8026 -12.9509 100.067 -11.3176 100.896 -9.01511C105.931 4.94329 110.993 18.8874 116.081 32.8171C117.964 37.987 119.851 43.1549 121.742 48.3207L122.288 48.3269ZM122.024 184.384C154.26 184.384 180.778 157.982 180.785 125.784C180.785 110.16 174.582 95.1758 163.54 84.1232C152.497 73.0705 137.519 66.8538 121.895 66.8392C89.7092 66.8392 63.264 93.3274 63.2578 125.569C63.2757 141.158 69.4722 156.105 80.4897 167.134C91.5072 178.163 106.447 184.375 122.037 184.409L122.024 184.384Z" fill="#0A0B09"/>
<path fill-rule="evenodd" clip-rule="evenodd" d="M121.999 179.65C151.283 179.65 175.022 155.91 175.022 126.627C175.022 97.3426 151.283 73.6033 121.999 73.6033C92.715 73.6033 68.9757 97.3426 68.9757 126.627C68.9757 155.91 92.715 179.65 121.999 179.65ZM111.703 114.507V138.861H105.771V124.256L100.325 138.861H95.537L90.0557 124.221V138.861H84.1234V114.507H91.1312L97.9655 131.368L104.73 114.507H111.703ZM138.831 114.507L130.193 138.861H122.769L114.131 114.507H120.445L126.481 132.894L132.552 114.507H138.831ZM158.9 126.233C159.547 125.054 159.871 123.759 159.871 122.348C159.871 120.821 159.536 119.468 158.865 118.289C158.194 117.109 157.188 116.184 155.847 115.514C154.505 114.843 152.863 114.507 150.92 114.507H141.311V138.861H147.243V130.119H150.92C152.909 130.119 154.575 129.76 155.916 129.043C157.257 128.326 158.252 127.39 158.9 126.233ZM153.002 124.603C152.447 125.135 151.603 125.401 150.469 125.401H147.243V119.295H150.469C151.603 119.295 152.447 119.561 153.002 120.093C153.557 120.625 153.835 121.376 153.835 122.348C153.835 123.319 153.557 124.071 153.002 124.603Z" fill="#0A0B09"/>
</g>
</svg>
