<svg width="15" height="21" viewBox="0 0 15 21" fill="none" xmlns="http://www.w3.org/2000/svg">
<path d="M7.66308 12.2423C7.61213 12.1406 7.55925 12.035 7.50396 11.9234C7.46121 12.0096 7.41864 12.0917 7.37733 12.1713C7.28748 12.3445 7.2036 12.5062 7.13677 12.6747C7.01559 12.9813 6.79988 13.114 6.48116 13.1377C6.3096 13.1504 6.13917 13.1787 5.96087 13.2082C5.87721 13.222 5.79181 13.2362 5.70376 13.2491C5.77174 13.3188 5.83699 13.3874 5.90093 13.4546C6.0416 13.6023 6.17589 13.7434 6.31877 13.8751C6.51691 14.0568 6.59083 14.2477 6.52539 14.5228C6.47993 14.7139 6.45114 14.9085 6.42032 15.1168C6.40678 15.2084 6.39285 15.3025 6.37694 15.4002C6.45988 15.3565 6.54039 15.317 6.6182 15.2789C6.77345 15.2029 6.91794 15.1321 7.04952 15.0433C7.36581 14.8288 7.65847 14.8427 7.97174 15.0475C8.10516 15.135 8.24916 15.2066 8.40448 15.2838C8.4784 15.3205 8.55488 15.3586 8.63402 15.4002C8.61888 15.3122 8.60622 15.2287 8.59408 15.1485C8.56782 14.9752 8.54396 14.8176 8.50253 14.6652C8.39892 14.2925 8.49405 14.0084 8.79701 13.769C8.92066 13.6719 9.03085 13.5572 9.14904 13.4341C9.20633 13.3745 9.26551 13.3129 9.32901 13.2504C9.21668 13.2336 9.10962 13.2174 9.0062 13.2018C8.7699 13.1661 8.55259 13.1333 8.33469 13.1025C8.2482 13.0922 8.16602 13.059 8.09659 13.0064C8.02717 12.9538 7.97299 12.8836 7.93962 12.8032C7.85227 12.6201 7.76124 12.4383 7.66308 12.2423Z" fill="white"/>
<path fill-rule="evenodd" clip-rule="evenodd" d="M7.49777 18.4522C4.80503 18.4274 2.71095 16.303 2.73155 13.6121C2.74913 11.0066 4.92501 8.87679 7.54382 8.90769C8.17231 8.91194 8.79374 9.04049 9.37233 9.28593C9.95093 9.53136 10.4753 9.88884 10.9151 10.3378C11.355 10.7867 11.7017 11.3182 11.9353 11.9017C12.1688 12.4852 12.2847 13.1091 12.2761 13.7375C12.2549 16.3527 10.0978 18.4735 7.49777 18.4522ZM10.7322 13.0347C10.7437 12.7123 10.5959 12.5378 10.3305 12.496C9.83846 12.419 9.34585 12.3421 8.85202 12.2791C8.79311 12.2771 8.73605 12.258 8.68783 12.2241C8.63962 12.1902 8.60234 12.143 8.58056 12.0882C8.43855 11.787 8.29077 11.489 8.1428 11.1907C8.07611 11.0562 8.00939 10.9216 7.94313 10.7867C7.85042 10.5958 7.71772 10.4607 7.49353 10.4649C7.28085 10.4692 7.15482 10.6013 7.06574 10.7842L6.9818 10.9579C6.7964 11.3416 6.61134 11.7246 6.41074 12.1021C6.3852 12.1437 6.35164 12.1799 6.312 12.2084C6.27237 12.2369 6.22745 12.2572 6.17988 12.2682C5.68908 12.3524 5.19525 12.4227 4.70203 12.4899C4.50268 12.5166 4.35483 12.6057 4.29303 12.7965C4.23122 12.9874 4.29666 13.1601 4.44814 13.3067C4.58692 13.4389 4.72364 13.5727 4.86051 13.7066C5.06366 13.9054 5.26717 14.1045 5.47822 14.2992C5.53268 14.3436 5.5731 14.4028 5.59461 14.4697C5.61612 14.5366 5.61778 14.6083 5.5994 14.6761C5.55854 14.8945 5.52164 15.1138 5.48474 15.333C5.44395 15.5753 5.40316 15.8177 5.35703 16.0588C5.31522 16.2733 5.34976 16.4509 5.52851 16.5824C5.70726 16.7138 5.88055 16.6775 6.06051 16.5824C6.23996 16.4863 6.42041 16.3918 6.60087 16.2974C6.84145 16.1715 7.08203 16.0457 7.32023 15.9158C7.37575 15.8796 7.44059 15.8604 7.50686 15.8604C7.57313 15.8604 7.63797 15.8796 7.69349 15.9158C7.97013 16.069 8.25056 16.2154 8.53103 16.3618C8.68532 16.4423 8.84011 16.5231 8.9938 16.6048C9.17073 16.6987 9.34342 16.7023 9.50339 16.5775C9.66335 16.4527 9.70213 16.2885 9.66517 16.0928C9.62166 15.8582 9.58161 15.6232 9.54157 15.3883C9.503 15.1621 9.46442 14.9357 9.4228 14.71C9.39069 14.5416 9.41371 14.418 9.55247 14.2932C9.89906 13.9787 10.2311 13.6472 10.5595 13.3134C10.6279 13.2277 10.6859 13.1341 10.7322 13.0347Z" fill="white"/>
<path fill-rule="evenodd" clip-rule="evenodd" d="M7.52845 6.05199C7.71588 5.53696 7.90352 5.02232 8.09136 4.50809L9.58557 0.40173C9.70676 0.0727115 9.80552 0.000605926 10.1539 0H14.4403C14.9286 0 15.1068 0.260548 14.9377 0.727112C13.9937 3.3229 13.0474 5.91768 12.099 8.51145C12.0347 8.68656 12.0596 8.78593 12.1892 8.91984C14.0403 10.8424 14.6644 13.1171 13.8719 15.6596C13.0793 18.202 11.2925 19.7696 8.66699 20.2531C7.7909 20.4158 6.891 20.4002 6.02108 20.2072C5.15116 20.0143 4.32907 19.6479 3.60395 19.13C2.87883 18.6122 2.26556 17.9534 1.8008 17.1931C1.33604 16.4329 1.02934 15.5867 0.899009 14.7052C0.557872 12.4797 1.22136 10.5377 2.80768 8.92893C2.94583 8.78836 2.96764 8.68293 2.90099 8.50175C1.95494 5.92293 1.01373 3.34229 0.0773728 0.759832C0.0723649 0.746144 0.067173 0.732548 0.0619873 0.718968C0.0483497 0.683254 0.0347544 0.647651 0.0246575 0.610775C-0.0692612 0.275092 0.111305 0.00484752 0.460924 0.00484752C1.95756 -0.00181767 3.4542 0.00121196 4.95084 0.00484752C5.21078 0.00484752 5.3356 0.166023 5.4174 0.393246C5.91426 1.77072 6.41375 3.14678 6.91586 4.52142C7.10168 5.03161 7.2879 5.5416 7.47452 6.05139L7.52845 6.05199ZM7.5024 19.4787C10.6835 19.4787 13.3005 16.8732 13.3011 13.6958C13.3011 12.154 12.689 10.6752 11.5993 9.58452C10.5096 8.4938 9.03146 7.88031 7.48967 7.87886C4.3134 7.87886 1.70368 10.4928 1.70307 13.6745C1.70483 15.213 2.31633 16.688 3.40359 17.7763C4.49085 18.8647 5.9652 19.4778 7.50361 19.4811L7.5024 19.4787Z" fill="white"/>
</svg>
