<svg width="40" height="40" viewBox="0 0 40 40" fill="none" xmlns="http://www.w3.org/2000/svg">
<rect opacity="0.2" width="40" height="40" rx="10" fill="#4FA30F"/>
<path fill-rule="evenodd" clip-rule="evenodd" d="M20 11C24.9909 11 29 15.0091 29 20C29 24.9909 24.9909 29 20 29C15.0091 29 11 24.9909 11 20C11 15.0091 15.0091 11 20 11ZM16.8726 17.6858C16.8726 17.223 17.2198 16.8759 17.6826 16.8759L22.3109 16.8759C22.4266 16.8759 22.5423 16.8759 22.6002 16.9337C22.7159 16.9337 22.8316 17.0494 22.8895 17.1073C22.9473 17.1651 23.063 17.2809 23.063 17.3966C23.1209 17.4544 23.1209 17.5701 23.1209 17.6858L23.1209 22.3142C23.1209 22.777 22.7738 23.1241 22.3109 23.1241C21.8481 23.1241 21.501 22.777 21.501 22.3142V19.6529L18.2611 22.8927C17.914 23.2398 17.4512 23.2398 17.104 22.8927C16.7569 22.5456 16.7569 22.0827 17.104 21.7356L20.3439 18.4958L17.6826 18.4958C17.2198 18.4958 16.8726 18.1487 16.8726 17.6858Z" fill="#4FA30F"/>
</svg>
