<svg width="12" height="12" viewBox="0 0 12 12" fill="none" xmlns="http://www.w3.org/2000/svg">
<path fill-rule="evenodd" clip-rule="evenodd" d="M6 0C9.32727 0 12 2.67273 12 6C12 9.32727 9.32727 12 6 12C2.67273 12 0 9.32727 0 6C0 2.67273 2.67273 0 6 0ZM3.91721 4.45722C3.91721 4.14867 4.14863 3.91725 4.45718 3.91725H7.54274C7.61988 3.91725 7.69702 3.91725 7.73559 3.95582C7.81272 3.95582 7.88986 4.03296 7.92843 4.07153C7.967 4.1101 8.04414 4.18724 8.04414 4.26438C8.08271 4.30294 8.08271 4.38008 8.08271 4.45722V7.54278C8.08271 7.85133 7.85129 8.08275 7.54274 8.08275C7.23418 8.08275 7.00277 7.85133 7.00277 7.54278V5.76858L4.84288 7.92847C4.61146 8.15989 4.3029 8.15989 4.07149 7.92847C3.84007 7.69705 3.84007 7.3885 4.07149 7.15708L6.23138 4.99719H4.45718C4.14863 4.99719 3.91721 4.76578 3.91721 4.45722Z" fill="#F54E5E"/>
</svg>
