<svg width="40" height="40" viewBox="0 0 40 40" fill="none" xmlns="http://www.w3.org/2000/svg">
<rect opacity="0.2" width="40" height="40" rx="10" fill="#F54E5E"/>
<path fill-rule="evenodd" clip-rule="evenodd" d="M29 20C29 24.9909 24.9909 29 20 29C15.0091 29 11 24.9909 11 20C11 15.0091 15.0091 11 20 11C24.9909 11 29 15.0091 29 20ZM22.3142 16.8726C22.777 16.8726 23.1241 17.2198 23.1241 17.6826L23.1241 22.3109C23.1241 22.4266 23.1241 22.5423 23.0663 22.6002C23.0663 22.7159 22.9506 22.8316 22.8927 22.8895C22.8349 22.9473 22.7191 23.063 22.6034 23.063C22.5456 23.1209 22.4299 23.1209 22.3142 23.1209L17.6858 23.1209C17.223 23.1209 16.8759 22.7738 16.8759 22.3109C16.8759 21.8481 17.223 21.501 17.6858 21.501H20.3471L17.1073 18.2611C16.7602 17.914 16.7602 17.4512 17.1073 17.104C17.4544 16.7569 17.9173 16.7569 18.2644 17.104L21.5042 20.3439L21.5042 17.6826C21.5042 17.2198 21.8513 16.8726 22.3142 16.8726Z" fill="#F54E5E"/>
</svg>
