<svg width="19" height="12" viewBox="0 0 19 12" fill="none" xmlns="http://www.w3.org/2000/svg">
<path d="M7.4877 10.9931C6.13391 10.9931 4.79568 10.9931 3.44189 10.9931C2.30594 11.0086 1.38786 10.5451 0.796543 9.60283C0.563131 9.23208 0.407522 8.76864 0.407522 8.3361C0.36084 6.28154 0.36084 4.22697 0.36084 2.15696C0.36084 1.47725 0.827665 1.01382 1.51234 1.01382C4.32885 0.998369 7.14537 0.982921 9.94632 1.04471C11.02 1.06016 11.9381 1.5236 12.5139 2.46592C12.7317 2.82122 12.8718 3.25376 12.9029 3.6554C12.9651 5.03026 12.9651 6.40512 12.9807 7.77998C12.9807 8.44424 12.9807 9.12394 12.9651 9.7882C12.934 10.6069 12.5761 10.9777 11.7358 10.9931C10.3198 11.0086 8.90374 10.9931 7.4877 10.9931ZM7.37878 9.91178V9.92723C8.71701 9.92723 10.0552 9.92723 11.3779 9.92723C11.7358 9.92723 11.907 9.8191 11.8914 9.44835C11.8759 7.67184 11.8914 5.89534 11.8603 4.11884C11.8447 2.99114 11.1756 2.18785 10.0397 2.17241C7.30097 2.11062 4.57783 2.11061 1.83912 2.07972C1.54346 2.07972 1.40342 2.2342 1.40342 2.54315C1.41898 4.35055 1.41898 6.14251 1.4501 7.94991C1.46566 9.27842 2.43043 9.91178 3.48857 9.91178C4.79568 9.92723 6.08723 9.91178 7.37878 9.91178Z" fill="#464646" stroke="#464646" stroke-width="0.205935"/>
<path d="M18.349 6.00704C18.349 7.27376 18.3646 8.52504 18.3335 9.79176C18.3335 10.0389 18.2556 10.3015 18.1156 10.5178C17.8977 10.8886 17.4309 10.9967 17.0886 10.7341C16.1394 10.0389 15.2057 9.32833 14.3032 8.57138C13.8519 8.18519 13.7119 7.61362 13.6963 7.0266C13.6808 6.316 13.6963 5.60539 13.6808 4.91024C13.6652 4.21509 13.9609 3.65896 14.4899 3.24187C15.268 2.62396 16.0616 2.03694 16.8552 1.41902C17.1819 1.17186 17.5087 1.03283 17.8977 1.2182C18.2712 1.40358 18.349 1.77432 18.349 2.14507C18.3646 3.27277 18.349 4.41591 18.349 5.5436C18.3646 5.69808 18.3646 5.85256 18.349 6.00704ZM17.1197 9.42102C17.1664 9.20475 17.2131 9.09661 17.2286 8.97303C17.2442 6.98025 17.2442 4.98748 17.2442 2.99471C17.2442 2.90202 17.1975 2.77844 17.1353 2.73209C17.0886 2.7012 16.9485 2.76299 16.8707 2.82478C16.3417 3.22642 15.8282 3.62807 15.2991 4.01426C15.019 4.23053 14.8323 4.49315 14.8478 4.8639C14.8634 5.5745 14.8323 6.2851 14.8634 6.98025C14.8789 7.24287 14.9256 7.59817 15.1124 7.76809C15.7192 8.32422 16.3883 8.834 17.1197 9.42102Z" fill="#464646" stroke="#464646" stroke-width="0.205935"/>
</svg>
