<svg width="14" height="12" viewBox="0 0 14 12" fill="none" xmlns="http://www.w3.org/2000/svg">
<path d="M5.06106 2.54098C5.09948 2.72498 5.30302 2.87008 5.54313 2.82982C5.77626 2.78617 5.90885 2.58573 5.86524 2.3973C5.81402 2.1782 5.57269 2.05615 5.34404 2.1173C5.13981 2.17195 5.019 2.36106 5.06106 2.54098Z" fill="#0F50A4"/>
<path d="M13.8972 7.68C11.6653 1.85448 11.8189 2.25361 11.8093 2.23377C11.577 1.75164 11.126 1.37683 10.572 1.20542C10.4927 1.18087 6.00037 0.23858 5.87053 0.19827C5.47237 0.0746173 4.91919 0.143934 4.53085 0.46421L0.681042 3.64071C0.248233 3.99766 0 4.50581 0 5.0349V10.66C0 11.3228 0.598216 11.8621 1.33354 11.8621H9.56983C10.3052 11.8621 10.9034 11.3228 10.9034 10.66V10.1163L13.1991 9.23526C13.8665 8.97626 14.177 8.28115 13.8972 7.68ZM9.56983 11.1266H1.33354C1.05055 11.1266 0.820335 10.9172 0.820335 10.66V5.0349C0.820335 4.71102 0.971987 4.40016 1.23644 4.18205C4.53473 1.46066 2.49603 3.15811 5.09937 1.00531C5.23513 0.893108 5.42258 0.848041 5.60849 0.898306C5.77466 0.942809 5.48145 0.728655 9.66699 4.1821C9.93138 4.40018 10.083 4.71102 10.083 5.0349V10.66C10.083 10.9172 9.8528 11.1266 9.56983 11.1266ZM12.8748 8.55957L10.9033 9.31613V5.0349C10.9033 4.50581 10.6551 3.99766 10.2224 3.64076L7.35534 1.27517L10.3223 1.90646C10.6462 2.01157 10.9102 2.23161 11.0504 2.51349C13.278 8.32791 13.1277 7.93766 13.1375 7.95779C13.2495 8.18994 13.131 8.46017 12.8748 8.55957Z" fill="#0F50A4"/>
<path d="M6.61637 4.68499C6.40754 4.60638 6.1671 4.69456 6.07943 4.88184L4.08266 9.14924C3.96874 9.39269 4.16997 9.65944 4.4607 9.65944C4.62096 9.65944 4.77322 9.57468 4.83912 9.43386L6.83589 5.16646C6.92353 4.97913 6.82525 4.76358 6.61637 4.68499Z" fill="#0F50A4"/>
<path d="M4.69379 5.74243C4.69379 5.03259 4.114 4.45508 3.40132 4.45508C2.68864 4.45508 2.10889 5.03259 2.10889 5.74243C2.10889 6.45228 2.68867 7.02979 3.40135 7.02979C4.11403 7.02979 4.69379 6.45228 4.69379 5.74243ZM3.40135 6.2942C3.14543 6.2942 2.92922 6.04153 2.92922 5.74243C2.92922 5.44334 3.14541 5.19067 3.40135 5.19067C3.6573 5.19067 3.87348 5.44334 3.87348 5.74243C3.87345 6.04153 3.65727 6.2942 3.40135 6.2942Z" fill="#0F50A4"/>
<path d="M7.54051 7.37305C6.82783 7.37305 6.24805 7.95056 6.24805 8.6604C6.24805 9.37025 6.82783 9.94776 7.54051 9.94776C8.25319 9.94776 8.83298 9.37025 8.83298 8.6604C8.83298 7.95056 8.25316 7.37305 7.54051 7.37305ZM7.54051 9.21217C7.28459 9.21217 7.06838 8.95949 7.06838 8.6604C7.06838 8.36131 7.28457 8.10864 7.54051 8.10864C7.79646 8.10864 8.01264 8.36131 8.01264 8.6604C8.01264 8.95949 7.79643 9.21217 7.54051 9.21217Z" fill="#0F50A4"/>
</svg>
