<svg width="40" height="40" viewBox="0 0 40 40" fill="none" xmlns="http://www.w3.org/2000/svg">
<g clip-path="url(#clip0_13080_40831)">
<path d="M5 13.3333C2.16667 13.3333 0 11.1666 0 8.33325C0 5.49992 2.16667 3.33325 5 3.33325C6 3.33325 6.66667 3.99992 6.66667 4.99992C6.66667 5.99992 6 6.66659 5 6.66659C4 6.66659 3.33333 7.33325 3.33333 8.33325C3.33333 9.33325 4 9.99992 5 9.99992C6 9.99992 6.66667 10.6666 6.66667 11.6666C6.66667 12.6666 6 13.3333 5 13.3333Z" fill="white"/>
<path d="M5 36.6667C2.16667 36.6667 0 34.5 0 31.6667C0 30.6667 0.666667 30 1.66667 30C2.66667 30 3.33333 30.6667 3.33333 31.6667C3.33333 32.6667 4 33.3333 5 33.3333C6 33.3333 6.66667 34 6.66667 35C6.66667 36 6 36.6667 5 36.6667Z" fill="white"/>
<path d="M38.333 36.6667H4.99967C3.99967 36.6667 3.33301 36 3.33301 35C3.33301 34 3.99967 33.3333 4.99967 33.3333H36.6663V13.3333H4.99967C3.99967 13.3333 3.33301 12.6667 3.33301 11.6667C3.33301 10.6667 3.99967 10 4.99967 10H38.333C39.333 10 39.9997 10.6667 39.9997 11.6667V35C39.9997 36 39.333 36.6667 38.333 36.6667Z" fill="white"/>
<path d="M34.9997 13.3333C33.9997 13.3333 33.333 12.6666 33.333 11.6666V6.66659H4.99967C3.99967 6.66659 3.33301 5.99992 3.33301 4.99992C3.33301 3.99992 3.99967 3.33325 4.99967 3.33325H34.9997C35.9997 3.33325 36.6663 3.99992 36.6663 4.99992V11.6666C36.6663 12.6666 35.9997 13.3333 34.9997 13.3333Z" fill="white"/>
<path d="M1.66667 33.3334C0.666667 33.3334 0 32.6667 0 31.6667V8.33341C0 7.33341 0.666667 6.66675 1.66667 6.66675C2.66667 6.66675 3.33333 7.33341 3.33333 8.33341V31.6667C3.33333 32.6667 2.66667 33.3334 1.66667 33.3334Z" fill="white"/>
<path d="M26.667 23.3333C26.667 24.2174 27.0182 25.0652 27.6433 25.6904C28.2684 26.3155 29.1163 26.6667 30.0003 26.6667C30.8844 26.6667 31.7322 26.3155 32.3573 25.6904C32.9825 25.0652 33.3337 24.2174 33.3337 23.3333C33.3337 22.4493 32.9825 21.6014 32.3573 20.9763C31.7322 20.3512 30.8844 20 30.0003 20C29.1163 20 28.2684 20.3512 27.6433 20.9763C27.0182 21.6014 26.667 22.4493 26.667 23.3333Z" fill="white"/>
</g>
<defs>
<clipPath id="clip0_13080_40831">
<rect width="40" height="40" fill="white"/>
</clipPath>
</defs>
</svg>
