<svg width="22" height="22" viewBox="0 0 22 22" fill="none" xmlns="http://www.w3.org/2000/svg">
<mask id="path-1-inside-1_29677_17825" fill="white">
<ellipse cx="17.8123" cy="12.8678" rx="0.880639" ry="0.889811"/>
</mask>
<path d="M17.6929 12.8678C17.6929 12.8168 17.7366 12.7576 17.8123 12.7576V14.7576C18.8607 14.7576 19.6929 13.9018 19.6929 12.8678H17.6929ZM17.8123 12.7576C17.8879 12.7576 17.9316 12.8168 17.9316 12.8678H15.9316C15.9316 13.9018 16.7639 14.7576 17.8123 14.7576V12.7576ZM17.9316 12.8678C17.9316 12.9189 17.8879 12.978 17.8123 12.978V10.978C16.7639 10.978 15.9316 11.8339 15.9316 12.8678H17.9316ZM17.8123 12.978C17.7366 12.978 17.6929 12.9189 17.6929 12.8678H19.6929C19.6929 11.8339 18.8607 10.978 17.8123 10.978V12.978Z" fill="#ED1E26" mask="url(#path-1-inside-1_29677_17825)"/>
<path d="M18.6678 10.0737H7.7287C7.6398 10.0768 7.55249 10.0495 7.48099 9.99622C7.40949 9.94298 7.358 9.86694 7.33493 9.78049C7.31214 9.69576 7.31795 9.60582 7.35145 9.52477C7.38494 9.44373 7.44423 9.37617 7.52 9.3327L14.3599 5.37002C14.4512 5.31971 14.558 5.30557 14.6592 5.3304C14.7094 5.34392 14.7566 5.36735 14.7978 5.39932C14.839 5.43128 14.8735 5.47116 14.8994 5.51664C14.9211 5.55823 14.9461 5.59799 14.9742 5.63552C15.1475 5.86919 15.4001 6.0306 15.684 6.08905C15.9679 6.1475 16.2632 6.09891 16.5138 5.95254C16.5588 5.92633 16.6084 5.90934 16.6599 5.90253C16.7114 5.89572 16.7638 5.89923 16.8139 5.91286C16.864 5.92649 16.911 5.94997 16.9521 5.98194C16.9932 6.01391 17.0276 6.05375 17.0533 6.09915L18.9986 9.49121C19.0331 9.55145 19.0513 9.61978 19.0513 9.68934C19.0513 9.7589 19.0331 9.82724 18.9986 9.88748C18.9635 9.94402 18.9147 9.99073 18.8569 10.0233C18.7991 10.0558 18.7341 10.0732 18.6678 10.0737ZM4.2556 10.0737H2.43636C2.36697 10.074 2.29874 10.0558 2.23858 10.021C2.17842 9.98623 2.12847 9.93606 2.09377 9.87559C2.05921 9.81535 2.04102 9.74701 2.04102 9.67745C2.04102 9.6079 2.05921 9.53956 2.09377 9.47932L6.96478 0.991261C7.22253 0.539091 7.64697 0.207356 8.14611 0.0679563C8.3957 -8.27231e-05 8.65629 -0.0172539 8.91258 0.017451C9.16886 0.0521559 9.41567 0.138037 9.63852 0.270053L15.0214 3.38076C15.082 3.41532 15.1324 3.46544 15.1675 3.526C15.2026 3.58657 15.2211 3.65541 15.2211 3.72551C15.2211 3.79561 15.2026 3.86445 15.1675 3.92502C15.1324 3.98558 15.082 4.0357 15.0214 4.07026C15.0214 4.07026 13.5062 4.95086 13.4463 4.98564C13.3865 5.02042 13.2494 5.03873 13.2494 5.03873L13.0526 4.98564L11.907 5.15624C11.6515 5.44822 11.8266 5.41516 11.4534 5.51664C11.0801 5.61812 10.7996 6.0253 10.4328 5.90253L4.59819 9.87559C4.56349 9.93606 4.51354 9.98623 4.45338 10.021C4.39322 10.0558 4.32499 10.074 4.2556 10.0737ZM3.11759 9.28119H4.02721L7.53969 3.15885C7.56542 3.11344 7.59982 3.0736 7.6409 3.04163C7.68199 3.00966 7.72896 2.98618 7.77911 2.97255C7.82925 2.95892 7.88158 2.95541 7.93307 2.96222C7.98457 2.96903 8.03422 2.98603 8.07916 3.01223C8.21376 3.09099 8.3625 3.14221 8.51683 3.16292C8.67116 3.18364 8.82804 3.17345 8.97844 3.13294C9.12885 3.09243 9.26981 3.0224 9.39323 2.92688C9.51664 2.83136 9.62008 2.71222 9.69758 2.57633C9.74953 2.48569 9.83499 2.41941 9.93532 2.39194C10.0356 2.36447 10.1427 2.37805 10.2331 2.42971L13.2494 4.18518L14.037 3.72551L9.26049 0.959559C8.98983 0.80266 8.66844 0.760019 8.36662 0.840964C8.0648 0.921909 7.80712 1.11985 7.64995 1.39149L3.11759 9.28119ZM11.0443 18.7916C9.52432 18.7916 8.28787 17.369 8.28787 15.6215C8.28787 13.8739 9.52432 12.4513 11.0443 12.4513C12.5643 12.4513 13.8007 13.8739 13.8007 15.6215C13.8007 17.369 12.5643 18.7916 11.0443 18.7916ZM11.0443 13.2439C9.95748 13.2439 9.07542 14.3098 9.07542 15.6215C9.07542 16.9331 9.95748 17.9991 11.0443 17.9991C12.1311 17.9991 13.0132 16.9331 13.0132 15.6215C13.0132 14.3098 12.1311 13.2439 11.0443 13.2439Z" fill="#ED1E26"/>
<path d="M20.4701 10.0791C20.4335 10.0848 20.3962 10.0848 20.3595 10.0791C20.2601 10.0456 20.1565 10.0259 20.0517 10.0205H18.6149C18.5453 10.0208 18.4769 10.0029 18.4166 9.96861C18.3563 9.93432 18.3062 9.88487 18.2714 9.82527L16.4991 6.78691C16.1317 6.90836 15.7364 6.92016 15.3622 6.82086C14.9881 6.72155 14.6518 6.51552 14.3952 6.22845L7.84671 9.96977C7.78616 10.0025 7.71836 10.02 7.64935 10.0205H4.49154C4.40242 10.0236 4.3149 9.99664 4.24322 9.94416C4.17155 9.89168 4.11994 9.81674 4.09681 9.73154C4.07397 9.64804 4.07979 9.5594 4.11337 9.47953C4.14694 9.39966 4.20637 9.33308 4.28233 9.29024L14.8886 3.24085C15.3419 2.98192 15.8806 2.91175 16.3862 3.04578C16.8918 3.17981 17.3229 3.50705 17.5846 3.95553L20.8135 9.49332C20.8531 9.56098 20.8712 9.63883 20.8656 9.71681C20.86 9.7948 20.8308 9.86931 20.7819 9.93072C20.7447 9.97726 20.6973 10.0148 20.6433 10.0405C20.5893 10.0662 20.53 10.0794 20.4701 10.0791ZM18.8438 9.23947H19.7517L16.8938 4.34607C16.7363 4.07836 16.478 3.88328 16.1754 3.8035C15.8729 3.72373 15.5507 3.76575 15.2794 3.92038L13.3808 5.00607L5.96781 9.23947H7.54672L14.3123 5.37317C14.4039 5.32359 14.5109 5.30966 14.6123 5.33412C14.6627 5.34745 14.71 5.37054 14.7513 5.40205C14.7926 5.43355 14.8272 5.47285 14.8531 5.51767C14.8749 5.55866 14.9 5.59784 14.9281 5.63483C15.1019 5.86512 15.3551 6.02419 15.6397 6.0818C15.9242 6.1394 16.2203 6.09152 16.4715 5.94726C16.5165 5.92144 16.5663 5.90469 16.6179 5.89798C16.6696 5.89127 16.722 5.89473 16.7723 5.90816C16.8225 5.92159 16.8696 5.94473 16.9108 5.97624C16.952 6.00775 16.9865 6.04701 17.0123 6.09176L18.8438 9.23947Z" fill="#ED1E26"/>
<path d="M18.4517 20.3957H3.5488C3.44479 20.3957 3.34503 20.3535 3.27149 20.2783C3.19794 20.2031 3.15662 20.101 3.15662 19.9947C3.15662 19.6756 3.03266 19.3696 2.81202 19.144C2.59137 18.9183 2.29211 18.7916 1.98007 18.7916C1.87606 18.7916 1.77631 18.7493 1.70276 18.6741C1.62921 18.5989 1.58789 18.4969 1.58789 18.3905V12.776C1.58789 12.6696 1.62921 12.5676 1.70276 12.4924C1.77631 12.4172 1.87606 12.3749 1.98007 12.3749C2.29211 12.3749 2.59137 12.2482 2.81202 12.0225C3.03266 11.7969 3.15662 11.4909 3.15662 11.1718C3.15662 11.0654 3.19794 10.9634 3.27149 10.8882C3.34503 10.813 3.44479 10.7708 3.5488 10.7708H18.4517C18.5557 10.7708 18.6555 10.813 18.729 10.8882C18.8026 10.9634 18.8439 11.0654 18.8439 11.1718C18.8439 11.4909 18.9679 11.7969 19.1885 12.0225C19.4092 12.2482 19.7084 12.3749 20.0204 12.3749C20.1245 12.3749 20.2242 12.4172 20.2978 12.4924C20.3713 12.5676 20.4126 12.6696 20.4126 12.776V18.3905C20.4126 18.4969 20.3713 18.5989 20.2978 18.6741C20.2242 18.7493 20.1245 18.7916 20.0204 18.7916C19.7084 18.7916 19.4092 18.9183 19.1885 19.144C18.9679 19.3696 18.8439 19.6756 18.8439 19.9947C18.8439 20.101 18.8026 20.2031 18.729 20.2783C18.6555 20.3535 18.5557 20.3957 18.4517 20.3957ZM3.90176 19.5936H18.0988C18.1756 19.2083 18.3616 18.8546 18.6335 18.5765C18.9055 18.2984 19.2514 18.1082 19.6283 18.0296V13.1369C19.2514 13.0583 18.9055 12.8681 18.6335 12.59C18.3616 12.3119 18.1756 11.9582 18.0988 11.5728H3.90176C3.82491 11.9582 3.63893 12.3119 3.36698 12.59C3.09502 12.8681 2.7491 13.0583 2.37225 13.1369V18.0296C2.7491 18.1082 3.09502 18.2984 3.36698 18.5765C3.63893 18.8546 3.82491 19.2083 3.90176 19.5936Z" fill="#ED1E26"/>
<path d="M20.0357 21.9998H1.96429C1.78608 22.0012 1.60866 21.976 1.43786 21.925C1.02481 21.8098 0.660698 21.5623 0.401083 21.2202C0.141468 20.8781 0.00060845 20.4603 0 20.0304V11.3652C0 10.8429 0.206951 10.3419 0.575326 9.97261C0.943701 9.60328 1.44332 9.39579 1.96429 9.39579H20.0357C20.2126 9.39467 20.3887 9.41989 20.5582 9.47062C20.972 9.5851 21.337 9.83231 21.5974 10.1744C21.8577 10.5166 21.9992 10.9348 22 11.3652V20.0304C22 20.5528 21.793 21.0537 21.4247 21.423C21.0563 21.7923 20.5567 21.9998 20.0357 21.9998ZM1.96429 10.1835C1.65171 10.1835 1.35193 10.308 1.13091 10.5296C0.909885 10.7512 0.785714 11.0518 0.785714 11.3652V20.0304C0.786689 20.2882 0.871667 20.5385 1.0277 20.7433C1.18373 20.9481 1.40227 21.0961 1.65 21.1648C1.75189 21.1959 1.85778 21.2118 1.96429 21.2121H20.0357C20.3483 21.2121 20.6481 21.0876 20.8691 20.866C21.0901 20.6444 21.2143 20.3438 21.2143 20.0304V11.3652C21.2133 11.1075 21.1283 10.8571 20.9723 10.6524C20.8163 10.4476 20.5977 10.2995 20.35 10.2308C20.248 10.2003 20.1422 10.1844 20.0357 10.1835H1.96429Z" fill="#ED1E26"/>
<path d="M18.4517 20.3957H3.5488C3.44479 20.3957 3.34503 20.3535 3.27149 20.2783C3.19794 20.2031 3.15662 20.101 3.15662 19.9947C3.15662 19.6756 3.03266 19.3696 2.81202 19.144C2.59137 18.9183 2.29211 18.7916 1.98007 18.7916C1.87606 18.7916 1.77631 18.7493 1.70276 18.6741C1.62921 18.5989 1.58789 18.4969 1.58789 18.3905V12.776C1.58789 12.6696 1.62921 12.5676 1.70276 12.4924C1.77631 12.4172 1.87606 12.3749 1.98007 12.3749C2.29211 12.3749 2.59137 12.2482 2.81202 12.0225C3.03266 11.7969 3.15662 11.4909 3.15662 11.1718C3.15662 11.0654 3.19794 10.9634 3.27149 10.8882C3.34503 10.813 3.44479 10.7708 3.5488 10.7708H18.4517C18.5557 10.7708 18.6555 10.813 18.729 10.8882C18.8026 10.9634 18.8439 11.0654 18.8439 11.1718C18.8439 11.4909 18.9679 11.7969 19.1885 12.0225C19.4091 12.2482 19.7084 12.3749 20.0204 12.3749C20.1245 12.3749 20.2242 12.4172 20.2978 12.4924C20.3713 12.5676 20.4126 12.6696 20.4126 12.776V18.3905C20.4126 18.4969 20.3713 18.5989 20.2978 18.6741C20.2242 18.7493 20.1245 18.7916 20.0204 18.7916C19.7084 18.7916 19.4091 18.9183 19.1885 19.144C18.9679 19.3696 18.8439 19.6756 18.8439 19.9947C18.8439 20.101 18.8026 20.2031 18.729 20.2783C18.6555 20.3535 18.5557 20.3957 18.4517 20.3957Z" fill="#ED1E26"/>
<path d="M13.3971 15.5635C13.3971 17.236 12.0558 18.5891 10.4044 18.5891C8.75306 18.5891 7.41172 17.236 7.41172 15.5635C7.41172 13.8911 8.75306 12.5379 10.4044 12.5379C12.0558 12.5379 13.3971 13.8911 13.3971 15.5635Z" fill="white" stroke="#ED1E26" stroke-width="0.3"/>
<path d="M7.50084 3.20883L4.00293 9.30091L13.2079 4.18542L10.4004 2.51126C10.069 2.21363 9.83277 2.38725 9.75607 2.51126C9.24979 3.25533 8.46736 3.20882 8.09916 3.02281C7.8046 2.87399 7.63891 2.97631 7.50084 3.20883Z" fill="#ED1E26"/>
</svg>
