<svg width="20" height="18" viewBox="0 0 20 18" fill="none" xmlns="http://www.w3.org/2000/svg">
<path d="M10.047 11.482C10.3174 11.482 10.5767 11.3791 10.7679 11.196C10.9591 11.0129 11.0665 10.7646 11.0665 10.5056V5.9842C11.0665 5.72525 10.9591 5.4769 10.7679 5.29379C10.5767 5.11068 10.3174 5.00781 10.047 5.00781C9.7766 5.00781 9.51727 5.11068 9.32608 5.29379C9.13488 5.4769 9.02746 5.72525 9.02746 5.9842V10.4906C9.02538 10.6201 9.05022 10.7487 9.10052 10.8689C9.15083 10.9891 9.22559 11.0985 9.32047 11.1907C9.41535 11.283 9.52845 11.3563 9.65318 11.4063C9.77791 11.4563 9.91178 11.482 10.047 11.482Z" fill="#E28112"/>
<path d="M10.0084 14.8235C10.6581 14.8235 11.1848 14.3191 11.1848 13.6969C11.1848 13.0747 10.6581 12.5703 10.0084 12.5703C9.35871 12.5703 8.83203 13.0747 8.83203 13.6969C8.83203 14.3191 9.35871 14.8235 10.0084 14.8235Z" fill="#E28112"/>
<path d="M19.7155 14.6502L12.0769 1.17606C11.8747 0.820214 11.576 0.52317 11.2123 0.316202C10.8487 0.109234 10.4334 0 10.0104 0C9.58736 0 9.17215 0.109234 8.80848 0.316202C8.44481 0.52317 8.14613 0.820214 7.9439 1.17606L0.297444 14.6502C0.097307 14.9942 -0.00517917 15.3825 0.000201457 15.7763C0.00558209 16.1701 0.118641 16.5556 0.32811 16.8945C0.537579 17.2334 0.83614 17.5138 1.19403 17.7078C1.55193 17.9017 1.95665 18.0025 2.36787 18H17.6451C18.0529 18.0003 18.4539 17.8991 18.8086 17.7063C19.1633 17.5135 19.4595 17.2358 19.6683 16.9002C19.8771 16.5647 19.9912 16.183 19.9995 15.7925C20.0078 15.4019 19.9099 15.0161 19.7155 14.6727V14.6502ZM18.3195 16.1073C18.2501 16.2194 18.1515 16.3123 18.0332 16.3768C17.9149 16.4413 17.7812 16.4753 17.6451 16.4753H2.36787C2.23155 16.4756 2.09748 16.442 1.9789 16.3776C1.86031 16.3132 1.7613 16.2203 1.69163 16.1081C1.62196 15.9959 1.58404 15.8682 1.5816 15.7377C1.57916 15.6071 1.61229 15.4782 1.67773 15.3637L9.31634 1.88957C9.38354 1.77034 9.48316 1.67074 9.60466 1.60132C9.72616 1.5319 9.865 1.49524 10.0065 1.49524C10.148 1.49524 10.2868 1.5319 10.4083 1.60132C10.5298 1.67074 10.6294 1.77034 10.6966 1.88957L18.3352 15.3637C18.4002 15.4783 18.433 15.6071 18.4302 15.7375C18.4275 15.8679 18.3893 15.9953 18.3195 16.1073Z" fill="#E28112"/>
</svg>
