<svg width="38" height="39" viewBox="0 0 38 39" fill="none" xmlns="http://www.w3.org/2000/svg">
<mask id="path-1-outside-1_22586_87837" maskUnits="userSpaceOnUse" x="4" y="3.5" width="29" height="29" fill="black">
<rect fill="white" x="4" y="3.5" width="29" height="29"/>
<path fill-rule="evenodd" clip-rule="evenodd" d="M9.02638 27.9014L9.03198 27.9072C9.03764 27.913 9.04339 27.9189 9.04949 27.9241C11.5005 30.3584 14.8654 31.8623 18.5758 31.8623C20.1257 31.8623 21.6154 31.6 23.0034 31.117L22.6643 29.9081C21.9042 30.1776 21.1102 30.3741 20.2904 30.4893C21.0149 29.7718 21.6581 29.0574 22.2267 28.3478C22.0864 27.8476 21.9461 27.3474 21.8056 26.8472C21.0907 27.8253 20.2278 28.8157 19.1973 29.8133V25.022C19.9629 25.0677 20.6924 25.1752 21.3776 25.3235C21.2508 24.8725 21.1239 24.4217 20.9969 23.9708C20.4213 23.8695 19.8201 23.7964 19.1973 23.7611V18.8069H24.764C24.7565 19.065 24.7415 19.325 24.7178 19.5875C24.6686 20.135 24.5819 20.6917 24.4531 21.2567C24.8306 21.46 25.2081 21.6634 25.5856 21.8668C25.7718 21.1311 25.8921 20.4084 25.9558 19.7014C25.9833 19.4005 26.0001 19.1028 26.007 18.8075H30.8916C30.7999 20.6646 30.303 22.4149 29.4884 23.9703L30.4894 24.5099C30.5215 24.5272 30.5537 24.5445 30.5858 24.5618C31.5854 22.6564 32.1515 20.4851 32.1515 18.1812C32.1515 14.3808 30.6105 10.9405 28.1245 8.46025L28.0864 8.42248C27.4549 7.79927 26.7659 7.23648 26.0276 6.74672C24.8196 5.94536 23.4854 5.3404 22.0887 4.96332C20.9437 4.65486 19.7607 4.50189 18.5758 4.5C14.8654 4.5 11.5005 6.00327 9.04887 8.43822C9.04137 8.44514 9.03387 8.4527 9.02638 8.46025C6.54097 10.9399 5 14.3802 5 18.1812C5 21.9821 6.54097 25.4218 9.02638 27.9014ZM13.297 26.0047C12.3663 26.3843 11.4168 26.8867 10.4587 27.5351C12.2214 29.0906 14.4276 30.1482 16.8605 30.49C15.3314 28.9754 14.1646 27.4746 13.297 26.0047ZM17.9536 25.0044C16.8536 25.0397 15.6931 25.2128 14.495 25.5779C15.3414 26.9647 16.4751 28.3811 17.9536 29.8126V25.0044ZM12.6942 24.8943C11.8035 23.0995 11.3438 21.3577 11.1945 19.7008C11.1676 19.4005 11.1508 19.1028 11.1433 18.8069H6.25863C6.40792 21.8279 7.6297 24.5669 9.54732 26.6437C10.6086 25.9027 11.6611 25.3293 12.6942 24.8943ZM17.9536 23.7441V18.8075H12.3869C12.3938 19.0656 12.4094 19.3256 12.4331 19.5881C12.573 21.1443 13.0165 22.7753 13.8685 24.4561C15.2877 23.9922 16.6594 23.7807 17.9536 23.7441ZM30.8923 17.5542C30.743 14.5325 29.5212 11.7941 27.6029 9.71675C27.0008 10.1259 25.8315 10.8448 24.2555 11.4649C25.1438 13.2445 25.8296 15.303 25.9808 17.5542H30.8923ZM24.7365 17.5542C24.5872 15.4522 23.9339 13.5328 23.0925 11.8766C21.9388 12.2398 20.6252 12.5193 19.1966 12.5999V17.5542H24.7365ZM17.9536 17.5542V12.6175C16.7044 12.5823 15.3839 12.384 14.0191 11.954C13.197 13.592 12.5612 15.4843 12.4144 17.5542H17.9536ZM11.1707 17.5542C11.3194 15.3333 11.9896 13.2999 12.861 11.536C11.7754 11.0941 10.6667 10.4986 9.54795 9.71738C7.63033 11.7941 6.40855 14.5325 6.25926 17.5542H11.1707ZM17.9536 6.55598C17.0723 7.44233 15.763 8.91665 14.6356 10.8253C15.7843 11.1621 16.8967 11.3233 17.9536 11.3566V6.55598ZM19.1973 6.55598V11.3396C20.3878 11.2685 21.4909 11.0482 22.4753 10.7573C21.3566 8.88202 20.0686 7.43226 19.1973 6.55598ZM16.8949 5.8673C14.4488 6.20346 12.2301 7.26418 10.4587 8.82726C11.4712 9.51279 12.4743 10.0347 13.4563 10.4212C14.6 8.43129 15.9361 6.86444 16.8949 5.8673ZM20.256 5.8673C21.2048 6.85437 22.5228 8.39856 23.6584 10.3576C25.0288 9.83447 26.0788 9.22259 26.6897 8.82474C24.9183 7.26292 22.7008 6.20346 20.256 5.8673Z"/>
</mask>
<path fill-rule="evenodd" clip-rule="evenodd" d="M9.02638 27.9014L9.03198 27.9072C9.03764 27.913 9.04339 27.9189 9.04949 27.9241C11.5005 30.3584 14.8654 31.8623 18.5758 31.8623C20.1257 31.8623 21.6154 31.6 23.0034 31.117L22.6643 29.9081C21.9042 30.1776 21.1102 30.3741 20.2904 30.4893C21.0149 29.7718 21.6581 29.0574 22.2267 28.3478C22.0864 27.8476 21.9461 27.3474 21.8056 26.8472C21.0907 27.8253 20.2278 28.8157 19.1973 29.8133V25.022C19.9629 25.0677 20.6924 25.1752 21.3776 25.3235C21.2508 24.8725 21.1239 24.4217 20.9969 23.9708C20.4213 23.8695 19.8201 23.7964 19.1973 23.7611V18.8069H24.764C24.7565 19.065 24.7415 19.325 24.7178 19.5875C24.6686 20.135 24.5819 20.6917 24.4531 21.2567C24.8306 21.46 25.2081 21.6634 25.5856 21.8668C25.7718 21.1311 25.8921 20.4084 25.9558 19.7014C25.9833 19.4005 26.0001 19.1028 26.007 18.8075H30.8916C30.7999 20.6646 30.303 22.4149 29.4884 23.9703L30.4894 24.5099C30.5215 24.5272 30.5537 24.5445 30.5858 24.5618C31.5854 22.6564 32.1515 20.4851 32.1515 18.1812C32.1515 14.3808 30.6105 10.9405 28.1245 8.46025L28.0864 8.42248C27.4549 7.79927 26.7659 7.23648 26.0276 6.74672C24.8196 5.94536 23.4854 5.3404 22.0887 4.96332C20.9437 4.65486 19.7607 4.50189 18.5758 4.5C14.8654 4.5 11.5005 6.00327 9.04887 8.43822C9.04137 8.44514 9.03387 8.4527 9.02638 8.46025C6.54097 10.9399 5 14.3802 5 18.1812C5 21.9821 6.54097 25.4218 9.02638 27.9014ZM13.297 26.0047C12.3663 26.3843 11.4168 26.8867 10.4587 27.5351C12.2214 29.0906 14.4276 30.1482 16.8605 30.49C15.3314 28.9754 14.1646 27.4746 13.297 26.0047ZM17.9536 25.0044C16.8536 25.0397 15.6931 25.2128 14.495 25.5779C15.3414 26.9647 16.4751 28.3811 17.9536 29.8126V25.0044ZM12.6942 24.8943C11.8035 23.0995 11.3438 21.3577 11.1945 19.7008C11.1676 19.4005 11.1508 19.1028 11.1433 18.8069H6.25863C6.40792 21.8279 7.6297 24.5669 9.54732 26.6437C10.6086 25.9027 11.6611 25.3293 12.6942 24.8943ZM17.9536 23.7441V18.8075H12.3869C12.3938 19.0656 12.4094 19.3256 12.4331 19.5881C12.573 21.1443 13.0165 22.7753 13.8685 24.4561C15.2877 23.9922 16.6594 23.7807 17.9536 23.7441ZM30.8923 17.5542C30.743 14.5325 29.5212 11.7941 27.6029 9.71675C27.0008 10.1259 25.8315 10.8448 24.2555 11.4649C25.1438 13.2445 25.8296 15.303 25.9808 17.5542H30.8923ZM24.7365 17.5542C24.5872 15.4522 23.9339 13.5328 23.0925 11.8766C21.9388 12.2398 20.6252 12.5193 19.1966 12.5999V17.5542H24.7365ZM17.9536 17.5542V12.6175C16.7044 12.5823 15.3839 12.384 14.0191 11.954C13.197 13.592 12.5612 15.4843 12.4144 17.5542H17.9536ZM11.1707 17.5542C11.3194 15.3333 11.9896 13.2999 12.861 11.536C11.7754 11.0941 10.6667 10.4986 9.54795 9.71738C7.63033 11.7941 6.40855 14.5325 6.25926 17.5542H11.1707ZM17.9536 6.55598C17.0723 7.44233 15.763 8.91665 14.6356 10.8253C15.7843 11.1621 16.8967 11.3233 17.9536 11.3566V6.55598ZM19.1973 6.55598V11.3396C20.3878 11.2685 21.4909 11.0482 22.4753 10.7573C21.3566 8.88202 20.0686 7.43226 19.1973 6.55598ZM16.8949 5.8673C14.4488 6.20346 12.2301 7.26418 10.4587 8.82726C11.4712 9.51279 12.4743 10.0347 13.4563 10.4212C14.6 8.43129 15.9361 6.86444 16.8949 5.8673ZM20.256 5.8673C21.2048 6.85437 22.5228 8.39856 23.6584 10.3576C25.0288 9.83447 26.0788 9.22259 26.6897 8.82474C24.9183 7.26292 22.7008 6.20346 20.256 5.8673Z" fill="#FF9402"/>
<path d="M9.03198 27.9072L9.22753 27.717L9.22689 27.7164L9.03198 27.9072ZM9.02638 27.9014L9.2213 27.7107L9.219 27.7084L9.02638 27.9014ZM9.04949 27.9241L9.24168 27.7306L9.23435 27.7233L9.22649 27.7166L9.04949 27.9241ZM23.0034 31.117L23.0931 31.3745L23.3353 31.2903L23.266 31.0433L23.0034 31.117ZM22.6643 29.9081L22.9269 29.8344L22.8481 29.5536L22.5732 29.6511L22.6643 29.9081ZM20.2904 30.4893L20.0985 30.2956L19.5145 30.8739L20.3283 30.7594L20.2904 30.4893ZM22.2267 28.3478L22.4395 28.5184L22.5271 28.409L22.4893 28.2742L22.2267 28.3478ZM21.8056 26.8472L22.0682 26.7735L21.9166 26.2332L21.5855 26.6863L21.8056 26.8472ZM19.1973 29.8133H18.9245V30.4568L19.387 30.0092L19.1973 29.8133ZM19.1973 25.022L19.2135 24.7498L18.9245 24.7326V25.022H19.1973ZM21.3776 25.3235L21.3199 25.59L21.7628 25.6859L21.6401 25.2497L21.3776 25.3235ZM20.9969 23.9708L21.2594 23.8968L21.2129 23.7319L21.0441 23.7022L20.9969 23.9708ZM19.1973 23.7611H18.9245V24.0189L19.1819 24.0334L19.1973 23.7611ZM19.1973 18.8069V18.5342H18.9245V18.8069H19.1973ZM24.764 18.8069L25.0366 18.8148L25.0448 18.5342H24.764V18.8069ZM24.7178 19.5875L24.4461 19.5629L24.4461 19.5631L24.7178 19.5875ZM24.4531 21.2567L24.1872 21.196L24.141 21.3984L24.3238 21.4968L24.4531 21.2567ZM25.5856 21.8668L25.4562 22.1069L25.7641 22.2729L25.85 21.9337L25.5856 21.8668ZM25.9558 19.7014L25.6842 19.6766L25.6842 19.677L25.9558 19.7014ZM26.007 18.8075V18.5348H25.7406L25.7344 18.8012L26.007 18.8075ZM30.8916 18.8075L31.164 18.821L31.1782 18.5348H30.8916V18.8075ZM29.4884 23.9703L29.2468 23.8438L29.1217 24.0826L29.359 24.2104L29.4884 23.9703ZM30.4894 24.5099L30.6188 24.2698L30.6188 24.2698L30.4894 24.5099ZM30.5858 24.5618L30.4564 24.8019L30.6992 24.9328L30.8273 24.6885L30.5858 24.5618ZM28.1245 8.46025L28.3171 8.26718L28.3165 8.26656L28.1245 8.46025ZM28.0864 8.42248L28.2784 8.22879L28.278 8.22836L28.0864 8.42248ZM26.0276 6.74672L25.8769 6.97399L25.8769 6.97399L26.0276 6.74672ZM22.0887 4.96332L22.1598 4.70002L22.1596 4.69998L22.0887 4.96332ZM18.5758 4.5L18.5762 4.22727H18.5758V4.5ZM9.04887 8.43822L9.23406 8.63867L9.24105 8.63173L9.04887 8.43822ZM9.02638 8.46025L9.21901 8.65333L9.21998 8.65234L9.02638 8.46025ZM10.4587 27.5351L10.3058 27.3092L10.0142 27.5065L10.2782 27.7395L10.4587 27.5351ZM13.297 26.0047L13.5319 25.8661L13.4121 25.6632L13.194 25.7522L13.297 26.0047ZM16.8605 30.49L16.8226 30.7601L17.6361 30.8744L17.0524 30.2962L16.8605 30.49ZM14.495 25.5779L14.4155 25.317L14.0789 25.4196L14.2622 25.72L14.495 25.5779ZM17.9536 25.0044H18.2264V24.7228L17.9449 24.7318L17.9536 25.0044ZM17.9536 29.8126L17.7639 30.0086L18.2264 30.4563V29.8126H17.9536ZM11.1945 19.7008L10.9228 19.7251L10.9229 19.7253L11.1945 19.7008ZM12.6942 24.8943L12.8001 25.1456L13.0675 25.033L12.9385 24.773L12.6942 24.8943ZM11.1433 18.8069L11.4159 18.8L11.4092 18.5342H11.1433V18.8069ZM6.25863 18.8069V18.5342H5.9721L5.98624 18.8204L6.25863 18.8069ZM9.54732 26.6437L9.34695 26.8287L9.50836 27.0035L9.70345 26.8673L9.54732 26.6437ZM17.9536 18.8075H18.2264V18.5348H17.9536V18.8075ZM17.9536 23.7441L17.9613 24.0168L18.2264 24.0093V23.7441H17.9536ZM12.3869 18.8075V18.5348H12.1068L12.1143 18.8148L12.3869 18.8075ZM12.4331 19.5881L12.7048 19.5637L12.7047 19.5636L12.4331 19.5881ZM13.8685 24.4561L13.6253 24.5794L13.731 24.788L13.9533 24.7153L13.8685 24.4561ZM27.6029 9.71675L27.8033 9.53173L27.6439 9.35915L27.4497 9.49118L27.6029 9.71675ZM30.8923 17.5542V17.8269H31.1788L31.1646 17.5407L30.8923 17.5542ZM24.2555 11.4649L24.1557 11.2111L23.8785 11.3202L24.0115 11.5867L24.2555 11.4649ZM25.9808 17.5542L25.7087 17.5724L25.7257 17.8269H25.9808V17.5542ZM23.0925 11.8766L23.3356 11.7531L23.231 11.5471L23.0106 11.6165L23.0925 11.8766ZM24.7365 17.5542V17.8269H25.0293L25.0085 17.5348L24.7365 17.5542ZM19.1966 12.5999L19.1813 12.3276L18.9239 12.3421V12.5999H19.1966ZM19.1966 17.5542H18.9239V17.8269H19.1966V17.5542ZM17.9536 12.6175H18.2264V12.3524L17.9613 12.3449L17.9536 12.6175ZM17.9536 17.5542V17.8269H18.2264V17.5542H17.9536ZM14.0191 11.954L14.101 11.6939L13.8795 11.6241L13.7753 11.8317L14.0191 11.954ZM12.4144 17.5542L12.1423 17.5349L12.1216 17.8269H12.4144V17.5542ZM12.861 11.536L13.1055 11.6568L13.2354 11.394L12.9638 11.2834L12.861 11.536ZM11.1707 17.5542V17.8269H11.4258L11.4429 17.5724L11.1707 17.5542ZM9.54795 9.71738L9.70409 9.49378L9.509 9.35754L9.34758 9.53237L9.54795 9.71738ZM6.25926 17.5542L5.98686 17.5407L5.97272 17.8269H6.25926V17.5542ZM14.6356 10.8253L14.4008 10.6866L14.2225 10.9884L14.5588 11.087L14.6356 10.8253ZM17.9536 6.55598H18.2264V5.89492L17.7602 6.36368L17.9536 6.55598ZM17.9536 11.3566L17.945 11.6292L18.2264 11.6381V11.3566H17.9536ZM19.1973 11.3396H18.9245V11.6291L19.2135 11.6119L19.1973 11.3396ZM19.1973 6.55598L19.3907 6.36368L18.9245 5.89493V6.55598H19.1973ZM22.4753 10.7573L22.5526 11.0189L22.8895 10.9193L22.7096 10.6176L22.4753 10.7573ZM10.4587 8.82726L10.2782 8.62276L10.0142 8.8557L10.3058 9.05309L10.4587 8.82726ZM16.8949 5.8673L17.0915 6.05633L17.6358 5.49018L16.8577 5.59711L16.8949 5.8673ZM13.4563 10.4212L13.3564 10.675L13.5754 10.7612L13.6927 10.5571L13.4563 10.4212ZM23.6584 10.3576L23.4224 10.4944L23.5388 10.6952L23.7556 10.6124L23.6584 10.3576ZM20.256 5.8673L20.2932 5.59711L19.5152 5.49014L20.0594 6.0563L20.256 5.8673ZM26.6897 8.82474L26.8386 9.05327L27.1392 8.85746L26.8701 8.62017L26.6897 8.82474ZM9.22689 27.7164L9.22129 27.7107L8.83147 28.0922L8.83708 28.0979L9.22689 27.7164ZM9.22649 27.7166C9.22825 27.7181 9.22957 27.7193 9.2304 27.7201C9.23122 27.7208 9.23169 27.7213 9.2317 27.7213C9.23171 27.7213 9.23143 27.721 9.2307 27.7203C9.22991 27.7195 9.22903 27.7186 9.22753 27.717L8.83644 28.0973C8.84048 28.1014 8.85505 28.1167 8.87249 28.1316L9.22649 27.7166ZM18.5758 31.5896C14.9408 31.5896 11.644 30.1165 9.24168 27.7306L8.85731 28.1176C11.3571 30.6003 14.7901 32.135 18.5758 32.135V31.5896ZM22.9138 30.8594C21.5542 31.3325 20.0948 31.5896 18.5758 31.5896V32.135C20.1567 32.135 21.6767 31.8674 23.0931 31.3745L22.9138 30.8594ZM23.266 31.0433L22.9269 29.8344L22.4017 29.9818L22.7408 31.1906L23.266 31.0433ZM20.3283 30.7594C21.1664 30.6416 21.9783 30.4407 22.7555 30.1652L22.5732 29.6511C21.8302 29.9145 21.0539 30.1066 20.2524 30.2193L20.3283 30.7594ZM22.0139 28.1773C21.4522 28.8782 20.816 29.585 20.0985 30.2956L20.4823 30.6831C21.2138 29.9587 21.8641 29.2366 22.4395 28.5184L22.0139 28.1773ZM22.4893 28.2742C22.349 27.7739 22.2086 27.2737 22.0682 26.7735L21.5431 26.9209C21.6835 27.421 21.8238 27.9212 21.9641 28.4215L22.4893 28.2742ZM19.387 30.0092C20.4277 29.0018 21.301 27.9999 22.0258 27.0081L21.5855 26.6863C20.8805 27.6508 20.028 28.6295 19.0076 29.6173L19.387 30.0092ZM18.9245 25.022V29.8133H19.47V25.022H18.9245ZM21.4352 25.0569C20.7377 24.906 19.9942 24.7963 19.2135 24.7498L19.181 25.2943C19.9315 25.339 20.6472 25.4445 21.3199 25.59L21.4352 25.0569ZM21.6401 25.2497C21.5133 24.7987 21.3864 24.3477 21.2594 23.8968L20.7343 24.0448C20.8614 24.4956 20.9882 24.9464 21.115 25.3973L21.6401 25.2497ZM19.1819 24.0334C19.7934 24.068 20.3838 24.1398 20.9496 24.2394L21.0441 23.7022C20.4587 23.5991 19.8469 23.5247 19.2127 23.4888L19.1819 24.0334ZM18.9245 18.8069V23.7611H19.47V18.8069H18.9245ZM24.764 18.5342H19.1973V19.0796H24.764V18.5342ZM24.9894 19.612C25.0137 19.3437 25.029 19.0782 25.0366 18.8148L24.4914 18.799C24.484 19.0518 24.4694 19.3063 24.4461 19.5629L24.9894 19.612ZM24.719 21.3173C24.8506 20.7403 24.9392 20.1714 24.9894 19.6119L24.4461 19.5631C24.3981 20.0985 24.3133 20.6431 24.1872 21.196L24.719 21.3173ZM24.3238 21.4968C24.7013 21.7001 25.0787 21.9035 25.4562 22.1069L25.715 21.6267C25.3375 21.4233 24.96 21.2199 24.5824 21.0166L24.3238 21.4968ZM25.6842 19.677C25.6217 20.3699 25.5038 21.0784 25.3212 21.7999L25.85 21.9337C26.0398 21.1839 26.1624 20.447 26.2274 19.7259L25.6842 19.677ZM25.7344 18.8012C25.7276 19.0903 25.7111 19.3819 25.6842 19.6766L26.2274 19.7262C26.2554 19.4191 26.2726 19.1152 26.2797 18.8139L25.7344 18.8012ZM30.8916 18.5348H26.007V19.0802H30.8916V18.5348ZM29.73 24.0969C30.5626 22.5072 31.0703 20.7184 31.164 18.821L30.6192 18.7941C30.5295 20.6108 30.0435 22.3226 29.2468 23.8438L29.73 24.0969ZM29.359 24.2104L30.36 24.7499L30.6188 24.2698L29.6178 23.7303L29.359 24.2104ZM30.36 24.7499C30.3761 24.7586 30.3921 24.7673 30.4082 24.7759C30.4242 24.7846 30.4403 24.7932 30.4564 24.8019L30.7152 24.3218C30.6991 24.3131 30.6831 24.3044 30.667 24.2958C30.6509 24.2871 30.6349 24.2785 30.6188 24.2698L30.36 24.7499ZM31.8788 18.1812C31.8788 20.4399 31.3238 22.5679 30.3443 24.4351L30.8273 24.6885C31.8469 22.745 32.4242 20.5302 32.4242 18.1812H31.8788ZM27.9319 8.65332C30.3686 11.0844 31.8788 14.456 31.8788 18.1812H32.4242C32.4242 14.3056 30.8525 10.7967 28.3171 8.26718L27.9319 8.65332ZM27.8944 8.61617L27.9325 8.65394L28.3165 8.26656L28.2784 8.22879L27.8944 8.61617ZM25.8769 6.97399C26.6001 7.45377 27.2755 8.00537 27.8948 8.6166L28.278 8.22836C27.6343 7.59317 26.9318 7.0192 26.1784 6.51945L25.8769 6.97399ZM22.0176 5.22662C23.3857 5.59599 24.6931 6.18872 25.8769 6.97399L26.1784 6.51945C24.9461 5.70199 23.585 5.0848 22.1598 4.70002L22.0176 5.22662ZM18.5753 4.77273C19.7371 4.77458 20.8964 4.92457 22.0177 5.22666L22.1596 4.69998C20.991 4.38515 19.7842 4.2292 18.5762 4.22727L18.5753 4.77273ZM9.24105 8.63173C11.644 6.24516 14.9407 4.77273 18.5758 4.77273V4.22727C14.7902 4.22727 11.3571 5.76138 8.85668 8.24471L9.24105 8.63173ZM9.21998 8.65234C9.22829 8.64397 9.23156 8.64074 9.23394 8.63854L8.8638 8.2379C8.85118 8.24955 8.83946 8.26143 8.83278 8.26816L9.21998 8.65234ZM5.27273 18.1812C5.27273 14.4553 6.78293 11.0837 9.219 8.65332L8.83376 8.26718C6.299 10.7961 4.72727 14.305 4.72727 18.1812H5.27273ZM9.219 27.7084C6.78292 25.2779 5.27273 21.907 5.27273 18.1812H4.72727C4.72727 22.0573 6.29901 25.5656 8.83376 28.0945L9.219 27.7084ZM10.6115 27.7609C11.5545 27.1228 12.4873 26.6295 13.4 26.2572L13.194 25.7522C12.2453 26.1391 11.2792 26.6505 10.3058 27.3092L10.6115 27.7609ZM16.8985 30.2199C14.5202 29.8858 12.3632 28.852 10.6391 27.3306L10.2782 27.7395C12.0796 29.3292 14.3349 30.4105 16.8226 30.7601L16.8985 30.2199ZM13.0621 26.1433C13.9429 27.6356 15.1248 29.1546 16.6686 30.6837L17.0524 30.2962C15.5381 28.7962 14.3863 27.3137 13.5319 25.8661L13.0621 26.1433ZM14.5745 25.8388C15.7483 25.4811 16.885 25.3115 17.9624 25.277L17.9449 24.7318C16.8223 24.7678 15.6378 24.9445 14.4155 25.317L14.5745 25.8388ZM18.1433 29.6167C16.6793 28.1992 15.5608 26.8006 14.7278 25.4358L14.2622 25.72C15.1221 27.1288 16.2709 28.563 17.7639 30.0086L18.1433 29.6167ZM17.6809 25.0044V29.8126H18.2264V25.0044H17.6809ZM10.9229 19.7253C11.0752 21.4158 11.5442 23.1905 12.4499 25.0155L12.9385 24.773C12.0628 23.0085 11.6124 21.2995 11.4661 19.6763L10.9229 19.7253ZM10.8706 18.8138C10.8783 19.1154 10.8955 19.419 10.9228 19.7251L11.4661 19.6765C11.4398 19.3821 11.4232 19.0901 11.4159 18.8L10.8706 18.8138ZM6.25863 19.0796H11.1433V18.5342H6.25863V19.0796ZM9.74769 26.4587C7.87195 24.4272 6.67705 21.7484 6.53103 18.7934L5.98624 18.8204C6.13879 21.9074 7.38745 24.7066 9.34695 26.8287L9.74769 26.4587ZM12.5884 24.6429C11.5371 25.0855 10.4678 25.6684 9.3912 26.42L9.70345 26.8673C10.7493 26.1371 11.785 25.573 12.8001 25.1456L12.5884 24.6429ZM17.6809 18.8075V23.7441H18.2264V18.8075H17.6809ZM12.3869 19.0802H17.9536V18.5348H12.3869V19.0802ZM12.7047 19.5636C12.6815 19.3064 12.6662 19.0522 12.6595 18.8003L12.1143 18.8148C12.1213 19.079 12.1373 19.3448 12.1615 19.6127L12.7047 19.5636ZM14.1118 24.3328C13.2751 22.6822 12.8415 21.0846 12.7048 19.5637L12.1615 19.6125C12.3046 21.2039 12.758 22.8684 13.6253 24.5794L14.1118 24.3328ZM17.9459 23.4715C16.6272 23.5087 15.2294 23.7243 13.7838 24.1969L13.9533 24.7153C15.346 24.26 16.6916 24.0526 17.9613 24.0168L17.9459 23.4715ZM27.4026 9.90177C29.279 11.9338 30.4738 14.612 30.6199 17.5676L31.1646 17.5407C31.0121 14.453 29.7634 11.6545 27.8033 9.53173L27.4026 9.90177ZM24.3554 11.7187C25.9546 11.0895 27.1419 10.3598 27.7562 9.94233L27.4497 9.49118C26.8597 9.89208 25.7083 10.6002 24.1557 11.2111L24.3554 11.7187ZM26.2529 17.5359C26.0988 15.2408 25.3999 13.1471 24.4996 11.3431L24.0115 11.5867C24.8876 13.342 25.5604 15.3653 25.7087 17.5724L26.2529 17.5359ZM30.8923 17.2814H25.9808V17.8269H30.8923V17.2814ZM22.8493 12.0001C23.6783 13.632 24.3183 15.516 24.4645 17.5735L25.0085 17.5348C24.8561 15.3885 24.1894 13.4337 23.3356 11.7531L22.8493 12.0001ZM19.212 12.8722C20.6665 12.7902 22.0025 12.5057 23.1744 12.1367L23.0106 11.6165C21.875 11.974 20.5839 12.2485 19.1813 12.3276L19.212 12.8722ZM19.4694 17.5542V12.5999H18.9239V17.5542H19.4694ZM24.7365 17.2814H19.1966V17.8269H24.7365V17.2814ZM17.6809 12.6175V17.5542H18.2264V12.6175H17.6809ZM13.9371 12.2142C15.3274 12.6521 16.673 12.8542 17.9459 12.8902L17.9613 12.3449C16.7357 12.3103 15.4403 12.1158 14.101 11.6939L13.9371 12.2142ZM12.6864 17.5735C12.8301 15.5474 13.453 13.6901 14.2628 12.0764L13.7753 11.8317C12.9411 13.4939 12.2922 15.4213 12.1423 17.5349L12.6864 17.5735ZM17.9536 17.2814H12.4144V17.8269H17.9536V17.2814ZM12.6165 11.4152C11.7332 13.2033 11.0502 15.2716 10.8986 17.5359L11.4429 17.5724C11.5886 15.3949 12.2461 13.3965 13.1055 11.6568L12.6165 11.4152ZM9.3918 9.94099C10.5267 10.7335 11.6532 11.3388 12.7582 11.7886L12.9638 11.2834C11.8976 10.8494 10.8067 10.2637 9.70409 9.49378L9.3918 9.94099ZM6.53165 17.5676C6.67768 14.612 7.87257 11.9338 9.74832 9.9024L9.34758 9.53237C7.38808 11.6545 6.13941 14.453 5.98686 17.5407L6.53165 17.5676ZM11.1707 17.2814H6.25926V17.8269H11.1707V17.2814ZM14.8704 10.964C15.9829 9.08071 17.276 7.6242 18.147 6.74828L17.7602 6.36368C16.8685 7.26046 15.5432 8.75259 14.4008 10.6866L14.8704 10.964ZM17.9622 11.084C16.9272 11.0514 15.8377 10.8936 14.7123 10.5636L14.5588 11.087C15.7309 11.4307 16.8663 11.5952 17.945 11.6292L17.9622 11.084ZM17.6809 6.55598V11.3566H18.2264V6.55598H17.6809ZM19.47 11.3396V6.55598H18.9245V11.3396H19.47ZM22.3981 10.4958C21.4307 10.7816 20.3481 10.9977 19.181 11.0674L19.2135 11.6119C20.4275 11.5393 21.5511 11.3148 22.5526 11.0189L22.3981 10.4958ZM19.0039 6.74829C19.8649 7.6142 21.1372 9.04649 22.2411 10.8971L22.7096 10.6176C21.5761 8.71756 20.2723 7.25032 19.3907 6.36368L19.0039 6.74829ZM10.6391 9.03176C12.3718 7.50291 14.541 6.46607 16.932 6.13749L16.8577 5.59711C14.3566 5.94084 12.0885 7.02545 10.2782 8.62276L10.6391 9.03176ZM13.5562 10.1674C12.5934 9.78841 11.6079 9.27601 10.6116 8.60142L10.3058 9.05309C11.3345 9.74958 12.3553 10.2809 13.3564 10.675L13.5562 10.1674ZM16.6983 5.67827C15.7292 6.6861 14.3778 8.27062 13.2198 10.2853L13.6927 10.5571C14.8222 8.59197 16.1429 7.04278 17.0915 6.05633L16.6983 5.67827ZM23.8943 10.2208C22.7447 8.2375 21.4116 6.67593 20.4526 5.6783L20.0594 6.0563C20.9981 7.03281 22.3009 8.55962 23.4224 10.4944L23.8943 10.2208ZM26.5409 8.5962C25.942 8.98622 24.9094 9.58816 23.5611 10.1028L23.7556 10.6124C25.1483 10.0808 26.2157 9.45896 26.8386 9.05327L26.5409 8.5962ZM20.2189 6.13748C22.6086 6.46607 24.7767 7.50169 26.5094 9.02931L26.8701 8.62017C25.0599 7.02416 22.793 5.94084 20.2932 5.59711L20.2189 6.13748Z" fill="#FF9402" mask="url(#path-1-outside-1_22586_87837)"/>
<path d="M22.4213 22.0297C22.6224 22.0354 22.8057 22.1566 22.9733 22.2451C23.5113 22.5283 24.0386 22.8288 24.5735 23.1166C25.281 23.4975 25.9879 23.8784 26.6954 24.2599C27.4029 24.6414 28.1097 25.0223 28.8166 25.4031C29.5234 25.784 30.2309 26.1655 30.9378 26.5464C31.5176 26.8589 32.0974 27.1715 32.6778 27.484C32.8466 27.5748 32.9863 27.6833 32.999 27.8752C33.0141 28.0935 32.8624 28.2607 32.6 28.3222C31.6763 28.5371 30.7526 28.7508 29.8288 28.9645C29.7776 28.9765 29.7264 28.988 29.6606 29.0035C29.6992 29.0541 29.7296 29.0972 29.7631 29.1368C30.6457 30.1836 31.529 31.2303 32.4122 32.2771C32.6038 32.5046 32.5867 32.6275 32.3351 32.8039C31.8173 33.1664 31.2988 33.5278 30.7797 33.8891C30.5395 34.0563 30.3966 34.0373 30.2101 33.8162C29.2977 32.7344 28.386 31.6532 27.4737 30.5714C27.4395 30.5306 27.4029 30.4909 27.3542 30.4364C27.26 30.5593 27.1721 30.6725 27.0855 30.7862C26.6068 31.4159 26.127 32.0455 25.6509 32.6769C25.568 32.7866 25.4694 32.8699 25.3246 32.8975C25.0932 32.9418 24.8656 32.8171 24.7942 32.6097C24.7771 32.5597 24.7638 32.5086 24.7499 32.4575C23.8376 29.2063 22.9277 25.9541 22.0078 22.7047C21.9692 22.5686 21.9471 22.4192 22.0053 22.2853C22.0717 22.1331 22.2228 22.0308 22.4049 22.0302C22.4106 22.0291 22.4162 22.0291 22.4213 22.0297Z" fill="#FF9402"/>
</svg>
