<svg width="20" height="20" viewBox="0 0 20 20" fill="none" xmlns="http://www.w3.org/2000/svg">
<path d="M7.36264 12.6376C7.2302 10.8715 7.23171 9.12956 7.36114 7.3665C9.11449 7.231 10.8588 7.23401 12.6317 7.36349C12.7702 9.11752 12.7642 10.8685 12.6347 12.6361C10.8739 12.7701 9.12954 12.7701 7.36264 12.6376Z" fill="#12539F"/>
<path d="M14.5225 12.4416C14.5225 10.8095 14.5225 9.19702 14.5225 7.54688C14.968 7.61162 15.4315 7.66582 15.889 7.75013C17.23 7.99404 18.5213 8.40356 19.7675 8.95762C19.9345 9.0314 20.0053 9.12173 20.0008 9.30692C19.9902 9.79775 20.0008 10.2886 19.9872 10.7779C19.9857 10.8562 19.9195 10.9736 19.8518 11.0037C18.2007 11.7701 16.467 12.2459 14.6564 12.4416C14.6098 12.4461 14.5601 12.4416 14.5225 12.4416Z" fill="#12539F"/>
<path d="M12.4302 5.47741C10.8093 5.47741 9.19742 5.47741 7.55093 5.47741C7.58404 5.20188 7.61263 4.90227 7.65778 4.60416C7.89558 3.07898 8.32902 1.61102 8.96565 0.203284C9.03036 0.058746 9.11013 -0.0014781 9.26816 2.75007e-05C9.77234 0.00755551 10.278 -0.0014781 10.7822 0.0120723C10.859 0.0135779 10.9703 0.0873524 11.0019 0.15661C11.7605 1.79621 12.2315 3.51561 12.4317 5.31029C12.4377 5.35997 12.4362 5.40966 12.4362 5.45934C12.4362 5.47139 12.4272 5.48343 12.4302 5.47741Z" fill="#12539F"/>
<path d="M12.4954 14.5249C12.3313 15.3606 12.1898 16.1947 12.0017 17.0167C11.7805 17.9818 11.4313 18.9062 11.0265 19.8096C10.9708 19.9346 10.9076 20.0023 10.7601 19.9993C10.2484 19.9918 9.73666 20.0008 9.22495 19.9903C9.1512 19.9888 9.03983 19.9331 9.01124 19.8713C8.23163 18.2016 7.75003 16.4476 7.5619 14.6138C7.55889 14.5791 7.5619 14.5445 7.5619 14.5234C9.18582 14.5249 10.8022 14.5249 12.4954 14.5249Z" fill="#12539F"/>
<path d="M5.47434 12.4718C4.9536 12.3905 4.41781 12.3228 3.89105 12.2204C2.60877 11.972 1.37616 11.5685 0.185689 11.0325C0.0577621 10.9753 -0.00243881 10.9075 -0.000933784 10.763C0.00659133 10.2511 -0.00394383 9.73916 0.00960137 9.22725C0.0111064 9.15046 0.0833474 9.03905 0.151073 9.00743C1.79004 8.2471 3.50878 7.77585 5.30427 7.5741C5.36597 7.56657 5.42919 7.57259 5.47434 7.57259C5.47434 9.19864 5.47434 10.8172 5.47434 12.4718Z" fill="#12539F"/>
<path d="M6.83763 19.4846C4.60568 19.2181 0.799481 15.4119 0.519547 13.1641C0.862692 13.2725 1.19831 13.3794 1.53393 13.4817C2.81471 13.8732 4.12257 14.1397 5.45451 14.2842C5.59749 14.2993 5.69983 14.3204 5.7194 14.5056C5.88646 16.1527 6.2582 17.7561 6.79398 19.322C6.81204 19.3747 6.82258 19.4274 6.83763 19.4846Z" fill="#12539F"/>
<path d="M13.1475 19.5087C13.2468 19.194 13.3371 18.914 13.4259 18.6309C13.8443 17.2909 14.1303 15.9223 14.2793 14.5251C14.2928 14.3956 14.3169 14.3053 14.4809 14.2887C16.1635 14.1171 17.801 13.7377 19.3978 13.1821C19.4174 13.1746 19.44 13.1746 19.5062 13.1641C19.1631 14.2105 18.6634 15.1439 18.0237 16.0066C16.7716 17.6914 14.946 18.9531 13.1475 19.5087Z" fill="#12539F"/>
<path d="M0.519547 6.84094C0.797976 4.5976 4.60267 0.79294 6.84214 0.523438C6.75034 0.812513 6.65853 1.09406 6.57124 1.37561C6.15284 2.7171 5.86538 4.08419 5.7194 5.48139C5.70435 5.62893 5.66221 5.70572 5.49665 5.72228C3.84264 5.89392 2.23226 6.2643 0.661019 6.80632C0.617373 6.81987 0.570717 6.8289 0.519547 6.84094Z" fill="#12539F"/>
<path d="M13.1563 0.515625C15.9556 1.35123 18.5774 3.87011 19.4939 6.85572C19.3976 6.8256 19.3208 6.80302 19.2456 6.77743C17.712 6.25799 16.1437 5.89665 14.5319 5.72651C14.3979 5.71296 14.2956 5.69791 14.2775 5.51724C14.1074 3.84301 13.7297 2.21093 13.1773 0.621017C13.1698 0.595422 13.1668 0.566815 13.1563 0.515625Z" fill="#12539F"/>
</svg>
