<svg width="326" height="321" viewBox="0 0 326 321" fill="none" xmlns="http://www.w3.org/2000/svg">
<mask id="mask0" mask-type="alpha" maskUnits="userSpaceOnUse" x="0" y="0" width="300" height="321">
<path d="M2.2779 125.13C2.2779 125.13 -10.795 181.164 25.6948 229.992C62.1847 278.819 125.891 297.808 177.071 314.516C228.252 331.225 276.189 311.926 294.172 268.916C312.156 225.906 275.829 202.735 267.822 146.562C259.815 90.3889 266.188 74.2111 228.848 31.4381C191.509 -11.335 114.828 -10.3136 62.9854 33.5951C11.143 77.5039 2.2779 125.13 2.2779 125.13Z" fill="#0F50A4"/>
<path opacity="0.7" d="M2.2779 125.13C2.2779 125.13 -10.795 181.164 25.6948 229.992C62.1847 278.819 125.891 297.808 177.071 314.516C228.252 331.225 276.189 311.926 294.172 268.916C312.156 225.906 275.829 202.735 267.822 146.562C259.815 90.3889 266.188 74.2111 228.848 31.4381C191.509 -11.335 114.828 -10.3136 62.9854 33.5951C11.143 77.5039 2.2779 125.13 2.2779 125.13Z" fill="white"/>
</mask>
<g mask="url(#mask0)">
<rect x="-15" y="-5" width="342" height="280" fill="#0F50A4"/>
</g>
<g opacity="0.7">
<mask id="mask1" mask-type="alpha" maskUnits="userSpaceOnUse" x="0" y="0" width="300" height="321">
<path d="M2.2779 125.13C2.2779 125.13 -10.795 181.164 25.6948 229.992C62.1847 278.819 125.891 297.808 177.071 314.516C228.252 331.225 276.189 311.926 294.172 268.916C312.156 225.906 275.829 202.735 267.822 146.562C259.815 90.3889 266.188 74.2111 228.848 31.4381C191.509 -11.335 114.828 -10.3136 62.9854 33.5951C11.143 77.5039 2.2779 125.13 2.2779 125.13Z" fill="#0F50A4"/>
<path opacity="0.7" d="M2.2779 125.13C2.2779 125.13 -10.795 181.164 25.6948 229.992C62.1847 278.819 125.891 297.808 177.071 314.516C228.252 331.225 276.189 311.926 294.172 268.916C312.156 225.906 275.829 202.735 267.822 146.562C259.815 90.3889 266.188 74.2111 228.848 31.4381C191.509 -11.335 114.828 -10.3136 62.9854 33.5951C11.143 77.5039 2.2779 125.13 2.2779 125.13Z" fill="white"/>
</mask>
<g mask="url(#mask1)">
<rect x="-15" y="-5" width="342" height="280" fill="white"/>
</g>
</g>
<path d="M149.51 123.194L149.502 122.85L149.177 122.734L148.302 122.423L148.48 120.914L149.406 120.829L149.75 120.797L149.842 120.464C150.042 119.739 150.325 119.04 150.688 118.382L150.854 118.079L150.63 117.816L150.027 117.108L150.938 115.888L151.8 116.278L152.113 116.419L152.357 116.179C152.892 115.652 153.487 115.189 154.128 114.799L154.422 114.62L154.361 114.282L154.193 113.363L155.604 112.762L156.158 113.508L156.36 113.779L156.686 113.693C157.413 113.502 158.16 113.398 158.911 113.381L159.256 113.374L159.371 113.048L159.682 112.169L161.196 112.352L161.293 113.289L161.329 113.63L161.659 113.72C162.38 113.916 163.074 114.198 163.728 114.559L164.031 114.726L164.294 114.502L165.006 113.895L166.265 114.809L165.877 115.666L165.735 115.981L165.979 116.225C166.508 116.757 166.975 117.348 167.369 117.986L167.549 118.277L167.885 118.215L168.799 118.048L169.4 119.451L168.617 120.007L168.335 120.207L168.423 120.541C168.614 121.268 168.718 122.015 168.735 122.766L168.742 123.111L169.067 123.226L169.942 123.537L169.763 125.053L168.825 125.154L168.487 125.191L168.397 125.519C168.198 126.242 167.915 126.938 167.552 127.594L167.385 127.896L167.608 128.159L168.212 128.873L167.302 130.089L166.439 129.699L166.127 129.558L165.882 129.798C165.346 130.325 164.752 130.788 164.11 131.178L163.819 131.356L163.878 131.692L164.043 132.636L162.638 133.24L162.084 132.479L161.883 132.202L161.552 132.289C160.826 132.481 160.079 132.585 159.329 132.601L158.983 132.608L158.868 132.934L158.557 133.813L157.043 133.631L156.945 132.693L156.91 132.352L156.579 132.263C155.855 132.066 155.157 131.782 154.5 131.418L154.196 131.25L153.933 131.476L153.228 132.079L151.967 131.153L152.356 130.294L152.497 129.982L152.257 129.737C151.73 129.202 151.267 128.607 150.877 127.965L150.696 127.669L150.356 127.734L149.44 127.909L148.844 126.51L149.627 125.953L149.909 125.753L149.821 125.419C149.631 124.692 149.526 123.945 149.51 123.194ZM152.888 122.24L152.888 122.24C152.693 123.892 153.16 125.553 154.188 126.86C155.217 128.167 156.722 129.013 158.373 129.211L158.374 129.211C159.605 129.358 160.852 129.136 161.958 128.573C163.063 128.011 163.977 127.134 164.583 126.053C165.19 124.971 165.463 123.734 165.366 122.498C165.27 121.261 164.81 120.081 164.043 119.107C163.276 118.132 162.237 117.407 161.058 117.023C159.879 116.638 158.613 116.612 157.419 116.947C156.225 117.283 155.158 117.964 154.351 118.906C153.545 119.848 153.036 121.008 152.888 122.24Z" fill="#263238" stroke="black"/>
<path d="M85.9699 35.0468C85.5204 33.8591 84.8388 32.7728 83.965 31.8513C83.0911 30.9298 82.0424 30.1917 80.8802 29.6799C79.7179 29.1682 78.4654 28.893 77.1956 28.8706C75.9259 28.8482 74.6644 29.079 73.4848 29.5494C72.3052 30.0198 71.2312 30.7205 70.3253 31.6106C69.4195 32.5007 68.7 33.5622 68.209 34.7334C67.7179 35.9045 67.465 37.1618 67.4651 38.4317C67.4652 39.7016 67.7183 40.9588 68.2095 42.1299C69.6286 45.6869 73.4211 46.9635 76.3337 49.0642C77.2384 49.7211 78.4778 53.0055 78.4778 53.0055L86.038 50.0062C86.038 50.0062 84.6747 46.7714 84.8854 45.6683C85.5175 42.1485 87.3889 38.6101 85.9699 35.0468Z" stroke="#263238" stroke-linecap="round" stroke-linejoin="round"/>
<path d="M78.681 53.5068L86.2158 50.5022L86.2938 50.6979C86.3972 50.9572 86.4482 51.2343 86.4439 51.5133C86.4396 51.7924 86.38 52.0678 86.2687 52.3237C86.1574 52.5796 85.9965 52.8109 85.7952 53.0043C85.594 53.1977 85.3565 53.3493 85.0964 53.4504L81.4873 54.8895C80.9667 55.0971 80.385 55.0894 79.8701 54.8681C79.3552 54.6468 78.9493 54.23 78.7417 53.7094L78.6637 53.5137L78.681 53.5068Z" stroke="#263238" stroke-linecap="round" stroke-linejoin="round"/>
<path opacity="0.5" d="M78.681 53.5068L86.2158 50.5022L86.2938 50.6979C86.3972 50.9572 86.4482 51.2343 86.4439 51.5133C86.4396 51.7924 86.38 52.0678 86.2687 52.3237C86.1574 52.5796 85.9965 52.8109 85.7952 53.0043C85.594 53.1977 85.3565 53.3493 85.0964 53.4504L81.4873 54.8895C80.9667 55.0971 80.385 55.0894 79.8701 54.8681C79.3552 54.6468 78.9493 54.23 78.7417 53.7094L78.6637 53.5137L78.681 53.5068Z" stroke="#263238" stroke-linecap="round" stroke-linejoin="round"/>
<path d="M81.7463 55.3809L85.2693 53.9767L85.3336 54.1379C85.5027 54.5624 85.4964 55.0366 85.3159 55.4563C85.1354 55.8761 84.7955 56.2069 84.3711 56.3761L84.0545 56.5023C83.63 56.6714 83.1558 56.665 82.7361 56.4845C82.3163 56.304 81.9855 55.9642 81.8163 55.5397L81.7521 55.3786L81.7463 55.3809Z" stroke="#263238" stroke-linecap="round" stroke-linejoin="round"/>
<path opacity="0.2" d="M81.7463 55.3809L85.2693 53.9767L85.3336 54.1379C85.5027 54.5624 85.4964 55.0366 85.3159 55.4563C85.1354 55.8761 84.7955 56.2069 84.3711 56.3761L84.0545 56.5023C83.63 56.6714 83.1558 56.665 82.7361 56.4845C82.3163 56.304 81.9855 55.9642 81.8163 55.5397L81.7521 55.3786L81.7463 55.3809Z" stroke="#263238" stroke-linecap="round" stroke-linejoin="round"/>
<path d="M71.8595 18.3027L74.047 26.4826" stroke="#263238" stroke-linecap="round" stroke-linejoin="round"/>
<path d="M70.9733 15L71.4194 16.667" stroke="#263238" stroke-linecap="round" stroke-linejoin="round"/>
<path d="M62.372 42.1543L54 44.3976" stroke="#263238" stroke-linecap="round" stroke-linejoin="round"/>
<path d="M65.4828 41.3242L64.0637 41.7022" stroke="#263238" stroke-linecap="round" stroke-linejoin="round"/>
<path d="M97.651 32.6992L88.8885 35.0478" stroke="#263238" stroke-linecap="round" stroke-linejoin="round"/>
<path d="M100.365 31.9746L99.1196 32.3092" stroke="#263238" stroke-linecap="round" stroke-linejoin="round"/>
<path d="M71.1283 48.6816L65.1854 58.9747" stroke="#263238" stroke-linecap="round" stroke-linejoin="round"/>
<path d="M89.186 17.3984L83.2432 27.6915" stroke="#263238" stroke-linecap="round" stroke-linejoin="round"/>
<path d="M66.6851 32.1303L56.3982 26.1875" stroke="#263238" stroke-linecap="round" stroke-linejoin="round"/>
<path d="M89.2418 45.1489L87.6802 44.2441" stroke="#263238" stroke-linecap="round" stroke-linejoin="round"/>
<path d="M97.9733 50.1866L90.6671 45.9727" stroke="#263238" stroke-linecap="round" stroke-linejoin="round"/>
<path d="M192.625 220.484L125.874 220.427C122.019 220.425 118.323 218.891 115.598 216.165C112.873 213.438 111.343 209.741 111.343 205.886L111.379 38.5364C111.379 36.6265 111.755 34.7355 112.486 32.9712C113.217 31.2069 114.289 29.6039 115.64 28.254C116.991 26.904 118.594 25.8335 120.359 25.1036C122.124 24.3737 124.015 23.9987 125.925 24L192.676 24.0409C194.585 24.0416 196.475 24.4182 198.238 25.1494C200.002 25.8805 201.604 26.9518 202.953 28.3021C204.302 29.6524 205.373 31.2553 206.102 33.0192C206.832 34.783 207.208 36.6734 207.207 38.5824L207.176 205.932C207.178 207.843 206.802 209.736 206.071 211.502C205.341 213.268 204.269 214.873 202.917 216.224C201.566 217.576 199.961 218.648 198.195 219.379C196.429 220.109 194.536 220.485 192.625 220.484Z" fill="black"/>
<path d="M193.471 27.0106H180.087C179.651 27.0203 179.221 27.1162 178.821 27.293C178.422 27.4697 178.061 27.7237 177.76 28.0406C177.458 28.3575 177.222 28.731 177.064 29.1397C176.906 29.5484 176.83 29.9844 176.84 30.4228V32.8623C176.85 33.3006 176.773 33.7366 176.616 34.1454C176.458 34.5541 176.221 34.9276 175.92 35.2445C175.618 35.5613 175.257 35.8154 174.858 35.9921C174.459 36.1688 174.029 36.2648 173.593 36.2744H147.501C146.619 36.2521 145.783 35.8802 145.173 35.2399C144.564 34.5995 144.231 33.7429 144.249 32.857V30.4175C144.259 29.9787 144.183 29.5421 144.026 29.1327C143.868 28.7234 143.632 28.3493 143.33 28.0319C143.029 27.7144 142.668 27.4599 142.268 27.2828C141.869 27.1058 141.438 27.0097 141.002 27H124.571C123.188 26.9993 121.818 27.2725 120.54 27.804C119.262 28.3354 118.101 29.1148 117.123 30.0975C116.144 31.0802 115.368 32.2469 114.839 33.5311C114.31 34.8153 114.037 36.1918 114.037 37.5819L114 207.37C113.999 208.76 114.271 210.137 114.8 211.421C115.329 212.706 116.104 213.873 117.082 214.856C118.06 215.839 119.221 216.619 120.498 217.151C121.776 217.684 123.146 217.957 124.529 217.957L193.429 218C194.812 218.001 196.182 217.728 197.46 217.196C198.739 216.665 199.9 215.885 200.879 214.903C201.858 213.92 202.634 212.754 203.164 211.469C203.694 210.185 203.968 208.808 203.968 207.418L204 37.6244C204.003 36.2325 203.733 34.8537 203.205 33.5667C202.677 32.2798 201.902 31.1101 200.924 30.1244C199.946 29.1387 198.785 28.3563 197.506 27.822C196.227 27.2877 194.856 27.012 193.471 27.0106Z" fill="#CFDCED"/>
<path d="M154.374 199.975C154.377 200.229 154.305 200.479 154.166 200.692C154.027 200.905 153.828 201.072 153.594 201.171C153.36 201.271 153.101 201.299 152.852 201.251C152.602 201.204 152.372 201.083 152.191 200.905C152.009 200.727 151.885 200.499 151.834 200.25C151.782 200.001 151.806 199.742 151.902 199.506C151.998 199.271 152.162 199.069 152.372 198.927C152.583 198.785 152.831 198.708 153.086 198.707C153.253 198.706 153.42 198.737 153.575 198.8C153.731 198.863 153.873 198.956 153.992 199.074C154.112 199.192 154.207 199.332 154.273 199.487C154.338 199.641 154.373 199.807 154.374 199.975Z" fill="#263238"/>
<path d="M161.532 199.918C161.534 200.171 161.461 200.419 161.322 200.63C161.184 200.842 160.985 201.007 160.753 201.106C160.52 201.204 160.263 201.232 160.015 201.184C159.766 201.137 159.538 201.017 159.357 200.84C159.177 200.662 159.054 200.436 159.002 200.188C158.951 199.94 158.974 199.683 159.069 199.449C159.164 199.215 159.326 199.014 159.535 198.872C159.744 198.729 159.991 198.652 160.244 198.65C160.582 198.65 160.907 198.783 161.148 199.021C161.389 199.258 161.527 199.58 161.532 199.918Z" fill="#263238"/>
<path d="M168.336 200.756C168.83 200.251 168.82 199.441 168.315 198.948C167.81 198.455 167 198.465 166.507 198.97C166.014 199.475 166.024 200.285 166.529 200.778C167.034 201.271 167.843 201.261 168.336 200.756Z" fill="#263238"/>
<rect x="119.987" y="42.25" width="77.3201" height="65.9318" rx="6.75" fill="white" stroke="#ED1E26" stroke-width="0.5"/>
<path d="M170.559 49.4004H154.882V53.0158H170.559V49.4004Z" fill="#0F50A4"/>
<path d="M165.185 54.627H154.882V58.2423H165.185V54.627Z" fill="#0F50A4"/>
<path d="M160.813 59.8516H154.882V63.4669H160.813V59.8516Z" fill="#0F50A4"/>
<path opacity="0.2" d="M170.559 49.4004H154.882V53.0158H170.559V49.4004Z" fill="black"/>
<path opacity="0.2" d="M165.185 54.627H154.882V58.2423H165.185V54.627Z" fill="black"/>
<path opacity="0.2" d="M160.813 59.8516H154.882V63.4669H160.813V59.8516Z" fill="black"/>
<path d="M132.976 89.4473H127.66V100.339H132.976V89.4473Z" fill="#0F50A4"/>
<path d="M140.653 93.1895H135.337V100.343H140.653V93.1895Z" fill="#0F50A4"/>
<path d="M148.337 96.2188H143.02V100.339H148.337V96.2188Z" fill="#0F50A4"/>
<path d="M190.014 89.7461H167.06V90.3346H190.014V89.7461Z" fill="#263238"/>
<path d="M190.014 92.2109H167.06V92.7995H190.014V92.2109Z" fill="#263238"/>
<path d="M190.014 94.666H167.06V95.2546H190.014V94.666Z" fill="#263238"/>
<path d="M190.014 97.1211H167.06V97.7096H190.014V97.1211Z" fill="#263238"/>
<path d="M190.014 99.5781H167.06V100.167H190.014V99.5781Z" fill="#263238"/>
<path d="M149.908 49.6445H126.955V50.2331H149.908V49.6445Z" fill="#263238"/>
<path d="M149.908 52.1035H126.955V52.6921H149.908V52.1035Z" fill="#263238"/>
<path d="M149.908 54.5605H126.955V55.1491H149.908V54.5605Z" fill="#ED1E26"/>
<path d="M149.908 57.0176H126.955V57.6061H149.908V57.0176Z" fill="#263238"/>
<path d="M149.908 59.4766H126.955V60.0651H149.908V59.4766Z" fill="#ED1E26"/>
<path d="M185.48 69.5032L189.593 71.6634L189.121 60.0605L179.31 66.2694L183.423 68.4231L180.325 74.315C179.779 74.3144 179.249 74.4965 178.818 74.8324L173.353 72.3036V72.2713C173.377 71.612 173.14 70.9699 172.693 70.4841C172.247 69.9982 171.627 69.7077 170.968 69.6754C170.309 69.6431 169.664 69.8716 169.172 70.3114C168.681 70.7513 168.382 71.3671 168.341 72.0255C168.334 72.1073 168.334 72.1895 168.341 72.2713C168.344 72.6302 168.421 72.9847 168.567 73.3126L161.453 81.0736C161.225 81.002 160.987 80.9649 160.748 80.9637C160.624 80.9638 160.501 80.9768 160.379 81.0025L150.135 67.9962C150.369 67.3949 150.362 66.7263 150.115 66.1301C149.867 65.534 149.4 65.0563 148.809 64.7967C148.218 64.5372 147.55 64.5159 146.944 64.7373C146.337 64.9587 145.84 65.4056 145.556 65.9848C145.414 66.2977 145.341 66.6374 145.342 66.9808C145.35 67.2378 145.394 67.4925 145.472 67.7375L133.798 79.7025C133.333 79.535 132.83 79.5085 132.35 79.6265C131.871 79.7444 131.437 80.0015 131.104 80.3653C130.77 80.7292 130.551 81.1836 130.475 81.6714C130.399 82.1591 130.469 82.6585 130.676 83.1067C130.883 83.5548 131.218 83.9318 131.639 84.19C132.06 84.4483 132.547 84.5764 133.041 84.5582C133.534 84.54 134.011 84.3763 134.411 84.0877C134.812 83.7991 135.118 83.3985 135.292 82.9363C135.39 82.6601 135.44 82.3692 135.44 82.0761C135.441 81.8705 135.413 81.6658 135.356 81.4682L147.16 69.3544C147.391 69.4313 147.634 69.4706 147.878 69.4708C148.032 69.4718 148.186 69.4566 148.337 69.4256L158.523 82.3607C158.203 82.9508 158.131 83.6437 158.322 84.2872C158.513 84.9306 158.952 85.4718 159.542 85.7917C160.132 86.1116 160.825 86.184 161.468 85.993C162.112 85.802 162.653 85.3631 162.973 84.7731C163.154 84.4449 163.257 84.0801 163.277 83.7059C163.283 83.622 163.283 83.5377 163.277 83.4537C163.273 83.1921 163.229 82.9326 163.147 82.6841L170.43 74.7548C170.569 74.7806 170.709 74.7936 170.85 74.7936C171.348 74.7934 171.834 74.6448 172.247 74.3668L177.809 76.9538C177.82 77.286 177.896 77.6128 178.034 77.9152C178.171 78.2176 178.368 78.4895 178.612 78.7151C178.856 78.9407 179.143 79.1155 179.455 79.2292C179.767 79.3429 180.099 79.3932 180.431 79.3773C180.763 79.3614 181.088 79.2796 181.388 79.1366C181.688 78.9936 181.957 78.7923 182.178 78.5444C182.399 78.2966 182.569 78.0071 182.677 77.6929C182.786 77.3787 182.83 77.0461 182.809 76.7145C182.784 76.25 182.63 75.8017 182.363 75.421L185.48 69.5032Z" fill="#0F50A4"/>
<path opacity="0.2" d="M132.976 89.4473H127.66V100.339H132.976V89.4473Z" fill="#ED1E26"/>
<path opacity="0.2" d="M140.653 93.1895H135.337V100.343H140.653V93.1895Z" fill="#ED1E26"/>
<path opacity="0.2" d="M148.337 96.2188H143.02V100.339H148.337V96.2188Z" fill="#ED1E26"/>
<path d="M130.493 117.617C129.58 117.619 128.705 117.982 128.059 118.628C127.414 119.273 127.05 120.148 127.049 121.061V152.543C127.05 153.457 127.413 154.333 128.059 154.979C128.704 155.625 129.579 155.99 130.493 155.993H188.923C189.837 155.99 190.713 155.626 191.359 154.979C192.006 154.333 192.37 153.457 192.373 152.543V121.051C192.371 120.136 192.007 119.26 191.361 118.613C190.714 117.967 189.838 117.603 188.923 117.602L130.493 117.617Z" fill="white" stroke="#0A0B09" stroke-width="0.5" stroke-linejoin="round"/>
<path d="M135.582 122.07V154.161" stroke="#263238" stroke-width="0.879169" stroke-linecap="round" stroke-linejoin="round"/>
<path d="M144.634 141.678H141.909V152.549H144.634V141.678Z" fill="#0F50A4"/>
<path d="M149.21 128.242H146.485V152.556H149.21V128.242Z" fill="white" stroke="#263238" stroke-width="0.879169" stroke-linejoin="round"/>
<path d="M156.806 124.729H154.082V152.544H156.806V124.729Z" fill="#0F50A4"/>
<path d="M160.705 145.67H157.981V152.553H160.705V145.67Z" fill="#0F50A4"/>
<path d="M165.281 136.129H162.557V152.555H165.281V136.129Z" fill="white" stroke="#263238" stroke-width="0.879169" stroke-linejoin="round"/>
<path d="M176.38 138.643H173.656V152.551H176.38V138.643Z" fill="#263238"/>
<path d="M180.279 127.846H177.555V152.546H180.279V127.846Z" fill="#0F50A4"/>
<path d="M184.855 133.303H182.131V152.549H184.855V133.303Z" fill="white" stroke="#263238" stroke-width="0.879169" stroke-linejoin="round"/>
<path d="M132.657 148.301H134.18" stroke="#263238" stroke-width="0.879169" stroke-linecap="round" stroke-linejoin="round"/>
<path d="M132.657 144.342H134.18" stroke="#263238" stroke-width="0.879169" stroke-linecap="round" stroke-linejoin="round"/>
<path d="M132.657 140.379H134.18" stroke="#263238" stroke-width="0.879169" stroke-linecap="round" stroke-linejoin="round"/>
<path d="M132.657 136.416H134.18" stroke="#263238" stroke-width="0.879169" stroke-linecap="round" stroke-linejoin="round"/>
<path d="M132.657 132.457H134.18" stroke="#263238" stroke-width="0.879169" stroke-linecap="round" stroke-linejoin="round"/>
<path d="M132.657 128.49H134.18" stroke="#263238" stroke-width="0.879169" stroke-linecap="round" stroke-linejoin="round"/>
<path d="M132.657 124.531H134.18" stroke="#263238" stroke-width="0.879169" stroke-linecap="round" stroke-linejoin="round"/>
<path d="M133.778 152.551H186.765" stroke="#263238" stroke-width="0.879169" stroke-linecap="round" stroke-linejoin="round"/>
<path opacity="0.3" d="M144.634 141.678H141.909V152.549H144.634V141.678Z" fill="#ED1E26"/>
<path opacity="0.3" d="M160.705 145.67H157.981V152.553H160.705V145.67Z" fill="black"/>
<path d="M180.279 127.846H177.555V152.546H180.279V127.846Z" fill="#ED1E26"/>
<path d="M292.529 274.734H47.2971C32.496 277.001 20.6231 279.937 24.3506 283.279C33.07 291.105 95.864 281.964 94.0184 291.025C92.1728 300.086 139.265 297.841 164.885 297.841C190.505 297.841 218.473 295.436 209.47 288.482C200.467 281.528 260.231 286.607 285.917 286.607C304.664 286.607 317.51 281.376 292.529 274.734Z" fill="#0F50A4"/>
<path d="M2 274.734H325.241" stroke="#263238" stroke-width="0.75" stroke-linecap="round" stroke-linejoin="round"/>
<path d="M258.756 169.656L271.835 219.066C271.835 219.066 272.017 224.516 274.56 228.694L278.128 270.314C278.128 270.314 280.853 274.492 290.662 270.314C290.662 270.314 291.091 240.523 287.457 221.972L284.369 186.674C285.065 181.128 284.881 175.508 283.824 170.02L258.756 169.656Z" fill="#263238"/>
<path opacity="0.5" d="M280.184 174.416C278.404 175.041 276.449 175.419 274.713 175.869C274.605 175.9 274.496 175.925 274.386 175.942C272.889 179.575 271.392 183.208 269.714 186.798C267.737 191.012 265.209 196.316 265.121 201.33C265.787 201.408 266.41 201.7 266.895 202.163C267.38 202.625 267.701 203.233 267.81 203.895C267.991 205.069 268.234 206.233 268.536 207.382C268.972 208.727 269.503 209.984 269.837 211.379C269.924 211.742 270.012 212.105 270.091 212.462C269.903 204.585 269.423 196.919 274.705 190.024C278.549 185.054 279.806 178.827 280.184 174.416Z" fill="black"/>
<path d="M258.756 169.656L271.835 219.066C271.835 219.066 272.017 224.516 274.56 228.694L278.128 270.314C278.128 270.314 280.853 274.492 290.662 270.314C290.662 270.314 291.091 240.523 287.457 221.972L284.369 186.674C285.065 181.128 284.881 175.508 283.824 170.02L258.756 169.656Z" stroke="#263238" stroke-width="0.75" stroke-linecap="round" stroke-linejoin="round"/>
<path d="M278.883 270.291C278.883 270.291 272.584 273.197 270.324 273.197C268.776 273.197 265.884 271.635 264.511 275.261C264.511 275.261 262.869 278.465 272.823 279.621C279.152 280.246 285.524 280.292 291.861 279.759C292.054 279.744 292.243 279.688 292.413 279.595C292.584 279.503 292.733 279.375 292.851 279.221C292.969 279.066 293.053 278.889 293.098 278.7C293.143 278.511 293.147 278.315 293.111 278.124L292.987 277.477C292.987 277.477 292.74 272.711 289.775 270.32L278.883 270.291Z" fill="#0F50A4" stroke="#263238" stroke-linecap="round" stroke-linejoin="round"/>
<path d="M271.014 277.783C264.54 276.518 264.707 274.738 264.707 274.738C264.627 274.898 264.555 275.058 264.482 275.24C264.482 275.24 262.84 278.444 272.794 279.599C279.123 280.224 285.495 280.271 291.832 279.737C292.025 279.722 292.214 279.667 292.384 279.574C292.555 279.481 292.704 279.354 292.822 279.199C292.94 279.045 293.024 278.868 293.069 278.679C293.113 278.49 293.118 278.293 293.081 278.102L293.031 277.863L287.123 278.393C287.123 278.393 277.481 279.04 271.014 277.783Z" fill="white" stroke="#263238" stroke-width="0.75" stroke-linecap="round" stroke-linejoin="round"/>
<path d="M278.745 220.439C279.65 221.41 280.771 222.152 282.018 222.605C283.264 223.059 284.601 223.21 285.917 223.048" stroke="#7F7F7F" stroke-width="0.75" stroke-linecap="round" stroke-linejoin="round"/>
<path d="M246.229 167.637C246.229 167.637 242.96 176.174 248.954 212.687C248.954 212.687 247.864 216.138 250.044 223.041L252.951 246.474V269.726C252.951 269.726 254.949 274.631 266.756 269.726C266.756 269.726 267.12 228.491 265.848 219.771L268.631 193.163C268.767 191.924 269.16 190.728 269.786 189.651C270.412 188.573 271.256 187.639 272.264 186.907C274.858 184.996 278.186 180.992 278.731 172.876L246.229 167.637Z" fill="#263238" stroke="#263238" stroke-width="0.75" stroke-linecap="round" stroke-linejoin="round"/>
<path d="M253.764 269.274C253.764 269.274 246.811 272.471 244.318 272.45C242.611 272.45 239.414 270.728 237.873 274.724C237.873 274.724 236.057 278.262 247.043 279.534C254.031 280.224 261.067 280.277 268.064 279.694C268.278 279.677 268.485 279.614 268.672 279.511C268.86 279.408 269.024 279.266 269.153 279.095C269.282 278.925 269.373 278.728 269.421 278.52C269.469 278.311 269.472 278.095 269.43 277.885L269.299 277.158C269.299 277.158 269.023 271.89 265.754 269.26L253.764 269.274Z" fill="#0F50A4" stroke="#263238" stroke-linecap="round" stroke-linejoin="round"/>
<path d="M245.074 277.535C237.931 276.147 238.12 274.186 238.12 274.186C238.027 274.364 237.944 274.549 237.873 274.738C237.873 274.738 236.057 278.276 247.043 279.548C254.031 280.238 261.067 280.291 268.064 279.708C268.278 279.69 268.485 279.628 268.672 279.525C268.86 279.422 269.024 279.28 269.153 279.109C269.282 278.938 269.373 278.742 269.421 278.534C269.469 278.325 269.472 278.109 269.43 277.899L269.379 277.637L262.84 278.218C262.84 278.218 252.224 278.93 245.074 277.535Z" fill="white" stroke="#263238" stroke-width="0.75" stroke-linecap="round" stroke-linejoin="round"/>
<path d="M255.312 217.955C255.312 217.955 258.16 221.37 263.85 220.905" stroke="#7F7F7F" stroke-width="0.75" stroke-linecap="round" stroke-linejoin="round"/>
<path d="M260.551 75.7191C260.551 75.7191 254.673 78.3567 254.222 75.7191C255.646 75.1678 256.883 74.2228 257.79 72.9943C259.243 70.9961 266.509 71.5411 266.509 71.5411C266.509 71.5411 279.319 70.3422 277.685 76.8962C277.685 76.8962 282.771 81.6992 278.411 88.6964C274.051 95.6937 271.537 98.0334 271.537 98.0334L267.178 97.3068L261.118 78.8726L260.551 75.7191Z" fill="#263238" stroke="#263238" stroke-width="0.75" stroke-linecap="round" stroke-linejoin="round"/>
<path d="M261.445 102.822V100.068C261.445 100.068 256.729 100.794 256.082 99.5809C255.436 98.3675 256.489 93.3248 256.489 93.3248C256.489 93.3248 254.222 93.4047 254.222 92.3511C254.222 91.2975 256.896 86.8361 256.896 86.8361C256.896 86.8361 256.576 83.2612 256.896 82.1276C257.216 80.9941 260.529 74.5781 260.529 74.5781C260.529 74.5781 265.397 77.2521 265.238 78.7126C265.078 80.1731 263.697 81.5536 264.831 82.7743C265.964 83.995 267.512 87.2793 267.011 88.8416L267.737 89.3502C267.737 89.3502 268.144 86.4437 269.772 85.9424C271.399 85.441 272.678 88.6962 271.552 90.9705C270.426 93.2448 269.118 92.8379 269.118 92.8379C269.118 92.8379 269.772 96.7398 271.472 98.0332L271.988 102.095L261.445 102.822Z" fill="white"/>
<path d="M256.082 99.5809C256.082 99.5809 258.487 100.184 263.755 98.0332C269.023 95.8824 269.154 92.8379 269.154 92.8379L269.387 93.2521C269.387 93.2521 268.936 98.0332 261.445 100.068C255.399 101.703 255.399 100.518 255.399 100.518L256.082 99.5809Z" fill="#263238" stroke="#263238" stroke-width="0.5" stroke-linecap="round" stroke-linejoin="round"/>
<path d="M261.445 102.822V100.068C261.445 100.068 256.729 100.794 256.082 99.5809C255.436 98.3675 256.489 93.3248 256.489 93.3248C256.489 93.3248 254.222 93.4047 254.222 92.3511C254.222 91.2975 256.896 86.8361 256.896 86.8361C256.896 86.8361 256.576 83.2612 256.896 82.1276C257.216 80.9941 260.529 74.5781 260.529 74.5781C260.529 74.5781 265.397 77.2521 265.238 78.7126C265.078 80.1731 263.697 81.5536 264.831 82.7743C265.964 83.995 267.512 87.2793 267.011 88.8416L267.737 89.3502C267.737 89.3502 268.144 86.4437 269.772 85.9424C271.399 85.441 272.678 88.6962 271.552 90.9705C270.426 93.2448 269.118 92.8379 269.118 92.8379C269.118 92.8379 269.772 96.7398 271.472 98.0332L271.988 102.095L261.445 102.822Z" stroke="#263238" stroke-linecap="round" stroke-linejoin="round"/>
<path d="M261.205 93.3242C261.205 93.3242 260.384 95.9473 257.768 94.5377" stroke="#263238" stroke-width="0.75" stroke-linecap="round" stroke-linejoin="round"/>
<path d="M258.32 83.1818C258.804 83.1217 259.293 83.2346 259.701 83.5006C260.11 83.7665 260.411 84.1684 260.551 84.635" stroke="#263238" stroke-width="0.75" stroke-linecap="round" stroke-linejoin="round"/>
<path d="M257.79 85.9424C257.79 86.4801 258.03 86.9161 258.32 86.9161C258.611 86.9161 258.843 86.4801 258.843 85.9424C258.843 85.4047 258.611 84.9688 258.32 84.9688C258.03 84.9688 257.79 85.4047 257.79 85.9424Z" fill="#2E353A"/>
<path d="M288.46 118.66C288.46 118.66 302.179 146.904 299.272 151.278C296.366 155.652 283.832 169.995 283.832 169.995L278.745 164.183L288.918 146.918L283.65 136.208C283.65 136.208 281.289 127.808 288.46 118.66Z" fill="#0F50A4"/>
<path opacity="0.2" d="M289.078 137.844C289.863 133.484 289.252 125.492 289.078 123.719C288.312 129.106 287.233 134.443 285.844 139.704C285.784 139.954 285.699 140.198 285.59 140.431C286.898 142.48 288.446 144.42 288.22 147.014C287.995 149.608 285.467 152.987 283.992 155.167C283.823 155.415 283.628 155.644 283.41 155.85C283.527 156.065 283.622 156.291 283.694 156.525C284.304 158.596 284.21 160.725 284.224 162.854C285.997 152.057 292.449 148.685 293.009 146.244C293.685 143.279 288.191 142.749 289.078 137.844Z" fill="black"/>
<path d="M288.46 118.66C288.46 118.66 302.179 146.904 299.272 151.278C296.366 155.652 283.832 169.995 283.832 169.995L278.745 164.183L288.918 146.918L283.65 136.208C283.65 136.208 281.289 127.808 288.46 118.66Z" stroke="#263238" stroke-linecap="round" stroke-linejoin="round"/>
<path d="M290.684 146.522C292.225 146.1 293.851 146.1 295.392 146.522" stroke="#263238" stroke-width="0.75" stroke-linecap="round" stroke-linejoin="round"/>
<path d="M258.219 106.963L261.488 101.615C261.488 101.615 270.571 97.9021 275.112 101.615L277.655 108.779L258.219 106.963Z" fill="#0F50A4" stroke="#263238" stroke-linecap="round" stroke-linejoin="round"/>
<path d="M245.14 169.335L247.85 147.05L246.753 113.625C246.696 112.162 247.132 110.723 247.991 109.537C248.85 108.351 250.082 107.488 251.49 107.086C260.718 104.412 280.475 101.128 288.46 118.668C289.134 120.132 289.349 121.766 289.078 123.355L283.65 154.563L285.103 171.587C285.103 171.587 267.418 184.594 245.14 169.335Z" fill="#0F50A4"/>
<path opacity="0.2" d="M267.933 167.635C267.483 161.096 279.29 158.553 278.745 155.857C278.2 153.161 269.844 154.556 269.844 151.897C269.844 149.237 247.734 143.497 252.791 131.123C254.208 127.856 254.97 124.343 255.036 120.783C252.663 123.835 249.985 126.637 247.043 129.147C247.228 129.678 247.29 130.244 247.225 130.803C247.225 130.883 247.29 130.963 247.312 131.043C247.741 132.901 247.781 134.829 247.428 136.703C247.457 137.08 247.435 137.459 247.363 137.83C247.642 139.968 247.749 142.126 247.683 144.282C247.683 144.456 247.726 144.631 247.763 144.805C247.861 145.358 247.841 145.925 247.704 146.469C247.985 147.198 248.006 148.001 247.763 148.743C247.632 149.157 247.494 149.572 247.356 149.986C247.407 150.188 247.436 150.395 247.443 150.603C247.574 153.895 246.869 157.143 246.309 160.347C245.786 163.334 245.684 166.393 245.132 169.372C245.514 169.551 245.861 169.797 246.157 170.098C248.061 172.017 251.526 173.267 254.026 174.226C256.941 175.307 259.957 176.096 263.029 176.58C269.278 177.679 275.716 176.602 281.267 173.528C279.022 173.593 268.34 173.499 267.933 167.635Z" fill="black"/>
<path d="M245.14 169.335L247.85 147.05L246.753 113.625C246.696 112.162 247.132 110.723 247.991 109.537C248.85 108.351 250.082 107.488 251.49 107.086C260.718 104.412 280.475 101.128 288.46 118.668C289.134 120.132 289.349 121.766 289.078 123.355L283.65 154.563L285.103 171.587C285.103 171.587 267.418 184.594 245.14 169.335Z" stroke="#263238" stroke-linecap="round" stroke-linejoin="round"/>
<path d="M281.652 155.283C281.652 155.283 254.404 161.096 252.951 155.283C251.497 149.47 260.58 153.103 267.933 152.195" stroke="#263238" stroke-width="0.75" stroke-linecap="round" stroke-linejoin="round"/>
<path d="M214.193 120.893L205.474 117.733C205.474 117.733 203.185 111.76 201.543 110.525C199.901 109.289 197.91 106.892 197.372 107.807C196.987 108.454 197.99 110.176 199.385 111.375C200.896 112.675 200.242 114.325 199.93 115.008C199.617 115.691 197.19 116.81 195.228 117.5C193.267 118.19 188.689 116.483 187.519 117.667C186.349 118.852 189.357 119.251 189.357 119.251C189.357 119.251 187.119 119.411 186.916 120.704C186.8 121.482 189.03 120.995 190.142 120.879C191.254 120.763 193.535 120.617 193.535 120.617C193.535 120.617 189.67 121.962 189.953 123.037C190.237 124.112 192.94 122.477 195.185 122.092C195.185 122.092 192.169 123.589 192.569 124.592C192.969 125.595 194.415 124.149 197.001 123.139L202.422 121.896L211.236 126.706L214.193 120.893Z" fill="white" stroke="#263238" stroke-linecap="round" stroke-linejoin="round"/>
<path d="M190.186 119.236C191.415 119.516 192.676 119.629 193.935 119.571" stroke="#263238" stroke-width="0.75" stroke-linecap="round" stroke-linejoin="round"/>
<path d="M250.56 107.815C250.275 107.703 249.962 107.679 249.663 107.746C249.364 107.814 249.091 107.969 248.882 108.193L233.296 124.789L207.741 117.733L204.914 124.854C204.914 124.854 224.3 135.703 234.153 135.107C241.63 134.649 250.771 126.605 254.745 122.754C255.403 122.112 255.893 121.319 256.174 120.444C256.455 119.569 256.519 118.638 256.358 117.733" fill="#0F50A4"/>
<path d="M250.56 107.815C250.275 107.703 249.962 107.679 249.663 107.746C249.364 107.814 249.091 107.969 248.882 108.193L233.296 124.789L207.741 117.733L204.914 124.854C204.914 124.854 224.3 135.703 234.153 135.107C241.63 134.649 250.771 126.605 254.745 122.754C255.403 122.112 255.893 121.319 256.174 120.444C256.455 119.569 256.519 118.638 256.358 117.733" stroke="#263238" stroke-linecap="round" stroke-linejoin="round"/>
<path d="M210.32 124.097C210.345 124.265 210.32 124.437 210.247 124.592C210.174 124.746 210.058 124.875 209.912 124.963C209.766 125.051 209.598 125.094 209.427 125.087C209.257 125.08 209.093 125.022 208.955 124.922C208.817 124.821 208.712 124.682 208.654 124.522C208.595 124.362 208.584 124.189 208.624 124.023C208.663 123.857 208.751 123.707 208.876 123.59C209 123.474 209.157 123.398 209.325 123.37C209.438 123.35 209.554 123.354 209.666 123.38C209.778 123.406 209.884 123.454 209.976 123.522C210.069 123.59 210.148 123.676 210.207 123.775C210.266 123.873 210.304 123.983 210.32 124.097Z" fill="white" stroke="#263238" stroke-width="0.75" stroke-linecap="round" stroke-linejoin="round"/>
<path d="M233.041 129.707C233.87 127.563 232.736 125.798 233.899 125.594C235.061 125.391 235.149 129.067 237.074 129.016" stroke="#263238" stroke-width="0.75" stroke-linecap="round" stroke-linejoin="round"/>
<path d="M52.8599 93.4103C52.9253 95.3577 53.1287 101.2 53.1287 101.2L64.711 108.146L65.4376 94.9072L65.8372 76.7418L67.7409 74.097C67.7409 74.097 70.5893 69.7373 65.8372 68.0443C61.0852 66.3512 62.4076 69.4975 57.6846 70.0279C52.9616 70.5583 41.888 78.0207 46.9017 84.5093C51.9153 90.998 52.7436 90.1551 52.8599 93.4103Z" fill="#999999"/>
<path d="M57.2996 89.9433C57.9781 90.5294 58.7923 90.9366 59.6683 91.1277C59.6683 91.1277 61.4631 96.214 62.3641 96.897C63.2651 97.58 66.4767 98.125 66.4767 98.125L67.4213 91.4184L60.751 87.0587L57.1179 85.9688L57.2996 89.9433Z" fill="#263238" stroke="#263238" stroke-linecap="round" stroke-linejoin="round"/>
<path d="M52.8599 93.4103C52.9253 95.3577 53.1287 101.2 53.1287 101.2L64.711 108.146L65.4376 94.9072L65.8372 76.7418L67.7409 74.097C67.7409 74.097 70.5893 69.7373 65.8372 68.0443C61.0852 66.3512 62.4076 69.4975 57.6846 70.0279C52.9616 70.5583 41.888 78.0207 46.9017 84.5093C51.9153 90.998 52.7436 90.1551 52.8599 93.4103Z" stroke="#263238" stroke-linecap="round" stroke-linejoin="round"/>
<path d="M65.8299 76.7555L67.7337 74.1106C67.7337 74.1106 70.582 69.7509 65.8299 68.0579C61.0779 66.3649 62.4003 69.5112 57.6773 70.0416C52.9543 70.572 41.888 78.0198 46.9017 84.5085C50.1569 88.7519 51.6537 89.8636 52.3295 91.048C52.8634 90.7047 53.4997 90.5569 54.1302 90.6298C54.7608 90.7026 55.3466 90.9916 55.7881 91.4476C57.6773 93.3296 59.6029 82.8155 59.6029 82.8155L65.7936 78.4195L65.8299 76.7555Z" fill="#263238" stroke="#263238" stroke-linecap="round" stroke-linejoin="round"/>
<path d="M57.394 83.7523C57.394 83.7523 52.7291 83.8758 55.2142 87.3854C57.6992 90.8949 60.3005 90.2265 60.3005 90.2265L63.1415 95.6397C63.1415 95.6397 73.0307 97.0348 75.3632 96.3663C77.6956 95.6979 73.6629 87.5452 73.6629 87.5452L75.2106 85.7723C75.2968 85.6752 75.3622 85.5616 75.4029 85.4383C75.4436 85.315 75.4586 85.1847 75.447 85.0554C75.4354 84.926 75.3975 84.8005 75.3356 84.6863C75.2737 84.5722 75.1891 84.472 75.087 84.3917L71.3958 81.4272C71.7083 79.6034 67.6756 74.1174 67.6756 74.1174C67.6756 74.1174 61.6883 74.052 61.1361 76.072C60.7972 77.2674 60.5232 78.4802 60.315 79.7051L56.9144 81.0929L57.394 83.7523Z" fill="#999999"/>
<path opacity="0.3" d="M59.6684 78.2671L60.395 79.7203C60.395 79.7203 63.3886 81.7694 63.5485 82.8738C63.7519 84.327 62.2042 85.3298 65.365 88.4179C68.5258 91.506 71.5558 87.9165 73.7574 87.5387C75.959 87.1608 77.7901 92.7703 77.7901 92.7703L77.5431 97.8566L65.365 98.2344L62.7274 96.5996L59.276 90.7866C59.276 90.7866 63.018 90.4524 61.1506 87.1536C58.5639 82.5977 55.5412 83.2444 55.5412 83.2444L53.4558 81.3915L58.8182 77.5332L59.6684 78.2671Z" fill="black"/>
<path d="M57.394 83.7523C57.394 83.7523 52.7291 83.8758 55.2142 87.3854C57.6992 90.8949 60.3005 90.2265 60.3005 90.2265L63.1415 95.6397C63.1415 95.6397 73.0307 97.0348 75.3632 96.3663C77.6956 95.6979 73.6629 87.5453 73.6629 87.5453L75.2106 85.7723C75.2968 85.6752 75.3622 85.5616 75.4029 85.4383C75.4436 85.315 75.4586 85.1847 75.447 85.0554C75.4354 84.926 75.3975 84.8005 75.3356 84.6863C75.2737 84.5722 75.1891 84.472 75.087 84.3917L71.3958 81.4272C71.7083 79.6034 67.6756 74.1174 67.6756 74.1174C67.6756 74.1174 61.6883 74.052 61.1361 76.072C60.7972 77.2674 60.5232 78.4802 60.315 79.7051L56.9144 81.0929L57.394 83.7523Z" stroke="#263238" stroke-linecap="round" stroke-linejoin="round"/>
<path d="M70.5458 81.9096C70.7347 82.4691 70.7056 82.9923 70.4731 83.0722C70.2406 83.1521 69.8991 82.7598 69.7102 82.193C69.5212 81.6262 69.5576 81.1176 69.7828 81.0377C70.0081 80.9578 70.3423 81.3501 70.5458 81.9096Z" fill="#263238"/>
<path d="M69.6156 79.2785C69.6156 79.2785 67.9154 78.9006 67.4358 81.2331" stroke="#263238" stroke-linecap="round" stroke-linejoin="round"/>
<path d="M72.9944 88.6797C72.9944 88.6797 72.4059 90.3218 70.1606 89.4935" stroke="#263238" stroke-linecap="round" stroke-linejoin="round"/>
<path d="M116.934 82.7759C117.66 83.0884 112.711 88.7251 112.711 88.7251C114.266 88.093 115.966 92.0821 115.966 92.0821C117.703 91.6679 116.33 94.4363 116.33 94.4363C116.33 94.4363 117.456 94.9449 116.417 96.0639C115.051 97.5171 110.43 99.7696 110.43 99.7696L104.529 105.03L100.424 101.063L106.339 96.2165C106.339 96.2165 106.622 94.6397 106.993 92.5834C106.993 92.5834 107.538 90.0548 108.846 88.7251C110.153 87.3954 116.142 82.4635 116.934 82.7759Z" fill="#999999" stroke="#263238" stroke-linecap="round" stroke-linejoin="round"/>
<path d="M112.893 89.8516C112.893 89.8516 112.086 93.7026 114.077 90.738C114.077 90.738 112.406 94.9815 115.189 92.62C115.189 92.62 112.319 95.5918 115.051 94.7489C115.051 94.7489 113.757 95.3012 113.656 95.9406C113.554 96.58 114.84 96.3766 114.84 96.3766" fill="#999999"/>
<path d="M112.893 89.8516C112.893 89.8516 112.086 93.7026 114.077 90.738C114.077 90.738 112.406 94.9815 115.189 92.62C115.189 92.62 112.319 95.5918 115.051 94.7489C115.051 94.7489 113.757 95.3012 113.656 95.9406C113.554 96.58 114.84 96.3766 114.84 96.3766" stroke="#263238" stroke-linecap="round" stroke-linejoin="round"/>
<path d="M52.5693 120.892C52.5693 120.892 63.0834 123.34 85.6085 120.02C85.6085 120.02 102.909 110.981 107.327 102.661L103.222 97.9453L81.9681 109.876C81.9681 109.876 59.8355 106.461 55.7374 106.97L52.5693 120.892Z" fill="#263238" stroke="#263238" stroke-linecap="round" stroke-linejoin="round"/>
<path d="M110.393 88.3826C110.538 88.238 110.721 88.1377 110.921 88.0936C111.121 88.0495 111.329 88.0634 111.522 88.1336C111.714 88.2038 111.882 88.3274 112.007 88.4899C112.131 88.6525 112.207 88.8471 112.224 89.0511C112.74 90.7804 114.971 91.6451 114.361 92.0157C113.75 92.3862 112.348 93.1129 111.193 91.1728C111.193 91.1728 110.764 91.1292 110.793 91.9648C110.829 92.9821 110.793 94.2536 110.292 94.9076" fill="#999999"/>
<path d="M110.393 88.3826C110.538 88.238 110.721 88.1377 110.921 88.0936C111.121 88.0495 111.329 88.0634 111.522 88.1336C111.714 88.2038 111.882 88.3274 112.007 88.4899C112.131 88.6525 112.207 88.8471 112.224 89.0511C112.74 90.7804 114.971 91.6451 114.361 92.0157C113.75 92.3862 112.348 93.1129 111.193 91.1728C111.193 91.1728 110.764 91.1292 110.793 91.9648C110.829 92.9821 110.793 94.2536 110.292 94.9076" stroke="#263238" stroke-linecap="round" stroke-linejoin="round"/>
<path d="M30.1024 265.365C28.2042 267.801 26.8692 270.628 26.1932 273.641C26.1253 273.939 26.1179 274.248 26.1715 274.549C26.2251 274.85 26.3387 275.137 26.5054 275.393C26.6721 275.649 26.8886 275.869 27.1421 276.04C27.3955 276.211 27.6807 276.329 27.9807 276.388L42.7309 279.396C45.9716 280.065 50.9344 279.927 53.4412 279.803C53.7304 279.793 54.014 279.72 54.2731 279.592C54.5322 279.463 54.7608 279.28 54.9437 279.056C55.1266 278.832 55.2597 278.571 55.3339 278.292C55.4081 278.012 55.4218 277.72 55.374 277.434C55.2369 276.875 54.9739 276.355 54.6049 275.913C54.2359 275.471 53.7708 275.119 53.245 274.884C49.7573 272.951 41.4666 271.65 38.0516 266.412L30.1024 265.365Z" fill="#263238" stroke="#263238" stroke-linecap="round" stroke-linejoin="round"/>
<path d="M74.0843 174.616C74.0843 174.616 66.324 196.175 56.3912 216.803C56.3912 216.803 54.4657 225.871 50.1278 232.062L39.2286 266.86C39.2286 266.86 34.4475 268.829 28.7799 265.406C28.7799 265.406 31.4829 243.143 38.393 226.99L42.4693 214.195L47.5556 188.429C47.5556 188.429 43.2468 180.974 44.3948 170.031L63.5266 169.77L74.0843 174.616Z" fill="#0F50A4"/>
<path opacity="0.2" d="M49.5175 171.248C48.2314 171.975 47.0107 172.796 45.7028 173.479C45.0223 173.805 44.3645 174.176 43.7336 174.59C43.7772 174.59 43.69 174.656 43.6029 174.736C43.616 174.854 43.616 174.974 43.6029 175.092C43.5665 175.312 43.5031 175.527 43.4139 175.731C43.7524 176.061 44.0124 176.463 44.1746 176.907C44.3369 177.351 44.3973 177.826 44.3513 178.296C44.3513 178.63 44.3513 178.965 44.2931 179.299L44.3876 179.444C44.811 180.387 45.0973 181.385 45.2377 182.409C45.5457 183.933 46.0513 185.411 46.7418 186.805C46.8888 187.128 46.9985 187.467 47.0688 187.815L47.5556 188.432C47.5556 188.432 52.2641 219.938 55.7736 219.234C59.2832 218.529 61.5865 201.744 61.5865 201.744L49.5175 171.248Z" fill="black"/>
<path d="M74.0843 174.616C74.0843 174.616 66.324 196.175 56.3912 216.803C56.3912 216.803 54.4657 225.871 50.1278 232.062L39.2286 266.86C39.2286 266.86 34.4475 268.829 28.7799 265.406C28.7799 265.406 31.4829 243.143 38.393 226.99L42.4693 214.195L47.5556 188.429C47.5556 188.429 43.2468 180.974 44.3948 170.031L63.5266 169.77L74.0843 174.616Z" stroke="#263238" stroke-linecap="round" stroke-linejoin="round"/>
<path d="M63.0761 268.823C63.0761 268.823 60.7509 271.926 60.6274 277.463C60.6245 277.784 60.6854 278.102 60.8065 278.4C60.9277 278.697 61.1066 278.968 61.333 279.195C61.5595 279.423 61.8288 279.604 62.1255 279.727C62.4223 279.849 62.7404 279.912 63.0616 279.911H79.0471C82.5566 279.911 87.6793 278.712 90.2587 278.051C90.5592 277.976 90.8402 277.838 91.0831 277.646C91.3261 277.454 91.5253 277.213 91.6676 276.938C91.8099 276.663 91.892 276.361 91.9084 276.052C91.9249 275.742 91.8752 275.433 91.7628 275.145C91.4966 274.598 91.1109 274.118 90.6342 273.741C90.1575 273.364 89.602 273.098 89.009 272.965C84.969 271.708 76.0825 272.122 71.4176 267.406L63.0761 268.823Z" fill="#263238" stroke="#263238" stroke-linecap="round" stroke-linejoin="round"/>
<path d="M72.7037 167.975C72.7037 167.975 75.9081 191.162 72.7037 213.854C72.7037 213.854 72.8999 223.3 70.6329 230.493L72.4421 267.747C72.4421 267.747 68.5547 270.77 62.1242 269.258C62.1242 269.258 55.5048 245.81 57.0379 228.982L56.3113 215.554L51.1596 187.739C51.1596 187.739 45.2522 183.38 43.0288 172.611L61.1942 166.559L72.7037 167.975Z" fill="#0F50A4" stroke="#263238" stroke-linecap="round" stroke-linejoin="round"/>
<path d="M51.3485 100.584C51.3485 100.584 43.4067 106.637 42.2659 121.765C41.1251 136.893 38.6764 168.472 43.5956 176.791C43.5956 176.791 48.3186 168.297 73.8518 171.705C73.8518 171.705 76.4967 159.033 72.5221 134.263C68.5475 109.492 64.0134 103.236 51.3485 100.584Z" fill="#263238" stroke="#263238" stroke-linecap="round" stroke-linejoin="round"/>
<path d="M51.3486 101.338L52.0752 96.6152C55.8885 96.8127 59.5357 98.2374 62.4731 100.677C65.8518 103.525 66.92 106.257 64.4567 109.469L51.3486 101.905V101.338Z" fill="#263238" stroke="#263238" stroke-linecap="round" stroke-linejoin="round"/>
<path d="M64.2824 107.697C61.514 104.115 57.9753 102.204 53.1797 100.99" stroke="#7F7F7F" stroke-width="0.75" stroke-linecap="round" stroke-linejoin="round"/>
<path d="M70.415 122.765C69.0707 117.082 67.5594 112.868 65.6556 109.686" stroke="#7F7F7F" stroke-width="0.75" stroke-linecap="round" stroke-linejoin="round"/>
<path d="M62.2056 156.827L58.4272 156.832L58.4312 159.637L62.2096 159.631L62.2056 156.827Z" fill="#263238" stroke="#263238" stroke-linecap="round" stroke-linejoin="round"/>
<path d="M60.7981 158.475L57.0519 158.967L57.417 161.748L61.1632 161.256L60.7981 158.475Z" fill="#263238" stroke="#263238" stroke-linecap="round" stroke-linejoin="round"/>
<path d="M69.2596 167.977L73.0743 173.412L77.434 174.422C79.2215 174.836 80.1661 175.228 80.8491 176.943C81.3359 178.171 81.0089 178.549 80.1225 178.869C80.1225 178.869 82.7237 183.86 80.0135 183.374C80.0135 183.374 80.2387 185.662 77.5357 184.827C77.5357 184.827 76.6711 186.374 74.7964 185.117C74.7964 185.117 73.3432 186.229 71.3232 182.473L68.4167 177.125L64.137 172.3L69.2596 167.977Z" fill="#999999" stroke="#263238" stroke-linecap="round" stroke-linejoin="round"/>
<path d="M79.7883 181.76C79.7883 181.76 80.1516 183.271 78.662 183.213C77.1724 183.155 77.4413 184.666 73.9608 184.136" fill="#999999"/>
<path d="M79.7883 181.76C79.7883 181.76 80.1516 183.271 78.662 183.213C77.1724 183.155 77.4413 184.666 73.9608 184.136" stroke="#263238" stroke-linecap="round" stroke-linejoin="round"/>
<path d="M48.6965 113.625C48.6965 113.625 44.9181 124.967 46.9962 149.956C46.9962 149.956 56.3041 169.618 65.83 175.104L71.7665 170.185L60.2351 146.737C60.2351 146.737 66.1352 122.722 65.83 118.188" fill="#263238"/>
<path d="M48.6965 113.625C48.6965 113.625 44.9181 124.967 46.9962 149.956C46.9962 149.956 56.3041 169.618 65.83 175.104L71.7664 170.185L60.2351 146.737C60.2351 146.737 66.1352 122.722 65.83 118.188" stroke="#263238" stroke-linecap="round" stroke-linejoin="round"/>
<path d="M64.4785 127.94C65.3432 123.58 65.9317 119.729 65.8663 118.174" stroke="#7F7F7F" stroke-width="0.75" stroke-linecap="round" stroke-linejoin="round"/>
<path d="M60.8963 147.981L60.2787 146.724C60.2787 146.724 62.4585 137.837 64.1007 129.852" stroke="#7F7F7F" stroke-width="0.75" stroke-linecap="round" stroke-linejoin="round"/>
<path d="M64.0934 154.505L61.652 149.535" stroke="#7F7F7F" stroke-width="0.75" stroke-linecap="round" stroke-linejoin="round"/>
<path d="M46.8291 147.262C46.8872 148.141 46.9526 149.027 47.0326 149.943C49.2978 154.581 51.8785 159.057 54.7565 163.342" stroke="#7F7F7F" stroke-width="0.75" stroke-linecap="round" stroke-linejoin="round"/>
<path d="M48.7328 113.625C48.7328 113.625 45.4413 123.514 46.691 145.131" stroke="#7F7F7F" stroke-width="0.75" stroke-linecap="round" stroke-linejoin="round"/>
<path d="M143.681 275.351L125.342 273.288V231.798L134.751 226.145V224.074H109.53V226.131L118.976 231.769V273.288L100.637 275.351C99.8133 275.444 99.0529 275.837 98.5007 276.455C97.9485 277.073 97.6432 277.872 97.6431 278.701V280.401H146.726V278.701C146.724 277.864 146.412 277.058 145.849 276.439C145.287 275.82 144.514 275.432 143.681 275.351Z" fill="white" stroke="#263238" stroke-width="0.75" stroke-linecap="round" stroke-linejoin="round"/>
<path d="M104.052 199.76H99.0382V222.532H104.052V199.76Z" fill="white" stroke="#263238" stroke-width="0.75" stroke-linecap="round" stroke-linejoin="round"/>
<path d="M148.789 217.816H95.5068C93.7692 217.816 92.3606 219.225 92.3606 220.963V224.102C92.3606 225.839 93.7692 227.248 95.5068 227.248H148.789C150.527 227.248 151.936 225.839 151.936 224.102V220.963C151.936 219.225 150.527 217.816 148.789 217.816Z" fill="#263238" stroke="#263238" stroke-linecap="round" stroke-linejoin="round"/>
<path d="M112.052 176.488H91.0454C87.7066 176.488 85 179.195 85 182.534V195.794C85 199.133 87.7066 201.84 91.0454 201.84H112.052C115.391 201.84 118.097 199.133 118.097 195.794V182.534C118.097 179.195 115.391 176.488 112.052 176.488Z" fill="#263238"/>
<path opacity="0.5" d="M117.574 176.488H96.5676C93.2289 176.488 90.5222 179.195 90.5222 182.534V195.794C90.5222 199.133 93.2289 201.84 96.5676 201.84H117.574C120.913 201.84 123.619 199.133 123.619 195.794V182.534C123.619 179.195 120.913 176.488 117.574 176.488Z" fill="black"/>
<path d="M112.052 176.488H91.0454C87.7066 176.488 85 179.195 85 182.534V195.794C85 199.133 87.7066 201.84 91.0454 201.84H112.052C115.391 201.84 118.097 199.133 118.097 195.794V182.534C118.097 179.195 115.391 176.488 112.052 176.488Z" stroke="#263238" stroke-linecap="round" stroke-linejoin="round"/>
<path d="M141.349 216.393C142.917 215.14 144.656 214.12 146.515 213.363" stroke="#263238" stroke-width="0.75" stroke-linecap="round" stroke-linejoin="round"/>
<path d="M144.466 211.641C144.466 211.641 139.198 215.957 140.266 216.603" stroke="#263238" stroke-width="0.75" stroke-linecap="round" stroke-linejoin="round"/>
<path d="M161.12 251.99L162.755 263.507C162.755 263.507 159.696 266.007 159.543 272.808L164.935 274.726L166.388 272.808L171.198 277.821C171.198 277.821 179.721 281.658 180.884 279.093C182.047 276.528 177.345 274.631 173.371 268.993C172.339 267.54 168.888 263.383 168.888 263.383L169.229 251.365L161.12 251.99Z" fill="#263238" stroke="#263238" stroke-width="0.75" stroke-linecap="round" stroke-linejoin="round"/>
<path d="M119.965 203.109C119.965 203.109 165.08 200.086 167.136 206.459C169.193 212.831 170.159 233.227 170.261 241.336C170.363 249.445 169.723 259.683 169.723 259.683C167.013 260.505 164.121 260.505 161.411 259.683C161.411 259.683 159.427 247.919 157.996 242.201C156.564 236.482 155.046 228.853 155.91 216.769C155.91 216.769 112.677 223.309 112.437 215.723C112.197 208.137 119.965 203.109 119.965 203.109Z" fill="white"/>
<path opacity="0.5" d="M119.965 203.109C119.965 203.109 165.08 200.086 167.136 206.459C169.193 212.831 170.159 233.227 170.261 241.336C170.363 249.445 169.723 259.683 169.723 259.683C167.013 260.505 164.121 260.505 161.411 259.683C161.411 259.683 159.427 247.919 157.996 242.201C156.564 236.482 155.046 228.853 155.91 216.769C155.91 216.769 112.677 223.309 112.437 215.723C112.197 208.137 119.965 203.109 119.965 203.109Z" fill="black"/>
<path opacity="0.2" d="M151.747 205.246L152.531 205.595L152.844 205.718L153.033 205.806C153.368 205.947 153.688 206.125 153.985 206.336C157.218 207.913 158.744 210.79 157.618 214.46C157.612 214.664 157.593 214.868 157.56 215.07C157.056 217.65 156.327 220.181 155.38 222.634C155.67 223.135 155.79 223.716 155.721 224.291C155.605 225.213 155.511 226.129 155.438 227.052C155.775 227.847 155.881 228.721 155.743 229.573C155.661 230.126 155.622 230.685 155.627 231.244C155.896 233.264 156.157 235.284 156.535 237.282L156.971 238.954C156.971 238.561 156.971 238.14 156.928 237.668C156.085 221.094 158.642 227.829 159.769 216.392C160.662 207.789 154.74 205.733 151.747 205.246Z" fill="black"/>
<path d="M119.965 203.109C119.965 203.109 165.08 200.086 167.136 206.459C169.193 212.831 170.159 233.227 170.261 241.336C170.363 249.445 169.723 259.683 169.723 259.683C167.013 260.505 164.121 260.505 161.411 259.683C161.411 259.683 159.427 247.919 157.996 242.201C156.564 236.482 155.046 228.853 155.91 216.769C155.91 216.769 112.677 223.309 112.437 215.723C112.197 208.137 119.965 203.109 119.965 203.109Z" stroke="#263238" stroke-linecap="round" stroke-linejoin="round"/>
<path d="M160.757 212.666C160.757 212.666 160.292 214.759 157.371 216.786" stroke="#263238" stroke-width="0.75" stroke-linecap="round" stroke-linejoin="round"/>
<path d="M170.769 257.092L170.457 260.144C170.457 260.144 165.298 262.912 160.757 260.354L159.812 257.353C159.812 257.353 162.886 259.461 170.769 257.092Z" fill="#0F50A4"/>
<path opacity="0.3" d="M170.769 257.092L170.457 260.144C170.457 260.144 165.298 262.912 160.757 260.354L159.812 257.353C159.812 257.353 162.886 259.461 170.769 257.092Z" fill="#0F50A4" stroke="#263238" stroke-width="0.75" stroke-miterlimit="10"/>
<path d="M170.769 257.092L170.457 260.144C170.457 260.144 165.298 262.912 160.757 260.354L159.812 257.353C159.812 257.353 162.886 259.461 170.769 257.092Z" stroke="#263238" stroke-width="0.75" stroke-linecap="round" stroke-linejoin="round"/>
<path d="M168.604 264.414C170.666 266.477 172.489 268.766 174.039 271.237" stroke="#7F7F7F" stroke-linecap="round" stroke-linejoin="round"/>
<path d="M128.328 243.947L123.292 254.432C123.292 254.432 119.362 254.81 115.46 260.383L118.882 264.968L121.156 264.183L122.377 271.028C122.377 271.028 127.332 278.948 129.723 277.459C132.114 275.969 129.265 271.784 129.091 264.888C129.04 263.094 128.473 257.731 128.473 257.731L135.434 247.929L128.328 243.947Z" fill="#263238" stroke="#263238" stroke-width="0.75" stroke-linecap="round" stroke-linejoin="round"/>
<path d="M104.444 204.811C104.444 204.811 98.0427 217.6 106.224 218.733C114.406 219.867 139.416 218.414 139.416 218.414C136.282 223.44 133.505 228.679 131.104 234.094C127.863 241.752 124.629 249.636 124.629 249.636C124.629 249.636 126.032 253.415 131.75 254.17C131.75 254.17 136.393 246.904 146.537 235.605C156.68 224.306 159.492 212.935 157.334 209.048C155.176 205.16 143.95 203.06 125.814 202.225L104.444 204.811Z" fill="white"/>
<path opacity="0.5" d="M104.444 204.811C104.444 204.811 98.0427 217.6 106.224 218.733C114.406 219.867 139.416 218.414 139.416 218.414C136.282 223.44 133.505 228.679 131.104 234.094C127.863 241.752 124.629 249.636 124.629 249.636C124.629 249.636 126.032 253.415 131.75 254.17C131.75 254.17 136.393 246.904 146.537 235.605C156.68 224.306 159.492 212.935 157.334 209.048C155.176 205.16 143.95 203.06 125.814 202.225L104.444 204.811Z" fill="black"/>
<path d="M104.444 204.811C104.444 204.811 98.0427 217.6 106.224 218.733C114.406 219.867 139.416 218.414 139.416 218.414C136.282 223.44 133.505 228.679 131.104 234.094C127.863 241.752 124.629 249.636 124.629 249.636C124.629 249.636 126.032 253.415 131.75 254.17C131.75 254.17 136.393 246.904 146.537 235.605C156.68 224.306 159.492 212.935 157.334 209.048C155.176 205.16 143.95 203.06 125.814 202.225L104.444 204.811Z" stroke="#263238" stroke-linecap="round" stroke-linejoin="round"/>
<path d="M133.669 253.087L131.729 255.463C131.729 255.463 125.916 254.926 123.525 250.282L124.39 247.26C124.39 247.26 125.792 250.711 133.669 253.087Z" fill="#0F50A4"/>
<path opacity="0.3" d="M133.669 253.087L131.729 255.463C131.729 255.463 125.916 254.926 123.525 250.282L124.39 247.26C124.39 247.26 125.792 250.711 133.669 253.087Z" fill="#0F50A4" stroke="#263238" stroke-width="0.75" stroke-miterlimit="10"/>
<path d="M133.669 253.087L131.729 255.463C131.729 255.463 125.916 254.926 123.525 250.282L124.39 247.26C124.39 247.26 125.792 250.711 133.669 253.087Z" stroke="#263238" stroke-width="0.75" stroke-linecap="round" stroke-linejoin="round"/>
<path d="M127.478 258.719C127.768 260.303 128.313 263.529 128.597 267.009" stroke="#7F7F7F" stroke-linecap="round" stroke-linejoin="round"/>
<path d="M125.145 128.32C125.145 128.32 130.704 125.559 124.848 121.875C118.991 118.191 108.753 128.32 108.753 128.32L107.758 133.05C107.758 133.05 108.186 136.821 109.545 139.009C110.635 140.774 112.575 140.782 113.491 142.533C114.893 145.192 114.428 147.081 115.874 145.919C119.449 143.012 120.604 131.524 120.604 131.524L125.145 128.32Z" fill="#263238" stroke="#263238" stroke-linecap="round" stroke-linejoin="round"/>
<path d="M123.002 151.012L123.968 145.345L116.659 139.045L114.595 148.534L123.002 151.012Z" fill="white"/>
<path d="M115.947 139.707C115.947 139.707 116.542 142.977 118.323 145.033C120.103 147.09 124.746 149.531 124.746 149.531L125.145 145.636L117.879 140.1L116.659 139.061L115.947 139.707Z" fill="#263238" stroke="#263238" stroke-width="0.5" stroke-linecap="round" stroke-linejoin="round"/>
<path d="M123.002 151.012L123.968 145.345L116.659 139.045L114.595 148.534L123.002 151.012Z" stroke="#263238" stroke-linecap="round" stroke-linejoin="round"/>
<path d="M125.327 126.32C125.327 126.32 128.648 132.133 128.575 133.812C128.575 133.812 132.935 145.256 128.575 147.138C125.189 148.591 120.938 145.757 119.274 144.464C118.819 144.104 118.436 143.66 118.148 143.156L116.731 140.664C116.731 140.664 114.987 141.165 113.396 138.898C111.805 136.631 113.44 134.48 115.191 135.817C115.191 135.817 116.513 133.078 116.099 131.566C115.685 130.055 117.669 130.033 117.756 128.427C117.778 128.427 122.493 128.26 125.327 126.32Z" fill="white"/>
<path d="M125.327 126.32C125.327 126.32 128.648 132.133 128.575 133.812C128.575 133.812 132.935 145.256 128.575 147.138C125.189 148.591 120.938 145.757 119.274 144.464C118.819 144.104 118.436 143.66 118.148 143.156L116.731 140.664C116.731 140.664 114.987 141.165 113.396 138.898C111.805 136.631 113.44 134.48 115.191 135.817C115.191 135.817 116.513 133.078 116.099 131.566C115.685 130.055 117.669 130.033 117.756 128.427C117.778 128.427 122.493 128.26 125.327 126.32Z" stroke="#263238" stroke-linecap="round" stroke-linejoin="round"/>
<path d="M124.717 142.01C124.717 142.01 125.792 143.463 127.979 141.523" stroke="#263238" stroke-width="0.75" stroke-linecap="round" stroke-linejoin="round"/>
<path d="M126.526 135.232C126.926 136.802 126.461 138.269 125.487 138.516C124.513 138.763 123.401 137.703 123.002 136.14C122.602 134.578 123.242 133.961 124.215 133.721C125.189 133.481 126.126 133.67 126.526 135.232Z" stroke="#263238" stroke-width="0.75" stroke-linecap="round" stroke-linejoin="round"/>
<path d="M130.973 133.974C131.372 135.544 131.053 136.975 130.246 137.179C129.44 137.382 128.481 136.278 128.066 134.716C127.652 133.153 128.175 132.579 128.967 132.376C129.759 132.172 130.602 132.376 130.973 133.974Z" fill="white" stroke="#263238" stroke-width="0.75" stroke-linecap="round" stroke-linejoin="round"/>
<path d="M122.486 133.676C122.613 133.415 122.79 133.181 123.009 132.99C123.227 132.798 123.481 132.652 123.757 132.56C124.032 132.468 124.323 132.432 124.613 132.454C124.903 132.476 125.185 132.555 125.443 132.688" stroke="#263238" stroke-width="0.75" stroke-linecap="round" stroke-linejoin="round"/>
<path d="M127.296 132.055C127.348 131.815 127.459 131.591 127.621 131.406C127.782 131.22 127.988 131.078 128.219 130.994" stroke="#263238" stroke-width="0.75" stroke-linecap="round" stroke-linejoin="round"/>
<path d="M123.002 136.138L121.149 136.886L115.213 135.818" stroke="#263238" stroke-width="0.75" stroke-linecap="round" stroke-linejoin="round"/>
<path d="M128.037 134.418L126.555 135.021" stroke="#263238" stroke-width="0.75" stroke-linecap="round" stroke-linejoin="round"/>
<path d="M125.705 135.61C125.756 136.104 125.56 136.532 125.247 136.569C124.935 136.605 124.644 136.227 124.586 135.733C124.528 135.239 124.731 134.81 125.036 134.774C125.342 134.738 125.647 135.108 125.705 135.61Z" fill="#263238"/>
<path d="M129.331 134.293C129.389 134.78 129.258 135.186 129.033 135.216C128.808 135.245 128.59 134.867 128.539 134.387C128.488 133.908 128.611 133.493 128.829 133.472C129.047 133.45 129.273 133.813 129.331 134.293Z" fill="#263238"/>
<path d="M127.652 134.582L130.704 137.263C130.776 137.327 130.833 137.408 130.869 137.498C130.905 137.587 130.92 137.684 130.912 137.781C130.905 137.877 130.875 137.971 130.825 138.054C130.774 138.137 130.706 138.207 130.624 138.259L129.055 139.24" fill="white"/>
<path d="M127.652 134.582L130.704 137.263C130.776 137.327 130.833 137.408 130.869 137.498C130.905 137.587 130.92 137.684 130.912 137.781C130.905 137.877 130.875 137.971 130.825 138.054C130.774 138.137 130.706 138.207 130.624 138.259L129.055 139.24" stroke="#263238" stroke-width="0.75" stroke-linecap="round" stroke-linejoin="round"/>
<path d="M110.366 128.514C110.366 128.514 109.828 118.85 102.33 122.702C94.8311 126.553 101.996 137.888 99.7503 140.387C97.505 142.887 101.799 141.768 102.33 139.959C102.86 138.149 102.424 142.974 103.463 143.148C104.502 143.323 104.669 139.007 105.643 139.007C106.617 139.007 105.389 141.695 106.166 141.993C106.944 142.291 108.753 136.718 109.269 133.637C109.542 131.911 109.908 130.201 110.366 128.514Z" fill="#263238" stroke="#263238" stroke-linecap="round" stroke-linejoin="round"/>
<path d="M110.366 127.203C110.366 127.203 107.743 130.11 108.768 137.376C108.804 137.361 103.718 130.001 110.366 127.203Z" fill="#0F50A4" stroke="#263238" stroke-linecap="round" stroke-linejoin="round"/>
<path d="M116.579 128.32C116.579 128.32 119.485 129.127 119.885 131.525C120.284 133.923 121.636 126.017 116.579 128.32Z" fill="#263238" stroke="#263238" stroke-width="0.75" stroke-linecap="round" stroke-linejoin="round"/>
<path d="M126.243 127.804C126.243 127.804 129.403 126.853 130.348 128.923C130.326 128.923 129.876 123.932 126.243 127.804Z" fill="#263238" stroke="#263238" stroke-width="0.75" stroke-linecap="round" stroke-linejoin="round"/>
<path d="M153.5 122C154.139 121.826 151.5 126.501 151.5 126.501C152.183 125.338 154.268 127.152 154.268 127.152C155.184 126.033 155.649 128.482 155.649 128.482C155.649 128.482 156.615 128.257 156.499 129.485C156.346 131.098 154.472 134.789 154.472 134.789L153.251 141.038L148.68 140.5L150.134 134.505L148.768 131.875C148.266 130.818 148.017 129.659 148.041 128.489C148.259 127 152.5 121.002 153.5 122Z" fill="white" stroke="#263238" stroke-linecap="round" stroke-linejoin="round"/>
<path d="M151.202 127.223C151.202 127.223 152.568 130.078 152.401 127.223C152.401 127.223 153.396 130.761 154.028 127.884C154.028 127.884 153.643 131.19 154.987 129.337C154.987 129.337 154.421 130.325 154.675 130.79C154.929 131.255 155.649 130.492 155.649 130.492" fill="white"/>
<path d="M151.202 127.223C151.202 127.223 152.568 130.078 152.401 127.223C152.401 127.223 153.396 130.761 154.028 127.884C154.028 127.884 153.643 131.19 154.987 129.337C154.987 129.337 154.421 130.325 154.675 130.79C154.929 131.255 155.649 130.492 155.649 130.492" stroke="#263238" stroke-width="0.75" stroke-linecap="round" stroke-linejoin="round"/>
<path d="M128.895 153.04L143.529 153.345L149.022 138.086L153.854 139.786C153.854 139.786 151.376 159.107 148.898 160.255C146.421 161.403 131.329 163.038 131.329 163.038C131.329 163.038 126.635 157.857 128.895 153.04Z" fill="#0F50A4"/>
<path opacity="0.2" d="M134.09 157.422C133.442 156.238 132.558 155.2 131.493 154.37C130.429 153.54 129.206 152.937 127.899 152.598C130.145 154.051 131.481 156.957 132.361 159.333C132.715 160.296 132.985 161.288 133.167 162.298C136.34 162.29 139.504 161.969 142.613 161.339C140.332 161.215 135.921 160.576 134.09 157.422Z" fill="black"/>
<path d="M128.895 153.04L143.529 153.345L149.022 138.086L153.854 139.786C153.854 139.786 151.376 159.107 148.898 160.255C146.421 161.403 131.329 163.038 131.329 163.038C131.329 163.038 126.635 157.857 128.895 153.04Z" stroke="#263238" stroke-linecap="round" stroke-linejoin="round"/>
<path d="M148.157 139.265L153.854 141.205L154.239 138.611L148.848 136.896L148.157 139.265Z" fill="#0F50A4" stroke="#263238" stroke-linecap="round" stroke-linejoin="round"/>
<path d="M149.247 127.962C149.268 127.798 149.336 127.644 149.441 127.517C149.547 127.39 149.687 127.297 149.845 127.247C150.002 127.197 150.17 127.194 150.33 127.237C150.489 127.28 150.633 127.367 150.744 127.489C151.921 128.354 153.65 128.637 153.454 129.175C153.258 129.713 152.808 130.04 151.122 129.357C151.122 129.357 150.824 129.538 151.245 130.083C151.812 130.676 152.2 131.417 152.364 132.22" fill="white"/>
<path d="M149.247 127.962C149.268 127.798 149.336 127.644 149.441 127.517C149.547 127.39 149.687 127.297 149.845 127.247C150.002 127.197 150.17 127.194 150.33 127.237C150.489 127.28 150.633 127.367 150.744 127.489C151.921 128.354 153.65 128.637 153.454 129.175C153.258 129.713 152.808 130.04 151.122 129.357C151.122 129.357 150.824 129.538 151.245 130.083C151.812 130.676 152.2 131.417 152.364 132.22" stroke="#263238" stroke-width="0.75" stroke-linecap="round" stroke-linejoin="round"/>
<path d="M101.654 153.36L106.224 194.225L103.318 206.512C103.318 206.512 106.377 207.202 114.857 204.535C123.336 201.868 132.412 202.668 132.412 202.668C132.412 202.668 136.168 175.463 134.664 166.962C133.81 161.95 131.843 157.193 128.909 153.04C128.909 153.04 112.626 145.919 102.679 151.362C102.329 151.555 102.044 151.849 101.862 152.205C101.679 152.56 101.607 152.963 101.654 153.36Z" fill="#0F50A4"/>
<path opacity="0.12" d="M110.366 176.983C110.708 171.897 108.441 163.533 108.441 163.533L106.748 163.758C106.41 168.681 106.453 173.622 106.878 178.538C107.053 180.507 108.092 182.556 108.026 184.511C107.968 186.247 106.973 187.417 106.13 188.87C105.985 189.117 105.854 189.364 105.709 189.597C106.124 190.243 106.287 191.019 106.166 191.777C106.072 192.699 105.919 193.608 105.752 194.509C105.805 194.963 105.775 195.423 105.665 195.868C105.156 198.004 104.706 200.118 104.313 202.276C103.93 203.711 103.632 205.166 103.42 206.636C106.619 206.54 109.799 206.112 112.909 205.357C114.186 205.048 115.426 204.603 116.608 204.027C104.844 205.764 108.877 198.156 109.233 194.996C109.589 191.835 120.946 187.977 121.512 184.525C122.079 181.074 110.017 182.047 110.366 176.983Z" fill="black"/>
<path d="M101.654 153.36L106.224 194.225L103.318 206.512C103.318 206.512 106.377 207.202 114.857 204.535C123.336 201.868 132.412 202.668 132.412 202.668C132.412 202.668 136.168 175.463 134.664 166.962C133.81 161.95 131.843 157.193 128.909 153.04C128.909 153.04 112.626 145.919 102.679 151.362C102.329 151.555 102.044 151.849 101.862 152.205C101.679 152.56 101.607 152.963 101.654 153.36V153.36Z" stroke="#263238" stroke-linecap="round" stroke-linejoin="round"/>
<path d="M111.957 149.529L114.101 145.344C116.568 146.177 119.079 146.875 121.621 147.436C125.741 148.337 124.746 149.529 124.746 149.529L123.692 152.704C123.692 152.704 122.072 154.317 111.957 149.529Z" fill="#0F50A4" stroke="#263238" stroke-linecap="round" stroke-linejoin="round"/>
<path d="M103.994 181.206C103.994 181.206 106.326 179.367 106.9 180.152C107.474 180.937 106.246 180.675 105.323 183.349" stroke="#263238" stroke-linecap="round" stroke-linejoin="round"/>
<path d="M132.83 201.145L132.036 197.014L129.089 197.581L129.884 201.712L132.83 201.145Z" fill="#0F50A4"/>
<path opacity="0.3" d="M132.831 201.145L132.036 197.014L129.089 197.581L129.884 201.712L132.831 201.145Z" fill="black"/>
<path d="M132.851 197.969L130.092 194.783L127.824 196.748L130.582 199.934L132.851 197.969Z" fill="#0F50A4"/>
<path opacity="0.3" d="M132.851 197.969L130.092 194.783L127.824 196.748L130.582 199.934L132.851 197.969Z" fill="black"/>
<path d="M133.21 187.954L129.235 186.576L128.252 189.412L132.228 190.789L133.21 187.954Z" fill="#0F50A4"/>
<path d="M132.004 191.47L128.022 190.09L127.039 192.925L131.022 194.305L132.004 191.47Z" fill="#0F50A4"/>
<path d="M130.777 194.973L126.802 193.596L125.82 196.431L129.795 197.809L130.777 194.973Z" fill="#0F50A4"/>
<path opacity="0.3" d="M130.777 194.973L126.802 193.596L125.82 196.431L129.795 197.809L130.777 194.973Z" fill="black"/>
<path d="M118.678 189.582L124.186 193.6C124.186 193.6 130.435 193.6 131.569 195.308C132.702 197.015 133.022 198.941 132.005 199.631C130.987 200.321 132.535 197.785 129.708 196.499C129.708 196.499 131.162 203.09 128.64 201.68C128.64 201.68 128.313 202.799 127.362 201.775C127.527 200.954 127.403 200.102 127.013 199.362C126.9 199.088 126.718 198.848 126.485 198.665C126.252 198.481 125.976 198.361 125.683 198.316C125.683 198.316 127.456 200.736 126.286 201.397C125.342 201.927 124.833 198.447 123.569 198.054C122.885 198.009 122.226 197.783 121.658 197.4C121.09 197.017 120.634 196.491 120.335 195.875L116.07 193.557L118.678 189.582Z" fill="white" stroke="#263238" stroke-linecap="round" stroke-linejoin="round"/>
<path d="M128.858 200.656C128.999 199.429 128.655 198.196 127.899 197.219" stroke="#263238" stroke-width="0.75" stroke-linecap="round" stroke-linejoin="round"/>
<path d="M130.224 195.365C130.224 195.365 130.108 195.867 128.975 195.758C128.139 195.678 126.911 197.363 125.632 197.109" stroke="#263238" stroke-width="0.75" stroke-linecap="round" stroke-linejoin="round"/>
<path d="M102.846 152.235C102.78 152.145 102.691 152.075 102.589 152.032C102.487 151.988 102.375 151.973 102.265 151.988C102.155 152.003 102.051 152.047 101.964 152.116C101.877 152.185 101.81 152.276 101.77 152.38C100.571 155.461 97.3597 165.757 99.089 184.01C99.089 184.01 100.477 187.737 116.782 194.858L119.885 190.063L107.83 180.275C107.83 180.275 109.407 167.196 108.215 162.313" fill="#0F50A4"/>
<path d="M102.846 152.235C102.78 152.145 102.691 152.075 102.589 152.032C102.487 151.988 102.375 151.973 102.265 151.988C102.155 152.003 102.051 152.047 101.964 152.116C101.877 152.185 101.81 152.276 101.77 152.38C100.571 155.461 97.3597 165.757 99.089 184.01C99.089 184.01 100.477 187.737 116.782 194.858L119.885 190.063L107.83 180.275C107.83 180.275 109.407 167.196 108.215 162.313" stroke="#263238" stroke-linecap="round" stroke-linejoin="round"/>
<path d="M119.165 188.955L115.423 195.015L118.359 196.069L121.512 190.772L119.165 188.955Z" fill="#0F50A4" stroke="#263238" stroke-linecap="round" stroke-linejoin="round"/>
</svg>
