<svg width="18" height="18" viewBox="0 0 18 18" fill="none" xmlns="http://www.w3.org/2000/svg">
<path d="M14.9977 10.5308C14.9977 10.7718 14.8051 10.9619 14.574 10.9619C14.343 10.9619 14.1504 10.7718 14.1504 10.5308C14.1504 10.2897 14.343 10.0996 14.574 10.0996C14.8051 10.0996 14.9977 10.2897 14.9977 10.5308Z" stroke="white" stroke-width="0.59375"/>
<path d="M15.2785 8.24214H6.32837C6.25563 8.24464 6.1842 8.22229 6.12569 8.17873C6.06719 8.13516 6.02507 8.07295 6.00619 8.00221C5.98754 7.93289 5.9923 7.85931 6.0197 7.793C6.04711 7.72669 6.09562 7.67141 6.15761 7.63585L11.7539 4.39365C11.8286 4.35249 11.916 4.34092 11.9987 4.36123C12.0399 4.3723 12.0784 4.39147 12.1122 4.41762C12.1459 4.44378 12.1741 4.4764 12.1953 4.51361C12.213 4.54764 12.2335 4.58017 12.2565 4.61088C12.3983 4.80206 12.605 4.93412 12.8373 4.98195C13.0695 5.02977 13.3112 4.99002 13.5162 4.87026C13.553 4.84882 13.5936 4.83491 13.6357 4.82934C13.6779 4.82377 13.7207 4.82664 13.7617 4.83779C13.8027 4.84895 13.8412 4.86815 13.8748 4.89431C13.9084 4.92047 13.9366 4.95307 13.9576 4.99022L15.5492 7.76553C15.5774 7.81482 15.5923 7.87073 15.5923 7.92765C15.5923 7.98456 15.5774 8.04047 15.5492 8.08975C15.5204 8.13601 15.4806 8.17423 15.4333 8.20087C15.386 8.22751 15.3327 8.2417 15.2785 8.24214ZM3.48674 8.24214H1.99827C1.94149 8.24236 1.88567 8.22749 1.83645 8.19902C1.78723 8.17055 1.74635 8.1295 1.71797 8.08003C1.68969 8.03074 1.6748 7.97483 1.6748 7.91792C1.6748 7.86101 1.68969 7.80509 1.71797 7.75581L5.70334 0.811031C5.91422 0.441074 6.26149 0.169655 6.66988 0.0556006C6.8741 -6.76826e-05 7.08731 -0.0141168 7.29699 0.0142781C7.50668 0.042673 7.70861 0.11294 7.89094 0.220952L12.2951 2.76607C12.3447 2.79435 12.386 2.83536 12.4147 2.88491C12.4434 2.93447 12.4585 2.99079 12.4585 3.04814C12.4585 3.1055 12.4434 3.16182 12.4147 3.21138C12.386 3.26093 12.3447 3.30194 12.2951 3.33021C12.2951 3.33021 11.0554 4.0507 11.0064 4.07916C10.9574 4.10762 10.8453 4.1226 10.8453 4.1226L10.6842 4.07916L9.74697 4.21874C9.53791 4.45763 9.68121 4.43059 9.37584 4.51361C9.07046 4.59664 8.84095 4.92979 8.54078 4.82934L3.76704 8.08003C3.73865 8.1295 3.69778 8.17055 3.64856 8.19902C3.59933 8.22749 3.54351 8.24236 3.48674 8.24214ZM2.55564 7.5937H3.29987L6.17372 2.58451C6.19477 2.54736 6.22291 2.51477 6.25653 2.48861C6.29015 2.46245 6.32858 2.44324 6.36961 2.43209C6.41063 2.42094 6.45345 2.41807 6.49558 2.42364C6.53771 2.42921 6.57834 2.44311 6.61511 2.46455C6.72523 2.52899 6.84693 2.5709 6.9732 2.58785C7.09947 2.60479 7.22782 2.59646 7.35088 2.56331C7.47394 2.53017 7.58928 2.47287 7.69025 2.39472C7.79123 2.31656 7.87586 2.21909 7.93927 2.10791C7.98177 2.03375 8.05169 1.97952 8.13378 1.95704C8.21587 1.93457 8.30346 1.94568 8.37744 1.98795L10.8453 3.42424L11.4897 3.04814L7.58165 0.785094C7.3602 0.656722 7.09724 0.621834 6.8503 0.688062C6.60336 0.75429 6.39253 0.916242 6.26393 1.13849L2.55564 7.5937ZM9.04113 15.375C7.79751 15.375 6.78586 14.211 6.78586 12.7812C6.78586 11.3514 7.79751 10.1875 9.04113 10.1875C10.2847 10.1875 11.2964 11.3514 11.2964 12.7812C11.2964 14.211 10.2847 15.375 9.04113 15.375ZM9.04113 10.8359C8.15191 10.8359 7.43023 11.708 7.43023 12.7812C7.43023 13.8544 8.15191 14.7265 9.04113 14.7265C9.93034 14.7265 10.652 13.8544 10.652 12.7812C10.652 11.708 9.93034 10.8359 9.04113 10.8359Z" fill="white"/>
<path d="M16.7493 8.24844C16.7194 8.25311 16.6889 8.25311 16.6589 8.24844C16.5776 8.22103 16.4928 8.2049 16.407 8.20051H15.2314C15.1745 8.20073 15.1186 8.18607 15.0692 8.15802C15.0199 8.12996 14.9789 8.08951 14.9504 8.04075L13.5004 5.55481C13.1998 5.65418 12.8763 5.66384 12.5702 5.58259C12.2641 5.50134 11.9889 5.33277 11.779 5.09789L6.42112 8.15897C6.37158 8.18578 6.3161 8.20005 6.25964 8.20051H3.67597C3.60306 8.20298 3.53145 8.18095 3.47281 8.13802C3.41416 8.09508 3.37194 8.03377 3.35301 7.96406C3.33432 7.89574 3.33909 7.82322 3.36656 7.75787C3.39403 7.69252 3.44266 7.63804 3.5048 7.60299L12.1827 2.65349C12.5536 2.44164 12.9943 2.38423 13.408 2.49389C13.8217 2.60355 14.1744 2.8713 14.3885 3.23823L17.0303 7.76915C17.0627 7.8245 17.0775 7.88821 17.0729 7.95201C17.0683 8.01581 17.0445 8.07678 17.0045 8.12702C16.974 8.1651 16.9353 8.19583 16.8911 8.21686C16.8468 8.2379 16.7984 8.2487 16.7493 8.24844ZM15.4187 7.56145H16.1615L13.8233 3.55776C13.6944 3.33872 13.4831 3.17911 13.2355 3.11384C12.988 3.04857 12.7244 3.08296 12.5024 3.20947L10.949 4.09776L4.88384 7.56145H6.17567L11.7112 4.39812C11.7861 4.35755 11.8736 4.34615 11.9566 4.36617C11.9979 4.37708 12.0365 4.39596 12.0703 4.42174C12.1041 4.44752 12.1325 4.47967 12.1536 4.51634C12.1714 4.54988 12.192 4.58194 12.215 4.6122C12.3572 4.80062 12.5643 4.93077 12.7972 4.9779C13.03 5.02503 13.2722 4.98586 13.4778 4.86783C13.5146 4.8467 13.5553 4.833 13.5976 4.82751C13.6398 4.82202 13.6827 4.82485 13.7239 4.83584C13.765 4.84682 13.8035 4.86575 13.8372 4.89153C13.8709 4.91732 13.8991 4.94944 13.9202 4.98605L15.4187 7.56145Z" fill="white"/>
<path d="M15.0965 16.6855H2.90321C2.81811 16.6855 2.73649 16.651 2.67632 16.5894C2.61614 16.5279 2.58233 16.4444 2.58233 16.3574C2.58233 16.0963 2.48091 15.846 2.30039 15.6613C2.11986 15.4767 1.87501 15.373 1.6197 15.373C1.5346 15.373 1.45299 15.3385 1.39281 15.2769C1.33263 15.2154 1.29883 15.1319 1.29883 15.0449V10.4512C1.29883 10.3641 1.33263 10.2807 1.39281 10.2191C1.45299 10.1576 1.5346 10.123 1.6197 10.123C1.87501 10.123 2.11986 10.0193 2.30039 9.83473C2.48091 9.65012 2.58233 9.39974 2.58233 9.13867C2.58233 9.05165 2.61614 8.96819 2.67632 8.90665C2.73649 8.84512 2.81811 8.81055 2.90321 8.81055H15.0965C15.1816 8.81055 15.2632 8.84512 15.3234 8.90665C15.3836 8.96819 15.4174 9.05165 15.4174 9.13867C15.4174 9.39974 15.5188 9.65012 15.6993 9.83473C15.8799 10.0193 16.1247 10.123 16.38 10.123C16.4651 10.123 16.5467 10.1576 16.6069 10.2191C16.6671 10.2807 16.7009 10.3641 16.7009 10.4512V15.0449C16.7009 15.1319 16.6671 15.2154 16.6069 15.2769C16.5467 15.3385 16.4651 15.373 16.38 15.373C16.1247 15.373 15.8799 15.4767 15.6993 15.6613C15.5188 15.846 15.4174 16.0963 15.4174 16.3574C15.4174 16.4444 15.3836 16.5279 15.3234 16.5894C15.2632 16.651 15.1816 16.6855 15.0965 16.6855ZM3.192 16.0293H14.8077C14.8706 15.714 15.0228 15.4246 15.2453 15.197C15.4678 14.9695 15.7508 14.8139 16.0591 14.7496V10.7465C15.7508 10.6822 15.4678 10.5266 15.2453 10.299C15.0228 10.0715 14.8706 9.78209 14.8077 9.4668H3.192C3.12912 9.78209 2.97695 10.0715 2.75445 10.299C2.53194 10.5266 2.24891 10.6822 1.94058 10.7465V14.7496C2.24891 14.8139 2.53194 14.9695 2.75445 15.197C2.97695 15.4246 3.12912 15.714 3.192 16.0293Z" fill="white"/>
<path d="M16.3929 17.998H1.60714C1.46134 17.9991 1.31617 17.9785 1.17643 17.9367C0.838481 17.8425 0.540571 17.64 0.328159 17.3601C0.115746 17.0802 0.000497823 16.7384 0 16.3867V9.29689C0 8.86954 0.169323 8.4597 0.470721 8.15752C0.772119 7.85534 1.1809 7.68558 1.60714 7.68558H16.3929C16.5376 7.68466 16.6817 7.7053 16.8204 7.74681C17.1589 7.84047 17.4575 8.04273 17.6706 8.32266C17.8836 8.60259 17.9993 8.94478 18 9.29689V16.3867C18 16.814 17.8307 17.2239 17.5293 17.526C17.2279 17.8282 16.8191 17.998 16.3929 17.998ZM1.60714 8.3301C1.3514 8.3301 1.10613 8.43196 0.92529 8.61327C0.744451 8.79457 0.642857 9.04048 0.642857 9.29689V16.3867C0.643654 16.5975 0.713182 16.8023 0.840846 16.9699C0.96851 17.1374 1.14731 17.2586 1.35 17.3148C1.43336 17.3402 1.52 17.3532 1.60714 17.3535H16.3929C16.6486 17.3535 16.8939 17.2516 17.0747 17.0703C17.2555 16.889 17.3571 16.6431 17.3571 16.3867V9.29689C17.3563 9.08604 17.2868 8.88123 17.1592 8.71367C17.0315 8.54612 16.8527 8.425 16.65 8.36877C16.5665 8.34382 16.48 8.3308 16.3929 8.3301H1.60714Z" fill="white"/>
<path d="M15.0965 16.6855H2.90321C2.81811 16.6855 2.73649 16.651 2.67632 16.5894C2.61614 16.5279 2.58233 16.4444 2.58233 16.3574C2.58233 16.0963 2.48091 15.846 2.30039 15.6613C2.11986 15.4767 1.87501 15.373 1.6197 15.373C1.5346 15.373 1.45299 15.3385 1.39281 15.2769C1.33263 15.2154 1.29883 15.1319 1.29883 15.0449V10.4512C1.29883 10.3641 1.33263 10.2807 1.39281 10.2191C1.45299 10.1576 1.5346 10.123 1.6197 10.123C1.87501 10.123 2.11986 10.0193 2.30039 9.83473C2.48091 9.65012 2.58233 9.39974 2.58233 9.13867C2.58233 9.05165 2.61614 8.96819 2.67632 8.90665C2.73649 8.84512 2.81811 8.81055 2.90321 8.81055H15.0965C15.1816 8.81055 15.2632 8.84512 15.3234 8.90665C15.3836 8.96819 15.4174 9.05165 15.4174 9.13867C15.4174 9.39974 15.5188 9.65012 15.6993 9.83473C15.8799 10.0193 16.1247 10.123 16.38 10.123C16.4651 10.123 16.5467 10.1576 16.6069 10.2191C16.6671 10.2807 16.7009 10.3641 16.7009 10.4512V15.0449C16.7009 15.1319 16.6671 15.2154 16.6069 15.2769C16.5467 15.3385 16.4651 15.373 16.38 15.373C16.1247 15.373 15.8799 15.4767 15.6993 15.6613C15.5188 15.846 15.4174 16.0963 15.4174 16.3574C15.4174 16.4444 15.3836 16.5279 15.3234 16.5894C15.2632 16.651 15.1816 16.6855 15.0965 16.6855Z" fill="white"/>
<path d="M11.5176 12.7291C11.5176 14.003 10.4964 15.0304 9.24317 15.0304C7.98995 15.0304 6.96875 14.003 6.96875 12.7291C6.96875 11.4552 7.98995 10.4277 9.24317 10.4277C10.4964 10.4277 11.5176 11.4552 11.5176 12.7291Z" fill="#0F50A4" stroke="white" stroke-width="0.59375"/>
<path d="M6.13536 2.62512L3.27344 7.60954L10.8048 3.42415L8.50775 2.05438C8.23662 1.81086 8.04331 1.95291 7.98055 2.05438C7.56632 2.66316 6.92616 2.62511 6.6249 2.47292C6.3839 2.35116 6.24833 2.43487 6.13536 2.62512Z" fill="white"/>
</svg>
