<svg width="14" height="16" viewBox="0 0 14 16" fill="none" xmlns="http://www.w3.org/2000/svg">
<g opacity="0.7">
<path d="M7.00057 11.7848H11.7117L11.3372 12.1704C11.2565 12.2534 11.2118 12.3653 11.2118 12.4815C11.2118 12.5976 11.2565 12.7096 11.3372 12.7926C11.4179 12.8757 11.528 12.9229 11.6434 12.9229C11.7588 12.9229 11.8689 12.8757 11.9496 12.7926L13.0551 11.6545C13.095 11.6133 13.1265 11.5647 13.148 11.5113C13.1694 11.458 13.1805 11.4009 13.1805 11.3434C13.1805 11.2858 13.1694 11.2287 13.148 11.1754C13.1265 11.122 13.095 11.0734 13.0551 11.0322L11.9496 9.8941C11.8689 9.81101 11.7588 9.76377 11.6434 9.76377C11.528 9.76377 11.4179 9.81101 11.3372 9.8941C11.2565 9.9771 11.2118 10.0891 11.2118 10.2052C11.2118 10.3214 11.2565 10.4333 11.3372 10.5163L11.7117 10.9019H7.00057C6.88514 10.9019 6.77505 10.9491 6.69434 11.0322C6.61373 11.1152 6.56895 11.2272 6.56895 11.3434C6.56895 11.4595 6.61373 11.5715 6.69434 11.6545C6.77505 11.7376 6.88514 11.7848 7.00057 11.7848Z" fill="#6D7174" stroke="#6D7174" stroke-width="0.2"/>
<path d="M8.40564 15.0274L8.07134 14.7406H12.7488C12.8588 14.7406 12.9667 14.7032 13.0484 14.6331C13.1306 14.5626 13.1805 14.4634 13.1805 14.356C13.1805 14.2487 13.1306 14.1495 13.0484 14.0789C12.9667 14.0088 12.8588 13.9715 12.7488 13.9715H8.07134L8.40564 13.6847L8.40564 13.6847C8.48782 13.6142 8.53766 13.5149 8.53766 13.4076C8.53766 13.3002 8.48782 13.201 8.40564 13.1305C8.32393 13.0604 8.21597 13.023 8.10602 13.023C7.99607 13.023 7.88811 13.0604 7.8064 13.1305L6.70097 14.0789C6.70097 14.0789 6.70097 14.0789 6.70097 14.0789C6.66034 14.1138 6.62714 14.156 6.60414 14.2037C6.5811 14.2514 6.56895 14.3032 6.56895 14.356C6.56895 14.4089 6.5811 14.4607 6.60414 14.5084C6.62714 14.556 6.66034 14.5983 6.70097 14.6331C6.70097 14.6331 6.70097 14.6331 6.70097 14.6331L7.8064 15.5816C7.88811 15.6517 7.99607 15.689 8.10602 15.689C8.21597 15.689 8.32393 15.6517 8.40564 15.5816C8.48782 15.5111 8.53766 15.4118 8.53766 15.3045C8.53766 15.1971 8.48782 15.0979 8.40564 15.0274Z" fill="#6D7174" stroke="#6D7174" stroke-width="0.2"/>
<path fill-rule="evenodd" clip-rule="evenodd" d="M5.21173 8.02309C4.70303 7.79644 4.2478 7.47145 3.8702 7.07227C1.8818 8.33726 -0.290818 10.8194 0.0321064 14.856C0.065138 15.2689 0.426632 15.5768 0.839527 15.5438C1.25242 15.5107 1.56036 15.1492 1.52733 14.7364C1.23121 11.0349 3.47077 8.92491 5.21173 8.02309Z" fill="#6D7174"/>
<circle cx="6.94215" cy="4.19215" r="3.44215" fill="white" stroke="#6D7174" stroke-width="1.5"/>
</g>
</svg>
