<svg width="15" height="17" viewBox="0 0 15 17" fill="none" xmlns="http://www.w3.org/2000/svg">
<path opacity="0.7" d="M7.47727 11.3753V8.69167L1.68182 5.43999V11.7487C1.68183 11.8073 1.69766 11.8649 1.7277 11.9156C1.75775 11.9664 1.80095 12.0085 1.85295 12.0377L7.64841 15.2887C7.70007 15.3177 7.7586 15.333 7.81818 15.333C7.87775 15.333 7.93629 15.3177 7.98795 15.2887L13.7834 12.0377C13.8354 12.0085 13.8786 11.9664 13.9087 11.9156C13.9387 11.8649 13.9545 11.8073 13.9545 11.7487V5.25098C13.9545 5.19235 13.9387 5.13476 13.9087 5.08402C13.8786 5.03328 13.8354 4.99118 13.7834 4.96198L7.98795 1.71097C7.93629 1.68196 7.87775 1.66669 7.81818 1.66669C7.7586 1.66669 7.70007 1.68196 7.64841 1.71097L5.66875 2.82164C5.79621 3.12102 5.80772 3.45556 5.70112 3.76264C5.59452 4.06971 5.37712 4.32828 5.08961 4.48994C4.80211 4.65159 4.4642 4.70526 4.13915 4.64088C3.81409 4.57651 3.52418 4.39851 3.32366 4.1402C3.12314 3.8819 3.02578 3.561 3.04978 3.23756C3.07379 2.91413 3.21753 2.61033 3.45409 2.38305C3.69064 2.15576 4.00381 2.02056 4.33496 2.00275C4.66612 1.98494 4.99256 2.08575 5.25318 2.2863L7.3092 1.13263C7.46411 1.04573 7.63959 1 7.81818 1C7.99677 1 8.17225 1.04573 8.32716 1.13263L14.1226 4.38365C14.2787 4.47123 14.4084 4.59755 14.4986 4.74984C14.5888 4.90213 14.6364 5.075 14.6364 5.25098V11.749C14.6364 11.925 14.5888 12.0979 14.4986 12.2502C14.4084 12.4025 14.2787 12.5288 14.1226 12.6164L8.32716 15.8674C8.17225 15.9543 7.99677 16 7.81818 16C7.63959 16 7.46411 15.9543 7.3092 15.8674L1.51375 12.6164C1.35763 12.5288 1.22792 12.4025 1.13772 12.2502C1.04751 12.0979 1.00001 11.925 1 11.749V5.43999C1.00006 5.32315 1.03151 5.20838 1.09122 5.10718C1.15093 5.00597 1.23679 4.92189 1.34019 4.86335C1.4436 4.80481 1.56093 4.77387 1.68042 4.77363C1.79991 4.77339 1.91737 4.80386 2.02102 4.86198L7.82159 8.11566L10.2144 6.82766C10.1743 6.50574 10.2556 6.18058 10.443 5.91302C10.6304 5.64547 10.9111 5.45388 11.2326 5.3741C11.5541 5.29433 11.8943 5.33185 12.1895 5.47963C12.4847 5.62742 12.7147 5.87534 12.8365 6.17699C12.9582 6.47864 12.9634 6.81334 12.851 7.11843C12.7385 7.42352 12.5163 7.6781 12.2257 7.8345C11.9352 7.9909 11.5963 8.0384 11.2725 7.96812C10.9487 7.89784 10.6623 7.71458 10.4667 7.45266L8.15909 8.69567V11.3757C8.47941 11.4578 8.75823 11.6511 8.94357 11.9195C9.1289 12.1878 9.20809 12.5129 9.16636 12.8341C9.12463 13.1553 8.96484 13.4508 8.71678 13.6653C8.46872 13.8798 8.14934 13.9988 7.81818 14C7.48604 14.0003 7.16521 13.8821 6.91589 13.6676C6.66657 13.453 6.50591 13.1568 6.46406 12.8347C6.42222 12.5125 6.50206 12.1865 6.68861 11.9178C6.87517 11.6491 7.1556 11.4562 7.47727 11.3753ZM11.5682 7.33333C11.6577 7.33334 11.7464 7.31611 11.8291 7.28261C11.9119 7.24911 11.987 7.20001 12.0504 7.1381C12.1137 7.0762 12.1639 7.0027 12.1982 6.92181C12.2325 6.84092 12.2501 6.75422 12.2501 6.66666C12.2501 6.5791 12.2325 6.4924 12.1982 6.41151C12.1639 6.33062 12.1137 6.25712 12.0504 6.19521C11.987 6.1333 11.9119 6.0842 11.8291 6.0507C11.7464 6.01721 11.6577 5.99997 11.5682 5.99999C11.3874 6.00002 11.214 6.07027 11.0861 6.19529C10.9583 6.32031 10.8865 6.48987 10.8865 6.66666C10.8865 6.84345 10.9583 7.013 11.0861 7.13803C11.214 7.26305 11.3874 7.3333 11.5682 7.33333ZM4.40909 3.99998C4.49864 3.99999 4.58731 3.98276 4.67004 3.94926C4.75278 3.91577 4.82796 3.86666 4.89128 3.80475C4.95461 3.74285 5.00484 3.66935 5.03911 3.58846C5.07338 3.50757 5.09102 3.42087 5.09102 3.33331C5.09102 3.24575 5.07338 3.15905 5.03911 3.07816C5.00484 2.99727 4.95461 2.92377 4.89128 2.86186C4.82796 2.79996 4.75278 2.75085 4.67004 2.71735C4.58731 2.68386 4.49864 2.66662 4.40909 2.66664C4.22828 2.66667 4.05489 2.73692 3.92704 2.86194C3.7992 2.98696 3.72738 3.15652 3.72738 3.33331C3.72738 3.5101 3.7992 3.67966 3.92704 3.80468C4.05489 3.9297 4.22828 3.99995 4.40909 3.99998ZM7.81818 13.3334C7.90773 13.3334 7.9964 13.3161 8.07913 13.2826C8.16187 13.2491 8.23705 13.2 8.30037 13.1381C8.3637 13.0762 8.41393 13.0027 8.4482 12.9218C8.48247 12.8409 8.50011 12.7542 8.50011 12.6667C8.50011 12.5791 8.48247 12.4924 8.4482 12.4115C8.41393 12.3306 8.3637 12.2571 8.30037 12.1952C8.23705 12.1333 8.16187 12.0842 8.07913 12.0507C7.9964 12.0172 7.90773 12 7.81818 12C7.63737 12 7.46398 12.0703 7.33613 12.1953C7.20829 12.3203 7.13647 12.4899 7.13647 12.6667C7.13647 12.8435 7.20829 13.013 7.33613 13.1381C7.46398 13.2631 7.63737 13.3333 7.81818 13.3334Z" fill="#6D7174" stroke="#6D7174" stroke-width="0.4"/>
</svg>
