<svg width="17" height="17" viewBox="0 0 17 17" fill="none" xmlns="http://www.w3.org/2000/svg">
<path d="M9.02165 2.77812C9.43764 3.19498 9.81735 3.57819 10.2014 3.95791C10.2705 4.03291 10.3606 4.08525 10.46 4.10802C10.5594 4.1308 10.6633 4.12294 10.7581 4.0855C10.9631 4.0134 11.0749 3.86178 11.0976 3.64854C11.1073 3.5724 11.099 3.49506 11.0736 3.42264C11.0482 3.35022 11.0063 3.2847 10.9513 3.23125C10.2578 2.53649 9.5661 1.83998 8.86785 1.15046C8.64543 0.931982 8.34612 0.937225 8.12196 1.1592C7.43302 1.84318 6.74686 2.5295 6.06346 3.21814C5.84498 3.43662 5.84498 3.75866 6.04729 3.96621C6.2496 4.17376 6.58256 4.17333 6.80759 3.95004C7.18687 3.57382 7.56047 3.19192 7.9616 2.7873V5.18663H7.78113C6.17284 5.18663 4.56455 5.18663 2.95626 5.18663C1.97179 5.18663 1.20843 5.82153 1.02753 6.78152C1.00608 6.92144 0.9973 7.063 1.00131 7.2045C0.999563 8.68811 0.999563 10.1713 1.00131 11.654C1.00131 12.4445 1.00131 13.2349 1.00131 14.0254C1.00437 15.1763 1.83153 15.9996 2.98378 16C6.66383 16 10.3437 16 14.0235 16C15.0285 16 15.798 15.366 15.9758 14.3937C15.9944 14.2753 16.0023 14.1553 15.9994 14.0354C15.9994 11.74 15.9994 9.44463 15.9994 7.14944C15.9994 6.15493 15.3619 5.38982 14.3967 5.21023C14.3162 5.19589 14.2346 5.18873 14.1528 5.18881C12.9696 5.18707 11.7866 5.18619 10.6039 5.18619C10.505 5.18233 10.4071 5.20771 10.3226 5.25916C10.238 5.31061 10.1705 5.38584 10.1285 5.47546C10.0837 5.55718 10.0634 5.65001 10.0698 5.74294C10.0763 5.83588 10.1092 5.92502 10.1647 5.99981C10.2866 6.18114 10.468 6.23227 10.676 6.23183C11.6626 6.23008 12.6494 6.23008 13.6364 6.23183C13.7998 6.23183 13.9636 6.2279 14.1266 6.23533C14.5758 6.25499 14.9446 6.60499 14.9472 7.05156C14.9568 8.49658 14.952 9.94159 14.952 11.3866C14.9495 11.4106 14.9448 11.4343 14.938 11.4574H2.05394C2.05088 11.3949 2.04564 11.3368 2.04564 11.2791C2.04564 9.91581 2.04564 8.55265 2.04564 7.18964C2.04564 6.58096 2.39127 6.23227 2.99558 6.23183C4.59776 6.23183 6.19993 6.23183 7.80211 6.23183H7.97339V6.41273C7.97339 7.10487 7.97121 7.79745 7.97339 8.49002C7.97083 8.61969 8.01666 8.74567 8.10194 8.84339C8.18721 8.9411 8.30583 9.00355 8.43466 9.01856C8.56348 9.03356 8.69328 9.00005 8.79873 8.92455C8.90419 8.84905 8.97774 8.73698 9.00505 8.61019C9.0177 8.53501 9.02224 8.45868 9.01859 8.38253C9.01859 6.58868 9.01859 4.79482 9.01859 3.00097L9.02165 2.77812ZM2.05612 12.5223H14.9433C14.9463 12.5629 14.9507 12.5944 14.9507 12.6258C14.9507 13.1113 14.9507 13.5963 14.9507 14.0813C14.9505 14.1576 14.9405 14.2335 14.921 14.3072C14.8087 14.721 14.4788 14.95 13.9955 14.95H3.00519C2.95057 14.95 2.89596 14.95 2.84177 14.9461C2.45507 14.9207 2.08322 14.6127 2.06355 14.2308C2.03428 13.6688 2.05612 13.1021 2.05612 12.5244V12.5223Z" fill="#0A0B09" stroke="#0A0B09" stroke-width="0.2"/>
<path d="M4.63796 9.02077C4.31111 9.02077 3.98252 9.02077 3.65699 9.02077C3.32315 9.02077 3.09288 9.23925 3.09375 9.54512C3.09463 9.85099 3.32315 10.0655 3.6618 10.0664C4.32684 10.0664 4.99175 10.0664 5.6565 10.0664C5.99078 10.0664 6.22804 9.85099 6.23285 9.54949C6.23766 9.24799 5.99515 9.02121 5.65301 9.01989C5.31087 9.01858 4.97747 9.02077 4.63796 9.02077Z" fill="#0A0B09"/>
<path d="M4.31152 7.27812C4.08299 7.27812 3.85446 7.27418 3.62593 7.27812C3.32006 7.2838 3.10159 7.49441 3.09459 7.78193C3.09057 7.85168 3.10095 7.92152 3.12508 7.98708C3.14922 8.05265 3.18659 8.11255 3.23488 8.16305C3.28316 8.21355 3.34133 8.25357 3.40575 8.28061C3.47017 8.30766 3.53947 8.32116 3.60933 8.32026C4.07542 8.33075 4.5434 8.33075 5.01327 8.32026C5.08307 8.32071 5.15222 8.3069 5.21648 8.27968C5.28075 8.25245 5.33878 8.21239 5.38701 8.16195C5.43525 8.1115 5.47268 8.05174 5.49699 7.98631C5.52131 7.92089 5.53202 7.8512 5.52844 7.78149C5.52189 7.49398 5.30341 7.2838 4.99711 7.27812C4.76858 7.27418 4.54092 7.27812 4.31152 7.27812Z" fill="#0A0B09"/>
</svg>
