<svg width="23" height="22" viewBox="0 0 23 22" fill="none" xmlns="http://www.w3.org/2000/svg">
<path d="M22.1551 18.5828H12.1493C11.7548 18.5828 11.4346 18.264 11.4346 17.8681C11.4346 17.4721 11.4346 3.96859 11.4346 3.57407C11.4346 3.17956 11.7548 2.85938 12.1493 2.85938H22.1551C22.5496 2.85938 22.8698 3.17956 22.8698 3.57407V17.8681C22.8698 18.264 22.5496 18.5828 22.1551 18.5828Z" fill="#DCE0E2"/>
<path d="M19.2963 7.1462H12.1493C11.7548 7.1462 11.4346 6.82744 11.4346 6.4315C11.4346 6.03555 11.7548 5.7168 12.1493 5.7168H19.2963C19.6908 5.7168 20.011 6.03698 20.011 6.4315C20.011 6.82601 19.6908 7.1462 19.2963 7.1462Z" fill="#1976D2"/>
<path d="M19.2963 10.0075H12.1493C11.7548 10.0075 11.4346 9.68877 11.4346 9.29282C11.4346 8.89688 11.7548 8.57812 12.1493 8.57812H19.2963C19.6908 8.57812 20.011 8.89831 20.011 9.29282C20.011 9.68734 19.6908 10.0075 19.2963 10.0075Z" fill="#1976D2"/>
<path d="M19.2963 12.8649H12.1493C11.7548 12.8649 11.4346 12.5462 11.4346 12.1502C11.4346 11.7543 11.7548 11.4355 12.1493 11.4355H19.2963C19.6908 11.4355 20.011 11.7557 20.011 12.1502C20.011 12.5448 19.6908 12.8649 19.2963 12.8649Z" fill="#1976D2"/>
<path d="M19.2963 15.7243H12.1493C11.7548 15.7243 11.4346 15.4056 11.4346 15.0096C11.4346 14.6137 11.7548 14.2949 12.1493 14.2949H19.2963C19.6908 14.2949 20.011 14.6151 20.011 15.0096C20.011 15.4041 19.6908 15.7243 19.2963 15.7243Z" fill="#1976D2"/>
<path d="M12.6059 0.16619C12.4429 0.0289677 12.2242 -0.0282082 12.0184 0.0132444L0.583195 2.15734C0.245857 2.22024 0 2.51612 0 2.85918V18.5826C0 18.9256 0.244427 19.2215 0.583195 19.2844L12.0184 21.4285C12.0627 21.4371 12.1056 21.4414 12.1499 21.4414C12.3157 21.4414 12.4772 21.3842 12.6059 21.277C12.7703 21.1412 12.8646 20.9397 12.8646 20.7267V0.71508C12.8646 0.502099 12.7703 0.301983 12.6059 0.16619Z" fill="#1565C0"/>
<path d="M9.28652 14.3728C9.24935 14.7001 8.99206 14.9617 8.66473 15.0017C8.63471 15.006 8.60612 15.0074 8.57611 15.0074C8.28165 15.0074 8.01292 14.8245 7.90715 14.5443L6.43201 10.6106L4.95686 14.5443C4.84251 14.8502 4.54234 15.0374 4.21072 15.0031C3.88624 14.9688 3.62609 14.7172 3.58035 14.3928L2.86565 9.38988C2.80991 9.00108 3.08149 8.63801 3.47172 8.58227C3.86337 8.52509 4.22501 8.79811 4.28076 9.18833L4.59951 11.4239L5.76162 8.32355C5.97031 7.76608 6.89084 7.76608 7.10096 8.32355L8.19589 11.2424L8.58039 7.78037C8.6247 7.38872 8.98777 7.10713 9.36942 7.14858C9.76251 7.19432 10.0441 7.54738 10.0012 7.93904L9.28652 14.3728Z" fill="#FAFAFA"/>
</svg>
