<svg width="16" height="16" viewBox="0 0 16 16" fill="none" xmlns="http://www.w3.org/2000/svg">
<path fill-rule="evenodd" clip-rule="evenodd" d="M5.71811 4.95831C5.50808 4.74827 5.16756 4.74827 4.95753 4.95831C4.7475 5.16835 4.7475 5.50889 4.95753 5.71893L7.23938 8.00088L4.95773 10.2826C4.7477 10.4927 4.7477 10.8332 4.95773 11.0433C5.16776 11.2533 5.50829 11.2533 5.71832 11.0433L7.99997 8.7615L10.2816 11.0433C10.4917 11.2533 10.8322 11.2533 11.0422 11.0433C11.2522 10.8332 11.2522 10.4927 11.0422 10.2826L8.76056 8.00088L11.0424 5.71893C11.2524 5.50889 11.2524 5.16835 11.0424 4.95831C10.8324 4.74827 10.4919 4.74827 10.2818 4.95831L7.99997 7.24027L5.71811 4.95831Z" fill="#0F50A4"/>
<rect x="0.5" y="0.5" width="15" height="15" rx="7.5" stroke="#0F50A4"/>
</svg>
