<svg width="24" height="25" viewBox="0 0 24 25" fill="none" xmlns="http://www.w3.org/2000/svg">
<path d="M12 12.6681C14.7189 12.6681 16.9231 10.4894 16.9231 7.80184C16.9231 5.11426 14.7189 2.93555 12 2.93555C9.28106 2.93555 7.07692 5.11426 7.07692 7.80184C7.07692 10.4894 9.28106 12.6681 12 12.6681Z" fill="#0F50A4"/>
<path d="M14.5641 14.6958H9.4359C6.46154 14.6958 4 17.129 4 20.069C4 20.7787 4.30769 21.387 4.92308 21.6911C5.84615 22.198 7.89744 22.8063 12 22.8063C16.1026 22.8063 18.1538 22.198 19.0769 21.6911C19.5897 21.387 20 20.7787 20 20.069C20 17.0276 17.5385 14.6958 14.5641 14.6958Z" fill="#0F50A4"/>
</svg>
