<svg width="22" height="22" viewBox="0 0 22 22" fill="none" xmlns="http://www.w3.org/2000/svg">
<path d="M9.51357 4.16188C9.52505 4.22696 9.52123 4.29587 9.50974 4.36095C9.49443 4.42603 9.46763 4.48728 9.42935 4.54088C9.39106 4.59448 9.3413 4.64042 9.28387 4.67487C9.22645 4.70933 9.16519 4.7323 9.10011 4.74378C7.91717 4.92754 6.83758 5.53241 6.06044 6.44355C5.28329 7.35468 4.85835 8.51466 4.85835 9.71292C4.85835 9.92348 4.87749 10.1493 4.91577 10.425C4.92726 10.4977 4.9196 10.5705 4.90046 10.6394C4.88132 10.7083 4.84304 10.7734 4.7971 10.827C4.74733 10.8806 4.6899 10.9265 4.62482 10.9533C4.55974 10.9839 4.487 10.9992 4.41427 10.9954C4.29176 10.9954 4.17308 10.9495 4.0812 10.8729C3.98933 10.7925 3.92807 10.6815 3.91276 10.5628C3.87065 10.2795 3.84768 9.99621 3.84768 9.70909C3.84385 8.26965 4.35301 6.87997 5.28712 5.78508C6.22123 4.69018 7.51519 3.96663 8.93549 3.74459C9.00058 3.73311 9.06949 3.73694 9.13457 3.75225C9.19965 3.76756 9.2609 3.79436 9.3145 3.83264C9.36809 3.87093 9.41403 3.9207 9.44849 3.97812C9.47911 4.03554 9.50591 4.0968 9.51357 4.16188Z" fill="#ED1E26"/>
<path d="M21.5841 20.8686C21.5535 20.7958 21.5075 20.7269 21.4501 20.6733L15.7115 14.9423C17.0629 13.4072 17.8094 11.4318 17.8056 9.38748C17.8056 4.72077 14.0002 0.923096 9.32589 0.923096C4.65153 0.923096 0.846191 4.72077 0.846191 9.39131C0.846191 14.058 4.6477 17.8557 9.32589 17.8557C11.3549 17.8595 13.3188 17.1321 14.854 15.8037L20.5964 21.5347C20.65 21.5921 20.7189 21.6342 20.7917 21.6648C20.8644 21.6955 20.9448 21.7108 21.0214 21.7108C21.1017 21.7108 21.1783 21.6955 21.2549 21.6648C21.3276 21.6342 21.3965 21.5883 21.4501 21.5347C21.5075 21.4773 21.5535 21.4122 21.5803 21.3394C21.6109 21.2667 21.6262 21.1863 21.6262 21.1059C21.6301 21.0179 21.6147 20.9413 21.5841 20.8686ZM14.4788 14.5289C13.805 15.2065 13.0011 15.7463 12.1167 16.11C11.2324 16.4775 10.283 16.6613 9.32589 16.6613C5.30617 16.6613 2.04062 13.3995 2.04062 9.38748C2.04062 5.37541 5.30999 2.1137 9.32589 2.1137C13.3456 2.1137 16.6111 5.37541 16.6111 9.38748C16.615 10.3446 16.4274 11.2901 16.0599 12.1707C15.6962 13.055 15.1564 13.8551 14.4788 14.5289Z" fill="#0F50A4"/>
</svg>
