<svg width="29" height="26" viewBox="0 0 29 26" fill="none" xmlns="http://www.w3.org/2000/svg">
<path d="M12.0669 17.9652L12.0671 17.9641C12.1424 17.5274 11.9933 17.0774 11.6748 16.7739C11.6747 16.7738 11.6746 16.7738 11.6746 16.7737L10.1247 15.2937L12.292 14.9869C12.2923 14.9868 12.2927 14.9868 12.293 14.9867C12.7289 14.9263 13.1053 14.6554 13.3012 14.2638C13.3013 14.2637 13.3013 14.2636 13.3014 14.2635L14.2954 12.282L15.2932 14.2583C15.4822 14.6595 15.8644 14.927 16.2948 14.9867C16.2951 14.9868 16.2955 14.9868 16.2958 14.9869L18.4604 15.2933L16.9041 16.7734L16.9038 16.7737C16.5852 17.0772 16.4359 17.5273 16.5113 17.9641L16.5114 17.9652L16.8838 20.0967L14.901 19.0729C14.9008 19.0728 14.9006 19.0727 14.9004 19.0726C14.5209 18.8755 14.0575 18.8755 13.678 19.0726C13.6778 19.0727 13.6776 19.0728 13.6774 19.0729L11.6946 20.0967L12.0669 17.9652Z" stroke="#ED1E26"/>
<path d="M25.7835 25.5201H2.80419C1.26094 25.5201 0.00941003 24.2591 0 22.7253V6.65295H28.5688V22.7253C28.5783 24.2591 27.3173 25.5201 25.7835 25.5201ZM1.42091 22.7159C1.42091 23.4781 2.04198 24.1086 2.8136 24.1086H25.7835C26.5457 24.1086 27.1668 23.4875 27.1762 22.7159V8.06446H1.42091V22.7159Z" fill="#0F50A4"/>
<path d="M26.1977 0.0376396H26.1507L3.79246 0H3.31255H2.82323C1.27999 0 0.028453 1.26094 0.019043 2.80419V8.00794H28.5879V2.80419C28.5785 1.40209 27.5434 0.23525 26.1977 0.0376396ZM27.167 6.59643H1.42114V2.80419C1.42114 2.04198 2.0422 1.4115 2.81382 1.4115H25.7837C26.5459 1.4115 27.1764 2.03257 27.1764 2.80419V6.59643H27.167Z" fill="#0F50A4"/>
</svg>
