<svg width="26" height="26" viewBox="0 0 26 26" fill="none" xmlns="http://www.w3.org/2000/svg">
<path d="M12.3383 10.6132H7.98203C7.55173 10.6132 7.20203 10.2635 7.20203 9.83322C7.20203 9.40292 7.55173 9.05322 7.98203 9.05322H12.3383C12.7686 9.05322 13.1183 9.40292 13.1183 9.83322C13.1183 10.2635 12.7699 10.6132 12.3383 10.6132ZM14.8538 14.9695H7.98203C7.55173 14.9695 7.20203 14.6198 7.20203 14.1895C7.20203 13.7592 7.55173 13.4095 7.98203 13.4095H14.8525C15.2828 13.4095 15.6325 13.7592 15.6325 14.1895C15.6325 14.6198 15.2841 14.9695 14.8538 14.9695ZM17.1938 19.3011H7.98203C7.55173 19.3011 7.20203 18.9514 7.20203 18.5211C7.20203 18.0908 7.55173 17.7411 7.98203 17.7411H17.1925C17.6228 17.7411 17.9725 18.0908 17.9725 18.5211C17.9725 18.9514 17.6241 19.3011 17.1938 19.3011Z" fill="#ED1E26"/>
<path d="M22.3574 8.19532L15.5194 1.95532C15.3758 1.82429 15.1886 1.75151 14.9942 1.75122H7.3385C5.4743 1.75122 3.9585 3.26702 3.9585 5.13122V20.8092C3.9585 22.6734 5.4743 24.1892 7.3385 24.1892H19.2322C21.0964 24.1892 22.6122 22.6734 22.6122 20.8092V8.77122C22.6122 8.55152 22.5199 8.34222 22.3574 8.19532ZM20.2748 8.40592H15.6871C15.5337 8.40592 15.4089 8.28112 15.4089 8.12772V3.96512L20.2748 8.40592ZM19.2322 22.6279H7.3385C6.3349 22.6279 5.5185 21.8115 5.5185 20.8079V5.13122C5.5185 4.12762 6.3349 3.31122 7.3385 3.31122H13.8489V8.12772C13.8489 9.14172 14.6731 9.96592 15.6871 9.96592H21.0522V20.8079C21.0522 21.8115 20.2358 22.6279 19.2322 22.6279Z" fill="#0F50A4"/>
</svg>
