<svg width="45" height="45" viewBox="0 0 45 45" fill="none" xmlns="http://www.w3.org/2000/svg">
<path d="M37.9845 39.7395H7.173C3.9465 39.7395 1.323 37.116 1.323 33.8895V10.719C1.323 7.49252 3.9465 4.86902 7.173 4.86902H37.9845C41.211 4.86902 43.8345 7.49252 43.8345 10.719V33.8895C43.8345 37.1138 41.2087 39.7395 37.9845 39.7395ZM7.173 7.56902C5.436 7.56902 4.023 8.98202 4.023 10.719V33.8895C4.023 35.6265 5.436 37.0395 7.173 37.0395H37.9845C39.7215 37.0395 41.1345 35.6265 41.1345 33.8895V10.719C41.1345 8.98202 39.7215 7.56902 37.9845 7.56902H7.173Z" fill="#0F50A4"/>
<path d="M35.2463 16.7018H26.6851C25.9403 16.7018 25.3351 16.0966 25.3351 15.3518C25.3351 14.6071 25.9403 14.0018 26.6851 14.0018H35.2441C35.9889 14.0018 36.5941 14.6071 36.5941 15.3518C36.5941 16.0966 35.9911 16.7018 35.2463 16.7018ZM35.2463 23.8501H27.8348C27.0901 23.8501 26.4848 23.2448 26.4848 22.5001C26.4848 21.7553 27.0901 21.1501 27.8348 21.1501H35.2463C35.9911 21.1501 36.5964 21.7553 36.5964 22.5001C36.5964 23.2448 35.9911 23.8501 35.2463 23.8501ZM35.2463 30.8926H29.3851C28.6403 30.8926 28.0351 30.2873 28.0351 29.5426C28.0351 28.7978 28.6403 28.1926 29.3851 28.1926H35.2441C35.9889 28.1926 36.5941 28.7978 36.5941 29.5426C36.5964 30.2873 35.9911 30.8926 35.2463 30.8926Z" fill="#0F50A4"/>
<path d="M16.173 23.0783C13.0523 23.0783 10.5143 20.5402 10.5143 17.4195C10.5143 14.2987 13.0523 11.7607 16.173 11.7607C19.2938 11.7607 21.8318 14.2987 21.8318 17.4195C21.8318 20.5402 19.2938 23.0783 16.173 23.0783ZM16.173 14.463C14.5418 14.463 13.2143 15.7905 13.2143 17.4217C13.2143 19.053 14.5418 20.3805 16.173 20.3805C17.8043 20.3805 19.1318 19.053 19.1318 17.4217C19.1318 15.7905 17.8043 14.463 16.173 14.463Z" fill="#ED1E26"/>
<path d="M20.9228 32.6654H11.5448C9.9315 32.6654 8.61975 31.3537 8.61975 29.7382V27.9944C8.61975 23.7959 12.0353 20.3782 16.236 20.3782C20.4368 20.3782 23.85 23.7959 23.85 27.9944V29.7382C23.85 31.3537 22.5383 32.6654 20.9228 32.6654ZM16.2338 23.0782C13.5225 23.0782 11.3175 25.2832 11.3175 27.9944V29.7382C11.3175 29.8619 11.4188 29.9654 11.5425 29.9654H20.9205C21.0443 29.9654 21.1478 29.8642 21.1478 29.7382V27.9944C21.15 25.2854 18.945 23.0782 16.2338 23.0782Z" fill="#ED1E26"/>
</svg>
