<svg width="39" height="32" viewBox="0 0 39 32" fill="none" xmlns="http://www.w3.org/2000/svg">
<path d="M32.8327 31.2287H5.23905C2.34951 31.2287 0 28.8792 0 25.9897V5.23905C0 2.34951 2.34951 0 5.23905 0H32.8327C35.7222 0 38.0717 2.34951 38.0717 5.23905V25.9897C38.0717 28.8772 35.7202 31.2287 32.8327 31.2287ZM5.23905 2.41802C3.68345 2.41802 2.41802 3.68345 2.41802 5.23905V25.9897C2.41802 27.5453 3.68345 28.8107 5.23905 28.8107H32.8327C34.3883 28.8107 35.6537 27.5453 35.6537 25.9897V5.23905C35.6537 3.68345 34.3883 2.41802 32.8327 2.41802H5.23905Z" fill="#0F50A4"/>
<path d="M30.6842 10.5977H23.017C22.35 10.5977 21.808 10.0557 21.808 9.3887C21.808 8.72173 22.35 8.17969 23.017 8.17969H30.6821C31.3491 8.17969 31.8912 8.72173 31.8912 9.3887C31.8912 10.0557 31.3511 10.5977 30.6842 10.5977ZM30.6842 16.9994H24.0467C23.3797 16.9994 22.8377 16.4574 22.8377 15.7904C22.8377 15.1234 23.3797 14.5814 24.0467 14.5814H30.6842C31.3511 14.5814 31.8932 15.1234 31.8932 15.7904C31.8932 16.4574 31.3511 16.9994 30.6842 16.9994ZM30.6842 23.3064H25.435C24.768 23.3064 24.226 22.7644 24.226 22.0974C24.226 21.4305 24.768 20.8884 25.435 20.8884H30.6821C31.3491 20.8884 31.8912 21.4305 31.8912 22.0974C31.8932 22.7644 31.3511 23.3064 30.6842 23.3064Z" fill="#0F50A4"/>
<path d="M13.6027 16.3074C10.8079 16.3074 8.53491 14.0345 8.53491 11.2396C8.53491 8.44482 10.8079 6.17188 13.6027 6.17188C16.3975 6.17188 18.6705 8.44482 18.6705 11.2396C18.6705 14.0345 16.3975 16.3074 13.6027 16.3074ZM13.6027 8.59191C12.1418 8.59191 10.9529 9.78077 10.9529 11.2417C10.9529 12.7026 12.1418 13.8914 13.6027 13.8914C15.0636 13.8914 16.2524 12.7026 16.2524 11.2417C16.2524 9.78077 15.0636 8.59191 13.6027 8.59191Z" fill="#ED1E26"/>
<path d="M17.8565 24.8947H9.4579C8.01313 24.8947 6.83838 23.7199 6.83838 22.2731V20.7115C6.83838 16.9514 9.89718 13.8906 13.6592 13.8906C17.4213 13.8906 20.478 16.9514 20.478 20.7115V22.2731C20.478 23.7199 19.3033 24.8947 17.8565 24.8947ZM13.6572 16.3086C11.2291 16.3086 9.25439 18.2834 9.25439 20.7115V22.2731C9.25439 22.3839 9.34506 22.4766 9.45589 22.4766H17.8545C17.9653 22.4766 18.058 22.386 18.058 22.2731V20.7115C18.06 18.2854 16.0853 16.3086 13.6572 16.3086Z" fill="#ED1E26"/>
</svg>
