<svg width="26" height="26" viewBox="0 0 26 26" fill="none" xmlns="http://www.w3.org/2000/svg">
<path d="M21.9466 22.9606H4.1444C2.2802 22.9606 0.764404 21.4448 0.764404 19.5806V6.19319C0.764404 4.32899 2.2802 2.81319 4.1444 2.81319H21.9466C23.8108 2.81319 25.3266 4.32899 25.3266 6.19319V19.5806C25.3266 21.4435 23.8095 22.9606 21.9466 22.9606ZM4.1444 4.37319C3.1408 4.37319 2.3244 5.18959 2.3244 6.19319V19.5806C2.3244 20.5842 3.1408 21.4006 4.1444 21.4006H21.9466C22.9502 21.4006 23.7666 20.5842 23.7666 19.5806V6.19319C23.7666 5.18959 22.9502 4.37319 21.9466 4.37319H4.1444Z" fill="#0F50A4"/>
<path d="M20.3644 9.64992H15.4179C14.9876 9.64992 14.6379 9.30022 14.6379 8.86992C14.6379 8.43962 14.9876 8.08992 15.4179 8.08992H20.3632C20.7935 8.08992 21.1432 8.43962 21.1432 8.86992C21.1432 9.30022 20.7948 9.64992 20.3644 9.64992ZM20.3644 13.78H16.0822C15.6519 13.78 15.3022 13.4303 15.3022 13C15.3022 12.5697 15.6519 12.22 16.0822 12.22H20.3644C20.7948 12.22 21.1445 12.5697 21.1445 13C21.1445 13.4303 20.7948 13.78 20.3644 13.78ZM20.3644 17.849H16.9779C16.5476 17.849 16.1979 17.4993 16.1979 17.069C16.1979 16.6387 16.5476 16.289 16.9779 16.289H20.3632C20.7935 16.289 21.1432 16.6387 21.1432 17.069C21.1445 17.4993 20.7948 17.849 20.3644 17.849Z" fill="#0F50A4"/>
<path d="M9.34445 13.3341C7.54135 13.3341 6.07495 11.8677 6.07495 10.0646C6.07495 8.26149 7.54135 6.79509 9.34445 6.79509C11.1476 6.79509 12.614 8.26149 12.614 10.0646C12.614 11.8677 11.1476 13.3341 9.34445 13.3341ZM9.34445 8.35639C8.40195 8.35639 7.63495 9.12339 7.63495 10.0659C7.63495 11.0084 8.40195 11.7754 9.34445 11.7754C10.287 11.7754 11.054 11.0084 11.054 10.0659C11.054 9.12339 10.287 8.35639 9.34445 8.35639Z" fill="#ED1E26"/>
<path d="M12.0886 18.8734H6.67022C5.73812 18.8734 4.98022 18.1155 4.98022 17.1821V16.1746C4.98022 13.7488 6.95362 11.7741 9.38072 11.7741C11.8078 11.7741 13.7799 13.7488 13.7799 16.1746V17.1821C13.7799 18.1155 13.022 18.8734 12.0886 18.8734ZM9.37942 13.3341C7.81292 13.3341 6.53892 14.6081 6.53892 16.1746V17.1821C6.53892 17.2536 6.59742 17.3134 6.66892 17.3134H12.0873C12.1588 17.3134 12.2186 17.2549 12.2186 17.1821V16.1746C12.2199 14.6094 10.9459 13.3341 9.37942 13.3341Z" fill="#ED1E26"/>
</svg>
