<svg width="26" height="26" viewBox="0 0 26 26" fill="none" xmlns="http://www.w3.org/2000/svg">
<path d="M12.3383 10.6132H7.98203C7.55173 10.6132 7.20203 10.2635 7.20203 9.83322C7.20203 9.40292 7.55173 9.05322 7.98203 9.05322H12.3383C12.7686 9.05322 13.1183 9.40292 13.1183 9.83322C13.1183 10.2635 12.7699 10.6132 12.3383 10.6132ZM14.8538 14.9695H7.98203C7.55173 14.9695 7.20203 14.6198 7.20203 14.1895C7.20203 13.7592 7.55173 13.4095 7.98203 13.4095H14.8525C15.2828 13.4095 15.6325 13.7592 15.6325 14.1895C15.6325 14.6198 15.2841 14.9695 14.8538 14.9695ZM17.1938 19.3011H7.98203C7.55173 19.3011 7.20203 18.9514 7.20203 18.5211C7.20203 18.0908 7.55173 17.7411 7.98203 17.7411H17.1925C17.6228 17.7411 17.9725 18.0908 17.9725 18.5211C17.9725 18.9514 17.6241 19.3011 17.1938 19.3011Z" fill="#6D7174"/>
<path d="M22.3574 8.1952L15.5194 1.9552C15.3758 1.82416 15.1886 1.75139 14.9942 1.7511H7.3385C5.4743 1.7511 3.9585 3.2669 3.9585 5.1311V20.8091C3.9585 22.6733 5.4743 24.1891 7.3385 24.1891H19.2322C21.0964 24.1891 22.6122 22.6733 22.6122 20.8091V8.7711C22.6122 8.5514 22.5199 8.3421 22.3574 8.1952ZM20.2748 8.4058H15.6871C15.5337 8.4058 15.4089 8.281 15.4089 8.1276V3.965L20.2748 8.4058ZM19.2322 22.6278H7.3385C6.3349 22.6278 5.5185 21.8114 5.5185 20.8078V5.1311C5.5185 4.1275 6.3349 3.3111 7.3385 3.3111H13.8489V8.1276C13.8489 9.1416 14.6731 9.9658 15.6871 9.9658H21.0522V20.8078C21.0522 21.8114 20.2358 22.6278 19.2322 22.6278Z" fill="#6D7174"/>
</svg>
