<svg width="25" height="22" viewBox="0 0 25 22" fill="none" xmlns="http://www.w3.org/2000/svg">
<path d="M10.4709 15.4991L10.4711 15.498C10.5399 15.0989 10.4037 14.6878 10.1124 14.4103C10.1123 14.4102 10.1123 14.4102 10.1123 14.4101L8.87913 13.2326L10.6064 12.988C10.6067 12.988 10.607 12.9879 10.6074 12.9879C11.0056 12.9327 11.3495 12.6852 11.5286 12.3274C11.5287 12.3272 11.5287 12.3271 11.5288 12.3269L12.3242 10.7414L13.1223 12.3219C13.2956 12.6893 13.6454 12.9334 14.0381 12.9879C14.0385 12.9879 14.0388 12.988 14.0391 12.988L15.7637 13.2322L14.5254 14.4099L14.5251 14.4101C14.2337 14.6877 14.0975 15.0988 14.1663 15.498L14.1665 15.4991L14.4636 17.1997L12.8779 16.381C12.8777 16.3808 12.8774 16.3807 12.8771 16.3806C12.5301 16.2004 12.1072 16.2005 11.7602 16.3806C11.7599 16.3807 11.7597 16.3809 11.7595 16.381L10.1738 17.1997L10.4709 15.4991Z" stroke="#6D7174"/>
<path d="M22.2271 22H2.4174C1.08702 22 0.0081121 20.913 0 19.5907V5.73529H24.6283V19.5907C24.6364 20.913 23.5494 22 22.2271 22ZM1.22493 19.5826C1.22493 20.2397 1.76033 20.7832 2.42552 20.7832H22.2271C22.8842 20.7832 23.4196 20.2478 23.4277 19.5826V6.9521H1.22493V19.5826Z" fill="#6D7174"/>
<path d="M22.5845 0.0324479H22.5439L3.26955 0H2.85583H2.43401C1.10362 0 0.0247137 1.08702 0.0166016 2.4174V6.90339H24.6449V2.4174C24.6368 1.2087 23.7445 0.202802 22.5845 0.0324479ZM23.42 5.68658H1.2253V2.4174C1.2253 1.76032 1.7607 1.21681 2.42589 1.21681H22.2275C22.8846 1.21681 23.4281 1.75221 23.4281 2.4174V5.68658H23.42Z" fill="#6D7174"/>
</svg>
