<svg width="20" height="19" viewBox="0 0 20 19" fill="none" xmlns="http://www.w3.org/2000/svg">
<path fill-rule="evenodd" clip-rule="evenodd" d="M18.2938 0.951517H18.3267C19.2688 1.07037 19.9934 1.77217 20 2.61546V4.65463C20 4.99758 19.7202 5.27559 19.375 5.27559H0.625C0.279822 5.27559 0 4.99758 0 4.65463V2.61546C0.00658762 1.68727 0.88274 0.928879 1.96311 0.928879H2.64163L18.2938 0.951517ZM4.96194 3.30018C4.96194 3.0001 5.20678 2.7523 5.50881 2.7523H14.6561C14.9581 2.7523 15.203 3.0001 15.203 3.30018C15.203 3.60025 14.9581 3.84805 14.6561 3.84805H5.50881C5.20678 3.84805 4.96194 3.60025 4.96194 3.30018ZM1.96311 18.9367H18.05C19.1238 18.9367 20.0066 18.1067 20 17.097V7.11126C20 6.78334 19.7341 6.51751 19.4062 6.51751H0.59375C0.265831 6.51751 0 6.78334 0 7.11126V17.097C0.0065876 18.1067 0.882739 18.9367 1.96311 18.9367ZM7.97492 13.5283L7.70768 15.0481C7.66521 15.2896 7.91736 15.4756 8.13558 15.3637L9.55976 14.633C9.71952 14.5505 9.91763 14.5505 10.0774 14.633L11.5016 15.3637C11.7198 15.4756 11.9719 15.2896 11.9295 15.0481L11.6622 13.5283C11.6303 13.3442 11.6942 13.1537 11.8284 13.0267L12.9455 11.9712C13.1264 11.8003 13.0294 11.496 12.783 11.4614L11.2277 11.2426C11.0424 11.2172 10.8826 11.1029 10.8059 10.9378L10.0873 9.5238C9.9771 9.30698 9.66724 9.30739 9.55762 9.5245L8.84402 10.9378C8.76095 11.1029 8.60118 11.2172 8.41586 11.2426L6.85896 11.4616C6.61284 11.4962 6.51568 11.7999 6.69598 11.971L7.80876 13.0267C7.94297 13.1537 8.00687 13.3442 7.97492 13.5283Z" fill="#848F92"/>
</svg>
