<svg width="25" height="22" viewBox="0 0 25 22" fill="none" xmlns="http://www.w3.org/2000/svg">
<path d="M10.4706 15.4991L10.4708 15.498C10.5397 15.0989 10.4035 14.6878 10.1121 14.4103C10.1121 14.4102 10.1121 14.4102 10.112 14.4101L8.87888 13.2326L10.6062 12.988C10.6065 12.988 10.6068 12.9879 10.6071 12.9879C11.0053 12.9327 11.3493 12.6852 11.5283 12.3274C11.5284 12.3272 11.5285 12.3271 11.5286 12.3269L12.324 10.7414L13.122 12.3219C13.2954 12.6893 13.6452 12.9334 14.0379 12.9879C14.0382 12.9879 14.0385 12.988 14.0388 12.988L15.7635 13.2322L14.5251 14.4099L14.5249 14.4101C14.2335 14.6877 14.0972 15.0988 14.1661 15.498L14.1662 15.4991L14.4633 17.1997L12.8777 16.381C12.8774 16.3808 12.8771 16.3807 12.8769 16.3806C12.5299 16.2004 12.1069 16.2005 11.7599 16.3806C11.7597 16.3807 11.7595 16.3809 11.7592 16.381L10.1736 17.1997L10.4706 15.4991Z" stroke="#ED1E26"/>
<path d="M22.2271 22H2.4174C1.08702 22 0.0081121 20.913 0 19.5907V5.73529H24.6283V19.5907C24.6364 20.913 23.5494 22 22.2271 22ZM1.22493 19.5826C1.22493 20.2397 1.76033 20.7832 2.42552 20.7832H22.2271C22.8842 20.7832 23.4196 20.2478 23.4277 19.5826V6.9521H1.22493V19.5826Z" fill="#0F50A4"/>
<path d="M22.5842 0.0324479H22.5436L3.26931 0H2.85559H2.43376C1.10338 0 0.0244695 1.08702 0.0163574 2.4174V6.90339H24.6447V2.4174C24.6366 1.2087 23.7442 0.202802 22.5842 0.0324479ZM23.4198 5.68658H1.22506V2.4174C1.22506 1.76032 1.76046 1.21681 2.42565 1.21681H22.2273C22.8844 1.21681 23.4279 1.75221 23.4279 2.4174V5.68658H23.4198Z" fill="#0F50A4"/>
</svg>
