<svg width="35" height="37" viewBox="0 0 35 37" fill="none" xmlns="http://www.w3.org/2000/svg">
<path d="M33.7663 17.4311C33.0905 17.4311 32.5413 17.9803 32.5413 18.6562C32.5413 26.9499 25.7952 33.696 17.5014 33.696C9.20765 33.696 2.46157 26.9499 2.46157 18.6562C2.46157 10.3624 9.20765 3.61633 17.5014 3.61633C21.8096 3.61633 25.8646 5.45598 28.6986 8.61668H24.0699C23.394 8.61668 22.8448 9.16592 22.8448 9.84175C22.8448 10.5176 23.394 11.0668 24.0699 11.0668H31.5775C32.2534 11.0668 32.8026 10.5176 32.8026 9.84175V2.07273C32.8026 1.3969 32.2534 0.847656 31.5775 0.847656C30.9017 0.847656 30.3525 1.3969 30.3525 2.07273V6.78927C28.7153 5.01469 26.728 3.59865 24.5162 2.63049C22.3044 1.66232 19.9159 1.16304 17.5014 1.16413C7.85802 1.16413 0.0114136 9.01075 0.0114136 18.6541C0.0114136 28.2975 7.85802 36.1441 17.5014 36.1441C27.1448 36.1441 34.9914 28.2975 34.9914 18.6541C34.9914 17.9783 34.4422 17.4311 33.7663 17.4311Z" fill="#0F50A4"/>
<path fill-rule="evenodd" clip-rule="evenodd" d="M18.0193 24.8536C19.8483 24.4836 20.7872 23.0342 20.907 21.5509C20.9818 20.646 20.6512 19.8134 19.9526 19.144C19.3425 18.56 18.462 18.1075 17.3247 17.8004C16.9785 17.7087 16.6378 17.5969 16.3044 17.4658C16.1596 17.4008 16.0207 17.3234 15.8893 17.2343C15.8171 17.1887 15.7448 17.1432 15.6725 17.0999C15.3248 16.827 15.0898 16.4819 15.1241 16.0522C15.2557 14.4495 16.6805 14.3512 17.2865 14.3829C18.2475 14.43 18.8519 14.7769 19.0956 15.4048C19.1118 15.4462 19.1248 15.4779 19.1337 15.4982C19.2346 15.7228 19.42 15.8986 19.6497 15.9872C19.8795 16.0759 20.1349 16.0702 20.3605 15.9715C20.5861 15.8728 20.7636 15.689 20.8544 15.4601C20.9451 15.2312 20.9419 14.9757 20.8453 14.7492L20.8421 14.7404L20.8412 14.7379C20.3943 13.5676 19.4037 12.8181 18.0193 12.5856V10.0728C18.0193 9.82508 17.9208 9.58747 17.7456 9.41228C17.5704 9.23709 17.3328 9.13867 17.0851 9.13867C16.8373 9.13867 16.5997 9.23709 16.4245 9.41228C16.2493 9.58747 16.1509 9.82508 16.1509 10.0728V12.5993C14.3225 12.9685 13.3837 14.4158 13.2623 15.8995C13.1876 16.8044 13.5182 17.637 14.2168 18.3064C14.8268 18.8912 15.7074 19.3429 16.8446 19.65C17.1909 19.7418 17.5315 19.8536 17.8649 19.9846C18.0122 20.0516 18.1535 20.1309 18.2873 20.2218C18.3564 20.2655 18.427 20.3086 18.4942 20.3496C18.8442 20.623 19.0813 20.9692 19.0468 21.4006C18.9152 23.0033 17.4904 23.1016 16.8844 23.07C15.9235 23.0228 15.315 22.676 15.0754 22.0481C15.06 22.0066 15.047 21.9758 15.038 21.9555C14.9389 21.7284 14.7537 21.55 14.523 21.4595C14.2924 21.369 14.0353 21.3738 13.8082 21.4729C13.5811 21.572 13.4027 21.7573 13.3122 21.9879C13.2217 22.2186 13.2266 22.4757 13.3257 22.7028L13.3297 22.7142C13.776 23.8843 14.7663 24.6344 16.151 24.8671V27.3822C16.151 27.5049 16.1751 27.6263 16.2221 27.7397C16.269 27.853 16.3378 27.956 16.4246 28.0427C16.5113 28.1295 16.6143 28.1983 16.7276 28.2452C16.841 28.2922 16.9625 28.3164 17.0851 28.3164C17.2078 28.3164 17.3293 28.2922 17.4426 28.2452C17.556 28.1983 17.6589 28.1295 17.7457 28.0427C17.8324 27.956 17.9012 27.853 17.9482 27.7397C17.9951 27.6263 18.0193 27.5049 18.0193 27.3822V24.8536Z" fill="#ED1E26"/>
</svg>
