<svg width="26" height="26" viewBox="0 0 26 26" fill="none" xmlns="http://www.w3.org/2000/svg">
<path d="M25.1004 9.87353L14.8668 2.25553C13.8866 1.52623 12.5658 1.52103 11.5804 2.24253L1.1648 9.87093C0.998083 9.9934 0.886694 10.1769 0.855019 10.3814C0.823344 10.5858 0.873964 10.7944 0.995796 10.9616C1.1479 11.1696 1.3858 11.2814 1.6263 11.2814C1.7862 11.2814 1.9474 11.232 2.0865 11.1306L3.2383 10.2882V21.1185C3.2383 22.8319 4.5214 24.2268 6.0983 24.2268H19.903C21.4799 24.2268 22.763 22.8319 22.763 21.1185V10.0789L24.1696 11.1254C24.2518 11.1866 24.3452 11.2311 24.4446 11.2562C24.544 11.2813 24.6473 11.2865 24.7487 11.2717C24.8501 11.2568 24.9476 11.2222 25.0356 11.1696C25.1236 11.1171 25.2004 11.0477 25.2616 10.9655C25.3847 10.7992 25.4369 10.5909 25.4067 10.3862C25.3765 10.1815 25.2663 9.99715 25.1004 9.87353ZM21.203 9.01683V21.1159C21.203 21.97 20.6193 22.6642 19.903 22.6642H6.097C5.3807 22.6642 4.797 21.97 4.797 21.1159V9.14293L12.5021 3.50093C12.9311 3.18633 13.507 3.18893 13.9347 3.50613L21.2082 8.92063C21.2056 8.95313 21.203 8.98433 21.203 9.01683Z" fill="#0F50A4"/>
<path d="M13.13 19.0164C11.1787 19.0164 9.59271 17.4291 9.59271 15.4778C9.59271 13.5265 11.18 11.9405 13.13 11.9405C15.0813 11.9405 16.6686 13.5278 16.6686 15.4778C16.6686 17.4291 15.0813 19.0164 13.13 19.0164ZM13.13 13.5005C12.0393 13.5005 11.1527 14.3884 11.1527 15.4778C11.1527 16.5672 12.0406 17.4564 13.13 17.4564C14.2194 17.4564 15.1086 16.5685 15.1086 15.4778C15.1086 14.3871 14.2207 13.5005 13.13 13.5005Z" fill="#ED1E26"/>
</svg>
