<svg width="24" height="25" viewBox="0 0 24 25" fill="none" xmlns="http://www.w3.org/2000/svg">
<path d="M21.8844 16.2921C21.7278 18.0252 21.476 19.4334 21.1697 20.69C20.9655 21.9465 19.7403 22.9937 18.4131 22.9937H16.7795C15.8606 22.9937 15.1459 22.2607 15.1459 21.3183V17.0251C15.1459 15.9779 14.3291 15.1403 13.3081 15.1403H10.9598C9.93884 15.1403 9.12205 15.9779 9.12205 17.0251V21.3183C9.12205 22.2607 8.40736 22.9937 7.48847 22.9937H5.54859C4.2213 22.9937 3.09821 22.0512 2.79191 20.69C2.48562 19.3287 2.22005 18.0264 2.07722 16.2921C1.89596 14.091 2.07722 11.9989 2.17932 10.6376C2.17932 9.79994 2.68982 8.96224 3.40451 8.43868L10.5514 3.51721C10.9598 3.20308 11.4703 2.99365 11.9808 2.99365C12.4913 2.99365 13.1039 3.20308 13.5123 3.51721L20.6592 8.43868C21.3739 8.96224 21.8844 9.79994 21.8844 10.6376C21.9865 11.9989 22.0831 14.0929 21.8844 16.2921Z" fill="#0F50A4"/>
</svg>
