<svg width="34" height="34" viewBox="0 0 34 34" fill="none" xmlns="http://www.w3.org/2000/svg">
<path d="M28.5461 33.6988H5.45003C2.60908 33.6988 0.299072 31.3888 0.299072 28.5479V24.1577C0.299072 23.5019 0.831998 22.969 1.48775 22.969C2.14351 22.969 2.67644 23.5019 2.67644 24.1577V28.5479C2.67644 30.0773 3.92059 31.3215 5.45003 31.3215H28.5481C30.0776 31.3215 31.3217 30.0773 31.3217 28.5479V5.44979C31.3217 3.92035 30.0776 2.67619 28.5481 2.67619H5.45003C3.92059 2.67619 2.67644 3.92035 2.67644 5.44979V13.0217C2.67644 13.6775 2.14351 14.2104 1.48775 14.2104C0.831998 14.2104 0.299072 13.6775 0.299072 13.0217V5.44979C0.299072 2.60883 2.60908 0.298828 5.45003 0.298828H28.5481C31.3891 0.298828 33.6991 2.60883 33.6991 5.44979V28.5479C33.6971 31.3868 31.3871 33.6988 28.5461 33.6988Z" fill="#0F50A4"/>
<path d="M26.8067 8.84961H20.3759C19.7202 8.84961 19.1873 9.38254 19.1873 10.0383C19.1873 10.694 19.7202 11.227 20.3759 11.227H23.7974L18.0857 17.1169L13.8322 12.4216C13.7238 12.3021 13.5922 12.2059 13.4454 12.1388C13.2986 12.0717 13.1397 12.0351 12.9784 12.0313C12.6515 12.0234 12.3365 12.1502 12.1067 12.382L3.95231 20.6017C3.73042 20.8257 3.60644 21.1286 3.60755 21.4439C3.60867 21.7592 3.73479 22.0612 3.95825 22.2837C4.181 22.5049 4.48233 22.6289 4.79627 22.6284C5.10137 22.6284 5.40844 22.5115 5.64023 22.2778L12.911 14.9475L17.1724 19.6528C17.2815 19.7731 17.4141 19.8698 17.5619 19.9369C17.7098 20.004 17.8699 20.0402 18.0322 20.043C18.3552 20.0529 18.6761 19.9182 18.9059 19.6825L25.6141 12.7663V15.9381C25.6141 16.5939 26.147 17.1268 26.8027 17.1268C27.4585 17.1268 27.9914 16.5939 27.9914 15.9381V10.0383C27.9954 9.38055 27.4625 8.84961 26.8067 8.84961Z" fill="#ED1E26"/>
</svg>
