<svg width="24" height="25" viewBox="0 0 24 25" fill="none" xmlns="http://www.w3.org/2000/svg">
<path d="M19.1429 2.93555H17.102C16.6939 2.93555 16.2857 3.23969 16.2857 3.7466C16.2857 4.2535 16.5918 4.55764 17.102 4.55764H19.1429C19.8571 4.55764 20.3673 5.16593 20.3673 5.77422V7.80184C20.3673 8.20736 20.6735 8.61289 21.1837 8.61289C21.6939 8.61289 22 8.30874 22 7.80184V5.77422C22 4.2535 20.6735 2.93555 19.1429 2.93555Z" fill="#0F50A4"/>
<path d="M21.1837 17.1289C20.7755 17.1289 20.3673 17.433 20.3673 17.9399V19.9676C20.3673 20.6772 19.7551 21.1841 19.1429 21.1841H17.102C16.6939 21.1841 16.2857 21.4883 16.2857 21.9952C16.2857 22.5021 16.5918 22.8062 17.102 22.8062H19.1429C20.6735 22.8062 22 21.5897 22 19.9676V17.9399C22 17.5344 21.5918 17.1289 21.1837 17.1289Z" fill="#0F50A4"/>
<path d="M2.81633 8.61289C3.22449 8.61289 3.63265 8.30874 3.63265 7.80184V5.77422C3.63265 5.06455 4.2449 4.55764 4.85714 4.55764H6.89796C7.30612 4.55764 7.71429 4.2535 7.71429 3.7466C7.71429 3.23969 7.30612 2.93555 6.89796 2.93555H4.85714C3.32653 2.93555 2 4.2535 2 5.77422V7.80184C2 8.20736 2.40816 8.61289 2.81633 8.61289Z" fill="#0F50A4"/>
<path d="M6.89796 21.1841H4.85714C4.14286 21.1841 3.63265 20.5759 3.63265 19.9676V17.9399C3.63265 17.5344 3.32653 17.1289 2.81633 17.1289C2.30612 17.1289 2 17.5344 2 17.9399V19.9676C2 21.4883 3.22449 22.8062 4.85714 22.8062H6.89796C7.30612 22.8062 7.71429 22.5021 7.71429 21.9952C7.71429 21.4883 7.30612 21.1841 6.89796 21.1841Z" fill="#0F50A4"/>
<path d="M8.25 9.14502H9.67941V10.5597H8.25V9.14502ZM13.7445 11.931H14.905V13.0797H13.7445V11.931ZM11.4508 14.8193H12.5566V15.9137H11.4508V14.8193ZM16.0656 11.931H18V13.0797H16.0656V11.931ZM11.4508 17.008H12.5566V18.832H11.4508V17.008Z" fill="#0F50A4"/>
<path d="M11.6 6.90967C11.8121 6.90967 12.0156 6.99339 12.1656 7.1424C12.2399 7.21618 12.2988 7.30379 12.3391 7.40021C12.3793 7.49663 12.4 7.59998 12.4 7.70435V12.4734C12.4 12.6842 12.3157 12.8864 12.1656 13.0354C12.0156 13.1845 11.8122 13.2683 11.6 13.2683H6.80002C6.58786 13.2683 6.38441 13.1845 6.23441 13.0354C6.08437 12.8864 6.00005 12.6842 6 12.4734V7.70452C6 7.49371 6.08429 7.29154 6.23432 7.14247C6.38435 6.99341 6.58784 6.90967 6.80002 6.90967H11.6ZM11.5367 7.76736H6.86327V12.4104H11.5367V7.76736ZM9.60002 14.4605C9.81214 14.4607 10.0155 14.5445 10.1654 14.6936C10.3153 14.8428 10.3995 15.0449 10.3994 15.2557V18.0372C10.3993 18.2479 10.3151 18.4499 10.1652 18.5989C10.0153 18.7479 9.81205 18.8317 9.60002 18.8319H6.80002C6.58787 18.8319 6.38441 18.7482 6.23438 18.5992C6.08435 18.4501 6.00004 18.248 6 18.0372V15.2557C6 15.0449 6.08429 14.8427 6.23432 14.6936C6.38435 14.5446 6.58784 14.4608 6.80002 14.4608L9.60002 14.4605ZM6.78027 15.2357V18.0562H9.61911V15.2357H6.78027ZM17.2 14.4605C17.3051 14.4605 17.4091 14.4811 17.5062 14.5211C17.6032 14.561 17.6914 14.6196 17.7657 14.6935C17.84 14.7673 17.8989 14.855 17.939 14.9514C17.9792 15.0479 17.9999 15.1513 17.9998 15.2557V18.0372C17.9998 18.248 17.9155 18.4502 17.7655 18.5993C17.6155 18.7483 17.412 18.8321 17.1998 18.8321H14.4003C14.1881 18.8321 13.9846 18.7483 13.8346 18.5993C13.6846 18.4502 13.6003 18.248 13.6003 18.0372V15.2557C13.6002 15.1513 13.6209 15.0479 13.6611 14.9514C13.7013 14.8549 13.7602 14.7673 13.8345 14.6934C13.9088 14.6196 13.997 14.561 14.0941 14.521C14.1912 14.4811 14.2952 14.4605 14.4003 14.4605H17.2ZM17.2 15.2557H14.4003V18.0367H17.1995L17.2 15.2557ZM17.2 6.90967C17.4122 6.90967 17.6156 6.99341 17.7657 7.14247C17.9157 7.29154 18 7.49371 18 7.70452V10.4864C17.9998 10.6971 17.9155 10.8991 17.7654 11.048C17.6154 11.1969 17.412 11.2806 17.2 11.2806H14.4003C14.1882 11.2807 13.9847 11.1971 13.8346 11.0481C13.6845 10.8992 13.6001 10.6972 13.6 10.4864V7.70452C13.6 7.60011 13.6207 7.49672 13.6609 7.40027C13.7011 7.30381 13.7601 7.21617 13.8344 7.14236C13.9087 7.06854 13.997 7.01 14.0941 6.97008C14.1912 6.93015 14.2952 6.90962 14.4003 6.90967H17.2ZM17.2011 7.7032H14.3987V10.4876H17.2011V7.7032Z" fill="#0F50A4"/>
</svg>
