<svg width="24" height="24" viewBox="0 0 24 24" fill="none" xmlns="http://www.w3.org/2000/svg">
<path d="M24 24H16.5V22.5938H22.5938V16.5H24V24Z" fill="#0F50A4"/>
<path d="M1.40625 7.5H0V0H7.5V1.40625H1.40625V7.5Z" fill="#0F50A4"/>
<path d="M24 7.5H22.5938V1.40625H16.5V0H24V7.5Z" fill="#0F50A4"/>
<path d="M7.5 24H0V16.5H1.40625V22.5938H7.5V24Z" fill="#0F50A4"/>
<path d="M5.01562 5.01562H18.9844V10.575H5.01562V5.01562Z" fill="#ED1E26"/>
<path d="M3.1875 9.87189H20.8125V11.2781H3.1875V9.87189Z" fill="#ED1E26"/>
<path d="M12 5.01562H18.9844V10.575H12V5.01562Z" fill="#ED1E26"/>
<path d="M19.1867 12.9682V18.439H4.33325V12.9682H5.82856V16.9437H17.6914V12.9682H19.1867Z" fill="#ED1E26"/>
<path d="M19.1867 12.9682V18.439H11.76V16.9437H17.6914V12.9682H19.1867Z" fill="#ED1E26"/>
</svg>
