<svg width="24" height="25" viewBox="0 0 24 25" fill="none" xmlns="http://www.w3.org/2000/svg">
<path d="M19.1429 2.9292H17.102C16.6939 2.9292 16.2857 3.23334 16.2857 3.74025C16.2857 4.24715 16.5918 4.5513 17.102 4.5513H19.1429C19.8571 4.5513 20.3673 5.15958 20.3673 5.76787V7.79549C20.3673 8.20101 20.6735 8.60654 21.1837 8.60654C21.6939 8.60654 22 8.3024 22 7.79549V5.76787C22 4.24715 20.6735 2.9292 19.1429 2.9292Z" fill="#464646"/>
<path d="M21.1837 17.1225C20.7755 17.1225 20.3673 17.4267 20.3673 17.9336V19.9612C20.3673 20.6709 19.7551 21.1778 19.1429 21.1778H17.102C16.6939 21.1778 16.2857 21.4819 16.2857 21.9888C16.2857 22.4957 16.5918 22.7999 17.102 22.7999H19.1429C20.6735 22.7999 22 21.5833 22 19.9612V17.9336C22 17.5281 21.5918 17.1225 21.1837 17.1225Z" fill="#464646"/>
<path d="M2.81633 8.60654C3.22449 8.60654 3.63265 8.3024 3.63265 7.79549V5.76787C3.63265 5.0582 4.2449 4.5513 4.85714 4.5513H6.89796C7.30612 4.5513 7.71429 4.24715 7.71429 3.74025C7.71429 3.23334 7.30612 2.9292 6.89796 2.9292H4.85714C3.32653 2.9292 2 4.24715 2 5.76787V7.79549C2 8.20101 2.40816 8.60654 2.81633 8.60654Z" fill="#464646"/>
<path d="M6.89796 21.1778H4.85714C4.14286 21.1778 3.63265 20.5695 3.63265 19.9612V17.9336C3.63265 17.5281 3.32653 17.1225 2.81633 17.1225C2.30612 17.1225 2 17.5281 2 17.9336V19.9612C2 21.4819 3.22449 22.7999 4.85714 22.7999H6.89796C7.30612 22.7999 7.71429 22.4957 7.71429 21.9888C7.71429 21.4819 7.30612 21.1778 6.89796 21.1778Z" fill="#464646"/>
<path d="M8.25 9.13867H9.67941V10.5534H8.25V9.13867ZM13.7445 11.9247H14.905V13.0734H13.7445V11.9247ZM11.4508 14.813H12.5566V15.9073H11.4508V14.813ZM16.0656 11.9247H18V13.0734H16.0656V11.9247ZM11.4508 17.0017H12.5566V18.8256H11.4508V17.0017Z" fill="#464646"/>
<path d="M11.6 6.90332C11.8121 6.90332 12.0156 6.98704 12.1656 7.13605C12.2399 7.20984 12.2988 7.29744 12.3391 7.39386C12.3793 7.49028 12.4 7.59363 12.4 7.698V12.4671C12.4 12.6779 12.3157 12.88 12.1656 13.0291C12.0156 13.1782 11.8122 13.2619 11.6 13.262H6.80002C6.58786 13.2619 6.38441 13.1781 6.23441 13.0291C6.08437 12.88 6.00005 12.6779 6 12.4671V7.69817C6 7.48736 6.08429 7.28519 6.23432 7.13613C6.38435 6.98706 6.58784 6.90332 6.80002 6.90332H11.6ZM11.5367 7.76101H6.86327V12.4041H11.5367V7.76101ZM9.60002 14.4541C9.81214 14.4543 10.0155 14.5382 10.1654 14.6873C10.3153 14.8364 10.3995 15.0386 10.3994 15.2493V18.0309C10.3993 18.2415 10.3151 18.4436 10.1652 18.5926C10.0153 18.7416 9.81205 18.8254 9.60002 18.8256H6.80002C6.58787 18.8256 6.38441 18.7418 6.23438 18.5928C6.08435 18.4438 6.00004 18.2417 6 18.0309V15.2493C6 15.0385 6.08429 14.8363 6.23432 14.6873C6.38435 14.5382 6.58784 14.4545 6.80002 14.4545L9.60002 14.4541ZM6.78027 15.2294V18.0499H9.61911V15.2294H6.78027ZM17.2 14.4541C17.3051 14.4542 17.4091 14.4748 17.5062 14.5147C17.6032 14.5547 17.6914 14.6133 17.7657 14.6871C17.84 14.761 17.8989 14.8486 17.939 14.9451C17.9792 15.0415 17.9999 15.1449 17.9998 15.2493V18.0309C17.9998 18.2417 17.9155 18.4439 17.7655 18.5929C17.6155 18.742 17.412 18.8257 17.1998 18.8257H14.4003C14.1881 18.8257 13.9846 18.742 13.8346 18.5929C13.6846 18.4439 13.6003 18.2417 13.6003 18.0309V15.2493C13.6002 15.1449 13.6209 15.0415 13.6611 14.945C13.7013 14.8486 13.7602 14.7609 13.8345 14.6871C13.9088 14.6132 13.997 14.5546 14.0941 14.5147C14.1912 14.4747 14.2952 14.4541 14.4003 14.4541H17.2ZM17.2 15.2493H14.4003V18.0304H17.1995L17.2 15.2493ZM17.2 6.90332C17.4122 6.90332 17.6156 6.98706 17.7657 7.13613C17.9157 7.28519 18 7.48736 18 7.69817V10.4801C17.9998 10.6908 17.9155 10.8928 17.7654 11.0417C17.6154 11.1906 17.412 11.2743 17.2 11.2743H14.4003C14.1882 11.2743 13.9847 11.1907 13.8346 11.0418C13.6845 10.8929 13.6001 10.6908 13.6 10.4801V7.69817C13.6 7.59376 13.6207 7.49038 13.6609 7.39392C13.7011 7.29746 13.7601 7.20982 13.8344 7.13601C13.9087 7.0622 13.997 7.00366 14.0941 6.96373C14.1912 6.9238 14.2952 6.90328 14.4003 6.90332H17.2ZM17.2011 7.69685H14.3987V10.4812H17.2011V7.69685Z" fill="#464646"/>
</svg>
