<svg width="26" height="26" viewBox="0 0 26 26" fill="none" xmlns="http://www.w3.org/2000/svg">
<path d="M20.0798 23.3909H5.71478C3.85058 23.3909 2.33478 21.8751 2.33478 20.0109V5.98913C2.33478 4.12493 3.85058 2.60913 5.71478 2.60913H20.0798C21.944 2.60913 23.4598 4.12493 23.4598 5.98913V20.0096C23.4598 21.8738 21.944 23.3909 20.0798 23.3909ZM5.71478 4.16913C4.71118 4.16913 3.89478 4.98553 3.89478 5.98913V20.0096C3.89478 21.0132 4.71118 21.8296 5.71478 21.8296H20.0798C21.0834 21.8296 21.8998 21.0132 21.8998 20.0096V5.98913C21.8998 4.98553 21.0834 4.16913 20.0798 4.16913H5.71478Z" fill="#0F50A4"/>
<path d="M8.14578 18.425C7.71548 18.425 7.36578 18.0753 7.36578 17.645V12.5828C7.36578 12.1525 7.71548 11.8028 8.14578 11.8028C8.57608 11.8028 8.92578 12.1525 8.92578 12.5828V17.6463C8.92578 17.7487 8.90559 17.85 8.86638 17.9446C8.82716 18.0392 8.76969 18.1251 8.69724 18.1974C8.62479 18.2697 8.5388 18.3271 8.44417 18.3661C8.34954 18.4052 8.24815 18.4252 8.14578 18.425ZM17.6839 18.425C17.2536 18.425 16.9039 18.0753 16.9039 17.645V12.5828C16.9039 12.1525 17.2536 11.8028 17.6839 11.8028C18.1142 11.8028 18.4639 12.1525 18.4639 12.5828V17.6463C18.4639 18.0766 18.1142 18.425 17.6839 18.425ZM12.7673 18.425C12.337 18.425 11.9873 18.0753 11.9873 17.645V8.01071C11.9873 7.58041 12.337 7.23071 12.7673 7.23071C13.1976 7.23071 13.5473 7.58041 13.5473 8.01071V17.6463C13.5473 18.0766 13.1976 18.425 12.7673 18.425Z" fill="#ED1E26"/>
</svg>
