<svg width="26" height="26" viewBox="0 0 26 26" fill="none" xmlns="http://www.w3.org/2000/svg">
<path d="M20.0797 23.3909H5.71472C3.85052 23.3909 2.33472 21.8751 2.33472 20.0109V5.9891C2.33472 4.1249 3.85052 2.6091 5.71472 2.6091H20.0797C21.9439 2.6091 23.4597 4.1249 23.4597 5.9891V20.0096C23.4597 21.8738 21.9439 23.3909 20.0797 23.3909ZM5.71472 4.1691C4.71112 4.1691 3.89472 4.9855 3.89472 5.9891V20.0096C3.89472 21.0132 4.71112 21.8296 5.71472 21.8296H20.0797C21.0833 21.8296 21.8997 21.0132 21.8997 20.0096V5.9891C21.8997 4.9855 21.0833 4.1691 20.0797 4.1691H5.71472Z" fill="#0F50A4"/>
<path d="M8.14572 18.4249C7.71542 18.4249 7.36572 18.0752 7.36572 17.6449V12.5827C7.36572 12.1524 7.71542 11.8027 8.14572 11.8027C8.57602 11.8027 8.92572 12.1524 8.92572 12.5827V17.6462C8.92572 17.7486 8.90554 17.85 8.86632 17.9445C8.82711 18.0391 8.76963 18.125 8.69719 18.1973C8.62474 18.2696 8.53874 18.327 8.44412 18.366C8.34949 18.4051 8.24809 18.4251 8.14572 18.4249ZM17.6838 18.4249C17.2535 18.4249 16.9038 18.0752 16.9038 17.6449V12.5827C16.9038 12.1524 17.2535 11.8027 17.6838 11.8027C18.1141 11.8027 18.4638 12.1524 18.4638 12.5827V17.6462C18.4638 18.0765 18.1141 18.4249 17.6838 18.4249ZM12.7672 18.4249C12.3369 18.4249 11.9872 18.0752 11.9872 17.6449V8.01062C11.9872 7.58032 12.3369 7.23062 12.7672 7.23062C13.1975 7.23062 13.5472 7.58032 13.5472 8.01062V17.6462C13.5472 18.0765 13.1975 18.4249 12.7672 18.4249Z" fill="#ED1E26"/>
</svg>
