<svg width="22" height="22" viewBox="0 0 22 22" fill="none" xmlns="http://www.w3.org/2000/svg">
<path d="M9.60718 4.38389L9.60702 4.38385C9.58896 4.4606 9.55708 4.53401 9.51066 4.599C9.46433 4.66386 9.40435 4.71917 9.33526 4.76062C9.26749 4.80128 9.19471 4.82862 9.11743 4.84226L9.11541 4.84262L9.1154 4.8426C7.95621 5.02266 6.89814 5.61544 6.13646 6.50844C5.37485 7.40137 4.95829 8.5383 4.95829 9.71292C4.95829 9.91714 4.97682 10.1379 5.01464 10.4104C5.02859 10.4998 5.01877 10.5869 4.99675 10.6661C4.97295 10.7518 4.92646 10.8296 4.87296 10.892L4.87037 10.8951L4.87032 10.895C4.81496 10.9546 4.74683 11.0106 4.66514 11.0448C4.58727 11.081 4.49994 11.0996 4.4116 11.0954M9.60718 4.38389L4.41421 10.9954M9.60718 4.38389L9.60816 4.37833C9.6208 4.30671 9.626 4.22647 9.61247 4.14731C9.60218 4.06467 9.56874 3.99121 9.53666 3.93106L9.53677 3.931L9.53418 3.92667C9.49272 3.85758 9.43742 3.7976 9.37256 3.75127C9.30757 3.70485 9.23416 3.67297 9.15741 3.65491C9.08144 3.63703 8.99909 3.63198 8.91907 3.64594M9.60718 4.38389L8.93543 3.74459M4.4116 11.0954C4.41072 11.0954 4.40983 11.0953 4.40895 11.0953L4.41421 10.9954M4.4116 11.0954C4.41247 11.0954 4.41334 11.0954 4.41421 11.0954V10.9954M4.4116 11.0954C4.26531 11.0948 4.12528 11.0398 4.01713 10.9497L4.01527 10.9482L4.01529 10.9482C3.90631 10.8528 3.83246 10.7204 3.81365 10.5766M4.41421 10.9954C4.2917 10.9954 4.17302 10.9495 4.08114 10.8729C3.98926 10.7925 3.92801 10.6815 3.9127 10.5628M3.81365 10.5766C3.81369 10.5769 3.81374 10.5772 3.81378 10.5775L3.9127 10.5628M3.81365 10.5766C3.81361 10.5763 3.81356 10.5759 3.81352 10.5756L3.9127 10.5628M3.81365 10.5766C3.77098 10.2893 3.74762 10.0014 3.74762 9.70923C3.74376 8.246 4.26137 6.83324 5.21098 5.72018C6.16039 4.60735 7.4755 3.87184 8.91907 3.64594M3.9127 10.5628C3.87059 10.2795 3.84762 9.99621 3.84762 9.70909C3.84379 8.26965 4.35295 6.87997 5.28706 5.78508C6.22117 4.69018 7.51513 3.96663 8.93543 3.74459M8.91907 3.64594C8.91873 3.646 8.91839 3.64605 8.91806 3.64611L8.93543 3.74459M8.91907 3.64594C8.91938 3.64589 8.91968 3.64584 8.91999 3.64579L8.93543 3.74459" fill="#6D7174" stroke="#6D7174" stroke-width="0.2"/>
<path d="M21.292 21.7577L21.292 21.7577C21.2042 21.7928 21.115 21.8108 21.0213 21.8108C20.932 21.8108 20.8383 21.793 20.7528 21.757C20.6718 21.7229 20.5902 21.6742 20.5246 21.6043L14.8487 15.9398C13.3059 17.2456 11.3477 17.9595 9.32564 17.9557M21.292 21.7577L9.32582 17.8557M21.292 21.7577L21.2936 21.757C21.3778 21.7216 21.4577 21.6685 21.5208 21.6054C21.5853 21.5409 21.6402 21.4647 21.6733 21.3762C21.7085 21.2916 21.7259 21.1994 21.7262 21.1081C21.7303 21.0057 21.7121 20.9151 21.6762 20.8298C21.641 20.746 21.5878 20.6655 21.5196 20.6014L15.8482 14.9376C17.1766 13.3945 17.9093 11.4248 17.9055 9.38729M21.292 21.7577L17.8055 9.38748M9.32564 17.9557L9.32582 17.8557M9.32564 17.9557C9.3257 17.9557 9.32576 17.9557 9.32582 17.9557V17.8557M9.32564 17.9557C4.59245 17.9556 0.74613 14.1133 0.74613 9.3913C0.74613 4.6654 4.59638 0.823096 9.32582 0.823096C14.0552 0.823096 17.9054 4.66527 17.9055 9.38729M9.32582 17.8557C4.64764 17.8557 0.84613 14.058 0.84613 9.3913C0.84613 4.72077 4.65146 0.923096 9.32582 0.923096C14.0002 0.923096 17.8055 4.72077 17.8055 9.38748M17.9055 9.38729L17.8055 9.38748M17.9055 9.38729C17.9055 9.38735 17.9055 9.38741 17.9055 9.38748H17.8055M14.4082 14.458L14.4078 14.4584C13.7433 15.1266 12.9505 15.6589 12.0786 16.0175L12.0783 16.0176C11.2065 16.3799 10.2701 16.5613 9.32582 16.5613C5.3612 16.5613 2.14056 13.3442 2.14056 9.38748C2.14056 5.43081 5.36499 2.2137 9.32582 2.2137C13.2905 2.2137 16.5111 5.43078 16.5111 9.38748L16.5111 9.38788C16.5149 10.3316 16.3299 11.264 15.9675 12.1321L15.9673 12.1326C15.6088 13.0044 15.0766 13.7934 14.4082 14.458Z" fill="#6D7174" stroke="#6D7174" stroke-width="0.2"/>
</svg>
