<svg width="193" height="194" viewBox="0 0 193 194" fill="none" xmlns="http://www.w3.org/2000/svg">
<path d="M192.372 52.3534C188.585 82.5723 162.126 112.741 133.028 132.17C57.8306 182.788 -14.8657 96.896 3.47134 66.0472C17.2352 34.7581 60.1701 43.3523 78.4347 31.0518C181.087 -38.5711 195.932 27.0613 192.372 52.3534Z" fill="#8C1813"/>
<path opacity="0.9" d="M192.372 52.3626C188.585 82.5816 162.126 112.75 133.028 132.179C57.8306 182.797 -14.8657 96.9052 3.47134 66.0565C17.2352 34.7674 60.1701 43.3616 78.4347 31.0611C181.087 -38.5618 195.932 27.0705 192.372 52.3626Z" fill="white"/>
<path d="M97 193.494C150.019 193.494 193 190.584 193 186.994C193 183.404 150.019 180.494 97 180.494C43.9807 180.494 1 183.404 1 186.994C1 190.584 43.9807 193.494 97 193.494Z" fill="#F5F5F5"/>
<path d="M142.281 59.8334L137.202 57.7422C137.202 57.7422 130.501 70.2216 128.581 70.8542C125.97 71.7116 120.563 74.0956 117.358 74.5138C116.923 75.0366 116.211 76.6626 116.278 77.2533C120.584 78.7224 130.045 76.7723 132.072 75.2353C136.685 71.7482 142.281 59.8334 142.281 59.8334Z" fill="#E58A7B"/>
<path d="M143.843 56.9945C144.79 60.5653 139.66 67.7487 139.66 67.7487L132.938 63.9008C132.938 63.9008 134.197 60.947 135.733 57.9408C138.196 53.084 142.763 52.9219 143.843 56.9945Z" fill="#8C1813"/>
<path opacity="0.2" d="M143.843 56.9945C144.79 60.5653 139.66 67.7487 139.66 67.7487L132.938 63.9008C132.938 63.9008 134.197 60.947 135.733 57.9408C138.196 53.084 142.763 52.9219 143.843 56.9945Z" fill="black"/>
<path opacity="0.2" d="M135.605 65.4378L138.252 66.9539L138.718 58.657C137.177 59.8647 136.091 63.5034 135.605 65.4378Z" fill="black"/>
<path d="M139.419 54.3073C139.419 54.3073 134.186 66.196 137.238 88.3316H157.855C158.183 85.1007 157.097 69.3328 161.024 54.1087C158.762 53.6573 156.474 53.3587 154.174 53.2147C151.256 53.042 148.331 53.042 145.414 53.2147C143.392 53.4244 141.387 53.7897 139.419 54.3073Z" fill="#8C1813"/>
<path opacity="0.2" d="M139.419 54.3073C139.419 54.3073 134.186 66.196 137.238 88.3316H157.855C158.183 85.1007 157.097 69.3328 161.024 54.1087C158.762 53.6573 156.474 53.3587 154.174 53.2147C151.256 53.042 148.331 53.042 145.414 53.2147C143.392 53.4244 141.387 53.7897 139.419 54.3073Z" fill="black"/>
<path d="M150.6 178.788H146.668V187.722H150.6V178.788Z" fill="#E58A7B"/>
<path d="M164.705 188.454H160.85L159.437 179.342H163.292L164.705 188.454Z" fill="#E58A7B"/>
<path d="M160.584 188H164.915C164.991 188 165.063 188.027 165.12 188.077C165.178 188.127 165.216 188.196 165.228 188.271L165.786 191.769C165.798 191.857 165.791 191.946 165.766 192.031C165.741 192.116 165.698 192.194 165.641 192.26C165.583 192.327 165.513 192.38 165.433 192.416C165.354 192.452 165.268 192.47 165.182 192.47C163.671 192.443 162.944 192.349 161.04 192.349C159.867 192.349 157.456 192.475 155.828 192.475C154.2 192.475 154.092 190.844 154.763 190.692C157.773 190.028 158.941 189.124 159.944 188.245C160.121 188.087 160.349 187.999 160.584 188Z" fill="#263238"/>
<path d="M147.785 186.651L151.881 185.427C151.954 185.406 152.032 185.411 152.101 185.442C152.171 185.472 152.229 185.526 152.265 185.595L153.8 188.731C153.836 188.811 153.854 188.898 153.854 188.985C153.853 189.073 153.834 189.159 153.798 189.238C153.761 189.317 153.708 189.387 153.642 189.443C153.576 189.499 153.499 189.54 153.417 189.563C151.927 189.981 150.928 190.237 149.065 190.791C147.78 191.173 146.469 191.795 145.199 192.208C144.319 192.496 142.25 192.506 141.18 192.506C139.598 192.506 139.245 190.802 139.926 190.723C141.641 190.53 141.872 190.619 142.819 190.133C144.368 189.441 145.773 188.45 146.955 187.215C147.178 186.956 147.464 186.761 147.785 186.651Z" fill="#263238"/>
<path d="M118.003 74.4929L113.764 72.6787L112.019 77.4781C113.756 77.7483 115.524 77.7483 117.261 77.4781L118.003 74.4929Z" fill="#E58A7B"/>
<path d="M110.61 72.5532L110.498 75.7423L112.018 77.4676L113.764 72.6682L110.61 72.5532Z" fill="#E58A7B"/>
<path d="M149.838 178.934H145.906V183.54H149.838V178.934Z" fill="#CF6F64"/>
<path d="M163.292 179.342H159.437L160.169 184.042H164.025L163.292 179.342Z" fill="#CF6F64"/>
<path opacity="0.2" d="M136.583 82.3454C136.66 83.2917 136.747 84.2589 136.859 85.2522L152.188 80.1705C154.581 79.4461 156.662 77.9099 158.086 75.8156C158.147 74.4197 158.224 72.9506 158.342 71.4188C158.393 70.6764 158.454 69.9131 158.521 69.1393C158.587 68.3656 158.68 67.5082 158.777 66.6821L136.583 82.3454Z" fill="black"/>
<path d="M141.59 65.1975L141.078 65.1348C141.38 62.5208 143.289 60.4609 145.301 60.5132V61.036C143.54 60.9994 141.861 62.8554 141.59 65.1975Z" fill="white"/>
<path d="M144.319 70.0229H144.232V69.5001C145.993 69.5681 147.647 67.6912 147.918 65.3542L148.43 65.417C148.159 67.9735 146.31 70.0229 144.319 70.0229Z" fill="white"/>
<path d="M153.887 43.1401C153.165 46.0208 152.316 51.2959 154.174 53.2146C154.174 53.2146 152.874 56.1371 147.636 56.1371C142.849 56.1371 145.414 53.2146 145.414 53.2146C148.599 52.4513 148.655 50.0778 148.235 47.8297L153.887 43.1401Z" fill="#E58A7B"/>
<path d="M151.584 45.0537L148.24 47.8298C148.344 48.3464 148.404 48.8711 148.42 49.3982C149.398 50.3916 151.358 47.8769 151.558 46.5908C151.66 46.0844 151.668 45.5633 151.584 45.0537Z" fill="#CF6F64"/>
<path d="M142.491 43.1035C142.724 43.5152 143.037 43.8735 143.411 44.156C143.786 44.4385 144.213 44.639 144.667 44.7451C145.896 45.0222 146.51 43.8668 146.172 42.7062C145.87 41.6606 144.862 40.2542 143.612 40.4947C143.345 40.551 143.094 40.6719 142.882 40.8474C142.669 41.0229 142.501 41.2478 142.391 41.5032C142.282 41.7587 142.233 42.0373 142.251 42.3157C142.268 42.5942 142.351 42.8643 142.491 43.1035Z" fill="#CF6F64"/>
<path d="M144.523 33.8864C142.609 34.7804 141.933 42.5493 144.339 43.6995C146.745 44.8497 148.148 32.1873 144.523 33.8864Z" fill="#263238"/>
<path d="M154.471 38.8062C154.01 42.7063 153.959 45.0014 151.911 46.9986C151.277 47.6613 150.475 48.1321 149.595 48.3589C148.715 48.5857 147.791 48.5598 146.924 48.2839C146.057 48.008 145.282 47.493 144.684 46.7957C144.086 46.0983 143.689 45.2458 143.535 44.3322C142.916 40.8294 143.771 35.042 147.601 33.4892C148.405 33.1268 149.29 32.9908 150.163 33.0952C151.037 33.1996 151.867 33.5407 152.568 34.0831C153.269 34.6255 153.815 35.3494 154.15 36.1799C154.484 37.0104 154.595 37.9171 154.471 38.8062Z" fill="#E58A7B"/>
<path d="M148.179 35.9046C151.016 35.1674 153.099 34.6655 152.352 37.0757C151.364 40.2962 150.176 43.4121 151.768 43.5533C152.741 43.6421 157.041 41.7809 156.494 39.8936C156.018 38.252 158.03 37.8024 158.388 36.9711C159.714 33.9598 155.92 34.3571 156.596 32.5273C157.272 30.6974 153.524 27.7488 151.476 29.2179C148.143 31.5914 142.425 31.5548 145.43 27.6495C147.585 24.8629 143.74 25.4328 143.74 25.4328C143.74 25.4328 146.065 26.8391 142.153 29.014C138.017 31.3353 141.81 37.5724 148.179 35.9046Z" fill="#263238"/>
<path d="M155.976 43.1035C155.416 43.9309 154.575 44.516 153.616 44.7451C152.352 45.0222 151.865 43.8668 152.341 42.7062C152.766 41.6606 153.934 40.2542 155.142 40.4947C156.35 40.7352 156.627 42.0788 155.976 43.1035Z" fill="#E58A7B"/>
<path d="M137.238 88.3318C137.238 88.3318 133.777 119.962 133.506 131.965C133.229 144.45 145.235 183.404 145.235 183.404L151.379 180.79C151.379 180.79 144.211 145.197 145.235 132.938C146.321 119.569 150.805 88.3527 150.805 88.3527L137.238 88.3318Z" fill="#8C1813"/>
<path opacity="0.2" d="M145.839 97.0155C143.08 102.861 144.938 114.42 146.433 121.269C147.002 116.433 147.677 111.184 148.317 106.327C148.256 98.861 147.688 93.0945 145.839 97.0155Z" fill="black"/>
<path d="M151.108 178.72C151.138 178.72 151.835 180.717 151.835 180.717L144.749 183.76L143.633 181.637L151.108 178.72Z" fill="#8C1813"/>
<path d="M144.554 88.3318C144.554 88.3318 147.201 118.414 148.952 129.681C150.877 142.024 158.424 183.132 158.424 183.132H165.484C165.484 183.132 161.255 143.023 160.456 130.799C159.586 117.541 157.855 88.3318 157.855 88.3318H144.554Z" fill="#8C1813"/>
<path d="M165.591 181.255C165.622 181.255 165.827 183.268 165.827 183.268H158.065L157.512 180.957L165.591 181.255Z" fill="#8C1813"/>
<path opacity="0.2" d="M162.888 178.871C162.872 178.872 162.856 178.866 162.844 178.855C162.832 178.845 162.824 178.83 162.821 178.814C162.781 178.448 158.966 142.217 158.25 131.238C157.471 119.329 155.905 92.9115 155.889 92.6449C155.889 92.6362 155.89 92.6275 155.892 92.6193C155.895 92.611 155.9 92.6035 155.905 92.5971C155.911 92.5907 155.918 92.5856 155.926 92.5821C155.934 92.5787 155.942 92.5769 155.951 92.5769C155.968 92.5769 155.984 92.5833 155.996 92.5949C156.009 92.6066 156.016 92.6225 156.017 92.6396C156.017 92.9063 157.599 119.303 158.378 131.233C159.094 142.212 162.909 178.416 162.944 178.809C162.946 178.817 162.945 178.826 162.943 178.835C162.941 178.843 162.937 178.851 162.932 178.858C162.927 178.865 162.92 178.871 162.913 178.875C162.905 178.879 162.897 178.881 162.888 178.882V178.871Z" fill="black"/>
<path d="M148.614 39.8937C148.614 40.2126 148.42 40.4688 148.215 40.4688C148.01 40.4688 147.862 40.2126 147.882 39.8937C147.902 39.5748 148.077 39.3186 148.281 39.3186C148.486 39.3186 148.635 39.58 148.614 39.8937Z" fill="#263238"/>
<path d="M145.102 39.8937C145.102 40.2126 144.902 40.4688 144.703 40.4688C144.503 40.4688 144.349 40.2126 144.365 39.8937C144.38 39.5748 144.564 39.3186 144.769 39.3186C144.974 39.3186 145.123 39.58 145.102 39.8937Z" fill="#263238"/>
<path d="M146.208 40.0557C145.781 41.0295 145.23 41.9418 144.57 42.769C145.082 43.2918 146.039 43.0513 146.039 43.0513L146.208 40.0557Z" fill="#DF5753"/>
<path d="M146.3 44.3846C146.288 44.3846 146.277 44.3821 146.266 44.3774C146.255 44.3726 146.245 44.3655 146.237 44.3567C146.229 44.3479 146.222 44.3375 146.218 44.3261C146.214 44.3147 146.213 44.3026 146.213 44.2905C146.215 44.265 146.225 44.2411 146.244 44.2236C146.262 44.2061 146.286 44.1963 146.311 44.1964C146.702 44.1991 147.089 44.1123 147.444 43.9422C147.798 43.7721 148.111 43.5231 148.358 43.2135C148.376 43.1977 148.399 43.189 148.422 43.189C148.446 43.189 148.469 43.1977 148.486 43.2135C148.503 43.231 148.512 43.2545 148.512 43.2788C148.512 43.3032 148.503 43.3266 148.486 43.3442C148.221 43.6733 147.887 43.9375 147.509 44.1175C147.131 44.2976 146.718 44.3888 146.3 44.3846Z" fill="#263238"/>
<path d="M149.239 38.9316C149.214 38.9444 149.187 38.9511 149.159 38.9511C149.132 38.9511 149.105 38.9444 149.08 38.9316C148.889 38.8051 148.671 38.7265 148.444 38.702C148.217 38.6774 147.988 38.7077 147.775 38.7904C147.754 38.801 147.731 38.8073 147.708 38.8088C147.685 38.8103 147.661 38.8071 147.639 38.7993C147.618 38.7915 147.597 38.7793 147.58 38.7634C147.563 38.7475 147.549 38.7282 147.539 38.7067C147.52 38.6602 147.52 38.608 147.538 38.5611C147.556 38.5142 147.591 38.4764 147.636 38.4558C147.904 38.3442 148.194 38.3001 148.482 38.3274C148.77 38.3547 149.047 38.4526 149.29 38.6126C149.31 38.6263 149.326 38.6437 149.339 38.664C149.352 38.6843 149.361 38.7071 149.365 38.7309C149.37 38.7547 149.369 38.7792 149.364 38.8029C149.359 38.8265 149.35 38.849 149.336 38.8688C149.31 38.8988 149.276 38.9206 149.239 38.9316Z" fill="#263238"/>
<path d="M143.745 37.886C143.718 37.8793 143.693 37.8648 143.674 37.8442C143.657 37.8272 143.643 37.8068 143.634 37.7844C143.625 37.762 143.62 37.7379 143.62 37.7135C143.62 37.6892 143.625 37.6651 143.634 37.6426C143.643 37.6202 143.657 37.5999 143.674 37.5828C143.87 37.3581 144.114 37.1826 144.388 37.0702C144.661 36.9577 144.957 36.9113 145.251 36.9345C145.274 36.9382 145.297 36.9469 145.317 36.9598C145.337 36.9728 145.354 36.9899 145.368 37.01C145.381 37.0301 145.39 37.0528 145.395 37.0767C145.399 37.1005 145.399 37.1251 145.394 37.1489C145.383 37.1973 145.355 37.2399 145.315 37.2688C145.276 37.2977 145.227 37.3108 145.179 37.3057C144.946 37.2908 144.713 37.3301 144.498 37.4206C144.282 37.5112 144.09 37.6507 143.935 37.8285C143.911 37.855 143.881 37.8744 143.848 37.8845C143.815 37.8947 143.779 37.8952 143.745 37.886Z" fill="#263238"/>
<path d="M163.006 59.2531L157.681 57.8049C157.681 57.8049 152.459 70.9326 150.611 71.7848C148.102 72.9559 141.749 77.0128 139.046 78.9315C138.897 79.585 139.015 81.3155 139.353 81.7913C143.961 80.9339 152.782 77.4677 154.625 75.7058C158.828 71.6854 163.006 59.2531 163.006 59.2531Z" fill="#E58A7B"/>
<path d="M159.289 188.69C159.029 188.711 158.77 188.639 158.557 188.486C158.491 188.425 158.442 188.348 158.414 188.262C158.386 188.175 158.38 188.083 158.398 187.994C158.401 187.939 158.419 187.885 158.45 187.839C158.48 187.793 158.523 187.756 158.572 187.733C159.002 187.508 160.205 188.287 160.344 188.376C160.359 188.386 160.37 188.4 160.377 188.417C160.383 188.434 160.384 188.453 160.379 188.47C160.375 188.488 160.366 188.505 160.354 188.519C160.341 188.533 160.325 188.543 160.308 188.549C159.974 188.632 159.632 188.68 159.289 188.69ZM158.777 187.874C158.738 187.865 158.698 187.865 158.659 187.874C158.64 187.884 158.623 187.9 158.612 187.92C158.601 187.939 158.596 187.961 158.598 187.984C158.584 188.045 158.586 188.108 158.604 188.168C158.622 188.227 158.655 188.281 158.7 188.324C158.9 188.507 159.402 188.528 160.062 188.397C159.669 188.132 159.226 187.954 158.762 187.874H158.777Z" fill="#8C1813"/>
<path d="M160.282 188.549C160.268 188.553 160.254 188.553 160.241 188.549C159.857 188.329 159.135 187.466 159.242 187.027C159.259 186.958 159.297 186.895 159.352 186.851C159.407 186.806 159.475 186.782 159.545 186.781C159.613 186.772 159.683 186.778 159.749 186.799C159.816 186.819 159.877 186.855 159.929 186.902C160.353 187.273 160.379 188.413 160.379 188.47C160.382 188.487 160.378 188.505 160.37 188.52C160.362 188.535 160.349 188.547 160.333 188.554C160.316 188.557 160.298 188.555 160.282 188.549ZM159.596 186.954H159.56C159.442 186.954 159.427 187.022 159.422 187.048C159.36 187.304 159.816 187.958 160.195 188.266C160.193 187.825 160.059 187.394 159.811 187.032C159.751 186.979 159.675 186.951 159.596 186.954Z" fill="#8C1813"/>
<path d="M145.696 188.036C145.383 188.148 145.042 188.148 144.729 188.036C144.657 187.997 144.597 187.94 144.553 187.87C144.509 187.801 144.484 187.721 144.478 187.639C144.471 187.587 144.478 187.535 144.497 187.486C144.515 187.438 144.546 187.395 144.585 187.362C144.995 186.985 146.669 187.362 146.858 187.435C146.876 187.44 146.892 187.451 146.904 187.466C146.915 187.481 146.92 187.5 146.92 187.519C146.921 187.538 146.916 187.558 146.906 187.574C146.896 187.591 146.881 187.604 146.864 187.613C146.487 187.786 146.096 187.928 145.696 188.036ZM144.862 187.414C144.803 187.426 144.749 187.453 144.703 187.492C144.687 187.505 144.674 187.522 144.667 187.541C144.66 187.561 144.658 187.582 144.662 187.602C144.665 187.657 144.682 187.71 144.711 187.757C144.739 187.803 144.779 187.842 144.826 187.869C145.097 188.015 145.727 187.9 146.541 187.55C145.993 187.409 145.425 187.363 144.862 187.414Z" fill="#8C1813"/>
<path d="M146.848 187.613H146.807C146.295 187.518 145.271 186.917 145.24 186.468C145.24 186.363 145.287 186.217 145.532 186.133C145.615 186.103 145.703 186.09 145.791 186.095C145.879 186.101 145.965 186.124 146.044 186.164C146.597 186.441 146.889 187.445 146.904 187.492C146.908 187.508 146.908 187.525 146.903 187.54C146.899 187.556 146.89 187.57 146.879 187.581C146.871 187.594 146.861 187.605 146.848 187.613ZM145.635 186.29H145.584C145.425 186.347 145.425 186.415 145.425 186.436C145.425 186.708 146.167 187.205 146.684 187.372C146.565 186.952 146.313 186.584 145.967 186.326C145.865 186.273 145.746 186.26 145.635 186.29Z" fill="#8C1813"/>
<path d="M139.481 78.623L134.141 81.1325L133.521 82.7009L135.492 84.055C135.492 84.055 139.179 83.6472 140.228 81.2266L139.481 78.623Z" fill="#E58A7B"/>
<path d="M139.706 81.8801C139.586 80.8324 139.248 79.8232 138.712 78.921L139.557 78.2727C140.193 79.3122 140.598 80.4809 140.745 81.6971L139.706 81.8801Z" fill="#263238"/>
<path d="M140.617 79.3655C140.73 79.5468 140.785 79.7592 140.776 79.9739C140.766 80.1885 140.692 80.3949 140.564 80.5651C140.435 80.7352 140.259 80.8608 140.058 80.9248C139.857 80.9887 139.642 80.9879 139.441 80.9225C139.241 80.8571 139.065 80.7302 138.938 80.5591C138.81 80.3881 138.738 80.1811 138.73 79.9664C138.722 79.7517 138.779 79.5397 138.893 79.3592C139.007 79.1787 139.173 79.0385 139.368 78.9577C139.587 78.8439 139.841 78.8228 140.075 78.8992C140.309 78.9756 140.503 79.1431 140.617 79.3655Z" fill="#263238"/>
<path d="M130.531 83.1611L131.243 83.893L136.035 81.8018L134.141 81.1326L130.531 83.1611Z" fill="#E58A7B"/>
<path opacity="0.2" d="M151.108 178.72C151.138 178.72 151.835 180.717 151.835 180.717L144.749 183.76L143.633 181.637L151.108 178.72Z" fill="black"/>
<path opacity="0.2" d="M165.591 181.255C165.622 181.255 165.827 183.268 165.827 183.268H158.065L157.512 180.957L165.591 181.255Z" fill="black"/>
<path d="M164.393 57.7476C165.801 62.3848 160.297 68.7265 160.297 68.7265L152.694 65.5583C153.595 62.878 154.635 60.2481 155.807 57.6796C158.142 52.5404 162.97 53.0684 164.393 57.7476Z" fill="#8C1813"/>
<path opacity="0.2" d="M164.393 57.7476C165.801 62.3848 160.297 68.7265 160.297 68.7265L152.694 65.5583C153.595 62.878 154.635 60.2481 155.807 57.6796C158.142 52.5404 162.97 53.0684 164.393 57.7476Z" fill="black"/>
<path d="M115.978 156.425H36.8815L32.5535 29.1455H111.65L115.978 156.425Z" fill="#8C1813"/>
<path d="M119.927 152.474H40.8307L36.4971 25.1941H115.593L119.927 152.474Z" fill="#8C1813"/>
<path opacity="0.3" d="M119.927 152.474H40.8307L36.4971 25.1941H115.593L119.927 152.474Z" fill="white"/>
<path d="M77.2875 84.3446C89.3682 84.3446 99.1616 74.2062 99.1616 61.6999C99.1616 49.1936 89.3682 39.0552 77.2875 39.0552C65.2068 39.0552 55.4135 49.1936 55.4135 61.6999C55.4135 74.2062 65.2068 84.3446 77.2875 84.3446Z" fill="#8C1813"/>
<path d="M95.6522 61.6998C95.7661 64.7327 95.1047 67.7444 93.7305 70.4501C92.2473 73.3658 89.9815 75.8104 87.1873 77.5096C84.393 79.2088 81.1809 80.0953 77.9112 80.0697C74.5647 80.0517 71.2817 79.1533 68.3917 77.4649C65.5017 75.7765 63.1063 73.3573 61.4458 70.4501C59.8975 67.786 59.0325 64.7798 58.9281 61.6998C58.8253 59.3117 59.2089 56.9275 60.0555 54.6923C60.9021 52.457 62.194 50.4173 63.8528 48.6971C65.5116 46.9769 67.5026 45.6121 69.7048 44.6856C71.907 43.7591 74.2745 43.2903 76.6635 43.3076C81.5849 43.3424 86.3037 45.2729 89.8398 48.6979C93.3759 52.1229 95.4575 56.7793 95.6522 61.6998Z" fill="white"/>
<path opacity="0.6" d="M93.7194 70.4503C92.2362 73.366 89.9704 75.8106 87.1762 77.5098C84.382 79.209 81.1698 80.0955 77.9001 80.07C74.5536 80.0519 71.2706 79.1536 68.3807 77.4651C65.4907 75.7767 63.0952 73.3575 61.4347 70.4503C66.1455 67.2367 71.7197 65.5285 77.4211 65.5513C83.2144 65.5638 88.8783 67.2663 93.7194 70.4503Z" fill="#8C1813"/>
<path opacity="0.6" d="M77.0757 63.7397C81.5179 63.7397 85.119 60.0118 85.119 55.4131C85.119 50.8144 81.5179 47.0864 77.0757 47.0864C72.6335 47.0864 69.0323 50.8144 69.0323 55.4131C69.0323 60.0118 72.6335 63.7397 77.0757 63.7397Z" fill="#8C1813"/>
<path d="M104.035 106.382H53.5807L53.241 96.3499H103.696L104.035 106.382Z" fill="white"/>
<path d="M104.648 124.311H54.1878L53.848 114.279H104.308L104.648 124.311Z" fill="white"/>
<path d="M96.3206 138.362H63.4733L63.2561 131.83H96.0978L96.3206 138.362Z" fill="#8C1813"/>
<path d="M80.4736 101.366C80.4834 101.604 80.4448 101.842 80.36 102.065C80.2753 102.287 80.1462 102.491 79.9805 102.662C79.8149 102.834 79.6162 102.97 79.3965 103.062C79.1768 103.154 78.9406 103.201 78.7023 103.199C78.2112 103.195 77.7402 103.003 77.3868 102.662C77.0333 102.321 76.8243 101.857 76.8029 101.366C76.7931 101.127 76.8317 100.89 76.9165 100.667C77.0012 100.444 77.1303 100.241 77.296 100.069C77.4616 99.8977 77.6603 99.7617 77.88 99.6694C78.0997 99.577 78.3359 99.5303 78.5742 99.532C79.0658 99.5345 79.5375 99.7264 79.8912 100.068C80.245 100.409 80.4536 100.874 80.4736 101.366Z" fill="#263238"/>
<path d="M80.4736 119.203C80.4834 119.441 80.4448 119.679 80.36 119.902C80.2753 120.125 80.1462 120.328 79.9805 120.499C79.8149 120.671 79.6162 120.807 79.3965 120.899C79.1768 120.991 78.9406 121.038 78.7023 121.036C78.2112 121.033 77.7402 120.84 77.3868 120.499C77.0333 120.158 76.8243 119.694 76.8029 119.203C76.7931 118.965 76.8317 118.727 76.9165 118.504C77.0012 118.281 77.1303 118.078 77.296 117.906C77.4616 117.735 77.6603 117.599 77.88 117.507C78.0997 117.414 78.3359 117.367 78.5742 117.369C79.0658 117.372 79.5375 117.564 79.8912 117.905C80.245 118.247 80.4536 118.711 80.4736 119.203Z" fill="#263238"/>
<path d="M72.5528 101.366C72.5634 101.604 72.5253 101.842 72.4408 102.065C72.3564 102.289 72.2273 102.492 72.0615 102.664C71.8957 102.836 71.6967 102.972 71.4766 103.064C71.2565 103.156 71.02 103.202 70.7815 103.199C70.2909 103.195 69.8206 103.003 69.468 102.662C69.1154 102.32 68.9076 101.856 68.8876 101.366C68.8778 101.127 68.9164 100.89 69.0012 100.667C69.086 100.444 69.2151 100.241 69.3807 100.069C69.5463 99.8977 69.745 99.7617 69.9647 99.6694C70.1844 99.577 70.4206 99.5303 70.6589 99.532C71.1499 99.5345 71.621 99.7267 71.9739 100.068C72.3267 100.41 72.5341 100.875 72.5528 101.366Z" fill="#263238"/>
<path d="M72.5528 119.203C72.5634 119.441 72.5253 119.679 72.4408 119.903C72.3564 120.126 72.2273 120.329 72.0615 120.501C71.8957 120.673 71.6967 120.809 71.4766 120.901C71.2565 120.993 71.02 121.039 70.7815 121.036C70.2909 121.033 69.8206 120.84 69.468 120.499C69.1154 120.157 68.9076 119.693 68.8876 119.203C68.8778 118.965 68.9164 118.727 69.0012 118.504C69.086 118.281 69.2151 118.078 69.3807 117.906C69.5463 117.735 69.745 117.599 69.9647 117.507C70.1844 117.414 70.4206 117.367 70.6589 117.369C71.1499 117.372 71.621 117.564 71.9739 117.905C72.3267 118.247 72.5341 118.712 72.5528 119.203Z" fill="#263238"/>
<path d="M64.682 101.366C64.6919 101.604 64.6532 101.842 64.5685 102.065C64.4837 102.287 64.3546 102.491 64.189 102.662C64.0234 102.834 63.8247 102.97 63.6049 103.062C63.3852 103.154 63.149 103.201 62.9107 103.199C62.4197 103.197 61.9487 103.005 61.5958 102.663C61.2429 102.321 61.0355 101.857 61.0169 101.366C61.0071 101.127 61.0457 100.89 61.1305 100.667C61.2152 100.444 61.3443 100.241 61.5099 100.069C61.6756 99.8977 61.8743 99.7617 62.094 99.6694C62.3137 99.577 62.5499 99.5303 62.7882 99.532C63.2792 99.5345 63.7503 99.7267 64.1031 100.068C64.456 100.41 64.6634 100.875 64.682 101.366Z" fill="#263238"/>
<path d="M64.682 119.203C64.6919 119.441 64.6532 119.679 64.5685 119.902C64.4837 120.125 64.3546 120.328 64.189 120.499C64.0234 120.671 63.8247 120.807 63.6049 120.899C63.3852 120.991 63.149 121.038 62.9107 121.036C62.4197 121.034 61.9487 120.842 61.5958 120.5C61.2429 120.159 61.0355 119.694 61.0169 119.203C61.0071 118.965 61.0457 118.727 61.1305 118.504C61.2152 118.281 61.3443 118.078 61.5099 117.906C61.6756 117.735 61.8743 117.599 62.094 117.507C62.3137 117.414 62.5499 117.367 62.7882 117.369C63.2792 117.372 63.7503 117.564 64.1031 117.905C64.456 118.247 64.6634 118.712 64.682 119.203Z" fill="#263238"/>
<path d="M88.3664 101.366C88.3762 101.604 88.3376 101.842 88.2528 102.065C88.1681 102.288 88.039 102.491 87.8733 102.662C87.7077 102.834 87.509 102.97 87.2893 103.062C87.0696 103.155 86.8334 103.201 86.5951 103.2C86.1041 103.197 85.633 103.005 85.2802 102.663C84.9273 102.322 84.7199 101.857 84.7013 101.366C84.693 101.128 84.7329 100.892 84.8188 100.67C84.9046 100.448 85.0346 100.246 85.2007 100.077C85.3669 99.9067 85.5657 99.7723 85.7853 99.6816C86.0049 99.5909 86.2406 99.5458 86.4781 99.549C86.9654 99.5527 87.4327 99.7432 87.784 100.081C88.1352 100.419 88.3436 100.879 88.3664 101.366Z" fill="#263238"/>
<path d="M88.3664 119.203C88.3762 119.441 88.3376 119.679 88.2528 119.902C88.1681 120.125 88.039 120.328 87.8733 120.499C87.7077 120.671 87.509 120.807 87.2893 120.899C87.0696 120.991 86.8334 121.038 86.5951 121.036C86.1041 121.034 85.633 120.842 85.2802 120.5C84.9273 120.159 84.7199 119.694 84.7013 119.203C84.693 118.965 84.7329 118.729 84.8188 118.507C84.9046 118.285 85.0346 118.083 85.2007 117.913C85.3669 117.744 85.5657 117.609 85.7853 117.519C86.0049 117.428 86.2406 117.383 86.4781 117.386C86.9654 117.39 87.4327 117.58 87.784 117.918C88.1352 118.256 88.3436 118.716 88.3664 119.203Z" fill="#263238"/>
<path d="M96.2595 101.366C96.2701 101.604 96.232 101.842 96.1475 102.065C96.063 102.289 95.934 102.492 95.7682 102.664C95.6024 102.836 95.4034 102.972 95.1833 103.064C94.9632 103.156 94.7267 103.202 94.4881 103.199C93.9975 103.195 93.5272 103.003 93.1747 102.662C92.8221 102.32 92.6143 101.856 92.5943 101.366C92.5845 101.127 92.6231 100.89 92.7079 100.667C92.7926 100.444 92.9217 100.241 93.0873 100.069C93.253 99.8977 93.4517 99.7617 93.6714 99.6694C93.8911 99.577 94.1273 99.5303 94.3656 99.532C94.8566 99.5345 95.3277 99.7267 95.6805 100.068C96.0334 100.41 96.2408 100.875 96.2595 101.366Z" fill="#263238"/>
<path d="M96.2595 119.203C96.2701 119.441 96.232 119.679 96.1475 119.903C96.063 120.126 95.934 120.329 95.7682 120.501C95.6024 120.673 95.4034 120.809 95.1833 120.901C94.9632 120.993 94.7267 121.039 94.4881 121.036C93.9975 121.033 93.5272 120.84 93.1747 120.499C92.8221 120.157 92.6143 119.693 92.5943 119.203C92.5845 118.965 92.6231 118.727 92.7079 118.504C92.7926 118.281 92.9217 118.078 93.0873 117.906C93.253 117.735 93.4517 117.599 93.6714 117.507C93.8911 117.414 94.1273 117.367 94.3656 117.369C94.8566 117.372 95.3277 117.564 95.6805 117.905C96.0334 118.247 96.2408 118.712 96.2595 119.203Z" fill="#263238"/>
</svg>
