<svg width="172" height="161" viewBox="0 0 172 161" fill="none" xmlns="http://www.w3.org/2000/svg">
<mask id="mask0" mask-type="alpha" maskUnits="userSpaceOnUse" x="0" y="0" width="172" height="161">
<path d="M163.291 65.4963C162.047 58.89 160.448 52.3556 158.501 45.9212C152.659 27.2976 141.052 8.45037 121.106 2.11405C106.388 -2.56208 90.4902 0.686951 78.0459 10.2009C58.5422 25.1332 44.3331 45.5074 22.9789 58.4464C5.14971 69.2448 -4.18351 86.6982 1.81506 111.363C7.81363 136.028 27.8263 150.409 49.7275 148.639C67.942 147.169 86.9795 148.739 102.725 157.582C116.792 165.479 141.656 158.624 162.221 137.032C174.199 124.455 173.043 108.466 169.138 93.5102C166.731 84.3007 165.161 74.8581 163.291 65.4963Z" fill="#0F50A4"/>
<path opacity="0.9" d="M163.291 65.4963C162.047 58.89 160.448 52.3555 158.501 45.9212C152.659 27.2976 141.052 8.45037 121.106 2.11405C106.388 -2.56208 90.4902 0.686951 78.0459 10.2009C58.5422 25.1332 44.3331 45.5074 22.9789 58.4464C5.14971 69.2448 -4.18351 86.6982 1.81506 111.363C7.81363 136.028 27.8263 150.409 49.7275 148.639C67.942 147.169 88.5747 141.533 104.32 150.377C118.387 158.273 141.656 158.624 162.221 137.032C174.199 124.454 173.043 108.466 169.138 93.5102C166.731 84.3007 165.161 74.858 163.291 65.4963Z" fill="white"/>
</mask>
<g mask="url(#mask0)">
<path d="M-8.87988 -8.87988H179.785V143.161C106.107 143.161 64.7982 143.161 -8.87988 143.161V-8.87988Z" fill="#E7EDF6"/>
</g>
<path d="M148.116 120.035C147.28 121.005 146.715 122.179 146.479 123.438L143.195 125.278V116.577L143.259 116.664L148.49 112.835C149.151 112.938 151.69 113.228 154.004 111.981C156.692 110.534 158.655 105.578 158.655 105.578C158.655 105.578 152.248 104.852 150.079 107.54C148.319 109.719 148.258 111.83 148.3 112.548L143.195 116.284V109.854C144.151 109.409 144.996 108.757 145.669 107.945C146.342 107.132 146.825 106.181 147.085 105.159C148.013 101.543 143.056 94.417 143.056 94.417C143.056 94.417 137.9 101.752 138.921 105.471C139.798 108.62 142.144 109.619 142.85 109.851V123.79L139.176 120.718C139.26 119.983 139.327 117.686 137.281 115.385C134.799 112.594 128.189 112.806 128.189 112.806C128.189 112.806 130.977 118.385 133.346 120.244C135.421 121.856 138.286 121.211 138.976 121.015L142.844 124.238V128.476H137.091L139.44 143.159H146.488L148.844 128.479H143.195V125.675L146.804 123.651C147.681 123.896 150.133 124.399 152.454 123.238C155.354 121.791 157.723 118.691 157.723 118.691C157.723 118.691 150.804 116.935 148.116 120.035Z" fill="#0F50A4"/>
<path opacity="0.5" d="M148.116 120.035C147.28 121.005 146.715 122.179 146.479 123.438L143.195 125.278V116.577L143.259 116.664L148.49 112.835C149.151 112.938 151.69 113.228 154.004 111.981C156.692 110.534 158.655 105.578 158.655 105.578C158.655 105.578 152.248 104.852 150.079 107.54C148.319 109.719 148.258 111.83 148.3 112.548L143.195 116.284V109.854C144.151 109.409 144.996 108.757 145.669 107.945C146.342 107.132 146.825 106.181 147.085 105.159C148.013 101.543 143.056 94.417 143.056 94.417C143.056 94.417 137.9 101.752 138.921 105.471C139.798 108.62 142.144 109.619 142.85 109.851V123.79L139.176 120.718C139.26 119.983 139.327 117.686 137.281 115.385C134.799 112.594 128.189 112.806 128.189 112.806C128.189 112.806 130.977 118.385 133.346 120.244C135.421 121.856 138.286 121.211 138.976 121.015L142.844 124.238V128.476H137.091L139.44 143.159H146.488L148.844 128.479H143.195V125.675L146.804 123.651C147.681 123.896 150.133 124.399 152.454 123.238C155.354 121.791 157.723 118.691 157.723 118.691C157.723 118.691 150.804 116.935 148.116 120.035Z" fill="white"/>
<path d="M141.601 75.6771L132.116 75.7576C132.116 75.7576 131.472 75.6771 131.333 76.1476C131.333 76.1476 129.686 80.305 129.609 81.794C129.532 83.2829 129.931 83.0476 129.287 85.0168C128.642 86.9859 126.857 91.6009 125.838 95.3652C124.469 100.422 124.111 105.791 124.024 111.012C124.024 111.85 123.508 119.069 124.813 119.069C125.896 119.069 135.877 120.393 135.997 118.469C136.477 110.799 135.091 103.306 137.753 95.8486C138.787 92.9481 139.973 89.8929 140.853 86.8634C141.733 83.834 141.885 80.6821 142.465 77.5818C142.855 75.4418 141.601 75.6771 141.601 75.6771Z" fill="#0F50A4"/>
<path d="M142.535 76.618C142.442 75.5222 141.604 75.6769 141.604 75.6769L132.119 75.7575C132.119 75.7575 131.474 75.6769 131.336 76.1475C131.336 76.1475 129.689 80.3049 129.612 81.7938C129.588 82.1872 129.599 82.5818 129.644 82.9734L129.844 83.2956C129.844 83.2956 130.166 86.0382 133.92 86.1961C137.675 86.3541 139.802 84.6266 140.585 82.9734C141.368 81.3201 141.684 78.6612 142.309 77.0917C142.377 76.9301 142.452 76.772 142.535 76.618Z" fill="#0F50A4"/>
<path d="M140.335 79.6749C139.69 81.9663 140.08 82.6012 139.445 86.5459C138.81 90.4906 136.519 94.9252 135.626 99.0149C134.734 103.105 135.12 117.462 135.246 118.1C135.296 118.438 135.314 118.78 135.301 119.122C135.729 118.961 135.987 118.742 136.007 118.442C136.487 110.772 135.101 103.279 137.763 95.8211C138.797 92.9206 139.983 89.8654 140.863 86.8359C141.743 83.8065 141.895 80.6546 142.475 77.5543C142.716 76.2652 142.336 75.843 142.004 75.7173C141.283 76.961 140.722 78.2907 140.335 79.6749Z" fill="#0F50A4"/>
<path d="M122.006 137.572L121.942 137.52V128.664H123.215V123.066H118.509V128.664H119.779V137.672L108.519 141.262V142.151C108.519 142.421 108.626 142.68 108.817 142.871C109.008 143.062 109.267 143.17 109.537 143.17C109.807 143.17 110.066 143.062 110.257 142.871C110.448 142.68 110.555 142.421 110.555 142.151V142.026L119.972 140.93V142.28C119.972 142.516 120.066 142.742 120.233 142.909C120.4 143.076 120.626 143.17 120.862 143.17C121.098 143.17 121.324 143.076 121.491 142.909C121.658 142.742 121.751 142.516 121.751 142.28V140.885L131.549 142.026V142.151C131.549 142.421 131.656 142.68 131.847 142.871C132.038 143.062 132.297 143.17 132.567 143.17C132.837 143.17 133.096 143.062 133.287 142.871C133.478 142.68 133.585 142.421 133.585 142.151V141.262L122.006 137.572Z" fill="#0F50A4"/>
<path d="M135.431 117.607H107.466C106.754 117.607 106.177 118.185 106.177 118.897V122.812C106.177 123.524 106.754 124.101 107.466 124.101H135.431C136.143 124.101 136.72 123.524 136.72 122.812V118.897C136.72 118.185 136.143 117.607 135.431 117.607Z" fill="#0F50A4"/>
<path d="M25.3561 75.6771L34.8408 75.7576C34.8408 75.7576 35.4854 75.6771 35.6272 76.1476C35.6272 76.1476 37.274 80.305 37.3514 81.794C37.4287 83.2829 37.0291 83.0476 37.6737 85.0168C38.3182 86.9859 40.1037 91.6009 41.1221 95.3652C42.495 100.422 42.8495 105.791 42.9365 111.012C42.9365 111.85 43.4522 119.069 42.1469 119.069C41.0673 119.069 31.0863 120.393 30.9638 118.469C30.4868 110.799 31.8694 103.306 29.2074 95.8486C28.1729 92.9481 26.9869 89.8929 26.1103 86.8634C25.2337 83.834 25.079 80.6821 24.4989 77.5818C24.1186 75.4418 25.3561 75.6771 25.3561 75.6771Z" fill="#0F50A4"/>
<path d="M24.439 76.618C24.5324 75.5222 25.3671 75.6769 25.3671 75.6769L34.8518 75.7575C34.8518 75.7575 35.4964 75.6769 35.6382 76.1475C35.6382 76.1475 37.285 80.3049 37.3624 81.7938C37.3834 82.1873 37.3715 82.5818 37.3269 82.9734L37.1271 83.2956C37.1271 83.2956 36.8048 86.0382 33.0503 86.1961C29.2957 86.3541 27.159 84.6266 26.3726 82.9701C25.5863 81.3136 25.2769 78.658 24.6484 77.0885C24.5878 76.9277 24.5179 76.7706 24.439 76.618Z" fill="#0F50A4"/>
<path d="M26.6269 79.6749C27.2715 81.9663 26.8815 82.6012 27.5164 86.5459C28.1513 90.4906 30.446 94.9252 31.3354 99.0149C32.2249 103.105 31.8543 117.462 31.7157 118.1C31.6674 118.439 31.6491 118.78 31.661 119.122C31.2355 118.961 30.9745 118.742 30.9552 118.442C30.4782 110.772 31.8608 103.279 29.1987 95.8211C28.1642 92.9206 26.9782 89.8654 26.1016 86.8359C25.225 83.8065 25.0703 80.6546 24.4902 77.5543C24.2517 76.2652 24.632 75.843 24.9608 75.7173C25.682 76.9604 26.2419 78.2903 26.6269 79.6749Z" fill="#0F50A4"/>
<path d="M44.9515 137.572L45.016 137.52V128.664H43.7269V123.066H48.4354V128.664H47.1624V137.672L58.4228 141.262V142.151C58.4228 142.421 58.3155 142.68 58.1246 142.871C57.9336 143.062 57.6745 143.17 57.4044 143.17C57.1343 143.17 56.8753 143.062 56.6843 142.871C56.4933 142.68 56.386 142.421 56.386 142.151V142.026L47.0045 140.93V142.28C46.9908 142.507 46.891 142.721 46.7254 142.877C46.5597 143.032 46.3408 143.119 46.1134 143.119C45.8859 143.119 45.667 143.032 45.5014 142.877C45.3358 142.721 45.2359 142.507 45.2223 142.28V140.885L35.4024 142.026V142.151C35.4102 142.29 35.3897 142.428 35.3421 142.558C35.2945 142.688 35.2209 142.807 35.1257 142.908C35.0305 143.009 34.9158 143.089 34.7885 143.144C34.6613 143.199 34.5242 143.227 34.3856 143.227C34.247 143.227 34.1099 143.199 33.9827 143.144C33.8554 143.089 33.7407 143.009 33.6455 142.908C33.5503 142.807 33.4767 142.688 33.4291 142.558C33.3815 142.428 33.361 142.29 33.3688 142.151V141.262L44.9515 137.572Z" fill="#0F50A4"/>
<path d="M31.5191 124.095H59.4833C60.1953 124.095 60.7725 123.518 60.7725 122.806V118.89C60.7725 118.178 60.1953 117.601 59.4833 117.601H31.5191C30.8072 117.601 30.23 118.178 30.23 118.89V122.806C30.23 123.518 30.8072 124.095 31.5191 124.095Z" fill="#0F50A4"/>
<path d="M129.83 99.3643H53.2559V143.375H129.83V99.3643Z" fill="#9ABFED"/>
<path d="M129.768 100.424H53.2905V101.643H129.768V100.424Z" fill="#263238"/>
<path d="M130.391 98.6475H51.5454V100.571H130.391V98.6475Z" fill="#CCCCCC"/>
<path d="M73.6492 94.8125C73.6492 94.8125 74.5516 98.8442 74.5 99.969C74.4484 101.094 72.3246 104.107 72.2698 103.417C72.2878 102.833 72.4146 102.257 72.6437 101.719C72.6437 101.719 71.8992 102.728 71.6349 102.686C71.3707 102.644 71.8476 101.252 71.8476 101.252C71.8476 101.252 71.0516 102.048 70.7841 101.896C70.5166 101.745 71.3674 100.568 71.3674 100.568C71.3674 100.568 70.4006 101.577 70.3619 101.258C70.3232 100.939 71.2095 99.6145 71.2095 99.6145C71.2095 99.6145 70.3071 97.7033 70.2427 96.9073C70.2485 96.3513 70.4339 95.8121 70.7712 95.37L73.6492 94.8125Z" fill="white"/>
<path d="M73.6492 94.8125C73.6492 94.8125 74.5516 98.8442 74.5 99.969C74.4484 101.094 72.3246 104.107 72.2698 103.417C72.2878 102.833 72.4146 102.257 72.6437 101.719C72.6437 101.719 71.8992 102.728 71.6349 102.686C71.3707 102.644 71.8476 101.252 71.8476 101.252C71.8476 101.252 71.0516 102.048 70.7841 101.896C70.5166 101.745 71.3674 100.568 71.3674 100.568C71.3674 100.568 70.4006 101.577 70.3619 101.258C70.3232 100.939 71.2095 99.6145 71.2095 99.6145C71.2095 99.6145 70.3071 97.7033 70.2427 96.9073C70.2485 96.3513 70.4339 95.8121 70.7712 95.37L73.6492 94.8125Z" fill="#D9D9D9"/>
<path d="M73.6492 94.8125C73.6492 94.8125 74.5516 98.8442 74.5 99.969C74.4484 101.094 72.3246 104.107 72.2698 103.417C72.2878 102.833 72.4146 102.257 72.6437 101.719C72.6437 101.719 71.8992 102.728 71.6349 102.686C71.3707 102.644 71.8476 101.252 71.8476 101.252C71.8476 101.252 71.0516 102.048 70.7841 101.896C70.5166 101.745 71.3674 100.568 71.3674 100.568C71.3674 100.568 70.4006 101.577 70.3619 101.258C70.3232 100.939 71.2095 99.6145 71.2095 99.6145C71.2095 99.6145 70.3071 97.7033 70.2427 96.9073C70.2485 96.3513 70.4339 95.8121 70.7712 95.37L73.6492 94.8125Z" stroke="#263238" stroke-width="0.5" stroke-linecap="round" stroke-linejoin="round"/>
<path d="M73.4312 94.8125C73.4312 94.8125 74.0758 97.626 74.0177 98.422C73.9597 99.2181 73.1669 101.551 72.5836 101.126C72.0003 100.701 72.9542 99.1117 72.9542 99.1117C72.9542 99.1117 71.317 97.9612 70.94 96.8815C70.5629 95.8019 70.7788 95.3443 70.7788 95.3443L73.4312 94.8125Z" fill="white"/>
<path d="M73.4312 94.8125C73.4312 94.8125 74.0758 97.626 74.0177 98.422C73.9597 99.2181 73.1669 101.551 72.5836 101.126C72.0003 100.701 72.9542 99.1117 72.9542 99.1117C72.9542 99.1117 71.317 97.9612 70.94 96.8815C70.5629 95.8019 70.7788 95.3443 70.7788 95.3443L73.4312 94.8125Z" fill="#D9D9D9"/>
<path d="M73.4312 94.8125C73.4312 94.8125 74.0758 97.626 74.0177 98.422C73.9597 99.2181 73.1669 101.551 72.5836 101.126C72.0003 100.701 72.9542 99.1117 72.9542 99.1117C72.9542 99.1117 71.317 97.9612 70.94 96.8815C70.5629 95.8019 70.7788 95.3443 70.7788 95.3443L73.4312 94.8125Z" stroke="#263238" stroke-width="0.5" stroke-linecap="round" stroke-linejoin="round"/>
<path d="M71.4933 81.6294L73.7525 95.0846L70.5684 95.8033L67.3843 85.4291L71.4933 81.6294Z" fill="#263238" stroke="#263238" stroke-width="0.5" stroke-linecap="round" stroke-linejoin="round"/>
<path d="M70.5662 88.2098C70.5662 88.2098 70.7725 104.234 71.0787 108.549C71.3848 112.864 70.2569 118.617 69.232 120.261C68.2072 121.904 63.6823 132.185 63.8886 132.794C64.0949 133.403 65.0198 135.259 65.0198 135.772V137.928C65.0198 137.928 70.1537 141.318 70.5662 141.318C70.9788 141.318 71.4912 142.14 70.4631 142.759C69.435 143.378 57.9297 143.374 57.4172 142.962C57.0792 142.659 56.8307 142.268 56.6985 141.834C56.6985 141.834 55.0549 142.449 55.158 140.909C55.2612 139.368 57.1078 132.794 57.1078 132.794C57.1078 132.794 55.9799 125.601 56.3892 120.979C56.7985 116.358 58.239 110.808 58.239 109.68C58.239 108.552 56.8017 101.049 56.5954 99.8183C56.3892 98.5872 53.4113 95.0904 54.7455 92.3188C56.0798 89.5472 57.1078 85.1255 57.5204 84.8194C57.9329 84.5132 63.4793 84.3037 65.7385 84.8194C67.9977 85.335 70.4631 85.3318 70.5662 88.2098Z" fill="#263238" stroke="#263238" stroke-width="0.5" stroke-linecap="round" stroke-linejoin="round"/>
<path d="M60.3822 55.9079C60.3822 55.9079 58.6258 57.4806 58.3228 58.0252C58.0199 58.5699 54.333 63.8263 54.2717 67.5841C54.2105 71.3419 56.9982 82.7054 56.9982 82.7054L52.8086 93.3632L54.0204 93.8466L55.2289 92.5156V94.5138C55.2289 94.5138 56.6212 95.7836 60.25 96.9921C63.8789 98.2007 68.5391 96.8116 68.5391 96.8116L69.9281 87.9683V96.6924L71.5621 95.6031L71.6942 81.0747C71.6942 81.0747 73.0252 73.2723 73.0252 71.084C73.0252 68.8957 69.3351 62.0602 67.7012 60.0749C66.0672 58.0897 63.3439 56.4461 62.5447 55.8402C61.7454 55.2343 60.3822 55.9079 60.3822 55.9079Z" fill="#263238"/>
<path opacity="0.17" d="M60.3822 55.9079C60.3822 55.9079 58.6258 57.4806 58.3228 58.0252C58.0199 58.5699 54.333 63.8263 54.2717 67.5841C54.2105 71.3419 56.9982 82.7054 56.9982 82.7054L52.8086 93.3632L54.0204 93.8466L55.2289 92.5156V94.5138C55.2289 94.5138 56.6212 95.7836 60.25 96.9921C63.8789 98.2007 68.5391 96.8116 68.5391 96.8116L69.9281 87.9683V96.6924L71.5621 95.6031L71.6942 81.0747C71.6942 81.0747 73.0252 73.2723 73.0252 71.084C73.0252 68.8957 69.3351 62.0602 67.7012 60.0749C66.0672 58.0897 63.3439 56.4461 62.5447 55.8402C61.7454 55.2343 60.3822 55.9079 60.3822 55.9079Z" fill="white"/>
<path d="M55.2163 68.7871C55.2163 68.7871 57.4143 70.3437 58.8774 70.8916" stroke="#263238" stroke-width="0.5" stroke-linecap="round" stroke-linejoin="round"/>
<path d="M55.8599 70.4404C55.8599 70.4404 58.3317 71.085 59.6112 71.085" stroke="#263238" stroke-width="0.5" stroke-linecap="round" stroke-linejoin="round"/>
<path d="M59.4263 85.0737L66.3811 85.8988L65.9234 87.3619L59.5165 86.6303" stroke="#263238" stroke-width="0.5" stroke-linecap="round" stroke-linejoin="round"/>
<path d="M60.3822 55.9079C60.3822 55.9079 58.6258 57.4806 58.3228 58.0252C58.0199 58.5699 54.333 63.8263 54.2717 67.5841C54.2105 71.3419 56.9982 82.7054 56.9982 82.7054L52.8086 93.3632L54.0204 93.8466L55.2289 92.5156V94.5138C55.2289 94.5138 56.6212 95.7836 60.25 96.9921C63.8789 98.2007 68.5391 96.8116 68.5391 96.8116L69.9281 87.9683V96.6924L71.5621 95.6031L71.6942 81.0747C71.6942 81.0747 73.0252 73.2723 73.0252 71.084C73.0252 68.8957 69.3351 62.0602 67.7012 60.0749C66.0672 58.0897 63.3439 56.4461 62.5447 55.8402C61.7454 55.2343 60.3822 55.9079 60.3822 55.9079Z" stroke="#263238" stroke-width="0.5" stroke-linecap="round" stroke-linejoin="round"/>
<path d="M60.0186 56.2593L66.7349 63.5202L70.6667 71.0229C70.6667 71.0229 69.8191 65.4571 69.094 63.9328C68.3688 62.4084 65.1009 58.6313 64.7335 57.7837C64.3661 56.9361 60.0186 56.2593 60.0186 56.2593Z" fill="white" stroke="#263238" stroke-width="0.5" stroke-linecap="round" stroke-linejoin="round"/>
<path d="M68.8087 67.4808L70.6683 71.0259C70.6683 71.0259 70.0914 67.2327 69.4791 65.0573L69.0955 63.9454C68.5807 63.0422 67.9967 62.1802 67.3488 61.3672L66.2949 61.1577L66.7364 63.5297L68.0965 64.6416L68.8087 67.4808Z" fill="#263238" stroke="#263238" stroke-width="0.5" stroke-linecap="round" stroke-linejoin="round"/>
<path d="M67.0162 58.9985L67.3643 59.4014L68.4568 60.6905L69.1014 63.9649L66.3008 61.1707C66.3008 61.1707 66.6682 59.4852 67.0162 58.9985Z" fill="white" stroke="#263238" stroke-width="0.5" stroke-linecap="round" stroke-linejoin="round"/>
<path d="M70.1864 45.501C70.1864 45.501 71.656 46.629 71.8397 47.7183C72.0234 48.8076 71.4755 50.0194 71.5367 50.4416C71.598 50.8637 72.684 51.8338 72.626 52.3172C72.568 52.8007 71.6592 52.9811 71.6592 52.9811C71.6592 52.9811 70.673 56.5713 70.4313 57.1708C70.1896 57.7702 68.9778 57.593 68.0722 57.4737L66.4383 62.3079L61.0497 55.9687L61.8973 53.4259C61.8973 53.4259 59.5995 50.6446 59.4158 47.6796C59.2321 44.7147 61.5944 42.6585 64.9815 42.2363C68.3687 41.8141 71.2144 43.4449 71.5754 44.112C71.9364 44.7791 70.1864 45.501 70.1864 45.501Z" fill="white"/>
<path d="M70.179 45.501C70.179 45.501 71.6486 46.629 71.8323 47.7183C72.016 48.8076 71.4682 50.0194 71.5294 50.4416C71.5906 50.8637 72.6767 51.8338 72.6187 52.3172C72.5607 52.8007 71.6519 52.9811 71.6519 52.9811C71.6519 52.9811 70.6657 56.5713 70.424 57.1708C70.1823 57.7702 68.9705 57.593 68.0649 57.4737L66.4309 62.3079L61.0424 55.9687L61.89 53.4259C61.89 53.4259 59.5922 50.6446 59.4085 47.6796C59.2248 44.7147 61.5871 42.6585 64.9742 42.2363C68.3614 41.8141 71.2071 43.4449 71.5681 44.112C71.929 44.7791 70.179 45.501 70.179 45.501Z" fill="#D9D9D9"/>
<path d="M63.901 59.3385C64.8098 59.1548 66.3342 58.8389 67.7071 58.5296L68.0616 57.4789C68.8158 57.5788 69.7826 57.7206 70.2209 57.4145C69.1896 56.9891 66.6371 56.2446 66.115 55.2874C65.4705 54.0982 67.7264 50.6369 67.7264 48.9063C67.7264 47.1756 65.5639 45.2291 65.5639 45.2291C64.523 44.2397 62.6248 43.9399 60.9392 43.9399C60.4087 44.4033 59.9932 44.9837 59.7259 45.6354C59.4585 46.2871 59.3465 46.992 59.3987 47.6945C59.5824 50.6595 61.8803 53.4408 61.8803 53.4408L61.0327 55.9835L63.901 59.3385Z" fill="#B8B8B8"/>
<path d="M70.1864 45.501C70.1864 45.501 71.656 46.629 71.8397 47.7183C72.0234 48.8076 71.4755 50.0194 71.5367 50.4416C71.598 50.8637 72.684 51.8338 72.626 52.3172C72.568 52.8007 71.6592 52.9811 71.6592 52.9811C71.6592 52.9811 70.673 56.5713 70.4313 57.1708C70.1896 57.7702 68.9778 57.593 68.0722 57.4737L66.4383 62.3079L61.0497 55.9687L61.8973 53.4259C61.8973 53.4259 59.5995 50.6446 59.4158 47.6796C59.2321 44.7147 61.5944 42.6585 64.9815 42.2363C68.3687 41.8141 71.2144 43.4449 71.5754 44.112C71.9364 44.7791 70.1864 45.501 70.1864 45.501Z" stroke="#263238" stroke-width="0.5" stroke-linecap="round" stroke-linejoin="round"/>
<path d="M70.186 45.5013C70.186 45.5013 71.9392 44.7761 71.5751 44.1122C71.2109 43.4483 68.3684 41.8112 64.9812 42.2366C61.5941 42.662 59.235 44.7149 59.4154 47.6799C59.5959 50.6449 61.897 53.4261 61.897 53.4261L61.7681 53.8129C63.0218 54.4252 64.3173 53.4261 64.3173 53.4261C64.0808 53.5454 63.8124 53.5863 63.5511 53.5429C63.2897 53.4994 63.049 53.3739 62.8638 53.1844C62.1387 52.5205 62.0775 50.4032 62.9863 50.2195C63.8951 50.0358 64.4978 50.4032 64.4978 51.067C64.4978 51.7309 64.6783 51.3088 65.1649 51.2475C65.6516 51.1863 65.2229 49.736 65.5259 49.4943C66.0156 49.1912 66.4459 48.8013 66.7957 48.3438C67.3403 47.6187 65.7676 47.016 65.5871 46.3489C65.4066 45.6818 70.186 45.5013 70.186 45.5013Z" fill="#263238" stroke="#263238" stroke-width="0.5" stroke-linecap="round" stroke-linejoin="round"/>
<path d="M70.6157 50.2256L69.4941 50.5994H70.5093" stroke="#263238" stroke-width="0.5" stroke-linecap="round" stroke-linejoin="round"/>
<path d="M71.0417 49.1024C71.0417 49.1024 70.5615 48.4095 70.0265 48.7285C69.4915 49.0476 69.4399 49.2635 69.4399 49.2635" stroke="#263238" stroke-width="0.5" stroke-linecap="round" stroke-linejoin="round"/>
<path d="M69.8936 53.9678C70.2215 54.192 70.6221 54.2841 71.0151 54.2256" stroke="#263238" stroke-width="0.5" stroke-linecap="round" stroke-linejoin="round"/>
<path d="M60.8044 54.8203L67.5788 61.4754L66.9761 64.3179L59.7764 56.5735L60.8044 54.8203Z" fill="white" stroke="#263238" stroke-width="0.5" stroke-linecap="round" stroke-linejoin="round"/>
<path d="M86.827 80.2662C86.827 80.2662 84.4421 78.8481 84.0554 78.977C83.6686 79.1059 79.9302 81.8131 80.188 82.4577C80.4459 83.1022 82.444 83.9401 83.6042 84.3913C84.7644 84.8425 87.1493 83.8757 87.1493 83.8757L86.827 80.2662Z" fill="white" stroke="#263238" stroke-width="0.5" stroke-linecap="round" stroke-linejoin="round"/>
<path d="M79.877 79.7466C79.877 79.7466 81.9396 78.5864 82.2618 78.5864C82.5841 78.5864 84.4533 80.2623 84.4533 80.2623L83.6799 81.4225C83.6799 81.4225 86.1292 82.6471 85.8714 83.0983C85.6135 83.5495 84.6467 84.2585 83.6154 84.3875C82.5841 84.5164 79.6836 82.6472 79.6836 82.6472L79.877 79.7466Z" fill="white"/>
<path d="M79.877 79.7466C79.877 79.7466 81.9396 78.5864 82.2618 78.5864C82.5841 78.5864 84.4533 80.2623 84.4533 80.2623L83.6799 81.4225C83.6799 81.4225 86.1292 82.6471 85.8714 83.0983C85.6135 83.5495 84.6467 84.2585 83.6154 84.3875C82.5841 84.5164 79.6836 82.6472 79.6836 82.6472L79.877 79.7466Z" fill="#D9D9D9"/>
<path d="M79.877 79.7466C79.877 79.7466 81.9396 78.5864 82.2618 78.5864C82.5841 78.5864 84.4533 80.2623 84.4533 80.2623L83.6799 81.4225C83.6799 81.4225 86.1292 82.6471 85.8714 83.0983C85.6135 83.5495 84.6467 84.2585 83.6154 84.3875C82.5841 84.5164 79.6836 82.6472 79.6836 82.6472L79.877 79.7466Z" stroke="#263238" stroke-width="0.5" stroke-linecap="round" stroke-linejoin="round"/>
<path d="M78.4517 79.2329L80.2564 79.5552L79.6763 82.6491L78.1294 82.1334L78.4517 79.2329Z" fill="white" stroke="#263238" stroke-width="0.5" stroke-linecap="round" stroke-linejoin="round"/>
<path d="M57.5049 61.2446C57.5049 61.2446 55.7646 64.5963 55.5713 66.2722C55.3779 67.948 62.4681 81.2904 62.9837 81.7416C63.4993 82.1928 78.5788 82.644 78.5788 82.644L79.2234 79.3567L66.3322 75.6828L61.9492 62.2115" fill="#263238"/>
<path opacity="0.17" d="M57.5049 61.2446C57.5049 61.2446 55.7646 64.5963 55.5713 66.2722C55.3779 67.948 62.4681 81.2904 62.9837 81.7416C63.4993 82.1928 78.5788 82.644 78.5788 82.644L79.2234 79.3567L66.3322 75.6828L61.9492 62.2115" fill="white"/>
<path d="M57.5049 61.2446C57.5049 61.2446 55.7646 64.5963 55.5713 66.2722C55.3779 67.948 62.4681 81.2904 62.9837 81.7416C63.4993 82.1928 78.5788 82.644 78.5788 82.644L79.2234 79.3567L66.3322 75.6828L61.9492 62.2115" stroke="#263238" stroke-width="0.5" stroke-linecap="round" stroke-linejoin="round"/>
<path d="M84.5701 79.2973C84.5701 79.2973 83.6677 78.5238 83.3454 79.4262C83.0231 80.3286 81.025 82.5201 81.9274 82.5846C82.8298 82.649 84.5056 80.7798 84.5056 80.7798" fill="white"/>
<path d="M84.5701 79.2973C84.5701 79.2973 83.6677 78.5238 83.3454 79.4262C83.0231 80.3286 81.025 82.5201 81.9274 82.5846C82.8298 82.649 84.5056 80.7798 84.5056 80.7798" stroke="#263238" stroke-width="0.5" stroke-linecap="round" stroke-linejoin="round"/>
<path d="M80.5731 82.9049C80.5731 82.9049 80.341 83.991 80.8954 84.4519C81.2853 84.7742 81.5045 83.8718 81.411 83.2272C81.3176 82.5827 80.7665 82.3893 80.5731 82.9049Z" fill="white" stroke="#263238" stroke-width="0.5" stroke-linecap="round" stroke-linejoin="round"/>
<path d="M81.4891 83.1623C81.4891 83.1623 81.2571 84.2483 81.8114 84.7092C82.2013 85.0315 82.4205 84.1291 82.327 83.4845C82.2336 82.84 81.6696 82.6466 81.4891 83.1623Z" fill="white" stroke="#263238" stroke-width="0.5" stroke-linecap="round" stroke-linejoin="round"/>
<path d="M82.3822 83.5524C82.3822 83.5524 82.1501 84.6385 82.7045 85.0994C83.0944 85.4216 83.3136 84.5192 83.2201 83.8747C83.1266 83.2301 82.5755 83.0368 82.3822 83.5524Z" fill="white" stroke="#263238" stroke-width="0.5" stroke-linecap="round" stroke-linejoin="round"/>
<path d="M83.278 84.0742C83.278 84.0742 83.0653 84.8058 83.5745 85.1152C83.9322 85.3344 84.1352 84.7252 84.0482 84.2902C83.9612 83.8551 83.4552 83.7262 83.278 84.0742Z" fill="white" stroke="#263238" stroke-width="0.5" stroke-linecap="round" stroke-linejoin="round"/>
<path d="M86.8247 80.2603L87.0181 84.3854L88.4361 83.9987L88.1138 80.1958L86.8247 80.2603Z" stroke="#263238" stroke-width="0.5" stroke-linecap="round" stroke-linejoin="round"/>
<path d="M87.7959 79.8761L88.4405 84.7748L99.2046 83.6145L99.4624 77.2334L87.7959 79.8761Z" fill="#263238" stroke="#263238" stroke-width="0.5" stroke-linecap="round" stroke-linejoin="round"/>
<path d="M68.9222 99.4014C68.9222 99.4014 66.9692 112.447 66.9692 116.866C66.9692 121.284 63.9913 128.681 63.8882 132.79" stroke="white" stroke-width="0.3" stroke-linecap="round" stroke-linejoin="round"/>
<path d="M57.4145 142.951C57.9269 143.364 69.4323 143.364 70.4604 142.748C71.4884 142.132 70.9728 141.307 70.5635 141.307C70.1542 141.307 65.0171 137.917 65.0171 137.917C65.0171 137.917 62.2422 140.076 60.7017 140.589C59.1612 141.101 56.6958 141.204 56.6958 141.204V141.823C56.8279 142.258 57.0765 142.648 57.4145 142.951Z" fill="black" stroke="#263238" stroke-width="0.5" stroke-linecap="round" stroke-linejoin="round"/>
<path d="M70.4595 142.756C71.0009 142.434 71.104 142.047 71.0396 141.76C69.5286 142.059 67.9936 142.22 66.4536 142.24C63.35 142.324 58.4675 142.134 56.7852 142.063C56.9245 142.41 57.1456 142.717 57.4297 142.959C57.926 143.372 69.4314 143.372 70.4595 142.756Z" fill="white" stroke="#263238" stroke-width="0.5" stroke-linecap="round" stroke-linejoin="round"/>
<path d="M56.3995 141.911L56.6992 141.212L57.1085 132.791C57.1085 132.791 55.2586 139.365 55.1587 140.906C55.0814 142.027 55.9322 142.004 56.3995 141.911Z" fill="#263238" stroke="#263238" stroke-width="0.5" stroke-linecap="round" stroke-linejoin="round"/>
<path d="M100.766 96.8374C100.766 96.8374 99.7407 112.146 100.766 118.308C101.79 124.47 104.372 135.157 104.771 136.491C105.023 137.287 105.132 138.122 105.094 138.956L110.846 139.778C110.846 139.778 109.1 119.542 109.1 117.18C109.1 114.817 111.053 97.1468 111.053 97.1468L100.766 96.8374Z" fill="#263238" stroke="#263238" stroke-width="0.5" stroke-linecap="round" stroke-linejoin="round"/>
<path d="M105.081 138.951C105.081 138.951 98.816 141.623 98.0941 142.136C97.3722 142.648 99.6378 143.37 102.409 143.37C105.181 143.37 107.959 143.048 107.959 143.048L109.087 142.432L109.19 143.151H112.168C112.168 143.151 112.684 140.685 112.49 140.07C112.344 139.649 112.173 139.236 111.978 138.835L105.081 138.951Z" fill="#263238" stroke="#263238" stroke-width="0.5" stroke-linecap="round" stroke-linejoin="round"/>
<path d="M99.8467 95.6019C99.8467 95.6019 100.362 110.291 101.593 115.532C102.825 120.772 104.984 133.508 104.984 134.843C104.992 135.606 104.889 136.365 104.678 137.099L104.265 138.439C104.336 138.759 104.444 139.07 104.587 139.364C104.587 139.364 107.256 139.98 109.003 139.98C110.094 139.97 111.179 139.806 112.225 139.493C112.225 139.493 112.28 136.27 112.383 134.74C112.486 133.209 111.974 123.337 111.974 120.975C111.974 118.613 111.355 117.275 111.355 114.4C111.355 111.526 110.843 103.82 110.946 102.586C111.049 101.351 112.486 100.007 112.796 98.4766C113.105 96.9458 113.411 95.2925 113.411 95.2925L99.8467 95.6019Z" fill="#263238" stroke="#263238" stroke-width="0.5" stroke-linecap="round" stroke-linejoin="round"/>
<path d="M101.071 111.047C101.071 111.047 103.943 130.967 104.661 132.224C105.09 133.026 105.205 133.959 104.984 134.841" stroke="white" stroke-width="0.5" stroke-linecap="round" stroke-linejoin="round"/>
<path d="M97.3748 83.9912C97.3748 83.9912 96.9913 87.9198 96.9913 90.9234C96.9913 92.5993 96.9752 94.7908 96.9591 96.3764C96.9545 97.0289 97.1771 97.6626 97.5887 98.1689C98.0003 98.6752 98.5753 99.0225 99.215 99.1512C99.8898 99.2996 100.577 99.3827 101.268 99.3994L98.8541 84.452C98.8541 84.452 97.7615 82.6054 97.3748 83.9912Z" fill="#263238" stroke="#263238" stroke-width="0.5" stroke-linecap="round" stroke-linejoin="round"/>
<path d="M108.786 57.2228C109.375 57.5326 109.912 57.9315 110.378 58.4056C110.789 58.9462 111.154 59.5209 111.467 60.1233C111.467 60.1233 115.834 65.1573 115.937 65.6698C116.041 66.1822 113.472 82.3638 113.472 82.3638L116.398 97.6689C116.398 97.6689 111.674 100.289 108.077 100.444C105.547 100.553 101.741 99.7444 99.6978 99.2545C99.2912 99.1582 98.9253 98.9364 98.6517 98.6206C98.3781 98.3048 98.2108 97.911 98.1734 97.4949C97.9736 95.342 97.5997 91.0493 97.3806 86.9853C97.1292 82.2639 97.8447 72.9114 98.3474 69.6241C98.8502 66.3369 100.455 61.8701 101.686 60.0202C102.917 58.1703 106.311 56.256 108.786 57.2228Z" fill="#263238" stroke="#263238" stroke-width="0.5" stroke-linecap="round" stroke-linejoin="round"/>
<path d="M111.466 60.1298C111.155 59.5356 110.795 58.9685 110.389 58.4346C109.923 57.9606 109.386 57.5616 108.797 57.2518C106.748 56.4429 104.066 57.616 102.51 59.0985C102.303 59.5561 100.679 63.2624 99.9089 66.2918C99.0871 69.5146 99.1902 73.5882 99.1902 73.5882C99.1902 73.5882 101.913 70.0947 105.61 65.9856C107.456 63.9318 109.472 62.0375 111.637 60.3232L111.466 60.1298Z" fill="#263238"/>
<path opacity="0.17" d="M111.466 60.1298C111.155 59.5356 110.795 58.9685 110.389 58.4346C109.923 57.9606 109.386 57.5616 108.797 57.2518C106.748 56.4429 104.066 57.616 102.51 59.0985C102.303 59.5561 100.679 63.2624 99.9089 66.2918C99.0871 69.5146 99.1902 73.5882 99.1902 73.5882C99.1902 73.5882 101.913 70.0947 105.61 65.9856C107.456 63.9318 109.472 62.0375 111.637 60.3232L111.466 60.1298Z" fill="white"/>
<path d="M111.466 60.1298C111.155 59.5356 110.795 58.9685 110.389 58.4346C109.923 57.9606 109.386 57.5616 108.797 57.2518C106.748 56.4429 104.066 57.616 102.51 59.0985C102.303 59.5561 100.679 63.2624 99.9089 66.2918C99.0871 69.5146 99.1902 73.5882 99.1902 73.5882C99.1902 73.5882 101.913 70.0947 105.61 65.9856C107.456 63.9318 109.472 62.0375 111.637 60.3232L111.466 60.1298Z" stroke="#263238" stroke-width="0.5" stroke-linecap="round" stroke-linejoin="round"/>
<path d="M102.156 61.4573C102.156 61.4573 100.767 65.8113 100.344 67.0424C99.9223 68.2735 99.8804 70.204 99.8804 70.204C99.8804 70.204 105.082 62.4209 106.352 61.1125C107.622 59.804 109.281 57.7608 109.281 57.7608L108.163 57.4385L102.156 61.4573Z" fill="white" stroke="#263238" stroke-width="0.5" stroke-linecap="round" stroke-linejoin="round"/>
<path d="M102.544 59.877C102.544 59.877 101.928 61.6882 101.928 61.8106C101.928 61.9331 101.773 63.6605 101.773 63.6605L103.968 60.6923L102.544 59.877Z" fill="white" stroke="#263238" stroke-width="0.5" stroke-linecap="round" stroke-linejoin="round"/>
<path d="M108.127 56.2593L102.12 61.1515L103.045 63.8457L109.207 57.5677L108.127 56.2593Z" fill="white" stroke="#263238" stroke-width="0.5" stroke-linecap="round" stroke-linejoin="round"/>
<path d="M107.348 95.0581C107.348 95.0581 106.494 97.1819 106.24 97.8781C105.985 98.5742 106.114 101.301 106.146 101.588C106.178 101.874 106.684 101.936 106.684 101.936C106.684 101.936 106.842 104.121 107.032 104.192C107.23 104.241 107.432 104.272 107.635 104.285C107.635 104.285 107.983 105.397 108.428 105.3C108.562 105.259 108.68 105.181 108.77 105.074C108.86 104.967 108.917 104.836 108.934 104.698C109.08 104.711 109.227 104.686 109.361 104.625C109.494 104.564 109.609 104.469 109.694 104.349C109.876 104.083 110.025 103.796 110.139 103.495C110.139 103.495 110.9 103.115 110.961 102.828C111.022 102.541 111.216 101.539 111.216 101.539C111.216 101.539 111.438 101.475 111.438 100.811C111.438 100.147 110.932 96.0572 110.932 96.0572L107.348 95.0581Z" fill="white" stroke="#263238" stroke-width="0.5" stroke-linecap="round" stroke-linejoin="round"/>
<path d="M106.684 101.936L106.777 100.008" stroke="#263238" stroke-width="0.5" stroke-linecap="round" stroke-linejoin="round"/>
<path d="M107.631 104.279L107.838 101.427" stroke="#263238" stroke-width="0.5" stroke-linecap="round" stroke-linejoin="round"/>
<path d="M108.935 104.691L109.083 101.604" stroke="#263238" stroke-width="0.5" stroke-linecap="round" stroke-linejoin="round"/>
<path d="M110.137 103.49L110.32 101.341" stroke="#263238" stroke-width="0.5" stroke-linecap="round" stroke-linejoin="round"/>
<path d="M113.614 64.2671L115.925 65.6529L115.154 81.6283L111.045 96.7271L107.143 95.7023L108.374 83.7779L107.758 71.7601C107.758 71.7601 108.632 68.9595 110.633 67.419" fill="#263238"/>
<path d="M113.614 64.2671L115.925 65.6529L115.154 81.6283L111.045 96.7271L107.143 95.7023L108.374 83.7779L107.758 71.7601C107.758 71.7601 108.632 68.9595 110.633 67.419" stroke="#263238" stroke-width="0.5" stroke-linecap="round" stroke-linejoin="round"/>
<path d="M108.858 66.9717C108.858 66.9717 107.807 69.6402 107.756 71.7737" stroke="white" stroke-width="0.5" stroke-linecap="round" stroke-linejoin="round"/>
<path d="M109.733 68.2407C109.733 68.2407 107.935 71.1767 107.935 72.5045C107.935 73.8323 108.409 84.9123 108.409 84.9123L107.178 94.4775" stroke="white" stroke-width="0.5" stroke-linecap="round" stroke-linejoin="round"/>
<path d="M98.5691 46.4742C98.5691 46.4742 97.3348 49.9806 97.4508 50.4833C97.5668 50.9861 97.6829 51.7531 97.6829 51.7531C97.6829 51.7531 95.7492 54.1412 95.9877 54.4119C96.2261 54.6826 97.2961 54.9888 97.2961 54.9888C97.2961 54.9888 98.1824 58.6886 98.5305 59.0334C98.8785 59.3783 101.035 58.6112 101.035 58.6112L103.345 61.5375L108.083 56.9934L107.506 54.6053C107.506 54.6053 110.01 50.2126 109.971 48.1307C109.933 46.0488 105.659 43.2772 102.614 43.3158C99.5682 43.3545 96.7192 44.4728 97.2961 45.2817C97.6359 45.7608 98.0689 46.1664 98.5691 46.4742Z" fill="white"/>
<path d="M108.477 45.7173C107.89 45.803 107.317 45.9655 106.772 46.2007L102.231 48.0409C102.231 48.0409 100.069 49.8779 100.298 51.2831C100.527 52.6882 102.46 54.6348 102.028 56.0399C101.597 57.445 98.8926 58.9598 98.8926 58.9598L99.7402 58.992C100.385 58.8405 101.049 58.6052 101.049 58.6052L101.403 59.0532L105.78 59.2111L108.097 56.9874L107.52 54.5993C107.52 54.5993 110.024 50.2066 109.985 48.1247C109.96 47.3577 109.367 46.4972 108.477 45.7173Z" fill="#B8B8B8"/>
<path d="M98.5691 46.4742C98.5691 46.4742 97.3348 49.9806 97.4508 50.4833C97.5668 50.9861 97.6829 51.7531 97.6829 51.7531C97.6829 51.7531 95.7492 54.1412 95.9877 54.4119C96.2261 54.6826 97.2961 54.9888 97.2961 54.9888C97.2961 54.9888 98.1824 58.6886 98.5305 59.0334C98.8785 59.3783 101.035 58.6112 101.035 58.6112L103.345 61.5375L108.083 56.9934L107.506 54.6053C107.506 54.6053 110.01 50.2126 109.971 48.1307C109.933 46.0488 105.659 43.2772 102.614 43.3158C99.5682 43.3545 96.7192 44.4728 97.2961 45.2817C97.6359 45.7608 98.0689 46.1664 98.5691 46.4742Z" stroke="#263238" stroke-width="0.5" stroke-linecap="round" stroke-linejoin="round"/>
<path d="M107.506 54.6053C107.506 54.6053 110.01 50.2126 109.971 48.1307C109.933 46.0488 105.659 43.2772 102.614 43.3158C99.5682 43.3545 96.7192 44.4728 97.2961 45.2817C97.6359 45.7608 98.0688 46.1664 98.5691 46.4742C98.5691 46.4742 100.458 47.3604 100.458 47.5925C100.458 47.8245 99.3394 49.0556 99.7261 49.5971C100.113 50.1385 101.959 50.7895 101.959 50.7895C101.959 50.7895 101.637 51.8305 102.114 51.9465C102.591 52.0625 102.807 51.5984 103.113 51.3019C103.419 51.0054 104.502 50.5671 104.657 51.8788C104.748 52.8196 104.501 53.7621 103.961 54.5376C103.809 54.6504 105.927 56.0781 106.861 55.6527C107.103 55.5431 107.387 55.3981 107.67 55.2466L107.506 54.6053Z" fill="#263238" stroke="#263238" stroke-width="0.5" stroke-linecap="round" stroke-linejoin="round"/>
<path d="M98.2668 52.7147C98.4163 52.7147 98.5375 52.2487 98.5375 51.6738C98.5375 51.0989 98.4163 50.6328 98.2668 50.6328C98.1173 50.6328 97.9961 51.0989 97.9961 51.6738C97.9961 52.2487 98.1173 52.7147 98.2668 52.7147Z" stroke="#263238" stroke-width="0.5" stroke-linecap="round" stroke-linejoin="round"/>
<path d="M98.5688 51.249L103.113 51.2877" stroke="#263238" stroke-width="0.5" stroke-linecap="round" stroke-linejoin="round"/>
<path d="M97.8203 49.9954C97.8203 49.9954 98.2522 49.3058 98.684 50.1663" stroke="#263238" stroke-width="0.5" stroke-linecap="round" stroke-linejoin="round"/>
<path d="M97.7339 55.6146C98.2013 55.4241 98.6362 55.1621 99.023 54.8379" stroke="#263238" stroke-width="0.5" stroke-linecap="round" stroke-linejoin="round"/>
</svg>
