<svg width="26" height="26" viewBox="0 0 26 26" fill="none" xmlns="http://www.w3.org/2000/svg">
<path d="M18.6172 11.1163H7.58933C7.4417 11.1162 7.29713 11.0742 7.17241 10.9953C7.04769 10.9163 6.94795 10.8035 6.88478 10.6701C6.8216 10.5367 6.79759 10.388 6.81553 10.2415C6.83347 10.095 6.89263 9.95654 6.98613 9.8423L9.45093 6.8302C9.72393 6.4974 10.2153 6.448 10.5481 6.721C10.8809 6.994 10.9303 7.4854 10.6573 7.8182L9.23513 9.5563H18.6172C19.0475 9.5563 19.3972 9.906 19.3972 10.3363C19.3972 10.7666 19.0475 11.1163 18.6172 11.1163ZM16.1524 18.9826C15.9808 18.9826 15.8079 18.9267 15.6636 18.8097C15.5025 18.6799 15.3994 18.4914 15.3773 18.2856C15.3551 18.0798 15.4155 17.8737 15.5453 17.7125L16.9883 15.9198H7.58933C7.15903 15.9198 6.80933 15.5701 6.80933 15.1398C6.80933 14.7095 7.15903 14.3598 7.58933 14.3598H18.6172C18.9175 14.3598 19.1905 14.5327 19.3205 14.8031C19.4505 15.0735 19.4128 15.3946 19.2243 15.6286L16.7595 18.6901C16.6871 18.7816 16.5948 18.8555 16.4896 18.9062C16.3845 18.9569 16.2692 18.983 16.1524 18.9826Z" fill="#ED1E26"/>
<path d="M13.0806 24.2528C6.94072 24.2528 1.94482 19.2569 1.94482 13.117C1.94482 6.97711 6.94072 1.98122 13.0806 1.98122C19.2205 1.98122 24.2164 6.97711 24.2164 13.117C24.2164 19.2569 19.2218 24.2528 13.0806 24.2528ZM13.0806 3.54122C7.80002 3.54122 3.50482 7.83641 3.50482 13.117C3.50482 18.3976 7.80002 22.6928 13.0806 22.6928C18.3612 22.6928 22.6564 18.3976 22.6564 13.117C22.6564 7.83641 18.3612 3.54122 13.0806 3.54122Z" fill="#0F50A4"/>
</svg>
