<svg width="24" height="27" viewBox="0 0 24 27" fill="none" xmlns="http://www.w3.org/2000/svg">
<path d="M11.45 18.2461V13.7853L2.1 8.38024V18.8667C2.10002 18.9642 2.12555 19.0599 2.17403 19.1442C2.2225 19.2286 2.29221 19.2985 2.3761 19.3471L11.7261 24.751C11.8094 24.7992 11.9039 24.8246 12 24.8246C12.0961 24.8246 12.1906 24.7992 12.2739 24.751L21.6239 19.3471C21.7078 19.2985 21.7775 19.2286 21.826 19.1442C21.8744 19.0599 21.9 18.9642 21.9 18.8667V8.06608C21.9 7.96862 21.8744 7.87289 21.826 7.78855C21.7775 7.7042 21.7078 7.63423 21.6239 7.5857L12.2739 2.18179C12.1906 2.13357 12.0961 2.10819 12 2.10819C11.9039 2.10819 11.8094 2.13357 11.7261 2.18179L8.53225 4.02797C8.73789 4.52561 8.75646 5.08168 8.58448 5.59212C8.4125 6.10255 8.06176 6.53234 7.59791 6.80105C7.13407 7.06976 6.58891 7.15896 6.06449 7.05195C5.54007 6.94495 5.07234 6.64908 4.74884 6.21972C4.42534 5.79036 4.26826 5.25695 4.30699 4.71933C4.34572 4.1817 4.57761 3.67673 4.95926 3.29893C5.34091 2.92113 5.84615 2.69639 6.38041 2.66679C6.91467 2.63719 7.44133 2.80476 7.8618 3.13812L11.1788 1.22046C11.4288 1.07601 11.7119 1 12 1C12.2881 1 12.5712 1.07601 12.8212 1.22046L22.1712 6.62437C22.423 6.76996 22.6323 6.97992 22.7778 7.23306C22.9233 7.4862 23 7.77355 23 8.06608V18.8673C23 19.1598 22.9233 19.4471 22.7778 19.7003C22.6323 19.9534 22.423 20.1634 22.1712 20.309L12.8212 25.7129C12.5712 25.8573 12.2881 25.9333 12 25.9333C11.7119 25.9333 11.4288 25.8573 11.1788 25.7129L1.82885 20.309C1.57698 20.1634 1.36772 19.9534 1.22218 19.7003C1.07665 19.4471 1.00001 19.1598 1 18.8673V8.38024C1.00009 8.18604 1.05084 7.99526 1.14717 7.82704C1.24349 7.65881 1.38201 7.51905 1.54885 7.42174C1.71568 7.32443 1.90497 7.273 2.09775 7.27261C2.29053 7.27221 2.48002 7.32286 2.64725 7.41947L12.0055 12.8278L15.8659 10.6869C15.8013 10.1518 15.9324 9.61127 16.2347 9.16654C16.5371 8.72181 16.99 8.40333 17.5086 8.27073C18.0273 8.13813 18.5761 8.20049 19.0524 8.44614C19.5287 8.69179 19.8998 9.1039 20.0962 9.60531C20.2926 10.1067 20.3009 10.6631 20.1196 11.1702C19.9382 11.6773 19.5796 12.1005 19.1108 12.3605C18.6421 12.6204 18.0954 12.6994 17.573 12.5826C17.0506 12.4657 16.5885 12.1611 16.2729 11.7258L12.55 13.7919V18.2467C13.0668 18.3833 13.5166 18.7045 13.8156 19.1506C14.1146 19.5966 14.2424 20.137 14.1751 20.6709C14.1077 21.2049 13.8499 21.6959 13.4497 22.0525C13.0495 22.4091 12.5343 22.6069 12 22.6089C11.4642 22.6095 10.9465 22.413 10.5443 22.0563C10.1421 21.6997 9.88287 21.2074 9.81536 20.6719C9.74785 20.1363 9.87666 19.5944 10.1776 19.1478C10.4786 18.7012 10.931 18.3806 11.45 18.2461ZM18.05 11.5274C18.1945 11.5274 18.3375 11.4988 18.471 11.4431C18.6045 11.3874 18.7258 11.3058 18.8279 11.2029C18.9301 11.1 19.0111 10.9778 19.0664 10.8434C19.1217 10.7089 19.1502 10.5648 19.1502 10.4192C19.1502 10.2737 19.1217 10.1296 19.0664 9.99513C19.0111 9.86067 18.9301 9.7385 18.8279 9.6356C18.7258 9.53269 18.6045 9.45107 18.471 9.39539C18.3375 9.33971 18.1945 9.31107 18.05 9.31109C17.7583 9.31114 17.4785 9.42791 17.2723 9.63573C17.066 9.84354 16.9502 10.1254 16.9502 10.4192C16.9502 10.7131 17.066 10.995 17.2723 11.2028C17.4785 11.4106 17.7583 11.5273 18.05 11.5274ZM6.5 5.98663C6.64447 5.98666 6.78753 5.95801 6.92101 5.90233C7.05449 5.84665 7.17577 5.76503 7.27794 5.66213C7.3801 5.55922 7.46114 5.43705 7.51643 5.30259C7.57172 5.16813 7.60018 5.02402 7.60018 4.87848C7.60018 4.73294 7.57172 4.58882 7.51643 4.45436C7.46114 4.31991 7.3801 4.19773 7.27794 4.09483C7.17577 3.99193 7.05449 3.9103 6.92101 3.85463C6.78753 3.79895 6.64447 3.7703 6.5 3.77033C6.20829 3.77037 5.92855 3.88715 5.7223 4.09496C5.51605 4.30277 5.40018 4.58461 5.40018 4.87848C5.40018 5.17235 5.51605 5.45418 5.7223 5.662C5.92855 5.86981 6.20829 5.98658 6.5 5.98663ZM12 21.5008C12.1445 21.5008 12.2875 21.4722 12.421 21.4165C12.5545 21.3608 12.6758 21.2792 12.7779 21.1763C12.8801 21.0734 12.9611 20.9512 13.0164 20.8167C13.0717 20.6823 13.1002 20.5382 13.1002 20.3926C13.1002 20.2471 13.0717 20.103 13.0164 19.9685C12.9611 19.8341 12.8801 19.7119 12.7779 19.609C12.6758 19.5061 12.5545 19.4245 12.421 19.3688C12.2875 19.3131 12.1445 19.2844 12 19.2845C11.7083 19.2845 11.4285 19.4013 11.2223 19.6091C11.016 19.8169 10.9002 20.0988 10.9002 20.3926C10.9002 20.6865 11.016 20.9683 11.2223 21.1761C11.4285 21.384 11.7083 21.5007 12 21.5008Z" fill="#0A0B09" stroke="black" stroke-width="0.4"/>
</svg>
