<svg width="172" height="161" viewBox="0 0 172 161" fill="none" xmlns="http://www.w3.org/2000/svg">
<mask id="mask0" mask-type="alpha" maskUnits="userSpaceOnUse" x="0" y="0" width="172" height="161">
<path d="M163.291 65.4963C162.047 58.89 160.448 52.3556 158.501 45.9212C152.659 27.2976 141.052 8.45037 121.106 2.11405C106.388 -2.56208 90.4902 0.686951 78.0459 10.2009C58.5422 25.1332 44.3331 45.5074 22.9789 58.4464C5.14971 69.2448 -4.18351 86.6982 1.81506 111.363C7.81363 136.028 27.8263 150.409 49.7275 148.639C67.942 147.169 86.9795 148.739 102.725 157.582C116.792 165.479 141.656 158.624 162.221 137.032C174.199 124.455 173.043 108.466 169.138 93.5102C166.731 84.3007 165.161 74.8581 163.291 65.4963Z" fill="#0F50A4"/>
<path opacity="0.9" d="M163.291 65.4963C162.047 58.89 160.448 52.3555 158.501 45.9212C152.659 27.2976 141.052 8.45037 121.106 2.11405C106.388 -2.56208 90.4902 0.686951 78.0459 10.2009C58.5422 25.1332 44.3331 45.5074 22.9789 58.4464C5.14971 69.2448 -4.18351 86.6982 1.81506 111.363C7.81363 136.028 27.8263 150.409 49.7275 148.639C67.942 147.169 88.5747 141.533 104.32 150.377C118.387 158.273 141.656 158.624 162.221 137.032C174.199 124.454 173.043 108.466 169.138 93.5102C166.731 84.3007 165.161 74.858 163.291 65.4963Z" fill="white"/>
</mask>
<g mask="url(#mask0)">
<path d="M-8.87988 -8.87988H179.785V143.161C106.107 143.161 64.7982 143.161 -8.87988 143.161V-8.87988Z" fill="#E7EDF6"/>
</g>
</svg>
