<svg width="24" height="24" viewBox="0 0 24 24" fill="none" xmlns="http://www.w3.org/2000/svg">
<path d="M10.5229 0C13.6398 0 15.9902 2.39768 15.9902 5.57702C15.9902 8.84947 13.5376 11.5115 10.5229 11.5115C7.50815 11.5115 5.0555 8.84947 5.0555 5.57728C5.0555 2.39768 7.4059 0 10.5229 0ZM10.5229 9.86328C12.6288 9.86328 14.3418 7.9406 14.3418 5.57728C14.3418 3.30077 12.7356 1.64844 10.5229 1.64844C8.34551 1.64844 6.70395 3.33729 6.70395 5.57728C6.70395 7.9406 8.41697 9.86328 10.5229 9.86328Z" fill="black"/>
<path fill-rule="evenodd" clip-rule="evenodd" d="M15.0561 13.3214C13.7454 12.9241 12.2306 12.7207 10.5226 12.7207C3.73701 12.7207 -4.32587e-05 15.9311 3.75562e-10 21.7598C3.75562e-10 22.215 0.368973 22.584 0.824223 22.584H15.0561V20.9355H1.67809C2.00255 16.5773 4.97392 14.3692 10.5226 14.3692C12.2986 14.3692 13.8105 14.5954 15.0561 15.0459V13.3214Z" fill="black"/>
<path d="M22.55 18.05H18.95V14.45C18.95 14.2016 18.7484 14 18.5 14C18.2516 14 18.05 14.2016 18.05 14.45V18.05H14.45C14.2016 18.05 14 18.2516 14 18.5C14 18.7484 14.2016 18.95 14.45 18.95H18.05V22.55C18.05 22.7984 18.2516 23 18.5 23C18.7484 23 18.95 22.7984 18.95 22.55V18.95H22.55C22.7984 18.95 23 18.7484 23 18.5C23 18.2516 22.7984 18.05 22.55 18.05Z" fill="black" stroke="black" stroke-width="0.6"/>
</svg>
