<svg width="34" height="34" viewBox="0 0 34 34" fill="none" xmlns="http://www.w3.org/2000/svg">
<path d="M28.6505 33.3224H5.54245C2.70149 33.3224 0.391479 31.0124 0.391479 28.1714V5.59433C0.391479 2.75337 2.70149 0.443359 5.54245 0.443359H28.6505C31.4915 0.443359 33.8015 2.75337 33.8015 5.59433V28.1714C33.8015 31.0124 31.4895 33.3224 28.6505 33.3224ZM5.54245 2.82073C4.01301 2.82073 2.76885 4.06489 2.76885 5.59433V28.1714C2.76885 29.7009 4.01301 30.945 5.54245 30.945H28.6505C30.18 30.945 31.4241 29.7009 31.4241 28.1714V5.59433C31.4241 4.06489 30.18 2.82073 28.6505 2.82073H5.54245Z" fill="#0F50A4"/>
<path d="M25.3658 14.5062H8.55972C8.33474 14.5061 8.11442 14.4421 7.92436 14.3218C7.73429 14.2014 7.58229 14.0295 7.48602 13.8262C7.38974 13.6229 7.35315 13.3964 7.38049 13.1731C7.40783 12.9498 7.49798 12.7388 7.64047 12.5647L11.3967 7.97439C11.8128 7.46722 12.5616 7.39194 13.0688 7.80798C13.1897 7.90672 13.2899 8.02835 13.3637 8.16588C13.4375 8.30342 13.4835 8.45417 13.4989 8.60949C13.5144 8.76481 13.499 8.92166 13.4538 9.07104C13.4085 9.22043 13.3343 9.35942 13.2352 9.48006L11.0678 12.1288H25.3658C26.0215 12.1288 26.5544 12.6618 26.5544 13.3175C26.5544 13.9733 26.0235 14.5062 25.3658 14.5062ZM21.6095 26.4941C21.348 26.4941 21.0845 26.4089 20.8646 26.2306C20.619 26.0328 20.462 25.7455 20.4282 25.4319C20.3944 25.1183 20.4865 24.8042 20.6843 24.5585L22.8834 21.8265H8.55972C7.90396 21.8265 7.37103 21.2936 7.37103 20.6379C7.37103 19.9821 7.90396 19.4492 8.55972 19.4492H25.3658C25.8234 19.4492 26.2394 19.7127 26.4376 20.1247C26.6357 20.5368 26.5782 21.0262 26.2909 21.3828L22.5347 26.0484C22.4244 26.188 22.2838 26.3007 22.1235 26.378C21.9632 26.4552 21.7874 26.4949 21.6095 26.4941Z" fill="#ED1E26"/>
</svg>
