<svg width="206" height="193" viewBox="0 0 206 193" fill="none" xmlns="http://www.w3.org/2000/svg">
<path opacity="0.1" d="M190.483 61.5165C186.898 90.098 161.859 118.632 134.322 137.008C63.1577 184.883 -5.6392 103.645 11.7142 74.4683C24.7398 44.8747 65.3717 53.0032 82.6566 41.3692C179.803 -24.481 193.851 37.5949 190.483 61.5165Z" fill="#8C1813"/>
<path d="M156.361 130.086C156.361 119.41 149.198 110.492 139.828 109.495C130.458 108.498 121.96 115.747 120.208 126.231L64.1614 124.507L64.7764 135.424C64.7764 135.424 56.7844 156.332 98.7874 161.903V183.035H147.345V147.901C152.925 144.196 156.356 137.417 156.361 130.086Z" fill="url(#paint0_linear)"/>
<path d="M66.7033 135.883C66.7033 135.883 59.0503 155.905 99.2753 161.247V181.493H145.775V127.876L66.1033 125.427L66.7033 135.883Z" fill="#BE7C5E"/>
<path d="M89.9423 52.333C87.4184 56.849 82.1503 58.206 78.1533 55.37L53.1844 36.715C49.2014 33.853 48.0044 27.881 50.5054 23.348C53.0294 18.838 58.2894 17.482 62.2854 20.311L87.2544 38.966C91.2414 41.823 92.4423 47.796 89.9423 52.333Z" fill="url(#paint1_linear)"/>
<path d="M88.5593 51.3129C86.2133 55.5129 81.3173 56.7719 77.6013 54.1369L54.3844 36.7829C50.6844 34.1229 49.5694 28.5719 51.8944 24.3579C54.2404 20.1579 59.1363 18.8989 62.8523 21.5339L86.0664 38.8779C89.7734 41.5369 90.8893 47.0959 88.5593 51.3129Z" fill="#BE7C5E"/>
<path d="M136.949 150.568C146.594 150.568 154.413 141.703 154.413 130.768C154.413 119.833 146.594 110.968 136.949 110.968C127.304 110.968 119.485 119.833 119.485 130.768C119.485 141.703 127.304 150.568 136.949 150.568Z" fill="#BE7C5E"/>
<path d="M79.2624 0.173035H121.447C129.791 0.173035 135.747 -1.80996 135.747 7.65004L136.167 138.416C136.167 147.876 129.796 148.341 121.452 148.341H79.2624C70.9184 148.342 64.1544 140.673 64.1544 131.212L64.7244 9.46603C64.7244 0.00603485 70.9184 0.173035 79.2624 0.173035Z" fill="url(#paint2_linear)"/>
<path d="M81.9534 2.17603H118.753C128.044 2.17603 134.833 -0.302975 134.833 10.231L136.173 138.148C136.173 148.682 128.043 146.342 118.753 146.342H81.9534C72.6624 146.342 64.8654 148.682 64.8654 138.148L65.7744 10.79C65.7744 0.256025 72.6624 2.17603 81.9534 2.17603Z" fill="white"/>
<path d="M118.05 5.79199C117.936 7.23525 117.302 8.58819 116.267 9.60058C115.232 10.613 113.866 11.2163 112.42 11.299H88.0924C86.6475 11.2154 85.2818 10.6117 84.2474 9.5994C83.2131 8.58713 82.5801 7.23469 82.4654 5.79199H69.5754C68.8193 5.84164 68.1135 6.18828 67.612 6.75629C67.1105 7.32429 66.854 8.06757 66.8984 8.82399V139.69C66.8534 140.446 67.1092 141.19 67.6101 141.758C68.111 142.327 68.8164 142.674 69.5724 142.725H131.132C131.888 142.675 132.594 142.329 133.096 141.761C133.597 141.193 133.854 140.449 133.809 139.693V8.827C133.854 8.07047 133.598 7.32684 133.097 6.75829C132.596 6.18975 131.891 5.8424 131.134 5.79199H118.05Z" fill="#8C1813"/>
<path d="M107.746 7.51611H93.1593C92.8523 7.51611 92.6033 7.76504 92.6033 8.07211V8.07311C92.6033 8.38018 92.8523 8.62911 93.1593 8.62911H107.746C108.053 8.62911 108.302 8.38018 108.302 8.07311V8.07211C108.302 7.76504 108.053 7.51611 107.746 7.51611Z" fill="#DBDBDB"/>
<path d="M111.636 8.62795C111.961 8.62795 112.224 8.32932 112.224 7.96095C112.224 7.59257 111.961 7.29395 111.636 7.29395C111.312 7.29395 111.048 7.59257 111.048 7.96095C111.048 8.32932 111.312 8.62795 111.636 8.62795Z" fill="#DBDBDB"/>
<path d="M148.237 134.262C143.169 135.591 139.69 131.843 138.518 126.099L126.873 77.0739C125.714 71.3079 128.879 65.563 133.958 64.214C139.044 62.9 144.111 66.489 145.3 72.247L154.8 122.541C155.978 128.284 153.303 132.933 148.237 134.262Z" fill="url(#paint3_linear)"/>
<path d="M134.461 66.6902C138.738 65.5697 143.009 68.5918 143.993 73.4405L154.698 125.99C155.686 130.839 153.021 135.677 148.744 136.797C144.468 137.918 140.204 134.897 139.212 130.047L128.508 77.5008C127.519 72.652 130.185 67.8136 134.461 66.6902Z" fill="#BE7C5E"/>
<path d="M154.338 174.869H87.8694V192.437H154.338V174.869Z" fill="url(#paint4_linear)"/>
<path d="M152.542 176.905H89.6664V190.654H152.542V176.905Z" fill="#4D8AF0"/>
<path d="M80.2513 104.926C77.7573 109.388 72.5513 110.726 68.6033 107.926L51.8583 95.6411C47.9223 92.8141 46.7393 86.9131 49.2103 82.4351C51.7043 77.9721 56.9103 76.6351 60.8583 79.4351L77.6033 91.7201C81.5393 94.5471 82.7223 100.448 80.2513 104.926Z" fill="url(#paint5_linear)"/>
<path d="M76.0474 130.929C73.5314 135.429 68.2804 136.786 64.2944 133.959L53.9224 125.384C49.9504 122.532 48.7564 116.577 51.2504 112.058C53.7664 107.558 59.0174 106.201 63.0034 109.028L73.3754 117.606C77.3454 120.458 78.5394 126.41 76.0474 130.929Z" fill="url(#paint6_linear)"/>
<g opacity="0.5">
<path opacity="0.5" d="M100.353 97.1591C111.508 97.1591 120.55 86.9069 120.55 74.2601C120.55 61.6133 111.508 51.3611 100.353 51.3611C89.1989 51.3611 80.1564 61.6133 80.1564 74.2601C80.1564 86.9069 89.1989 97.1591 100.353 97.1591Z" fill="url(#paint7_linear)"/>
</g>
<path d="M75.2094 130.29C72.8634 134.49 67.9674 135.749 64.2514 133.114L54.5773 125.13C50.8773 122.47 49.7624 116.919 52.0874 112.705C54.4334 108.505 59.3294 107.246 63.0454 109.882L72.7174 117.882C76.4114 120.54 77.5244 126.08 75.2094 130.29Z" fill="#BE7C5E"/>
<path d="M79.3303 104.252C76.9843 108.452 72.0884 109.711 68.3724 107.075L52.6173 95.5161C48.9173 92.8561 47.8023 87.3051 50.1273 83.0911C52.4733 78.8911 57.3693 77.6321 61.0853 80.2671L76.8403 91.8261C80.5423 94.4881 81.6543 100.039 79.3303 104.252Z" fill="#BE7C5E"/>
<path d="M84.5794 79.046C82.0734 83.528 76.8454 84.875 72.8794 82.06L51.6584 66.394C47.7054 63.553 46.5174 57.626 48.9994 53.127C51.5054 48.645 56.7334 47.298 60.6994 50.113L81.9204 65.779C85.8734 68.62 87.0614 74.547 84.5794 79.046Z" fill="url(#paint8_linear)"/>
<path d="M83.4524 78.2321C81.1064 82.4321 76.2104 83.691 72.4944 81.056L52.6184 66.3831C48.9184 63.7231 47.8034 58.172 50.1284 53.958C52.4744 49.758 57.3704 48.499 61.0864 51.134L80.9614 65.807C84.6614 68.467 85.7774 74.0181 83.4524 78.2321Z" fill="#BE7C5E"/>
<path fill-rule="evenodd" clip-rule="evenodd" d="M105.382 40.072L121.846 45.882C122.036 45.9479 122.201 46.0713 122.318 46.2351C122.435 46.3988 122.498 46.5948 122.498 46.796V58.417C122.498 73.457 120.264 78.954 105.498 86.399C105.363 86.4674 105.213 86.5031 105.061 86.5031C104.91 86.5031 104.76 86.4674 104.624 86.399C89.8544 78.954 87.6244 73.457 87.6244 58.417V46.796C87.6247 46.5949 87.6875 46.3989 87.8041 46.2352C87.9208 46.0714 88.0855 45.948 88.2754 45.882L104.739 40.072C104.947 39.9981 105.174 39.9981 105.382 40.072ZM105.056 84.449C118.719 77.485 120.556 72.822 120.556 58.417H120.561V47.486L105.061 42.017L89.5564 47.482V58.417C89.5564 72.823 91.3974 77.485 105.056 84.449ZM99.798 59.9181C99.435 59.1456 99.247 58.3025 99.2474 57.449H99.2454C99.245 56.4706 99.4917 55.508 99.9626 54.6504C100.433 53.7928 101.113 53.068 101.939 52.5432C102.765 52.0184 103.71 51.7107 104.686 51.6485C105.662 51.5863 106.639 51.7716 107.524 52.1874C108.41 52.6031 109.176 53.2358 109.752 54.0267C110.328 54.8176 110.695 55.7411 110.819 56.7116C110.942 57.6821 110.819 58.6682 110.46 59.5783C110.101 60.4885 109.518 61.2932 108.765 61.918L109.889 69.904C109.908 70.0409 109.897 70.1803 109.858 70.3127C109.818 70.4451 109.75 70.5675 109.66 70.6717C109.569 70.7759 109.457 70.8595 109.331 70.9168C109.205 70.9741 109.069 71.0038 108.93 71.004H101.182C101.044 71.0038 100.908 70.9741 100.782 70.9168C100.656 70.8595 100.544 70.7759 100.453 70.6717C100.362 70.5675 100.295 70.4451 100.255 70.3127C100.216 70.1803 100.205 70.0409 100.223 69.904L101.347 61.918C100.69 61.3735 100.161 60.6906 99.798 59.9181ZM108.47 59.2822C108.773 58.7188 108.932 58.0889 108.932 57.449C108.933 56.779 108.759 56.1206 108.429 55.5378C108.098 54.955 107.622 54.4679 107.047 54.124C106.472 53.7802 105.818 53.5913 105.148 53.5759C104.479 53.5605 103.816 53.7191 103.226 54.0361C102.636 54.3532 102.138 54.8179 101.782 55.3848C101.425 55.9518 101.221 56.6016 101.19 57.2708C101.16 57.94 101.303 58.6057 101.607 59.2029C101.91 59.8001 102.364 60.3083 102.922 60.678C103.075 60.7792 103.195 60.9213 103.27 61.0879C103.345 61.2545 103.371 61.439 103.346 61.62L102.298 69.071H107.818L106.77 61.62C106.745 61.439 106.772 61.2545 106.847 61.0879C106.922 60.9213 107.042 60.7792 107.194 60.678C107.728 60.3253 108.167 59.8457 108.47 59.2822Z" fill="white"/>
<circle cx="117" cy="77.418" r="10" fill="#219653"/>
<path d="M115.45 79.7298L113.297 77.6483C113.062 77.4215 112.69 77.4208 112.455 77.6468C112.206 77.8851 112.206 78.282 112.453 78.5211L114.755 80.7463C115.143 81.1209 115.758 81.1209 116.145 80.7463L122.407 74.6942C122.653 74.4564 122.653 74.0619 122.407 73.8241C122.173 73.5976 121.801 73.5975 121.566 73.824L115.45 79.7298Z" fill="#F2F2F2"/>
<defs>
<linearGradient id="paint0_linear" x1="110.261" y1="183.035" x2="110.261" y2="109.404" gradientUnits="userSpaceOnUse">
<stop stop-color="#808080" stop-opacity="0.251"/>
<stop offset="0.54" stop-color="#808080" stop-opacity="0.122"/>
<stop offset="1" stop-color="#808080" stop-opacity="0.102"/>
</linearGradient>
<linearGradient id="paint1_linear" x1="70.2228" y1="56.8514" x2="70.2228" y2="18.8342" gradientUnits="userSpaceOnUse">
<stop stop-color="#808080" stop-opacity="0.251"/>
<stop offset="0.54" stop-color="#808080" stop-opacity="0.122"/>
<stop offset="1" stop-color="#808080" stop-opacity="0.102"/>
</linearGradient>
<linearGradient id="paint2_linear" x1="153.522" y1="166.735" x2="153.522" y2="18.3943" gradientUnits="userSpaceOnUse">
<stop stop-color="#808080" stop-opacity="0.251"/>
<stop offset="0.54" stop-color="#808080" stop-opacity="0.122"/>
<stop offset="1" stop-color="#808080" stop-opacity="0.102"/>
</linearGradient>
<linearGradient id="paint3_linear" x1="140.855" y1="134.53" x2="140.855" y2="63.9429" gradientUnits="userSpaceOnUse">
<stop stop-color="#808080" stop-opacity="0.251"/>
<stop offset="0.54" stop-color="#808080" stop-opacity="0.122"/>
<stop offset="1" stop-color="#808080" stop-opacity="0.102"/>
</linearGradient>
<linearGradient id="paint4_linear" x1="174.744" y1="210.831" x2="174.744" y2="193.263" gradientUnits="userSpaceOnUse">
<stop stop-color="#808080" stop-opacity="0.251"/>
<stop offset="0.54" stop-color="#808080" stop-opacity="0.122"/>
<stop offset="1" stop-color="#808080" stop-opacity="0.102"/>
</linearGradient>
<linearGradient id="paint5_linear" x1="64.7308" y1="109.389" x2="64.7308" y2="77.9719" gradientUnits="userSpaceOnUse">
<stop stop-color="#808080" stop-opacity="0.251"/>
<stop offset="0.54" stop-color="#808080" stop-opacity="0.122"/>
<stop offset="1" stop-color="#808080" stop-opacity="0.102"/>
</linearGradient>
<linearGradient id="paint6_linear" x1="63.6482" y1="135.434" x2="63.6482" y2="107.552" gradientUnits="userSpaceOnUse">
<stop stop-color="#808080" stop-opacity="0.251"/>
<stop offset="0.54" stop-color="#808080" stop-opacity="0.122"/>
<stop offset="1" stop-color="#808080" stop-opacity="0.102"/>
</linearGradient>
<linearGradient id="paint7_linear" x1="100.353" y1="97.1591" x2="100.353" y2="51.3611" gradientUnits="userSpaceOnUse">
<stop stop-color="#808080" stop-opacity="0.251"/>
<stop offset="0.54" stop-color="#808080" stop-opacity="0.122"/>
<stop offset="1" stop-color="#808080" stop-opacity="0.102"/>
</linearGradient>
<linearGradient id="paint8_linear" x1="66.7894" y1="83.5304" x2="66.7894" y2="48.6426" gradientUnits="userSpaceOnUse">
<stop stop-color="#808080" stop-opacity="0.251"/>
<stop offset="0.54" stop-color="#808080" stop-opacity="0.122"/>
<stop offset="1" stop-color="#808080" stop-opacity="0.102"/>
</linearGradient>
</defs>
</svg>
