<svg width="19" height="19" viewBox="0 0 19 19" fill="none" xmlns="http://www.w3.org/2000/svg">
<path d="M12.2205 9.21525L10.0312 11.4051V5.78125C10.0312 5.488 9.79325 5.25 9.5 5.25C9.20675 5.25 8.96875 5.488 8.96875 5.78125V11.4051L6.77947 9.21578C6.57175 9.00806 6.23547 9.00806 6.02828 9.21578C5.82056 9.4235 5.82056 9.75978 6.02828 9.96694L9.03356 12.9722C9.16106 13.0997 9.33531 13.139 9.50056 13.1098C9.66525 13.139 9.84003 13.0992 9.96753 12.9722L12.9728 9.96694C13.1805 9.75922 13.1805 9.42297 12.9728 9.21578C12.7645 9.00806 12.4283 9.00806 12.2205 9.21525ZM9.5 1C4.80589 1 1 4.80533 1 9.5C1 14.1947 4.80589 18 9.5 18C14.1941 18 18 14.1941 18 9.5C18 4.80589 14.1947 1 9.5 1ZM9.5 16.9375C5.39236 16.9375 2.0625 13.6076 2.0625 9.5C2.0625 5.39236 5.39236 2.0625 9.5 2.0625C13.6076 2.0625 16.9375 5.39236 16.9375 9.5C16.9375 13.6076 13.6076 16.9375 9.5 16.9375Z" fill="#0F50A4" stroke="#0F50A4" stroke-width="0.2"/>
</svg>
