<svg width="21" height="17" viewBox="0 0 21 17" fill="none" xmlns="http://www.w3.org/2000/svg">
<path opacity="0.3" d="M1.8 2.40039H7.8C8.82 2.40039 9.6 3.18039 9.6 4.20039C9.6 5.22039 8.82 6.00039 7.8 6.00039H1.8C0.78 6.00039 0 5.22039 0 4.20039C0 3.18039 0.78 2.40039 1.8 2.40039ZM12.6 12.0004H18.6C19.62 12.0004 20.4 12.7804 20.4 13.8004C20.4 14.8204 19.62 15.6004 18.6 15.6004H12.6C11.58 15.6004 10.8 14.8204 10.8 13.8004C10.8 12.7804 11.58 12.0004 12.6 12.0004Z" fill="#0F50A4"/>
<path d="M16.8 7.2C14.82 7.2 13.2 5.58 13.2 3.6C13.2 1.62 14.82 0 16.8 0C18.78 0 20.4 1.62 20.4 3.6C20.4 5.58 18.78 7.2 16.8 7.2ZM3.6 16.8C1.62 16.8 0 15.18 0 13.2C0 11.22 1.62 9.6 3.6 9.6C5.58 9.6 7.2 11.22 7.2 13.2C7.2 15.18 5.58 16.8 3.6 16.8Z" fill="#0F50A4"/>
</svg>
