<svg width="13" height="18" viewBox="0 0 13 18" fill="none" xmlns="http://www.w3.org/2000/svg">
<path d="M11.3042 16.964H11.3043C12.1793 16.964 12.9023 16.2013 12.9023 15.2507V1.81103C12.9023 0.860326 12.1793 0.0976562 11.3043 0.0976562H1.69565C0.820673 0.0976562 0.0976575 0.860326 0.0976575 1.81103V15.2507V15.2508C0.097273 15.5904 0.191472 15.922 0.367642 16.2033L0.367863 16.2037C0.484212 16.3913 0.633999 16.5519 0.808263 16.6766C0.982509 16.8012 1.17782 16.8874 1.38283 16.9305L1.3836 16.9307C1.58843 16.9754 1.79949 16.9762 2.00459 16.933C2.20971 16.8897 2.40507 16.8032 2.57921 16.6781L2.57953 16.6779L6.12896 14.1504C6.12899 14.1504 6.12901 14.1503 6.12903 14.1503L6.12909 14.1503L6.18574 14.2298C6.27865 14.1634 6.38793 14.128 6.49972 14.128C6.61151 14.128 6.72078 14.1634 6.8137 14.2298L11.3042 16.964ZM11.3042 16.964C10.9898 16.9646 10.6818 16.8651 10.4195 16.6774L10.4193 16.6773L6.87047 14.1504C6.87047 14.1504 6.87046 14.1504 6.87046 14.1504L11.3042 16.964ZM5.61612 13.3049L5.61628 13.3048C5.87829 13.1174 6.18576 13.0178 6.49972 13.0178C6.81367 13.0178 7.12115 13.1174 7.38315 13.3048L7.38332 13.3049L10.934 15.8324C10.934 15.8324 10.934 15.8325 10.934 15.8325C11.0339 15.9036 11.1507 15.9449 11.2719 15.9512C11.3931 15.9575 11.5132 15.9285 11.6195 15.8678C11.7256 15.8071 11.8135 15.7174 11.8744 15.6087C11.9353 15.5001 11.9672 15.3764 11.9672 15.2507V1.81103C11.9672 1.43069 11.6763 1.10969 11.3043 1.10969H1.69565C1.3237 1.10969 1.03278 1.43069 1.03278 1.81103L1.03278 15.2505L1.13044 15.2507H1.03278V15.2506C1.03251 15.4111 1.08446 15.5675 1.18085 15.693C1.27719 15.8184 1.41234 15.9055 1.56401 15.9377C1.74193 15.9777 1.91963 15.9367 2.06599 15.8325L5.61612 13.3049Z" fill="#0F50A4" stroke="#0F50A4" stroke-width="0.195312"/>
</svg>
