<svg width="792" height="693" fill="none" viewBox="0 0 792 693" xmlns="http://www.w3.org/2000/svg"><defs>
<linearGradient id="paint0_linear_36635_74073" x1="594" y1="129" x2="705" y2="231" gradientUnits="userSpaceOnUse">
<stop stop-color="#0685CF"></stop>
<stop stop-color="#0589D6"></stop>
<stop offset="1" stop-color="#3CB7FF"></stop>
</linearGradient>
<linearGradient id="paint1_linear_36635_74073" x1="89.0088" y1="230.304" x2="161.588" y2="297" gradientUnits="userSpaceOnUse">
<stop stop-color="#0685CF"></stop>
<stop stop-color="#0589D6"></stop>
<stop offset="1" stop-color="#3CB7FF"></stop>
</linearGradient>
<linearGradient id="paint2_linear_36635_74073" x1="346.113" y1="447.138" x2="379.856" y2="509.627" gradientUnits="userSpaceOnUse">
<stop stop-color="#0685CF"></stop>
<stop stop-color="#0589D6"></stop>
<stop offset="1" stop-color="#3CB7FF"></stop>
</linearGradient>
<linearGradient id="paint3_linear_36635_74073" x1="529.19" y1="307.066" x2="560.812" y2="312.239" gradientUnits="userSpaceOnUse">
<stop stop-color="#0685CF"></stop>
<stop stop-color="#0589D6"></stop>
<stop offset="1" stop-color="#3CB7FF"></stop>
</linearGradient>
<linearGradient id="paint4_linear_36635_74073" x1="559.216" y1="309.896" x2="590.313" y2="315.248" gradientUnits="userSpaceOnUse">
<stop stop-color="#0685CF"></stop>
<stop stop-color="#0589D6"></stop>
<stop offset="1" stop-color="#3CB7FF"></stop>
</linearGradient>
<linearGradient id="paint5_linear_36635_74073" x1="285.754" y1="263.985" x2="354.397" y2="296.748" gradientUnits="userSpaceOnUse">
<stop stop-color="#0685CF"></stop>
<stop stop-color="#0589D6"></stop>
<stop offset="1" stop-color="#3CB7FF"></stop>
</linearGradient>
<linearGradient id="paint6_linear_36635_74073" x1="260.412" y1="251.792" x2="322.68" y2="279.229" gradientUnits="userSpaceOnUse">
<stop stop-color="#0685CF"></stop>
<stop stop-color="#0589D6"></stop>
<stop offset="1" stop-color="#3CB7FF"></stop>
</linearGradient>
</defs>
<g id="Enable Push Notifications">
<path id="Fill 1" fill-rule="evenodd" clip-rule="evenodd" d="M503.407 467.839L501.106 476.926L273.967 419.428L276.265 410.341C294.439 414.94 308.536 397.435 310.816 388.441L323.923 336.652C334.303 298.963 368.623 272.884 407.719 272.98C411.067 260.479 423.919 253.063 436.417 256.414C448.918 259.765 456.337 272.614 452.983 285.115C487.27 304.252 504.844 343.699 496.135 381.985L483.442 432.139C480.748 442.768 494.323 465.538 503.407 467.839Z" fill="#F1F2F7"></path>
<path id="Fill 3" fill-rule="evenodd" clip-rule="evenodd" d="M346.711 447.492C348.892 470.682 369.457 487.716 392.647 485.538C405.277 484.353 416.704 477.543 423.76 466.995L346.711 447.492Z" fill="#FFDA3E"></path>
<path id="Stroke 5" fill-rule="evenodd" clip-rule="evenodd" d="M715.596 379.831C715.596 551.794 576.189 691.201 404.226 691.201C232.263 691.201 92.8594 551.794 92.8594 379.831C92.8594 207.868 232.263 68.4609 404.226 68.4609C576.189 68.4609 715.596 207.868 715.596 379.831Z" stroke="#E9EAEC" stroke-dasharray="5.02 5.02"></path>
<path id="Stroke 7" fill-rule="evenodd" clip-rule="evenodd" d="M635.451 379.819C635.451 507.52 531.927 611.044 404.226 611.044C276.522 611.044 173.004 507.52 173.004 379.819C173.004 252.118 276.522 148.594 404.226 148.594C531.927 148.594 635.451 252.118 635.451 379.819Z" stroke="#E9EAEC" stroke-dasharray="5.05 5.05"></path>
<path id="Fill 9" fill-rule="evenodd" clip-rule="evenodd" d="M623.285 166.711C627.773 166.711 631.403 170.338 631.403 174.829C631.403 179.32 627.773 182.947 623.285 182.947C618.794 182.947 615.164 179.32 615.164 174.829C615.164 170.338 618.794 166.711 623.285 166.711ZM647.634 166.711C652.125 166.711 655.752 170.338 655.752 174.829C655.752 179.32 652.125 182.947 647.634 182.947C643.143 182.947 639.516 179.32 639.516 174.829C639.516 170.338 643.143 166.711 647.634 166.711ZM671.991 166.711C676.482 166.711 680.109 170.338 680.109 174.829C680.109 179.32 676.482 182.947 671.991 182.947C667.5 182.947 663.873 179.32 663.873 174.829C663.873 170.338 667.5 166.711 671.991 166.711ZM614.2 219.476H652.942C656.596 219.476 656.596 219.503 658.345 220.796C660.097 222.089 680.089 235.712 680.089 235.712V219.476H681.025C691.729 219.476 700.381 211.409 700.381 201.362V148.364C700.381 138.317 691.708 130.172 681.025 130.172H614.2C603.52 130.172 594.844 138.317 594.844 148.364V201.362C594.844 211.409 603.52 219.476 614.2 219.476Z" fill="url(#paint0_linear_36635_74073)"></path>
<path id="Fill 11" fill-rule="evenodd" clip-rule="evenodd" d="M145.279 260.263C145.279 263.2 142.909 265.57 139.969 265.57C137.035 265.57 134.665 263.2 134.665 260.263C134.665 257.326 137.035 254.953 139.969 254.953C142.909 254.953 145.279 257.326 145.279 260.263ZM129.351 260.263C129.351 263.2 126.978 265.57 124.044 265.57C121.107 265.57 118.734 263.2 118.734 260.263C118.734 257.326 121.107 254.953 124.044 254.953C126.978 254.953 129.351 257.326 129.351 260.263ZM113.431 260.263C113.431 263.2 111.058 265.57 108.121 265.57C105.187 265.57 102.814 263.2 102.814 260.263C102.814 257.326 105.187 254.953 108.121 254.953C111.058 254.953 113.431 257.326 113.431 260.263ZM158.57 277.618V242.965C158.57 236.395 152.894 231.07 145.913 231.07H102.218C95.2335 231.07 89.5605 236.395 89.5605 242.965V277.618C89.5605 284.185 95.2185 289.459 102.218 289.459H102.833V300.079C102.833 300.079 115.904 291.169 117.047 290.323C118.193 289.477 118.193 289.459 120.581 289.459H145.913C152.894 289.459 158.57 284.185 158.57 277.618Z" fill="url(#paint1_linear_36635_74073)"></path>
<path id="Fill 13" fill-rule="evenodd" clip-rule="evenodd" d="M346.729 447.562C348.91 470.753 369.475 487.786 392.665 485.609C405.295 484.423 416.722 477.614 423.778 467.065L346.729 447.562Z" fill="url(#paint2_linear_36635_74073)"></path>
<path id="Fill 15" fill-rule="evenodd" clip-rule="evenodd" d="M529.867 308.219C535.156 314.582 539.128 322.076 541.828 330.02C544.579 337.967 545.923 346.409 546.061 354.857C546.061 359.084 545.758 363.305 545.212 367.49C544.492 371.654 543.661 375.788 542.353 379.793C539.824 387.806 536.002 395.405 530.794 401.873C530.569 402.152 530.167 402.194 529.888 401.972C529.672 401.795 529.6 401.507 529.684 401.255C532.396 393.536 534.643 385.922 536.152 378.197C536.431 376.247 536.815 374.327 537.139 372.398C537.361 370.451 537.655 368.519 537.823 366.575C537.949 364.628 538.201 362.693 538.282 360.746C538.312 358.796 538.405 356.849 538.396 354.902C538.441 347.105 537.571 339.32 536.056 331.592C534.499 323.858 532.156 316.241 529.342 308.522C529.285 308.363 529.366 308.186 529.525 308.129C529.651 308.081 529.786 308.123 529.867 308.219Z" fill="url(#paint3_linear_36635_74073)"></path>
<path id="Fill 17" fill-rule="evenodd" clip-rule="evenodd" d="M559.657 310.936C564.763 316.819 568.609 323.797 571.288 331.204C573.973 338.62 575.524 346.498 575.8 354.424C576.1 362.347 575.134 370.312 573.016 377.899C570.901 385.483 567.604 392.731 562.954 398.977C562.924 399.016 562.867 399.025 562.831 398.998C562.801 398.974 562.789 398.935 562.798 398.902C564.724 391.384 566.338 384.07 567.316 376.717C568.294 369.367 568.615 362.02 568.342 354.7C568.042 347.383 567.157 340.09 565.6 332.851C564.049 325.603 561.856 318.451 559.357 311.11C559.327 311.017 559.375 310.918 559.468 310.885C559.537 310.861 559.612 310.882 559.657 310.936Z" fill="url(#paint4_linear_36635_74073)"></path>
<path id="Fill 19" fill-rule="evenodd" clip-rule="evenodd" d="M287.372 348.457C285.752 340.39 285.734 331.963 287.018 323.725C288.26 315.466 290.93 307.414 294.638 299.893C298.436 292.417 303.29 285.46 309.152 279.508C314.972 273.535 321.722 268.474 329.168 264.94C329.303 264.877 329.459 264.934 329.522 265.066C329.573 265.174 329.546 265.3 329.459 265.378C323.402 270.877 317.825 276.61 312.896 282.817C308.003 289.036 303.674 295.645 300.176 302.68C296.582 309.67 293.84 317.077 291.755 324.718C289.703 332.377 288.437 340.282 287.63 348.445C287.621 348.514 287.558 348.568 287.486 348.562C287.429 348.556 287.384 348.511 287.372 348.457Z" fill="url(#paint5_linear_36635_74073)"></path>
<path id="Fill 21" fill-rule="evenodd" clip-rule="evenodd" d="M261.942 332.519C260.409 324.944 260.382 317.051 261.495 309.323C262.644 301.595 264.939 294.002 268.326 286.931C271.677 279.848 276.003 273.221 281.208 267.416C286.389 261.602 292.377 256.52 299.049 252.68C293.601 258.104 288.597 263.762 284.232 269.846C279.882 275.936 276.099 282.359 273.033 289.115C269.997 295.88 267.561 302.906 265.824 310.157C264.039 317.405 262.968 324.842 262.197 332.507C262.188 332.576 262.128 332.627 262.053 332.621C261.999 332.615 261.951 332.573 261.942 332.519Z" fill="url(#paint6_linear_36635_74073)"></path>
<path id="Fill 23" fill-rule="evenodd" clip-rule="evenodd" d="M503.424 467.888C503.424 467.888 489.99 462.668 482.928 455.219C473.094 444.848 473.742 433.532 480.39 411.692C488.211 385.685 487.998 358.289 484.986 345.731C474.495 301.973 453 285.164 453 285.164C487.287 304.301 504.861 343.748 496.152 382.034L483.459 432.188C481.233 439.598 494.34 465.587 503.424 467.888L501.123 476.975L503.424 467.888Z" fill="#D8DBEA"></path>
<path id="Stroke 25" d="M34.0349 421.747L28.2539 421.57" stroke="#D2D8DF" stroke-linecap="round"></path>
<path id="Stroke 27" d="M29.8862 410.789L25.7402 414.662" stroke="#D2D8DF" stroke-linecap="round"></path>
<path id="Stroke 29" d="M19.0831 405.773L18.9961 411.425" stroke="#D2D8DF" stroke-linecap="round"></path>
<path id="Stroke 31" d="M7.94531 409.664L11.9713 413.786" stroke="#D2D8DF" stroke-linecap="round"></path>
<path id="Stroke 33" d="M3 420.164L8.778 420.341" stroke="#D2D8DF" stroke-linecap="round"></path>
<path id="Stroke 35" d="M7.14844 431.115L11.2974 427.242" stroke="#D2D8DF" stroke-linecap="round"></path>
<path id="Stroke 37" d="M17.9531 436.129L18.0401 430.477" stroke="#D2D8DF" stroke-linecap="round"></path>
<path id="Stroke 39" d="M29.0924 432.231L25.0664 428.109" stroke="#D2D8DF" stroke-linecap="round"></path>
<path id="Stroke 41" d="M787.943 341.156L785.402 343.907" stroke="#D2D8DF" stroke-linecap="round"></path>
<path id="Stroke 43" d="M776.016 343.547L777.933 345.314" stroke="#D2D8DF" stroke-linecap="round"></path>
<path id="Stroke 45" d="M774.082 355.743L776.623 352.992" stroke="#D2D8DF" stroke-linecap="round"></path>
<path id="Stroke 47" d="M786.004 353.353L784.09 351.586" stroke="#D2D8DF" stroke-linecap="round"></path>
<path id="Stroke 49" d="M555.211 17.8369L549.064 17.6719" stroke="#D2D8DF" stroke-linecap="round"></path>
<path id="Stroke 51" d="M539.308 3L539.215 8.253" stroke="#D2D8DF" stroke-linecap="round"></path>
<path id="Stroke 53" d="M522.199 16.3594L528.346 16.5214" stroke="#D2D8DF" stroke-linecap="round"></path>
<path id="Stroke 55" d="M538.102 31.1983L538.195 25.9453" stroke="#D2D8DF" stroke-linecap="round"></path>
<path id="Fill 57" fill-rule="evenodd" clip-rule="evenodd" d="M100.008 585.013C95.5864 586.336 88.2214 592.834 85.7014 600.538C85.2784 593.38 80.7334 584.383 75.7324 583.087C81.8344 580.93 88.4434 573.001 90.2014 566.32C89.8834 573.322 96.2404 583.489 100.008 585.013Z" fill="#EBECEF"></path>
<path id="Fill 59" fill-rule="evenodd" clip-rule="evenodd" d="M203.576 45.9703C200.165 46.5733 194.12 50.7733 191.576 56.2933C191.879 50.9263 189.272 43.8313 185.66 42.4333C190.391 41.3533 196.001 36.0193 197.888 31.1953C197.045 36.3853 200.9 44.5093 203.576 45.9703Z" fill="#EBECEF"></path>
<path id="Fill 61" fill-rule="evenodd" clip-rule="evenodd" d="M655.677 84.9539C651.12 84.8549 647.508 81.0839 647.61 76.5299C647.709 71.9759 651.48 68.3639 656.031 68.4629C660.588 68.5619 664.2 72.3329 664.101 76.8869C663.999 81.4409 660.231 85.0529 655.677 84.9539Z" fill="#D1D9E0"></path>
<path id="Fill 63" fill-rule="evenodd" clip-rule="evenodd" d="M655.698 625.399C651.735 625.315 648.591 622.03 648.675 618.067C648.759 614.101 652.044 610.957 656.01 611.041C659.976 611.128 663.12 614.41 663.033 618.376C662.946 622.339 659.664 625.486 655.698 625.399Z" fill="#EBECEF"></path>
<path id="Stroke 65" fill-rule="evenodd" clip-rule="evenodd" d="M59.4672 194.421C57.0132 194.367 55.0662 192.336 55.1202 189.879C55.1712 187.425 57.2052 185.481 59.6592 185.532C62.1132 185.586 64.0602 187.617 64.0092 190.071C63.9552 192.528 61.9212 194.475 59.4672 194.421Z" stroke="#D2D8DF" stroke-linecap="round"></path>
</g>

</svg>