<svg width="300" height="258" fill="none" viewBox="0 0 300 258" xmlns="http://www.w3.org/2000/svg"><defs>
<radialGradient id="paint0_radial_36660_75524" cx="0" cy="0" r="1" gradientUnits="userSpaceOnUse" gradientTransform="translate(130.111 200.006) rotate(-90) scale(51.3403 536.198)">
<stop stop-color="#EBEDF0" stop-opacity="0.24"></stop>
<stop offset="0.536775" stop-color="#EBEDF0" stop-opacity="0.845525"></stop>
<stop offset="1" stop-color="#E0E4E7" stop-opacity="0.01"></stop>
</radialGradient>
<linearGradient id="paint1_linear_36660_75524" x1="113.461" y1="208.375" x2="115.864" y2="213.513" gradientUnits="userSpaceOnUse">
<stop stop-color="#E1E7EA"></stop>
<stop offset="1" stop-color="#D0D6DC"></stop>
</linearGradient>
<linearGradient id="paint2_linear_36660_75524" x1="189.845" y1="202.21" x2="194.241" y2="211.379" gradientUnits="userSpaceOnUse">
<stop stop-color="#E1E7EA"></stop>
<stop offset="1" stop-color="#D0D6DC"></stop>
</linearGradient>
<linearGradient id="paint3_linear_36660_75524" x1="50.7703" y1="184.732" x2="53.2577" y2="194.642" gradientUnits="userSpaceOnUse">
<stop stop-color="#FBFBFB"></stop>
<stop offset="1" stop-color="#D9DFE3"></stop>
</linearGradient>
<linearGradient id="paint4_linear_36660_75524" x1="221.198" y1="44.1735" x2="225.404" y2="58.7136" gradientUnits="userSpaceOnUse">
<stop stop-color="#ECECEC"></stop>
<stop offset="0.717538" stop-color="#E1E7EA"></stop>
<stop offset="1" stop-color="#BCC3CA"></stop>
</linearGradient>
<linearGradient id="paint5_linear_36660_75524" x1="224.765" y1="53.2541" x2="245.386" y2="60.7593" gradientUnits="userSpaceOnUse">
<stop stop-color="#BAC6D2"></stop>
<stop offset="1" stop-color="#7F8F9F"></stop>
</linearGradient>
<linearGradient id="paint6_linear_36660_75524" x1="229.596" y1="49.2406" x2="232.346" y2="54.7969" gradientUnits="userSpaceOnUse">
<stop stop-color="#E1E7EA"></stop>
<stop offset="1" stop-color="#D0D6DC"></stop>
</linearGradient>
<linearGradient id="paint7_linear_36660_75524" x1="60.7787" y1="102.484" x2="50.9853" y2="85.9451" gradientUnits="userSpaceOnUse">
<stop stop-color="#DAE2E6"></stop>
<stop offset="0.58" stop-color="#E3EBEF"></stop>
<stop offset="1" stop-color="#EDF6F9"></stop>
</linearGradient>
<linearGradient id="paint8_linear_36660_75524" x1="131.953" y1="184.183" x2="148.479" y2="209.892" gradientUnits="userSpaceOnUse">
<stop stop-color="#C4CDD1"></stop>
<stop offset="1" stop-color="#C6CFD3" stop-opacity="0.01"></stop>
</linearGradient>
<linearGradient id="paint9_linear_36660_75524" x1="151.084" y1="178.617" x2="151.084" y2="137.389" gradientUnits="userSpaceOnUse">
<stop stop-color="#A1A7B8"></stop>
<stop offset="1" stop-color="#7B8195"></stop>
</linearGradient>
<linearGradient id="paint10_linear_36660_75524" x1="168.041" y1="124.237" x2="142.501" y2="153.449" gradientUnits="userSpaceOnUse">
<stop stop-color="#E5E9F0"></stop>
<stop offset="1" stop-color="#D2DAE8"></stop>
</linearGradient>
<linearGradient id="paint11_linear_36660_75524" x1="134.824" y1="32.1055" x2="139.507" y2="35.4094" gradientUnits="userSpaceOnUse">
<stop stop-color="#67D666" stop-opacity="0.01"></stop>
<stop offset="1" stop-color="#67D666" stop-opacity="0.2"></stop>
</linearGradient>
</defs>
<path d="M298.752 255.297C305.987 240.978 285.308 169.383 141.923 169.383C38.4274 169.383 -9.07413 227.985 1.42751 257.684" fill="url(#paint0_radial_36660_75524)"></path>
<mask id="mask0_36660_75524" style="mask-type:luminance" x="0" y="169" width="300" height="89" maskUnits="userSpaceOnUse">
<path d="M298.752 255.297C305.987 240.978 285.308 169.383 141.923 169.383C38.4274 169.383 -9.07413 227.985 1.42751 257.684" fill="white"></path>
</mask>
<g mask="url(#mask0_36660_75524)">
<ellipse opacity="0.671968" cx="119.808" cy="209.536" rx="7.88551" ry="4.38001" fill="url(#paint1_linear_36660_75524)"></ellipse>
<ellipse opacity="0.729957" cx="200.292" cy="202.848" rx="12.4416" ry="6.83282" fill="url(#paint2_linear_36660_75524)"></ellipse>
<ellipse opacity="0.729957" cx="58.7033" cy="184.622" rx="12.4416" ry="6.83282" fill="url(#paint3_linear_36660_75524)"></ellipse>
</g>
<g opacity="0.320685">
<ellipse cx="232.689" cy="49.9643" rx="8.41121" ry="8.40963" fill="url(#paint4_linear_36660_75524)"></ellipse>
<path d="M240.346 55.0988C237.95 54.9881 234.815 54.295 231.604 53.1265C228.393 51.9579 225.547 50.4745 223.64 49.0195C222.835 48.405 222.247 47.8309 221.917 47.3642C222.014 47.3391 222.123 47.3152 222.245 47.2937C223.17 47.1311 224.52 47.1539 226.128 47.3806L226.715 43.2162C222.055 42.5594 218.675 43.1536 217.701 45.8301C216.284 49.723 222.055 54.1269 230.166 57.0786C238.277 60.0302 245.529 60.3653 246.946 56.4725C247.939 53.7425 245.763 51.5857 241.141 48.7249L238.928 52.3009C240.5 53.274 241.674 54.1338 242.388 54.8416C242.438 54.891 242.485 54.9389 242.529 54.985C241.986 55.0963 241.241 55.1402 240.346 55.0988Z" fill="url(#paint5_linear_36660_75524)"></path>
<path d="M241.118 49.9643C241.118 45.3198 237.352 41.5547 232.706 41.5547C228.061 41.5547 225.151 44.5242 224.551 47.8724C224.551 47.8724 229.386 50.8994 231.619 51.5499C232.331 51.7575 233.037 52.0266 233.755 52.2653C234.559 52.5322 235.378 52.7676 236.206 52.9718C236.773 53.1116 237.551 53.3276 238.276 53.4625C239.233 53.6405 240.09 53.7199 240.157 53.7199C240.276 53.7199 240.406 53.1911 240.674 52.5749C240.941 51.9587 241.118 49.9643 241.118 49.9643Z" fill="url(#paint6_linear_36660_75524)"></path>
</g>
<circle opacity="0.418364" cx="47.8848" cy="99.5733" r="9.80769" fill="url(#paint7_linear_36660_75524)"></circle>
<ellipse opacity="0.425921" cx="154.038" cy="183.225" rx="29.4231" ry="8.07692" fill="url(#paint8_linear_36660_75524)"></ellipse>
<path d="M133.729 137.078C133.729 137.078 132.923 139.411 132.923 141.051C132.117 155.332 134.114 178.617 134.114 178.617H137.216L141.795 143.582L148.001 178.617H151.052C151.052 178.617 151.455 156.126 150.246 141.051C150.246 139.428 149.544 137.872 149.544 137.872L133.729 137.078Z" fill="url(#paint9_linear_36660_75524)"></path>
<path d="M130.999 118.998L124.85 120.453L122.752 119.896L109.422 117.96L106.203 117.96L106.19 113.699L106.984 115.335L108.413 115.784C108.413 115.784 109.183 114.228 109.422 114.494C109.66 114.759 109.764 115.852 109.764 115.852L110.955 116.469L125.146 116.469L128.499 114.498L130.999 118.998Z" fill="#FDE7E6"></path>
<path d="M151 118.998L157.333 120.453L159.431 119.896L172.761 117.96L176.408 116.101L177.647 113.626L177.184 113.56L175.199 115.335L173.77 115.784C173.77 115.784 173 114.228 172.761 114.494C172.523 114.759 172.419 115.852 172.419 115.852L171.228 116.469L157.037 116.469L153.5 114.498L151 118.998Z" fill="#FDE7E6"></path>
<path d="M154.615 114.762L152.664 119.513H147.893L150 139.248C150 139.248 143.983 140.259 140.802 140.505C137.62 140.75 133.094 139.248 133.094 139.248C133.094 139.248 133.094 132.367 133.094 120.016L128.857 119.513L128.077 114.762C128.077 114.762 132.033 111.985 133.094 111.523C134.154 111.061 137.737 110.539 137.737 110.539L143.406 110.539C143.406 110.539 147.91 110.713 148.761 111.523C149.613 112.333 154.615 114.762 154.615 114.762Z" fill="url(#paint10_linear_36660_75524)"></path>
<path fill-rule="evenodd" clip-rule="evenodd" d="M143.021 107.078H139.471V111.79H143.021V107.078ZM140.891 114.486C140.891 113.818 139.471 111.79 139.471 111.79H143.021C143.021 111.79 140.891 115.155 140.891 114.486Z" fill="#FECECD"></path>
<ellipse cx="141.078" cy="105.64" rx="3.7368" ry="5.29623" fill="#FFE9E9"></ellipse>
<path fill-rule="evenodd" clip-rule="evenodd" d="M136.976 105.986C137.275 104.987 137.275 102.785 137.873 102.713C138.471 102.641 139.667 103.058 140.862 102.249C141.46 101.805 141.759 101.749 141.759 101.526C144.749 102.058 142.961 103.661 144.45 105.428C144.605 105.612 145.048 105.428 145.048 105.428C145.048 105.428 145.048 101.078 144.749 100.69C144.45 100.302 143.254 98.7391 142.656 99.854C142.656 99.2966 141.46 98.7214 140.264 99.1483C139.069 99.5753 137.275 100.411 136.976 101.526C136.677 102.641 136.378 104.871 136.976 105.986Z" fill="#513450"></path>
<path d="M134.353 178.617L133.523 180.03C132.978 180.956 132.691 182.011 132.691 183.085C132.691 183.167 132.757 183.233 132.839 183.233H136.696C137.033 183.233 137.307 182.959 137.307 182.622C137.307 181.5 137.101 180.388 136.699 179.34L136.421 178.617H134.353Z" fill="#677285"></path>
<path d="M150.646 178.617L151.476 180.03C152.021 180.956 152.308 182.011 152.308 183.085C152.308 183.167 152.242 183.233 152.16 183.233H148.303C147.966 183.233 147.692 182.959 147.692 182.622C147.692 181.5 147.898 180.388 148.3 179.34L148.578 178.617H150.646Z" fill="#677285"></path>
<path d="M106.203 5.29688H109.665V181.258C109.665 182.214 108.89 182.989 107.934 182.989C106.978 182.989 106.203 182.214 106.203 181.258V5.29688Z" fill="#D8D8D8"></path>
<path d="M106.153 5.39394L127.393 10.4458C135.216 12.3067 143.459 10.9733 150.297 6.74074C159.945 0.768984 171.746 -0.613055 182.513 2.96783L189.807 5.39394L184.038 48.5624L182.414 47.8998C171.967 43.6371 160.037 45.292 151.145 52.2375C144.028 57.7959 134.458 59.0599 126.142 55.5399L106.153 47.0783V5.39394Z" fill="#4FA30F"></path>
<path d="M152.723 20.43C153.445 19.6113 154.688 19.5462 155.491 20.2849C156.286 21.0156 156.351 22.2582 155.637 23.068L143.717 36.5868C143.366 36.9842 142.88 37.2163 142.363 37.2433C141.847 37.2704 141.339 37.0904 140.949 36.7319L133.969 30.3146C133.174 29.5839 133.109 28.3412 133.823 27.5315C134.545 26.7129 135.788 26.6478 136.591 27.3864L142.113 32.4632L152.723 20.43Z" fill="white"></path>
<mask id="mask1_36660_75524" style="mask-type:luminance" x="133" y="19" width="24" height="19" maskUnits="userSpaceOnUse">
<path d="M152.723 20.43C153.445 19.6113 154.688 19.5462 155.491 20.2849C156.286 21.0156 156.351 22.2582 155.637 23.068L143.717 36.5868C143.366 36.9842 142.88 37.2163 142.363 37.2433C141.847 37.2704 141.339 37.0904 140.949 36.7319L133.969 30.3146C133.174 29.5839 133.109 28.3412 133.823 27.5315C134.545 26.7129 135.788 26.6478 136.591 27.3864L142.113 32.4632L152.723 20.43Z" fill="white"></path>
</mask>
<g mask="url(#mask1_36660_75524)">
<path opacity="0.8" d="M142.202 32.3465L137.571 37.2978L132.505 33.9412L139.731 26.6806L142.202 32.3465Z" fill="url(#paint11_linear_36660_75524)"></path>
</g>
<path d="M105.461 114.649C105.461 114.649 107.192 113.784 107.192 114.072C107.192 114.361 107.192 117.534 107.192 117.534L106.038 118.111L105.461 114.649Z" fill="#FFE9E9"></path>

</svg>