<svg width="262" height="303" fill="none" viewBox="0 0 262 303" xmlns="http://www.w3.org/2000/svg"><defs>
<filter id="filter0_d_37090_78354" x="54" y="80.1172" width="174.716" height="222.469" color-interpolation-filters="sRGB" filterUnits="userSpaceOnUse">
<feFlood flood-opacity="0" result="BackgroundImageFix"></feFlood>
<feColorMatrix in="SourceAlpha" type="matrix" values="0 0 0 0 0 0 0 0 0 0 0 0 0 0 0 0 0 0 127 0" result="hardAlpha"></feColorMatrix>
<feOffset dy="14"></feOffset>
<feGaussianBlur stdDeviation="13"></feGaussianBlur>
<feColorMatrix type="matrix" values="0 0 0 0 0.226735 0 0 0 0 0.437054 0 0 0 0 0.687819 0 0 0 0.189057 0"></feColorMatrix>
<feBlend mode="normal" in2="BackgroundImageFix" result="effect1_dropShadow_37090_78354"></feBlend>
<feBlend mode="normal" in="SourceGraphic" in2="effect1_dropShadow_37090_78354" result="shape"></feBlend>
</filter>
<linearGradient id="paint0_linear_37090_78354" x1="38.904" y1="239.931" x2="45.7454" y2="226.032" gradientUnits="userSpaceOnUse">
<stop stop-color="#3588E8"></stop>
<stop offset="1" stop-color="#384593"></stop>
</linearGradient>
<linearGradient id="paint1_linear_37090_78354" x1="235.173" y1="125.552" x2="246.576" y2="102.387" gradientUnits="userSpaceOnUse">
<stop stop-color="#3588E8"></stop>
<stop offset="1" stop-color="#384593"></stop>
</linearGradient>
<linearGradient id="paint2_linear_37090_78354" x1="109.147" y1="35.6857" x2="126.913" y2="-0.406378" gradientUnits="userSpaceOnUse">
<stop stop-color="#3588E8"></stop>
<stop offset="1" stop-color="#384593"></stop>
</linearGradient>
<linearGradient id="paint3_linear_37090_78354" x1="147.63" y1="5.60547" x2="153.163" y2="-5.63588" gradientUnits="userSpaceOnUse">
<stop stop-color="#3588E8"></stop>
<stop offset="1" stop-color="#384593"></stop>
</linearGradient>
<linearGradient id="paint4_linear_37090_78354" x1="111.617" y1="17.4023" x2="117.149" y2="6.161" gradientUnits="userSpaceOnUse">
<stop stop-color="#3588E8"></stop>
<stop offset="1" stop-color="#384593"></stop>
</linearGradient>
<linearGradient id="paint5_linear_37090_78354" x1="116.901" y1="60.5392" x2="133.891" y2="46.8889" gradientUnits="userSpaceOnUse">
<stop stop-color="#3588E8"></stop>
<stop offset="1" stop-color="#384593"></stop>
</linearGradient>
</defs>
<circle cx="49" cy="239" r="6" fill="url(#paint0_linear_37090_78354)" fill-opacity="0.14"></circle>
<circle cx="252" cy="124" r="10" fill="url(#paint1_linear_37090_78354)" fill-opacity="0.14"></circle>
<circle cx="223" cy="45" r="7" fill="#4FA30F"></circle>
<path fill-rule="evenodd" clip-rule="evenodd" d="M147.554 31.6255C143.049 29.4415 139.397 25.8225 137.173 21.3375L135.363 17.6875L133.931 20.7835C131.698 25.6095 127.834 29.4945 123.018 31.7505L119.783 33.2685L123.122 34.9465C127.137 36.9645 130.459 40.1345 132.663 44.0515L135.363 48.8485L137.437 44.9255C139.503 41.0195 142.67 37.8045 146.545 35.6795L150.943 33.2685L147.554 31.6255Z" fill="url(#paint2_linear_37090_78354)" fill-opacity="0.14"></path>
<path fill-rule="evenodd" clip-rule="evenodd" d="M159.593 4.341C158.19 3.661 157.052 2.533 156.36 1.136L155.796 0L155.35 0.964C154.655 2.467 153.451 3.677 151.951 4.38L150.943 4.853L151.983 5.375C153.234 6.004 154.269 6.991 154.955 8.211L155.796 9.705L156.442 8.484C157.085 7.267 158.072 6.265 159.279 5.604L160.649 4.853L159.593 4.341Z" fill="url(#paint3_linear_37090_78354)" fill-opacity="0.14"></path>
<path fill-rule="evenodd" clip-rule="evenodd" d="M123.58 16.1379C122.177 15.4579 121.039 14.3309 120.347 12.9339L119.783 11.7969L119.337 12.7609C118.642 14.2639 117.438 15.4739 115.938 16.1769L114.93 16.6499L115.971 17.1729C117.221 17.8009 118.256 18.7879 118.942 20.0079L119.783 21.5019L120.429 20.2809C121.073 19.0639 122.059 18.0619 123.266 17.4009L124.636 16.6499L123.58 16.1379Z" fill="url(#paint4_linear_37090_78354)" fill-opacity="0.14"></path>
<path d="M124.928 46.5703C114.93 59.0523 122.704 68.1273 129.729 70.7553" stroke="url(#paint5_linear_37090_78354)" stroke-opacity="0.14"></path>
<path fill-rule="evenodd" clip-rule="evenodd" d="M18.867 118.769C16.599 115.871 15.358 112.301 15.34 108.62L15.325 105.625L13.379 107.206C10.344 109.67 6.537 110.985 2.628 110.918L0 110.873L1.662 113.061C3.661 115.692 4.829 118.859 5.018 122.158L5.249 126.198L7.887 124.279C10.514 122.368 13.644 121.269 16.89 121.12L20.573 120.95L18.867 118.769Z" fill="#4FA30F"></path>
<path fill-rule="evenodd" clip-rule="evenodd" d="M35.6367 104.649C34.9297 103.746 34.5437 102.634 34.5377 101.488L34.5337 100.555L33.9277 101.047C32.9817 101.815 31.7967 102.224 30.5787 102.204L29.7607 102.19L30.2787 102.871C30.9007 103.691 31.2647 104.677 31.3237 105.704L31.3947 106.962L32.2167 106.365C33.0347 105.77 34.0107 105.427 35.0207 105.381L36.1677 105.328L35.6367 104.649Z" fill="#4FA30F"></path>
<path fill-rule="evenodd" clip-rule="evenodd" d="M8.04495 100.797C7.33794 99.8941 6.95195 98.7821 6.94595 97.6361L6.94095 96.7031L6.33595 97.1951C5.38995 97.9631 4.20495 98.3731 2.98695 98.3521L2.16895 98.3381L2.68695 99.0191C3.30895 99.8391 3.67295 100.825 3.73195 101.852L3.80295 103.111L4.62495 102.513C5.44295 101.918 6.41895 101.576 7.42895 101.529L8.57595 101.476L8.04495 100.797Z" fill="#4FA30F"></path>
<path fill-rule="evenodd" clip-rule="evenodd" d="M55.7053 124.818L54.7483 125.109C53.7263 121.744 50.8343 118.41 47.3823 116.616C45.3103 115.538 42.0543 114.514 38.2573 115.755L37.9453 114.805C41.2113 113.739 44.6283 114.056 47.8433 115.728C51.5223 117.641 54.6083 121.209 55.7053 124.818Z" fill="#4FA30F"></path>
<path fill-rule="evenodd" clip-rule="evenodd" d="M55.4026 95.2188L55.9666 96.0447C53.0636 98.0287 50.7496 101.787 50.0716 105.618C49.6646 107.918 49.6636 111.331 51.9856 114.581L51.1726 115.163C49.1766 112.367 48.4556 109.012 49.0876 105.444C49.8096 101.361 52.2886 97.3468 55.4026 95.2188Z" fill="#4FA30F"></path>
<g filter="url(#filter0_d_37090_78354)">
<path d="M185.135 92.1172H97.5813C87.8714 92.1172 80 99.9886 80 109.698V245.003C80 254.713 87.8714 262.585 97.5813 262.585H185.135C194.845 262.585 202.716 254.713 202.716 245.003V109.698C202.716 99.9886 194.845 92.1172 185.135 92.1172Z" fill="black"></path>
</g>
<path d="M185.135 92.1172H97.5813C87.8714 92.1172 80 99.9886 80 109.698V245.003C80 254.713 87.8714 262.585 97.5813 262.585H185.135C194.845 262.585 202.716 254.713 202.716 245.003V109.698C202.716 99.9886 194.845 92.1172 185.135 92.1172Z" fill="white"></path>
<path fill-rule="evenodd" clip-rule="evenodd" d="M92.3416 116.727H190.371C191.666 116.727 192.715 117.777 192.715 119.071V245.652C192.715 246.948 191.666 247.996 190.371 247.996H92.3416C91.7201 247.996 91.124 247.749 90.6845 247.31C90.245 246.87 89.998 246.274 89.998 245.652V119.071C89.998 117.776 91.0473 116.727 92.3416 116.727Z" fill="white"></path>
<path d="M163.765 232.864C171.502 232.864 177.774 226.595 177.774 218.862C177.774 211.128 171.502 204.859 163.765 204.859C156.028 204.859 149.756 211.128 149.756 218.862C149.756 226.595 156.028 232.864 163.765 232.864Z" fill="#98A2B3"></path>
<path d="M161.517 224.054C161.643 224.181 161.793 224.282 161.959 224.351C162.124 224.42 162.302 224.456 162.481 224.456C162.66 224.456 162.838 224.42 163.003 224.351C163.169 224.282 163.319 224.181 163.445 224.054L170.263 217.217C170.795 216.683 170.795 215.818 170.263 215.284C169.73 214.749 168.867 214.75 168.335 215.284L162.482 221.153L159.354 218.018C159.228 217.891 159.078 217.791 158.912 217.722C158.747 217.653 158.57 217.618 158.39 217.618C158.211 217.618 158.034 217.653 157.868 217.722C157.703 217.791 157.553 217.891 157.426 218.018C157.171 218.275 157.027 218.623 157.027 218.985C157.027 219.347 157.171 219.695 157.426 219.951L161.517 224.054Z" fill="white"></path>
<path d="M174.982 146.812H107.733C105.971 146.812 104.543 148.241 104.543 150.003V150.004C104.543 151.766 105.971 153.194 107.733 153.194H174.982C176.744 153.194 178.172 151.766 178.172 150.004V150.003C178.172 148.241 176.744 146.812 174.982 146.812Z" fill="#ABAEB9"></path>
<path d="M174.982 161.398H107.733C105.971 161.398 104.543 162.827 104.543 164.589V164.59C104.543 166.352 105.971 167.78 107.733 167.78H174.982C176.744 167.78 178.172 166.352 178.172 164.59V164.589C178.172 162.827 176.744 161.398 174.982 161.398Z" fill="#ABAEB9"></path>
<path d="M174.982 176.898H107.733C105.971 176.898 104.543 178.327 104.543 180.089V180.09C104.543 181.852 105.971 183.28 107.733 183.28H174.982C176.744 183.28 178.172 181.852 178.172 180.09V180.089C178.172 178.327 176.744 176.898 174.982 176.898Z" fill="#ABAEB9"></path>
<path d="M134.077 208.805H107.733C105.971 208.805 104.543 210.233 104.543 211.995V211.996C104.543 213.758 105.971 215.186 107.733 215.186H134.077C135.839 215.186 137.267 213.758 137.267 211.996V211.995C137.267 210.233 135.839 208.805 134.077 208.805Z" fill="#ABAEB9"></path>
<path d="M121.351 221.562H107.733C105.971 221.562 104.543 222.991 104.543 224.753V224.754C104.543 226.516 105.971 227.944 107.733 227.944H121.351C123.113 227.944 124.541 226.516 124.541 224.754V224.753C124.541 222.991 123.113 221.562 121.351 221.562Z" fill="#ABAEB9"></path>
<path fill-rule="evenodd" clip-rule="evenodd" d="M118.179 101.234H165.447V123.99C165.447 124.925 165.223 125.847 164.795 126.678C164.366 127.509 163.745 128.225 162.983 128.767C162.222 129.309 161.341 129.661 160.416 129.793C159.49 129.926 158.546 129.835 157.663 129.528L143.733 124.692C142.488 124.26 141.134 124.26 139.889 124.692L125.959 129.528C125.076 129.834 124.132 129.925 123.207 129.792C122.282 129.66 121.402 129.308 120.641 128.766C119.879 128.224 119.258 127.508 118.83 126.678C118.402 125.847 118.178 124.926 118.178 123.991L118.179 101.234Z" stroke="#9DACBF" stroke-width="2.741"></path>
<path d="M169.32 83H113.391C109.508 83 106.359 86.1483 106.359 90.032V98.7572C106.359 102.641 109.508 105.789 113.391 105.789H169.32C173.204 105.789 176.352 102.641 176.352 98.7572V90.032C176.352 86.1483 173.204 83 169.32 83Z" fill="#98A2B3"></path>

</svg>