<svg width="30" height="30" viewBox="0 0 30 30" fill="none" xmlns="http://www.w3.org/2000/svg">
<path opacity="0.7" d="M30 15C30 23.2843 23.2843 30 15 30C6.71573 30 0 23.2843 0 15C0 6.71573 6.71573 0 15 0C23.2843 0 30 6.71573 30 15ZM3 15C3 21.6274 8.37258 27 15 27C21.6274 27 27 21.6274 27 15C27 8.37258 21.6274 3 15 3C8.37258 3 3 8.37258 3 15Z" fill="#AFAFAF" fill-opacity="0.25"/>
<path d="M15 1.5C15 0.671573 15.6732 -0.00777025 16.4975 0.0749353C18.5685 0.282723 20.5792 0.919883 22.3992 1.95195C24.6554 3.23137 26.5413 5.07394 27.8727 7.29979C29.2042 9.52565 29.9357 12.0587 29.996 14.6517C30.0445 16.7434 29.6549 18.8164 28.8586 20.7393C28.5416 21.5047 27.6246 21.7766 26.8947 21.3848C26.1648 20.993 25.9004 20.086 26.1982 19.3129C26.7601 17.8538 27.0333 16.2942 26.9968 14.7214C26.9486 12.647 26.3633 10.6205 25.2982 8.83984C24.233 7.05915 22.7243 5.58509 20.9194 4.56156C19.5509 3.78552 18.0475 3.28857 16.4961 3.09363C15.6742 2.99034 15 2.32843 15 1.5Z" fill="#0F50A4"/>
<g opacity="0.8">
<path d="M9.44 18V12.46L8.29 12.73V11.75L9.98 11H10.77V18H9.44Z" fill="#0F50A4"/>
<path d="M11.6773 19.11L14.1773 10.23H15.4273L12.9173 19.11H11.6773ZM18.6263 18.12C18.1663 18.12 17.7496 18.04 17.3763 17.88C17.0029 17.7133 16.7029 17.46 16.4763 17.12C16.2496 16.78 16.1296 16.3533 16.1163 15.84H17.3763C17.3829 16.18 17.4929 16.4667 17.7063 16.7C17.9263 16.9267 18.2329 17.04 18.6263 17.04C18.9996 17.04 19.2863 16.9367 19.4863 16.73C19.6863 16.5233 19.7863 16.2633 19.7863 15.95C19.7863 15.5833 19.6529 15.3067 19.3863 15.12C19.1263 14.9267 18.7896 14.83 18.3763 14.83H17.8563V13.78H18.3863C18.7263 13.78 19.0096 13.7 19.2363 13.54C19.4629 13.38 19.5763 13.1433 19.5763 12.83C19.5763 12.57 19.4896 12.3633 19.3163 12.21C19.1496 12.05 18.9163 11.97 18.6163 11.97C18.2896 11.97 18.0329 12.0667 17.8463 12.26C17.6663 12.4533 17.5663 12.69 17.5463 12.97H16.2963C16.3229 12.3233 16.5463 11.8133 16.9663 11.44C17.3929 11.0667 17.9429 10.88 18.6163 10.88C19.0963 10.88 19.4996 10.9667 19.8263 11.14C20.1596 11.3067 20.4096 11.53 20.5763 11.81C20.7496 12.09 20.8363 12.4 20.8363 12.74C20.8363 13.1333 20.7263 13.4667 20.5063 13.74C20.2929 14.0067 20.0263 14.1867 19.7063 14.28C20.0996 14.36 20.4196 14.5533 20.6663 14.86C20.9129 15.16 21.0363 15.54 21.0363 16C21.0363 16.3867 20.9429 16.74 20.7563 17.06C20.5696 17.38 20.2963 17.6367 19.9363 17.83C19.5829 18.0233 19.1463 18.12 18.6263 18.12Z" fill="#6D7174"/>
</g>
</svg>
