<svg width="30" height="30" viewBox="0 0 30 30" fill="none" xmlns="http://www.w3.org/2000/svg">
<path opacity="0.7" d="M30 15C30 23.2843 23.2843 30 15 30C6.71573 30 0 23.2843 0 15C0 6.71573 6.71573 0 15 0C23.2843 0 30 6.71573 30 15ZM3 15C3 21.6274 8.37258 27 15 27C21.6274 27 27 21.6274 27 15C27 8.37258 21.6274 3 15 3C8.37258 3 3 8.37258 3 15Z" fill="#AFAFAF" fill-opacity="0.25"/>
<path d="M15 1.5C15 0.671573 15.6732 -0.00777029 16.4975 0.0749352C18.5717 0.283051 20.5855 0.921891 22.4077 1.95679C24.666 3.23932 26.5525 5.08617 27.8828 7.31661C29.213 9.54705 29.9414 12.0847 29.9966 14.6811C30.0518 17.2775 29.432 19.8438 28.1978 22.1287C26.9635 24.4137 25.1572 26.3391 22.9556 27.7165C20.7539 29.0939 18.2324 29.876 15.6377 29.9864C13.0431 30.0968 10.4642 29.5317 8.15348 28.3464C6.28893 27.3899 4.65054 26.056 3.33926 24.4354C2.81816 23.7914 3.01717 22.8559 3.70998 22.4017C4.4028 21.9475 5.32598 22.1484 5.86302 22.7792C6.87835 23.9717 8.12063 24.9578 9.52278 25.6771C11.3713 26.6254 13.4344 27.0775 15.5102 26.9892C17.5859 26.9008 19.6031 26.2751 21.3644 25.1732C23.1258 24.0713 24.5708 22.531 25.5582 20.703C26.5456 18.875 27.0415 16.822 26.9973 14.7449C26.9531 12.6677 26.3704 10.6376 25.3062 8.85329C24.242 7.06894 22.7328 5.59145 20.9262 4.56543C19.5559 3.78718 18.0501 3.2889 16.4961 3.09363C15.6742 2.99034 15 2.32843 15 1.5Z" fill="#0F50A4"/>
<g opacity="0.8">
<path d="M8.51 18V17.07C8.93667 16.7167 9.35 16.3667 9.75 16.02C10.1567 15.6733 10.5167 15.33 10.83 14.99C11.15 14.65 11.4033 14.32 11.59 14C11.7833 13.6733 11.88 13.3567 11.88 13.05C11.88 12.7633 11.8 12.51 11.64 12.29C11.4867 12.07 11.23 11.96 10.87 11.96C10.5033 11.96 10.2267 12.08 10.04 12.32C9.85333 12.56 9.76 12.85 9.76 13.19H8.52C8.53333 12.6767 8.64667 12.25 8.86 11.91C9.07333 11.5633 9.35667 11.3067 9.71 11.14C10.0633 10.9667 10.46 10.88 10.9 10.88C11.6133 10.88 12.1667 11.0767 12.56 11.47C12.96 11.8567 13.16 12.36 13.16 12.98C13.16 13.3667 13.07 13.7433 12.89 14.11C12.7167 14.4767 12.4867 14.83 12.2 15.17C11.9133 15.51 11.6033 15.83 11.27 16.13C10.9367 16.4233 10.6133 16.6967 10.3 16.95H13.33V18H8.51Z" fill="#0F50A4"/>
<path d="M13.9429 19.11L16.4429 10.23H17.6929L15.1829 19.11H13.9429ZM20.8919 18.12C20.4319 18.12 20.0152 18.04 19.6419 17.88C19.2685 17.7133 18.9685 17.46 18.7419 17.12C18.5152 16.78 18.3952 16.3533 18.3819 15.84H19.6419C19.6485 16.18 19.7585 16.4667 19.9719 16.7C20.1919 16.9267 20.4985 17.04 20.8919 17.04C21.2652 17.04 21.5519 16.9367 21.7519 16.73C21.9519 16.5233 22.0519 16.2633 22.0519 15.95C22.0519 15.5833 21.9185 15.3067 21.6519 15.12C21.3919 14.9267 21.0552 14.83 20.6419 14.83H20.1219V13.78H20.6519C20.9919 13.78 21.2752 13.7 21.5019 13.54C21.7285 13.38 21.8419 13.1433 21.8419 12.83C21.8419 12.57 21.7552 12.3633 21.5819 12.21C21.4152 12.05 21.1819 11.97 20.8819 11.97C20.5552 11.97 20.2985 12.0667 20.1119 12.26C19.9319 12.4533 19.8319 12.69 19.8119 12.97H18.5619C18.5885 12.3233 18.8119 11.8133 19.2319 11.44C19.6585 11.0667 20.2085 10.88 20.8819 10.88C21.3619 10.88 21.7652 10.9667 22.0919 11.14C22.4252 11.3067 22.6752 11.53 22.8419 11.81C23.0152 12.09 23.1019 12.4 23.1019 12.74C23.1019 13.1333 22.9919 13.4667 22.7719 13.74C22.5585 14.0067 22.2919 14.1867 21.9719 14.28C22.3652 14.36 22.6852 14.5533 22.9319 14.86C23.1785 15.16 23.3019 15.54 23.3019 16C23.3019 16.3867 23.2085 16.74 23.0219 17.06C22.8352 17.38 22.5619 17.6367 22.2019 17.83C21.8485 18.0233 21.4119 18.12 20.8919 18.12Z" fill="#6D7174"/>
</g>
</svg>
