<svg width="30" height="30" viewBox="0 0 30 30" fill="none" xmlns="http://www.w3.org/2000/svg">
<path opacity="0.7" d="M30 15C30 23.2843 23.2843 30 15 30C6.71573 30 0 23.2843 0 15C0 6.71573 6.71573 0 15 0C23.2843 0 30 6.71573 30 15ZM3 15C3 21.6274 8.37258 27 15 27C21.6274 27 27 21.6274 27 15C27 8.37258 21.6274 3 15 3C8.37258 3 3 8.37258 3 15Z" fill="#AFAFAF" fill-opacity="0.25"/>
<path d="M30 15C30 23.2843 23.2843 30 15 30C6.71573 30 0 23.2843 0 15C0 6.71573 6.71573 0 15 0C23.2843 0 30 6.71573 30 15ZM3 15C3 21.6274 8.37258 27 15 27C21.6274 27 27 21.6274 27 15C27 8.37258 21.6274 3 15 3C8.37258 3 3 8.37258 3 15Z" fill="#0F50A4"/>
<g opacity="0.8">
<path d="M10.97 18.12C10.51 18.12 10.0933 18.04 9.72 17.88C9.34667 17.7133 9.04667 17.46 8.82 17.12C8.59333 16.78 8.47333 16.3533 8.46 15.84H9.72C9.72667 16.18 9.83667 16.4667 10.05 16.7C10.27 16.9267 10.5767 17.04 10.97 17.04C11.3433 17.04 11.63 16.9367 11.83 16.73C12.03 16.5233 12.13 16.2633 12.13 15.95C12.13 15.5833 11.9967 15.3067 11.73 15.12C11.47 14.9267 11.1333 14.83 10.72 14.83H10.2V13.78H10.73C11.07 13.78 11.3533 13.7 11.58 13.54C11.8067 13.38 11.92 13.1433 11.92 12.83C11.92 12.57 11.8333 12.3633 11.66 12.21C11.4933 12.05 11.26 11.97 10.96 11.97C10.6333 11.97 10.3767 12.0667 10.19 12.26C10.01 12.4533 9.91 12.69 9.89 12.97H8.64C8.66667 12.3233 8.89 11.8133 9.31 11.44C9.73667 11.0667 10.2867 10.88 10.96 10.88C11.44 10.88 11.8433 10.9667 12.17 11.14C12.5033 11.3067 12.7533 11.53 12.92 11.81C13.0933 12.09 13.18 12.4 13.18 12.74C13.18 13.1333 13.07 13.4667 12.85 13.74C12.6367 14.0067 12.37 14.1867 12.05 14.28C12.4433 14.36 12.7633 14.5533 13.01 14.86C13.2567 15.16 13.38 15.54 13.38 16C13.38 16.3867 13.2867 16.74 13.1 17.06C12.9133 17.38 12.64 17.6367 12.28 17.83C11.9267 18.0233 11.49 18.12 10.97 18.12Z" fill="#0F50A4"/>
<path d="M14.187 19.11L16.687 10.23H17.937L15.427 19.11H14.187ZM21.136 18.12C20.676 18.12 20.2593 18.04 19.886 17.88C19.5127 17.7133 19.2127 17.46 18.986 17.12C18.7593 16.78 18.6393 16.3533 18.626 15.84H19.886C19.8927 16.18 20.0027 16.4667 20.216 16.7C20.436 16.9267 20.7427 17.04 21.136 17.04C21.5093 17.04 21.796 16.9367 21.996 16.73C22.196 16.5233 22.296 16.2633 22.296 15.95C22.296 15.5833 22.1627 15.3067 21.896 15.12C21.636 14.9267 21.2993 14.83 20.886 14.83H20.366V13.78H20.896C21.236 13.78 21.5193 13.7 21.746 13.54C21.9727 13.38 22.086 13.1433 22.086 12.83C22.086 12.57 21.9993 12.3633 21.826 12.21C21.6593 12.05 21.426 11.97 21.126 11.97C20.7993 11.97 20.5427 12.0667 20.356 12.26C20.176 12.4533 20.076 12.69 20.056 12.97H18.806C18.8327 12.3233 19.056 11.8133 19.476 11.44C19.9027 11.0667 20.4527 10.88 21.126 10.88C21.606 10.88 22.0093 10.9667 22.336 11.14C22.6693 11.3067 22.9193 11.53 23.086 11.81C23.2593 12.09 23.346 12.4 23.346 12.74C23.346 13.1333 23.236 13.4667 23.016 13.74C22.8027 14.0067 22.536 14.1867 22.216 14.28C22.6093 14.36 22.9293 14.5533 23.176 14.86C23.4227 15.16 23.546 15.54 23.546 16C23.546 16.3867 23.4527 16.74 23.266 17.06C23.0793 17.38 22.806 17.6367 22.446 17.83C22.0927 18.0233 21.656 18.12 21.136 18.12Z" fill="#6D7174"/>
</g>
</svg>
