<svg width="16" height="17" viewBox="0 0 16 17" fill="none" xmlns="http://www.w3.org/2000/svg">
<mask id="mask0" mask-type="alpha" maskUnits="userSpaceOnUse" x="1" y="2" width="14" height="14">
<path fill-rule="evenodd" clip-rule="evenodd" d="M8.00065 2.33203C4.32065 2.33203 1.33398 5.3187 1.33398 8.9987C1.33398 12.6787 4.32065 15.6654 8.00065 15.6654C11.6807 15.6654 14.6673 12.6787 14.6673 8.9987C14.6673 5.3187 11.6807 2.33203 8.00065 2.33203ZM8.00065 9.66537C7.63398 9.66537 7.33398 9.36537 7.33398 8.9987V6.33203C7.33398 5.96536 7.63398 5.66536 8.00065 5.66536C8.36732 5.66536 8.66732 5.96536 8.66732 6.33203V8.9987C8.66732 9.36537 8.36732 9.66537 8.00065 9.66537ZM7.33398 10.9987V12.332H8.66732V10.9987H7.33398Z" fill="black"/>
</mask>
<g mask="url(#mask0)">
<rect y="0.998047" width="16" height="16" fill="#EB5757"/>
</g>
</svg>
