<svg width="30" height="30" viewBox="0 0 30 30" fill="none" xmlns="http://www.w3.org/2000/svg">
<rect width="30" height="30" rx="15" fill="#0685CF" fill-opacity="0.2"/>
<path fill-rule="evenodd" clip-rule="evenodd" d="M19.626 8.68701C19.626 7.756 20.382 7 21.313 7C22.244 7 23 7.756 23 8.68701C23 9.61802 22.244 10.374 21.313 10.374C20.382 10.374 19.626 9.61802 19.626 8.68701ZM16.9301 15.9315L18.9531 13.3212L18.9251 13.3352C19.0371 13.1812 19.0581 12.9852 18.9811 12.8102C18.9048 12.6352 18.7361 12.5162 18.5548 12.5022C18.3651 12.4812 18.1768 12.5652 18.0641 12.7192L16.3708 14.9102L14.431 13.3842C14.312 13.2932 14.172 13.2575 14.032 13.2722C13.8927 13.2932 13.7667 13.3695 13.682 13.4815L11.6107 16.1772L11.568 16.2402C11.449 16.4635 11.505 16.7505 11.715 16.9052C11.813 16.9682 11.918 17.0102 12.037 17.0102C12.1987 17.0172 12.352 16.9325 12.45 16.8002L14.207 14.5385L16.2021 16.0372L16.2651 16.0785C16.4891 16.1975 16.7691 16.1422 16.9301 15.9315ZM18.4151 8.24603C18.3871 8.42103 18.3731 8.59603 18.3731 8.77103C18.3731 10.346 19.6471 11.6193 21.2151 11.6193C21.3901 11.6193 21.5581 11.599 21.7331 11.571V17.2194C21.7331 19.5931 20.3331 21.0001 17.9531 21.0001H12.7807C10.4 21.0001 9 19.5931 9 17.2194V12.0401C9 9.66004 10.4 8.24603 12.7807 8.24603H18.4151Z" fill="#0685CF"/>
</svg>
