<svg width="19" height="18" viewBox="0 0 19 18" fill="none" xmlns="http://www.w3.org/2000/svg">
<path fill-rule="evenodd" clip-rule="evenodd" d="M13.6641 2.16901C13.6641 0.972006 14.6361 0 15.8331 0C17.0301 0 18.0021 0.972006 18.0021 2.16901C18.0021 3.36602 17.0301 4.33803 15.8331 4.33803C14.6361 4.33803 13.6641 3.36602 13.6641 2.16901ZM10.1958 11.4836L12.7968 8.12748L12.7608 8.14548C12.9048 7.94748 12.9318 7.69548 12.8328 7.47048C12.7347 7.24548 12.5178 7.09248 12.2847 7.07448C12.0408 7.04748 11.7987 7.15548 11.6538 7.35348L9.47672 10.1705L6.9828 8.20848C6.8298 8.09148 6.6498 8.04558 6.4698 8.06448C6.2907 8.09148 6.1287 8.18958 6.0198 8.33359L3.35668 11.7995L3.30178 11.8805C3.14878 12.1676 3.22078 12.5366 3.49078 12.7355C3.61678 12.8165 3.75178 12.8705 3.90479 12.8705C4.11269 12.8795 4.30979 12.7706 4.43579 12.6005L6.6948 9.69259L9.25982 11.6195L9.34082 11.6726C9.62882 11.8256 9.98882 11.7545 10.1958 11.4836ZM12.1051 1.60212C12.0691 1.82712 12.0511 2.05212 12.0511 2.27712C12.0511 4.30214 13.6891 5.93925 15.7051 5.93925C15.9301 5.93925 16.1461 5.91315 16.3711 5.87715V13.1393C16.3711 16.1912 14.5711 18.0002 11.5111 18.0002H4.86093C1.80001 18.0002 0 16.1912 0 13.1393V6.48015C0 3.42013 1.80001 1.60212 4.86093 1.60212H12.1051Z" fill="#0F50A4"/>
</svg>
