<svg width="19" height="19" viewBox="0 0 19 19" fill="none" xmlns="http://www.w3.org/2000/svg">
<path fill-rule="evenodd" clip-rule="evenodd" d="M18.4989 14.0277V16.7277C18.501 17.2345 18.2893 17.7187 17.9158 18.0614C17.5423 18.404 17.0417 18.5733 16.5369 18.5277C13.7675 18.2268 11.1072 17.2804 8.76992 15.7647C6.59537 14.3829 4.75172 12.5393 3.36992 10.3647C1.8489 8.01678 0.902339 5.34359 0.606921 2.5617C0.561447 2.05848 0.729566 1.55932 1.07021 1.18616C1.41085 0.812989 1.89266 0.600174 2.39792 0.599698H5.09792C6.0014 0.590806 6.77147 1.25307 6.89792 2.1477C7.01188 3.01176 7.22322 3.86015 7.52792 4.6767C7.77518 5.33449 7.61703 6.07602 7.12292 6.5757L5.97992 7.7187C7.26112 9.97189 9.12673 11.8375 11.3799 13.1187L12.5229 11.9757C13.0226 11.4816 13.7641 11.3234 14.4219 11.5707C15.2385 11.8754 16.0869 12.0867 16.9509 12.2007C17.8559 12.3284 18.5216 13.114 18.4989 14.0277Z" fill="white"/>
</svg>
