<svg width="71" height="54" viewBox="0 0 71 54" fill="none" xmlns="http://www.w3.org/2000/svg">
<path d="M0.25 8C0.25 3.71979 3.71979 0.25 8 0.25H63C67.2802 0.25 70.75 3.71979 70.75 8V39.261C70.75 43.5412 67.2802 47.011 63 47.011H43.679C41.7629 47.011 40.2441 47.8525 38.9766 49.0798C37.7146 50.3016 36.6887 51.9182 35.7521 53.4941C35.6155 53.7239 35.5246 53.75 35.5 53.75C35.4754 53.75 35.3845 53.7239 35.2479 53.4941C34.3113 51.9182 33.2854 50.3016 32.0234 49.0798C30.7559 47.8525 29.2371 47.011 27.321 47.011H8C3.71979 47.011 0.25 43.5412 0.25 39.261V8Z" fill="white"/>
<path d="M0.25 8C0.25 3.71979 3.71979 0.25 8 0.25H63C67.2802 0.25 70.75 3.71979 70.75 8V39.261C70.75 43.5412 67.2802 47.011 63 47.011H43.679C41.7629 47.011 40.2441 47.8525 38.9766 49.0798C37.7146 50.3016 36.6887 51.9182 35.7521 53.4941C35.6155 53.7239 35.5246 53.75 35.5 53.75C35.4754 53.75 35.3845 53.7239 35.2479 53.4941C34.3113 51.9182 33.2854 50.3016 32.0234 49.0798C30.7559 47.8525 29.2371 47.011 27.321 47.011H8C3.71979 47.011 0.25 43.5412 0.25 39.261V8Z" fill="#0F50A4" fill-opacity="0.1"/>
<path d="M0.25 8C0.25 3.71979 3.71979 0.25 8 0.25H63C67.2802 0.25 70.75 3.71979 70.75 8V39.261C70.75 43.5412 67.2802 47.011 63 47.011H43.679C41.7629 47.011 40.2441 47.8525 38.9766 49.0798C37.7146 50.3016 36.6887 51.9182 35.7521 53.4941C35.6155 53.7239 35.5246 53.75 35.5 53.75C35.4754 53.75 35.3845 53.7239 35.2479 53.4941C34.3113 51.9182 33.2854 50.3016 32.0234 49.0798C30.7559 47.8525 29.2371 47.011 27.321 47.011H8C3.71979 47.011 0.25 43.5412 0.25 39.261V8Z" stroke="#0F50A4" stroke-width="0.5"/>
</svg>
