<svg width="101" height="100" viewBox="0 0 101 100" fill="none" xmlns="http://www.w3.org/2000/svg">
<path opacity="0.17" d="M100.5 88.1438C98.72 74.2121 77.0167 63.2063 50.5 63.2063C23.9833 63.2063 2.28 74.2121 0.5 88.1438H100.5Z" fill="url(#paint0_linear_27877_17493)"/>
<path opacity="0.3" d="M93.1703 28.8406C94.0885 28.8406 94.8328 28.0963 94.8328 27.1781C94.8328 26.26 94.0885 25.5156 93.1703 25.5156C92.2521 25.5156 91.5078 26.26 91.5078 27.1781C91.5078 28.0963 92.2521 28.8406 93.1703 28.8406Z" fill="url(#paint1_linear_27877_17493)"/>
<path opacity="0.3" d="M13.6625 45.325C14.5807 45.325 15.325 44.5807 15.325 43.6625C15.325 42.7443 14.5807 42 13.6625 42C12.7443 42 12 42.7443 12 43.6625C12 44.5807 12.7443 45.325 13.6625 45.325Z" fill="url(#paint2_linear_27877_17493)"/>
<path opacity="0.3" d="M45.7708 19.5417C47.3011 19.5417 48.5417 18.3011 48.5417 16.7708C48.5417 15.2405 47.3011 14 45.7708 14C44.2405 14 43 15.2405 43 16.7708C43 18.3011 44.2405 19.5417 45.7708 19.5417Z" fill="url(#paint3_linear_27877_17493)"/>
<path opacity="0.3" d="M89.7708 60.5417C91.3011 60.5417 92.5417 59.3011 92.5417 57.7708C92.5417 56.2405 91.3011 55 89.7708 55C88.2405 55 87 56.2405 87 57.7708C87 59.3011 88.2405 60.5417 89.7708 60.5417Z" fill="url(#paint4_linear_27877_17493)"/>
<path d="M50.4876 69.7239C62.5569 69.7239 72.341 68.8217 72.341 67.7088C72.341 66.596 62.5569 65.6938 50.4876 65.6938C38.4183 65.6938 28.6343 66.596 28.6343 67.7088C28.6343 68.8217 38.4183 69.7239 50.4876 69.7239Z" fill="url(#paint5_linear_27877_17493)"/>
<path d="M66.6668 50.0238C66.6666 48.462 67.2239 46.9514 68.2382 45.7638C69.2526 44.5762 70.6575 43.7896 72.2001 43.5455C72.4474 43.5054 72.6722 43.3783 72.8342 43.1872C72.9961 42.9961 73.0845 42.7535 73.0835 42.503V39.3138C73.0832 37.6609 72.4265 36.0758 71.2578 34.907C70.089 33.7382 68.5038 33.0815 66.851 33.0813H37.4584C35.8054 33.0813 34.2201 33.7379 33.0511 34.9067C31.8822 36.0755 31.2253 37.6608 31.2251 39.3138V42.503C31.2239 42.7532 31.3118 42.9956 31.473 43.187C31.6342 43.3783 31.8583 43.506 32.1051 43.5471C33.6486 43.7904 35.0546 44.5768 36.0699 45.7646C37.0851 46.9525 37.643 48.4637 37.643 50.0263C37.643 51.5889 37.0851 53.1001 36.0699 54.288C35.0546 55.4758 33.6486 56.2622 32.1051 56.5055C31.8582 56.5465 31.6341 56.6741 31.4728 56.8655C31.3115 57.0568 31.2237 57.2994 31.2251 57.5496V60.7355C31.2251 61.554 31.3863 62.3645 31.6996 63.1207C32.0129 63.8769 32.472 64.5641 33.0509 65.1428C33.6297 65.7216 34.3169 66.1806 35.0731 66.4938C35.8294 66.8069 36.6399 66.9681 37.4584 66.968H66.8476C67.6666 66.9684 68.4776 66.8074 69.2343 66.4943C69.991 66.1811 70.6786 65.7219 71.2577 65.1428C71.8368 64.5638 72.2962 63.8762 72.6094 63.1196C72.9227 62.3629 73.0838 61.5519 73.0835 60.733V57.5455C73.0846 57.2952 72.9964 57.0528 72.8348 56.8617C72.6732 56.6706 72.4487 56.5434 72.2018 56.503C70.6588 56.2589 69.2537 55.4722 68.239 54.2845C67.2243 53.0967 66.6668 51.5859 66.6668 50.0238Z" fill="white"/>
<path opacity="0.37" d="M66.6668 50.0238C66.6666 48.462 67.2239 46.9514 68.2382 45.7638C69.2526 44.5762 70.6575 43.7896 72.2001 43.5455C72.4474 43.5054 72.6722 43.3783 72.8342 43.1872C72.9961 42.9961 73.0845 42.7535 73.0835 42.503V39.3138C73.0832 37.6609 72.4265 36.0758 71.2578 34.907C70.089 33.7382 68.5038 33.0815 66.851 33.0813H37.4584C35.8054 33.0813 34.2201 33.7379 33.0511 34.9067C31.8822 36.0755 31.2253 37.6608 31.2251 39.3138V42.503C31.2239 42.7532 31.3118 42.9956 31.473 43.187C31.6342 43.3783 31.8583 43.506 32.1051 43.5471C33.6486 43.7904 35.0546 44.5768 36.0699 45.7646C37.0851 46.9525 37.643 48.4637 37.643 50.0263C37.643 51.5889 37.0851 53.1001 36.0699 54.288C35.0546 55.4758 33.6486 56.2622 32.1051 56.5055C31.8582 56.5465 31.6341 56.6741 31.4728 56.8655C31.3115 57.0568 31.2237 57.2994 31.2251 57.5496V60.7355C31.2251 61.554 31.3863 62.3645 31.6996 63.1207C32.0129 63.8769 32.472 64.5641 33.0509 65.1428C33.6297 65.7216 34.3169 66.1806 35.0731 66.4938C35.8294 66.8069 36.6399 66.9681 37.4584 66.968H66.8476C67.6666 66.9684 68.4776 66.8074 69.2343 66.4943C69.991 66.1811 70.6786 65.7219 71.2577 65.1428C71.8368 64.5638 72.2962 63.8762 72.6094 63.1196C72.9227 62.3629 73.0838 61.5519 73.0835 60.733V57.5455C73.0846 57.2952 72.9964 57.0528 72.8348 56.8617C72.6732 56.6706 72.4487 56.5434 72.2018 56.503C70.6588 56.2589 69.2537 55.4722 68.239 54.2845C67.2243 53.0967 66.6668 51.5859 66.6668 50.0238Z" fill="url(#paint6_linear_27877_17493)"/>
<path d="M63.4887 50.0238C63.4887 48.462 64.046 46.9515 65.0603 45.7639C66.0746 44.5764 67.4794 43.7897 69.022 43.5455C69.2684 43.5043 69.4922 43.3769 69.6533 43.1859C69.8143 42.9949 69.9022 42.7528 69.9012 42.503V39.3138C69.901 38.4952 69.7397 37.6846 69.4263 36.9283C69.1129 36.172 68.6536 35.4849 68.0746 34.9061C67.4956 34.3274 66.8083 33.8683 66.0519 33.5552C65.2955 33.2421 64.4848 33.0811 63.6662 33.0813H34.2787C32.6258 33.0815 31.0406 33.7382 29.8719 34.907C28.7031 36.0758 28.0464 37.6609 28.0462 39.3138V42.503C28.0448 42.7532 28.1326 42.9958 28.2938 43.1871C28.4551 43.3785 28.6793 43.5061 28.9262 43.5471C30.4697 43.7904 31.8757 44.5768 32.8909 45.7646C33.9062 46.9525 34.464 48.4637 34.464 50.0263C34.464 51.5889 33.9062 53.1001 32.8909 54.288C31.8757 55.4758 30.4697 56.2622 28.9262 56.5055C28.6792 56.5463 28.4549 56.6739 28.2936 56.8653C28.1323 57.0567 28.0446 57.2993 28.0462 57.5496V60.7355C28.0462 62.3884 28.7028 63.9737 29.8716 65.1425C31.0404 66.3113 32.6257 66.968 34.2787 66.968H63.6662C64.4847 66.9681 65.2952 66.8069 66.0515 66.4938C66.8077 66.1806 67.4949 65.7216 68.0737 65.1428C68.6526 64.5641 69.1117 63.8769 69.425 63.1207C69.7383 62.3645 69.8995 61.554 69.8995 60.7355V57.5455C69.9006 57.2959 69.813 57.054 69.6522 56.863C69.4915 56.6721 69.2681 56.5445 69.022 56.503C67.4794 56.2584 66.0747 55.4715 65.0604 54.2838C64.0462 53.0962 63.4888 51.5856 63.4887 50.0238Z" fill="#B9D0EE"/>
<path opacity="0.3" d="M69.0368 43.5142C69.2837 43.4732 69.5078 43.3456 69.6691 43.1542C69.8304 42.9629 69.9182 42.7203 69.9168 42.47V39.2825C69.9166 37.6295 69.2597 36.0443 68.0908 34.8755C66.9218 33.7067 65.3365 33.05 63.6834 33.05H54.8334L36.4468 66.9342H63.6826C64.5012 66.9344 65.3118 66.7734 66.0682 66.4603C66.8246 66.1472 67.5118 65.6881 68.0907 65.1094C68.6697 64.5306 69.1289 63.8435 69.4422 63.0872C69.7555 62.3309 69.9168 61.5203 69.9168 60.7017V57.5142C69.918 57.2642 69.8302 57.022 69.6691 56.8308C69.5081 56.6396 69.2842 56.512 69.0376 56.4709C67.4952 56.2265 66.0906 55.4397 65.0764 54.2522C64.0622 53.0647 63.505 51.5542 63.505 49.9925C63.505 48.4309 64.0622 46.9204 65.0764 45.7329C66.0906 44.5454 67.4952 43.7586 69.0376 43.5142H69.0368Z" fill="url(#paint7_linear_27877_17493)"/>
<path d="M52.8511 33.05H34.2936C32.6407 33.0503 31.0555 33.707 29.8868 34.8758C28.718 36.0445 28.0613 37.6297 28.0611 39.2825V42.4692C28.0597 42.7195 28.1475 42.962 28.3087 43.1534C28.47 43.3447 28.6942 43.4724 28.9411 43.5134C30.4846 43.7567 31.8905 44.543 32.9058 45.7309C33.9211 46.9187 34.4789 48.43 34.4789 49.9925C34.4789 51.5551 33.9211 53.0664 32.9058 54.2542C31.8905 55.4421 30.4846 56.2284 28.9411 56.4717C28.6941 56.5126 28.4698 56.6402 28.3085 56.8315C28.1472 57.0229 28.0595 57.2656 28.0611 57.5159V60.7017C28.0611 62.3547 28.7177 63.9399 29.8865 65.1088C31.0553 66.2776 32.6406 66.9342 34.2936 66.9342H36.4469L54.8336 33.05H52.8511Z" fill="#B9D0EE"/>
<path d="M41.5496 58.0595C41.4338 58.0596 41.3194 58.0344 41.2144 57.9856C41.1094 57.9369 41.0163 57.8657 40.9417 57.7772C40.867 57.6887 40.8127 57.5849 40.7824 57.4732C40.7521 57.3614 40.7466 57.2444 40.7662 57.1303L41.5996 52.282L38.0754 48.8478C37.9692 48.7444 37.894 48.6133 37.8584 48.4694C37.8228 48.3255 37.8282 48.1745 37.874 48.0335C37.9198 47.8925 38.0042 47.7671 38.1175 47.6716C38.2309 47.576 38.3687 47.5141 38.5154 47.4928L43.3837 46.7853L45.5612 42.3737C45.6269 42.2408 45.7284 42.1289 45.8543 42.0507C45.9802 41.9725 46.1255 41.9311 46.2737 41.9312C46.4219 41.9312 46.5672 41.9726 46.6931 42.0508C46.819 42.129 46.9205 42.2408 46.9862 42.3737L49.1671 46.7853L54.0354 47.4928C54.1822 47.514 54.3201 47.5758 54.4336 47.6713C54.547 47.7668 54.6315 47.8922 54.6774 48.0332C54.7232 48.1742 54.7287 48.3253 54.6932 48.4692C54.6576 48.6132 54.5825 48.7444 54.4762 48.8478L50.9529 52.282L51.7862 57.1303C51.8114 57.2764 51.7951 57.4267 51.7393 57.564C51.6835 57.7013 51.5904 57.8203 51.4704 57.9075C51.3505 57.9946 51.2086 58.0465 51.0607 58.0571C50.9128 58.0678 50.7649 58.0369 50.6337 57.9678L46.2796 55.6787L41.9171 57.9678C41.8037 58.0274 41.6776 58.0588 41.5496 58.0595ZM40.3379 48.8353L43.0046 51.437C43.0968 51.5269 43.1658 51.6379 43.2056 51.7605C43.2454 51.883 43.2547 52.0134 43.2329 52.1403L42.6029 55.8137L45.9021 54.0795C46.016 54.0196 46.1429 53.9882 46.2717 53.9882C46.4004 53.9882 46.5273 54.0196 46.6412 54.0795L49.9404 55.8137L49.3104 52.1403C49.2888 52.0134 49.2983 51.8831 49.338 51.7606C49.3778 51.6381 49.4467 51.527 49.5387 51.437L52.2054 48.8353L48.5171 48.2995C48.3896 48.2811 48.2685 48.2319 48.1643 48.1563C48.0601 48.0806 47.9758 47.9808 47.9187 47.8653L46.2696 44.5228L44.6196 47.8653C44.5625 47.9808 44.4782 48.0806 44.374 48.1563C44.2698 48.2319 44.1487 48.2811 44.0212 48.2995L40.3379 48.8353Z" fill="white"/>
<path d="M59.7588 39.2012C59.5479 39.2012 59.3457 39.1174 59.1966 38.9684C59.0476 38.8193 58.9638 38.617 58.9638 38.4062V37.2145C58.9603 37.108 58.9783 37.0019 59.0167 36.9025C59.0551 36.8031 59.1131 36.7124 59.1872 36.6358C59.2613 36.5593 59.3501 36.4984 59.4482 36.4568C59.5463 36.4152 59.6518 36.3938 59.7584 36.3938C59.8649 36.3938 59.9704 36.4152 60.0685 36.4568C60.1667 36.4984 60.2554 36.5593 60.3296 36.6358C60.4037 36.7124 60.4617 36.8031 60.5 36.9025C60.5384 37.0019 60.5564 37.108 60.553 37.2145V38.4062C60.553 38.6169 60.4693 38.819 60.3204 38.9681C60.1715 39.1171 59.9695 39.201 59.7588 39.2012Z" fill="white"/>
<path d="M59.7584 58.3042C59.5475 58.3042 59.3453 58.2204 59.1962 58.0713C59.0471 57.9222 58.9634 57.72 58.9634 57.5092V55.2167C58.9701 55.0104 59.0567 54.8148 59.205 54.6712C59.3533 54.5277 59.5516 54.4474 59.758 54.4474C59.9644 54.4474 60.1627 54.5277 60.3109 54.6712C60.4592 54.8148 60.5459 55.0104 60.5525 55.2167V57.5092C60.5525 57.7199 60.4689 57.922 60.32 58.071C60.1711 58.2201 59.9691 58.3039 59.7584 58.3042ZM59.7584 51.9367C59.5475 51.9367 59.3453 51.8529 59.1962 51.7038C59.0471 51.5547 58.9634 51.3525 58.9634 51.1417V48.8492C58.9701 48.6429 59.0567 48.4473 59.205 48.3037C59.3533 48.1602 59.5516 48.0799 59.758 48.0799C59.9644 48.0799 60.1627 48.1602 60.3109 48.3037C60.4592 48.4473 60.5459 48.6429 60.5525 48.8492V51.1417C60.5525 51.3524 60.4689 51.5545 60.32 51.7035C60.1711 51.8526 59.9691 51.9364 59.7584 51.9367ZM59.7584 45.5692C59.5475 45.5692 59.3453 45.4854 59.1962 45.3363C59.0471 45.1872 58.9634 44.985 58.9634 44.7742V42.4817C58.9701 42.2754 59.0567 42.0798 59.205 41.9362C59.3533 41.7927 59.5516 41.7124 59.758 41.7124C59.9644 41.7124 60.1627 41.7927 60.3109 41.9362C60.4592 42.0798 60.5459 42.2754 60.5525 42.4817V44.7742C60.5525 44.9849 60.4689 45.187 60.32 45.336C60.1711 45.4851 59.9691 45.5689 59.7584 45.5692Z" fill="white"/>
<path d="M59.7584 63.5668C59.5477 63.5668 59.3456 63.4831 59.1965 63.3342C59.0475 63.1853 58.9636 62.9833 58.9634 62.7726V61.5818C58.9701 61.3755 59.0567 61.1799 59.205 61.0363C59.3533 60.8928 59.5516 60.8125 59.758 60.8125C59.9644 60.8125 60.1627 60.8928 60.3109 61.0363C60.4592 61.1799 60.5459 61.3755 60.5525 61.5818V62.7743C60.5521 62.9846 60.4682 63.1862 60.3194 63.3348C60.1705 63.4833 59.9687 63.5668 59.7584 63.5668Z" fill="white"/>
<defs>
<linearGradient id="paint0_linear_27877_17493" x1="50.5" y1="88.1438" x2="50.5" y2="63.2063" gradientUnits="userSpaceOnUse">
<stop stop-color="white" stop-opacity="0"/>
<stop offset="0.77" stop-color="#0F50A4"/>
</linearGradient>
<linearGradient id="paint1_linear_27877_17493" x1="93.1703" y1="28.8406" x2="93.1703" y2="25.5156" gradientUnits="userSpaceOnUse">
<stop stop-color="#6DE7BB" stop-opacity="0.4"/>
<stop offset="0.77" stop-color="#0F50A4"/>
</linearGradient>
<linearGradient id="paint2_linear_27877_17493" x1="13.6625" y1="45.325" x2="13.6625" y2="42" gradientUnits="userSpaceOnUse">
<stop stop-color="#6DE7BB" stop-opacity="0.4"/>
<stop offset="0.77" stop-color="#0F50A4"/>
</linearGradient>
<linearGradient id="paint3_linear_27877_17493" x1="45.7708" y1="19.5417" x2="45.7708" y2="14.0008" gradientUnits="userSpaceOnUse">
<stop stop-color="#0F50A4" stop-opacity="0.4"/>
<stop offset="0.77" stop-color="#0F50A4"/>
</linearGradient>
<linearGradient id="paint4_linear_27877_17493" x1="89.7708" y1="60.5417" x2="89.7708" y2="55.0008" gradientUnits="userSpaceOnUse">
<stop stop-color="#0F50A4" stop-opacity="0.4"/>
<stop offset="0.77" stop-color="#0F50A4"/>
</linearGradient>
<linearGradient id="paint5_linear_27877_17493" x1="50.5001" y1="71.8364" x2="50.4876" y2="65.6938" gradientUnits="userSpaceOnUse">
<stop stop-color="#ABB0BB" stop-opacity="0.23"/>
<stop offset="0.77" stop-color="#B4BECC" stop-opacity="0"/>
</linearGradient>
<linearGradient id="paint6_linear_27877_17493" x1="52.1526" y1="33.0813" x2="52.1526" y2="66.9655" gradientUnits="userSpaceOnUse">
<stop stop-color="#84ABDD"/>
<stop offset="0.77" stop-color="#0F50A4"/>
</linearGradient>
<linearGradient id="paint7_linear_27877_17493" x1="53.1809" y1="66.9342" x2="53.1809" y2="33.05" gradientUnits="userSpaceOnUse">
<stop offset="0.399363" stop-color="#0F50A4" stop-opacity="0"/>
<stop offset="0.77" stop-color="#0F50A4" stop-opacity="0.51"/>
</linearGradient>
</defs>
</svg>
