<svg width="23" height="18" viewBox="0 0 23 18" fill="none" xmlns="http://www.w3.org/2000/svg">
<path fill-rule="evenodd" clip-rule="evenodd" d="M21.9206 13.666V13.656C22.3516 13.656 22.7006 13.306 22.7006 12.876C22.7006 12.446 22.3516 12.096 21.9206 12.096H19.3185C18.8875 12.096 18.5375 12.446 18.5375 12.887C18.5375 13.316 18.8875 13.666 19.3185 13.666H21.9206ZM16.4813 7.57602H21.9116C22.3426 7.57602 22.6916 7.92602 22.6916 8.35602C22.6916 8.78602 22.3426 9.13702 21.9116 9.13702H16.4813C16.0513 9.13702 15.7013 8.78602 15.7013 8.35602C15.7013 7.92602 16.0513 7.57602 16.4813 7.57602ZM16.4012 3.00602H21.839C22.139 2.96601 22.429 3.11602 22.589 3.36602C22.749 3.62602 22.749 3.95602 22.589 4.20602C22.429 4.46601 22.139 4.60602 21.839 4.57602H16.4012C16.0022 4.53602 15.7012 4.19602 15.7012 3.78602C15.7012 3.38702 16.0022 3.04602 16.4012 3.00602Z" fill="#0685CF"/>
<path fill-rule="evenodd" clip-rule="evenodd" d="M12.4637 4.76195C12.4637 7.40527 10.3443 9.5248 7.69916 9.5248C5.05487 9.5248 2.93457 7.40527 2.93457 4.76195C2.93457 2.11862 5.05487 0 7.69916 0C10.3443 0 12.4637 2.11862 12.4637 4.76195ZM7.7 18C3.79614 18 0.5 17.3655 0.5 14.9175C0.5 12.4686 3.81684 11.8566 7.7 11.8566C11.6048 11.8566 14.9 12.4911 14.9 14.9391C14.9 17.388 11.5832 18 7.7 18Z" fill="#0F50A4"/>
</svg>
