<svg width="25" height="25" viewBox="0 0 25 25" fill="none" xmlns="http://www.w3.org/2000/svg">
<path d="M12.5 24C14.7745 24 16.9979 23.3255 18.8891 22.0619C20.7802 20.7983 22.2542 19.0022 23.1246 16.9009C23.995 14.7995 24.2228 12.4872 23.779 10.2565C23.3353 8.02568 22.24 5.97658 20.6317 4.36828C19.0234 2.75997 16.9743 1.6647 14.7435 1.22097C12.5128 0.777244 10.2005 1.00498 8.09914 1.87539C5.99779 2.7458 4.20174 4.21978 2.9381 6.11095C1.67446 8.00211 1 10.2255 1 12.5C1 15.55 2.2116 18.4751 4.36827 20.6317C6.52494 22.7884 9.45001 24 12.5 24Z" stroke="#6D7174" stroke-width="2" stroke-linecap="round" stroke-linejoin="round"/>
</svg>
