<svg width="96" height="96" viewBox="0 0 96 96" fill="none" xmlns="http://www.w3.org/2000/svg">
<circle cx="48" cy="48" r="48" fill="#0F50A4"/>
<path d="M48.5856 53.2647C51.7759 53.2647 54.8356 51.9973 57.0916 49.7414C59.3475 47.4854 60.6149 44.4257 60.6149 41.2354C60.6149 38.045 59.3475 34.9853 57.0916 32.7294C54.8356 30.4734 51.7759 29.2061 48.5856 29.2061C43.4048 29.2061 39.0067 32.4835 37.3126 37.0714C36.8142 38.4031 36.558 39.8134 36.5563 41.2354C36.5563 43.7703 37.3458 46.1155 38.6812 48.0576C39.785 49.6647 41.2637 50.9788 42.9894 51.886C44.7151 52.7933 46.6359 53.2665 48.5856 53.2647ZM57.0908 56.0282C56.9515 55.9628 56.7983 55.9328 56.6446 55.9408C56.491 55.9488 56.3416 55.9945 56.2098 56.0739C53.9755 57.3899 51.3685 58.1517 48.5856 58.1517C46.0994 58.1517 43.6523 57.5339 41.4641 56.3537C41.3304 56.2779 41.1798 56.2368 41.0261 56.2344C40.8724 56.232 40.7205 56.2683 40.5845 56.3399C35.8401 58.8956 32.2302 63.4045 31.4739 68.5714C30.9724 71.9998 31.5916 71.9998 35.7875 71.9998H62.6027C67.354 71.9998 67.3083 71.6217 66.8262 68.5714C65.966 63.1759 62.1081 58.5105 57.0908 56.0282Z" fill="white"/>
<path opacity="0.6" d="M66.0506 37.9714C65.8741 37.219 65.6497 36.4787 65.3788 35.755C65.3012 35.4697 65.2624 35.1829 65.171 34.8962C65.1273 34.7707 65.0356 34.6676 64.9161 34.6094C62.0819 28.3662 55.8013 24 48.5012 24C39.9266 24 32.7373 30.0271 30.9268 38.0628C29.9246 38.3287 29.0383 38.918 28.4056 39.7394C27.7728 40.5608 27.4291 41.5681 27.4277 42.605C27.4288 43.8574 27.9269 45.0582 28.8125 45.9438C29.6981 46.8295 30.8989 47.3275 32.1514 47.3286V37.8813C32.0932 37.8813 32.0336 37.8938 31.9685 37.8994C33.8192 30.4898 40.5181 24.971 48.4942 24.971C55.7944 24.971 62.0168 29.5838 64.4479 36.0487C64.6238 36.7275 64.7734 37.4048 64.8635 38.0822L64.3689 45.1136C63.6966 47.4394 62.5348 49.5945 60.9613 51.4344C60.7545 51.3322 60.527 51.2787 60.2964 51.2779C59.8879 51.295 59.5019 51.4692 59.2189 51.7643C58.9359 52.0593 58.7779 52.4524 58.7779 52.8612C58.7779 53.27 58.9359 53.663 59.2189 53.958C59.5019 54.2531 59.8879 54.4274 60.2964 54.4445C61.1691 54.4445 61.8797 53.7353 61.8797 52.8612C61.8797 52.5814 61.7883 52.3348 61.665 52.1062C62.9615 50.5936 64.0046 48.9327 64.7208 47.1402C65.8835 47.1037 66.9917 46.6381 67.8316 45.8332C68.6715 45.0283 69.1839 43.941 69.2699 42.7809C69.345 41.7353 69.0692 40.6945 68.4861 39.8233C67.903 38.9522 67.0459 38.3004 66.0506 37.9714Z" fill="#FBFBFB"/>
</svg>
