<svg width="30" height="30" viewBox="0 0 30 30" fill="none" xmlns="http://www.w3.org/2000/svg">
<g opacity="0.9" clip-path="url(#clip0_27075_62343)">
<path d="M15 4.5C9.20156 4.5 4.5 9.20156 4.5 15C4.5 20.7984 9.20156 25.5 15 25.5C20.7984 25.5 25.5 20.7984 25.5 15C25.5 9.20156 20.7984 4.5 15 4.5ZM15 23.7188C10.1859 23.7188 6.28125 19.8141 6.28125 15C6.28125 10.1859 10.1859 6.28125 15 6.28125C19.8141 6.28125 23.7188 10.1859 23.7188 15C23.7188 19.8141 19.8141 23.7188 15 23.7188Z" fill="#F2F2F2"/>
<path d="M17.6156 10.4227C16.9125 9.80625 15.9844 9.46875 15 9.46875C14.0156 9.46875 13.0875 9.80859 12.3844 10.4227C11.6531 11.0625 11.25 11.9227 11.25 12.8438V13.0219C11.25 13.125 11.3344 13.2094 11.4375 13.2094H12.5625C12.6656 13.2094 12.75 13.125 12.75 13.0219V12.8438C12.75 11.8102 13.7602 10.9688 15 10.9688C16.2398 10.9688 17.25 11.8102 17.25 12.8438C17.25 13.5727 16.7344 14.2406 15.9352 14.5477C15.4383 14.7375 15.0164 15.0703 14.7141 15.5062C14.407 15.9516 14.2477 16.4859 14.2477 17.0273V17.5312C14.2477 17.6344 14.332 17.7188 14.4352 17.7188H15.5602C15.6633 17.7188 15.7477 17.6344 15.7477 17.5312V16.9992C15.7477 16.5375 16.0383 16.1156 16.4719 15.9492C17.8547 15.4172 18.7477 14.1984 18.7477 12.8438C18.75 11.9227 18.3469 11.0625 17.6156 10.4227Z" fill="#F2F2F2"/>
<path d="M14.0625 20.1562C14.0625 20.4049 14.1613 20.6433 14.3371 20.8192C14.5129 20.995 14.7514 21.0938 15 21.0938C15.2486 21.0938 15.4871 20.995 15.6629 20.8192C15.8387 20.6433 15.9375 20.4049 15.9375 20.1562C15.9375 19.9076 15.8387 19.6692 15.6629 19.4933C15.4871 19.3175 15.2486 19.2188 15 19.2188C14.7514 19.2188 14.5129 19.3175 14.3371 19.4933C14.1613 19.6692 14.0625 19.9076 14.0625 20.1562Z" fill="#F2F2F2"/>
</g>
<defs>
<clipPath id="clip0_27075_62343">
<rect width="30" height="30" fill="white"/>
</clipPath>
</defs>
</svg>
