<svg width="4" height="16" viewBox="0 0 4 16" fill="none" xmlns="http://www.w3.org/2000/svg">
<g opacity="0.8">
<path d="M1.5625 3.125C2.42544 3.125 3.125 2.42545 3.125 1.5625C3.125 0.699555 2.42544 0 1.5625 0C0.699555 0 0 0.699555 0 1.5625C0 2.42545 0.699555 3.125 1.5625 3.125Z" fill="#6D7174"/>
<path d="M1.5625 9.375C2.42544 9.375 3.125 8.67545 3.125 7.8125C3.125 6.94956 2.42544 6.25 1.5625 6.25C0.699555 6.25 0 6.94956 0 7.8125C0 8.67545 0.699555 9.375 1.5625 9.375Z" fill="#6D7174"/>
<path d="M1.5625 15.1042C2.42544 15.1042 3.125 14.4046 3.125 13.5417C3.125 12.6787 2.42544 11.9792 1.5625 11.9792C0.699555 11.9792 0 12.6787 0 13.5417C0 14.4046 0.699555 15.1042 1.5625 15.1042Z" fill="#6D7174"/>
</g>
</svg>
