<svg width="22" height="20" viewBox="0 0 22 20" fill="none" xmlns="http://www.w3.org/2000/svg">
<path d="M0 17.9933H21.1371V20H0V17.9933ZM16.2907 0.29388L19.9799 3.98311C20.3718 4.37495 20.3718 5.01023 19.9799 5.40207L10.1893 15.1928C10.0953 15.2867 9.98367 15.3611 9.86075 15.4115C9.73782 15.462 9.60611 15.4875 9.47324 15.4866L5.76067 15.4622C5.20662 15.4585 4.76043 15.0065 4.76395 14.4525L4.78726 10.7877C4.78894 10.5238 4.89451 10.2712 5.0811 10.0846L14.8718 0.29388C15.2636 -0.0979599 15.8989 -0.0979599 16.2907 0.29388ZM15.5812 2.42231L6.79127 11.2123L6.77692 13.4621L9.06692 13.4772L17.8515 4.69261L15.5812 2.42231Z" fill="#6D7174"/>
</svg>
