<svg width="162" height="134" viewBox="0 0 162 134" fill="none" xmlns="http://www.w3.org/2000/svg">
<defs>
<linearGradient id="paint0_linear_35563_3142" x1="81.1564" y1="53.3967" x2="81.1564" y2="93.4335" gradientUnits="userSpaceOnUse">
<stop stop-color="#A9A9A9" stop-opacity="0.15"/>
<stop offset="1" stop-color="#A9A9A9" stop-opacity="0"/>
</linearGradient>
<radialGradient id="paint1_radial_35563_3142" cx="0" cy="0" r="1" gradientUnits="userSpaceOnUse" gradientTransform="translate(19.827 33.6701) scale(64.1887 4.86453)">
<stop stop-color="#808184" stop-opacity="0.495165"/>
<stop offset="1" stop-color="white" stop-opacity="0"/>
</radialGradient>
<radialGradient id="paint2_radial_35563_3142" cx="0" cy="0" r="1" gradientUnits="userSpaceOnUse" gradientTransform="translate(149.776 54.3956) scale(16.1637)">
<stop stop-color="white"/>
<stop offset="1" stop-color="#C2C2C2"/>
</radialGradient>
<radialGradient id="paint3_radial_35563_3142" cx="0" cy="0" r="1" gradientUnits="userSpaceOnUse" gradientTransform="translate(39.501 32.8399) scale(8.76117)">
<stop stop-color="white"/>
<stop offset="1" stop-color="#D8D8D8"/>
</radialGradient>
<linearGradient id="paint4_linear_35563_3142" x1="82.8303" y1="3.88281" x2="82.8303" y2="81.5527" gradientUnits="userSpaceOnUse">
<stop stop-color="#EEEEEE"/>
<stop offset="1" stop-color="#D8D8D8" stop-opacity="0"/>
</linearGradient>
<linearGradient id="paint5_linear_35563_3142" x1="85.9368" y1="3.88281" x2="85.9368" y2="81.5527" gradientUnits="userSpaceOnUse">
<stop stop-color="#DADADA"/>
<stop offset="1" stop-color="#F4F4F4" stop-opacity="0"/>
</linearGradient>
<linearGradient id="paint6_linear_35563_3142" x1="71.9561" y1="4.27118" x2="100.7" y2="4.27118" gradientUnits="userSpaceOnUse">
<stop stop-color="#EEEEEE"/>
<stop offset="0.03" stop-color="#DDDDDD"/>
<stop offset="1" stop-color="#D8D8D8"/>
</linearGradient>
<linearGradient id="paint7_linear_35563_3142" x1="85.934" y1="0" x2="85.934" y2="2.57834" gradientUnits="userSpaceOnUse">
<stop stop-color="#DEDEDE"/>
<stop offset="1" stop-color="#FDFDFD"/>
</linearGradient>
<linearGradient id="paint8_linear_35563_3142" x1="80.1215" y1="30.6827" x2="66.7127" y2="30.6827" gradientUnits="userSpaceOnUse">
<stop stop-color="white" stop-opacity="0.67742"/>
<stop offset="1" stop-color="white"/>
</linearGradient>
<linearGradient id="paint9_linear_35563_3142" x1="90.974" y1="43.1104" x2="66.2191" y2="43.1104" gradientUnits="userSpaceOnUse">
<stop stop-color="white" stop-opacity="0.67742"/>
<stop offset="1" stop-color="white"/>
</linearGradient>
<linearGradient id="paint10_linear_35563_3142" x1="90.974" y1="54.7608" x2="66.2191" y2="54.7608" gradientUnits="userSpaceOnUse">
<stop stop-color="white" stop-opacity="0.67742"/>
<stop offset="1" stop-color="white"/>
</linearGradient>
<linearGradient id="paint11_linear_35563_3142" x1="101.03" y1="22.5331" x2="91.7466" y2="22.5331" gradientUnits="userSpaceOnUse">
<stop stop-color="white" stop-opacity="0.67742"/>
<stop offset="1" stop-color="white"/>
</linearGradient>
<linearGradient id="paint12_linear_35563_3142" x1="99.3578" y1="19.4822" x2="99.3578" y2="25.5391" gradientUnits="userSpaceOnUse">
<stop stop-color="#E1E1E1"/>
<stop offset="1" stop-color="#E3E3E3"/>
</linearGradient>
<linearGradient id="paint13_linear_35563_3142" x1="123.994" y1="38.4564" x2="127.102" y2="38.4564" gradientUnits="userSpaceOnUse">
<stop stop-color="#FFF7ED"/>
<stop offset="1" stop-color="#FFEBD6"/>
</linearGradient>
<linearGradient id="paint14_linear_35563_3142" x1="120.892" y1="34.9411" x2="127.859" y2="34.9411" gradientUnits="userSpaceOnUse">
<stop stop-color="#FFF7ED"/>
<stop offset="1" stop-color="#FFEBD6"/>
</linearGradient>
<linearGradient id="paint15_linear_35563_3142" x1="131.762" y1="73.0112" x2="120.111" y2="73.0112" gradientUnits="userSpaceOnUse">
<stop stop-color="#3D4757"/>
<stop offset="1" stop-color="#3D4757"/>
</linearGradient>
</defs>
<path d="M80.5 133.331C124.683 133.331 160.5 115.406 160.5 93.2946C160.5 71.1829 124.683 53.2578 80.5 53.2578C36.3172 53.2578 0.5 71.1829 0.5 93.2946C0.5 115.406 36.3172 133.331 80.5 133.331Z" fill="url(#paint0_linear_35563_3142)"/>
<path style="mix-blend-mode:multiply" opacity="0.36" d="M77.7815 86.2136C114.029 86.2136 143.413 83.2579 143.413 79.6117C143.413 75.9656 114.029 73.0098 77.7815 73.0098C41.5344 73.0098 12.1504 75.9656 12.1504 79.6117C12.1504 83.2579 41.5344 86.2136 77.7815 86.2136Z" fill="url(#paint1_radial_35563_3142)"/>
<path opacity="0.4" d="M153.083 65.3491C157.801 65.3491 161.626 61.524 161.626 56.8054C161.626 52.0869 157.801 48.2617 153.083 48.2617C148.364 48.2617 144.539 52.0869 144.539 56.8054C144.539 61.524 148.364 65.3491 153.083 65.3491Z" fill="url(#paint2_radial_35563_3142)"/>
<path opacity="0.66" d="M37.0049 38.8341C39.5787 38.8341 41.6651 36.7476 41.6651 34.1739C41.6651 31.6001 39.5787 29.5137 37.0049 29.5137C34.4312 29.5137 32.3447 31.6001 32.3447 34.1739C32.3447 36.7476 34.4312 38.8341 37.0049 38.8341Z" fill="url(#paint3_radial_35563_3142)"/>
<path fill-rule="evenodd" clip-rule="evenodd" d="M97.6221 47.377H97.8551V47.5106V47.5998V48.1218V48.16V48.3701V48.4274V48.5484H98.3289V48.9304H98.2745H98.2279H98.1891H98.1502H97.6687V48.8858V48.854V48.8158V48.7839V48.7457V48.7075V48.663V48.1855V48.1537V48.1155V48.0582V47.9308V47.7908V47.708V47.4343H97.9017L97.6221 47.377Z" fill="white"/>
<path d="M106.023 3.88281H59.6381C57.0043 3.88281 54.8691 6.01794 54.8691 8.65174V76.7838C54.8691 79.4176 57.0043 81.5527 59.6381 81.5527H106.023C108.656 81.5527 110.791 79.4176 110.791 76.7838V8.65174C110.791 6.01794 108.656 3.88281 106.023 3.88281Z" fill="url(#paint4_linear_35563_3142)"/>
<path d="M109.867 3.88281H62.0067C59.7804 3.88281 57.9756 5.68758 57.9756 7.91388V77.5216C57.9756 79.7479 59.7804 81.5527 62.0067 81.5527H109.867C112.093 81.5527 113.898 79.7479 113.898 77.5216V7.91388C113.898 5.68758 112.093 3.88281 109.867 3.88281Z" fill="url(#paint5_linear_35563_3142)"/>
<path d="M98.3638 1.55273H74.2862C72.9993 1.55273 71.9561 2.59595 71.9561 3.88283V4.65953C71.9561 5.94641 72.9993 6.98963 74.2862 6.98963H98.3638C99.6507 6.98963 100.694 5.94641 100.694 4.65953V3.88283C100.694 2.59595 99.6507 1.55273 98.3638 1.55273Z" fill="url(#paint6_linear_35563_3142)"/>
<path d="M94.0923 0H77.7816C76.7092 0 75.8398 0.86935 75.8398 1.94175C75.8398 3.01414 76.7092 3.88349 77.7816 3.88349H94.0923C95.1647 3.88349 96.034 3.01414 96.034 1.94175C96.034 0.86935 95.1647 0 94.0923 0Z" fill="url(#paint7_linear_35563_3142)"/>
<path d="M85.5483 28.7383H69.2376C68.1652 28.7383 67.2959 29.6076 67.2959 30.68C67.2959 31.7524 68.1652 32.6218 69.2376 32.6218H85.5483C86.6207 32.6218 87.4901 31.7524 87.4901 30.68C87.4901 29.6076 86.6207 28.7383 85.5483 28.7383Z" fill="url(#paint8_linear_35563_3142)"/>
<path d="M102.636 41.166H69.2376C68.1652 41.166 67.2959 42.0354 67.2959 43.1078C67.2959 44.1802 68.1652 45.0495 69.2376 45.0495H102.636C103.708 45.0495 104.577 44.1802 104.577 43.1078C104.577 42.0354 103.708 41.166 102.636 41.166Z" fill="url(#paint9_linear_35563_3142)"/>
<path d="M102.636 52.8164H69.2376C68.1652 52.8164 67.2959 53.6858 67.2959 54.7582C67.2959 55.8306 68.1652 56.6999 69.2376 56.6999H102.636C103.708 56.6999 104.577 55.8306 104.577 54.7582C104.577 53.6858 103.708 52.8164 102.636 52.8164Z" fill="url(#paint10_linear_35563_3142)"/>
<path d="M99.1407 29.5138C103.001 29.5138 106.131 26.3841 106.131 22.5235C106.131 18.6629 103.001 15.5332 99.1407 15.5332C95.2801 15.5332 92.1504 18.6629 92.1504 22.5235C92.1504 26.3841 95.2801 29.5138 99.1407 29.5138Z" fill="url(#paint11_linear_35563_3142)"/>
<path d="M102.288 26.9737L99.4968 25.5062C99.4157 25.4634 99.3188 25.4634 99.2378 25.5062L96.4519 26.9851C96.3585 27.0345 96.2452 27.0267 96.1595 26.9649C96.0738 26.9031 96.0306 26.798 96.048 26.6938L96.5749 23.5692C96.5901 23.4795 96.5603 23.3879 96.4952 23.3243L94.2309 21.1153C94.1556 21.0416 94.1285 20.9316 94.161 20.8313C94.1934 20.731 94.2799 20.6577 94.3841 20.6421L97.504 20.1804C97.5944 20.1669 97.6723 20.1098 97.7125 20.0278L99.1018 17.1866C99.1483 17.0917 99.2448 17.0315 99.3505 17.0313C99.4563 17.031 99.553 17.0909 99.5999 17.1856L101 20.0215C101.04 20.1035 101.119 20.1603 101.209 20.1731L104.331 20.6229C104.435 20.6381 104.522 20.7111 104.554 20.8113C104.587 20.9114 104.56 21.0215 104.485 21.0955L102.23 23.3128C102.165 23.3767 102.136 23.4682 102.151 23.5578L102.691 26.6808C102.709 26.785 102.666 26.8902 102.58 26.9524C102.495 27.0145 102.381 27.0228 102.288 26.9737H102.288Z" fill="url(#paint12_linear_35563_3142)"/>
<path fill-rule="evenodd" clip-rule="evenodd" d="M109.95 42.3797C109.95 42.0782 110.005 41.6366 110.005 41.6366L110.1 41.3458C110.161 41.1034 110.211 41.1735 110.222 41.1735C110.528 41.1735 110.428 41.712 110.679 42.2989C110.736 42.4206 110.803 42.5377 110.879 42.649L111.174 42.8105C111.235 42.8482 111.825 45.4169 111.436 45.0023C110.872 44.4592 110.116 44.1435 109.321 44.1191C108.902 44.1328 108.486 44.1869 108.079 44.2807C107.642 44.4206 107.193 44.5268 106.738 44.5984C106.738 44.4907 106.86 44.4207 106.944 44.3722C107.257 44.1726 107.591 44.0047 107.94 43.8714L108.291 43.7475L108.469 43.6775L108.274 43.7045C108.152 43.7045 108.029 43.7637 107.907 43.7745C107.545 43.8068 106.521 44.1083 106.365 44.0868C106.326 44.0868 106.215 44.0868 106.226 44.006C106.237 43.9253 106.961 43.6021 107.161 43.5375C107.573 43.4137 108.024 43.2575 108.141 43.2144C108.141 43.2144 108.252 43.1875 108.257 43.1713C108.263 43.1552 108.157 43.1713 108.152 43.1713C108.046 43.1713 106.098 43.3221 106.131 43.2629C106.165 43.2036 106.404 43.0582 106.56 43.0044C106.97 42.8822 107.395 42.8081 107.823 42.7836L108.257 42.7298C108.257 42.7298 108.408 42.7298 108.419 42.6974C108.43 42.6651 108.33 42.6974 108.313 42.6974C108.296 42.6974 108.113 42.6974 108.024 42.6974C107.675 42.6732 107.326 42.6732 106.977 42.6974C106.844 42.6974 106.471 42.7351 106.465 42.6974C106.432 42.5197 107.846 42.3689 108.135 42.3689C108.739 42.3284 109.346 42.332 109.95 42.3797Z" fill="#FFE3CB"/>
<path fill-rule="evenodd" clip-rule="evenodd" d="M122.435 40.3867C120.456 42.1707 117.86 47.6356 117.86 47.6356C117.86 47.6356 116.709 46.6306 115.558 45.8516C112.617 43.7168 110.574 41.9388 110.056 42.7772C109.377 43.8595 117.17 51.4116 119.149 50.3888C121.641 47.2669 124.789 44.6861 124.772 42.6048C124.778 41.6177 122.435 40.3867 122.435 40.3867Z" fill="#FFE3CB"/>
<path fill-rule="evenodd" clip-rule="evenodd" d="M141.838 42.5876C141.822 42.2934 141.792 42.0004 141.748 41.7098C141.709 41.5826 141.641 41.3917 141.636 41.3727C141.563 41.0928 141.518 41.1755 141.501 41.1755C141.197 41.1755 141.321 41.8116 141.096 42.524C141.048 42.674 140.988 42.8187 140.917 42.9566C140.815 43.0202 140.714 43.0902 140.624 43.1601C140.535 43.2301 140.063 46.2707 140.467 45.7682C141.006 45.092 141.755 44.6773 142.557 44.6105C142.981 44.5996 143.405 44.6401 143.821 44.7313C144.272 44.8748 144.732 44.9769 145.197 45.0367C145.197 44.9158 145.057 44.8331 144.973 44.7822C144.648 44.5601 144.304 44.3787 143.944 44.2415L143.579 44.1143L143.4 44.038H143.596C143.72 44.038 143.849 44.0952 143.973 44.1016C144.338 44.1016 145.388 44.4197 145.54 44.3878C145.585 44.3878 145.697 44.3878 145.68 44.2861C145.663 44.1843 144.922 43.8408 144.714 43.7835C144.287 43.6563 143.827 43.4909 143.709 43.4528C143.709 43.4528 143.596 43.4528 143.585 43.4082C143.574 43.3637 143.692 43.4082 143.697 43.4082C143.798 43.4082 145.776 43.4782 145.742 43.4082C145.663 43.2428 145.456 43.1792 145.293 43.122C144.871 43.0048 144.44 42.9387 144.006 42.9248L143.568 42.8866C143.568 42.8866 143.411 42.8866 143.4 42.8866C143.388 42.8866 143.495 42.8866 143.506 42.8866C143.518 42.8866 143.709 42.8866 143.798 42.8866C144.149 42.8356 144.501 42.8102 144.855 42.8103C144.995 42.8103 145.366 42.8103 145.377 42.7658C145.377 42.5558 143.961 42.4541 143.692 42.4668C143.072 42.4532 142.452 42.4936 141.838 42.5876Z" fill="#FFE3CB"/>
<path fill-rule="evenodd" clip-rule="evenodd" d="M129.906 40.3867C131.966 42.0393 134.332 47.8752 134.332 47.8752C134.332 47.8752 135.575 47.0603 136.634 46.2283C139.471 44.0363 141.238 41.9533 141.814 42.8255C142.539 43.8412 134.332 52.1559 133.014 50.1819C130.384 47.3128 127.178 45.3561 127.103 43.3477C127.028 42.4123 129.906 40.3867 129.906 40.3867Z" fill="#FFE3CB"/>
<path d="M125.382 41.1269C126.281 40.9357 126.972 40.1294 127.102 39.1195L126.48 36.6283C126.368 35.9054 125.607 35.5469 124.846 35.8158C124.085 36.0846 123.914 37.0524 124.026 37.7753L124.241 40.4577C124.353 41.2105 124.964 41.2105 125.382 41.1269Z" fill="url(#paint13_linear_35563_3142)"/>
<path d="M127.376 34.1817C127.376 32.9952 127.034 31.8799 126.133 31.4171C124.166 30.4086 121.752 31.785 121.104 32.9003C120.756 33.4936 120.815 34.8403 121.375 36.1395C121.762 37.0643 122.368 37.8792 123.141 38.5126C124.443 39.4025 125.927 38.2278 126.51 37.5693C126.84 37.1072 127.067 36.5791 127.176 36.0209C127.515 35.9425 127.775 35.6666 127.835 35.3208C127.97 34.8794 127.778 34.4035 127.376 34.1817Z" fill="url(#paint14_linear_35563_3142)"/>
<path fill-rule="evenodd" clip-rule="evenodd" d="M127.329 36.504C127.483 35.8652 127.584 35.2128 127.632 34.5543C127.592 34.3453 127.463 34.1698 127.284 34.0823C127.098 34.0297 126.9 34.047 126.723 34.1313C126.163 33.0584 125.703 32.6538 125.192 32.4637C124.536 32.1983 123.819 32.1682 123.145 32.3779C122.436 32.7714 121.815 33.3326 121.328 34.021C121.003 33.5957 120.848 33.0459 120.896 32.4944C120.907 31.7545 121.248 31.0672 121.811 30.6551C122.568 30.0703 123.447 29.7015 124.368 29.5822C125.372 29.3706 126.609 29.647 127.329 30.441C128.371 31.4872 128.651 32.8845 128.655 34.3431C128.655 35.4344 127.997 36.3016 127.329 36.504Z" fill="#3D4757"/>
<path fill-rule="evenodd" clip-rule="evenodd" d="M120.921 56.6973L131.254 57.3081C131.831 59.5941 131.916 62.7566 131.51 66.7956C131.104 70.8346 130.618 76.778 130.052 84.6259V88.5747C129.804 89.0707 129.37 89.3186 128.751 89.3186C128.133 89.3186 127.556 89.0707 127.023 88.5747C127.261 87.0764 127.261 85.7601 127.023 84.6259C126.665 82.9246 126.208 77.4755 126.208 76.7231C126.208 76.2215 126.208 72.9124 126.208 66.7956L125.821 65.6699L124.991 66.7956C124.492 72.2239 124.243 75.5331 124.243 76.7231C124.243 78.5081 125.045 80.4169 125.433 82.0011C125.692 83.0572 125.919 84.5782 126.115 86.5641L123.694 87.0686C121.306 80.801 120.111 77.5099 120.111 77.1952C120.111 76.7231 120.111 68.9115 120.111 67.2907C120.111 66.2102 120.256 63.3149 120.547 58.6048L120.921 56.6973Z" fill="url(#paint15_linear_35563_3142)"/>
<path d="M134.091 46.1736C134.137 46.1736 131.501 40.5077 129.047 39.6679L128.934 39.591C128.236 39.2598 127.507 39.006 126.759 38.834C126.759 38.834 125.727 41.4432 123.905 40.7394C123.251 40.4023 123.632 39.0952 123.632 39.0952L123.575 39.1307C122.313 39.1426 120.939 39.9606 120.132 40.969C119.035 42.4 118.235 44.0511 117.781 45.8187C118.53 46.8886 119.379 47.8791 120.315 48.7759C120.195 51.2007 119.984 57.5542 119.888 58.6247C123.554 60.1328 127.375 59.9287 131.11 59.4674C131.208 59.464 131.302 59.4311 131.383 59.3728C131.531 59.2427 131.508 58.9824 131.474 58.7814C131.005 55.8699 130.795 51.7273 130.744 48.7759C131.108 49.5092 131.383 49.6271 131.383 49.6271C131.383 49.6271 133.34 47.5457 134.091 46.1736Z" fill="#0F50A4"/>
<path fill-rule="evenodd" clip-rule="evenodd" d="M123.437 87.5276L125.723 86.9902L126.823 87.5276L127.102 88.7839L126.952 89.5052L123.137 92.4271H120.351L120.111 91.3572L122.392 89.7087L123.437 88.1548V87.5276Z" fill="#3D4757"/>
<path fill-rule="evenodd" clip-rule="evenodd" d="M127.1 88.543L129.707 88.7224L130.209 89.5922V91.7632L126.835 93.8759C125.625 94.0145 124.859 94.0145 124.539 93.8759C124.058 93.6679 123.892 92.8068 124.058 92.4311C124.168 92.1805 124.657 91.6644 125.523 90.8826L127.1 89.3845V88.543Z" fill="#3D4757"/>
</svg>
