<svg width="16" height="16" viewBox="0 0 16 16" fill="none" xmlns="http://www.w3.org/2000/svg">
<path d="M14.5019 1.49565C12.5077 -0.498548 9.26279 -0.498548 7.26854 1.49565L1.06817 7.69592C-0.356146 9.12042 -0.356052 11.4382 1.06842 12.8627C1.7807 13.5749 2.71602 13.9311 3.65171 13.931C4.58715 13.9309 5.5229 13.5748 6.23509 12.8627L11.9185 7.17913C12.7733 6.32457 12.7734 4.93388 11.9186 4.079C11.0639 3.22434 9.67314 3.22437 8.81857 4.07915L5.10184 7.79576C4.8165 8.08107 4.8165 8.54373 5.10178 8.82911C5.38719 9.11445 5.84975 9.11445 6.13516 8.82911L9.85195 5.11241C10.1368 4.8275 10.6004 4.8275 10.8853 5.11231C11.1702 5.39728 11.1702 5.86078 10.8852 6.14569L5.20181 11.8293C4.34706 12.6839 2.95643 12.6841 2.10174 11.8294C1.24708 10.9746 1.24698 9.58395 2.10155 8.72923L8.30188 2.52899C9.72636 1.10464 12.0441 1.10458 13.4686 2.52906C14.1587 3.21906 14.5387 4.13653 14.5387 5.11238C14.5387 6.08825 14.1587 7.00569 13.4685 7.69576L7.26838 13.8961C6.98303 14.1815 6.98303 14.6441 7.26844 14.9295C7.41113 15.0722 7.59813 15.1435 7.7851 15.1435C7.97207 15.1435 8.1591 15.0721 8.30179 14.9295L14.5018 8.72917C15.468 7.76313 16 6.47869 16 5.11244C16.0001 3.74612 15.468 2.46168 14.5019 1.49565Z" fill="#6D7174"/>
</svg>
