<svg width="13" height="25" viewBox="0 0 13 25" fill="none" xmlns="http://www.w3.org/2000/svg">
<path d="M10.25 8.75V22.5C10.25 23.163 9.98661 23.7989 9.51777 24.2678C9.04893 24.7366 8.41304 25 7.75 25H5.25C4.58696 25 3.95107 24.7366 3.48223 24.2678C3.01339 23.7989 2.75 23.163 2.75 22.5V8.75L0.25 6.25V3.75H12.75V6.25L10.25 8.75ZM5.25 10V11.25C5.25 11.5815 5.3817 11.8995 5.61612 12.1339C5.85054 12.3683 6.16848 12.5 6.5 12.5C6.83152 12.5 7.14946 12.3683 7.38388 12.1339C7.6183 11.8995 7.75 11.5815 7.75 11.25V10C7.75 9.66848 7.6183 9.35054 7.38388 9.11612C7.14946 8.8817 6.83152 8.75 6.5 8.75C6.16848 8.75 5.85054 8.8817 5.61612 9.11612C5.3817 9.35054 5.25 9.66848 5.25 10ZM0.25 0H12.75V2.5H0.25V0Z" fill="white"/>
</svg>
