<svg width="20" height="20" viewBox="0 0 20 20" fill="none" xmlns="http://www.w3.org/2000/svg">
<path d="M13.9327 3.2837C14.2121 3.55385 13.9793 3.97304 13.588 3.97304L5.87478 3.96373C5.42764 3.96373 5.20406 3.42343 5.52079 3.1067L7.38461 1.04802C8.78193 -0.34936 10.645 -0.349344 12.0423 1.04805L13.8954 3.24643C13.9047 3.25575 13.9234 3.27438 13.9327 3.2837Z" fill="#0685CF"/>
<path fill-rule="evenodd" clip-rule="evenodd" d="M16.2053 19.0276C18.0248 18.7731 18.7434 17.4127 18.9072 15.9713C18.9345 15.8829 18.9363 15.7928 18.9145 15.7099L18.9035 15.6749C18.8417 15.4949 18.6761 15.3564 18.4596 15.3564H16.42C14.8644 15.3564 13.4489 14.3038 13.1414 12.776C13.0923 12.5427 13.0686 12.3125 13.0686 12.0876C13.0686 11.8664 13.0941 11.6452 13.1414 11.416C13.4489 9.88822 14.8644 8.83557 16.42 8.83557H18.4596L18.4887 8.83466C18.587 8.82863 18.6743 8.79406 18.7434 8.74062L18.7653 8.72208C18.8999 8.60496 18.9654 8.41289 18.9072 8.22072C18.9035 6.74433 17.9756 5.37024 16.0943 5.156C16.0252 5.1444 15.9524 5.13542 15.8815 5.12871L15.6813 5.11506C15.5867 5.11085 15.4921 5.10938 15.3957 5.10938H4.2171C3.95692 5.10938 3.70402 5.12802 3.47113 5.16532C1.52168 5.47754 0.5 6.77918 0.5 8.83557V15.3564C0.5 17.4646 1.32966 18.6168 3.47113 19.0267C3.57484 19.0433 3.68218 19.0562 3.79317 19.0654C3.93145 19.0769 4.07336 19.0826 4.2171 19.0826H15.3957C15.5613 19.0826 15.725 19.076 15.8833 19.063C15.9925 19.0542 16.0998 19.0424 16.2053 19.0276ZM4.89211 10.2329H9.87735C10.2976 10.2329 10.6451 9.9162 10.6451 9.53423C10.6451 9.15226 10.2976 8.83557 9.87735 8.83557H4.89211C4.64648 8.83557 4.42451 8.94405 4.28442 9.11065C4.18435 9.22868 4.12431 9.37583 4.12431 9.53423C4.12431 9.9162 4.47182 10.2329 4.89211 10.2329Z" fill="#0F50A4"/>
<path d="M16.2352 10.2329H18.564C18.8249 10.2329 19.0298 10.4379 19.0298 10.6987V13.4934C19.0298 13.7542 18.8249 13.9591 18.564 13.9591H16.2352C15.2104 13.9591 14.3721 13.1207 14.3721 12.096C14.3721 11.0713 15.2104 10.2329 16.2352 10.2329Z" fill="#0F50A4"/>
</svg>
