<svg width="24" height="24" viewBox="0 0 24 24" fill="none" xmlns="http://www.w3.org/2000/svg">
<path d="M12 8V12L14 14" stroke="white" stroke-width="1.5" stroke-linecap="round" stroke-linejoin="round"/>
<path d="M5.93351 5.26803C6.66853 4.59643 7.50328 4.05724 8.40078 3.66507M11.9017 2.9127C13.1869 2.89802 14.4492 3.15867 15.6081 3.66507C16.4431 4.02989 17.2244 4.52226 17.922 5.1311C18.6122 5.73334 19.2004 6.43209 19.6723 7.2C20.3397 8.28604 20.7743 9.51041 20.935 10.7958C21.2092 12.99 20.6661 15.2085 19.4091 17.0278C18.1522 18.8472 16.2694 20.1401 14.1201 20.6599C11.9707 21.1797 9.70519 20.8901 7.75578 19.8461C5.80636 18.8022 4.9595 17.0771 4.20078 15M3.05078 20.0001V15.0001H8.05078" stroke="white" stroke-width="1.5" stroke-linecap="round" stroke-linejoin="round"/>
</svg>
