<svg width="24" height="24" viewBox="0 0 24 24" fill="none" xmlns="http://www.w3.org/2000/svg">
<path d="M4.83699 5.20502L4.8372 5.20467C5.11068 4.76636 5.59117 4.5 6.109 4.5H21C21.8289 4.5 22.5 5.17114 22.5 6V18C22.5 18.8289 21.8289 19.5 21 19.5H6.109C5.59128 19.5 5.11047 19.2337 4.83588 18.7948L0.589624 12L4.83699 5.20502ZM18.0606 17.0606C18.6468 16.4743 18.6468 15.5257 18.0606 14.9394L15.1211 12L18.0606 9.06055C18.6468 8.47429 18.6468 7.52571 18.0606 6.93945C17.4743 6.35318 16.5257 6.35318 15.9394 6.93945L16.293 7.293L15.9394 6.93945L13 9.87889L10.0606 6.93945C9.47429 6.35318 8.52571 6.35318 7.93945 6.93945C7.35319 7.52571 7.35318 8.47429 7.93945 9.06055L10.8789 12L7.93945 14.9394C7.35318 15.5257 7.35318 16.4743 7.93945 17.0606C8.23176 17.3529 8.6165 17.5 9 17.5C9.3835 17.5 9.76824 17.3529 10.0606 17.0606L13 14.1211L15.9394 17.0606C16.2318 17.3529 16.6165 17.5 17 17.5C17.3835 17.5 17.7682 17.3529 18.0606 17.0606Z" fill="white" stroke="white"/>
</svg>
