<svg width="22" height="22" viewBox="0 0 22 22" fill="none" xmlns="http://www.w3.org/2000/svg">
<path d="M11 0C4.9346 0 0 4.93467 0 11.0001C0 17.0655 4.9346 22 11 22C17.0654 22 22 17.0655 22 11.0001C22 4.93467 17.0654 0 11 0ZM11 20C6.03733 20 2 15.9627 2 11.0001C2 6.03747 6.03733 2 11 2C15.9627 2 20 6.03747 20 11.0001C20 15.9627 15.9626 20 11 20Z" fill="white"/>
<path d="M11.0001 4.66479C10.265 4.66479 9.66699 5.26319 9.66699 5.99873C9.66699 6.73359 10.265 7.33146 11.0001 7.33146C11.7351 7.33146 12.3331 6.73359 12.3331 5.99873C12.3331 5.26319 11.7351 4.66479 11.0001 4.66479Z" fill="white"/>
<path d="M11 9.3335C10.4477 9.3335 10 9.78123 10 10.3335V16.3335C10 16.8858 10.4477 17.3335 11 17.3335C11.5523 17.3335 12 16.8858 12 16.3335V10.3335C12 9.78123 11.5523 9.3335 11 9.3335Z" fill="white"/>
</svg>
