<svg width="18" height="18" viewBox="0 0 18 18" fill="none" xmlns="http://www.w3.org/2000/svg">
<path fill-rule="evenodd" clip-rule="evenodd" d="M7.83387 1.36463C7.23057 1.36463 6.71731 1.78379 6.57324 2.34874H11.4177C11.2736 1.78379 10.7603 1.36463 10.157 1.36463H7.83387ZM12.7864 2.35081H14.5693C16.4602 2.35081 18 3.9089 18 5.82235C18 5.82235 17.946 6.63237 17.928 7.76039C17.9262 7.84969 17.8829 7.93716 17.8118 7.99001C17.3787 8.30983 16.9825 8.57406 16.9465 8.59229C15.4517 9.59457 13.7148 10.2998 11.8643 10.6506C11.7437 10.6743 11.6248 10.6114 11.5636 10.5039C11.0449 9.6055 10.076 9.02054 8.9955 9.02054C7.92216 9.02054 6.94427 9.59913 6.41031 10.4984C6.34817 10.6041 6.23112 10.6652 6.11136 10.6424C4.27624 10.2907 2.53927 9.58637 1.05353 8.6014L0.189095 8.00003C0.117059 7.95447 0.072036 7.87247 0.072036 7.78135C0.0450225 7.31666 0 5.82235 0 5.82235C0 3.9089 1.53977 2.35081 3.43072 2.35081H5.2046C5.37569 1.02962 6.48324 0 7.83392 0H10.1571C11.5078 0 12.6153 1.02962 12.7864 2.35081ZM17.6946 9.73481L17.6586 9.75303C15.8397 10.974 13.6516 11.7849 11.3554 12.1221C11.0313 12.1676 10.7071 11.9581 10.6171 11.63C10.419 10.8829 9.77966 10.3908 9.01428 10.3908H9.00527H8.98726C8.22188 10.3908 7.58256 10.8829 7.38446 11.63C7.29442 11.9581 6.97026 12.1676 6.6461 12.1221C4.34995 11.7849 2.16185 10.974 0.342946 9.75303C0.333942 9.74392 0.243897 9.68925 0.171861 9.73481C0.0908203 9.78037 0.0908203 9.88971 0.0908203 9.88971L0.153852 14.5366C0.153852 16.4501 1.68462 17.9991 3.57556 17.9991H14.417C16.3079 17.9991 17.8387 16.4501 17.8387 14.5366L17.9107 9.88971C17.9107 9.88971 17.9107 9.78037 17.8297 9.73481C17.7847 9.70748 17.7306 9.71659 17.6946 9.73481ZM9.67099 13.5524C9.67099 13.9351 9.37384 14.2358 8.99565 14.2358C8.62647 14.2358 8.32031 13.9351 8.32031 13.5524V12.377C8.32031 12.0034 8.62647 11.6936 8.99565 11.6936C9.37384 11.6936 9.67099 12.0034 9.67099 12.377V13.5524Z" fill="#0F50A4"/>
</svg>
