<svg id="Layer_1" data-name="Layer 1" xmlns="http://www.w3.org/2000/svg" xmlns:xlink="http://www.w3.org/1999/xlink" viewBox="0 0 24 24"><defs><linearGradient id="linear-gradient" x1="16.38" y1="22.87" x2="6.63" y2="3.74" gradientTransform="matrix(1, 0, 0, -1, 0, 26)" gradientUnits="userSpaceOnUse"><stop offset="0" stop-color="#ff547e"/><stop offset="0.44" stop-color="#a836f4"/><stop offset="1" stop-color="#00b2ff"/></linearGradient></defs><title>Messenger</title><path d="M12,3a8.73,8.73,0,1,1,0,17.46,9.6,9.6,0,0,1-2.61-.35.73.73,0,0,0-.48,0l-1.78.79a.7.7,0,0,1-.35.06.81.81,0,0,1-.33-.11.72.72,0,0,1-.24-.25.69.69,0,0,1-.09-.34l0-1.6A.89.89,0,0,0,6,18.42a.66.66,0,0,0-.17-.23A8.55,8.55,0,0,1,3,11.73,8.68,8.68,0,0,1,12,3ZM6.6,14.28a.43.43,0,0,0,.62.57l2.84-2.15a.52.52,0,0,1,.32-.11.57.57,0,0,1,.33.11l2.1,1.57a1.54,1.54,0,0,0,.5.24,1.45,1.45,0,0,0,.55,0,1.39,1.39,0,0,0,.52-.21,1.45,1.45,0,0,0,.38-.4L17.4,9.72a.43.43,0,0,0-.62-.57L13.94,11.3a.46.46,0,0,1-.32.11.51.51,0,0,1-.33-.11l-2.1-1.57a1.54,1.54,0,0,0-.5-.24,1.45,1.45,0,0,0-.55,0,1.58,1.58,0,0,0-.52.21,1.45,1.45,0,0,0-.38.4L6.6,14.28Z" fill="url(#linear-gradient)"/></svg>