<svg width="18" height="14" viewBox="0 0 18 14" fill="none" xmlns="http://www.w3.org/2000/svg">
<path fill-rule="evenodd" clip-rule="evenodd" d="M15.9549 8.01174C15.2743 8.45775 14.3697 7.96714 14.3697 7.15406C14.3697 6.9792 14.4107 6.80682 14.4882 6.65425C14.5657 6.50169 14.6808 6.36895 14.8273 6.27161C15.3929 5.89852 15.767 5.25677 15.767 4.52794C15.767 3.37575 14.8319 2.44056 13.6799 2.44056C13.653 2.44056 13.6271 2.44056 13.6002 2.44162L13.7315 2.208L13.7924 2.10004C13.8745 1.93933 13.9191 1.75739 13.9191 1.56483C13.9191 1.01936 13.5542 0.558132 13.0545 0.41371C13.2304 0.386808 13.4098 0.371588 13.5917 0.368047C15.8349 0.322385 17.7391 2.1011 17.8364 4.34246C17.9033 5.87728 17.1388 7.23725 15.9549 8.01174ZM2.23062 6.66558L0.156251 3.07134V12.4106C0.156251 12.6969 0.272694 12.9564 0.460275 13.144C0.647857 13.332 0.906225 13.4481 1.19362 13.4481C1.76592 13.4481 2.23062 12.9836 2.23062 12.4109V6.66558ZM13.7503 12.4106V3.08444L11.6759 6.67868V12.4109C11.6759 12.9833 12.1403 13.4481 12.7129 13.4481C12.9993 13.4481 13.2587 13.3316 13.4463 13.144C13.6342 12.956 13.7503 12.6969 13.7503 12.4106ZM2.0926 1.03953C1.90749 0.718481 1.56525 0.520965 1.19468 0.520965C0.396574 0.520965 -0.102466 1.38537 0.296765 2.07668L6.05447 12.0509C6.0576 12.0561 6.06114 12.061 6.06473 12.0661C6.06926 12.0724 6.07389 12.0789 6.07783 12.086C6.09447 12.1104 6.11075 12.1341 6.12844 12.1575C6.14366 12.1773 6.15924 12.1961 6.17552 12.2148C6.20348 12.2467 6.23285 12.2782 6.26577 12.3076C6.27579 12.3169 6.28675 12.3259 6.29782 12.335L6.3185 12.3522C6.35602 12.3801 6.39601 12.406 6.43707 12.4307C6.47812 12.4541 6.51918 12.4739 6.5613 12.4916C6.60342 12.5079 6.64695 12.5231 6.68907 12.5348C6.86497 12.5819 7.04795 12.5805 7.21819 12.5348C7.26031 12.5231 7.30278 12.509 7.3449 12.4927L7.34738 12.4916C7.38737 12.4753 7.42736 12.4566 7.46594 12.4343L7.46891 12.4337L7.47196 12.4307C7.49151 12.4198 7.51046 12.4076 7.52906 12.3956L7.53283 12.3932C7.57176 12.3663 7.60822 12.338 7.64326 12.3076C7.6737 12.2796 7.70307 12.2492 7.72997 12.2173C7.75121 12.1936 7.76996 12.1702 7.78872 12.1444C7.80182 12.1267 7.8135 12.1104 7.82518 12.0916C7.82942 12.0848 7.83404 12.0787 7.83865 12.0725L7.84451 12.0647L7.85101 12.0552L8.15256 11.5338L2.0926 1.03953ZM13.6108 2.07597C13.7036 1.91633 13.7492 1.73686 13.7492 1.5574C13.7492 1.37899 13.7036 1.19953 13.6108 1.03883C13.3518 0.590696 12.8414 0.433179 12.4061 0.56592C12.3962 0.569458 12.3862 0.572646 12.3762 0.57583L12.3547 0.582819L12.3463 0.585741C12.1339 0.665739 11.9438 0.816885 11.8161 1.03883L7.31304 8.83969L8.50967 10.9164L13.6108 2.07597Z" fill="white"/>
</svg>
