<svg width="10" height="10" viewBox="0 0 10 10" fill="none" xmlns="http://www.w3.org/2000/svg">
<path fill-rule="evenodd" clip-rule="evenodd" d="M5.00084 0C7.77349 0 10.0007 2.22721 10.0007 4.99986C10.0007 7.77252 7.77349 9.99973 5.00084 9.99973C2.22819 9.99973 0.000976562 7.77252 0.000976562 4.99986C0.000976562 2.22721 2.22819 0 5.00084 0ZM3.26521 3.71452C3.26521 3.4574 3.45806 3.26456 3.71518 3.26456L6.28641 3.26456C6.35069 3.26456 6.41497 3.26456 6.44711 3.2967C6.51139 3.2967 6.57567 3.36098 6.60781 3.39312C6.63995 3.42526 6.70423 3.48954 6.70423 3.55382C6.73637 3.58596 6.73637 3.65024 6.73637 3.71452V6.28575C6.73637 6.54287 6.54353 6.73571 6.28641 6.73571C6.02928 6.73571 5.83644 6.54287 5.83644 6.28575V4.80729L4.03658 6.60715C3.84374 6.79999 3.58662 6.79999 3.39377 6.60715C3.20093 6.41431 3.20093 6.15719 3.39377 5.96434L5.19363 4.16449H3.71518C3.45806 4.16449 3.26521 3.97164 3.26521 3.71452Z" fill="#DA1414"/>
</svg>
