<svg width="10" height="10" viewBox="0 0 10 10" fill="none" xmlns="http://www.w3.org/2000/svg">
<path fill-rule="evenodd" clip-rule="evenodd" d="M10 5.00013C10 2.22748 7.77279 0.000271797 5.00014 0.000271797C2.22748 0.000272751 0.000271797 2.22748 0.000271797 5.00014C0.000271797 7.77279 2.22748 10 5.00014 10C7.77279 10 10 7.77279 10 5.00013ZM3.71425 3.26505C3.45713 3.26505 3.26429 3.45789 3.26429 3.71502V6.28624C3.26429 6.35053 3.26429 6.41481 3.29643 6.44695C3.29643 6.51123 3.36071 6.57551 3.39285 6.60765C3.42499 6.63979 3.48927 6.70407 3.55355 6.70407C3.58569 6.73621 3.64997 6.73621 3.71425 6.73621L6.28548 6.73621C6.5426 6.73621 6.73544 6.54337 6.73544 6.28624C6.73544 6.02912 6.5426 5.83628 6.28548 5.83628L4.80702 5.83628L6.60688 4.03642C6.79972 3.84358 6.79972 3.58645 6.60688 3.39361C6.41404 3.20077 6.15692 3.20077 5.96407 3.39361L4.16422 5.19347V3.71502C4.16422 3.45789 3.97137 3.26505 3.71425 3.26505Z" fill="#4FA30F"/>
</svg>
