<svg width="18" height="18" viewBox="0 0 18 18" fill="none" xmlns="http://www.w3.org/2000/svg">
<g id="Iconly/Light/Delete">
<g id="Delete">
<path id="Stroke 1" d="M14.4938 7.10156C14.4938 7.10156 14.0866 12.1528 13.8503 14.2806C13.7378 15.2968 13.1101 15.8923 12.0818 15.9111C10.1251 15.9463 8.16609 15.9486 6.21009 15.9073C5.22084 15.8871 4.60359 15.2841 4.49334 14.2858C4.25559 12.1393 3.85059 7.10156 3.85059 7.10156" stroke="#ED1E26" stroke-width="1.5" stroke-linecap="round" stroke-linejoin="round"/>
<path id="Stroke 3" d="M15.531 4.68066H2.8125" stroke="#ED1E26" stroke-width="1.5" stroke-linecap="round" stroke-linejoin="round"/>
<path id="Stroke 5" d="M13.0799 4.68023C12.4912 4.68023 11.9842 4.26398 11.8687 3.68723L11.6864 2.77523C11.5739 2.35448 11.1929 2.06348 10.7587 2.06348H7.58395C7.1497 2.06348 6.7687 2.35448 6.6562 2.77523L6.47395 3.68723C6.35845 4.26398 5.85145 4.68023 5.2627 4.68023" stroke="#ED1E26" stroke-width="1.5" stroke-linecap="round" stroke-linejoin="round"/>
</g>
<path id="Union" fill-rule="evenodd" clip-rule="evenodd" d="M8.5 8.75C8.5 8.33579 8.16421 8 7.75 8C7.33579 8 7 8.33579 7 8.75V13.25C7 13.6642 7.33579 14 7.75 14C8.16421 14 8.5 13.6642 8.5 13.25L8.5 8.75ZM11.5 8.75C11.5 8.33579 11.1642 8 10.75 8C10.3358 8 10 8.33579 10 8.75L10 13.25C10 13.6642 10.3358 14 10.75 14C11.1642 14 11.5 13.6642 11.5 13.25V8.75Z" fill="#ED1E26"/>
</g>
</svg>
