<svg width="16" height="18" viewBox="0 0 16 18" fill="none" xmlns="http://www.w3.org/2000/svg">
<path d="M11.5083 0.5H4.39744C1.30873 0.5 0 2.3445 0 5.4385V12.553C0 15.6555 1.30873 17.5 4.39744 17.5H11.4998C14.5885 17.5 16 15.6555 16 12.5615V5.4385C16.0084 2.3445 14.597 0.5 11.5083 0.5ZM11.0969 13.4625H4.79999C4.45208 13.4625 4.16358 13.1735 4.16358 12.825C4.16358 12.4765 4.45208 12.1875 4.79999 12.1875H11.0969C11.4448 12.1875 11.7333 12.4765 11.7333 12.825C11.7333 13.1735 11.4448 13.4625 11.0969 13.4625ZM11.0969 9.6375H4.79999C4.45208 9.6375 4.16358 9.3485 4.16358 9C4.16358 8.6515 4.45208 8.3625 4.79999 8.3625H11.0969C11.4448 8.3625 11.7333 8.6515 11.7333 9C11.7333 9.3485 11.4448 9.6375 11.0969 9.6375ZM11.0969 5.8125H4.79999C4.45208 5.8125 4.16358 5.5235 4.16358 5.175C4.16358 4.8265 4.45208 4.5375 4.79999 4.5375H11.0969C11.4448 4.5375 11.7333 4.8265 11.7333 5.175C11.7333 5.5235 11.4448 5.8125 11.0969 5.8125Z" fill="#0F50A4"/>
</svg>
