<svg width="18" height="18" viewBox="0 0 18 18" fill="none" xmlns="http://www.w3.org/2000/svg">
<path fill-rule="evenodd" clip-rule="evenodd" d="M17.9981 5.51319V5.89753C17.8977 6.30542 17.6658 6.60472 17.2999 6.81899C14.831 8.267 12.3646 9.71916 9.90084 11.1755C9.29289 11.5344 8.70031 11.5315 8.09237 11.1755C6.17154 10.0417 4.24942 8.91109 2.32602 7.78369C1.76082 7.45123 1.19561 7.11878 0.63473 6.77912C0.126669 6.47212 -0.0937467 5.97392 0.03687 5.43632C0.126189 5.0664 0.366773 4.81609 0.688993 4.62633C3.15214 3.1796 5.61321 1.73016 8.0722 0.277987C8.69647 -0.0914604 9.30009 -0.0938625 9.92725 0.277987C12.319 1.69428 14.7149 3.10434 17.115 4.50814C17.5299 4.74979 17.8718 5.0294 17.9981 5.51319ZM7.66477 17.4689L7.66476 17.4688L7.66468 17.4688C7.58206 17.4183 7.49947 17.3679 7.41619 17.3189C5.17521 16.0026 2.93584 14.684 0.698069 13.3631C0.347517 13.157 0.0997292 12.8827 0.0214552 12.4714C-0.0187318 12.2332 0.0133096 11.9885 0.113449 11.7687C0.213589 11.5488 0.377237 11.3641 0.583299 11.2382C0.756174 11.1383 0.914643 11.168 1.07887 11.266C1.86322 11.733 2.64884 12.1974 3.43574 12.6593C4.85908 13.4952 6.28369 14.3294 7.70959 15.1618C8.56724 15.6605 9.43834 15.6605 10.2936 15.1618C12.4609 13.8938 14.6257 12.6215 16.7879 11.3448C17.2124 11.095 17.4122 11.1171 17.7157 11.5101C17.8049 11.6261 17.8631 11.766 17.9215 11.9063L17.9216 11.9063L17.9216 11.9063C17.9468 11.967 17.9721 12.0277 18 12.0866V12.4738C17.8737 12.9567 17.5323 13.2353 17.1178 13.4774C15.5343 14.4021 13.9554 15.3338 12.3763 16.2657C11.7 16.6648 11.0237 17.064 10.3469 17.4626C10.2991 17.4907 10.2515 17.5192 10.2039 17.5477C9.89153 17.7347 9.57854 17.9221 9.21313 17.9963L8.75309 17.9944C8.35453 17.8902 8.0094 17.6794 7.66477 17.4689ZM17.1539 10.1975C17.5669 9.95632 17.8929 9.66854 17.9991 9.18331V8.79657C17.9088 8.54963 17.8104 8.31037 17.6067 8.12733C17.3263 7.87559 17.1827 7.85637 16.8557 8.04854C14.682 9.32744 12.5089 10.6054 10.3364 11.8823C9.44992 12.4054 8.56266 12.4068 7.67459 11.8867C6.12928 10.9815 4.58493 10.0755 3.04154 9.16842C2.3907 8.78696 1.74114 8.40262 1.09285 8.01539C0.931504 7.91931 0.773995 7.87655 0.597759 7.97504C0.184779 8.20564 -0.0644487 8.73699 0.0215086 9.20156C0.0988222 9.61906 0.34757 9.89914 0.704365 10.1086C3.17104 11.5573 5.63611 13.0094 8.09958 14.4651C8.70656 14.8245 9.30058 14.8202 9.90708 14.4618C12.318 13.0333 14.7337 11.6119 17.1539 10.1975Z" fill="#0F50A4"/>
</svg>
