<svg width="24" height="24" viewBox="0 0 24 24" fill="none" xmlns="http://www.w3.org/2000/svg">
<path fill-rule="evenodd" clip-rule="evenodd" d="M12.0303 7.45546C12.2303 6.90609 12.4304 6.35715 12.6308 5.80863L14.2246 1.42851C14.3539 1.07756 14.4592 1.00065 14.8309 1H19.4029C19.9239 1 20.1139 1.27792 19.9336 1.77559C18.9266 4.54443 17.9173 7.31219 16.9056 10.0789C16.837 10.2657 16.8635 10.3717 17.0019 10.5145C18.9764 12.5653 19.6421 14.9916 18.7967 17.7035C17.9513 20.4155 16.0453 22.0875 13.2448 22.6033C12.3103 22.7769 11.3504 22.7602 10.4225 22.5544C9.49457 22.3486 8.61767 21.9578 7.84421 21.4054C7.07075 20.853 6.4166 20.1503 5.92085 19.3394C5.42511 18.5284 5.09796 17.6258 4.95894 16.6856C4.59506 14.3116 5.30279 12.2402 6.99486 10.5242C7.14222 10.3743 7.16549 10.2618 7.09439 10.0685C6.08527 7.3178 5.08131 4.56511 4.08253 1.81049C4.07719 1.79589 4.07165 1.78138 4.06612 1.7669C4.05157 1.7288 4.03707 1.69083 4.0263 1.65149C3.92612 1.29343 4.11873 1.00517 4.49165 1.00517C6.08807 0.998061 7.68448 1.00129 9.2809 1.00517C9.55817 1.00517 9.69131 1.17709 9.77856 1.41946C10.3085 2.88877 10.8413 4.35656 11.3769 5.82285C11.5751 6.36706 11.7738 6.91104 11.9728 7.45482L12.0303 7.45546ZM12.0026 21.7773C15.3957 21.7773 18.1872 18.9981 18.1879 15.6088C18.1879 13.9642 17.5349 12.3869 16.3726 11.2235C15.2103 10.0601 13.6336 9.40566 11.989 9.40412C8.60097 9.40412 5.81726 12.1924 5.81661 15.5862C5.81849 17.2272 6.47075 18.8005 7.6305 19.9614C8.79024 21.1224 10.3629 21.7763 12.0038 21.7799L12.0026 21.7773Z" fill="#0F50A4"/>
<path fill-rule="evenodd" clip-rule="evenodd" d="M11.9994 21.279C15.0819 21.279 17.5808 18.7801 17.5808 15.6976C17.5808 12.6151 15.0819 10.1162 11.9994 10.1162C8.91684 10.1162 6.41797 12.6151 6.41797 15.6976C6.41797 18.7801 8.91684 21.279 11.9994 21.279ZM10.9155 14.4219V16.9854H10.2911V15.448L9.71773 16.9854H9.21378L8.6368 15.4444V16.9854H8.01235V14.4219H8.75001L9.4694 16.1966L10.1815 14.4219H10.9155ZM13.7711 14.4219L12.8618 16.9854H12.0803L11.171 14.4219H11.8356L12.4711 16.3573L13.1101 14.4219H13.7711ZM15.8835 15.6562C15.9517 15.532 15.9858 15.3957 15.9858 15.2472C15.9858 15.0865 15.9505 14.9441 15.8799 14.8199C15.8093 14.6958 15.7034 14.5984 15.5622 14.5278C15.421 14.4572 15.2481 14.4219 15.0436 14.4219H14.0321V16.9854H14.6565V16.0652H15.0436C15.253 16.0652 15.4283 16.0274 15.5695 15.952C15.7107 15.8765 15.8154 15.7779 15.8835 15.6562ZM15.2627 15.4845C15.2043 15.5405 15.1154 15.5685 14.9961 15.5685H14.6565V14.9258H14.9961C15.1154 14.9258 15.2043 14.9538 15.2627 15.0098C15.3211 15.0658 15.3504 15.1449 15.3504 15.2472C15.3504 15.3494 15.3211 15.4285 15.2627 15.4845Z" fill="#0F50A4"/>
</svg>
