<svg width="30" height="30" viewBox="0 0 30 30" fill="none" xmlns="http://www.w3.org/2000/svg">
<rect width="30" height="30" rx="15" fill="#06A200" fill-opacity="0.2"/>
<path fill-rule="evenodd" clip-rule="evenodd" d="M11.731 8H18.2683C20.649 8 21.993 9.3503 22 11.731V18.269C22 20.649 20.649 22 18.2683 22H11.731C9.3503 22 8 20.649 8 18.269V11.731C8 9.3503 9.3503 8 11.731 8ZM15.0336 19.1018C15.3353 19.1018 15.5866 18.8778 15.6146 18.5768V11.4438C15.6426 11.2268 15.5383 11.0091 15.3493 10.8908C15.1526 10.7718 14.9146 10.7718 14.7263 10.8908C14.5366 11.0091 14.4323 11.2268 14.4526 11.4438V18.5768C14.4883 18.8778 14.7396 19.1018 15.0336 19.1018ZM18.2546 19.1024C18.5486 19.1024 18.7999 18.8784 18.8356 18.5774V16.2814C18.8559 16.0567 18.7516 15.8474 18.5619 15.7284C18.3736 15.6094 18.1356 15.6094 17.9396 15.7284C17.7499 15.8474 17.6456 16.0567 17.6736 16.2814V18.5774C17.7016 18.8784 17.9529 19.1024 18.2546 19.1024ZM12.3525 18.577C12.3245 18.878 12.0732 19.102 11.7715 19.102C11.4705 19.102 11.2185 18.878 11.1912 18.577V13.74C11.1702 13.5223 11.2745 13.306 11.4642 13.187C11.6525 13.068 11.8912 13.068 12.0802 13.187C12.2685 13.306 12.3742 13.5223 12.3525 13.74V18.577Z" fill="#06A200"/>
</svg>
