<svg width="18" height="18" viewBox="0 0 18 18" fill="none" xmlns="http://www.w3.org/2000/svg">
<path fill-rule="evenodd" clip-rule="evenodd" d="M4.797 0H13.2021C16.263 0 17.991 1.7361 18 4.797V13.203C18 16.263 16.263 18 13.2021 18H4.797C1.7361 18 0 16.263 0 13.203V4.797C0 1.7361 1.7361 0 4.797 0ZM9.04319 14.2738C9.43109 14.2738 9.75419 13.9858 9.79019 13.5988V4.4278C9.82619 4.1488 9.69209 3.8689 9.44909 3.7168C9.19619 3.5638 8.89019 3.5638 8.64809 3.7168C8.40419 3.8689 8.27009 4.1488 8.29619 4.4278V13.5988C8.34209 13.9858 8.66519 14.2738 9.04319 14.2738ZM13.1844 14.2745C13.5624 14.2745 13.8855 13.9865 13.9314 13.5995V10.6475C13.9575 10.3586 13.8234 10.0895 13.5795 9.93653C13.3374 9.78353 13.0314 9.78353 12.7794 9.93653C12.5355 10.0895 12.4014 10.3586 12.4374 10.6475V13.5995C12.4734 13.9865 12.7965 14.2745 13.1844 14.2745ZM5.59613 13.5989C5.56013 13.9859 5.23703 14.2739 4.84913 14.2739C4.46213 14.2739 4.13813 13.9859 4.10303 13.5989V7.37995C4.07603 7.10005 4.21013 6.82195 4.45403 6.66895C4.69613 6.51595 5.00303 6.51595 5.24603 6.66895C5.48813 6.82195 5.62403 7.10005 5.59613 7.37995V13.5989Z" fill="#0F50A4"/>
</svg>
