<svg width="30" height="30" viewBox="0 0 30 30" fill="none" xmlns="http://www.w3.org/2000/svg">
<rect width="30" height="30" rx="15" fill="#E28112" fill-opacity="0.2"/>
<path fill-rule="evenodd" clip-rule="evenodd" d="M11.731 8H18.2683C20.649 8 21.993 9.3503 22 11.731V18.269C22 20.649 20.649 22 18.2683 22H11.731C9.3503 22 8 20.649 8 18.269V11.731C8 9.3503 9.3503 8 11.731 8ZM18.7257 18.5768C18.6977 18.8778 18.4464 19.1018 18.1447 19.1018C17.8507 19.1018 17.5994 18.8778 17.5637 18.5768V11.4438C17.5434 11.2268 17.6477 11.0091 17.8374 10.8908C18.0257 10.7718 18.2637 10.7718 18.4604 10.8908C18.6494 11.0091 18.7537 11.2268 18.7257 11.4438V18.5768ZM15.0336 19.3572C15.3353 19.3572 15.5866 19.1682 15.6146 18.9144V12.8988C15.6426 12.7158 15.5383 12.5322 15.3493 12.4324C15.1526 12.3321 14.9146 12.3321 14.7263 12.4324C14.5366 12.5322 14.4323 12.7158 14.4526 12.8988V18.9144C14.4883 19.1682 14.7396 19.3572 15.0336 19.3572ZM12.0323 19.1024C12.3263 19.1024 12.5776 18.8784 12.6133 18.5774V16.2814C12.6336 16.0567 12.5293 15.8474 12.3396 15.7284C12.1513 15.6094 11.9133 15.6094 11.7173 15.7284C11.5276 15.8474 11.4233 16.0567 11.4513 16.2814V18.5774C11.4793 18.8784 11.7306 19.1024 12.0323 19.1024Z" fill="#E28112"/>
</svg>
