<svg width="18" height="18" viewBox="0 0 18 18" fill="none" xmlns="http://www.w3.org/2000/svg">
<path fill-rule="evenodd" clip-rule="evenodd" d="M4.797 0H13.2021C16.263 0 17.991 1.7361 18 4.797V13.203C18 16.263 16.263 18 13.2021 18H4.797C1.7361 18 0 16.263 0 13.203V4.797C0 1.7361 1.7361 0 4.797 0ZM13.7902 13.5988C13.7542 13.9858 13.4311 14.2738 13.0432 14.2738C12.6652 14.2738 12.3421 13.9858 12.2962 13.5988V4.4278C12.2701 4.1488 12.4042 3.8689 12.6481 3.7168C12.8902 3.5638 13.1962 3.5638 13.4491 3.7168C13.6921 3.8689 13.8262 4.1488 13.7902 4.4278V13.5988ZM9.04319 14.6021C9.43109 14.6021 9.75419 14.3592 9.79019 14.0328V6.29845C9.82619 6.06315 9.69209 5.8271 9.44909 5.69882C9.19619 5.56979 8.89019 5.56979 8.64809 5.69882C8.40419 5.8271 8.27009 6.06315 8.29619 6.29845V14.0328C8.34209 14.3592 8.66519 14.6021 9.04319 14.6021ZM5.18443 14.2745C5.56243 14.2745 5.88553 13.9865 5.93143 13.5995V10.6475C5.95753 10.3586 5.82343 10.0895 5.57953 9.93653C5.33743 9.78353 5.03143 9.78353 4.77943 9.93653C4.53553 10.0895 4.40143 10.3586 4.43743 10.6475V13.5995C4.47343 13.9865 4.79653 14.2745 5.18443 14.2745Z" fill="#0F50A4"/>
</svg>
