<svg width="15" height="19" viewBox="0 0 15 19" fill="none" xmlns="http://www.w3.org/2000/svg">
<path d="M3.20417 2.88033C2.35583 2.88033 1.49502 2.88033 0.646677 2.88033C0.122704 2.88033 0.0478516 2.81386 0.0478516 2.34862C0.0478516 1.83906 0.0478516 1.32951 0.0478516 0.831028C0.0478516 0.33255 0.409642 0.0113091 0.958566 0.0113091C2.43068 0.000231838 3.9028 0.0223864 5.38739 0.000231796C5.84898 -0.0108455 6.2981 0.37686 6.28563 0.786719C6.27315 1.34058 6.28563 1.89445 6.28563 2.44831C6.28563 2.80279 6.1983 2.88033 5.78661 2.88033C4.92579 2.86925 4.06498 2.86925 3.20417 2.88033C3.20417 2.86925 3.20417 2.86925 3.20417 2.88033Z" fill="#0F50A4"/>
<path d="M3.19443 14.8521C4.05524 14.8521 4.91606 14.8521 5.77687 14.8521C6.18856 14.8521 6.28837 14.9407 6.28837 15.3173C6.28837 15.8379 6.28837 16.3475 6.28837 16.8681C6.27589 17.3334 5.92658 17.6878 5.4026 17.6878C3.90554 17.6989 2.40847 17.6989 0.911405 17.6878C0.462286 17.6878 0.0755432 17.3223 0.0630676 16.9124C0.050592 16.3475 0.050592 15.7826 0.0630676 15.2287C0.0630676 14.9407 0.212774 14.8521 0.574565 14.8521C1.44785 14.841 2.32114 14.841 3.19443 14.8521C3.19443 14.841 3.19443 14.8521 3.19443 14.8521Z" fill="#0F50A4"/>
<path fill-rule="evenodd" clip-rule="evenodd" d="M0 13.184V6.55663C0 6.03998 0 5.52333 0.0124268 5.00668C0.0249755 4.19059 0.0872314 4.02703 0.485621 4.02703C0.595025 4.01751 0.70443 4.01492 0.813348 4.01578C0.920194 4.01578 1.02667 4.01838 1.13218 4.02097C1.2372 4.02444 1.34149 4.02703 1.44431 4.02703H5.67747C6.16309 4.02703 6.28773 4.14559 6.30015 5.23342V7.20483C6.28773 8.20178 6.28773 9.19874 6.28773 10.1957V13.2091C6.28773 13.5743 6.20037 13.6625 5.80113 13.6625L0.536424 13.6599C0.112329 13.6599 0 13.5604 0 13.184ZM3.11889 7.5484C2.77435 7.5484 2.49511 7.79677 2.49511 8.10226V9.65308C2.49511 9.95857 2.77435 10.2069 3.11889 10.2069C3.46343 10.2069 3.74267 9.95857 3.74267 9.65308V8.10226C3.74267 7.79677 3.46343 7.5484 3.11889 7.5484Z" fill="#0F50A4"/>
<path d="M10.7952 2.88033C9.93838 2.88033 9.069 2.88033 8.21221 2.88033C7.68302 2.88033 7.60742 2.81386 7.60742 2.34862C7.60742 1.83906 7.60742 1.32951 7.60742 0.831028C7.60742 0.33255 7.97282 0.0113091 8.52721 0.0113091C10.014 0.000231838 11.5008 0.0223864 13.0001 0.000231796C13.4663 -0.0108455 13.9199 0.37686 13.9073 0.786719C13.8947 1.34058 13.9073 1.89445 13.9073 2.44831C13.9073 2.80279 13.8191 2.88033 13.4033 2.88033C12.5339 2.86925 11.6646 2.86925 10.7952 2.88033C10.7952 2.86925 10.7952 2.86925 10.7952 2.88033Z" fill="#0F50A4"/>
<path fill-rule="evenodd" clip-rule="evenodd" d="M7.55859 12.7247V12.7185L7.5777 12.7711C7.65152 12.9746 7.72534 13.178 7.8017 13.3814C7.83205 13.4602 7.86254 13.5389 7.89313 13.6177C7.89231 13.6176 7.8915 13.6175 7.89069 13.6174C7.86055 13.5398 7.8305 13.4621 7.80059 13.3845C7.72423 13.1811 7.65043 12.9777 7.57662 12.7743L7.57659 12.7742L7.57656 12.7741C7.57057 12.7577 7.56458 12.7411 7.55859 12.7247ZM7.55859 10.5835C7.85912 10.5 8.19629 10.4904 8.54803 10.5829L8.56618 10.5877L8.58412 10.5931C9.23906 10.7892 9.89276 10.9798 10.5466 11.1705L10.5467 11.1705C10.7625 11.2335 10.9782 11.2964 11.1941 11.3595L11.1977 11.3606L11.2013 11.3617C11.6769 11.5043 12.1586 11.652 12.634 11.7979L12.6343 11.798C12.9382 11.8912 13.2396 11.9836 13.5351 12.0734C13.6189 12.097 13.7346 12.132 13.8463 12.1661V10.1644C13.8463 9.16749 13.8463 8.17053 13.8587 7.17358V5.20217C13.8463 4.11434 13.7217 3.99578 13.2361 3.99578H9.00291C8.90008 3.99578 8.79579 3.99319 8.69077 3.98972C8.58527 3.98713 8.47879 3.98453 8.37194 3.98453C8.26302 3.98367 8.15362 3.98626 8.04421 3.99578C7.64583 3.99578 7.58357 4.15934 7.57102 4.97543C7.55859 5.49208 7.55859 6.00873 7.55859 6.52538V10.5835ZM10.6775 7.51715C10.3329 7.51715 10.0537 7.76552 10.0537 8.07101V9.62183C10.0537 9.92732 10.3329 10.1757 10.6775 10.1757C11.022 10.1757 11.3013 9.92732 11.3013 9.62183V8.07101C11.3013 7.76552 11.022 7.51715 10.6775 7.51715Z" fill="#0F50A4"/>
<path d="M13.6889 13.5167C13.7439 13.6614 13.753 13.8603 13.6614 14.014C13.6063 14.1044 13.5422 14.1948 13.4963 14.2581C13.2946 14.4931 13.0654 14.7011 12.8362 14.909C12.7078 15.0356 12.717 15.126 12.8454 15.2435C13.478 15.8583 14.1014 16.4821 14.7432 17.1059C15.0916 17.4404 15.0733 17.802 14.7616 18.1094C14.5048 18.3625 14.239 18.6157 13.9731 18.8598C13.7714 19.0406 13.4413 19.0496 13.2488 18.8598C12.6253 18.2631 12.011 17.6574 11.3968 17.0607C11.3784 17.0426 11.3601 17.0155 11.3418 16.9884C11.0209 16.681 11.0209 16.681 10.7091 16.9974C10.4983 17.2144 10.2874 17.4223 10.0582 17.6212C9.77397 17.8653 9.27888 17.7387 9.15052 17.3861C8.93048 16.7443 8.71961 16.1024 8.49957 15.4695C8.26119 14.7824 8.01364 14.0953 7.77526 13.4082C7.63774 13.0014 7.50938 12.5946 7.37186 12.1877C7.29851 11.9527 7.42687 11.7719 7.57356 11.6272C7.72942 11.4735 7.94029 11.4012 8.18784 11.4735C8.97632 11.7357 9.7648 11.9888 10.5441 12.242C11.2501 12.477 11.956 12.7211 12.6528 12.9562C12.7995 13.0014 13.0287 13.0828 13.1938 13.137C13.3496 13.1913 13.4963 13.2726 13.6063 13.3811C13.6338 13.4354 13.6705 13.4806 13.6889 13.5167Z" fill="#0F50A4"/>
</svg>
