<svg width="23" height="23" viewBox="0 0 23 23" fill="none" xmlns="http://www.w3.org/2000/svg">
<path d="M12.257 13.9086H16.2089C16.2381 13.9086 16.266 13.8971 16.2866 13.8765C16.3071 13.8559 16.3187 13.828 16.3187 13.7989V12.262C16.3187 12.2329 16.3071 12.205 16.2866 12.1844C16.266 12.1638 16.2381 12.1522 16.2089 12.1522H12.257C12.2279 12.1522 12.2 12.1638 12.1794 12.1844C12.1588 12.205 12.1472 12.2329 12.1472 12.262V13.7989C12.1472 13.828 12.1588 13.8559 12.1794 13.8765C12.2 13.8971 12.2279 13.9086 12.257 13.9086ZM13.7939 15.0064H12.257C12.2279 15.0064 12.2 15.018 12.1794 15.0386C12.1588 15.0591 12.1472 15.0871 12.1472 15.1162V16.9824C12.1472 17.0115 12.1588 17.0394 12.1794 17.06C12.2 17.0806 12.2279 17.0921 12.257 17.0921H13.7939C13.823 17.0921 13.8509 17.0806 13.8715 17.06C13.8921 17.0394 13.9036 17.0115 13.9036 16.9824V15.1162C13.9036 15.0871 13.8921 15.0591 13.8715 15.0386C13.8509 15.018 13.823 15.0064 13.7939 15.0064ZM19.1729 18.8486V17.2019C19.1729 17.1728 19.1613 17.1449 19.1407 17.1243C19.1202 17.1037 19.0922 17.0921 19.0631 17.0921H15.1112C15.0821 17.0921 15.0541 17.1037 15.0336 17.1243C15.013 17.1449 15.0014 17.1728 15.0014 17.2019V20.8245C15.0014 20.8536 15.013 20.8816 15.0336 20.9022C15.0541 20.9227 15.0821 20.9343 15.1112 20.9343H16.648C16.6772 20.9343 16.7051 20.9227 16.7257 20.9022C16.7463 20.8816 16.7578 20.8536 16.7578 20.8245V18.9583H19.0631C19.0922 18.9583 19.1202 18.9468 19.1407 18.9262C19.1613 18.9056 19.1729 18.8777 19.1729 18.8486ZM21.9173 12.1522H20.3804C20.3513 12.1522 20.3234 12.1638 20.3028 12.1844C20.2822 12.205 20.2707 12.2329 20.2707 12.262V16.9824C20.2707 17.0115 20.2822 17.0394 20.3028 17.06C20.3234 17.0806 20.3513 17.0921 20.3804 17.0921H21.9173C21.9464 17.0921 21.9743 17.0806 21.9949 17.06C22.0155 17.0394 22.0271 17.0115 22.0271 16.9824V12.262C22.0271 12.2329 22.0155 12.205 21.9949 12.1844C21.9743 12.1638 21.9464 12.1522 21.9173 12.1522ZM19.0631 15.9944C19.0922 15.9944 19.1202 15.9828 19.1407 15.9622C19.1613 15.9416 19.1729 15.9137 19.1729 15.8846V12.262C19.1729 12.2329 19.1613 12.205 19.1407 12.1844C19.1202 12.1638 19.0922 12.1522 19.0631 12.1522H17.5263C17.4971 12.1522 17.4692 12.1638 17.4486 12.1844C17.428 12.205 17.4165 12.2329 17.4165 12.262V15.8846C17.4165 15.9137 17.428 15.9416 17.4486 15.9622C17.4692 15.9828 17.4971 15.9944 17.5263 15.9944H19.0631ZM13.7939 18.1899H12.257C12.2279 18.1899 12.2 18.2015 12.1794 18.2221C12.1588 18.2426 12.1472 18.2706 12.1472 18.2997V21.9497C12.1472 21.9788 12.1588 22.0068 12.1794 22.0274C12.2 22.0479 12.2279 22.0595 12.257 22.0595H13.7939C13.823 22.0595 13.8509 22.0479 13.8715 22.0274C13.8921 22.0068 13.9036 21.9788 13.9036 21.9497V18.2997C13.9036 18.2706 13.8921 18.2426 13.8715 18.2221C13.8509 18.2015 13.823 18.1899 13.7939 18.1899ZM21.9173 18.2997H20.3804C20.3513 18.2997 20.3234 18.3112 20.3028 18.3318C20.2822 18.3524 20.2707 18.3803 20.2707 18.4095V20.1659H17.9654C17.9362 20.1659 17.9083 20.1774 17.8877 20.198C17.8671 20.2186 17.8556 20.2465 17.8556 20.2757V21.9223C17.8556 21.9514 17.8671 21.9793 17.8877 21.9999C17.9083 22.0205 17.9362 22.0321 17.9654 22.0321H21.9173C21.9464 22.0321 21.9743 22.0205 21.9949 21.9999C22.0155 21.9793 22.0271 21.9514 22.0271 21.9223V18.4095C22.0271 18.3803 22.0155 18.3524 21.9949 18.3318C21.9743 18.3112 21.9464 18.2997 21.9173 18.2997ZM9.73215 0.955078H2.04783C1.75669 0.955078 1.47747 1.07073 1.2716 1.2766C1.06573 1.48247 0.950073 1.76169 0.950073 2.05284V9.73716C0.950073 10.0283 1.06573 10.3075 1.2716 10.5134C1.47747 10.7193 1.75669 10.8349 2.04783 10.8349H9.73215C10.0233 10.8349 10.3025 10.7193 10.5084 10.5134C10.7143 10.3075 10.8299 10.0283 10.8299 9.73716V2.05284C10.8299 1.76169 10.7143 1.48247 10.5084 1.2766C10.3025 1.07073 10.0233 0.955078 9.73215 0.955078ZM5.88999 7.48675C5.57517 7.48675 5.26743 7.39339 5.00566 7.21849C4.7439 7.04359 4.53988 6.79499 4.41941 6.50413C4.29893 6.21328 4.26741 5.89323 4.32883 5.58446C4.39024 5.27569 4.54184 4.99207 4.76445 4.76946C4.98707 4.54685 5.27069 4.39525 5.57946 4.33383C5.88823 4.27241 6.20828 4.30393 6.49913 4.42441C6.78999 4.54489 7.03858 4.7489 7.21349 5.01067C7.38839 5.27243 7.48175 5.58018 7.48175 5.895C7.48175 6.31716 7.31404 6.72202 7.01553 7.02054C6.71702 7.31905 6.31215 7.48675 5.88999 7.48675ZM9.73215 12.1522H2.04783C1.75669 12.1522 1.47747 12.2679 1.2716 12.4738C1.06573 12.6796 0.950073 12.9588 0.950073 13.25V20.9343C0.950073 21.2255 1.06573 21.5047 1.2716 21.7105C1.47747 21.9164 1.75669 22.0321 2.04783 22.0321H9.73215C10.0233 22.0321 10.3025 21.9164 10.5084 21.7105C10.7143 21.5047 10.8299 21.2255 10.8299 20.9343V13.25C10.8299 12.9588 10.7143 12.6796 10.5084 12.4738C10.3025 12.2679 10.0233 12.1522 9.73215 12.1522ZM5.88999 18.6839C5.57517 18.6839 5.26743 18.5905 5.00566 18.4156C4.7439 18.2407 4.53988 17.9921 4.41941 17.7013C4.29893 17.4104 4.26741 17.0904 4.32883 16.7816C4.39024 16.4728 4.54184 16.1892 4.76445 15.9666C4.98707 15.744 5.27069 15.5924 5.57946 15.531C5.88823 15.4696 6.20828 15.5011 6.49913 15.6216C6.78999 15.742 7.03858 15.9461 7.21349 16.2078C7.38839 16.4696 7.48175 16.7773 7.48175 17.0921C7.48175 17.5143 7.31404 17.9192 7.01553 18.2177C6.71702 18.5162 6.31215 18.6839 5.88999 18.6839ZM20.9293 0.955078H13.245C12.9538 0.955078 12.6746 1.07073 12.4688 1.2766C12.2629 1.48247 12.1472 1.76169 12.1472 2.05284V9.73716C12.1472 10.0283 12.2629 10.3075 12.4688 10.5134C12.6746 10.7193 12.9538 10.8349 13.245 10.8349H20.9293C21.2205 10.8349 21.4997 10.7193 21.7055 10.5134C21.9114 10.3075 22.0271 10.0283 22.0271 9.73716V2.05284C22.0271 1.76169 21.9114 1.48247 21.7055 1.2766C21.4997 1.07073 21.2205 0.955078 20.9293 0.955078ZM17.0871 7.48675C16.7723 7.48675 16.4646 7.39339 16.2028 7.21849C15.9411 7.04359 15.737 6.79499 15.6166 6.50413C15.4961 6.21328 15.4646 5.89323 15.526 5.58446C15.5874 5.27569 15.739 4.99207 15.9616 4.76946C16.1842 4.54685 16.4678 4.39525 16.7766 4.33383C17.0854 4.27241 17.4054 4.30393 17.6963 4.42441C17.9871 4.54489 18.2357 4.7489 18.4106 5.01067C18.5855 5.27243 18.6789 5.58018 18.6789 5.895C18.6789 6.31716 18.5112 6.72202 18.2127 7.02054C17.9142 7.31905 17.5093 7.48675 17.0871 7.48675Z" fill="white"/>
</svg>
