<svg width="14" height="14" viewBox="0 0 14 14" fill="none" xmlns="http://www.w3.org/2000/svg">
<path d="M5.30282 7.63636C5.88827 7.63636 6.36364 8.11109 6.36364 8.69718V12.9392C6.36364 13.5246 5.88891 14 5.30282 14H1.06082C0.475363 14 0 13.5253 0 12.9392V8.69718C0 8.11173 0.474727 7.63636 1.06082 7.63636H5.30282ZM9.38636 12.0909C9.42856 12.0909 9.46902 12.1077 9.49886 12.1375C9.52869 12.1673 9.54545 12.2078 9.54545 12.25V13.8409C9.54545 13.8831 9.52869 13.9236 9.49886 13.9534C9.46902 13.9832 9.42856 14 9.38636 14H7.79545C7.75326 14 7.71279 13.9832 7.68296 13.9534C7.65312 13.9236 7.63636 13.8831 7.63636 13.8409V12.25C7.63636 12.2078 7.65312 12.1673 7.68296 12.1375C7.71279 12.1077 7.75326 12.0909 7.79545 12.0909H9.38636ZM13.8409 12.0909C13.8831 12.0909 13.9236 12.1077 13.9534 12.1375C13.9832 12.1673 14 12.2078 14 12.25V13.8409C14 13.8831 13.9832 13.9236 13.9534 13.9534C13.9236 13.9832 13.8831 14 13.8409 14H12.25C12.2078 14 12.1673 13.9832 12.1375 13.9534C12.1077 13.9236 12.0909 13.8831 12.0909 13.8409V12.25C12.0909 12.2078 12.1077 12.1673 12.1375 12.1375C12.1673 12.1077 12.2078 12.0909 12.25 12.0909H13.8409ZM5.25 9.1C5.25 8.9067 5.0933 8.75 4.9 8.75H1.46364C1.27034 8.75 1.11364 8.9067 1.11364 9.1V12.5364C1.11364 12.7297 1.27034 12.8864 1.46364 12.8864H4.9C5.0933 12.8864 5.25 12.7297 5.25 12.5364V9.1ZM11.9318 9.54545C11.974 9.54545 12.0145 9.56221 12.0443 9.59205C12.0741 9.62189 12.0909 9.66235 12.0909 9.70455V11.9318C12.0909 11.974 12.0741 12.0145 12.0443 12.0443C12.0145 12.0741 11.974 12.0909 11.9318 12.0909H9.70455C9.66235 12.0909 9.62189 12.0741 9.59205 12.0443C9.56221 12.0145 9.54545 11.974 9.54545 11.9318V9.70455C9.54545 9.66235 9.56221 9.62189 9.59205 9.59205C9.62189 9.56221 9.66235 9.54545 9.70455 9.54545H11.9318ZM9.38636 7.63636C9.42856 7.63636 9.46902 7.65312 9.49886 7.68296C9.52869 7.71279 9.54545 7.75326 9.54545 7.79545V9.38636C9.54545 9.42856 9.52869 9.46902 9.49886 9.49886C9.46902 9.52869 9.42856 9.54545 9.38636 9.54545H7.79545C7.75326 9.54545 7.71279 9.52869 7.68296 9.49886C7.65312 9.46902 7.63636 9.42856 7.63636 9.38636V7.79545C7.63636 7.75326 7.65312 7.71279 7.68296 7.68296C7.71279 7.65312 7.75326 7.63636 7.79545 7.63636H9.38636ZM13.8409 7.63636C13.8831 7.63636 13.9236 7.65312 13.9534 7.68296C13.9832 7.71279 14 7.75326 14 7.79545V9.38636C14 9.42856 13.9832 9.46902 13.9534 9.49886C13.9236 9.52869 13.8831 9.54545 13.8409 9.54545H12.25C12.2078 9.54545 12.1673 9.52869 12.1375 9.49886C12.1077 9.46902 12.0909 9.42856 12.0909 9.38636V7.79545C12.0909 7.75326 12.1077 7.71279 12.1375 7.68296C12.1673 7.65312 12.2078 7.63636 12.25 7.63636H13.8409ZM5.30282 0C5.88827 0 6.36364 0.474727 6.36364 1.06082V5.30282C6.36364 5.88827 5.88891 6.36364 5.30282 6.36364H1.06082C0.475363 6.36364 0 5.88891 0 5.30282V1.06082C0 0.475363 0.474727 0 1.06082 0H5.30282ZM12.9392 0C13.5246 0 14 0.474727 14 1.06082V5.30282C14 5.88827 13.5253 6.36364 12.9392 6.36364H8.69718C8.11173 6.36364 7.63636 5.88891 7.63636 5.30282V1.06082C7.63636 0.475363 8.11109 0 8.69718 0H12.9392ZM5.25 1.46364C5.25 1.27034 5.0933 1.11364 4.9 1.11364H1.46364C1.27034 1.11364 1.11364 1.27034 1.11364 1.46364V4.9C1.11364 5.0933 1.27034 5.25 1.46364 5.25H4.9C5.0933 5.25 5.25 5.0933 5.25 4.9V1.46364ZM12.8864 1.46364C12.8864 1.27034 12.7297 1.11364 12.5364 1.11364H9.1C8.9067 1.11364 8.75 1.27034 8.75 1.46364V4.9C8.75 5.0933 8.9067 5.25 9.1 5.25H12.5364C12.7297 5.25 12.8864 5.0933 12.8864 4.9V1.46364Z" fill="#0F50A4"/>
</svg>
