<svg width="25" height="25" viewBox="0 0 25 25" fill="none" xmlns="http://www.w3.org/2000/svg">
<g filter="url(#filter0_d)">
<path d="M7.1875 3.1875H9.2125V5.20468H7.1875V3.1875ZM14.9713 7.16002H16.6154V8.79796H14.9713V7.16002ZM11.722 11.2784H13.2885V12.8388H11.722V11.2784ZM18.2597 7.16002H21V8.79796H18.2597V7.16002ZM11.722 14.3992H13.2885V17H11.722V14.3992Z" fill="#F2F2F2"/>
<path d="M11.9333 9.76096e-08C12.2338 6.02702e-06 12.5221 0.119372 12.7346 0.331849C12.8399 0.437058 12.9234 0.561972 12.9803 0.699457C13.0373 0.836942 13.0667 0.984305 13.0667 1.13313V7.93332C13.0666 8.23389 12.9472 8.52212 12.7347 8.73466C12.5221 8.94719 12.2339 9.06662 11.9333 9.06668H5.13336C4.8328 9.06661 4.54458 8.94716 4.33208 8.7346C4.11952 8.5221 4.00007 8.23388 4 7.93332V1.13336C4 0.832778 4.11941 0.544502 4.33195 0.331955C4.5445 0.119408 4.83278 9.76096e-08 5.13336 9.76096e-08H11.9333ZM11.8437 1.22297H5.22297V7.84348H11.8437V1.22297ZM9.10002 10.7666C9.40053 10.7669 9.68863 10.8864 9.90099 11.0991C10.1133 11.3117 10.2326 11.5999 10.2324 11.9004V15.8666C10.2324 16.167 10.1131 16.4551 9.90074 16.6676C9.68841 16.88 9.40041 16.9995 9.10002 16.9998H5.13336C4.83282 16.9998 4.54458 16.8804 4.33204 16.6679C4.1195 16.4554 4.00006 16.1672 4 15.8666V11.9004C4 11.5999 4.11941 11.3116 4.33195 11.099C4.5445 10.8865 4.83278 10.7671 5.13336 10.7671L9.10002 10.7666ZM5.10538 11.872V15.8937H9.12707V11.872H5.10538ZM19.8666 10.7666C20.0155 10.7666 20.1629 10.796 20.3004 10.853C20.4379 10.91 20.5628 10.9935 20.6681 11.0988C20.7733 11.2041 20.8567 11.3291 20.9137 11.4666C20.9706 11.6042 20.9998 11.7516 20.9998 11.9004V15.8666C20.9998 16.1672 20.8804 16.4555 20.6678 16.668C20.4553 16.8806 20.167 17 19.8664 17H15.9004C15.5999 17 15.3116 16.8806 15.099 16.668C14.8865 16.4555 14.7671 16.1672 14.7671 15.8666V11.9004C14.767 11.7516 14.7963 11.6041 14.8532 11.4666C14.9101 11.329 14.9936 11.204 15.0989 11.0987C15.2041 10.9934 15.3291 10.9099 15.4666 10.8529C15.6042 10.7959 15.7516 10.7666 15.9004 10.7666H19.8666ZM19.8666 11.9004H15.9004V15.8659H19.8659L19.8666 11.9004ZM19.8666 9.76096e-08C20.1672 9.76096e-08 20.4555 0.119408 20.668 0.331955C20.8806 0.544502 21 0.832778 21 1.13336V5.10002C20.9998 5.40045 20.8802 5.68848 20.6677 5.90083C20.4552 6.11317 20.1671 6.23245 19.8666 6.23245H15.9004C15.5999 6.23257 15.3117 6.11335 15.0991 5.90099C14.8864 5.68863 14.7669 5.40053 14.7666 5.10002V1.13336C14.7666 0.98449 14.7959 0.837073 14.8529 0.699536C14.9099 0.561999 14.9934 0.437037 15.0987 0.331789C15.204 0.22654 15.329 0.143067 15.4666 0.0861373C15.6041 0.0292081 15.7516 -6.16868e-05 15.9004 9.76096e-08H19.8666ZM19.8683 1.13148H15.8981V5.10167H19.8683V1.13148Z" fill="#F2F2F2"/>
</g>
<defs>
<filter id="filter0_d" x="0" y="0" width="25" height="25" filterUnits="userSpaceOnUse" color-interpolation-filters="sRGB">
<feFlood flood-opacity="0" result="BackgroundImageFix"/>
<feColorMatrix in="SourceAlpha" type="matrix" values="0 0 0 0 0 0 0 0 0 0 0 0 0 0 0 0 0 0 127 0"/>
<feOffset dy="4"/>
<feGaussianBlur stdDeviation="2"/>
<feColorMatrix type="matrix" values="0 0 0 0 0 0 0 0 0 0 0 0 0 0 0 0 0 0 0.25 0"/>
<feBlend mode="normal" in2="BackgroundImageFix" result="effect1_dropShadow"/>
<feBlend mode="normal" in="SourceGraphic" in2="effect1_dropShadow" result="shape"/>
</filter>
</defs>
</svg>
