<svg width="26" height="27" viewBox="0 0 26 27" fill="none" xmlns="http://www.w3.org/2000/svg">
<path d="M22.0066 18.6128C22.024 18.6702 22.038 18.7284 22.0486 18.7873C22.0486 20.4071 22.0825 22.0225 22.0368 23.6379C21.9845 25.5117 20.428 26.9688 18.5153 26.9938C17.43 27.0078 16.3447 26.9938 15.2593 26.9938C11.3869 26.9938 7.51445 26.9938 3.64202 26.9938C1.93142 26.9938 0.534192 25.9549 0.122765 24.3683C0.0414537 24.0388 0.00182084 23.7004 0.00479261 23.361C-0.00159754 16.7837 -0.00159754 10.2064 0.00479261 3.62906C0.00258064 1.52334 1.53917 0 3.64423 0H18.5176C20.6219 0 22.1585 1.53144 22.1622 3.6298C22.1622 4.34692 22.1577 5.06331 22.1658 5.7797C22.1743 5.8415 22.1608 5.90431 22.1276 5.95718C22.0945 6.01005 22.0438 6.04964 21.9845 6.06905C21.3756 6.35453 20.8229 6.7468 20.3528 7.2272C18.6053 8.97731 16.8711 10.7407 15.0986 12.4643C14.0096 13.5245 13.2708 14.7467 13.0061 16.2509C12.8822 16.9548 12.6979 17.6498 12.5408 18.3463C12.1522 20.0626 13.4728 21.7538 15.2298 21.6161C16.7141 21.4998 18.2042 21.2612 19.5749 20.5853C20.3445 20.2079 21.0371 19.6909 21.6173 19.0605C21.7352 18.9339 21.8458 18.7991 22.0066 18.6128ZM11.0204 3.96112C9.20858 3.96112 7.39722 3.96112 5.58635 3.96112C4.96331 3.96112 4.40663 4.51774 4.41179 5.11412C4.41916 5.77676 4.8704 6.20453 5.5657 6.21852C5.64828 6.21852 5.7316 6.21852 5.81418 6.21852H15.8514C16.0534 6.21852 16.2562 6.22514 16.4575 6.21484C16.9773 6.18907 17.3496 5.90045 17.4757 5.4366C17.6969 4.61198 17.2022 3.96407 16.3402 3.96407C14.5662 3.95768 12.7917 3.95572 11.0167 3.95818L11.0204 3.96112ZM8.73473 8.59004C7.71378 8.59004 6.69307 8.59004 5.67261 8.59004C5.54404 8.58547 5.41537 8.59585 5.2892 8.62096C5.02197 8.68202 4.78625 8.8384 4.62632 9.06073C4.46639 9.28307 4.39325 9.55606 4.42063 9.82844C4.48552 10.4476 4.88368 10.8327 5.5163 10.8438C6.40773 10.8585 7.29989 10.8489 8.19205 10.8489C9.40569 10.8489 10.6201 10.8489 11.8337 10.8489C12.4169 10.8489 12.8114 10.5728 12.9537 10.0928C13.1963 9.27477 12.7037 8.5974 11.8521 8.59224C10.8059 8.58267 9.76698 8.58709 8.72809 8.58709L8.73473 8.59004Z" fill="#BDBDBD"/>
<path d="M25.9997 10.3185C25.996 11.1364 25.7166 11.7004 25.2307 12.1834C23.568 13.8356 21.8972 15.476 20.2618 17.1554C19.3586 18.0853 18.3337 18.7148 17.0397 18.9122C16.4499 19.0013 15.8748 19.1706 15.2923 19.3002C14.883 19.3907 14.6139 19.1353 14.7024 18.734C14.9089 17.822 15.1205 16.9107 15.3372 16.0002C15.4648 15.4792 15.7349 15.0038 16.1173 14.6271C18.0631 12.673 20.0016 10.7116 21.9724 8.78334C22.7304 8.04265 23.6742 7.94031 24.6349 8.35262C25.5367 8.74137 25.9562 9.48279 25.9997 10.3185Z" fill="#BDBDBD"/>
</svg>
