<svg width="22" height="22" viewBox="0 0 22 22" fill="none" xmlns="http://www.w3.org/2000/svg">
<path d="M13.7486 10.0829H9.16528C8.92217 10.0829 8.68901 10.1795 8.5171 10.3514C8.34519 10.5233 8.24862 10.7564 8.24862 10.9995V18.3329C8.24837 18.4994 8.29348 18.6629 8.37913 18.8057C8.46477 18.9485 8.5877 19.0653 8.73472 19.1435C8.88174 19.2217 9.04728 19.2584 9.21358 19.2497C9.37988 19.2409 9.54065 19.187 9.67862 19.0937L11.457 17.902L13.1895 19.057C13.3495 19.1812 13.5461 19.2489 13.7486 19.2495C13.8883 19.2501 14.0262 19.2188 14.1519 19.1579C14.3062 19.0823 14.4362 18.9649 14.5269 18.819C14.6177 18.6731 14.6656 18.5047 14.6653 18.3329V10.9995C14.6653 10.7564 14.5687 10.5233 14.3968 10.3514C14.2249 10.1795 13.9917 10.0829 13.7486 10.0829ZM12.832 16.6095L11.9703 16.032C11.8187 15.9296 11.6399 15.8748 11.457 15.8748C11.274 15.8748 11.0952 15.9296 10.9436 16.032L10.082 16.6187V11.9162H12.832V16.6095ZM16.8836 6.61787C16.3235 5.33088 15.3569 4.26302 14.1318 3.57795C12.9068 2.89288 11.4909 2.62838 10.1012 2.82499C8.71142 3.02159 7.42447 3.66845 6.43752 4.66645C5.45057 5.66444 4.81807 6.95852 4.63695 8.35037C3.76299 8.55967 2.99632 9.08264 2.48254 9.81996C1.96877 10.5573 1.74366 11.4576 1.84998 12.35C1.95629 13.2424 2.38662 14.0646 3.05925 14.6606C3.73187 15.2566 4.59994 15.5848 5.49862 15.5829C5.74173 15.5829 5.97489 15.4863 6.1468 15.3144C6.31871 15.1425 6.41528 14.9093 6.41528 14.6662C6.41528 14.4231 6.31871 14.1899 6.1468 14.018C5.97489 13.8461 5.74173 13.7495 5.49862 13.7495C5.01239 13.7495 4.54607 13.5564 4.20226 13.2126C3.85844 12.8688 3.66528 12.4024 3.66528 11.9162C3.66528 11.43 3.85844 10.9637 4.20226 10.6198C4.54607 10.276 5.01239 10.0829 5.49862 10.0829C5.74173 10.0829 5.97489 9.9863 6.1468 9.81439C6.31871 9.64248 6.41528 9.40932 6.41528 9.16621C6.41763 8.08204 6.80421 7.03381 7.50636 6.20774C8.20852 5.38167 9.18077 4.83124 10.2504 4.65426C11.32 4.47727 12.4177 4.68518 13.3486 5.24105C14.2794 5.79691 14.983 6.66475 15.3344 7.69037C15.3868 7.84789 15.481 7.98823 15.607 8.09639C15.7329 8.20456 15.8858 8.2765 16.0494 8.30454C16.6007 8.40431 17.1083 8.67004 17.5044 9.06618C17.9004 9.46232 18.1661 9.96998 18.2658 10.5212C18.3655 11.0725 18.2944 11.641 18.0622 12.1508C17.8299 12.6605 17.4475 13.0872 16.9661 13.3737C16.7546 13.4953 16.6 13.6959 16.5364 13.9314C16.4728 14.1669 16.5054 14.418 16.6269 14.6295C16.7485 14.8411 16.9491 14.9956 17.1846 15.0592C17.4201 15.1228 17.6713 15.0903 17.8828 14.9687C18.5778 14.5653 19.1546 13.9862 19.5552 13.2896C19.9558 12.5929 20.1662 11.8032 20.1653 10.9995C20.1625 10.0133 19.8417 9.05432 19.2505 8.26495C18.6593 7.47558 17.8292 6.89795 16.8836 6.61787Z" fill="#0A0B09"/>
</svg>
