<svg width="28" height="29" viewBox="0 0 28 29" fill="none" xmlns="http://www.w3.org/2000/svg">
<path d="M6.98198 28.3026H2.10068C1.37051 28.3026 0.779297 27.7181 0.779297 26.9962V19.74C0.779297 19.0181 1.37051 18.4336 2.10068 18.4336H6.97945C7.70962 18.4336 8.30083 19.0181 8.30083 19.74V26.9962C8.30083 27.7181 7.70962 28.3026 6.98198 28.3026Z" fill="#0F50A4"/>
<path d="M16.6044 28.3044H11.7257C10.9955 28.3044 10.4043 27.7199 10.4043 26.998V14.6537C10.4043 13.9318 10.9955 13.3473 11.7257 13.3473H16.6044C17.3346 13.3473 17.9258 13.9318 17.9258 14.6537V26.998C17.9258 27.7199 17.3346 28.3044 16.6044 28.3044ZM26.2281 28.3044H21.3493C20.6191 28.3044 20.0279 27.7199 20.0279 26.998V7.47239C20.0279 6.75051 20.6191 6.16602 21.3493 6.16602H26.2281C26.9582 6.16602 27.5495 6.75051 27.5495 7.47239V26.998C27.5495 27.7199 26.9582 28.3044 26.2281 28.3044Z" fill="#0F50A4"/>
<path d="M9.34229 0.552734H17.5915C17.8012 0.552734 17.973 0.722587 17.973 0.929908V9.3726C17.973 9.71231 17.5561 9.87717 17.3186 9.63488L15.0978 7.36184C15.0371 7.29908 14.9562 7.25923 14.869 7.2492C14.7818 7.23916 14.6938 7.25957 14.6203 7.30689L3.1573 14.5231C2.80106 14.748 2.39428 14.3158 2.64694 13.9811L10.7698 3.18795C10.886 3.03309 10.8658 2.81578 10.7218 2.68589L9.08458 1.20967C8.8294 0.977367 8.99363 0.552734 9.34229 0.552734Z" fill="#0685CF"/>
<path d="M16.6044 13.3473H11.7257C10.9955 13.3473 10.4043 13.9318 10.4043 14.6537V26.998C10.4043 27.7199 10.9955 28.3044 11.7257 28.3044H13.5069C15.0543 27.8017 16.5372 27.1227 17.9258 26.2811V14.6537C17.9258 13.9318 17.3346 13.3473 16.6044 13.3473ZM27.5495 12.5955V7.47239C27.5495 6.75051 26.9582 6.16602 26.2281 6.16602H21.3493C20.6191 6.16602 20.0279 6.75051 20.0279 7.47239V24.8149C23.843 21.805 26.5742 17.5137 27.5495 12.5955Z" fill="#0F50A4"/>
<path d="M21.5905 6.16602H21.3454C20.6152 6.16602 20.024 6.75051 20.024 7.47239V10.4048C20.7027 9.05332 21.228 7.63173 21.5905 6.16602ZM17.7375 13.9917C17.5076 13.6071 17.0882 13.3473 16.6031 13.3473H11.7243C10.9941 13.3473 10.4029 13.9318 10.4029 14.6537V19.8717C13.2781 18.4829 15.7819 16.4596 17.7375 13.9917ZM6.98198 18.4354H2.10068C1.37051 18.4354 0.779297 19.0199 0.779297 19.7418V21.9598C0.918257 21.9623 1.05722 21.9698 1.19618 21.9698C3.68988 21.9698 6.08252 21.5377 8.30084 20.7484V19.7418C8.30084 19.0199 7.70962 18.4354 6.98198 18.4354Z" fill="#0F50A4"/>
<path d="M3.10156 13.3716C9.05411 11.2285 13.7434 6.49509 15.7924 0.552734H9.33961C8.99095 0.552734 8.82672 0.974869 9.0819 1.20717L10.7191 2.68339C10.8631 2.81328 10.8859 3.03059 10.7671 3.18546L3.10156 13.3716Z" fill="#0685CF"/>
</svg>
