<svg width="19" height="22" viewBox="0 0 19 22" fill="none" xmlns="http://www.w3.org/2000/svg">
<path d="M13.1441 13.7363C12.4485 15.0664 12.1246 16.0874 11.275 17.3164C11.2655 17.3307 11.4919 21.2377 11.5008 21.9989C12.3239 21.9983 12.591 22.0007 13.4149 21.9989C14.1104 21.9989 14.8007 21.9723 15.4963 21.9351C16.1122 21.8979 16.7175 21.7968 17.2963 21.568C18.0928 21.2541 18.6344 20.6954 18.8521 19.8601C18.9264 19.5835 18.9742 19.2962 18.9901 19.0089C19.1547 16.1305 17.2432 13.5288 14.4503 12.8265C14.1582 12.752 13.8556 12.7148 13.5476 12.6562C13.5005 13.0654 13.3243 13.397 13.1514 13.7225L13.1441 13.7363Z" fill="#0F50A4"/>
<path d="M6.22016 12.6641C6.26795 13.0897 6.44848 13.4196 6.6237 13.7494C7.31928 15.0795 7.50343 16.0845 8.3583 17.3135C8.36284 17.3226 8.02576 21.042 7.98675 21.998C7.98675 21.998 8.8016 21.9948 8.80471 21.9979C8.53161 21.998 8.25799 21.998 7.98675 21.998C7.22512 21.998 6.48219 21.9975 5.82193 21.9961C4.9352 21.9961 4.05378 21.9695 3.18298 21.778C2.97059 21.7301 2.76351 21.6716 2.56174 21.5971C1.55289 21.2353 0.984746 20.5011 0.836073 19.4529C0.405984 16.4575 2.39183 13.5366 5.34936 12.8237C5.62547 12.7652 5.9175 12.7226 6.22016 12.6641Z" fill="#0F50A4"/>
<path d="M9.08211 17.5085C9.08211 17.5298 8.80471 22.0007 8.80471 22.0007L10.8162 21.9995C10.7631 21.1961 10.5742 15.9868 10.5264 15.1994C10.5264 15.1569 10.5742 15.0983 10.6113 15.0717C10.9034 14.8802 11.1157 14.6195 11.2219 14.279C11.2485 14.1939 11.2538 14.1034 11.275 13.9864C10.8078 14.1673 10.3618 14.2683 9.88919 14.2683C9.41132 14.2683 8.95999 14.1673 8.50335 13.9917C8.50866 14.0715 8.50866 14.1194 8.51928 14.1726C8.59893 14.5556 8.80601 14.8483 9.1299 15.0558C9.22548 15.1143 9.24672 15.1728 9.24141 15.2792C9.183 16.0241 9.13521 16.7636 9.08211 17.5085Z" fill="#0685CF"/>
<path d="M14.6787 4.91079C14.6787 5.15553 14.6787 5.40027 14.6787 5.63969C14.6787 5.7195 14.6999 5.75674 14.7796 5.78334C15.4221 6.0068 15.7566 6.48564 15.7513 7.16134C15.7513 7.45928 15.7406 7.75723 15.7566 8.04985C15.7884 8.78407 15.2309 9.37464 14.5194 9.47573C14.4663 9.48105 14.4079 9.51829 14.3654 9.56085C14.1902 9.72047 14.0203 9.88008 13.8557 10.045C13.792 10.1089 13.7283 10.178 13.6911 10.2578C13.3141 11.0931 12.8256 11.8433 12.1194 12.4392C11.461 12.9925 10.7123 13.3224 9.84152 13.3118C9.00789 13.3011 8.29107 12.9819 7.66452 12.4552C6.84151 11.7635 6.31054 10.875 5.92823 9.8854C5.89107 9.78431 5.8539 9.68854 5.82204 9.58214C5.8008 9.50765 5.76363 9.49169 5.68929 9.49169C5.46629 9.47573 5.23266 9.48105 5.02027 9.42252C4.39903 9.25759 4.01672 8.72554 4.01672 8.08177C4.01672 7.75723 4.01672 7.43268 4.01672 7.11345C4.01672 6.50692 4.35655 6.01744 4.92469 5.80995C5.03089 5.7727 5.06274 5.7195 5.06274 5.61309C5.06274 5.14489 5.04151 4.67137 5.07867 4.20317C5.21142 2.66557 5.99195 1.51103 7.28753 0.718285C9.46984 -0.611824 12.369 -0.0425372 13.8451 1.99519C14.3867 2.74005 14.6628 3.58068 14.6787 4.50112C14.6787 4.63413 14.6787 4.77246 14.6787 4.91079ZM6.08753 7.61889C6.0716 7.62421 6.05567 7.63486 6.03974 7.64018C6.05567 7.9328 6.03974 8.22542 6.09284 8.51273C6.15655 8.85324 6.25744 9.19374 6.37425 9.52361C6.70346 10.4387 7.18664 11.2581 7.94594 11.8806C8.73178 12.519 9.6132 12.785 10.6114 12.5137C11.376 12.3062 11.9601 11.8274 12.4433 11.2208C12.5867 11.0399 12.7141 10.8431 12.8681 10.6303C12.815 10.6356 12.799 10.6356 12.7831 10.6409C12.2044 10.8644 11.6097 11.0027 10.9937 11.0612C10.9513 11.0665 10.8982 11.1038 10.8716 11.141C10.7389 11.3113 10.569 11.4017 10.3566 11.4017C10.0805 11.4017 9.79904 11.407 9.52293 11.4017C9.16718 11.3964 8.89638 11.1197 8.89638 10.7739C8.89638 10.4281 9.16718 10.1514 9.51762 10.1461C9.79904 10.1408 10.0858 10.1301 10.3672 10.1514C10.5052 10.1621 10.6698 10.2099 10.7601 10.3057C10.8822 10.4281 10.9937 10.4334 11.1371 10.4068C11.1743 10.4015 11.2167 10.3962 11.2539 10.3908C11.9336 10.2898 12.5813 10.0929 13.176 9.73643C13.2822 9.67258 13.3619 9.5981 13.399 9.47041C13.4787 9.17778 13.5955 8.88516 13.638 8.58721C13.6805 8.28395 13.6486 7.96472 13.6486 7.62953C13.4893 7.70934 13.346 7.77851 13.1867 7.85831C13.2132 7.61889 13.2398 7.39012 13.2557 7.16134C13.2929 6.60801 13.3088 6.05469 13.1654 5.512C13.1017 5.26726 13.0008 5.0438 12.7831 4.89483C12.7194 4.85227 12.6663 4.84695 12.5867 4.87887C12.2415 5.01188 11.8911 5.14489 11.5406 5.2513C10.9778 5.42155 10.3937 5.53328 9.80435 5.51732C8.88576 5.4854 8.01496 5.2513 7.17602 4.88951C7.08576 4.85227 7.02204 4.85759 6.94771 4.91079C6.74593 5.06508 6.65036 5.2779 6.58664 5.512C6.43797 6.05469 6.45921 6.60801 6.49107 7.16134C6.507 7.39012 6.53354 7.62421 6.56009 7.85831C6.39549 7.76787 6.24151 7.69338 6.08753 7.61889ZM6.12469 3.95843C7.03797 2.66557 8.24328 1.90474 9.84152 1.8941C11.4344 1.87814 12.6557 2.61768 13.5955 3.89991C13.3937 2.57512 12.0557 0.968346 9.89462 0.952385C7.72824 0.936423 6.31585 2.5432 6.12469 3.95843Z" fill="#0F50A4"/>
</svg>
