<svg width="17" height="17" viewBox="0 0 17 17" fill="none" xmlns="http://www.w3.org/2000/svg">
<path d="M7.97724 16.0004C7.70324 15.9613 7.42533 15.9405 7.15524 15.883C4.23808 15.2622 2.34815 13.5236 1.48545 10.6672C1.40717 10.4018 1.53007 10.1584 1.76649 10.0887C2.01818 10.0128 2.25225 10.1521 2.33054 10.4363C2.67225 11.6795 3.3138 12.739 4.29588 13.5763C5.71989 14.7897 7.37366 15.3158 9.22784 15.0582C11.5373 14.738 13.1785 13.4777 14.1798 11.3788C14.1939 11.3495 14.204 11.3178 14.2283 11.2555C14.1007 11.3092 14.0001 11.353 13.8987 11.3933C13.6459 11.4943 13.3899 11.4008 13.294 11.1726C13.1981 10.9444 13.3002 10.6931 13.5507 10.5854C13.9683 10.4064 14.3858 10.2303 14.8033 10.057C15.0859 9.93957 15.3122 10.0347 15.4347 10.3181C15.6116 10.7301 15.7856 11.1433 15.9568 11.5577C16.0621 11.8121 15.9713 12.0607 15.7427 12.1617C15.5079 12.265 15.2644 12.1558 15.1481 11.8955C15.1125 11.8172 15.0781 11.7366 15.0339 11.6364C15.0115 11.6779 14.9978 11.7002 14.9869 11.7237C13.9358 13.9731 12.1956 15.3561 9.76644 15.8728C9.46739 15.9366 9.15934 15.9597 8.8556 16.002L7.97724 16.0004Z" fill="#0A0B09" stroke="#0A0B09" stroke-width="0.5"/>
<path d="M1.00195 5C1.07202 4.86418 1.15148 4.78059 1.3104 4.73245C1.41446 4.70103 1.52643 4.70886 1.62511 4.75445C1.72379 4.80004 1.80233 4.88022 1.84587 4.97983C1.8944 5.08356 1.93628 5.19041 1.99343 5.32546C2.04354 5.21977 2.07837 5.1411 2.11751 5.06477C3.29923 2.76123 5.16476 1.39085 7.73525 1.05853C11.2729 0.600563 14.6024 2.87435 15.5246 6.3279C15.5978 6.60189 15.4745 6.84849 15.2322 6.91503C14.9813 6.98158 14.7578 6.84693 14.6803 6.56667C14.3073 5.21547 13.5808 4.09677 12.4805 3.22703C9.33657 0.739127 4.6469 1.82455 2.91328 5.43623C2.88667 5.4922 2.86435 5.54974 2.82717 5.63664C2.94694 5.58732 3.03815 5.54739 3.13091 5.51177C3.3689 5.42018 3.61237 5.51177 3.71101 5.73215C3.73578 5.78569 3.74934 5.84373 3.75085 5.9027C3.75237 5.96167 3.7418 6.02033 3.7198 6.07507C3.6978 6.12981 3.66484 6.17947 3.62294 6.22099C3.58104 6.26252 3.53108 6.29504 3.47615 6.31654C3.04271 6.50573 2.60693 6.68931 2.16879 6.86728C1.92063 6.96827 1.69321 6.86728 1.58165 6.61285C1.40473 6.20577 1.23485 5.79595 1.06106 5.38769C1.04462 5.34855 1 5.1 1 5.1C1 5 1.00195 5 1.00195 5Z" fill="#0A0B09"/>
<path d="M1.00195 5V5.25H1.15429L1.22413 5.11461L1.00195 5ZM1.3104 4.73245L1.23815 4.49311L1.23791 4.49319L1.3104 4.73245ZM1.84587 4.97983L1.61672 5.07999L1.61943 5.08578L1.84587 4.97983ZM1.99343 5.32546L1.7632 5.42289L1.98049 5.93635L2.21933 5.43255L1.99343 5.32546ZM2.11751 5.06477L1.89508 4.95066L1.89506 4.95069L2.11751 5.06477ZM7.73525 1.05853L7.7673 1.30647L7.76734 1.30646L7.73525 1.05853ZM15.5246 6.3279L15.2831 6.39239L15.2831 6.39242L15.5246 6.3279ZM15.2322 6.91503L15.2963 7.15669L15.2984 7.15611L15.2322 6.91503ZM14.6803 6.56667L14.4393 6.63319L14.4393 6.6333L14.6803 6.56667ZM12.4805 3.22703L12.3254 3.42307L12.3255 3.42315L12.4805 3.22703ZM2.91328 5.43623L2.6879 5.32805L2.68751 5.32887L2.91328 5.43623ZM2.82717 5.63664L2.59733 5.53828L2.35663 6.10075L2.92236 5.86781L2.82717 5.63664ZM3.13091 5.51177L3.22053 5.74516L3.22071 5.74509L3.13091 5.51177ZM3.71101 5.73215L3.4828 5.83429L3.48412 5.83713L3.71101 5.73215ZM3.47615 6.31654L3.38494 6.08358L3.37614 6.08742L3.47615 6.31654ZM2.16879 6.86728L2.07471 6.63566L2.07456 6.63572L2.16879 6.86728ZM1.58165 6.61285L1.35237 6.7125L1.3527 6.71324L1.58165 6.61285ZM1.06106 5.38769L0.83056 5.4845L0.831033 5.48561L1.06106 5.38769ZM1 5.1H0.75V5.12226L0.753933 5.14417L1 5.1ZM1.22413 5.11461C1.25142 5.06171 1.27236 5.03522 1.29063 5.01869C1.30721 5.00368 1.33244 4.98699 1.38288 4.97171L1.23791 4.49319C1.12943 4.52605 1.03548 4.57523 0.955079 4.648C0.876372 4.71925 0.822548 4.80247 0.779773 4.88539L1.22413 5.11461ZM1.38264 4.97178C1.42815 4.95804 1.47711 4.96147 1.52026 4.9814L1.72996 4.5275C1.57575 4.45626 1.40077 4.44402 1.23815 4.49311L1.38264 4.97178ZM1.52026 4.9814C1.56341 5.00134 1.59776 5.0364 1.61679 5.07995L2.07494 4.8797C2.00691 4.72405 1.88417 4.59874 1.72996 4.5275L1.52026 4.9814ZM1.61943 5.08578C1.66538 5.18399 1.70258 5.27965 1.7632 5.42289L2.22367 5.22802C2.16999 5.10118 2.12342 4.98312 2.0723 4.87387L1.61943 5.08578ZM2.21933 5.43255C2.27312 5.3191 2.30309 5.25077 2.33997 5.17885L1.89506 4.95069C1.85366 5.03142 1.81395 5.12044 1.76753 5.21836L2.21933 5.43255ZM2.33995 5.17888C3.48589 2.94507 5.28226 1.62774 7.7673 1.30647L7.70319 0.810594C5.04726 1.15396 3.11256 2.57739 1.89508 4.95066L2.33995 5.17888ZM7.76734 1.30646C11.1783 0.864899 14.3926 3.05756 15.2831 6.39239L15.7661 6.2634C14.8122 2.69114 11.3676 0.336228 7.70315 0.810599L7.76734 1.30646ZM15.2831 6.39242C15.3281 6.56092 15.2502 6.65084 15.166 6.67396L15.2984 7.15611C15.6988 7.04614 15.8675 6.64287 15.7661 6.26337L15.2831 6.39242ZM15.1681 6.67339C15.1034 6.69055 15.0568 6.67947 15.0234 6.6587C14.9885 6.63695 14.9463 6.59046 14.9213 6.50003L14.4393 6.6333C14.4918 6.82313 14.6001 6.9841 14.7591 7.0831C14.9196 7.18308 15.1101 7.20606 15.2963 7.15668L15.1681 6.67339ZM14.9213 6.50014C14.5346 5.09933 13.7788 3.93464 12.6355 3.0309L12.3255 3.42315C13.3828 4.2589 14.08 5.3316 14.4393 6.63319L14.9213 6.50014ZM12.6356 3.03098C9.36595 0.443569 4.49084 1.57197 2.6879 5.32805L3.13866 5.54441C4.80297 2.07713 9.30719 1.03469 12.3254 3.42307L12.6356 3.03098ZM2.68751 5.32887C2.65821 5.39048 2.6301 5.46171 2.59733 5.53828L3.05701 5.73499C3.09861 5.63777 3.11512 5.59393 3.13906 5.54359L2.68751 5.32887ZM2.92236 5.86781C3.049 5.81566 3.13121 5.77946 3.22053 5.74516L3.0413 5.27839C2.94508 5.31533 2.84489 5.35898 2.73198 5.40547L2.92236 5.86781ZM3.22071 5.74509C3.34738 5.69634 3.44386 5.74723 3.48282 5.83428L3.93919 5.63001C3.78088 5.27631 3.39042 5.14402 3.04112 5.27846L3.22071 5.74509ZM3.48412 5.83713C3.49457 5.85973 3.5003 5.88422 3.50094 5.90911L4.00077 5.89629C3.99838 5.80323 3.97699 5.71164 3.93789 5.62716L3.48412 5.83713ZM3.50094 5.90911C3.50157 5.93399 3.49711 5.95875 3.48783 5.98185L3.95177 6.16829C3.98648 6.08192 4.00316 5.98935 4.00077 5.89629L3.50094 5.90911ZM3.48783 5.98185C3.47855 6.00495 3.46464 6.0259 3.44696 6.04343L3.79892 6.39856C3.86504 6.33303 3.91706 6.25467 3.95177 6.16829L3.48783 5.98185ZM3.44696 6.04343C3.42927 6.06095 3.40819 6.07467 3.38501 6.08375L3.56729 6.54934C3.65398 6.5154 3.7328 6.46409 3.79892 6.39856L3.44696 6.04343ZM3.37614 6.08742C2.94467 6.27575 2.51086 6.4585 2.07471 6.63566L2.26287 7.0989C2.703 6.92013 3.14076 6.73571 3.57616 6.54567L3.37614 6.08742ZM2.07456 6.63572C2.00407 6.6644 1.95581 6.6581 1.92397 6.64421C1.89042 6.62957 1.84619 6.59362 1.81061 6.51246L1.3527 6.71324C1.42867 6.88652 1.55393 7.02827 1.72402 7.10248C1.89582 7.17745 2.08535 7.17114 2.26302 7.09884L2.07456 6.63572ZM1.81094 6.5132C1.63437 6.10694 1.46626 5.70128 1.29108 5.28977L0.831033 5.48561C1.00344 5.89062 1.17509 6.3046 1.35237 6.7125L1.81094 6.5132ZM1.29155 5.29089C1.29686 5.30352 1.29808 5.31028 1.29538 5.30006C1.29369 5.29372 1.29137 5.28413 1.28846 5.27124C1.2827 5.24567 1.27608 5.21348 1.26965 5.18083C1.26328 5.1485 1.25736 5.11717 1.25303 5.09381C1.25087 5.08217 1.24911 5.07258 1.2479 5.06595C1.2473 5.06263 1.24683 5.06005 1.24652 5.05833C1.24636 5.05747 1.24624 5.05682 1.24617 5.0564C1.24613 5.05619 1.2461 5.05603 1.24609 5.05594C1.24608 5.05589 1.24607 5.05586 1.24607 5.05584C1.24607 5.05583 1.24607 5.05582 1.24607 5.05582C1.24607 5.05582 1.24607 5.05582 1.24607 5.05582C1.24607 5.05582 1.24607 5.05583 1 5.1C0.753933 5.14417 0.753934 5.14418 0.753935 5.14418C0.753936 5.14419 0.753937 5.14419 0.753939 5.1442C0.753941 5.14422 0.753944 5.14423 0.753948 5.14425C0.753955 5.1443 0.753966 5.14435 0.753979 5.14442C0.754004 5.14457 0.754041 5.14477 0.754088 5.14503C0.754182 5.14555 0.754317 5.1463 0.754492 5.14727C0.754842 5.14921 0.75535 5.15201 0.755998 5.15557C0.757293 5.16267 0.759151 5.17281 0.761429 5.18508C0.765973 5.20956 0.772243 5.2428 0.779082 5.27751C0.785857 5.31189 0.793479 5.34917 0.800704 5.38121C0.805625 5.40304 0.816097 5.45006 0.830563 5.4845L1.29155 5.29089ZM1.25 5.1C1.25 5.05073 1.2505 5.0297 1.25079 5.02226C1.25097 5.01749 1.25093 5.02225 1.24995 5.03066C1.24967 5.03304 1.24805 5.04772 1.24302 5.06613C1.24104 5.07337 1.23418 5.09817 1.21763 5.12641C1.20922 5.14077 1.19174 5.1675 1.16114 5.19277C1.14502 5.20608 1.12344 5.22049 1.09607 5.23161C1.08233 5.23719 1.06738 5.24184 1.05135 5.24507C1.04337 5.24668 1.03521 5.24792 1.02693 5.24875C1.02278 5.24913 1.01654 5.24957 1.01446 5.24969C1.00821 5.24992 1.00195 5.25 1.00195 5C1.00195 4.75 0.995697 4.75008 0.989444 4.75031C0.987362 4.75043 0.981127 4.75087 0.976981 4.75125C0.968692 4.75208 0.960541 4.75332 0.952553 4.75493C0.936522 4.75816 0.921575 4.76281 0.907838 4.76839C0.880461 4.77952 0.858881 4.79392 0.842759 4.80724C0.812149 4.83251 0.794661 4.85925 0.786231 4.87364C0.769658 4.90192 0.762754 4.92683 0.760722 4.93426C0.75558 4.95306 0.753809 4.96852 0.753347 4.97246C0.751995 4.984 0.751469 4.99501 0.751167 5.00274C0.750481 5.0203 0.75 5.04927 0.75 5.1H1.25Z" fill="#0A0B09"/>
</svg>
