<svg width="20" height="16" viewBox="0 0 20 16" fill="none" xmlns="http://www.w3.org/2000/svg">
<path fill-rule="evenodd" clip-rule="evenodd" d="M2.62708 0C4.41231 0.143536 7.04267 0.932981 8.78042 1.82111C9.09379 1.98259 9.2837 2.27863 9.2837 2.61952V15.0982C9.2837 15.7351 8.6 16.1747 7.98277 15.9325C6.21653 15.2327 4.02298 14.6227 2.46565 14.4253L2.17128 14.3894C1.25018 14.2818 0.5 13.4834 0.5 12.6132V1.9467C0.5 0.870184 1.4211 0 2.56061 0H2.62708ZM5.49484 4.53931H3.35827C2.96893 4.53931 2.64607 4.84433 2.64607 5.21214C2.64607 5.58892 2.96893 5.88496 3.35827 5.88496H5.49484C5.88417 5.88496 6.20703 5.58892 6.20703 5.21214C6.20703 4.84433 5.88417 4.53931 5.49484 4.53931ZM3.35827 8.57625H6.20703C6.59637 8.57625 6.91923 8.28021 6.91923 7.90343C6.91923 7.53562 6.59637 7.23061 6.20703 7.23061H3.35827C2.96893 7.23061 2.64607 7.53562 2.64607 7.90343C2.64607 8.28021 2.96893 8.57625 3.35827 8.57625ZM19.4995 12.6132V1.9467C19.4995 0.870184 18.5784 0 17.4389 0H17.3819C15.5967 0.143536 12.9663 0.932981 11.2286 1.82111C10.9152 1.98259 10.7158 2.2876 10.7158 2.61952V15.0982C10.7158 15.7351 11.3995 16.1747 12.0168 15.9325C13.783 15.2327 15.9765 14.6227 17.5339 14.4253L17.8282 14.3894C18.7493 14.2818 19.4995 13.4834 19.4995 12.6132Z" fill="#0F50A4"/>
</svg>
