<svg width="18" height="18" viewBox="0 0 18 18" fill="none" xmlns="http://www.w3.org/2000/svg">
<path fill-rule="evenodd" clip-rule="evenodd" d="M18 9C18 4.03005 13.9709 0 9 0C4.03005 0 0 4.03005 0 9C0 13.9699 4.03005 18 9 18C13.9709 18 18 13.9699 18 9ZM12.5303 7.53032C12.8232 7.2374 12.8231 6.76253 12.5302 6.46966C12.2373 6.17679 11.7624 6.17682 11.4696 6.46973L8.00037 9.9394L6.53018 8.46962C6.23724 8.17677 5.76237 8.17684 5.46952 8.46977C5.17667 8.7627 5.17673 9.23758 5.46967 9.53043L7.47023 11.5304C7.76315 11.8233 8.23799 11.8232 8.53085 11.5303L12.5303 7.53032Z" fill="white"/>
</svg>
