<svg width="14" height="14" viewBox="0 0 14 14" fill="none" xmlns="http://www.w3.org/2000/svg">
<path fill-rule="evenodd" clip-rule="evenodd" d="M4.87056 0.19482C5.13116 0.454932 5.13157 0.87706 4.87147 1.13767L2.27404 3.74019L13.3333 3.73974C13.7015 3.73973 14 4.03821 14 4.40641C14 4.77462 13.7015 5.07312 13.3333 5.07314L0.666711 5.07365C0.397182 5.07366 0.154162 4.91137 0.0508935 4.66239C-0.0523751 4.41342 0.00442633 4.12675 0.19483 3.93598L3.92776 0.195722C4.18786 -0.0648879 4.60997 -0.0652919 4.87056 0.19482ZM1.93361e-05 8.86258C1.93361e-05 8.49437 0.298495 8.19588 0.666684 8.19588H13.3333C13.6028 8.19588 13.8458 8.35818 13.9491 8.60715C14.0524 8.85612 13.9956 9.14278 13.8052 9.33355L10.0722 13.0738C9.81214 13.3344 9.39003 13.3348 9.12944 13.0747C8.86884 12.8146 8.86843 12.3925 9.12853 12.1319L11.726 9.52928H0.666684C0.298495 9.52928 1.93361e-05 9.23079 1.93361e-05 8.86258Z" fill="#0F50A4"/>
</svg>
