<svg width="16" height="16" viewBox="0 0 16 16" fill="none" xmlns="http://www.w3.org/2000/svg">
<path d="M8.00977 4.88672V8.01966L9.57624 9.58613" stroke="#0A0B09" stroke-width="1.2" stroke-linecap="round" stroke-linejoin="round"/>
<path d="M3.25786 2.74368C3.83355 2.21766 4.48736 1.79534 5.19031 1.48819M7.93232 0.898898C8.93898 0.8874 9.92762 1.09155 10.8354 1.48819C11.4893 1.77393 12.1013 2.15956 12.6477 2.63643C13.1882 3.10813 13.649 3.65541 14.0186 4.25687C14.5413 5.10749 14.8817 6.06646 15.0075 7.07322C15.2223 8.79184 14.7969 10.5294 13.8124 11.9544C12.828 13.3794 11.3533 14.392 9.66985 14.7992C7.9864 15.2063 6.21197 14.9794 4.68512 14.1618C3.15827 13.3441 2.49498 11.993 1.90072 10.3661M1 14.2823V10.3662H4.91618" stroke="#0A0B09" stroke-width="1.2" stroke-linecap="round" stroke-linejoin="round"/>
</svg>
