<svg width="15" height="16" viewBox="0 0 15 16" fill="none" xmlns="http://www.w3.org/2000/svg">
<path fill-rule="evenodd" clip-rule="evenodd" d="M9.54309 3.0403C9.56487 3.14881 9.59653 3.25337 9.637 3.35313H5.26366C5.30408 3.25337 5.33567 3.14881 5.35735 3.0403L5.52776 2.18457C5.57238 2.01562 5.7267 1.89787 5.90223 1.89787H8.99821C9.17374 1.89787 9.32806 2.01562 9.36537 2.15093L9.54309 3.0403ZM3.63858 3.3526C3.63048 3.3526 3.62243 3.35278 3.61442 3.35313H1.24971C0.946919 3.35313 0.701172 3.59887 0.701172 3.90167C0.701172 4.20446 0.946919 4.45021 1.24971 4.45021H13.6526C13.9554 4.45021 14.2012 4.20446 14.2012 3.90167C14.2012 3.59887 13.9554 3.35313 13.6526 3.35313H11.286C11.278 3.35278 11.27 3.3526 11.2619 3.3526C10.9503 3.3526 10.6797 3.13026 10.619 2.82454L10.4332 1.90225C10.2599 1.25351 9.66962 0.800781 8.99821 0.800781H5.90223C5.23082 0.800781 4.64059 1.25351 4.45993 1.93517L4.2822 2.82454C4.22077 3.13026 3.95015 3.3526 3.63858 3.3526ZM4.55115 15.3972C5.50707 15.4169 6.47324 15.4279 7.46427 15.4279C8.38363 15.4279 9.3242 15.4184 10.2991 15.4016C11.5732 15.3782 12.4172 14.6007 12.5591 13.323C12.7717 11.4056 13.1301 7.01677 13.1819 6.38258L13.1819 6.38253L13.1819 6.38246L13.1881 6.30602C13.2123 6.00395 12.987 5.73992 12.6849 5.71506C12.3858 5.70555 12.1188 5.91619 12.0947 6.21752L12.0884 6.29428L12.0884 6.29431L12.0884 6.29447C12.0366 6.92885 11.6797 11.2998 11.4686 13.2023C11.3882 13.9308 10.9991 14.2906 10.2794 14.3045C8.26807 14.3411 6.40229 14.3389 4.57382 14.3001C3.89655 14.2862 3.51257 13.9191 3.43431 13.2074C3.20612 11.1464 2.81263 6.26725 2.80898 6.21752C2.78484 5.91619 2.51569 5.70701 2.21801 5.71506C1.91595 5.73919 1.69068 6.00395 1.71555 6.30602C1.7192 6.35502 2.11342 11.2509 2.34381 13.3281C2.48204 14.5802 3.32826 15.3731 4.55115 15.3972ZM5.98584 7.13945C6.25513 7.13945 6.47343 7.35776 6.47343 7.62705V11.5278C6.47343 11.7971 6.25513 12.0154 5.98584 12.0154C5.71655 12.0154 5.49824 11.7971 5.49824 11.5278V7.62705C5.49824 7.35776 5.71655 7.13945 5.98584 7.13945ZM8.9114 7.13945C9.18069 7.13945 9.39899 7.35776 9.39899 7.62705V11.5278C9.39899 11.7971 9.18069 12.0154 8.9114 12.0154C8.64211 12.0154 8.4238 11.7971 8.4238 11.5278V7.62705C8.4238 7.35776 8.64211 7.13945 8.9114 7.13945Z" fill="#0A0B09"/>
<path d="M9.637 3.35313V3.40313H9.71125L9.68333 3.33433L9.637 3.35313ZM9.54309 3.0403L9.49406 3.0501L9.49407 3.05014L9.54309 3.0403ZM5.26366 3.35313L5.21732 3.33435L5.18945 3.40313H5.26366V3.35313ZM5.35735 3.0403L5.40638 3.0501L5.40638 3.05006L5.35735 3.0403ZM5.52776 2.18457L5.47933 2.17178L5.47872 2.17481L5.52776 2.18457ZM9.36537 2.15093L9.41452 2.1411L9.41357 2.13764L9.36537 2.15093ZM3.61442 3.35313V3.40317L3.61659 3.40308L3.61442 3.35313ZM11.286 3.35313L11.2839 3.40313H11.286V3.35313ZM10.619 2.82454L10.668 2.8148L10.668 2.81466L10.619 2.82454ZM10.4332 1.90225L10.4823 1.89236L10.4815 1.88935L10.4332 1.90225ZM4.45993 1.93517L4.41151 1.92233L4.4109 1.92537L4.45993 1.93517ZM4.2822 2.82454L4.33122 2.83439L4.33124 2.83434L4.2822 2.82454ZM4.55115 15.3972L4.55218 15.3472L4.55213 15.3472L4.55115 15.3972ZM10.2991 15.4016L10.3 15.4516L10.3001 15.4516L10.2991 15.4016ZM12.5591 13.323L12.6088 13.3285L12.6088 13.3285L12.5591 13.323ZM13.1819 6.38258L13.2317 6.38665L13.2318 6.3856L13.1819 6.38258ZM13.1819 6.38253L13.132 6.37851L13.132 6.3795L13.1819 6.38253ZM13.1819 6.38246L13.132 6.37837L13.132 6.37844L13.1819 6.38246ZM13.1881 6.30602L13.238 6.3101L13.238 6.31L13.1881 6.30602ZM12.6849 5.71506L12.689 5.66516L12.6865 5.66508L12.6849 5.71506ZM12.0947 6.21752L12.1445 6.2216L12.1445 6.22151L12.0947 6.21752ZM12.0884 6.29428L12.1382 6.29843L12.1382 6.29836L12.0884 6.29428ZM12.0884 6.29431L12.1382 6.29876L12.1382 6.29846L12.0884 6.29431ZM12.0884 6.29447L12.0386 6.29003L12.0386 6.2904L12.0884 6.29447ZM11.4686 13.2023L11.4189 13.1968L11.4189 13.1968L11.4686 13.2023ZM10.2794 14.3045L10.2803 14.3545L10.2804 14.3545L10.2794 14.3045ZM4.57382 14.3001L4.57488 14.2501L4.57485 14.2501L4.57382 14.3001ZM3.43431 13.2074L3.48401 13.2019L3.48401 13.2019L3.43431 13.2074ZM2.80898 6.21752L2.85884 6.21385L2.85882 6.21353L2.80898 6.21752ZM2.21801 5.71506L2.21666 5.665L2.21403 5.66521L2.21801 5.71506ZM1.71555 6.30602L1.76541 6.3023L1.76538 6.30192L1.71555 6.30602ZM2.34381 13.3281L2.39351 13.3226L2.39351 13.3226L2.34381 13.3281ZM9.68333 3.33433C9.64402 3.23744 9.61327 3.13587 9.59212 3.03046L9.49407 3.05014C9.51647 3.16174 9.54903 3.2693 9.59067 3.37192L9.68333 3.33433ZM5.26366 3.40313H9.637V3.30313H5.26366V3.40313ZM5.30832 3.0305C5.28725 3.13591 5.25658 3.23747 5.21732 3.33435L5.31 3.3719C5.35159 3.26928 5.38408 3.1617 5.40638 3.0501L5.30832 3.0305ZM5.47872 2.17481L5.30831 3.03053L5.40638 3.05006L5.5768 2.19434L5.47872 2.17481ZM5.90223 1.84787C5.70429 1.84787 5.5299 1.98064 5.47942 2.17181L5.5761 2.19734C5.61485 2.0506 5.74911 1.94787 5.90223 1.94787V1.84787ZM8.99821 1.84787H5.90223V1.94787H8.99821V1.84787ZM9.41357 2.13764C9.36957 1.97805 9.19343 1.84787 8.99821 1.84787V1.94787C9.15405 1.94787 9.28656 2.05319 9.31716 2.16422L9.41357 2.13764ZM9.59212 3.0305L9.4144 2.14113L9.31633 2.16073L9.49406 3.0501L9.59212 3.0305ZM3.61659 3.40308C3.62387 3.40276 3.63121 3.4026 3.63858 3.4026V3.3026C3.62976 3.3026 3.62098 3.30279 3.61225 3.30317L3.61659 3.40308ZM1.24971 3.40313H3.61442V3.30313H1.24971V3.40313ZM0.751172 3.90167C0.751172 3.62649 0.974533 3.40313 1.24971 3.40313V3.30313C0.919305 3.30313 0.651172 3.57126 0.651172 3.90167H0.751172ZM1.24971 4.40021C0.974533 4.40021 0.751172 4.17685 0.751172 3.90167H0.651172C0.651172 4.23208 0.919305 4.50021 1.24971 4.50021V4.40021ZM13.6526 4.40021H1.24971V4.50021H13.6526V4.40021ZM14.1512 3.90167C14.1512 4.17685 13.9278 4.40021 13.6526 4.40021V4.50021C13.983 4.50021 14.2512 4.23208 14.2512 3.90167H14.1512ZM13.6526 3.40313C13.9278 3.40313 14.1512 3.62649 14.1512 3.90167H14.2512C14.2512 3.57126 13.983 3.30313 13.6526 3.30313V3.40313ZM11.286 3.40313H13.6526V3.30313H11.286V3.40313ZM11.2619 3.4026C11.2692 3.4026 11.2766 3.40276 11.2839 3.40308L11.2882 3.30317C11.2795 3.30279 11.2707 3.3026 11.2619 3.3026V3.4026ZM10.5699 2.83428C10.6353 3.16338 10.9264 3.4026 11.2619 3.4026V3.3026C10.9742 3.3026 10.7241 3.09714 10.668 2.8148L10.5699 2.83428ZM10.3842 1.91213L10.57 2.83441L10.668 2.81466L10.4822 1.89238L10.3842 1.91213ZM8.99821 0.850781C9.647 0.850781 10.2174 1.28832 10.3849 1.91516L10.4815 1.88935C10.3023 1.21871 9.69224 0.750781 8.99821 0.750781V0.850781ZM5.90223 0.850781H8.99821V0.750781H5.90223V0.850781ZM4.50826 1.94798C4.68326 1.28767 5.25409 0.850781 5.90223 0.850781V0.750781C5.20754 0.750781 4.59791 1.21936 4.4116 1.92236L4.50826 1.94798ZM4.33124 2.83434L4.50896 1.94497L4.4109 1.92537L4.23317 2.81474L4.33124 2.83434ZM3.63858 3.4026C3.97406 3.4026 4.26511 3.16337 4.33122 2.83439L4.23318 2.81469C4.17642 3.09715 3.92625 3.3026 3.63858 3.3026V3.4026ZM7.46427 15.3779C6.47361 15.3779 5.50779 15.3669 4.55218 15.3472L4.55011 15.4472C5.50636 15.4669 6.47287 15.4779 7.46427 15.4779V15.3779ZM10.2983 15.3516C9.32356 15.3684 8.38329 15.3779 7.46427 15.3779V15.4779C8.38397 15.4779 9.32483 15.4684 10.3 15.4516L10.2983 15.3516ZM12.5094 13.3175C12.4396 13.9465 12.1975 14.4484 11.8199 14.7959C11.4422 15.1433 10.9251 15.3401 10.2982 15.3516L10.3001 15.4516C10.9473 15.4397 11.4892 15.236 11.8876 14.8694C12.2859 14.5029 12.5368 13.9772 12.6088 13.3285L12.5094 13.3175ZM13.132 6.37851C13.0802 7.01306 12.7219 11.401 12.5094 13.3175L12.6088 13.3285C12.8214 11.4102 13.1799 7.02047 13.2317 6.38665L13.132 6.37851ZM13.132 6.3795L13.1319 6.37955L13.2318 6.3856L13.2318 6.38555L13.132 6.3795ZM13.132 6.37844L13.132 6.37851L13.2317 6.38654L13.2317 6.38647L13.132 6.37844ZM13.1383 6.30193L13.132 6.37837L13.2317 6.38654L13.238 6.3101L13.1383 6.30193ZM12.6808 5.76489C12.9555 5.7875 13.1602 6.02756 13.1383 6.30204L13.238 6.31C13.2643 5.98034 13.0185 5.69234 12.689 5.66522L12.6808 5.76489ZM12.1445 6.22151C12.1663 5.94998 12.4075 5.75626 12.6833 5.76503L12.6865 5.66508C12.3641 5.65483 12.0714 5.88239 12.0449 6.21353L12.1445 6.22151ZM12.1382 6.29836L12.1445 6.2216L12.0449 6.21344L12.0386 6.29019L12.1382 6.29836ZM12.1382 6.29846L12.1382 6.29843L12.0386 6.29012L12.0386 6.29016L12.1382 6.29846ZM12.1382 6.29892L12.1382 6.29876L12.0386 6.28987L12.0386 6.29003L12.1382 6.29892ZM11.5183 13.2078C11.7295 11.3044 12.0865 6.93255 12.1382 6.29854L12.0386 6.2904C11.9867 6.92515 11.6299 11.2952 11.4189 13.1968L11.5183 13.2078ZM10.2804 14.3545C10.6481 14.3474 10.9387 14.2517 11.1477 14.058C11.3566 13.8645 11.4773 13.5795 11.5183 13.2078L11.4189 13.1968C11.3795 13.5535 11.2654 13.8127 11.0797 13.9847C10.8942 14.1566 10.6303 14.2477 10.2784 14.2545L10.2804 14.3545ZM4.57276 14.3501C6.40193 14.3889 8.26837 14.3911 10.2803 14.3545L10.2785 14.2545C8.26777 14.2911 6.40266 14.2889 4.57488 14.2501L4.57276 14.3501ZM3.38461 13.2129C3.42458 13.5763 3.54337 13.8585 3.74485 14.0515C3.94666 14.2449 4.22527 14.343 4.57279 14.3501L4.57485 14.2501C4.2451 14.2434 3.99309 14.1509 3.81403 13.9793C3.63464 13.8074 3.52231 13.5502 3.48401 13.2019L3.38461 13.2129ZM2.75911 6.22119C2.76278 6.27105 3.15632 11.1509 3.38462 13.2129L3.48401 13.2019C3.25592 11.1418 2.86249 6.26346 2.85884 6.21385L2.75911 6.22119ZM2.21936 5.76504C2.49428 5.75761 2.73741 5.95033 2.75914 6.22151L2.85882 6.21353C2.83227 5.88205 2.5371 5.65641 2.21666 5.66507L2.21936 5.76504ZM1.76538 6.30192C1.74278 6.02745 1.94748 5.78683 2.222 5.7649L2.21403 5.66521C1.88442 5.69155 1.63858 5.98046 1.66572 6.31012L1.76538 6.30192ZM2.39351 13.3226C2.16323 11.2464 1.76906 6.35125 1.76541 6.3023L1.66569 6.30974C1.66935 6.35879 2.06362 11.2555 2.29412 13.3336L2.39351 13.3226ZM4.55213 15.3472C3.95159 15.3354 3.44659 15.135 3.07493 14.7867C2.70316 14.4382 2.46152 13.9386 2.39351 13.3226L2.29411 13.3336C2.36434 13.9697 2.61492 14.4926 3.00654 14.8596C3.39826 15.2268 3.92782 15.4349 4.55016 15.4472L4.55213 15.3472ZM6.52343 7.62705C6.52343 7.33014 6.28274 7.08945 5.98584 7.08945V7.18945C6.22751 7.18945 6.42343 7.38537 6.42343 7.62705H6.52343ZM6.52343 11.5278V7.62705H6.42343V11.5278H6.52343ZM5.98584 12.0654C6.28274 12.0654 6.52343 11.8247 6.52343 11.5278H6.42343C6.42343 11.7695 6.22751 11.9654 5.98584 11.9654V12.0654ZM5.44824 11.5278C5.44824 11.8247 5.68893 12.0654 5.98584 12.0654V11.9654C5.74416 11.9654 5.54824 11.7695 5.54824 11.5278H5.44824ZM5.44824 7.62705V11.5278H5.54824V7.62705H5.44824ZM5.98584 7.08945C5.68893 7.08945 5.44824 7.33014 5.44824 7.62705H5.54824C5.54824 7.38537 5.74416 7.18945 5.98584 7.18945V7.08945ZM9.44899 7.62705C9.44899 7.33014 9.2083 7.08945 8.9114 7.08945V7.18945C9.15307 7.18945 9.34899 7.38537 9.34899 7.62705H9.44899ZM9.44899 11.5278V7.62705H9.34899V11.5278H9.44899ZM8.9114 12.0654C9.2083 12.0654 9.44899 11.8247 9.44899 11.5278H9.34899C9.34899 11.7695 9.15307 11.9654 8.9114 11.9654V12.0654ZM8.3738 11.5278C8.3738 11.8247 8.61449 12.0654 8.9114 12.0654V11.9654C8.66972 11.9654 8.4738 11.7695 8.4738 11.5278H8.3738ZM8.3738 7.62705V11.5278H8.4738V7.62705H8.3738ZM8.9114 7.08945C8.61449 7.08945 8.3738 7.33014 8.3738 7.62705H8.4738C8.4738 7.38537 8.66972 7.18945 8.9114 7.18945V7.08945Z" fill="black"/>
</svg>
