<svg width="13" height="8" viewBox="0 0 13 8" fill="none" xmlns="http://www.w3.org/2000/svg">
<path fill-rule="evenodd" clip-rule="evenodd" d="M0.541016 4C1.4781 1.805 3.79102 0.25 6.49935 0.25C9.20768 0.25 11.5206 1.805 12.4577 4C11.5206 6.195 9.20768 7.75 6.49935 7.75C3.79102 7.75 1.4781 6.195 0.541016 4ZM3.79102 4C3.79102 5.38 5.00435 6.5 6.49935 6.5C7.99435 6.5 9.20768 5.38 9.20768 4C9.20768 2.62 7.99435 1.5 6.49935 1.5C5.00435 1.5 3.79102 2.62 3.79102 4Z" fill="#0F50A4"/>
<path d="M6.49935 2.5C5.60018 2.5 4.87435 3.17 4.87435 4C4.87435 4.83 5.60018 5.5 6.49935 5.5C7.39852 5.5 8.12435 4.83 8.12435 4C8.12435 3.17 7.39852 2.5 6.49935 2.5Z" fill="#0F50A4"/>
</svg>
