<svg width="13" height="10" viewBox="0 0 13 10" fill="none" xmlns="http://www.w3.org/2000/svg">
<path d="M8.51622 1.34225L7.38225 2.4587C6.94763 2.34452 6.48996 2.3444 6.05528 2.45835C5.6206 2.57229 5.22423 2.79629 4.90604 3.10781C4.58784 3.41933 4.35905 3.80738 4.24266 4.23294C4.12627 4.65851 4.12639 5.10657 4.24302 5.53207L2.4748 7.25692C1.62913 6.6297 0.924401 5.81432 0.4375 4.87976C1.16844 3.47657 2.3678 2.36049 3.83628 1.71695C5.30476 1.07342 6.95395 0.941199 8.50981 1.34225H8.51622ZM10.9507 2.5026C11.8028 3.12982 12.5075 3.94521 13.0008 4.87976C12.2694 6.28554 11.068 7.40345 9.59673 8.04716C8.12551 8.69087 6.47338 8.8215 4.91571 8.41728L6.04968 7.30083C6.4843 7.41501 6.94196 7.41513 7.37664 7.30118C7.81132 7.18723 8.2077 6.96324 8.52589 6.65172C8.84408 6.3402 9.07288 5.95215 9.18927 5.52658C9.30566 5.10102 9.30553 4.65296 9.18891 4.22746L10.9571 2.5026H10.9507ZM10.7906 0L11.7003 0.890651L2.64137 9.75953L1.73163 8.86888L6.26109 4.43444L10.7906 0Z" fill="#0F50A4"/>
</svg>
