<svg width="38" height="38" fill="none" viewBox="0 0 38 38" xmlns="http://www.w3.org/2000/svg"><defs>
<linearGradient id="paint0_linear_36519_75831" x1="6.68446" y1="22.4026" x2="13.3358" y2="8.88955" gradientUnits="userSpaceOnUse">
<stop stop-color="#3588E8"></stop>
<stop offset="1" stop-color="#384593"></stop>
</linearGradient>
<linearGradient id="paint1_linear_36519_75831" x1="11.6956" y1="17.3978" x2="18.3422" y2="3.89439" gradientUnits="userSpaceOnUse">
<stop stop-color="#3588E8"></stop>
<stop offset="1" stop-color="#384593"></stop>
</linearGradient>
</defs>
<path d="M19 38C29.469 38 38 29.488 38 19C38 8.531 29.469 0 19 0C8.512 0 0 8.531 0 19C0 29.3102 8.2259 37.7109 18.4684 37.9927L19 38Z" fill="white"></path>
<path d="M22.3334 19.7474V23.2474C22.3334 26.1641 21.1667 27.3307 18.25 27.3307H14.75C11.8334 27.3307 10.6667 26.1641 10.6667 23.2474V19.7474C10.6667 16.8307 11.8334 15.6641 14.75 15.6641H18.25C21.1667 15.6641 22.3334 16.8307 22.3334 19.7474Z" fill="url(#paint0_linear_36519_75831)"></path>
<path d="M23.25 10.6641H19.75C17.1808 10.6641 15.9758 11.5758 15.7248 13.7799C15.6723 14.241 16.0541 14.6224 16.5182 14.6224H18.25C21.75 14.6224 23.375 16.2474 23.375 19.7474V21.4791C23.375 21.9432 23.7564 22.3251 24.2175 22.2726C26.4216 22.0216 27.3333 20.8166 27.3333 18.2474V14.7474C27.3333 11.8307 26.1667 10.6641 23.25 10.6641Z" fill="url(#paint1_linear_36519_75831)"></path>

</svg>