<svg width="24" height="24" viewBox="0 0 24 24" fill="none" xmlns="http://www.w3.org/2000/svg">
<path d="M7.18871 7.69939C7.2025 7.87642 7.06995 8.03292 6.89246 8.02758C6.12952 8.00463 5.38884 7.6896 4.84511 7.14587C4.29926 6.60001 3.96097 5.8466 3.96097 5.01527C3.96097 4.18449 4.29873 3.43107 4.84458 2.88521C5.39097 2.33829 6.14492 2 6.97518 2C7.55891 2 8.10477 2.16701 8.56739 2.45621C8.95387 2.69744 9.28221 3.02483 9.52545 3.41143C9.62012 3.56189 9.55252 3.75579 9.39279 3.83381C9.2333 3.91171 9.04257 3.8442 8.9435 3.69693C8.75646 3.41886 8.5117 3.18211 8.22643 3.00367C7.86359 2.7769 7.43459 2.64563 6.97464 2.64563C6.321 2.64563 5.72873 2.91083 5.30079 3.33929C4.87179 3.76829 4.6066 4.3611 4.6066 5.01527C4.6066 5.66838 4.87233 6.26012 5.30133 6.68912C5.70983 7.09763 6.26558 7.34701 6.83983 7.38059C7.01807 7.39101 7.17483 7.52138 7.18871 7.69939Z" fill="white" stroke="white" stroke-width="0.626477"/>
<path d="M7.58309 10.4057C7.62671 10.5779 7.52279 10.7545 7.34727 10.7813C7.31801 10.7858 7.28864 10.7899 7.25918 10.7936C7.12365 10.8106 6.98705 10.8192 6.84939 10.8192C6.39798 10.8192 5.96044 10.7279 5.55759 10.555C5.20275 10.4024 4.87407 10.1853 4.58593 9.90994C4.08863 10.2226 3.67297 10.6356 3.35229 11.1286C3.0266 11.6291 2.83061 12.1793 2.70654 12.7549C2.66936 12.9274 2.50649 13.0455 2.33209 13.0186C2.15496 12.9912 2.03327 12.8249 2.07191 12.6499C2.21225 12.0142 2.47759 11.2942 2.81284 10.7786C3.21623 10.1581 3.74928 9.64688 4.39224 9.27551L4.39491 9.27444L4.48082 9.22589L4.69959 9.10156L4.873 9.28405L4.94023 9.35501C5.19208 9.61914 5.48822 9.82457 5.81264 9.96383C6.13492 10.1026 6.48602 10.1751 6.84992 10.1751C6.96251 10.1751 7.07296 10.1682 7.18181 10.1549C7.184 10.1546 7.18619 10.1543 7.18838 10.154C7.36464 10.1319 7.53945 10.2335 7.58309 10.4057Z" fill="white" stroke="white" stroke-width="0.626477"/>
<path d="M14.6704 13.1859C13.4163 13.1859 12.2792 12.6754 11.4557 11.8519C10.6322 11.0285 10.1224 9.89128 10.1224 8.63657C10.1224 7.3825 10.6322 6.24533 11.4557 5.42184C12.2805 4.59705 13.4176 4.08594 14.6711 4.08594C15.9251 4.08594 17.0623 4.59575 17.8864 5.41924C18.7099 6.24273 19.2204 7.3799 19.2204 8.63397C19.2204 9.88739 18.7099 11.0246 17.8864 11.8487C17.0603 12.6748 15.9232 13.1859 14.6704 13.1859ZM12.0109 11.296C12.6922 11.9773 13.6326 12.3994 14.6698 12.3994C15.7082 12.3994 16.6486 11.9773 17.3292 11.2967C18.0105 10.6148 18.4326 9.67307 18.4326 8.63462C18.4326 7.59746 18.0105 6.65707 17.3292 5.97581C16.648 5.29455 15.7069 4.87241 14.6698 4.87241C13.6313 4.87241 12.6909 5.2939 12.0103 5.97451C11.329 6.65577 10.9069 7.59746 10.9069 8.63657C10.9075 9.67437 11.3297 10.6148 12.0109 11.296Z" fill="white" stroke="white" stroke-width="0.715974"/>
<path d="M11.3323 21.5681C11.3323 21.3509 11.5083 21.1748 11.7255 21.1748H21.2155C21.2246 19.9649 21.0024 18.8466 20.4985 17.8692C20.0069 16.9151 19.2405 16.0884 18.1521 15.4305C17.702 15.8741 17.185 16.2215 16.6239 16.4631C16.0141 16.7248 15.3536 16.8625 14.6704 16.8625C13.9872 16.8625 13.3267 16.7248 12.7169 16.4631C12.1558 16.2222 11.6388 15.8741 11.1888 15.4305C10.9822 15.5552 10.788 15.6857 10.6056 15.8208C10.4912 15.9062 10.3809 15.9938 10.2747 16.0837C10.1097 16.2234 9.86265 16.2194 9.71276 16.0636C9.56248 15.9074 9.56696 15.658 9.73142 15.5168C9.86124 15.4054 9.99693 15.2967 10.1386 15.1909C10.3847 15.0077 10.6478 14.835 10.9277 14.6733L10.9309 14.672L11.0634 14.5966L11.3297 14.4453L11.5414 14.6674L11.6453 14.7765C12.0447 15.1954 12.5136 15.5208 13.0273 15.7416C13.5384 15.9611 14.0944 16.0767 14.6704 16.0767C15.2465 16.0767 15.803 15.9611 16.3141 15.7416C16.8278 15.5208 17.2967 15.1954 17.6961 14.7765L17.6994 14.7733L17.8053 14.6642L18.0176 14.4453L18.2826 14.5986L18.4131 14.6739C19.7094 15.4227 20.6167 16.3871 21.196 17.51C21.8181 18.716 22.0565 20.0974 21.9889 21.5853L21.9721 21.9613H21.5973H11.7255C11.5083 21.9613 11.3323 21.7852 11.3323 21.5681Z" fill="white" stroke="white" stroke-width="0.715974"/>
<path d="M4.7735 15.0377L2.87584 16.8503H3.53956H3.87792L3.92793 17.1867C4.09938 18.333 4.57607 19.1792 5.21967 19.7948C5.61647 20.1741 6.07888 20.469 6.5744 20.695C6.3997 20.4599 6.24838 20.2092 6.11979 19.9429C5.74896 19.1753 5.57231 18.2842 5.57231 17.2438V16.8509H5.96522H6.66987L4.7735 15.0377ZM1.7612 17.2972C1.6797 17.0931 1.73044 16.8599 1.88939 16.7081L4.50333 14.2116L4.7735 13.9531L5.04367 14.2116L7.65519 16.7081C7.81405 16.8599 7.86472 17.0931 7.78324 17.2972C7.70152 17.5018 7.50336 17.6361 7.28297 17.6361H6.36788C6.40555 18.3901 6.55557 19.0402 6.82573 19.6013C7.08775 20.1438 7.4667 20.6099 7.97134 21.0121C8.14625 21.1515 8.21892 21.3879 8.13305 21.5944C8.04719 21.801 7.82779 21.9203 7.61022 21.8685C6.545 21.6149 5.50006 21.1466 4.67933 20.3625C3.98053 19.6948 3.44929 18.8051 3.2103 17.6361H2.26134C2.04101 17.6361 1.84289 17.5019 1.7612 17.2972Z" fill="white" stroke="white" stroke-width="0.357987"/>
</svg>
