<svg width="333" height="201" fill="none" viewBox="0 0 333 201" xmlns="http://www.w3.org/2000/svg"><defs>
<linearGradient id="paint0_linear_36519_75791" x1="174.261" y1="119.036" x2="174.261" y2="193.093" gradientUnits="userSpaceOnUse">
<stop></stop>
<stop offset="0.0896271" stop-opacity="0.9104"></stop>
<stop offset="1" stop-opacity="0"></stop>
</linearGradient>
<linearGradient id="paint1_linear_36519_75791" x1="174.395" y1="143.08" x2="174.395" y2="59.6573" gradientUnits="userSpaceOnUse">
<stop></stop>
<stop offset="0.0896271" stop-opacity="0.9104"></stop>
<stop offset="1" stop-opacity="0"></stop>
</linearGradient>
<linearGradient id="paint2_linear_36519_75791" x1="66.1263" y1="122.438" x2="103.456" y2="10.0418" gradientUnits="userSpaceOnUse">
<stop stop-color="#3588E8"></stop>
<stop offset="1" stop-color="#384593"></stop>
</linearGradient>
<linearGradient id="paint3_linear_36519_75791" x1="67.4502" y1="138.477" x2="80.2384" y2="70.7272" gradientUnits="userSpaceOnUse">
<stop stop-color="#3588E8"></stop>
<stop offset="1" stop-color="#384593"></stop>
</linearGradient>
<linearGradient id="paint4_linear_36519_75791" x1="164.642" y1="98.3285" x2="187.163" y2="42.6929" gradientUnits="userSpaceOnUse">
<stop stop-color="#3674CE"></stop>
<stop offset="1" stop-color="#384593"></stop>
</linearGradient>
<linearGradient id="paint5_linear_36519_75791" x1="92.1585" y1="98.3453" x2="114.62" y2="42.7412" gradientUnits="userSpaceOnUse">
<stop stop-color="#3674CE"></stop>
<stop offset="1" stop-color="#384593"></stop>
</linearGradient>
</defs>
<path d="M236.146 151.32H112.364C111.065 151.32 110 152.386 110 153.685V200.921H238.536V153.685C238.536 152.386 237.471 151.32 236.146 151.32Z" fill="url(#paint0_linear_36519_75791)" fill-opacity="0.24"></path>
<path d="M237.961 72.3298C237.857 72.2258 237.727 72.1219 237.597 72.044L178.902 25.9767C176.2 23.7682 172.589 23.7682 169.912 25.9767L111.374 71.992C111.192 72.0959 111.01 72.2258 110.854 72.3817L169.912 118.761C172.615 120.969 176.226 120.969 178.928 118.761L237.961 72.3298Z" fill="#0F50A4"></path>
<path d="M214.42 0.179688H133.739C130.535 0.179688 127.931 2.44694 127.931 5.23566V126.33C127.931 129.118 130.535 131.386 133.739 131.386H214.42C217.623 131.386 220.228 129.118 220.228 126.33V5.23566C220.228 2.44694 217.623 0.179688 214.42 0.179688Z" fill="#F2F2F2"></path>
<path d="M237.961 72.3298C237.857 72.2258 237.727 72.1219 237.597 72.044L178.902 25.9767C176.2 23.7682 172.589 23.7682 169.912 25.9767L111.374 71.992C111.192 72.0959 111.01 72.2258 110.854 72.3817L169.912 118.761C172.615 120.969 176.226 120.969 178.928 118.761L237.961 72.3298Z" fill="url(#paint1_linear_36519_75791)" fill-opacity="0.8"></path>
<path d="M238.536 73.9807C238.536 73.3311 238.276 72.7595 237.835 72.3438L178.802 118.775C176.1 120.983 172.488 120.983 169.786 118.775L110.702 72.3957C110.286 72.8114 110 73.3831 110 74.0326L110.026 156.787C110.026 158.061 111.039 159.074 112.312 159.074L236.25 159.022C237.523 159.022 238.536 158.009 238.536 156.735V73.9807Z" fill="url(#paint2_linear_36519_75791)"></path>
<path d="M178.928 111.969C176.226 109.76 172.615 109.76 169.912 111.969L110.854 158.4C111.27 158.816 111.841 159.075 112.465 159.075L236.402 159.023C237.026 159.023 237.597 158.764 238.013 158.348L178.928 111.969Z" fill="url(#paint3_linear_36519_75791)"></path>
<path d="M185.866 117.338L238.039 72.3619L238.013 72.3359L183.32 115.363L185.866 117.338Z" fill="url(#paint4_linear_36519_75791)"></path>
<path d="M165.625 115.358L110.88 72.3828L110.854 72.4088L163.079 117.333L165.625 115.358Z" fill="url(#paint5_linear_36519_75791)"></path>
<path d="M142.892 23.3125V18.7287H144.575C144.941 18.7287 145.243 18.792 145.478 18.9186C145.718 19.0409 145.897 19.2089 146.015 19.4228C146.133 19.6324 146.192 19.8659 146.192 20.1235C146.192 20.4029 146.118 20.6583 145.969 20.8896C145.825 21.121 145.598 21.2891 145.288 21.3939L146.238 23.3125H145.275L144.424 21.5052H143.73V23.3125H142.892ZM143.73 20.8896H144.522C144.802 20.8896 145.007 20.822 145.138 20.6867C145.269 20.5513 145.334 20.3723 145.334 20.1497C145.334 19.9314 145.269 19.7568 145.138 19.6258C145.011 19.4949 144.804 19.4294 144.516 19.4294H143.73V20.8896ZM146.972 23.3125V18.7287H149.964V19.4032H147.81V20.6605H149.768V21.3153H147.81V22.638H149.964V23.3125H146.972ZM150.757 23.3125V18.7287H153.717V19.4032H151.596V20.6867H153.311V21.348H151.596V23.3125H150.757ZM154.364 23.3125V18.7287H157.357V19.4032H155.202V20.6605H157.16V21.3153H155.202V22.638H157.357V23.3125H154.364ZM158.15 23.3125V18.7287H159.833C160.199 18.7287 160.501 18.792 160.736 18.9186C160.976 19.0409 161.155 19.2089 161.273 19.4228C161.391 19.6324 161.45 19.8659 161.45 20.1235C161.45 20.4029 161.376 20.6583 161.227 20.8896C161.083 21.121 160.856 21.2891 160.546 21.3939L161.496 23.3125H160.533L159.682 21.5052H158.988V23.3125H158.15ZM158.988 20.8896H159.78C160.06 20.8896 160.265 20.822 160.396 20.6867C160.527 20.5513 160.592 20.3723 160.592 20.1497C160.592 19.9314 160.527 19.7568 160.396 19.6258C160.269 19.4949 160.062 19.4294 159.774 19.4294H158.988V20.8896ZM164.975 23.3125V21.682L163.436 18.7287H164.386L165.401 20.8438L166.409 18.7287H167.346L165.813 21.682V23.3125H164.975ZM169.736 23.3911C169.278 23.3911 168.876 23.2907 168.531 23.0899C168.191 22.889 167.922 22.6118 167.726 22.2582C167.534 21.9003 167.438 21.4877 167.438 21.0206C167.438 20.5535 167.534 20.1431 167.726 19.7895C167.922 19.4316 168.191 19.1522 168.531 18.9514C168.876 18.7506 169.278 18.6501 169.736 18.6501C170.19 18.6501 170.59 18.7506 170.935 18.9514C171.279 19.1522 171.548 19.4316 171.74 19.7895C171.932 20.1431 172.028 20.5535 172.028 21.0206C172.028 21.4877 171.932 21.9003 171.74 22.2582C171.548 22.6118 171.279 22.889 170.935 23.0899C170.59 23.2907 170.19 23.3911 169.736 23.3911ZM169.736 22.638C170.173 22.638 170.52 22.494 170.777 22.2058C171.039 21.9177 171.17 21.5226 171.17 21.0206C171.17 20.5186 171.039 20.1235 170.777 19.8354C170.52 19.5473 170.173 19.4032 169.736 19.4032C169.3 19.4032 168.95 19.5473 168.689 19.8354C168.427 20.1235 168.296 20.5186 168.296 21.0206C168.296 21.5226 168.427 21.9177 168.689 22.2058C168.95 22.494 169.3 22.638 169.736 22.638ZM174.536 23.3911C174.2 23.3911 173.897 23.3256 173.626 23.1946C173.355 23.0593 173.139 22.8563 172.978 22.5856C172.821 22.315 172.742 21.9723 172.742 21.5576V18.7287H173.58V21.5641C173.58 21.9221 173.665 22.1884 173.836 22.363C174.01 22.5376 174.25 22.6249 174.556 22.6249C174.857 22.6249 175.095 22.5376 175.27 22.363C175.444 22.1884 175.532 21.9221 175.532 21.5641V18.7287H176.37V21.5576C176.37 21.9723 176.287 22.315 176.121 22.5856C175.955 22.8563 175.732 23.0593 175.453 23.1946C175.178 23.3256 174.872 23.3911 174.536 23.3911ZM177.225 23.3125V18.7287H178.908C179.275 18.7287 179.576 18.792 179.812 18.9186C180.052 19.0409 180.231 19.2089 180.349 19.4228C180.467 19.6324 180.526 19.8659 180.526 20.1235C180.526 20.4029 180.451 20.6583 180.303 20.8896C180.159 21.121 179.932 21.2891 179.622 21.3939L180.572 23.3125H179.609L178.758 21.5052H178.064V23.3125H177.225ZM178.064 20.8896H178.856C179.135 20.8896 179.34 20.822 179.471 20.6867C179.602 20.5513 179.668 20.3723 179.668 20.1497C179.668 19.9314 179.602 19.7568 179.471 19.6258C179.345 19.4949 179.137 19.4294 178.849 19.4294H178.064V20.8896ZM182.866 23.3125V18.7287H185.825V19.4032H183.704V20.6867H185.419V21.348H183.704V23.3125H182.866ZM186.472 23.3125V18.7287H188.155C188.522 18.7287 188.823 18.792 189.059 18.9186C189.299 19.0409 189.478 19.2089 189.596 19.4228C189.714 19.6324 189.773 19.8659 189.773 20.1235C189.773 20.4029 189.698 20.6583 189.55 20.8896C189.406 21.121 189.179 21.2891 188.869 21.3939L189.818 23.3125H188.856L188.004 21.5052H187.31V23.3125H186.472ZM187.31 20.8896H188.103C188.382 20.8896 188.587 20.822 188.718 20.6867C188.849 20.5513 188.915 20.3723 188.915 20.1497C188.915 19.9314 188.849 19.7568 188.718 19.6258C188.592 19.4949 188.384 19.4294 188.096 19.4294H187.31V20.8896ZM190.552 23.3125V18.7287H191.39V23.3125H190.552ZM192.279 23.3125V18.7287H195.271V19.4032H193.117V20.6605H195.075V21.3153H193.117V22.638H195.271V23.3125H192.279ZM196.064 23.3125V18.7287H196.903L199.057 21.957V18.7287H199.895V23.3125H199.057L196.903 20.0908V23.3125H196.064ZM200.784 23.3125V18.7287H202.349C202.886 18.7287 203.327 18.8248 203.671 19.0168C204.021 19.2046 204.278 19.4709 204.444 19.8157C204.614 20.1562 204.7 20.5579 204.7 21.0206C204.7 21.4834 204.614 21.8872 204.444 22.232C204.278 22.5725 204.021 22.8388 203.671 23.0309C203.327 23.2186 202.886 23.3125 202.349 23.3125H200.784ZM201.622 22.5922H202.309C202.694 22.5922 202.997 22.5311 203.22 22.4088C203.442 22.2822 203.602 22.1033 203.698 21.8719C203.794 21.6361 203.842 21.3524 203.842 21.0206C203.842 20.6932 203.794 20.4116 203.698 20.1759C203.602 19.9402 203.442 19.759 203.22 19.6324C202.997 19.5058 202.694 19.4425 202.309 19.4425H201.622V22.5922Z" fill="#464646"></path>
<path fill-rule="evenodd" clip-rule="evenodd" d="M157.574 54.3827L160.33 54.4375L164.185 50.5859L167.242 53.6425C168.041 52.6145 169.022 51.7535 170.164 51.0943L170.364 50.9797L170.521 51.1454L169.845 48.2832C169.293 48.424 168.718 48.4963 168.133 48.4963C166.228 48.4963 164.451 47.7312 163.129 46.3443L162.972 46.1786L162.771 46.2919C159.975 47.9093 158.136 50.7342 157.595 54.2544L157.574 54.3827ZM168.132 47.0807C164.666 47.0807 161.848 44.2608 161.848 40.7955C161.848 37.3277 164.667 34.5078 168.132 34.5078C171.131 34.5078 173.647 36.6199 174.268 39.4348C171.64 40.3419 169.412 43.4285 169.389 46.9536C168.983 47.0371 168.563 47.0807 168.132 47.0807Z" fill="#0F50A4"></path>
<path fill-rule="evenodd" clip-rule="evenodd" d="M172.587 66.7927H192.283C192.521 61.5405 190.696 57.0459 185.796 54.2148L185.545 54.0702L185.342 54.2796C183.665 56.0378 181.409 57.0097 178.992 57.0097C176.575 57.0097 174.321 56.0378 172.643 54.2796L172.444 54.0702L172.19 54.2148C171.152 54.8141 170.252 55.4895 169.481 56.2309L172.769 59.5193H167.623C167.856 62.0177 168.784 64.0775 170.994 65.6538L172.587 66.7927ZM178.992 55.2154C174.596 55.2154 171.019 51.6379 171.019 47.2418C171.019 42.8419 174.595 39.2656 178.992 39.2656C183.389 39.2656 186.966 42.8419 186.966 47.238C186.966 51.6354 183.388 55.2154 178.992 55.2154Z" fill="#0F50A4"></path>
<path fill-rule="evenodd" clip-rule="evenodd" d="M163.73 53.2266L158.21 58.4987H161.363C162.152 63.7758 166.094 66.035 170.035 66.7888C167.275 64.9048 166.017 62.2668 166.017 58.4987H169.245L163.73 53.2266Z" fill="#0F50A4"></path>
<path d="M186.828 79.9297H161.806C161.027 79.9297 160.377 80.5793 160.377 81.3587V87.6206C160.377 88.4 161.027 89.0496 161.806 89.0496H186.828C187.607 89.0496 188.257 88.4 188.257 87.6206V81.3587C188.257 80.5793 187.607 79.9297 186.828 79.9297Z" fill="#0F50A4"></path>
<path d="M165.29 84.9219V83.0322H165.929C166.076 83.0322 166.198 83.0574 166.292 83.1079C166.387 83.1577 166.457 83.2263 166.503 83.3136C166.548 83.401 166.571 83.5003 166.571 83.6117C166.571 83.723 166.548 83.8217 166.503 83.9079C166.457 83.994 166.387 84.0616 166.293 84.1108C166.199 84.1594 166.079 84.1837 165.932 84.1837H165.416V83.9771H165.925C166.026 83.9771 166.107 83.9623 166.169 83.9328C166.231 83.9032 166.276 83.8614 166.303 83.8073C166.332 83.7525 166.346 83.6873 166.346 83.6117C166.346 83.536 166.332 83.4699 166.303 83.4133C166.275 83.3567 166.23 83.313 166.168 83.2823C166.106 83.2509 166.024 83.2352 165.921 83.2352H165.519V84.9219H165.29ZM166.18 84.073L166.645 84.9219H166.379L165.921 84.073H166.18ZM166.952 84.9219V83.0322H168.093V83.2352H167.181V83.8737H168.034V84.0767H167.181V84.7189H168.107V84.9219H166.952ZM169.088 84.9219H168.505V83.0322H169.114C169.297 83.0322 169.454 83.0701 169.585 83.1457C169.715 83.2208 169.815 83.3287 169.885 83.4696C169.954 83.6098 169.989 83.7778 169.989 83.9734C169.989 84.1702 169.954 84.3397 169.884 84.4818C169.813 84.6232 169.711 84.7321 169.577 84.8084C169.443 84.884 169.28 84.9219 169.088 84.9219ZM168.734 84.7189H169.074C169.23 84.7189 169.359 84.6887 169.462 84.6285C169.565 84.5682 169.641 84.4824 169.692 84.371C169.742 84.2597 169.767 84.1271 169.767 83.9734C169.767 83.8208 169.742 83.6895 169.693 83.5794C169.643 83.4687 169.568 83.3838 169.469 83.3247C169.37 83.265 169.247 83.2352 169.099 83.2352H168.734V84.7189ZM170.373 84.9219V83.0322H171.513V83.2352H170.601V83.8737H171.454V84.0767H170.601V84.7189H171.528V84.9219H170.373ZM171.926 84.9219V83.0322H173.066V83.2352H172.154V83.8737H173.007V84.0767H172.154V84.7189H173.081V84.9219H171.926ZM173.478 83.0322H173.751L174.394 84.6008H174.416L175.058 83.0322H175.331V84.9219H175.117V83.4862H175.099L174.508 84.9219H174.301L173.711 83.4862H173.692V84.9219H173.478V83.0322ZM178.019 83.0322V84.9219H177.798L176.768 83.4382H176.75V84.9219H176.521V83.0322H176.742L177.776 84.5196H177.794V83.0322H178.019ZM180.071 83.9771C180.071 84.1763 180.035 84.3486 179.963 84.4938C179.891 84.6389 179.793 84.7509 179.667 84.8296C179.542 84.9083 179.398 84.9477 179.237 84.9477C179.076 84.9477 178.933 84.9083 178.807 84.8296C178.682 84.7509 178.583 84.6389 178.511 84.4938C178.439 84.3486 178.403 84.1763 178.403 83.9771C178.403 83.7778 178.439 83.6055 178.511 83.4604C178.583 83.3152 178.682 83.2032 178.807 83.1245C178.933 83.0458 179.076 83.0064 179.237 83.0064C179.398 83.0064 179.542 83.0458 179.667 83.1245C179.793 83.2032 179.891 83.3152 179.963 83.4604C180.035 83.6055 180.071 83.7778 180.071 83.9771ZM179.85 83.9771C179.85 83.8134 179.823 83.6753 179.768 83.5628C179.714 83.4502 179.64 83.365 179.547 83.3072C179.455 83.2494 179.352 83.2205 179.237 83.2205C179.123 83.2205 179.019 83.2494 178.926 83.3072C178.834 83.365 178.761 83.4502 178.706 83.5628C178.652 83.6753 178.625 83.8134 178.625 83.9771C178.625 84.1407 178.652 84.2788 178.706 84.3913C178.761 84.5039 178.834 84.5891 178.926 84.6469C179.019 84.7047 179.123 84.7336 179.237 84.7336C179.352 84.7336 179.455 84.7047 179.547 84.6469C179.64 84.5891 179.714 84.5039 179.768 84.3913C179.823 84.2788 179.85 84.1407 179.85 83.9771ZM180.799 84.9219L180.283 83.0322H180.515L180.91 84.5713H180.929L181.331 83.0322H181.589L181.991 84.5713H182.01L182.405 83.0322H182.637L182.121 84.9219H181.884L181.467 83.4161H181.453L181.036 84.9219H180.799ZM183.181 83.0322L183.162 84.3904H182.948L182.93 83.0322H183.181ZM183.055 84.9366C183.01 84.9366 182.971 84.9203 182.938 84.8877C182.906 84.8551 182.889 84.8161 182.889 84.7706C182.889 84.725 182.906 84.686 182.938 84.6534C182.971 84.6208 183.01 84.6045 183.055 84.6045C183.101 84.6045 183.14 84.6208 183.173 84.6534C183.205 84.686 183.221 84.725 183.221 84.7706C183.221 84.8007 183.214 84.8284 183.198 84.8536C183.184 84.8788 183.164 84.8991 183.138 84.9145C183.114 84.9293 183.086 84.9366 183.055 84.9366Z" fill="#F2F2F2"></path>
<path d="M285.345 23.8602L290.94 26.9072L285.345 29.9543C283.453 30.9787 281.903 32.5547 280.853 34.446L277.806 40.041L274.759 34.446C273.734 32.5547 272.158 31.005 270.267 29.9543L264.672 26.9072L270.267 23.8602C272.158 22.8357 273.708 21.2597 274.759 19.3684L277.806 13.7734L280.853 19.3684C281.903 21.286 283.453 22.8357 285.345 23.8602Z" fill="white"></path>
<path d="M62.5431 43.1102L68.138 46.1572L62.5431 49.2043C60.6518 50.2287 59.102 51.8047 58.0513 53.696L55.0043 59.291L51.9572 53.696C50.9328 51.8047 49.3567 50.255 47.4655 49.2043L41.8705 46.1572L47.4655 43.1102C49.3567 42.0857 50.9065 40.5097 51.9572 38.6184L55.0043 33.0234L58.0513 38.6184C59.0757 40.536 60.6518 42.0857 62.5431 43.1102Z" fill="white"></path>
<path d="M271.081 6.57116L272.815 7.51678L271.081 8.46241C270.503 8.77763 270.004 9.27671 269.689 9.8546L268.743 11.5883L267.798 9.8546C267.483 9.27671 266.983 8.77763 266.406 8.46241L264.672 7.51678L266.406 6.57116C266.983 6.25594 267.483 5.75686 267.798 5.17897L268.743 3.44531L269.689 5.17897C270.004 5.78312 270.503 6.25594 271.081 6.57116Z" fill="white"></path>
<path d="M255.846 48.4696L257.58 49.4152L255.846 50.3609C255.268 50.6761 254.769 51.1752 254.454 51.753L253.508 53.4867L252.563 51.753C252.247 51.1752 251.748 50.6761 251.17 50.3609L249.437 49.4152L251.17 48.4696C251.748 48.1544 252.247 47.6553 252.563 47.0774L253.508 45.3438L254.454 47.0774C254.769 47.6816 255.268 48.1544 255.846 48.4696Z" fill="white"></path>
<path d="M44.2084 21.6727L45.942 22.6183L44.2084 23.564C43.6305 23.8792 43.1314 24.3783 42.8162 24.9562L41.8705 26.6898L40.9249 24.9562C40.6097 24.3783 40.1106 23.8792 39.5327 23.564L37.7991 22.6183L39.5327 21.6727C40.1106 21.3575 40.6097 20.8584 40.9249 20.2805L41.8705 18.5469L42.8162 20.2805C43.1314 20.8584 43.6042 21.3575 44.2084 21.6727Z" fill="white"></path>
<path d="M331.838 31.3459L332.81 31.8712L331.838 32.3966C331.523 32.5804 331.234 32.8431 331.05 33.1846L330.525 34.1565L329.999 33.1846C329.816 32.8694 329.553 32.5804 329.211 32.3966L328.24 31.8712L329.211 31.3459C329.527 31.162 329.816 30.8993 329.999 30.5578L330.525 29.5859L331.05 30.5578C331.234 30.8993 331.497 31.162 331.838 31.3459Z" fill="white"></path>
<path d="M104.256 45.1037L105.228 45.629L104.256 46.1544C103.941 46.3382 103.652 46.6009 103.468 46.9424L102.943 47.9143L102.417 46.9424C102.233 46.6272 101.971 46.3382 101.629 46.1544L100.657 45.629L101.629 45.1037C101.944 44.9198 102.233 44.6571 102.417 44.3156L102.943 43.3438L103.468 44.3156C103.652 44.6571 103.914 44.9461 104.256 45.1037Z" fill="white"></path>
<path d="M224.693 30.2898L225.586 30.7889L224.693 31.288C224.378 31.4456 224.141 31.7083 223.984 31.9972L223.484 32.8903L222.985 31.9972C222.828 31.682 222.565 31.4456 222.276 31.288L221.383 30.7889L222.276 30.2898C222.591 30.1322 222.828 29.8695 222.985 29.5806L223.484 28.6875L223.984 29.5806C224.141 29.8958 224.378 30.1322 224.693 30.2898Z" fill="white"></path>
<path d="M82.6377 26.4383L83.5308 26.9373L82.6377 27.4364C82.3225 27.594 82.0861 27.8567 81.9285 28.1456L81.4294 29.0387L80.9303 28.1456C80.7727 27.8304 80.51 27.594 80.2211 27.4364L79.328 26.9373L80.2211 26.4383C80.5363 26.2806 80.7727 26.018 80.9303 25.729L81.4294 24.8359L81.9285 25.729C82.0861 26.018 82.3225 26.2806 82.6377 26.4383Z" fill="white"></path>
<path d="M29.5773 66.3133L30.4704 66.8123L29.5773 67.3114C29.2621 67.469 29.0257 67.7317 28.8681 68.0207L28.369 68.9137L27.8699 68.0207C27.7123 67.7054 27.4496 67.469 27.1607 67.3114L26.2676 66.8123L27.1607 66.3133C27.4759 66.1557 27.7123 65.893 27.8699 65.604L28.369 64.7109L28.8681 65.604C29.0257 65.893 29.2883 66.1557 29.5773 66.3133Z" fill="white"></path>
<path d="M79.6957 55.1493L81.4294 56.0949L79.6957 57.0405C79.1178 57.3557 78.6188 57.8548 78.3035 58.4327L77.3579 60.1664L76.4123 58.4327C76.0971 57.8548 75.598 57.3557 75.0201 57.0405L73.2864 56.0949L75.0201 55.1493C75.598 54.8341 76.0971 54.335 76.4123 53.7571L77.3579 52.0234L78.3035 53.7571C78.6188 54.3612 79.0916 54.8341 79.6957 55.1493Z" fill="white"></path>
<path d="M315.106 50.8785L318.021 52.4808L315.106 54.0832C314.107 54.6348 313.319 55.4228 312.768 56.421L311.166 59.3367L309.563 56.421C309.012 55.4228 308.224 54.6348 307.225 54.0832L304.31 52.4808L307.225 50.8785C308.224 50.3269 309.012 49.5389 309.563 48.5407L311.166 45.625L312.768 48.5407C313.319 49.5389 314.107 50.3532 315.106 50.8785Z" fill="white"></path>
<path d="M6.43555 32.0761L8.16921 33.0218L6.43555 33.9674C5.85767 34.2826 5.35858 34.7817 5.04337 35.3596L4.07147 37.1195L3.12584 35.3858C2.81063 34.808 2.31155 34.3089 1.73366 33.9937L0 33.048L1.73366 32.1024C2.31155 31.7872 2.81063 31.2881 3.12584 30.7102L4.07147 28.9766L5.0171 30.7102C5.35858 31.2881 5.8314 31.7609 6.43555 32.0761Z" fill="white"></path>

</svg>