<svg width="44" height="44" viewBox="0 0 44 44" fill="none" xmlns="http://www.w3.org/2000/svg">
<rect width="44" height="44" rx="22" fill="#0F50A4" fill-opacity="0.1"/>
<path d="M21.082 15.8984V25.9341L16.5799 21.5497C16.2201 21.1993 15.6297 21.1993 15.2699 21.5497C14.91 21.9 14.91 22.4661 15.2699 22.8165L21.3496 28.7372C21.7094 29.0876 22.2906 29.0876 22.6504 28.7372L28.7301 22.8165C29.09 22.4661 29.09 21.9 28.7301 21.5497C28.5578 21.3814 28.3238 21.2869 28.0797 21.2869C27.8357 21.2869 27.6017 21.3814 27.4293 21.5497L22.9272 25.9341V15.8984C22.9272 15.4043 22.512 15 22.0046 15C21.4972 15 21.082 15.4043 21.082 15.8984Z" fill="#0F50A4"/>
</svg>
