<svg width="16" height="16" viewBox="0 0 16 16" fill="none" xmlns="http://www.w3.org/2000/svg">
<g clip-path="url(#clip0_28106_18649)">
<path d="M3.05062 11.794V10.7007C2.96982 10.7007 2.89267 10.7009 2.81753 10.7011C2.7279 10.7013 2.64112 10.7015 2.55441 10.7014C2.16186 10.6991 1.92938 10.469 1.92938 10.0763C1.92848 7.56761 1.92848 5.05892 1.92938 2.55023C1.92961 2.1568 2.16118 1.92606 2.55441 1.92606H10.0775C10.4698 1.92606 10.6998 2.1577 10.7023 2.55091V3.01667H11.8017C11.8017 2.93231 11.8045 2.8485 11.8072 2.7653C11.8131 2.58512 11.8189 2.40781 11.7966 2.23409C11.6974 1.45354 10.9937 0.794674 10.0561 0.800082C8.24177 0.810252 6.42727 0.8086 4.61274 0.806949C3.93458 0.806332 3.25641 0.805715 2.57825 0.805715C2.46344 0.802734 2.34859 0.809519 2.23493 0.825995C1.37854 0.974263 0.812194 1.64688 0.809945 2.52725C0.807997 3.54317 0.808646 4.5591 0.809296 5.57509C0.80962 6.08312 0.809945 6.59116 0.809945 7.09922C0.810012 7.40882 0.807505 7.71854 0.804998 8.02827C0.799089 8.7582 0.79318 9.48816 0.820962 10.2167C0.86368 11.3363 1.84282 12.0069 3.05062 11.794Z" fill="#DBDBDB"/>
<path d="M15.1995 10.9513C15.1992 10.5299 15.199 10.1084 15.199 9.68698C15.199 9.30908 15.1991 8.93118 15.1993 8.55328C15.1997 7.67182 15.2002 6.7904 15.1983 5.90908C15.196 4.92055 14.464 4.17853 13.4767 4.17696C10.9486 4.17155 8.4205 4.17155 5.8925 4.17696C4.9246 4.17898 4.18423 4.90433 4.18063 5.87122C4.17134 8.41506 4.17134 10.9588 4.18063 13.5025C4.18423 14.4744 4.93517 15.1984 5.90711 15.1984C8.43032 15.2006 10.9535 15.2006 13.4765 15.1984C13.6066 15.1983 13.7364 15.1841 13.8635 15.156C14.6618 14.9775 15.1967 14.3081 15.199 13.4802C15.2006 12.6373 15.2001 11.7943 15.1995 10.9513Z" fill="#DBDBDB"/>
</g>
<defs>
<clipPath id="clip0_28106_18649">
<rect width="16" height="16" fill="white"/>
</clipPath>
</defs>
</svg>
