<svg width="20" height="20" viewBox="0 0 20 20" fill="none" xmlns="http://www.w3.org/2000/svg">
<g clip-path="url(#clip0_20326_69535)">
<path d="M19.6631 11.1917H9.63477C9.09741 11.1503 8.56536 11.3221 8.15377 11.6701C7.74219 12.018 7.48418 12.5141 7.43561 13.0508L7.43477 13.0583C7.48405 13.6022 7.74724 14.1042 8.16649 14.454C8.58573 14.8039 9.12674 14.973 9.67061 14.9242L9.66311 14.925H19.6631C19.7261 14.9308 19.7895 14.924 19.8498 14.905C19.9101 14.886 19.966 14.8551 20.0142 14.8142C20.0624 14.7733 20.1019 14.7232 20.1305 14.6668C20.1591 14.6104 20.1761 14.5489 20.1806 14.4858V11.6325C20.1643 11.5105 20.1043 11.3987 20.0117 11.3176C19.9191 11.2365 19.8003 11.1918 19.6773 11.1917H19.6631ZM9.63477 14.2233C9.39908 14.2233 9.16869 14.1534 8.97272 14.0225C8.77675 13.8916 8.62401 13.7054 8.53382 13.4877C8.44362 13.2699 8.42002 13.0303 8.466 12.7992C8.51198 12.568 8.62548 12.3557 8.79214 12.189C8.95879 12.0224 9.17113 11.9089 9.40229 11.8629C9.63345 11.8169 9.87306 11.8405 10.0908 11.9307C10.3086 12.0209 10.4947 12.1736 10.6256 12.3696C10.7565 12.5656 10.8264 12.796 10.8264 13.0317V13.035C10.8264 13.6917 10.2939 14.2233 9.63811 14.2233H9.63477ZM2.74561 0V5.33667H3.88561V3.05667C4.00061 3.085 4.13394 3.10333 4.27061 3.10833H4.27394C4.68587 3.10723 5.08062 2.94317 5.37198 2.65196C5.66334 2.36076 5.82762 1.9661 5.82894 1.55417C5.82618 1.41888 5.80772 1.28437 5.77394 1.15333L5.77644 1.16583H12.0198C11.9897 1.29211 11.9724 1.42109 11.9681 1.55083V1.55417C11.9692 1.9661 12.1333 2.36085 12.4245 2.65221C12.7157 2.94357 13.1103 3.10785 13.5223 3.10917C13.6623 3.10417 13.7964 3.08583 13.9248 3.05417L13.9114 3.05667V5.33667H15.0789V0H2.74561ZM15.5698 4.68833H17.0206C16.9119 4.37261 16.7215 4.09134 16.4686 3.87322C16.2158 3.65509 15.9097 3.50791 15.5814 3.44667L15.5698 3.445V4.68833Z" fill="#0F50A4"/>
<path d="M9.55917 10.5718H19.5075V7.54094C19.4649 7.09135 19.2474 6.67648 18.9018 6.38576C18.5562 6.09505 18.1102 5.95176 17.66 5.98677H17.6658H1.86583C1.85238 5.97209 1.83398 5.96289 1.81417 5.96094C1.70462 5.90947 1.61084 5.82962 1.54256 5.72969C1.47427 5.62975 1.43397 5.51337 1.42583 5.39261V5.39094C1.4391 5.24105 1.49785 5.0988 1.59421 4.98322C1.69057 4.86765 1.81994 4.78428 1.965 4.74427L1.97 4.74344V3.42261C0.880833 3.47427 0 5.02844 0 6.97177V18.4484C0.0429927 18.8975 0.260426 19.3118 0.605575 19.6022C0.950724 19.8927 1.39604 20.0361 1.84583 20.0018H1.84H17.64C18.0879 20.0348 18.5309 19.8915 18.8745 19.6023C19.2182 19.3132 19.4352 18.9012 19.4792 18.4543L19.48 18.4476V15.4168H9.58667C7.98083 15.4168 6.685 14.3284 6.685 13.0076C6.685 11.6609 7.98 10.5726 9.56 10.5726L9.55917 10.5718Z" fill="#0F50A4"/>
</g>
<defs>
<clipPath id="clip0_20326_69535">
<rect width="20" height="20" fill="white"/>
</clipPath>
</defs>
</svg>
