<svg width="25" height="21" viewBox="0 0 25 21" fill="none" xmlns="http://www.w3.org/2000/svg">
<path d="M10.5 10.3214C12.8791 10.3214 14.8077 8.40265 14.8077 6.03571C14.8077 3.66878 12.8791 1.75 10.5 1.75C8.12093 1.75 6.19231 3.66878 6.19231 6.03571C6.19231 8.40265 8.12093 10.3214 10.5 10.3214Z" fill="#0F50A4"/>
<path d="M12.7436 12.1072H8.25641C5.65385 12.1072 3.5 14.2501 3.5 16.8394C3.5 17.4644 3.76923 18.0001 4.30769 18.2679C5.11538 18.7144 6.91026 19.2501 10.5 19.2501C14.0897 19.2501 15.8846 18.7144 16.6923 18.2679C17.141 18.0001 17.5 17.4644 17.5 16.8394C17.5 14.1608 15.3462 12.1072 12.7436 12.1072Z" fill="#0F50A4"/>
<path fill-rule="evenodd" clip-rule="evenodd" d="M16.2249 11.6373L19.825 12.7072C19.8994 12.7293 19.9668 12.6976 20.0066 12.6427C20.053 12.5855 20.0675 12.4986 20.0229 12.4219L19.487 11.5099C19.448 11.4435 19.4525 11.3594 19.4952 11.2996C19.5027 11.29 19.5113 11.2812 19.5207 11.2732L24.3712 7.21173C24.522 7.08587 24.3967 6.82832 24.214 6.88866L18.3385 8.82177C18.3007 8.83465 18.2598 8.83291 18.223 8.81685C18.1862 8.80078 18.1557 8.7714 18.1368 8.73379L17.4425 7.36852C17.3682 7.22289 17.1663 7.24695 17.1252 7.40794L16.104 11.4091C16.0789 11.5073 16.1334 11.6101 16.2249 11.6373Z" fill="#0F50A4"/>
</svg>
