<svg width="25" height="21" viewBox="0 0 25 21" fill="none" xmlns="http://www.w3.org/2000/svg">
<path d="M10.5 10.3214C12.8791 10.3214 14.8077 8.40265 14.8077 6.03571C14.8077 3.66878 12.8791 1.75 10.5 1.75C8.12093 1.75 6.19231 3.66878 6.19231 6.03571C6.19231 8.40265 8.12093 10.3214 10.5 10.3214Z" fill="#0F50A4"/>
<path d="M12.7436 12.1072H8.25641C5.65385 12.1072 3.5 14.2501 3.5 16.8394C3.5 17.4644 3.76923 18.0001 4.30769 18.2679C5.11538 18.7144 6.91026 19.2501 10.5 19.2501C14.0897 19.2501 15.8846 18.7144 16.6923 18.2679C17.141 18.0001 17.5 17.4644 17.5 16.8394C17.5 14.1608 15.3462 12.1072 12.7436 12.1072Z" fill="#0F50A4"/>
<path fill-rule="evenodd" clip-rule="evenodd" d="M24.3479 6.94768L23.4744 10.6004C23.4564 10.6761 23.395 10.7186 23.3274 10.7255C23.2547 10.7369 23.1724 10.706 23.1284 10.6292L22.6066 9.70904C22.5686 9.64216 22.4938 9.60406 22.4208 9.61094C22.4086 9.61267 22.3965 9.61564 22.3847 9.61994L16.4421 11.7898C16.2577 11.8575 16.0973 11.6202 16.2409 11.4922L20.8528 7.3704C20.8828 7.34407 20.9018 7.3078 20.9063 7.26787C20.9108 7.22793 20.9006 7.18684 20.8774 7.15169L20.0422 5.8678C19.9533 5.7306 20.075 5.5678 20.235 5.61271L24.2107 6.72888C24.3083 6.75629 24.3701 6.85482 24.3479 6.94768Z" fill="#0F50A4"/>
</svg>
