<svg width="27" height="27" viewBox="0 0 27 27" fill="none" xmlns="http://www.w3.org/2000/svg">
<path d="M25.8752 17.1223C25.414 17.1223 25.0315 17.5048 25.0315 17.9661C25.0315 21.2961 22.714 24.0861 19.5977 24.8173L19.9015 24.3111C20.1377 23.9061 20.014 23.3886 19.609 23.1523C19.2152 22.9161 18.6865 23.0398 18.4502 23.4448L17.269 25.4136C17.1115 25.6723 17.1115 25.9986 17.2577 26.2573C17.404 26.5273 17.6852 26.6848 17.989 26.6848C22.7927 26.6848 26.7077 22.7698 26.7077 17.9661C26.719 17.5048 26.3365 17.1223 25.8752 17.1223Z" fill="#0685CF"/>
<path d="M8.99951 0.247192C4.19576 0.247192 0.280762 4.16219 0.280762 8.96594C0.280762 9.42719 0.663262 9.80969 1.12451 9.80969C1.58576 9.80969 1.96826 9.42719 1.96826 8.96594C1.96826 5.63594 4.28576 2.84594 7.40201 2.11469L7.09826 2.62094C6.86201 3.02594 6.98576 3.54344 7.39076 3.77969C7.78451 4.01594 8.31326 3.89219 8.54951 3.48719L9.73076 1.51844C9.87701 1.25969 9.88826 0.944692 9.73076 0.674692C9.58451 0.415942 9.30326 0.247192 8.99951 0.247192Z" fill="#0685CF"/>
<path d="M25.0716 9.3143C25.0716 13.0015 22.39 16.0423 18.8824 16.605C18.8824 16.593 18.8824 16.593 18.8824 16.581C18.5352 12.1156 14.9198 8.47629 10.3945 8.11714C10.9572 4.60948 13.998 1.92786 17.6852 1.92786C21.7675 1.92786 25.0716 5.232 25.0716 9.3143Z" fill="#0F50A4"/>
<path d="M13.8574 17.745C13.7773 17.8217 13.6556 17.86 13.4923 17.86H13.0273V16.98H13.4923C13.6556 16.98 13.7773 17.0184 13.8574 17.095C13.9374 17.1717 13.9774 17.28 13.9774 17.42C13.9774 17.56 13.9374 17.6684 13.8574 17.745Z" fill="#0F50A4"/>
<path fill-rule="evenodd" clip-rule="evenodd" d="M9.32019 25.07C13.4016 25.07 16.7102 21.7614 16.7102 17.6801C16.7102 13.5987 13.4016 10.29 9.32019 10.29C5.23877 10.29 1.93018 13.5987 1.93018 17.6801C1.93018 21.7614 5.23877 25.07 9.32019 25.07ZM7.90515 16.29V19.8H7.05017V17.695L6.26514 19.8H5.5752L4.78516 17.69V19.8H3.93018V16.29H4.94019L5.92517 18.72L6.90015 16.29H7.90515ZM11.8151 16.29L10.5701 19.8H9.5L8.255 16.29H9.16504L10.035 18.94L10.91 16.29H11.8151ZM14.7074 17.98C14.8007 17.81 14.8474 17.6234 14.8474 17.42C14.8474 17.2 14.7991 17.005 14.7024 16.8351C14.6057 16.665 14.4607 16.5317 14.2673 16.435C14.074 16.3384 13.8374 16.29 13.5574 16.29H12.1724V19.8H13.0273V18.54H13.5574C13.844 18.54 14.084 18.4884 14.2773 18.385C14.4707 18.2817 14.614 18.1467 14.7074 17.98Z" fill="#0F50A4"/>
</svg>
