<svg width="27" height="27" viewBox="0 0 27 27" fill="none" xmlns="http://www.w3.org/2000/svg">
<path d="M25.8752 17.1223C25.414 17.1223 25.0315 17.5048 25.0315 17.9661C25.0315 21.2961 22.714 24.0861 19.5977 24.8173L19.9015 24.3111C20.1377 23.9061 20.014 23.3886 19.609 23.1523C19.2152 22.9161 18.6865 23.0398 18.4502 23.4448L17.269 25.4136C17.1115 25.6723 17.1115 25.9986 17.2577 26.2573C17.404 26.5273 17.6852 26.6848 17.989 26.6848C22.7927 26.6848 26.7077 22.7698 26.7077 17.9661C26.719 17.5048 26.3365 17.1223 25.8752 17.1223Z" fill="#0685CF"/>
<path d="M8.99951 0.247192C4.19576 0.247192 0.280762 4.16219 0.280762 8.96594C0.280762 9.42719 0.663262 9.80969 1.12451 9.80969C1.58576 9.80969 1.96826 9.42719 1.96826 8.96594C1.96826 5.63594 4.28576 2.84594 7.40201 2.11469L7.09826 2.62094C6.86201 3.02594 6.98576 3.54344 7.39076 3.77969C7.78451 4.01594 8.31326 3.89219 8.54951 3.48719L9.73076 1.51844C9.87701 1.25969 9.88826 0.944692 9.73076 0.674692C9.58451 0.415942 9.30326 0.247192 8.99951 0.247192Z" fill="#0685CF"/>
<path d="M25.0716 9.3143C25.0716 13.0015 22.39 16.0423 18.8824 16.605C18.8824 16.593 18.8824 16.593 18.8824 16.581C18.5352 12.1156 14.9198 8.47629 10.3945 8.11714C10.9572 4.60948 13.998 1.92786 17.6852 1.92786C21.7675 1.92786 25.0716 5.232 25.0716 9.3143Z" fill="#0F50A4"/>
<path fill-rule="evenodd" clip-rule="evenodd" d="M9.88547 10.3173C13.5111 10.5925 16.4068 13.4882 16.682 17.1138L16.6839 17.1441C16.6952 17.3243 16.706 17.4955 16.706 17.6882C16.706 21.7685 13.3914 25.0711 9.31111 25.0711C5.23078 25.0711 1.92822 21.7685 1.92822 17.6882C1.92822 13.5959 5.23078 10.2933 9.31111 10.2933C9.50379 10.2933 9.67499 10.3041 9.85523 10.3154C9.86528 10.316 9.87536 10.3166 9.88547 10.3173ZM10.986 17.278L8.45077 16.3944C8.1983 16.3102 8.13519 16.2892 8.14571 15.9315C8.15091 15.7546 8.29331 15.5216 8.57701 15.4371C9.02924 15.2689 9.66041 15.276 10.1549 15.4371C10.6494 15.5982 10.7651 15.7422 10.7651 16.1209C10.7651 16.5522 11.1227 16.9098 11.554 16.9098C11.9853 16.9098 12.343 16.5522 12.343 16.1209C12.343 14.9006 11.4067 13.9223 10.2391 13.8697V13.8066C10.2391 13.3753 9.88142 13.0176 9.45012 13.0176C9.01882 13.0176 8.66116 13.3753 8.66116 13.8066V13.8487H8.56649C7.46194 13.8487 6.55727 14.7849 6.55727 15.921C6.55727 16.9204 7.0096 17.562 7.91428 17.8776L10.4513 18.7619C10.6917 18.8455 10.7545 18.8674 10.7545 19.2346C10.7545 19.3106 10.7545 19.5376 10.3232 19.7291C9.91922 19.9084 9.34482 20.0026 8.74532 19.7291C8.14581 19.4555 8.13519 19.1809 8.13519 19.0453C8.13519 18.614 7.77752 18.2563 7.34623 18.2563C6.91493 18.2563 6.55727 18.614 6.55727 19.0453C6.55727 20.2656 7.4935 21.2439 8.66116 21.2965V21.3596C8.66116 21.7909 9.01882 22.1485 9.45012 22.1485C9.88142 22.1485 10.2391 21.7909 10.2391 21.3596V21.307H10.3338C11.4383 21.307 12.343 20.3707 12.343 19.2346C12.343 18.2458 11.9012 17.6041 10.986 17.278Z" fill="#0F50A4"/>
</svg>
